<?xml version="1.0" encoding="utf-8"?>
<!-- Generator: Adobe Illustrator 22.0.0, SVG Export Plug-In . SVG Version: 6.00 Build 0)  -->
<svg version="1.0" id="Layer_1" xmlns="http://www.w3.org/2000/svg" xmlns:xlink="http://www.w3.org/1999/xlink" x="0px" y="0px"
	 viewBox="0 0 467.7 765.4" style="enable-background:new 0 0 467.7 765.4;" xml:space="preserve">
<style type="text/css">
	.st0{fill:#181818;}
	.st1{fill:none;stroke:#EB3593;stroke-miterlimit:10;}
</style>
<g>
	<path class="st0" d="M454.4,659.3l-0.9,90.7H305L454.4,659.3 M459.5,650.4l-7.7,4.7l-149.4,90.7l-15.3,9.3H305h148.5h4.9l0.1-4.9
		l0.9-90.7L459.5,650.4L459.5,650.4z"/>
</g>
<g>
	<path class="st0" d="M21.4,296.1l258,446.9l-258-148.9V296.1 M16.4,277.4v18.7v298v2.9l2.5,1.4l258,148.9l16.2,9.3l-9.3-16.2
		l-258-446.9L16.4,277.4L16.4,277.4z"/>
</g>
<g>
	<path class="st0" d="M153,207.7l126.8,520.2L22.8,282.8L153,207.7 M156.3,200l-5.8,3.3L20.3,278.5L16,281l2.5,4.3l256.9,445.1
		l17.5,30.2l-8.3-33.9L157.8,206.5L156.3,200L156.3,200z"/>
</g>
<g>
	<path class="st0" d="M286.2,130.8l0,590l-126-517.2L286.2,130.8 M291.2,122.1l-7.5,4.3l-126.1,72.8l-3.2,1.9l0.9,3.6l126,517.2
		l9.9,40.4l0-41.6l0-590L291.2,122.1L291.2,122.1z"/>
</g>
<g>
	<path class="st0" d="M454.4,30.8V163l-30.2,33.7l-126.1-72.8L454.4,30.8 M459.4,22.1l-7.6,4.5l-156.3,93.1l-7.3,4.4l7.4,4.3
		l126.1,72.8l3.5,2l2.7-3l30.2-33.7l1.3-1.4V163V30.8V22.1L459.4,22.1z"/>
</g>
<g>
	<path class="st0" d="M294.2,130.8l126.1,72.8L294.1,720.8L294.2,130.8 M289.2,122.1l0,8.7l0,590l0,41.6L299,722l126.1-517.2
		l0.9-3.6l-3.2-1.9l-126.1-72.8L289.2,122.1L289.2,122.1z"/>
</g>
<g>
	<path class="st0" d="M427.4,207.7l27,17.2v233.5L300.6,727.8L427.4,207.7 M424.2,199.8l-1.7,6.8L295.7,726.7l-8.4,34.5l17.6-30.8
		l153.9-269.4l0.7-1.2v-1.3V224.9v-2.7l-2.3-1.5l-27-17.2L424.2,199.8L424.2,199.8z"/>
</g>
<g>
	<path class="st0" d="M454.4,467.8v183.7L301,743L454.4,467.8 M459.4,448.5l-9.4,16.8L296.6,740.5l-9.1,16.3l16-9.5L457,655.8
		l2.4-1.5v-2.8V467.8V448.5L459.4,448.5z"/>
</g>
<g>
	<path class="st0" d="M285.2,9.9l22.2,91.5l-144.1,82l-33-135.9L285.2,9.9 M288.9,3.8L284.1,5L129.2,42.6l-4.9,1.2l1.2,4.9l33,135.9
		l1.6,6.4l5.8-3.3l144.1-82l3.3-1.9l-0.9-3.7L290.1,8.7L288.9,3.8L288.9,3.8z"/>
</g>
<g>
	<path class="st0" d="M103.2,35.7l45.4,144.5L15.2,222.2l-2-158.1L103.2,35.7 M106.5,29.4l-4.8,1.5l-90,28.3l-3.5,1.1l0,3.7l2,158.1
		l0.1,6.7l6.4-2L150.1,185l4.8-1.5l-1.5-4.8L108,34.2L106.5,29.4L106.5,29.4z"/>
</g>
<g>
	<polyline class="st1" points="0.1,16.3 0.1,0.1 16.3,0.1 	"/>
	<polyline class="st1" points="451.3,765.1 467.5,765.1 467.5,748.9 	"/>
</g>
</svg>
