<?xml version="1.0" encoding="utf-8"?>
<!-- Generator: Adobe Illustrator 22.0.0, SVG Export Plug-In . SVG Version: 6.00 Build 0)  -->
<svg version="1.0" id="Layer_1" xmlns="http://www.w3.org/2000/svg" xmlns:xlink="http://www.w3.org/1999/xlink" x="0px" y="0px"
	 viewBox="0 0 467.7 765.4" style="enable-background:new 0 0 467.7 765.4;" xml:space="preserve">
<style type="text/css">
	.st0{fill:#FFFFFF;}
	.st1{fill:#19B3E8;}
	.st2{fill:none;stroke:#CCCCCC;stroke-linecap:round;}
	.st3{fill:none;stroke:#EB3593;stroke-miterlimit:10;}
</style>
<circle class="st0" cx="114.7" cy="579.5" r="1.5"/>
<circle class="st0" cx="50.4" cy="449.4" r="1.3"/>
<circle class="st0" cx="233" cy="246.1" r="1"/>
<circle class="st0" cx="244" cy="189.1" r="1.1"/>
<circle class="st0" cx="366.1" cy="200.2" r="1.2"/>
<circle class="st1" cx="138.9" cy="311" r="0.9"/>
<circle class="st1" cx="190" cy="299.5" r="1"/>
<circle class="st0" cx="407.9" cy="185.4" r="1.4"/>
<circle class="st0" cx="344.6" cy="142.3" r="1.5"/>
<circle class="st0" cx="430.7" cy="320.4" r="1.1"/>
<circle class="st0" cx="432" cy="369.8" r="0.8"/>
<circle class="st0" cx="350.1" cy="600.7" r="1.4"/>
<circle class="st0" cx="222.7" cy="537.6" r="1"/>
<circle class="st0" cx="287.6" cy="531" r="0.9"/>
<circle class="st0" cx="227.8" cy="576.4" r="1.5"/>
<circle class="st0" cx="295.2" cy="664.8" r="1.3"/>
<circle class="st0" cx="363.6" cy="734.1" r="1.9"/>
<circle class="st0" cx="428.1" cy="650.5" r="1.5"/>
<circle class="st0" cx="143.2" cy="633.9" r="1.5"/>
<circle class="st0" cx="84.2" cy="585.2" r="3.8"/>
<circle class="st0" cx="164.8" cy="417.5" r="1.5"/>
<circle class="st0" cx="269.1" cy="385.6" r="1.7"/>
<circle class="st0" cx="280.3" cy="367.7" r="3"/>
<circle class="st0" cx="291.3" cy="343" r="1.3"/>
<circle class="st0" cx="328.6" cy="272.1" r="1.3"/>
<circle class="st0" cx="218.5" cy="310.2" r="1.4"/>
<circle class="st0" cx="175.9" cy="232" r="1.2"/>
<circle class="st0" cx="395.4" cy="127" r="1.6"/>
<circle class="st0" cx="131" cy="229.8" r="1.2"/>
<circle class="st1" cx="431.2" cy="683.5" r="0.7"/>
<circle class="st1" cx="426.4" cy="608.9" r="0.8"/>
<circle class="st1" cx="382.9" cy="605.1" r="1"/>
<path class="st2" d="M162.8,173c1.5,3,3,6.1,4.5,9.2"/>
<circle class="st0" cx="257.7" cy="67.8" r="2.4"/>
<path class="st2" d="M14.9,198.2c3.5-0.3,7.1-0.6,10.6-0.9"/>
<g>
	<polyline class="st3" points="0.1,16.3 0.1,0.1 16.3,0.1 	"/>
	<polyline class="st3" points="451.3,765.1 467.5,765.1 467.5,748.9 	"/>
</g>
</svg>
