<?xml version="1.0" encoding="utf-8"?>
<!-- Generator: Adobe Illustrator 22.0.0, SVG Export Plug-In . SVG Version: 6.00 Build 0)  -->
<svg version="1.0" id="Layer_1" xmlns="http://www.w3.org/2000/svg" xmlns:xlink="http://www.w3.org/1999/xlink" x="0px" y="0px"
	 viewBox="0 0 467.7 765.4" style="enable-background:new 0 0 467.7 765.4;" xml:space="preserve">
<style type="text/css">
	.st0{fill:#FFFFFF;}
	.st1{fill:#19B3E8;}
	.st2{fill:none;stroke:#EB3593;stroke-miterlimit:10;}
</style>
<circle class="st0" cx="289.5" cy="468.2" r="2.9"/>
<circle class="st0" cx="439.4" cy="109.8" r="1.1"/>
<path class="st0" d="M337.8,163c0,0.7,0.6,1.3,1.3,1.3c0.7,0,1.3-0.6,1.3-1.3c0-0.7-0.6-1.3-1.3-1.3
	C338.4,161.7,337.8,162.3,337.8,163z"/>
<circle class="st0" cx="387.3" cy="390" r="1.3"/>
<circle class="st0" cx="399.9" cy="424.2" r="1.2"/>
<circle class="st0" cx="406" cy="438.2" r="1.2"/>
<circle class="st0" cx="415.4" cy="428.6" r="1"/>
<circle class="st0" cx="424.2" cy="439.6" r="1"/>
<circle class="st0" cx="301.1" cy="479.5" r="1.2"/>
<circle class="st0" cx="271.6" cy="469.2" r="0.9"/>
<circle class="st0" cx="252.9" cy="463.4" r="0.9"/>
<circle class="st0" cx="255.4" cy="457.6" r="0.8"/>
<circle class="st0" cx="119.3" cy="642.6" r="1.1"/>
<circle class="st0" cx="54.4" cy="580.5" r="1.4"/>
<circle class="st0" cx="283.9" cy="290.7" r="1.1"/>
<circle class="st1" cx="385.4" cy="716.3" r="1"/>
<circle class="st0" cx="67.4" cy="88.3" r="2.4"/>
<circle class="st0" cx="195" cy="85.1" r="1"/>
<circle class="st0" cx="46.9" cy="96.2" r="1.2"/>
<circle class="st0" cx="53" cy="110.2" r="1.2"/>
<circle class="st0" cx="79.9" cy="68.1" r="1"/>
<circle class="st0" cx="71.2" cy="111.6" r="1"/>
<g>
	<polyline class="st2" points="0.1,16.3 0.1,0.1 16.3,0.1 	"/>
	<polyline class="st2" points="451.3,765.1 467.5,765.1 467.5,748.9 	"/>
</g>
</svg>
