<?xml version="1.0" encoding="utf-8"?>
<!-- Generator: Adobe Illustrator 22.0.0, SVG Export Plug-In . SVG Version: 6.00 Build 0)  -->
<svg version="1.0" id="Layer_1" xmlns="http://www.w3.org/2000/svg" xmlns:xlink="http://www.w3.org/1999/xlink" x="0px" y="0px"
	 viewBox="0 0 467.7 765.4" style="enable-background:new 0 0 467.7 765.4;" xml:space="preserve">
<style type="text/css">
	.st0{fill:#19B3E8;}
	.st1{fill:#FFFFFF;}
	.st2{fill:none;stroke:#EB3593;stroke-miterlimit:10;}
</style>
<circle class="st0" cx="412.2" cy="227" r="0.9"/>
<circle class="st0" cx="393" cy="266.2" r="1.1"/>
<circle class="st0" cx="446.6" cy="738.5" r="1"/>
<circle class="st0" cx="392.3" cy="735.6" r="0.9"/>
<circle class="st0" cx="394.3" cy="673.6" r="1.1"/>
<circle class="st0" cx="428.9" cy="482.9" r="0.7"/>
<circle class="st0" cx="370.2" cy="515.5" r="0.9"/>
<circle class="st0" cx="368.1" cy="627.8" r="0.8"/>
<circle class="st0" cx="310.2" cy="160.9" r="1"/>
<circle class="st0" cx="182.7" cy="658.9" r="0.9"/>
<circle class="st0" cx="189.6" cy="645.1" r="0.9"/>
<circle class="st0" cx="37.4" cy="548.1" r="0.8"/>
<circle class="st0" cx="41.7" cy="492.5" r="1"/>
<circle class="st0" cx="62" cy="484.6" r="1.1"/>
<circle class="st0" cx="51.6" cy="499.7" r="1.3"/>
<circle class="st0" cx="110.7" cy="488.3" r="1.2"/>
<circle class="st0" cx="115.3" cy="462" r="1"/>
<circle class="st0" cx="149.5" cy="429.6" r="1.3"/>
<circle class="st0" cx="246.3" cy="268.5" r="1.1"/>
<circle class="st0" cx="165.8" cy="223.2" r="1"/>
<circle class="st0" cx="18.2" cy="362" r="1"/>
<circle class="st0" cx="21.9" cy="288.6" r="1.1"/>
<circle class="st0" cx="199.3" cy="118.3" r="1"/>
<circle class="st0" cx="191.4" cy="104.8" r="1.3"/>
<circle class="st0" cx="54.3" cy="164.5" r="1"/>
<circle class="st0" cx="70" cy="164.2" r="1.3"/>
<circle class="st0" cx="208.3" cy="107.5" r="1.1"/>
<circle class="st1" cx="289.5" cy="468.2" r="2.9"/>
<circle class="st1" cx="439.4" cy="109.8" r="1.1"/>
<path class="st1" d="M337.8,163c0,0.7,0.6,1.3,1.3,1.3c0.7,0,1.3-0.6,1.3-1.3c0-0.7-0.6-1.3-1.3-1.3
	C338.4,161.7,337.8,162.3,337.8,163z"/>
<circle class="st1" cx="387.3" cy="390" r="1.3"/>
<circle class="st1" cx="399.9" cy="424.2" r="1.2"/>
<circle class="st1" cx="406" cy="438.2" r="1.2"/>
<circle class="st1" cx="415.4" cy="428.6" r="1"/>
<circle class="st1" cx="424.2" cy="439.6" r="1"/>
<circle class="st1" cx="301.1" cy="479.5" r="1.2"/>
<circle class="st1" cx="271.6" cy="469.2" r="0.9"/>
<circle class="st1" cx="252.9" cy="463.4" r="0.9"/>
<circle class="st1" cx="255.4" cy="457.6" r="0.8"/>
<circle class="st1" cx="119.3" cy="642.6" r="1.1"/>
<circle class="st1" cx="54.4" cy="580.5" r="1.4"/>
<circle class="st1" cx="283.9" cy="290.7" r="1.1"/>
<circle class="st0" cx="385.4" cy="716.3" r="1"/>
<circle class="st1" cx="67.4" cy="88.3" r="2.4"/>
<circle class="st1" cx="195" cy="85.1" r="1"/>
<circle class="st1" cx="46.9" cy="96.2" r="1.2"/>
<circle class="st1" cx="53" cy="110.2" r="1.2"/>
<circle class="st1" cx="79.9" cy="68.1" r="1"/>
<circle class="st1" cx="71.2" cy="111.6" r="1"/>
<g>
	<polyline class="st2" points="0.1,16.3 0.1,0.1 16.3,0.1 	"/>
	<polyline class="st2" points="451.3,765.1 467.5,765.1 467.5,748.9 	"/>
</g>
</svg>
