<?xml version="1.0" encoding="utf-8"?>
<!-- Generator: Adobe Illustrator 22.0.0, SVG Export Plug-In . SVG Version: 6.00 Build 0)  -->
<svg version="1.0" id="Layer_1" xmlns="http://www.w3.org/2000/svg" xmlns:xlink="http://www.w3.org/1999/xlink" x="0px" y="0px"
	 viewBox="0 0 467.7 765.4" style="enable-background:new 0 0 467.7 765.4;" xml:space="preserve">
<style type="text/css">
	.st0{fill:#181818;}
	.st1{fill:none;stroke:#EB3593;stroke-miterlimit:10;}
</style>
<g>
	<path class="st0" d="M19.8,281l258,446.9L19.8,579V281 M14.8,262.3V281v298v2.9l2.5,1.4l258,148.9l16.2,9.3l-9.3-16.2l-258-446.9
		L14.8,262.3L14.8,262.3z"/>
</g>
<g>
	<path class="st0" d="M151.5,192.6l126.8,520.2L21.3,267.7L151.5,192.6 M154.7,184.9l-5.8,3.3L18.8,263.4l-4.3,2.5l2.5,4.3
		l256.9,445.1l17.5,30.2l-8.3-33.9L156.3,191.4L154.7,184.9L154.7,184.9z"/>
</g>
<g>
	<path class="st0" d="M284.7,115.7l0,590l-126-517.2L284.7,115.7 M289.7,107.1l-7.5,4.3l-126.1,72.8l-3.2,1.9l0.9,3.6l126,517.2
		l9.9,40.4l0-41.6l0-590L289.7,107.1L289.7,107.1z"/>
</g>
<g>
	<path class="st0" d="M452,15v133.7l-29.3,33l-126.1-72.8L452,15 M457,6.1l-7.6,4.6L294,104.6l-7.2,4.4l7.3,4.2L420.2,186l3.5,2
		l2.7-3l29.3-33l1.3-1.4v-1.9V15V6.1L457,6.1z"/>
</g>
<g>
	<path class="st0" d="M292.6,115.7l126.1,72.8L292.6,705.7L292.6,115.7 M287.6,107.1l0,8.7l0,590l0,41.6l9.9-40.4l126.1-517.2
		l0.9-3.6l-3.2-1.9l-126.1-72.8L287.6,107.1L287.6,107.1z"/>
</g>
<g>
	<path class="st0" d="M425.9,192.7l29.2,16.8L453.6,438L299,712.8L425.9,192.7 M422.6,185l-1.6,6.5L294.2,711.6l-8.6,35.3l17.8-31.7
		L458,440.5l0.6-1.1l0-1.3l1.4-228.5l0-2.9l-2.5-1.5l-29.2-16.8L422.6,185L422.6,185z"/>
</g>
<g>
	<path class="st0" d="M453.6,449.1v182.6l-154.2,96.2L453.6,449.1 M458.6,429.7l-9.4,17L295.1,725.5l-9.3,16.9l16.3-10.2l154.2-96.2
		l2.4-1.5v-2.8V449.1V429.7L458.6,429.7z"/>
</g>
<g>
	<path class="st0" d="M453.6,638.5v92.6l-150.2-1.9L453.6,638.5 M458.6,629.7l-7.6,4.6l-150.2,90.6l-15,9.1l17.5,0.2l150.2,1.9
		l5.1,0.1v-5.1v-92.6V629.7L458.6,629.7z"/>
</g>
<g>
	<path class="st0" d="M192,20.4v106.1L32.6,222l0-156L192,20.4 M197,13.8l-6.4,1.8L31.3,61.2l-3.6,1l0,3.8l0,156l0,8.8l7.6-4.5
		l159.4-95.4l2.4-1.5v-2.8V20.4V13.8L197,13.8z"/>
</g>
<g>
	<polyline class="st1" points="0.1,16.3 0.1,0.1 16.3,0.1 	"/>
	<polyline class="st1" points="451.3,765.1 467.5,765.1 467.5,748.9 	"/>
</g>
</svg>
