<?xml version="1.0" encoding="utf-8"?>
<!-- Generator: Adobe Illustrator 22.0.0, SVG Export Plug-In . SVG Version: 6.00 Build 0)  -->
<svg version="1.0" id="Layer_1" xmlns="http://www.w3.org/2000/svg" xmlns:xlink="http://www.w3.org/1999/xlink" x="0px" y="0px"
	 viewBox="0 0 467.7 765.4" style="enable-background:new 0 0 467.7 765.4;" xml:space="preserve">
<style type="text/css">
	.st0{fill:none;stroke:#CCCCCC;stroke-linecap:round;}
	.st1{fill:none;stroke:#EB3593;stroke-miterlimit:10;}
</style>
<path class="st0" d="M466.5,688.1c-8.4,14.4-17,28.7-26,42.7"/>
<path class="st0" d="M459.2,679.7c-1.6,2.8-3.3,5.7-4.9,8.5"/>
<path class="st0" d="M448.2,698.4c-1.4,2.3-2.7,4.5-4.1,6.8"/>
<path class="st0" d="M466.5,645c-15.8,29.4-32.8,58.1-51.2,86"/>
<path class="st0" d="M447.7,657.4c-1.9,3.4-3.8,6.7-5.7,10.1"/>
<path class="st0" d="M439.1,672.5c-0.3,0.6-0.7,1.1-1,1.7"/>
<path class="st0" d="M436.2,677.6c-1,1.7-2,3.3-2.9,5"/>
<path class="st0" d="M429.3,689.2c-0.3,0.6-0.7,1.1-1,1.7"/>
<path class="st0" d="M423.2,699.1c-2,3.3-4.1,6.6-6.2,9.9"/>
<path class="st0" d="M466,600.1c-5.8,11.9-11.9,23.7-18.2,35.4"/>
<path class="st0" d="M438.6,652.3c-15,26.8-31.1,53-48.3,78.5"/>
<path class="st0" d="M460.1,588.1c-5.2,10.8-10.6,21.6-16.2,32.3"/>
<path class="st0" d="M441.2,625.4c-1.8,3.4-3.6,6.7-5.4,10.1"/>
<path class="st0" d="M433.1,640.5c-0.3,0.6-0.6,1.1-0.9,1.7"/>
<path class="st0" d="M421,662c-1,1.6-1.9,3.3-2.9,4.9"/>
<path class="st0" d="M414.2,673.5c-0.6,1.1-1.3,2.2-1.9,3.2"/>
<path class="st0" d="M405.3,688.1c-1.3,2.2-2.7,4.3-4,6.5"/>
<path class="st0" d="M466.5,549.1c-16.2,36.8-34.4,72.8-54.6,107.6"/>
<path class="st0" d="M402.3,673c-5.2,8.6-10.5,17.1-15.9,25.6"/>
<path class="st0" d="M382.3,704.9c-5.5,8.4-11.1,16.7-16.8,25"/>
<path class="st0" d="M467,521.1c-5,12.1-10.1,24.1-15.5,36"/>
<path class="st0" d="M449.1,562.2c-3.4,7.3-6.8,14.6-10.4,21.9"/>
<path class="st0" d="M436.3,589.1c-0.8,1.7-1.7,3.3-2.5,5"/>
<path class="st0" d="M432.9,595.8c-2.5,5-5.1,10-7.6,14.9"/>
<path class="st0" d="M420,620.6c-2.9,5.5-5.9,10.9-8.9,16.3"/>
<path class="st0" d="M408.3,641.8c-0.3,0.5-0.6,1.1-0.9,1.6"/>
<path class="st0" d="M405.6,646.7c-0.9,1.6-1.9,3.2-2.8,4.8"/>
<path class="st0" d="M396.2,662.7c-1,1.6-1.9,3.2-2.9,4.8"/>
<path class="st0" d="M383.5,683.4c-1,1.6-2,3.1-3,4.7"/>
<path class="st0" d="M370.4,703.8c-1.4,2.1-2.7,4.1-4.1,6.2"/>
<path class="st0" d="M466.5,493.7c-24.5,64.1-55.3,125.8-91.9,184.2"/>
<path class="st0" d="M364.7,693.4c-8.1,12.4-16.4,24.6-25,36.6"/>
<path class="st0" d="M466.7,462.7c-9.4,26.7-19.9,53.1-31.4,79"/>
<path class="st0" d="M433.1,546.7c-1.8,3.9-3.5,7.8-5.3,11.6"/>
<path class="st0" d="M425.4,563.3c-4.9,10.5-10.1,20.8-15.4,31.1"/>
<path class="st0" d="M407.5,599.3c-2,3.8-4,7.5-6,11.3"/>
<path class="st0" d="M399,615.5c-1.7,3.2-3.5,6.4-5.3,9.6"/>
<path class="st0" d="M391,629.9c-1.5,2.7-3,5.3-4.5,8"/>
<path class="st0" d="M384.6,641c-2.1,3.7-4.3,7.4-6.5,11"/>
<path class="st0" d="M370.6,664.5c-0.6,1-1.3,2.1-1.9,3.1"/>
<path class="st0" d="M365.8,672.3c-1.3,2.1-2.6,4.1-3.9,6.2"/>
<path class="st0" d="M333,703c-0.3,0.5-0.7,1-1,1.5"/>
<path class="st0" d="M324.7,714.9c-0.7,1-1.4,2-2.1,2.9"/>
<path class="st0" d="M321.6,719.3c-2.8,3.9-5.6,7.8-8.5,11.7"/>
<path class="st0" d="M459.5,417.6c-0.9,2.8-1.8,5.7-2.7,8.5"/>
<path class="st0" d="M454.6,432.9c-0.4,1.1-0.7,2.3-1.1,3.4"/>
<path class="st0" d="M440.5,473.5c-0.6,1.7-1.3,3.4-1.9,5.1"/>
<path class="st0" d="M436.7,483.6c-1.1,2.8-2.1,5.5-3.2,8.3"/>
<path class="st0" d="M432.1,495.2c-6.2,15.5-12.7,30.9-19.7,46.1"/>
<path class="st0" d="M410.2,546.2c-3.3,7.1-6.6,14.1-10,21"/>
<path class="st0" d="M397,573.7c-3.5,6.9-7,13.8-10.6,20.7"/>
<path class="st0" d="M383.9,599.2c-3.9,7.4-8,14.7-12.1,22"/>
<path class="st0" d="M370,624.3c-0.3,0.5-0.6,1-0.9,1.5"/>
<path class="st0" d="M366.5,630.5c-3,5.2-6,10.3-9.1,15.4"/>
<path class="st0" d="M354.6,650.4c-0.3,0.5-0.6,1-0.9,1.5"/>
<path class="st0" d="M350.8,656.6c-0.6,1-1.3,2-1.9,3.1"/>
<path class="st0" d="M340.3,673.2c-3.2,5-6.5,10-9.9,15"/>
<path class="st0" d="M328.4,691.1c-0.7,1-1.4,2-2,3"/>
<path class="st0" d="M458.4,383.8c-8.3,30.2-17.9,60-28.9,89.3"/>
<path class="st0" d="M428.2,476.5c-1.1,2.8-2.1,5.5-3.2,8.3"/>
<path class="st0" d="M423,489.7c-0.7,1.6-1.3,3.3-2,4.9"/>
<path class="st0" d="M408,525.7c-0.2,0.5-0.5,1.1-0.7,1.6"/>
<path class="st0" d="M398.5,546.7c-0.5,1.1-1,2.1-1.5,3.2"/>
<path class="st0" d="M396.2,551.5c-1.5,3.2-3.1,6.4-4.6,9.6"/>
<path class="st0" d="M390.8,562.6c-1.6,3.2-3.1,6.4-4.7,9.6"/>
<path class="st0" d="M385.3,573.8c-17.1,33.8-36,66.5-56.7,98.2"/>
<path class="st0" d="M327.6,673.4c-1.6,2.5-3.3,4.9-4.9,7.4"/>
<path class="st0" d="M320.7,683.8c-2.6,3.9-5.3,7.8-8,11.7"/>
<path class="st0" d="M310.7,698.4c-1,1.4-2,2.9-3.1,4.3"/>
<path class="st0" d="M299.3,714.2c-0.7,0.9-1.4,1.9-2.1,2.8"/>
<path class="st0" d="M461.5,326.5c-0.7,3.4-1.5,6.8-2.3,10.3"/>
<path class="st0" d="M456.9,347.1c-0.4,1.7-0.8,3.4-1.2,5.1"/>
<path class="st0" d="M445.9,389.5c-4,14.1-8.3,28.1-12.9,41.9"/>
<path class="st0" d="M423.8,458c-9.6,26.4-20.2,52.4-31.9,77.9"/>
<path class="st0" d="M391.2,537.4c-0.7,1.6-1.5,3.2-2.2,4.8"/>
<path class="st0" d="M385.9,548.6c-0.5,1-1,2.1-1.5,3.1"/>
<path class="st0" d="M380.6,559.6c-0.5,1-1,2.1-1.5,3.1"/>
<path class="st0" d="M313,676.4c-0.3,0.5-0.7,1-1,1.5"/>
<path class="st0" d="M462.7,261c-5.3,36.1-12.6,71.9-21.9,107.3"/>
<path class="st0" d="M465.1,244.1c-0.3,2-0.5,4-0.8,6"/>
<path class="st0" d="M438.6,376.6c-0.1,0.5-0.3,1.1-0.4,1.6"/>
<path class="st0" d="M434.8,390c-4.9,17.3-10.4,34.4-16.2,51.3"/>
<path class="st0" d="M416.3,447.9c-27.3,77-63.9,150.3-109.1,218.4"/>
<path class="st0" d="M291.5,689.2c-1,1.4-2,2.9-3,4.3"/>
<path class="st0" d="M271,717.2c-0.7,0.9-1.4,1.9-2.1,2.8"/>
<path class="st0" d="M457.7,217c-2,19.4-4.6,38.7-7.7,57.9"/>
<path class="st0" d="M449.4,278.3c-3,18.1-6.6,36.1-10.6,53.9"/>
<path class="st0" d="M435.3,347.2c-0.8,3.3-1.6,6.7-2.5,10"/>
<path class="st0" d="M431.1,363.9c-0.9,3.3-1.7,6.6-2.6,9.9"/>
<path class="st0" d="M422.3,395.4c-3.6,12.1-7.4,24.1-11.4,36"/>
<path class="st0" d="M405.3,447.6c-20.1,56.1-45.2,110.2-75.1,161.8"/>
<path class="st0" d="M328.4,612.4c-0.6,1-1.1,2-1.7,2.9"/>
<path class="st0" d="M324.1,619.7c-0.3,0.5-0.6,1-0.9,1.5"/>
<path class="st0" d="M320.5,625.6c-0.9,1.5-1.8,2.9-2.7,4.4"/>
<path class="st0" d="M314.3,635.9c-0.6,1-1.2,2-1.8,2.9"/>
<path class="st0" d="M293.7,667.6c-0.6,0.9-1.3,1.9-1.9,2.8"/>
<path class="st0" d="M447.7,210.8c-1,10.7-2.3,21.4-3.7,32.1"/>
<path class="st0" d="M442.7,253c-6.1,42.6-15,84.8-26.6,126.3"/>
<path class="st0" d="M414.7,384.2c-21.7,75.8-52.6,148.6-91.9,217"/>
<path class="st0" d="M321.1,604.1c-1.1,2-2.3,3.9-3.4,5.9"/>
<path class="st0" d="M307.1,627.5c-6.8,11.1-13.9,22-21.2,32.8"/>
<path class="st0" d="M281.2,667.3c-2.6,3.7-5.2,7.5-7.8,11.2"/>
<path class="st0" d="M266.4,688.1c-1.3,1.8-2.7,3.7-4,5.5"/>
<path class="st0" d="M258.3,699.1c-3,4.1-6.1,8.1-9.2,12.1"/>
<path class="st0" d="M182.9,100.3c0.5,3.4,0.9,6.7,1.4,10.1"/>
<path class="st0" d="M448.4,27.6c0.8,8.5,1.4,16.9,2,25.4"/>
<path class="st0" d="M436.6,216.5c-4.1,39-10.6,77.8-19.4,116"/>
<path class="st0" d="M410.8,358.6c-0.4,1.6-0.8,3.2-1.3,4.9"/>
<path class="st0" d="M402.2,389.4c-15.4,52.1-35.3,102.9-59.3,151.7"/>
<path class="st0" d="M334.6,557.6c-0.3,0.5-0.5,1-0.8,1.5"/>
<path class="st0" d="M312.8,597.4c-1.4,2.4-2.8,4.8-4.2,7.2"/>
<path class="st0" d="M307.8,606.1c-0.9,1.4-1.7,2.9-2.6,4.3"/>
<path class="st0" d="M302.6,614.8c-0.3,0.5-0.6,1-0.9,1.4"/>
<path class="st0" d="M299.1,620.5c-0.9,1.4-1.8,2.9-2.7,4.3"/>
<path class="st0" d="M295.5,626.2c-1.2,1.9-2.4,3.8-3.6,5.7"/>
<path class="st0" d="M275.3,657.2c-1.6,2.3-3.2,4.6-4.8,6.9"/>
<path class="st0" d="M264.8,672.4c-1.3,1.8-2.6,3.7-3.9,5.5"/>
<path class="st0" d="M250,692.8c-0.3,0.5-0.7,0.9-1,1.4"/>
<path class="st0" d="M244.9,699.5c-0.3,0.4-0.7,0.9-1,1.3"/>
<path class="st0" d="M170.8,90.1c0.8,5,1.5,10,2.2,15"/>
<path class="st0" d="M426.7,210.4c-5.3,53.5-15.2,106.5-29.5,158.4"/>
<path class="st0" d="M392.6,384.8c-13,44.2-29.2,87.3-48.4,129.1"/>
<path class="st0" d="M343.5,515.4c-1.6,3.5-3.3,7.1-5,10.6"/>
<path class="st0" d="M319.9,563.1c-10.4,19.6-21.5,38.8-33.3,57.6"/>
<path class="st0" d="M281.3,629.1c-4.8,7.5-9.6,14.9-14.6,22.2"/>
<path class="st0" d="M260,660.9c-2.8,4.1-5.7,8.1-8.6,12.2"/>
<path class="st0" d="M247.5,678.5c-4.9,6.7-9.9,13.4-15,20"/>
<path class="st0" d="M158.3,78.6c1.2,7.1,2.3,14.2,3.3,21.3"/>
<path class="st0" d="M411.5,248.6c-3.9,27.7-9.1,55.2-15.5,82.4"/>
<path class="st0" d="M389.2,358.1c-0.4,1.6-0.9,3.2-1.3,4.8"/>
<path class="st0" d="M380.2,389.7c-6.1,19.9-12.8,39.7-20.1,59.2"/>
<path class="st0" d="M356.5,458.1c-0.6,1.5-1.2,3.1-1.8,4.6"/>
<path class="st0" d="M334,511c-1.4,3-2.8,6-4.2,9"/>
<path class="st0" d="M328.4,522.9c-1.7,3.5-3.3,6.9-5,10.3"/>
<path class="st0" d="M321.9,536.2c-1,2-2,3.9-3,5.9"/>
<path class="st0" d="M312.9,553.8c-2.5,4.8-5.1,9.7-7.8,14.5"/>
<path class="st0" d="M302.8,572.6c-2.1,3.8-4.3,7.7-6.5,11.5"/>
<path class="st0" d="M293.8,588.4c-0.8,1.4-1.6,2.8-2.5,4.3"/>
<path class="st0" d="M274.2,620.7c-2.9,4.6-5.9,9.2-8.9,13.8"/>
<path class="st0" d="M253.3,652.2c-1.2,1.8-2.5,3.6-3.8,5.4"/>
<path class="st0" d="M239,672.3c-1.3,1.8-2.6,3.5-3.9,5.3"/>
<path class="st0" d="M234.1,678.9c-2.3,3.1-4.6,6.1-6.9,9.2"/>
<path class="st0" d="M404.4,221.3c-0.2,1.6-0.4,3.2-0.6,4.8"/>
<path class="st0" d="M392,300c-0.1,0.5-0.2,1.1-0.3,1.6"/>
<path class="st0" d="M387.6,320.7c-0.5,2.1-1,4.2-1.5,6.3"/>
<path class="st0" d="M360.2,417.6c-0.3,1-0.7,2-1.1,3.1"/>
<path class="st0" d="M354.8,432.9c-1.1,3.1-2.2,6.1-3.4,9.2"/>
<path class="st0" d="M349.7,446.7c-17.5,46.1-38.7,90.8-63.3,133.6"/>
<path class="st0" d="M281.5,588.7c-6.9,11.7-14,23.2-21.4,34.6"/>
<path class="st0" d="M254.7,631.4c-4.5,6.8-9.1,13.5-13.8,20.1"/>
<path class="st0" d="M233.4,662.1c-6.7,9.2-13.5,18.3-20.5,27.3"/>
<path class="st0" d="M135.4,69.2c0.6,3.2,1.1,6.4,1.7,9.6"/>
<path class="st0" d="M364.7,368.2c-0.6,2.1-1.2,4.1-1.8,6.2"/>
<path class="st0" d="M358.2,389.8c-17.2,55.3-39.6,108.8-66.9,159.9"/>
<path class="st0" d="M275.7,577.8c-1.6,2.8-3.2,5.5-4.9,8.3"/>
<path class="st0" d="M269.2,588.9c-1.1,1.8-2.2,3.7-3.3,5.5"/>
<path class="st0" d="M265,595.8c-1.7,2.7-3.4,5.5-5.1,8.2"/>
<path class="st0" d="M249.5,620.2c-1.2,1.8-2.4,3.6-3.5,5.4"/>
<path class="st0" d="M244.2,628.3c-3,4.5-6,8.9-9.1,13.3"/>
<path class="st0" d="M227.7,652.1c-3.1,4.4-6.3,8.7-9.5,13"/>
<path class="st0" d="M212.5,672.8c-1.3,1.7-2.6,3.4-3.9,5.1"/>
<path class="st0" d="M386.4,190.4c-0.7,8.5-1.5,16.9-2.4,25.3"/>
<path class="st0" d="M382.6,226.8c-0.6,5.3-1.3,10.5-2.1,15.7"/>
<path class="st0" d="M375.9,272.4c-0.7,4.2-1.5,8.3-2.3,12.5"/>
<path class="st0" d="M355,363.8c-1.4,5.1-2.9,10.2-4.5,15.2"/>
<path class="st0" d="M349.2,383.6c-16.2,52.7-37.2,103.8-62.6,152.7"/>
<path class="st0" d="M281.3,546.2c-8.3,15.4-17,30.6-26.1,45.5"/>
<path class="st0" d="M249.3,601.1c-6.8,10.8-13.8,21.4-21,31.8"/>
<path class="st0" d="M223.8,639.5c-9.1,13-18.6,25.8-28.4,38.3"/>
<path class="st0" d="M112.1,59c1.4,7.3,2.8,14.6,4.1,21.9"/>
<path class="st0" d="M375.4,195.9c-0.7,8.3-1.6,16.7-2.6,25"/>
<path class="st0" d="M371.4,231.8c-1.3,10.4-2.9,20.8-4.6,31.1"/>
<path class="st0" d="M358.6,306.1c-0.3,1.5-0.7,3.1-1,4.6"/>
<path class="st0" d="M336.3,389.5c-12.3,38.4-27.1,76-44.4,112.4"/>
<path class="st0" d="M275.8,534.3c-6.6,12.5-13.4,24.9-20.6,37.1"/>
<path class="st0" d="M254.4,572.7c-1.1,1.8-2.1,3.6-3.2,5.4"/>
<path class="st0" d="M244.6,588.9c-1.1,1.8-2.2,3.6-3.3,5.3"/>
<path class="st0" d="M238.8,598.2c-3.4,5.3-6.8,10.6-10.3,15.8"/>
<path class="st0" d="M227.6,615.3c-1.2,1.7-2.3,3.5-3.5,5.2"/>
<path class="st0" d="M217,630.9c-1.2,1.7-2.4,3.4-3.6,5.1"/>
<path class="st0" d="M212.5,637.3c-0.9,1.3-1.8,2.6-2.7,3.8"/>
<path class="st0" d="M206.1,646.2c-4.6,6.3-9.3,12.6-14.1,18.9"/>
<path class="st0" d="M190,667.6c-1.3,1.7-2.6,3.3-3.9,5"/>
<path class="st0" d="M177.3,683.6c-1.3,1.6-2.6,3.2-4,4.9"/>
<path class="st0" d="M171.3,690.9c-0.7,0.8-1.3,1.6-2,2.4"/>
<path class="st0" d="M110.2,110.5c0.2,1.6,0.4,3.1,0.6,4.7"/>
<path class="st0" d="M367.8,148.4c-0.1,1.6-0.1,3.1-0.2,4.7"/>
<path class="st0" d="M365.8,184.1c-4.5,58.9-14.9,117.2-31,174"/>
<path class="st0" d="M326.8,384.9c-11.3,35.5-24.8,70.3-40.4,104.1"/>
<path class="st0" d="M281.1,500.2c-11,22.9-22.9,45.3-35.8,67.2"/>
<path class="st0" d="M238.9,578.1c-6.7,11-13.7,22-20.9,32.7"/>
<path class="st0" d="M212.8,618.5c-11.4,16.7-23.4,32.9-35.9,48.8"/>
<path class="st0" d="M94.6,79.8c0.5,3.1,1.1,6.1,1.6,9.2"/>
<path class="st0" d="M99.5,110.5c0.5,3.6,1,7.2,1.5,10.8"/>
<path class="st0" d="M354.3,195.5c-3.5,38.7-9.6,77.2-18.2,115.1"/>
<path class="st0" d="M334.7,316.6c-2.8,11.9-5.9,23.8-9.1,35.6"/>
<path class="st0" d="M317.7,378.8c-7.6,24.4-16.4,48.5-26.1,72.1"/>
<path class="st0" d="M276.2,486c-9.7,20.9-20.2,41.4-31.5,61.4"/>
<path class="st0" d="M236.3,562c-6.2,10.6-12.7,21-19.4,31.3"/>
<path class="st0" d="M205.9,610c-2.3,3.4-4.6,6.8-7,10.1"/>
<path class="st0" d="M191.8,630.1c-1.5,2.1-3,4.1-4.5,6.2"/>
<path class="st0" d="M183.6,641.3c-0.6,0.8-1.2,1.6-1.8,2.4"/>
<path class="st0" d="M180,646.2c-1.2,1.6-2.5,3.3-3.7,4.9"/>
<path class="st0" d="M175.3,652.3c-2.5,3.2-5,6.5-7.6,9.7"/>
<path class="st0" d="M84.6,83.2c0.1,0.5,0.2,1,0.3,1.5"/>
<path class="st0" d="M95,163.8c0,0.5,0.1,1,0.1,1.5"/>
<path class="st0" d="M346.6,153.7c-0.2,3.5-0.3,7.1-0.5,10.6"/>
<path class="st0" d="M344.3,190c-5.2,60.5-16.7,120.3-34.3,178.4"/>
<path class="st0" d="M308.1,374.2c-6.5,20.8-13.7,41.3-21.7,61.5"/>
<path class="st0" d="M281.3,448.3c-12.4,29.9-26.4,59.1-42.1,87.4"/>
<path class="st0" d="M234.1,544.9c-9.5,16.7-19.5,33.1-30.1,49.1"/>
<path class="st0" d="M200.6,599.1c-3.6,5.5-7.4,10.9-11.1,16.2"/>
<path class="st0" d="M186.8,619c-0.3,0.4-0.6,0.8-0.9,1.2"/>
<path class="st0" d="M174.3,636.2c-5.1,6.9-10.4,13.7-15.8,20.4"/>
<path class="st0" d="M75,89.4c0.6,3.5,1.2,7,1.7,10.5"/>
<path class="st0" d="M82.3,142c0.4,3.5,0.7,7.1,1.1,10.6"/>
<path class="st0" d="M84.6,166.1c0.2,2.5,0.4,5,0.6,7.6"/>
<path class="st0" d="M335.8,159.2c-0.2,3.5-0.4,7-0.6,10.5"/>
<path class="st0" d="M329,232.3c-3.9,28.7-9.3,57.2-16.1,85.3"/>
<path class="st0" d="M304.9,348c-1.9,6.7-3.9,13.5-5.9,20.1"/>
<path class="st0" d="M295.4,379.6c-1.2,3.8-2.5,7.6-3.8,11.4"/>
<path class="st0" d="M288.7,399.5c-0.7,1.9-1.3,3.8-2,5.6"/>
<path class="st0" d="M281.5,419.2c-0.9,2.3-1.8,4.6-2.7,7"/>
<path class="st0" d="M276.1,433.1c-11.1,27.8-23.6,55.1-37.5,81.6"/>
<path class="st0" d="M228.6,533.2c-1.5,2.6-2.9,5.2-4.4,7.8"/>
<path class="st0" d="M223.5,542.3c-3,5.2-6,10.4-9.1,15.5"/>
<path class="st0" d="M212.8,560.4c-3.6,6-7.3,11.9-11.1,17.8"/>
<path class="st0" d="M191.9,593.2c-0.3,0.4-0.6,0.8-0.8,1.3"/>
<path class="st0" d="M187.7,599.5c-3.7,5.4-7.4,10.7-11.2,16"/>
<path class="st0" d="M165.9,629.9c-1.5,2-3,4-4.5,6"/>
<path class="st0" d="M160.5,637.1c-1.8,2.4-3.6,4.7-5.5,7.1"/>
<path class="st0" d="M153.2,646.6c-0.9,1.2-1.9,2.3-2.8,3.5"/>
<path class="st0" d="M140.9,661.7c-0.6,0.8-1.3,1.5-1.9,2.3"/>
<path class="st0" d="M62.6,79.4c0.3,1.5,0.5,2.9,0.8,4.4"/>
<path class="st0" d="M71.8,141.6c0.2,2,0.4,4,0.6,6"/>
<path class="st0" d="M323.2,189.7c-0.9,10.8-2.1,21.6-3.5,32.4"/>
<path class="st0" d="M319.2,226.5c-4.9,37.2-12.3,74-22,110.2"/>
<path class="st0" d="M292.8,352.3c-0.3,0.9-0.5,1.9-0.8,2.8"/>
<path class="st0" d="M281.2,389c-13.5,39.7-30,78.3-49.2,115.6"/>
<path class="st0" d="M223.7,520.3c-9.7,17.8-19.9,35.2-30.8,52.2"/>
<path class="st0" d="M188.9,578.8c-15.4,23.5-31.9,46.3-49.5,68.2"/>
<path class="st0" d="M49.7,68.3c0.7,3.4,1.3,6.8,2,10.2"/>
<path class="st0" d="M53,85.7c0.3,1.5,0.5,2.9,0.8,4.4"/>
<path class="st0" d="M58.6,120.8c1.5,10.7,2.7,21.5,3.8,32.3"/>
<path class="st0" d="M312.2,194.6c-0.5,5.3-1.1,10.7-1.7,16"/>
<path class="st0" d="M304.7,252.6c-3.5,21.1-7.8,42.2-12.9,63"/>
<path class="st0" d="M273.6,378.7c-0.6,1.9-1.2,3.7-1.9,5.5"/>
<path class="st0" d="M270.8,387c-11.8,34.6-25.9,68.3-42.2,101"/>
<path class="st0" d="M222.7,499.8c-0.9,1.7-1.8,3.5-2.7,5.2"/>
<path class="st0" d="M206,530.6c-2.2,3.8-4.4,7.6-6.6,11.4"/>
<path class="st0" d="M197.1,545.8c-2.3,3.8-4.5,7.5-6.8,11.2"/>
<path class="st0" d="M181.7,570.6c-1.9,2.9-3.7,5.7-5.6,8.5"/>
<path class="st0" d="M171.2,586.4c-1.9,2.8-3.9,5.6-5.8,8.5"/>
<path class="st0" d="M162,599.6c-3.7,5.2-7.4,10.3-11.1,15.4"/>
<path class="st0" d="M150,616.2c-0.9,1.2-1.7,2.3-2.6,3.5"/>
<path class="st0" d="M144.7,623.2c-0.6,0.8-1.2,1.5-1.8,2.3"/>
<path class="st0" d="M139.4,630.1c-1.5,1.9-3,3.8-4.5,5.8"/>
<path class="st0" d="M134,637c-1.2,1.5-2.4,3-3.7,4.6"/>
<path class="st0" d="M34.5,47.5c0.8,3.3,1.5,6.6,2.2,10"/>
<path class="st0" d="M39.1,68.9c0.3,1.4,0.6,2.9,0.9,4.3"/>
<path class="st0" d="M48,120.8c0.3,1.9,0.5,3.9,0.8,5.8"/>
<path class="st0" d="M49.3,130.9c0.2,1.9,0.5,3.9,0.7,5.8"/>
<path class="st0" d="M303.3,174.9c-0.1,1.4-0.2,2.9-0.3,4.3"/>
<path class="st0" d="M302.2,189.3c-2.3,25.4-5.7,50.7-10.3,75.8"/>
<path class="st0" d="M288,284.9c-0.4,1.9-0.8,3.8-1.2,5.6"/>
<path class="st0" d="M281.2,314.4c-2.8,11.2-5.8,22.4-9,33.4"/>
<path class="st0" d="M264.1,374c-5.7,17.4-12,34.5-18.8,51.5"/>
<path class="st0" d="M243.1,430.9c-6.1,14.7-12.5,29.2-19.4,43.5"/>
<path class="st0" d="M218.6,484.7c-5.2,10.3-10.5,20.6-16.1,30.7"/>
<path class="st0" d="M199.7,520.4c-5.9,10.5-12,20.8-18.3,31"/>
<path class="st0" d="M176,560c-16.8,26.4-35.1,51.8-54.8,76.1"/>
<path class="st0" d="M29.4,73.8c0.9,4.7,1.8,9.4,2.7,14.2"/>
<path class="st0" d="M37.4,120.8c2,14.3,3.6,28.6,4.9,43"/>
<path class="st0" d="M293.3,168.5c-0.2,3.8-0.5,7.6-0.8,11.4"/>
<path class="st0" d="M291.1,195.5c-0.2,1.9-0.4,3.8-0.6,5.7"/>
<path class="st0" d="M275,295.3c-1.3,5.6-2.6,11.1-3.9,16.6"/>
<path class="st0" d="M267.1,327.1c-1.4,5-2.8,10.1-4.2,15.1"/>
<path class="st0" d="M260.5,350.4c-0.3,0.9-0.6,1.8-0.8,2.7"/>
<path class="st0" d="M255,368.1c-9.2,28.5-20.1,56.4-32.4,83.7"/>
<path class="st0" d="M213,472.4c-5.4,11.1-11,22.1-16.9,32.9"/>
<path class="st0" d="M191.9,512.8c-5.1,9.1-10.3,18.2-15.8,27.1"/>
<path class="st0" d="M170.9,548.4c-1.8,2.8-3.6,5.6-5.4,8.5"/>
<path class="st0" d="M161.7,562.8c-4.7,7.2-9.5,14.2-14.4,21.3"/>
<path class="st0" d="M144.9,587.5c-1.9,2.7-3.9,5.4-5.8,8.1"/>
<path class="st0" d="M136.6,599c-5.3,7.3-10.8,14.5-16.4,21.5"/>
<path class="st0" d="M118.4,622.8c-2.1,2.6-4.1,5.2-6.2,7.8"/>
<path class="st0" d="M281.5,184.6c-0.2,1.9-0.3,3.7-0.5,5.6"/>
<path class="st0" d="M280.1,200c-2.6,24.7-6.3,49.3-11.2,73.7"/>
<path class="st0" d="M267.7,279.2c-1,5-2.1,10.1-3.3,15.1"/>
<path class="st0" d="M263.2,299.8c-1.3,5.5-2.6,10.9-4,16.4"/>
<path class="st0" d="M257.7,321.7c-3.2,12.2-6.8,24.4-10.6,36.5"/>
<path class="st0" d="M241.9,374.2c-7.8,23.1-16.7,45.8-26.6,68.1"/>
<path class="st0" d="M210.7,452.5c-11.9,26-25.3,51.3-39.9,75.9"/>
<path class="st0" d="M165.7,536.8c-18.9,30.8-39.8,60.3-62.6,88.3"/>
<path class="st0" d="M272.8,158.8c-0.2,3.2-0.4,6.5-0.6,9.7"/>
<path class="st0" d="M271.4,179.6c-0.3,3.7-0.6,7.4-1,11.1"/>
<path class="st0" d="M268.2,211.4c-2.3,19.3-5.4,38.5-9.1,57.6"/>
<path class="st0" d="M256.9,279.8c-1.4,6.8-3,13.6-4.6,20.3"/>
<path class="st0" d="M242.8,336.4c-1.2,4-2.3,8-3.6,12"/>
<path class="st0" d="M229.3,378.7c-0.6,1.7-1.2,3.5-1.9,5.2"/>
<path class="st0" d="M225.5,389.1c-4,10.9-8.2,21.6-12.6,32.3"/>
<path class="st0" d="M208,432.9c-12.4,28.4-26.4,56.1-42,82.9"/>
<path class="st0" d="M160.4,525.4c-3.3,5.6-6.7,11.1-10.2,16.6"/>
<path class="st0" d="M147.2,546.6c-2.5,3.9-5,7.7-7.6,11.6"/>
<path class="st0" d="M136.5,562.8c-4.7,6.9-9.5,13.7-14.4,20.4"/>
<path class="st0" d="M118.8,587.7c-1.9,2.6-3.9,5.2-5.8,7.8"/>
<path class="st0" d="M110.5,598.9c-5.6,7.4-11.4,14.6-17.2,21.8"/>
<path class="st0" d="M262.8,148.7c-2.2,53-9.8,105.5-22.6,157"/>
<path class="st0" d="M239.5,308.3c-0.2,0.9-0.4,1.8-0.7,2.6"/>
<path class="st0" d="M226.7,353.1c-1.7,5.2-3.4,10.4-5.1,15.6"/>
<path class="st0" d="M219.8,373.9c-3.8,10.8-7.7,21.5-12,32.1"/>
<path class="st0" d="M202.7,418.7c-13,31.2-28.1,61.5-45,90.7"/>
<path class="st0" d="M154.2,515.3c-20.7,35-44.1,68.3-69.9,99.7"/>
<path class="st0" d="M252.1,153.7c-0.9,19.3-2.6,38.7-5,57.9"/>
<path class="st0" d="M240.7,253c-2.9,16-6.2,31.8-10.1,47.5"/>
<path class="st0" d="M214.2,357.7c-3.5,10.7-7.3,21.3-11.3,31.9"/>
<path class="st0" d="M197.1,404.6c-13.1,32.6-28.4,64.3-45.8,94.8"/>
<path class="st0" d="M145.2,509.9c-6.9,11.6-14.1,23.1-21.6,34.4"/>
<path class="st0" d="M122.1,546.5c-7.8,11.6-15.8,23-24.2,34.2"/>
<path class="st0" d="M92.2,588.3c-1.6,2.1-3.3,4.3-5,6.4"/>
<path class="st0" d="M83.8,598.9c-2.5,3.2-5.1,6.3-7.7,9.5"/>
<path class="st0" d="M241.3,158.5c-0.4,8-1,16-1.7,24"/>
<path class="st0" d="M238.8,190.4c-0.9,8.8-1.9,17.7-3.1,26.5"/>
<path class="st0" d="M234.3,227.4c-0.5,3.1-0.9,6.1-1.4,9.2"/>
<path class="st0" d="M230.2,252.4c-0.4,2.2-0.8,4.4-1.2,6.6"/>
<path class="st0" d="M226.1,273.3c-3.8,17.8-8.1,35.5-13.2,53"/>
<path class="st0" d="M209.9,336.6c-0.5,1.7-1,3.4-1.6,5.1"/>
<path class="st0" d="M204.7,353.1c-2.2,6.8-4.5,13.5-6.9,20.2"/>
<path class="st0" d="M193.6,384.6c-13.5,35.8-29.6,70.5-48.2,103.9"/>
<path class="st0" d="M139.5,498.9c-8.2,14.2-17,28.2-26.1,41.9"/>
<path class="st0" d="M109.7,546.2c-13.8,20.2-28.5,39.7-44.2,58.5"/>
<path class="st0" d="M228.4,189.3c-0.6,5.7-1.2,11.3-1.9,17"/>
<path class="st0" d="M225.9,211.5c-1.3,10.4-2.9,20.8-4.7,31.2"/>
<path class="st0" d="M213,284c-0.4,1.7-0.8,3.4-1.2,5.1"/>
<path class="st0" d="M210.2,295.5c-2.1,8.5-4.3,17-6.7,25.4"/>
<path class="st0" d="M187,372.2c-13.1,36.3-29,71.5-47.6,105.4"/>
<path class="st0" d="M134.3,486.8c-8.4,14.9-17.3,29.5-26.7,43.7"/>
<path class="st0" d="M96.5,546.8c-8.8,12.6-17.9,24.9-27.5,36.9"/>
<path class="st0" d="M65.8,587.8c-1.6,2-3.3,4.1-5,6.1"/>
<path class="st0" d="M217.3,194.8c-2.2,20.6-5.3,41.2-9.2,61.5"/>
<path class="st0" d="M201,289.2c-3,12.6-6.4,25.1-10.1,37.6"/>
<path class="st0" d="M182.7,352.7c-13,38.5-29.1,75.9-48.1,111.8"/>
<path class="st0" d="M129,474.8c-23.4,42.4-50.9,82.4-82.1,119.5"/>
<path class="st0" d="M204.7,211.4c-1.8,13.9-4.1,27.8-6.7,41.6"/>
<path class="st0" d="M188.6,295.5c-0.5,2.1-1.1,4.1-1.6,6.2"/>
<path class="st0" d="M166,368.7c-8.5,23.2-18.2,45.9-29.1,68.1"/>
<path class="st0" d="M129.4,451.7c-0.2,0.4-0.4,0.8-0.6,1.1"/>
<path class="st0" d="M123.5,463c-19.8,36.8-42.7,71.8-68.5,104.7"/>
<path class="st0" d="M51,572.7c-2.9,3.7-5.9,7.3-8.9,10.9"/>
<path class="st0" d="M39.7,586.5c-0.5,0.6-1.1,1.3-1.6,1.9"/>
<path class="st0" d="M195,205.1c-0.7,5.4-1.4,10.8-2.2,16.2"/>
<path class="st0" d="M191,232.5c-2.2,13.7-4.9,27.3-7.9,40.8"/>
<path class="st0" d="M175.3,305.1c-4.8,17.8-10.4,35.5-16.6,52.9"/>
<path class="st0" d="M157,362.7c-9.8,26.8-21.1,53.1-34,78.6"/>
<path class="st0" d="M117.2,452.5c-17.8,33.8-38.3,66.2-61.3,96.8"/>
<path class="st0" d="M53.6,552.2c-8.1,10.7-16.5,21.2-25.3,31.4"/>
<path class="st0" d="M178.8,241.8c-0.7,4.1-1.5,8.2-2.3,12.2"/>
<path class="st0" d="M166.1,298.7c-0.6,2.4-1.3,4.8-2,7.2"/>
<path class="st0" d="M158.2,326.2c-0.9,2.8-1.7,5.5-2.6,8.3"/>
<path class="st0" d="M154.8,336.8c-2.8,8.7-5.8,17.3-9,25.8"/>
<path class="st0" d="M143.7,368.4c-8.1,21.3-17.2,42.2-27.3,62.6"/>
<path class="st0" d="M108.5,446.5c-17.3,33-37.2,64.6-59.5,94.4"/>
<path class="st0" d="M32.3,562.5c-1.3,1.6-2.6,3.2-3.9,4.8"/>
<path class="st0" d="M24.4,572.1c-1.6,1.9-3.2,3.8-4.8,5.7"/>
<path class="st0" d="M165,257.9c-3.3,16-7.2,31.8-11.6,47.5"/>
<path class="st0" d="M150.3,316.1c-11.1,37.1-25.2,73.3-42.2,108.1"/>
<path class="st0" d="M104.8,430.7c-21.1,41.9-46.3,81.6-75.3,118.5"/>
<path class="st0" d="M24.1,555.9c-1.8,2.2-3.6,4.4-5.4,6.6"/>
<path class="st0" d="M153.2,262.9c-0.8,3.5-1.6,7.1-2.4,10.6"/>
<path class="st0" d="M150.2,275.8c-1.1,4.7-2.3,9.4-3.5,14"/>
<path class="st0" d="M142.6,304.9c-1.5,5.4-3.2,10.8-4.8,16.2"/>
<path class="st0" d="M136,326.8c-0.5,1.5-1,3.1-1.5,4.6"/>
<path class="st0" d="M129,347.4c-7.7,21.6-16.4,42.7-26.2,63.4"/>
<path class="st0" d="M97.6,421.7c-21,42.5-46.3,82.7-75.6,120.1"/>
<path class="st0" d="M141.1,268.7c-10.4,45.1-25.4,89.1-44.8,131.1"/>
<path class="st0" d="M92.3,408.5C72,451,47.4,491.3,18.8,528.7"/>
<path class="st0" d="M123.7,294.7c-0.5,1.9-1.1,3.8-1.6,5.6"/>
<path class="st0" d="M117.4,316c-1.3,4.1-2.6,8.2-4,12.2"/>
<path class="st0" d="M112.3,331.5c-1.4,4.1-2.8,8.1-4.3,12.1"/>
<path class="st0" d="M106.9,346.9c-5.2,14.3-11,28.3-17.2,42.2"/>
<path class="st0" d="M84.8,399.8c-18.3,39.2-40.4,76.5-66,111.4"/>
<path class="st0" d="M118.8,271.9c-1.9,7.8-4,15.6-6.1,23.3"/>
<path class="st0" d="M108.1,310.7c-2.7,8.8-5.6,17.5-8.7,26.2"/>
<path class="st0" d="M97.4,342.2c-4.7,13-9.9,25.8-15.4,38.4"/>
<path class="st0" d="M78.2,389c-16.5,36.3-36.3,71-59.2,103.7"/>
<path class="st0" d="M108.9,268.3c-3.3,13.6-7,27-11.1,40.3"/>
<path class="st0" d="M92.1,325.8c-1.6,4.6-3.2,9.3-4.9,13.9"/>
<path class="st0" d="M82.3,352.4c-1.8,4.6-3.6,9.1-5.5,13.6"/>
<path class="st0" d="M71.5,378.5C56.6,412,39,444.1,18.7,474.6"/>
<path class="st0" d="M97.9,269c-3,12.3-6.4,24.4-10.2,36.5"/>
<path class="st0" d="M86,310.8c-2.3,7.1-4.7,14.1-7.2,21.1"/>
<path class="st0" d="M76.5,338.2c-2.5,6.6-5,13.2-7.7,19.7"/>
<path class="st0" d="M66.3,364C53,395.5,37.2,425.8,19,454.8"/>
<path class="st0" d="M87.2,268.7c-1.3,5.3-2.7,10.6-4.2,15.9"/>
<path class="st0" d="M79.9,295c-4.7,15.7-10,31.3-15.9,46.6"/>
<path class="st0" d="M59.6,352.9c-11.6,28.4-25.2,55.9-40.8,82.3"/>
<path class="st0" d="M13.6,443.6c-0.8,1.2-1.5,2.5-2.3,3.7"/>
<path class="st0" d="M76.4,268.2c-5.7,22.3-12.6,44.2-20.7,65.7"/>
<path class="st0" d="M52.6,341.9c-9.7,24.7-21.1,48.8-33.9,72"/>
<path class="st0" d="M65.5,268.7c-4.3,16.4-9.2,32.6-14.8,48.6"/>
<path class="st0" d="M45.2,332.1c-4.8,12.5-10,24.9-15.6,37.1"/>
<path class="st0" d="M27.8,373.1c-2.8,6.1-5.8,12.1-8.8,18.1"/>
<path class="st0" d="M13.6,401.4c-0.7,1.2-1.3,2.5-2,3.7"/>
<path class="st0" d="M54.8,268c-3.8,14.4-8.2,28.7-13,42.8"/>
<path class="st0" d="M40.1,315.7c-6.2,17.3-13.1,34.3-20.9,51"/>
<path class="st0" d="M43.9,268.3c-2.8,10.2-5.8,20.3-9.1,30.4"/>
<path class="st0" d="M32.5,305.4c-4.1,11.9-8.5,23.7-13.4,35.3"/>
<path class="st0" d="M32.9,268.5c-1.4,5.2-2.9,10.3-4.5,15.4"/>
<path class="st0" d="M25.1,294.4c-2,6-4.1,12.1-6.2,18"/>
<g>
	<polyline class="st1" points="0.1,16.3 0.1,0.1 16.3,0.1 	"/>
	<polyline class="st1" points="451.3,765.1 467.5,765.1 467.5,748.9 	"/>
</g>
</svg>
