<?xml version="1.0" encoding="utf-8"?>
<!-- Generator: Adobe Illustrator 22.0.0, SVG Export Plug-In . SVG Version: 6.00 Build 0)  -->
<svg version="1.0" id="Layer_1" xmlns="http://www.w3.org/2000/svg" xmlns:xlink="http://www.w3.org/1999/xlink" x="0px" y="0px"
	 viewBox="0 0 708.7 652" style="enable-background:new 0 0 708.7 652;" xml:space="preserve">
<style type="text/css">
	.st0{fill:#181818;}
	.st1{fill:none;stroke:#EB3593;stroke-miterlimit:10;}
</style>
<g>
	<path class="st0" d="M28.7,182.7l222.5,385.5h-55.9v8.7L28.7,480.7V182.7 M23.7,164v18.7v298v2.9l2.5,1.4l166.6,96.2l7.5,4.3v-8.7
		v-3.7h50.9h8.7l-4.3-7.5L33,180.2L23.7,164L23.7,164z"/>
</g>
<g>
	<path class="st0" d="M160.3,94.3l115.5,473.9h-15.4L30.2,169.4L160.3,94.3 M163.6,86.6l-5.8,3.3L27.7,165.1l-4.3,2.5l2.5,4.3
		l230.2,398.8l1.4,2.5h2.9h15.4h6.4l-1.5-6.2L165.2,93.1L163.6,86.6L163.6,86.6z"/>
</g>
<g>
	<path class="st0" d="M293.6,17.4l0,550.8H284l-116.5-478L293.6,17.4 M298.6,8.8l-7.5,4.3L165,85.9l-3.2,1.9l0.9,3.6l116.5,478
		l0.9,3.8h3.9h9.6h5l0-5l0-550.8L298.6,8.8L298.6,8.8z"/>
</g>
<g>
	<path class="st0" d="M301.5,17.4l126.1,72.8L311,568.2h-9.6L301.5,17.4 M296.5,8.7l0,8.7l0,550.8l0,5h5h9.6h3.9l0.9-3.8l116.6-478
		l0.9-3.6l-3.2-1.9L304,13.1L296.5,8.7L296.5,8.7z"/>
</g>
<g>
	<path class="st0" d="M434.8,94.3l130.1,75.1L334.6,568.2h-15.4L434.8,94.3 M431.5,86.7l-1.6,6.5L314.3,567l-1.5,6.2h6.4h15.4h2.9
		l1.4-2.5l230.2-398.8l2.5-4.3l-4.3-2.5L437.3,90L431.5,86.7L431.5,86.7z"/>
</g>
<g>
	<path class="st0" d="M566.3,182.8v297.9L399.4,577v-8.8h-55.7L566.3,182.8 M571.3,164.1l-9.3,16.2L339.4,565.7l-4.3,7.5h8.7h50.7
		v3.8v8.7l7.5-4.3L568.8,485l2.5-1.4v-2.9V182.8V164.1L571.3,164.1z"/>
</g>
<g>
	<polyline class="st1" points="0.4,16.2 0.4,0 16.5,0 	"/>
	<polyline class="st1" points="672.3,652 688.5,652 688.5,635.8 	"/>
</g>
</svg>
