<?xml version="1.0" encoding="utf-8"?>
<!-- Generator: Adobe Illustrator 22.0.0, SVG Export Plug-In . SVG Version: 6.00 Build 0)  -->
<svg version="1.0" id="Layer_1" xmlns="http://www.w3.org/2000/svg" xmlns:xlink="http://www.w3.org/1999/xlink" x="0px" y="0px"
	 viewBox="0 0 708.7 652" style="enable-background:new 0 0 708.7 652;" xml:space="preserve">
<style type="text/css">
	.st0{fill:none;stroke:#19B3E8;stroke-width:3;stroke-miterlimit:10;}
	.st1{fill:#19B3E8;}
	.st2{fill:none;stroke:#EB3593;stroke-miterlimit:10;}
</style>
<g>
	<line class="st0" x1="334.3" y1="99.4" x2="341.7" y2="95.2"/>
	<line class="st0" x1="346.9" y1="92.2" x2="354.1" y2="88.1"/>
	<line class="st0" x1="333.3" y1="97.7" x2="340.7" y2="93.5"/>
	<line class="st0" x1="345.9" y1="90.5" x2="353.1" y2="86.4"/>
	<line class="st0" x1="335.3" y1="101.2" x2="342.7" y2="96.9"/>
	<line class="st0" x1="347.9" y1="94" x2="355.1" y2="89.8"/>
	<line class="st0" x1="349.9" y1="103.6" x2="345.6" y2="96.3"/>
	<line class="st0" x1="342.6" y1="91.1" x2="338.5" y2="83.9"/>
	<line class="st0" x1="348.1" y1="104.6" x2="343.9" y2="97.3"/>
	<line class="st0" x1="340.9" y1="92.1" x2="336.8" y2="84.9"/>
	<line class="st0" x1="351.6" y1="102.6" x2="347.4" y2="95.3"/>
	<line class="st0" x1="344.4" y1="90.1" x2="340.3" y2="82.9"/>
	<line class="st0" x1="94.3" y1="237.4" x2="98.3" y2="235"/>
	<line class="st0" x1="110.2" y1="228.2" x2="117.4" y2="224.1"/>
	<line class="st0" x1="134.7" y1="214.1" x2="146.4" y2="207.4"/>
	<line class="st0" x1="166.8" y1="195.7" x2="191.1" y2="181.7"/>
	<line class="st0" x1="202.4" y1="175.3" x2="329.4" y2="102.3"/>
	<line class="st0" x1="93.3" y1="235.6" x2="97.3" y2="233.3"/>
	<line class="st0" x1="109.2" y1="226.5" x2="116.4" y2="222.3"/>
	<line class="st0" x1="133.7" y1="212.4" x2="145.4" y2="205.7"/>
	<line class="st0" x1="165.8" y1="193.9" x2="190.1" y2="180"/>
	<line class="st0" x1="201.4" y1="173.5" x2="328.4" y2="100.5"/>
	<line class="st0" x1="95.3" y1="239.1" x2="99.3" y2="236.8"/>
	<line class="st0" x1="111.1" y1="230" x2="118.4" y2="225.8"/>
	<line class="st0" x1="135.7" y1="215.8" x2="147.4" y2="209.1"/>
	<line class="st0" x1="167.8" y1="197.4" x2="192.1" y2="183.5"/>
	<line class="st0" x1="203.4" y1="177" x2="330.4" y2="104"/>
</g>
<circle class="st1" cx="180.2" cy="308.7" r="1.5"/>
<circle class="st1" cx="94" cy="220.6" r="1.2"/>
<circle class="st1" cx="296.4" cy="351.3" r="1.6"/>
<circle class="st1" cx="321.3" cy="354.4" r="1.4"/>
<circle class="st1" cx="349.4" cy="371.7" r="1.5"/>
<circle class="st1" cx="312.5" cy="394.9" r="1.4"/>
<circle class="st1" cx="194.4" cy="345.8" r="1.4"/>
<circle class="st1" cx="192.5" cy="367.6" r="1"/>
<circle class="st1" cx="196.7" cy="403" r="1.4"/>
<circle class="st1" cx="150.5" cy="424" r="1.6"/>
<circle class="st1" cx="111.3" cy="403.9" r="1.3"/>
<circle class="st1" cx="136.4" cy="370.2" r="1.5"/>
<circle class="st1" cx="204.6" cy="440.3" r="1.6"/>
<circle class="st1" cx="168.6" cy="444.1" r="1"/>
<circle class="st1" cx="83.3" cy="422.7" r="1.5"/>
<circle class="st1" cx="103.3" cy="472.8" r="1.2"/>
<circle class="st1" cx="438.2" cy="463" r="1.3"/>
<circle class="st1" cx="159.5" cy="173.8" r="1.4"/>
<circle class="st1" cx="50.2" cy="156.4" r="0.8"/>
<circle class="st1" cx="329.7" cy="215.7" r="1.6"/>
<circle class="st1" cx="361.5" cy="213.7" r="1.1"/>
<circle class="st1" cx="331.7" cy="191.3" r="1.3"/>
<circle class="st1" cx="347" cy="176.1" r="1.3"/>
<circle class="st1" cx="333.1" cy="163.3" r="1"/>
<circle class="st1" cx="347.4" cy="150.8" r="1.3"/>
<path class="st1" d="M396.2,163.5c0.1-0.7-0.3-1.3-0.9-1.5c-0.7-0.1-1.3,0.3-1.5,0.9c-0.1,0.7,0.3,1.3,0.9,1.5
	C395.4,164.6,396.1,164.1,396.2,163.5z"/>
<circle class="st1" cx="441.4" cy="282.1" r="0.8"/>
<circle class="st1" cx="457.8" cy="132.2" r="1.4"/>
<circle class="st1" cx="424.9" cy="111.9" r="1.1"/>
<circle class="st1" cx="450.9" cy="115.8" r="1.5"/>
<circle class="st1" cx="418.2" cy="81.6" r="1"/>
<circle class="st1" cx="405.5" cy="64.4" r="1.3"/>
<circle class="st1" cx="566.5" cy="166.8" r="1.3"/>
<circle class="st1" cx="563.9" cy="129.7" r="1.1"/>
<path class="st1" d="M551.6,96.9c-0.6-0.1-1.1,0.2-1.2,0.8s0.2,1.1,0.8,1.2c0.6,0.1,1.1-0.2,1.2-0.8C552.5,97.5,552.2,97,551.6,96.9
	"/>
<circle class="st1" cx="63.7" cy="191.5" r="0.9"/>
<circle class="st1" cx="537.9" cy="191.5" r="0.9"/>
<g>
	<polyline class="st2" points="0.4,16.2 0.4,0 16.5,0 	"/>
	<polyline class="st2" points="672.3,652 688.5,652 688.5,635.8 	"/>
</g>
</svg>
