<?xml version="1.0" encoding="utf-8"?>
<!-- Generator: Adobe Illustrator 22.0.0, SVG Export Plug-In . SVG Version: 6.00 Build 0)  -->
<svg version="1.0" id="Layer_1" xmlns="http://www.w3.org/2000/svg" xmlns:xlink="http://www.w3.org/1999/xlink" x="0px" y="0px"
	 viewBox="0 0 708.7 652" style="enable-background:new 0 0 708.7 652;" xml:space="preserve">
<style type="text/css">
	.st0{fill:none;stroke:#CCCCCC;stroke-linecap:round;}
	.st1{fill:#FFFFFF;}
	.st2{fill:none;stroke:#EB3593;stroke-miterlimit:10;}
</style>
<path class="st0" d="M576.3,361c0.5,1.1,1,2.2,1.6,3.3"/>
<path class="st0" d="M26.3,442.7c0.3-1.8,0.6-3.5,1-5.3"/>
<path class="st0" d="M561.9,380.3c1.3,3.2,2.6,6.3,3.8,9.5"/>
<path class="st0" d="M36.9,442.6c0.3-1.7,0.6-3.4,1-5.1"/>
<path class="st0" d="M560.5,406.5c0.5,1.6,1.1,3.3,1.6,5"/>
<path class="st0" d="M53.9,416.2c1.5-5.2,3.3-10.4,5.1-15.5"/>
<path class="st0" d="M538.9,380.2c2.4,5.2,4.7,10.5,6.8,15.9"/>
<path class="st0" d="M66.5,411.3c0.6-1.8,1.2-3.6,1.8-5.3"/>
<path class="st0" d="M518.5,386c3.2,6.6,6.1,13.4,8.7,20.3"/>
<path class="st0" d="M511.4,395.7c0.6,1.3,1.2,2.7,1.8,4"/>
<path class="st0" d="M486.2,416.9c1.4,3.4,2.6,6.9,3.8,10.3"/>
<path class="st0" d="M474.9,416.9c0.7,1.7,1.4,3.4,2.1,5.1"/>
<path class="st0" d="M466,423c0.6,1.4,1.2,2.8,1.7,4.3"/>
<path class="st0" d="M424.4,432.5c1.8,3.8,3.4,7.7,4.9,11.7"/>
<circle class="st1" cx="111.7" cy="259.4" r="2.3"/>
<circle class="st1" cx="179.2" cy="227" r="1.8"/>
<circle class="st1" cx="260.2" cy="267.5" r="1.8"/>
<circle class="st1" cx="273" cy="310.5" r="1.6"/>
<circle class="st1" cx="254.6" cy="331.9" r="1.4"/>
<circle class="st1" cx="350.6" cy="289.6" r="1.4"/>
<circle class="st1" cx="161.7" cy="415.4" r="2.1"/>
<circle class="st1" cx="197.4" cy="481.4" r="2.1"/>
<circle class="st1" cx="280" cy="449.4" r="1.3"/>
<circle class="st1" cx="124.4" cy="95.1" r="1.1"/>
<circle class="st1" cx="169" cy="67.5" r="1.1"/>
<circle class="st1" cx="254.8" cy="96.2" r="1.2"/>
<circle class="st1" cx="270.5" cy="70.6" r="1.3"/>
<circle class="st1" cx="308.1" cy="98.7" r="1.8"/>
<circle class="st1" cx="298.1" cy="132" r="1.2"/>
<circle class="st1" cx="293.8" cy="176.3" r="1.3"/>
<circle class="st1" cx="362.9" cy="143.6" r="3.2"/>
<circle class="st1" cx="413.3" cy="180.8" r="1.7"/>
<circle class="st1" cx="443.7" cy="158.7" r="2.6"/>
<circle class="st1" cx="415.6" cy="122.3" r="2.8"/>
<circle class="st1" cx="520.7" cy="229.9" r="1.8"/>
<circle class="st1" cx="561.5" cy="157" r="1.9"/>
<circle class="st1" cx="45.8" cy="199.6" r="1"/>
<circle class="st1" cx="21.7" cy="139.9" r="1.4"/>
<circle class="st1" cx="344" cy="16.2" r="1.1"/>
<g>
	<polyline class="st2" points="0.4,16.2 0.4,0 16.5,0 	"/>
	<polyline class="st2" points="672.3,652 688.5,652 688.5,635.8 	"/>
</g>
</svg>
