<?xml version="1.0" encoding="utf-8"?>
<!-- Generator: Adobe Illustrator 22.0.0, SVG Export Plug-In . SVG Version: 6.00 Build 0)  -->
<svg version="1.0" id="Layer_1" xmlns="http://www.w3.org/2000/svg" xmlns:xlink="http://www.w3.org/1999/xlink" x="0px" y="0px"
	 viewBox="0 0 467.7 765.4" style="enable-background:new 0 0 467.7 765.4;" xml:space="preserve">
<style type="text/css">
	.st0{fill:#181818;}
	.st1{fill:none;stroke:#EB3593;stroke-miterlimit:10;}
</style>
<g>
	<path class="st0" d="M15.4,449.2L159,731.8L17.3,639L15.4,449.2 M10.2,427.9l0.2,21.3l1.9,189.8l0,2.7l2.2,1.5L156.3,736l15.7,10.3
		l-8.5-16.7L19.8,446.9L10.2,427.9L10.2,427.9z"/>
</g>
<g>
	<path class="st0" d="M32.7,196.5l126.8,520.2l-144.3-276l-0.6-227.2L32.7,196.5 M35.5,187l-6.2,5.8l-18.2,16.9l-1.6,1.5l0,2.2
		l0.6,227.2l0,1.2l0.6,1.1L155,719l19,36.3l-9.7-39.8L37.5,195.3L35.5,187L35.5,187z"/>
</g>
<g>
	<path class="st0" d="M165.9,119.6l0,590l-126-517.2L165.9,119.6 M170.9,111l-7.5,4.3L37.3,188.1l-3.2,1.9l0.9,3.6l126,517.2
		l9.9,40.4l0-41.6l0-590L170.9,111L170.9,111z"/>
</g>
<g>
	<path class="st0" d="M14.5,18.5L162,112.7L35.9,185.5l-21.4-35.7V18.5 M9.5,9.4v9.1v131.3v1.4l0.7,1.2l21.4,35.7l2.5,4.2l4.3-2.5
		l126.1-72.8l7.1-4.1l-6.9-4.4L17.2,14.3L9.5,9.4L9.5,9.4z"/>
</g>
<g>
	<path class="st0" d="M173.8,119.6l126.1,72.8L173.8,709.6L173.8,119.6 M168.8,110.9l0,8.7l0,590l0,41.6l9.9-40.4l126.1-517.2
		l0.9-3.6l-3.2-1.9l-126.1-72.8L168.8,110.9L168.8,110.9z"/>
</g>
<g>
	<path class="st0" d="M307.1,196.6l130.1,75.1l-256.9,445L307.1,196.6 M303.8,188.9l-1.6,6.5L175.4,715.5l-8.3,33.9l17.5-30.2
		l256.9-445l2.5-4.3l-4.3-2.5l-130.1-75.1L303.8,188.9L303.8,188.9z"/>
</g>
<g>
	<path class="st0" d="M438.6,285v297.9l-258,148.9L438.6,285 M443.6,266.3l-9.3,16.2l-258,446.8l-9.3,16.2l16.2-9.3l258-148.9
		l2.5-1.4v-2.9V285V266.3L443.6,266.3z"/>
</g>
<g>
	<path class="st0" d="M17.3,639l137.8,97l-137.8-2.4V639 M12.3,629.4v9.6v94.5v4.9l4.9,0.1L155,741l16.3,0.3l-13.3-9.4l-137.8-97
		L12.3,629.4L12.3,629.4z"/>
</g>
<g>
	<path class="st0" d="M282.5,26.2l151.4,45l0,156l-151.4-95.5V26.2 M277.5,19.5v6.7v105.5v2.8l2.3,1.5l151.4,95.5l7.7,4.8l0-9.1
		l0-156l0-3.7l-3.6-1.1l-151.4-45L277.5,19.5L277.5,19.5z"/>
</g>
<g>
	<polyline class="st1" points="0.1,16.3 0.1,0.1 16.3,0.1 	"/>
	<polyline class="st1" points="451.3,765.1 467.5,765.1 467.5,748.9 	"/>
</g>
</svg>
