<?xml version="1.0" encoding="utf-8"?>
<!-- Generator: Adobe Illustrator 22.0.0, SVG Export Plug-In . SVG Version: 6.00 Build 0)  -->
<svg version="1.0" id="Layer_1" xmlns="http://www.w3.org/2000/svg" xmlns:xlink="http://www.w3.org/1999/xlink" x="0px" y="0px"
	 viewBox="0 0 467.7 765.4" style="enable-background:new 0 0 467.7 765.4;" xml:space="preserve">
<style type="text/css">
	.st0{fill:none;stroke:#CCCCCC;stroke-linecap:round;}
	.st1{fill:none;stroke:#EB3593;stroke-miterlimit:10;}
</style>
<path class="st0" d="M28.9,733.2c-3.5-5.5-6.9-11-10.4-16.6"/>
<path class="st0" d="M18.2,695.6c-1-1.7-2-3.4-3-5.1"/>
<path class="st0" d="M54.1,733.4c-12.5-19.1-24.4-38.6-35.7-58.4"/>
<path class="st0" d="M43.2,696.6c-0.7-1.1-1.3-2.2-2-3.3"/>
<path class="st0" d="M33.3,679.9c-1-1.7-1.9-3.3-2.9-5"/>
<path class="st0" d="M27.5,669.8c-0.6-1.1-1.3-2.3-1.9-3.4"/>
<path class="st0" d="M24.6,664.8c-1.3-2.3-2.5-4.5-3.8-6.8"/>
<path class="st0" d="M18.9,654.6c-0.9-1.7-1.9-3.4-2.8-5.1"/>
<path class="st0" d="M79,733.1c-16.1-23.9-31.2-48.4-45.3-73.5"/>
<path class="st0" d="M25.4,644.5c-2.5-4.6-5-9.3-7.5-14"/>
<path class="st0" d="M102.9,749.2c-1.5-2.1-2.9-4.1-4.4-6.2"/>
<path class="st0" d="M73.2,705c-0.7-1.1-1.4-2.1-2-3.2"/>
<path class="st0" d="M58.2,680.8c-1-1.6-1.9-3.3-2.9-4.9"/>
<path class="st0" d="M42.9,654.5c-0.6-1.1-1.2-2.2-1.8-3.3"/>
<path class="st0" d="M40.1,649.5c-0.9-1.7-1.8-3.3-2.8-5"/>
<path class="st0" d="M36.4,642.8c-4.6-8.3-9-16.7-13.4-25.2"/>
<path class="st0" d="M20.5,612.6c-0.8-1.5-1.5-3-2.2-4.4"/>
<path class="st0" d="M103.9,732.3c-11.8-17-23-34.4-33.8-52.1"/>
<path class="st0" d="M68.1,677c-0.3-0.5-0.6-1.1-1-1.6"/>
<path class="st0" d="M60.4,664c-15.5-26.6-29.9-53.8-43.1-81.5"/>
<path class="st0" d="M114.6,729.4c-0.3-0.5-0.7-1-1-1.5"/>
<path class="st0" d="M99,706.2c-1-1.6-2-3.1-3.1-4.7"/>
<path class="st0" d="M63.9,649c-0.6-1.1-1.2-2.1-1.8-3.2"/>
<path class="st0" d="M61.2,644.2c-3-5.4-6-10.8-9-16.3"/>
<path class="st0" d="M49.5,622.9c-3.8-7.1-7.5-14.3-11.2-21.5"/>
<path class="st0" d="M36.7,598.1c-3.6-7.2-7.1-14.5-10.6-21.8"/>
<path class="st0" d="M22.9,569.6c-4.4-9.4-8.6-18.9-12.7-28.4"/>
<path class="st0" d="M129.6,732.5c-6.1-8.5-12-17.2-17.8-25.9"/>
<path class="st0" d="M109.8,703.6c-0.3-0.5-0.7-1-1-1.6"/>
<path class="st0" d="M101.7,691.2c-1-1.5-2-3.1-3-4.7"/>
<path class="st0" d="M97.8,685c-34.5-54.5-63.8-112-87.8-171.8"/>
<path class="st0" d="M154.4,748.6c-1.1-1.5-2.2-2.9-3.3-4.4"/>
<path class="st0" d="M109.6,684c-1.6-2.6-3.3-5.1-4.9-7.7"/>
<path class="st0" d="M98.9,666.9c-1.6-2.6-3.2-5.2-4.7-7.8"/>
<path class="st0" d="M84.9,643.4c-3-5.3-6-10.6-9-15.9"/>
<path class="st0" d="M70.6,617.9c-2.6-4.8-5.2-9.6-7.7-14.5"/>
<path class="st0" d="M62.1,601.7c-4.5-8.7-8.9-17.4-13.1-26.1"/>
<path class="st0" d="M46.6,570.6c-1.6-3.3-3.1-6.6-4.7-9.9"/>
<path class="st0" d="M38.9,554.1c-10.5-23-20.1-46.3-28.9-70"/>
<path class="st0" d="M156.3,733.6c-1.4-1.9-2.9-3.9-4.3-5.8"/>
<path class="st0" d="M133.3,701c-1-1.5-2-3-3-4.5"/>
<path class="st0" d="M126.3,690.5c-48.2-73.1-87-152-115.3-234.9"/>
<path class="st0" d="M10.4,453.9c-0.3-0.9-0.6-1.9-1-2.8"/>
<path class="st0" d="M151.2,708.4c-1.7-2.4-3.4-4.9-5.1-7.3"/>
<path class="st0" d="M139,690.7c-1-1.5-2-3-3-4.5"/>
<path class="st0" d="M132.1,680.2c-0.3-0.5-0.7-1-1-1.5"/>
<path class="st0" d="M125.3,669.7c-1.6-2.5-3.2-5.1-4.8-7.6"/>
<path class="st0" d="M114.9,652.9c-0.9-1.5-1.9-3.1-2.8-4.6"/>
<path class="st0" d="M109.4,643.7c-3-5.1-6-10.3-9-15.5"/>
<path class="st0" d="M99.5,626.7c-0.9-1.6-1.8-3.1-2.6-4.7"/>
<path class="st0" d="M89.1,607.9c-0.3-0.5-0.6-1.1-0.9-1.6"/>
<path class="st0" d="M85.7,601.6c-2.5-4.7-5-9.5-7.5-14.3"/>
<path class="st0" d="M77.4,585.7c-3.5-6.9-7-13.9-10.3-20.9"/>
<path class="st0" d="M57.2,543.7c-3.2-7.1-6.3-14.2-9.4-21.3"/>
<path class="st0" d="M47.2,520.8c-1.2-2.8-2.3-5.5-3.5-8.3"/>
<path class="st0" d="M41.7,507.6c-0.7-1.7-1.3-3.3-2-5"/>
<path class="st0" d="M22.1,455.6c-0.4-1.1-0.8-2.3-1.2-3.4"/>
<path class="st0" d="M18,443.8c-3.2-9.7-6.3-19.4-9.2-29.1"/>
<path class="st0" d="M162.8,706.7c-0.3-0.5-0.7-1-1-1.5"/>
<path class="st0" d="M136.1,667c-0.3-0.5-0.6-1-1-1.5"/>
<path class="st0" d="M130.4,658c-0.6-1-1.2-2-1.9-3"/>
<path class="st0" d="M125.8,650.5c-0.3-0.5-0.6-1-0.9-1.5"/>
<path class="st0" d="M120.2,641.4c-0.6-1-1.2-2-1.8-3"/>
<path class="st0" d="M114.8,632.3c-0.9-1.5-1.8-3.1-2.7-4.6"/>
<path class="st0" d="M109.5,623c-1.2-2.1-2.3-4.1-3.5-6.2"/>
<path class="st0" d="M99.2,604.4c-0.6-1-1.1-2.1-1.7-3.1"/>
<path class="st0" d="M94.1,595.1c-0.6-1.1-1.1-2.1-1.7-3.2"/>
<path class="st0" d="M88.4,584.1c-0.5-1.1-1.1-2.1-1.6-3.2"/>
<path class="st0" d="M63.9,532.9c-0.5-1.1-1-2.2-1.4-3.3"/>
<path class="st0" d="M59.6,523.2c-0.7-1.6-1.4-3.2-2.1-4.9"/>
<path class="st0" d="M54.8,511.8c-0.9-2.2-1.8-4.4-2.7-6.6"/>
<path class="st0" d="M50.7,502c-15.3-37.8-28.4-76.5-39.1-115.8"/>
<path class="st0" d="M162.4,687.7c-1.7-2.4-3.3-4.8-4.9-7.3"/>
<path class="st0" d="M150.7,670.2c-1.3-2-2.6-3.9-3.8-5.9"/>
<path class="st0" d="M140.2,654c-0.9-1.5-1.9-3-2.8-4.5"/>
<path class="st0" d="M133.8,643.5c-2.7-4.5-5.5-9-8.1-13.6"/>
<path class="st0" d="M124.8,628.5c-1.2-2-2.4-4-3.5-6.1"/>
<path class="st0" d="M106.7,596.4c-0.8-1.5-1.7-3.1-2.5-4.6"/>
<path class="st0" d="M101,585.5c-0.5-1-1.1-2.1-1.6-3.1"/>
<path class="st0" d="M98.5,580.9c-1.6-3.1-3.2-6.3-4.8-9.4"/>
<path class="st0" d="M93,569.9c-0.8-1.6-1.6-3.1-2.3-4.7"/>
<path class="st0" d="M89.1,562.1c-0.3-0.5-0.5-1.1-0.8-1.6"/>
<path class="st0" d="M80.8,544.7c-23-49.3-42-100.4-56.7-152.8"/>
<path class="st0" d="M200.5,722.6c-0.7-0.9-1.4-1.8-2.1-2.7"/>
<path class="st0" d="M177.9,691.8c-1.7-2.4-3.3-4.7-5-7.1"/>
<path class="st0" d="M156.6,660.1c-54.5-84.2-95.9-176.2-122.9-272.8"/>
<path class="st0" d="M165.4,654.4c-0.9-1.4-1.9-2.9-2.8-4.3"/>
<path class="st0" d="M145.5,622.3c-0.9-1.5-1.8-3-2.6-4.5"/>
<path class="st0" d="M141.1,614.9c-1.4-2.5-2.9-5-4.3-7.5"/>
<path class="st0" d="M136,606c-5.7-10-11.1-20-16.4-30.2"/>
<path class="st0" d="M116.4,569.7c-3.4-6.6-6.7-13.3-10-20"/>
<path class="st0" d="M103.4,543.5C80,494.4,60.7,443.4,45.7,391.1"/>
<path class="st0" d="M11,202.2c-0.2-2.3-0.4-4.6-0.6-6.8"/>
<path class="st0" d="M9.3,61.5c0.3-5.1,0.7-10.3,1-15.4"/>
<path class="st0" d="M219.3,712.6c-3.5-4.5-6.9-9-10.2-13.6"/>
<path class="st0" d="M204,692.2c-1.7-2.3-3.3-4.6-5-6.9"/>
<path class="st0" d="M193.2,676.9c-3.2-4.6-6.4-9.3-9.6-14"/>
<path class="st0" d="M177.9,654.4c-1.2-1.9-2.5-3.8-3.7-5.7"/>
<path class="st0" d="M172.4,645.8c-5.2-8.1-10.3-16.3-15.3-24.6"/>
<path class="st0" d="M141,593.4C104.6,528,75.8,458.6,55.3,386.6"/>
<path class="st0" d="M28.3,260.4c-0.2-1.7-0.5-3.4-0.7-5"/>
<path class="st0" d="M24.1,228.4c-0.8-6.8-1.4-13.5-2.1-20.3"/>
<path class="st0" d="M20.9,194.5c0-0.6-0.1-1.1-0.1-1.7"/>
<path class="st0" d="M19.4,170.8c-0.1-1.7-0.2-3.4-0.3-5.1"/>
<path class="st0" d="M20.9,45.1c0.4-5.1,0.8-10.2,1.3-15.3"/>
<path class="st0" d="M228.6,707.5c-1-1.3-2-2.7-3.1-4"/>
<path class="st0" d="M219.5,695.4c-1-1.3-2-2.7-3-4"/>
<path class="st0" d="M208.6,680.5c-1.3-1.8-2.6-3.7-3.9-5.5"/>
<path class="st0" d="M190.4,654.3c-0.6-0.9-1.3-1.9-1.9-2.8"/>
<path class="st0" d="M170.5,623.1c-4.4-7.2-8.7-14.4-12.9-21.7"/>
<path class="st0" d="M155.1,597c-1.1-1.9-2.2-3.9-3.3-5.9"/>
<path class="st0" d="M149.3,586.8c-0.8-1.5-1.6-2.9-2.4-4.4"/>
<path class="st0" d="M130.5,551.1c-0.3-0.5-0.5-1-0.8-1.5"/>
<path class="st0" d="M125.3,540.6c-23.3-47.9-42.5-97.7-57.6-148.8"/>
<path class="st0" d="M34.2,223.9c-0.4-3.3-0.7-6.7-1-10"/>
<path class="st0" d="M29.7,166.9c-0.2-3.9-0.4-7.8-0.5-11.7"/>
<path class="st0" d="M236.9,701.1c-5.7-7.5-11.4-15-16.9-22.6"/>
<path class="st0" d="M214.2,670.3c-3.5-5-7-10-10.4-15"/>
<path class="st0" d="M199.1,648.4c-5.5-8.3-10.9-16.7-16.2-25.1"/>
<path class="st0" d="M177.7,614.8c-15-24.6-28.8-49.9-41.5-75.8"/>
<path class="st0" d="M120.1,504.3c-1.1-2.5-2.2-5.1-3.3-7.6"/>
<path class="st0" d="M114.8,492.1c-14.5-34.2-27-69.2-37.4-104.8"/>
<path class="st0" d="M45.4,229.3c-1.2-10.5-2.2-20.9-3.1-31.4"/>
<path class="st0" d="M40.7,176.4c-0.5-8.9-0.9-17.7-1.2-26.6"/>
<path class="st0" d="M254.4,706.3c-1-1.3-2-2.6-3.1-3.9"/>
<path class="st0" d="M246.2,696c-1.7-2.2-3.3-4.3-5-6.5"/>
<path class="st0" d="M234.3,680.3c-1.3-1.8-2.6-3.5-3.9-5.3"/>
<path class="st0" d="M226.6,669.6c-0.6-0.9-1.3-1.8-1.9-2.7"/>
<path class="st0" d="M216.2,654.8c-0.6-0.9-1.2-1.8-1.9-2.7"/>
<path class="st0" d="M212.5,649.4c-0.9-1.4-1.8-2.7-2.8-4.1"/>
<path class="st0" d="M198.9,628.8c-0.3-0.5-0.6-0.9-0.9-1.4"/>
<path class="st0" d="M195.3,623.3c-0.6-0.9-1.2-1.8-1.7-2.8"/>
<path class="st0" d="M191.8,617.7c-1.2-1.9-2.3-3.7-3.5-5.6"/>
<path class="st0" d="M172.5,585.2c-6.8-11.9-13.3-24-19.5-36.2"/>
<path class="st0" d="M147.8,538.8c-0.5-1-1-2-1.4-2.9"/>
<path class="st0" d="M145.6,534.3c-5.1-10.3-9.9-20.8-14.6-31.3"/>
<path class="st0" d="M130.3,501.6c-1.6-3.5-3.1-7-4.6-10.6"/>
<path class="st0" d="M121.3,480.4c-0.2-0.5-0.4-1-0.6-1.5"/>
<path class="st0" d="M99.3,421.9c-0.4-1-0.7-2.1-1.1-3.1"/>
<path class="st0" d="M94.1,406.3c-1-3.1-2-6.3-2.9-9.4"/>
<path class="st0" d="M53.3,203.6c-0.3-3.8-0.7-7.7-1-11.5"/>
<path class="st0" d="M50.7,165.8c-0.2-3.3-0.3-6.6-0.4-9.8"/>
<path class="st0" d="M255.5,690.9c-8.6-11.1-17-22.5-25.1-34"/>
<path class="st0" d="M224.8,648.9c-2.5-3.6-4.9-7.2-7.3-10.8"/>
<path class="st0" d="M204.2,617.7c-7.2-11.4-14.2-23-21-34.8"/>
<path class="st0" d="M177.7,573c-29.8-53.6-54.3-109.9-73-168.3"/>
<path class="st0" d="M104.1,403.1c-1.7-5.2-3.3-10.4-4.8-15.6"/>
<path class="st0" d="M64.2,207.5c-0.7-7-1.2-14-1.7-21"/>
<path class="st0" d="M61.8,176.7c-0.3-5.4-0.6-10.8-0.9-16.2"/>
<path class="st0" d="M61.6,66.2c0.3-4.9,0.6-9.7,1-14.6"/>
<path class="st0" d="M272.8,695.8c-1.3-1.7-2.7-3.4-4-5"/>
<path class="st0" d="M261.9,681.9c-1.6-2.1-3.2-4.2-4.9-6.4"/>
<path class="st0" d="M253.1,670.4c-0.6-0.9-1.3-1.7-1.9-2.6"/>
<path class="st0" d="M246.5,661.3c-0.3-0.4-0.6-0.8-0.9-1.3"/>
<path class="st0" d="M241.8,654.8c-0.3-0.4-0.6-0.9-0.9-1.3"/>
<path class="st0" d="M230.7,639c-1.2-1.8-2.4-3.5-3.6-5.3"/>
<path class="st0" d="M220,622.9c-1.8-2.7-3.5-5.4-5.2-8.1"/>
<path class="st0" d="M209.7,606.6c-3.7-5.9-7.3-11.9-10.9-17.9"/>
<path class="st0" d="M197.2,586c-4.9-8.3-9.6-16.7-14.3-25.2"/>
<path class="st0" d="M172.4,540.9c-24.5-47.7-44.8-97.5-60.7-148.7"/>
<path class="st0" d="M75.9,219.3c-1.3-12.3-2.4-24.6-3.3-36.9"/>
<path class="st0" d="M71.8,71.6c0.1-1.6,0.2-3.2,0.3-4.8"/>
<path class="st0" d="M274.1,680.5c-10.8-13.8-21.1-27.9-31.1-42.3"/>
<path class="st0" d="M235.8,627.8c-1.8-2.6-3.5-5.3-5.3-7.9"/>
<path class="st0" d="M228.8,617.2c-2.9-4.4-5.7-8.9-8.6-13.4"/>
<path class="st0" d="M212.7,591.6c-10.4-17.2-20.3-34.8-29.5-52.7"/>
<path class="st0" d="M178.1,529c-23.1-45.9-42.3-93.7-57.3-142.9"/>
<path class="st0" d="M85.9,213.5c-0.4-3.7-0.7-7.4-1.1-11.1"/>
<path class="st0" d="M84,192.9c-0.4-5.3-0.8-10.6-1.1-15.8"/>
<path class="st0" d="M279.5,670.3c-0.6-0.8-1.3-1.7-1.9-2.5"/>
<path class="st0" d="M272.8,661.6c-0.6-0.8-1.3-1.7-1.9-2.5"/>
<path class="st0" d="M263.4,649c-4-5.5-7.9-11.1-11.8-16.7"/>
<path class="st0" d="M241.9,618c-0.3-0.4-0.6-0.9-0.9-1.3"/>
<path class="st0" d="M238.5,612.7c-4.6-7-9.1-14.1-13.5-21.2"/>
<path class="st0" d="M212.1,569.9c-6-10.4-11.8-21-17.4-31.6"/>
<path class="st0" d="M194,536.9c-1.9-3.7-3.9-7.4-5.7-11.2"/>
<path class="st0" d="M177.9,504.5c-0.4-0.9-0.9-1.9-1.3-2.8"/>
<path class="st0" d="M172.6,493.1c-5-11-9.8-22-14.3-33.2"/>
<path class="st0" d="M157.1,457.1c-0.2-0.5-0.4-1-0.6-1.5"/>
<path class="st0" d="M150.2,439.5c-6-15.7-11.5-31.5-16.5-47.5"/>
<path class="st0" d="M94.4,192c-0.5-6.8-1-13.6-1.4-20.3"/>
<path class="st0" d="M292.5,670c-13.4-17.1-26.3-34.7-38.4-52.7"/>
<path class="st0" d="M250.7,612.2c-8.9-13.4-17.4-27-25.5-40.8"/>
<path class="st0" d="M219.7,562c-13.1-22.9-25.2-46.4-36.2-70.4"/>
<path class="st0" d="M178.3,480.3c-3.8-8.5-7.4-17.1-10.9-25.7"/>
<path class="st0" d="M163.4,444.5c-7.4-18.8-14.1-37.8-20.2-57.1"/>
<path class="st0" d="M108.1,223.6c-1.2-10.3-2.2-20.6-3.1-30.9"/>
<path class="st0" d="M104.9,191.2c-0.5-6.7-1-13.4-1.4-20.2"/>
<path class="st0" d="M289.5,648.9c-5.2-6.9-10.4-14-15.4-21"/>
<path class="st0" d="M272.4,625.4c-1.8-2.5-3.5-5-5.2-7.5"/>
<path class="st0" d="M263.7,612.8c-0.6-0.9-1.2-1.7-1.7-2.6"/>
<path class="st0" d="M256.9,602.6c-2.5-3.9-5-7.7-7.5-11.6"/>
<path class="st0" d="M246.1,585.7c-2.2-3.5-4.3-7-6.4-10.5"/>
<path class="st0" d="M236.5,570c-2.1-3.5-4.2-7-6.2-10.6"/>
<path class="st0" d="M219.8,540.7c-11.3-20.7-21.7-41.8-31.3-63.3"/>
<path class="st0" d="M185.4,470.4c-0.6-1.4-1.2-2.8-1.8-4.2"/>
<path class="st0" d="M178.3,453.5c-0.6-1.4-1.2-2.8-1.7-4.3"/>
<path class="st0" d="M170.4,433.5c-5.8-15.3-11.2-30.7-16.2-46.3"/>
<path class="st0" d="M118.7,223.9c-0.4-3.6-0.8-7.1-1.2-10.7"/>
<path class="st0" d="M310.9,659.4C295.5,640,281,620,267.3,599.3"/>
<path class="st0" d="M262.3,591.7c-11.3-17.4-21.9-35.2-31.9-53.3"/>
<path class="st0" d="M225.4,529c-15.7-29.4-29.7-59.7-41.9-90.8"/>
<path class="st0" d="M178,424.1c-4.6-12.3-8.9-24.7-13-37.3"/>
<path class="st0" d="M132.1,245.2c-0.5-3.5-1-7-1.5-10.5"/>
<path class="st0" d="M126.1,192.5c-0.1-1-0.2-2-0.3-3"/>
<path class="st0" d="M316.4,649.4c-5.5-7.1-11-14.2-16.3-21.5"/>
<path class="st0" d="M298.3,625.5c-0.6-0.8-1.2-1.6-1.7-2.4"/>
<path class="st0" d="M288.7,612.1c-4.9-7-9.6-14-14.3-21.1"/>
<path class="st0" d="M267.1,579.7c-0.8-1.3-1.6-2.5-2.4-3.8"/>
<path class="st0" d="M262.3,572.1c-8.9-14.4-17.5-29.1-25.5-44"/>
<path class="st0" d="M228.4,512.1c-17.4-33.8-32.4-68.6-45.2-104.4"/>
<path class="st0" d="M178.3,393.6c-0.8-2.4-1.6-4.7-2.4-7.1"/>
<path class="st0" d="M329.2,648.7c-18.5-23.1-35.7-47.2-51.6-72.1"/>
<path class="st0" d="M272.8,569.1c-8.4-13.4-16.4-27-24-40.8"/>
<path class="st0" d="M243.2,517.8c-0.7-1.3-1.4-2.6-2.1-3.9"/>
<path class="st0" d="M235.7,503.4c-20.8-40.9-38.2-83.5-52-127.2"/>
<path class="st0" d="M151.1,229c-0.4-3.4-0.9-6.8-1.3-10.3"/>
<path class="st0" d="M347.6,654.6c-0.6-0.8-1.3-1.5-1.9-2.3"/>
<path class="st0" d="M335.6,639.9c-3-3.8-6-7.7-9-11.5"/>
<path class="st0" d="M324.8,626c-2.1-2.7-4.1-5.4-6.1-8.2"/>
<path class="st0" d="M314.4,611.9c-3.4-4.7-6.8-9.5-10.2-14.3"/>
<path class="st0" d="M303.4,596.5c-1.1-1.6-2.2-3.2-3.3-4.8"/>
<path class="st0" d="M298.4,589.2c-3-4.4-6-8.9-8.9-13.4"/>
<path class="st0" d="M288,573.4c-1.6-2.5-3.1-4.9-4.7-7.4"/>
<path class="st0" d="M277.9,557.3c-6.9-11.2-13.5-22.6-19.8-34.1"/>
<path class="st0" d="M251.8,511.6c-1.8-3.4-3.6-6.9-5.4-10.4"/>
<path class="st0" d="M236,480.3c-16.2-33.9-30-68.8-41.5-104.5"/>
<path class="st0" d="M348.3,639c-21.7-27-41.8-55.2-60-84.7"/>
<path class="st0" d="M285.3,549.4c-6.3-10.3-12.3-20.7-18.1-31.2"/>
<path class="st0" d="M264.5,513c-6.4-11.8-12.5-23.9-18.3-36"/>
<path class="st0" d="M241.2,466.6c-13.5-29.3-25.3-59.3-35.3-89.9"/>
<path class="st0" d="M356.5,632.4c-1.2-1.5-2.4-3-3.6-4.4"/>
<path class="st0" d="M351.2,625.7c-0.6-0.7-1.2-1.5-1.7-2.2"/>
<path class="st0" d="M345.9,619c-0.3-0.4-0.6-0.8-0.9-1.1"/>
<path class="st0" d="M340.7,612.2c-3.4-4.5-6.8-9.1-10.2-13.7"/>
<path class="st0" d="M329.7,597.3c-1.4-1.9-2.8-3.9-4.1-5.8"/>
<path class="st0" d="M324.7,590.3c-3.3-4.7-6.5-9.3-9.7-14.1"/>
<path class="st0" d="M314.2,575.1c-3.4-5.1-6.8-10.3-10.1-15.5"/>
<path class="st0" d="M301,554.8c-1-1.6-2-3.2-3-4.8"/>
<path class="st0" d="M288.4,534.1c-13.5-22.9-25.9-46.5-37.1-70.6"/>
<path class="st0" d="M246.1,451.8c-11-24.7-20.8-50-29.3-75.7"/>
<path class="st0" d="M366.4,628c-23.1-28.4-44.2-58.3-63.2-89.6"/>
<path class="st0" d="M297.5,528.8c-15-25.4-28.6-51.7-40.7-78.6"/>
<path class="st0" d="M251.7,438.6c-8.7-20.2-16.6-40.8-23.6-61.7"/>
<path class="st0" d="M367.6,612.7c-3.7-4.7-7.4-9.5-11-14.3"/>
<path class="st0" d="M355.8,597.3c-1.4-1.8-2.8-3.7-4.1-5.5"/>
<path class="st0" d="M350.8,590.6c-7.1-9.7-14-19.5-20.7-29.5"/>
<path class="st0" d="M329.3,559.9c-6.9-10.4-13.6-21-20-31.7"/>
<path class="st0" d="M303,517.5c-15.3-26.5-29-53.8-41.1-81.8"/>
<path class="st0" d="M252.3,412.6c-4.8-12-9.2-24.2-13.4-36.5"/>
<path class="st0" d="M382.7,614.8c-25.3-31.2-48.3-64.3-68.5-99"/>
<path class="st0" d="M309.4,507.4c-18-31.8-33.8-64.8-47.3-98.7"/>
<path class="st0" d="M257.6,397.2c-2.6-6.8-5.1-13.7-7.5-20.6"/>
<path class="st0" d="M403.9,623.7c-0.3-0.3-0.6-0.7-0.9-1"/>
<path class="st0" d="M390,607.1c-2.6-3.2-5.1-6.3-7.6-9.5"/>
<path class="st0" d="M381.6,596.5c-8-10.3-15.8-20.8-23.3-31.5"/>
<path class="st0" d="M356.7,562.8c-0.8-1.1-1.5-2.2-2.3-3.3"/>
<path class="st0" d="M343.9,543.8c-8.4-12.8-16.4-25.9-24-39.2"/>
<path class="st0" d="M314.5,495.2c-10-18.1-19.4-36.6-27.9-55.5"/>
<path class="st0" d="M281.7,428.6c-5-11.6-9.8-23.2-14.2-35"/>
<path class="st0" d="M262.3,379.6c-0.5-1.3-0.9-2.5-1.3-3.8"/>
<path class="st0" d="M403.2,606.7c-12.5-15.1-24.3-30.6-35.6-46.6"/>
<path class="st0" d="M363.8,554.6c-0.8-1.1-1.5-2.2-2.3-3.3"/>
<path class="st0" d="M360,549.1c-12.5-18.4-24.2-37.3-35-56.7"/>
<path class="st0" d="M321.8,486.6c-19.2-35.1-35.6-71.6-49.1-109.3"/>
<path class="st0" d="M408.8,597c-1.4-1.7-2.8-3.4-4.1-5.1"/>
<path class="st0" d="M403.8,590.8c-7.4-9.2-14.6-18.6-21.5-28.2"/>
<path class="st0" d="M369.5,544.3c-12.8-18.8-24.8-38.2-35.9-58.2"/>
<path class="st0" d="M325.4,471.1c-16.2-30.6-30.2-62.4-42-94.9"/>
<path class="st0" d="M422.7,597.3c-12.2-14.6-23.9-29.6-34.9-45"/>
<path class="st0" d="M386.3,550.1c-18-25.4-34.4-51.8-49.1-79.3"/>
<path class="st0" d="M334.1,465.1c-15.1-28.7-28.2-58.4-39.4-88.8"/>
<path class="st0" d="M269.2,292c-1.6-6.7-3.1-13.5-4.5-20.2"/>
<path class="st0" d="M429.9,589.6c-7.1-8.5-14-17.1-20.7-26"/>
<path class="st0" d="M406.9,560.5c-2.8-3.7-5.6-7.5-8.3-11.3"/>
<path class="st0" d="M394.8,544c-18-25.4-34.4-51.8-49.1-79.3"/>
<path class="st0" d="M338.1,450c-10.4-20.5-19.8-41.5-28.2-63"/>
<path class="st0" d="M309.5,385.9c-0.6-1.6-1.2-3.2-1.8-4.8"/>
<path class="st0" d="M280,292c-1.7-7-3.3-14.1-4.8-21.2"/>
<path class="st0" d="M440.4,585.7c-34.5-40.8-64.3-85.3-88.9-132.6"/>
<path class="st0" d="M345.8,441.9c-10.7-21.4-20.3-43.4-28.8-65.8"/>
<path class="st0" d="M288.4,282.2c-0.9-3.7-1.7-7.4-2.5-11.1"/>
<path class="st0" d="M445.2,575.1c-3.4-4.1-6.8-8.3-10.2-12.5"/>
<path class="st0" d="M432.7,559.7c-2.8-3.6-5.6-7.2-8.3-10.8"/>
<path class="st0" d="M420.7,543.9c-24.4-32.9-46-67.9-64.4-104.5"/>
<path class="st0" d="M351.3,429.4c-8.5-17.5-16.2-35.4-23.2-53.5"/>
<path class="st0" d="M304.3,302.7c-0.1-0.4-0.2-0.8-0.3-1.2"/>
<path class="st0" d="M303.1,297.9c-1.5-5.6-2.8-11.2-4.2-16.9"/>
<path class="st0" d="M445.6,559c-2.6-3.2-5.1-6.4-7.6-9.6"/>
<path class="st0" d="M435,545.5c-27.8-36.3-51.9-75.2-72.1-116.2"/>
<path class="st0" d="M360.2,423.7c-7.4-15.4-14.3-31.1-20.6-47.1"/>
<path class="st0" d="M316.7,308.3c-3.4-12.2-6.5-24.4-9.2-36.8"/>
<path class="st0" d="M443.3,539.1c-28.8-37.7-53.7-78.2-74.2-121"/>
<path class="st0" d="M364.6,408.3c-5.7-12.4-11-25-16-37.7"/>
<path class="st0" d="M327.5,307.8c-3.4-12-6.5-24-9.2-36.2"/>
<path class="st0" d="M446,525.2c-27.1-36.5-50.5-75.7-69.8-116.9"/>
<path class="st0" d="M372.1,399.6c-5-11.2-9.8-22.5-14.2-33.9"/>
<path class="st0" d="M338.6,308.4c-3.5-12.2-6.7-24.4-9.5-36.8"/>
<path class="st0" d="M445.5,506.6c-24.3-34.3-45.3-70.9-62.8-109.2"/>
<path class="st0" d="M377.4,385.6c-2-4.6-4-9.3-5.9-14"/>
<path class="st0" d="M349.3,307.7c-3.5-12-6.7-24-9.5-36.1"/>
<path class="st0" d="M445.5,488.3c-22.3-33.1-41.6-68.1-57.5-104.7"/>
<path class="st0" d="M384.8,376.2c-1.5-3.5-2.9-7.1-4.4-10.6"/>
<path class="st0" d="M360.4,308.1c-3.6-12.1-6.9-24.3-9.8-36.6"/>
<path class="st0" d="M445.5,469.1c-18.9-29.6-35.4-60.6-49.3-92.9"/>
<path class="st0" d="M371.4,308.3c-3.7-12.3-7.1-24.7-10.1-37.1"/>
<path class="st0" d="M445.6,449.3c-16.1-26.7-30.2-54.6-42.3-83.3"/>
<path class="st0" d="M385.8,319.1c-5.1-15.5-9.6-31.2-13.5-47.1"/>
<path class="st0" d="M445.7,428.7c-9.7-17.2-18.6-34.8-26.6-52.7"/>
<path class="st0" d="M416.8,371c-2.2-5-4.3-10.1-6.4-15.1"/>
<path class="st0" d="M396.8,318.9c-5.2-15.6-9.8-31.3-13.8-47.3"/>
<path class="st0" d="M445.6,406.6c-8.7-16.5-16.6-33.4-23.7-50.7"/>
<path class="st0" d="M419.4,349.9c-0.7-1.7-1.3-3.3-2-5"/>
<path class="st0" d="M411.3,328.8c-6.8-18.9-12.7-38.1-17.6-57.6"/>
<path class="st0" d="M445.8,383.7c-5.4-11.1-10.4-22.4-15.1-33.8"/>
<path class="st0" d="M424.9,335.1c-0.7-2-1.5-4-2.2-5.9"/>
<path class="st0" d="M418.8,318.3c-5.3-15.3-10-30.9-14.1-46.6"/>
<path class="st0" d="M445.7,358.4c-5.7-13-10.9-26.2-15.7-39.6"/>
<path class="st0" d="M424.7,303c-3.4-10.6-6.5-21.2-9.3-31.9"/>
<path class="st0" d="M446,331.5c-3.7-9.5-7.1-19.1-10.3-28.8"/>
<path class="st0" d="M432.5,292.9c-2.2-7.2-4.3-14.3-6.2-21.6"/>
<path class="st0" d="M445.9,300.3c-0.8-2.5-1.7-5.1-2.5-7.6"/>
<path class="st0" d="M440.5,283.1c-1.1-3.8-2.2-7.7-3.3-11.6"/>
<path class="st0" d="M277.9,82.1c0.6-3.4,1.1-6.8,1.7-10.3"/>
<path class="st0" d="M287.4,88.9c0.4-2.3,0.7-4.5,1.1-6.8"/>
<path class="st0" d="M305.7,108.8c0.2-1.7,0.5-3.3,0.7-5"/>
<path class="st0" d="M308.7,88.8c0.4-2.2,0.7-4.4,1.1-6.6"/>
<path class="st0" d="M315.4,115.2c0.5-3.8,1-7.7,1.6-11.5"/>
<path class="st0" d="M318.5,93.8c1.1-7.1,2.3-14.2,3.6-21.3"/>
<path class="st0" d="M331.9,77.6c0.3-1.6,0.6-3.2,0.9-4.8"/>
<path class="st0" d="M336.2,117.9c0.1-1.1,0.3-2.1,0.4-3.2"/>
<path class="st0" d="M341.6,82.6c1.2-6.9,2.5-13.9,3.8-20.8"/>
<path class="st0" d="M342.9,151.3c0.2-1.6,0.3-3.2,0.5-4.8"/>
<path class="st0" d="M348,109.8c0.3-2.1,0.6-4.2,0.9-6.4"/>
<path class="st0" d="M352.9,157c0.5-5.3,1-10.5,1.6-15.8"/>
<path class="st0" d="M359.5,103.4c0.8-5.2,1.6-10.5,2.5-15.7"/>
<path class="st0" d="M362.6,84.6c0.1-0.5,0.2-1.1,0.3-1.6"/>
<path class="st0" d="M365.1,140.8c0.2-1.6,0.4-3.1,0.5-4.7"/>
<path class="st0" d="M372.7,87.9c0.3-1.5,0.5-3.1,0.8-4.6"/>
<path class="st0" d="M373,168.2c0-0.5,0.1-1,0.1-1.5"/>
<path class="st0" d="M375.1,146.6c0.6-5.7,1.3-11.3,2-17"/>
<path class="st0" d="M380.7,103.5c1.6-10.2,3.4-20.4,5.3-30.6"/>
<path class="st0" d="M383.2,172.2c0.1-1.5,0.2-3.1,0.4-4.6"/>
<path class="st0" d="M394.1,87c0.3-1.5,0.5-3,0.8-4.6"/>
<path class="st0" d="M393.3,177.5c0.8-10.6,1.7-21.2,2.9-31.7"/>
<path class="st0" d="M403.7,93.3c1.8-10.4,3.8-20.9,6-31.2"/>
<path class="st0" d="M405.2,161.9c0.2-2,0.4-4,0.6-6"/>
<path class="st0" d="M411.6,109.9c0.3-2,0.6-3.9,0.9-5.9"/>
<path class="st0" d="M417.3,77.4c0.3-1.5,0.6-3,0.9-4.4"/>
<path class="st0" d="M415.2,167.3c1.1-12.3,2.4-24.6,4-36.8"/>
<path class="st0" d="M420.2,123.2c0.1-1,0.3-1.9,0.4-2.9"/>
<path class="st0" d="M427,82.3c0.6-3.4,1.3-6.8,2-10.2"/>
<path class="st0" d="M429.8,130.5c0.3-1.9,0.5-3.9,0.8-5.8"/>
<g>
	<polyline class="st1" points="0.1,16.3 0.1,0.1 16.3,0.1 	"/>
	<polyline class="st1" points="451.3,765.1 467.5,765.1 467.5,748.9 	"/>
</g>
</svg>
