<?xml version="1.0" encoding="utf-8"?>
<!-- Generator: Adobe Illustrator 22.0.0, SVG Export Plug-In . SVG Version: 6.00 Build 0)  -->
<svg version="1.0" id="Layer_1" xmlns="http://www.w3.org/2000/svg" xmlns:xlink="http://www.w3.org/1999/xlink" x="0px" y="0px"
	 viewBox="0 0 595.3 652" style="enable-background:new 0 0 595.3 652;" xml:space="preserve">
<style type="text/css">
	.st0{fill:none;stroke:#CCCCCC;stroke-linecap:round;}
	.st1{fill:none;stroke:#EB3593;stroke-miterlimit:10;}
</style>
<path class="st0" d="M482.8,537.2c-1.2,0.2-2.3,0.4-3.5,0.7"/>
<path class="st0" d="M458.4,541.5c-1.2,0.2-2.3,0.4-3.5,0.6"/>
<path class="st0" d="M352.7,553.6c-1.8,0.1-3.5,0.2-5.3,0.3"/>
<path class="st0" d="M124.8,541.8c-1.2-0.2-2.3-0.4-3.5-0.6"/>
<path class="st0" d="M529.7,505.4c-1.1,0.3-2.2,0.6-3.3,0.8"/>
<path class="st0" d="M506,510.9c-0.6,0.1-1.1,0.3-1.7,0.4"/>
<path class="st0" d="M306.3,534.4c-1.7,0-3.5,0-5.2,0.1"/>
<path class="st0" d="M278.6,534.4c-1.7,0-3.5,0-5.2-0.1"/>
<path class="st0" d="M226.5,532.4c-1.7-0.1-3.5-0.2-5.2-0.3"/>
<path class="st0" d="M75.5,510.9c-0.6-0.1-1.1-0.3-1.7-0.4"/>
<path class="st0" d="M53.5,505.8c-1.1-0.3-2.2-0.6-3.3-0.8"/>
<path class="st0" d="M531.2,483.3c-1.6,0.4-3.3,0.8-4.9,1.2"/>
<path class="st0" d="M384,509c-1.7,0.2-3.4,0.3-5.1,0.5"/>
<path class="st0" d="M326.4,512.8c-1.7,0.1-3.4,0.1-5.1,0.2"/>
<path class="st0" d="M311.1,513.3c-1.7,0-3.4,0.1-5.1,0.1"/>
<path class="st0" d="M300.9,513.4c-1.7,0-3.4,0-5.1,0"/>
<path class="st0" d="M273.7,513.3c-1.7,0-3.4-0.1-5.1-0.1"/>
<path class="st0" d="M248.3,512.6c-1.7-0.1-3.4-0.2-5.1-0.2"/>
<path class="st0" d="M233,511.8c-2.3-0.1-4.5-0.3-6.8-0.4"/>
<path class="st0" d="M200.8,509.3c-1.7-0.2-3.4-0.3-5.1-0.5"/>
<path class="st0" d="M173.7,506.4c-1.7-0.2-3.4-0.4-5-0.6"/>
<path class="st0" d="M53.5,484.2c-1.7-0.4-3.3-0.8-5-1.3"/>
<path class="st0" d="M501.8,468.8c-0.5,0.1-1.1,0.2-1.6,0.4"/>
<path class="st0" d="M474.1,474.7c-5.4,1.1-10.9,2.1-16.4,3.1"/>
<path class="st0" d="M436.5,481.3c-1.7,0.3-3.3,0.5-5,0.8"/>
<path class="st0" d="M426.6,482.8c-1.6,0.2-3.3,0.5-4.9,0.7"/>
<path class="st0" d="M395.3,486.8c-5.5,0.6-11,1.2-16.5,1.7"/>
<path class="st0" d="M279.1,492.4c-1.7,0-3.3,0-5-0.1"/>
<path class="st0" d="M196.1,487.8c-2.2-0.2-4.4-0.4-6.6-0.7"/>
<path class="st0" d="M169.7,484.8c-1.1-0.1-2.2-0.3-3.3-0.4"/>
<path class="st0" d="M158.2,483.2c-1.7-0.2-3.3-0.5-5-0.7"/>
<path class="st0" d="M148.3,481.8c-1.6-0.2-3.3-0.5-4.9-0.8"/>
<path class="st0" d="M130.2,478.9c-2.7-0.5-5.5-0.9-8.2-1.4"/>
<path class="st0" d="M95.9,472.4c-1.6-0.3-3.2-0.7-4.9-1"/>
<path class="st0" d="M79.7,468.8c-0.5-0.1-1.1-0.2-1.6-0.4"/>
<path class="st0" d="M541.3,437.2c-1.6,0.4-3.1,0.9-4.7,1.3"/>
<path class="st0" d="M531.9,439.8c-3.7,1-7.4,1.9-11,2.9"/>
<path class="st0" d="M505.1,446.5c-3.7,0.9-7.4,1.7-11.1,2.5"/>
<path class="st0" d="M489.2,450.1c-1.6,0.3-3.2,0.7-4.8,1"/>
<path class="st0" d="M463.7,455.3c-2.1,0.4-4.3,0.8-6.4,1.2"/>
<path class="st0" d="M357.3,469.1c-1.6,0.1-3.2,0.2-4.9,0.3"/>
<path class="st0" d="M347.6,469.8c-1.6,0.1-3.2,0.2-4.9,0.3"/>
<path class="st0" d="M305.4,471.4c-1.6,0-3.3,0-4.9,0.1"/>
<path class="st0" d="M237.1,470c-1.6-0.1-3.2-0.2-4.9-0.3"/>
<path class="st0" d="M95.4,450.8c-6.9-1.5-13.8-3-20.6-4.7"/>
<path class="st0" d="M54.3,441c-5.3-1.4-10.5-2.8-15.7-4.3"/>
<path class="st0" d="M541.8,415.2c-1.5,0.4-3.1,0.9-4.6,1.3"/>
<path class="st0" d="M420.6,441.2c-1.6,0.2-3.2,0.5-4.8,0.7"/>
<path class="st0" d="M384.4,445.7c-1.6,0.2-3.2,0.3-4.8,0.5"/>
<path class="st0" d="M357.4,448.1c-6.9,0.5-13.8,0.9-20.6,1.3"/>
<path class="st0" d="M320.9,450c-3.2,0.1-6.4,0.2-9.6,0.3"/>
<path class="st0" d="M305,450.4c-3.2,0-6.3,0.1-9.5,0.1"/>
<path class="st0" d="M279.6,450.5c-6.9-0.1-13.8-0.2-20.6-0.5"/>
<path class="st0" d="M236.7,448.9c-1.6-0.1-3.2-0.2-4.7-0.3"/>
<path class="st0" d="M227.2,448.3c-3.2-0.2-6.4-0.5-9.5-0.7"/>
<path class="st0" d="M211.3,447.1c-5.3-0.5-10.5-1-15.8-1.5"/>
<path class="st0" d="M175,443.1c-2.1-0.3-4.2-0.5-6.3-0.8"/>
<path class="st0" d="M159.3,441c-2.1-0.3-4.2-0.6-6.3-0.9"/>
<path class="st0" d="M127.9,435.9c-2.1-0.4-4.2-0.8-6.3-1.2"/>
<path class="st0" d="M42.8,416.1c-1.5-0.4-3.1-0.9-4.6-1.3"/>
<path class="st0" d="M534.5,395.5c-3,0.9-6,1.7-9,2.5"/>
<path class="st0" d="M510.5,402c-8.5,2.2-17.1,4.2-25.7,6.1"/>
<path class="st0" d="M474.2,410.4c-7.1,1.5-14.2,2.9-21.3,4.2"/>
<path class="st0" d="M133.1,415.5c-7.1-1.3-14.2-2.7-21.3-4.1"/>
<path class="st0" d="M95.1,407.8c-5.1-1.1-10.1-2.3-15.1-3.6"/>
<path class="st0" d="M59,398.8c-3.5-0.9-7-1.9-10.5-2.9"/>
<path class="st0" d="M11.4,384.5c-1.5-0.5-2.9-1-4.4-1.5"/>
<path class="st0" d="M564.9,364.1c-0.5,0.2-1,0.3-1.4,0.5"/>
<path class="st0" d="M541.8,371.5c-6.8,2-13.6,4-20.4,5.9"/>
<path class="st0" d="M499.4,383.1c-4.9,1.2-9.8,2.4-14.8,3.5"/>
<path class="st0" d="M431.1,397.1c-1.5,0.2-3,0.5-4.5,0.7"/>
<path class="st0" d="M399.6,401.7c-7,0.9-14.1,1.7-21.1,2.4"/>
<path class="st0" d="M374,404.5c-2,0.2-4,0.4-6,0.6"/>
<path class="st0" d="M358.9,405.9c-3.5,0.3-7.1,0.5-10.6,0.8"/>
<path class="st0" d="M316.5,408.2c-5.6,0.2-11.1,0.3-16.7,0.3"/>
<path class="st0" d="M280.1,408.5c-7.1-0.1-14.2-0.3-21.2-0.5"/>
<path class="st0" d="M248.3,407.5c-2-0.1-4-0.2-6.1-0.3"/>
<path class="st0" d="M227.1,406.2c-2-0.1-4-0.3-6-0.5"/>
<path class="st0" d="M216.5,405.4c-1.5-0.1-3-0.3-4.6-0.4"/>
<path class="st0" d="M201.4,403.9c-5.5-0.6-11-1.2-16.6-1.9"/>
<path class="st0" d="M169.8,400.1c-3.5-0.5-7-1-10.5-1.5"/>
<path class="st0" d="M101.2,387.6c-3.4-0.8-6.9-1.6-10.3-2.4"/>
<path class="st0" d="M87.9,384.5c-1-0.2-2-0.5-3-0.7"/>
<path class="st0" d="M74.7,381.3c-2.5-0.6-4.9-1.3-7.3-1.9"/>
<path class="st0" d="M58.6,377c-6.8-1.9-13.6-3.9-20.4-5.9"/>
<path class="st0" d="M32.4,369.2c-0.5-0.1-0.9-0.3-1.4-0.4"/>
<path class="st0" d="M568.1,340.9c-1.9,0.6-3.7,1.3-5.6,1.9"/>
<path class="st0" d="M547.1,347.9c-7,2.2-14.1,4.4-21.2,6.4"/>
<path class="st0" d="M521.5,355.5c-1.9,0.5-3.8,1.1-5.7,1.6"/>
<path class="st0" d="M510.1,358.7c-3.3,0.9-6.7,1.8-10.1,2.6"/>
<path class="st0" d="M494.4,362.7c-3.3,0.8-6.7,1.6-10.1,2.4"/>
<path class="st0" d="M474.2,367.5c-8.7,1.9-17.4,3.7-26.1,5.4"/>
<path class="st0" d="M426.2,376.7c-3.4,0.6-6.8,1.1-10.2,1.6"/>
<path class="st0" d="M395.5,381.1c-5.4,0.7-10.8,1.3-16.2,1.9"/>
<path class="st0" d="M363.1,384.5c-3.4,0.3-6.9,0.6-10.3,0.8"/>
<path class="st0" d="M336.6,386.3c-3.4,0.2-6.9,0.4-10.3,0.5"/>
<path class="st0" d="M311.4,387.3c-3.4,0.1-6.9,0.1-10.3,0.2"/>
<path class="st0" d="M284.8,387.5c-3.4,0-6.9-0.1-10.3-0.1"/>
<path class="st0" d="M258.2,386.9c-3.4-0.1-6.9-0.3-10.3-0.5"/>
<path class="st0" d="M206.5,383.4c-3.4-0.3-6.9-0.7-10.3-1.1"/>
<path class="st0" d="M180.1,380.3c-2.4-0.3-4.9-0.7-7.3-1"/>
<path class="st0" d="M169.8,378.9c-5.4-0.8-10.7-1.6-16.1-2.5"/>
<path class="st0" d="M131.9,372.5c-6.8-1.3-13.5-2.7-20.3-4.1"/>
<path class="st0" d="M85.7,362.4c-1.9-0.5-3.8-1-5.7-1.5"/>
<path class="st0" d="M74.2,359.4c-1.4-0.4-2.9-0.8-4.3-1.2"/>
<path class="st0" d="M58.5,355.1c-1.4-0.4-2.9-0.8-4.3-1.2"/>
<path class="st0" d="M51.4,353.1c-4.3-1.3-8.5-2.5-12.8-3.9"/>
<path class="st0" d="M33,347.4c-1.9-0.6-3.8-1.2-5.6-1.8"/>
<path class="st0" d="M11.9,340.4c-1.9-0.6-3.7-1.3-5.6-2"/>
<path class="st0" d="M553,323.8c-1.8,0.6-3.7,1.2-5.5,1.8"/>
<path class="st0" d="M543.4,327c-0.5,0.1-0.9,0.3-1.4,0.4"/>
<path class="st0" d="M536.6,329.2c-3.7,1.1-7.4,2.3-11,3.4"/>
<path class="st0" d="M521.4,333.7c-5.5,1.6-11.1,3.2-16.7,4.7"/>
<path class="st0" d="M500.5,339.5c-1.9,0.5-3.7,1-5.6,1.4"/>
<path class="st0" d="M489.3,342.4c-5.1,1.3-10.3,2.5-15.4,3.7"/>
<path class="st0" d="M468.3,347.3c-3.3,0.7-6.6,1.4-9.9,2.1"/>
<path class="st0" d="M425.8,355.5c-1.4,0.2-2.9,0.5-4.3,0.7"/>
<path class="st0" d="M415.8,357.1c-1.9,0.3-3.8,0.6-5.7,0.9"/>
<path class="st0" d="M400.1,359.3c-1.9,0.3-3.8,0.5-5.7,0.7"/>
<path class="st0" d="M390,360.6c-7.2,0.9-14.3,1.6-21.5,2.3"/>
<path class="st0" d="M362.8,363.4c-1,0.1-1.9,0.2-2.9,0.2"/>
<path class="st0" d="M342.6,364.9c-1.9,0.1-3.8,0.2-5.8,0.3"/>
<path class="st0" d="M316.7,366.2c-5.3,0.2-10.6,0.3-15.9,0.3"/>
<path class="st0" d="M279.2,366.5c-3.4,0-6.8-0.1-10.1-0.2"/>
<path class="st0" d="M263.3,366.1c-1.4,0-2.9-0.1-4.3-0.2"/>
<path class="st0" d="M247.4,365.4c-1.4-0.1-2.9-0.2-4.3-0.2"/>
<path class="st0" d="M237.4,364.8c-1.9-0.1-3.8-0.3-5.8-0.4"/>
<path class="st0" d="M217.2,363.3c-1.9-0.2-3.8-0.3-5.7-0.5"/>
<path class="st0" d="M205.8,362.2c-3.4-0.3-6.7-0.7-10.1-1.1"/>
<path class="st0" d="M189.9,360.4c-1.4-0.2-2.9-0.4-4.3-0.5"/>
<path class="st0" d="M179.9,359.1c-1.9-0.3-3.8-0.5-5.7-0.8"/>
<path class="st0" d="M164.2,356.8c-1.9-0.3-3.8-0.6-5.7-0.9"/>
<path class="st0" d="M121.7,349.1c-1.4-0.3-2.8-0.6-4.2-0.9"/>
<path class="st0" d="M111.8,347c-1.9-0.4-3.8-0.8-5.6-1.3"/>
<path class="st0" d="M100.5,344.4c-5.2-1.2-10.3-2.5-15.4-3.8"/>
<path class="st0" d="M79.5,339.1c-1.4-0.4-2.8-0.7-4.2-1.1"/>
<path class="st0" d="M72.6,337.3c-2.8-0.8-5.6-1.5-8.4-2.3"/>
<path class="st0" d="M58.7,333.3c-6.9-2-13.8-4.1-20.7-6.3"/>
<path class="st0" d="M27,323.4c-1.4-0.5-2.7-0.9-4.1-1.4"/>
<path class="st0" d="M553.1,301.7c-8.9,3.1-17.8,6-26.8,8.7"/>
<path class="st0" d="M515.5,313.6c-5.4,1.6-10.8,3.1-16.3,4.5"/>
<path class="st0" d="M495.2,319.2c-1.8,0.5-3.6,0.9-5.4,1.4"/>
<path class="st0" d="M478.8,323.3c-3.6,0.9-7.3,1.7-11,2.6"/>
<path class="st0" d="M452.8,329.1c-5.1,1-10.1,2-15.2,3"/>
<path class="st0" d="M436.2,332.3c-12,2.2-24,4.1-36.1,5.8"/>
<path class="st0" d="M394.5,338.9c-7,0.9-14,1.7-20.9,2.4"/>
<path class="st0" d="M352.5,343.2c-3.3,0.3-6.5,0.5-9.8,0.7"/>
<path class="st0" d="M337.1,344.2c-3.3,0.2-6.5,0.4-9.8,0.5"/>
<path class="st0" d="M321.7,345c-1.9,0.1-3.7,0.1-5.6,0.2"/>
<path class="st0" d="M310.4,345.3c-6.6,0.2-13.1,0.2-19.7,0.2"/>
<path class="st0" d="M285.1,345.6c-7,0-14.1-0.2-21.1-0.4"/>
<path class="st0" d="M258.4,344.9c-12.2-0.5-24.3-1.3-36.5-2.3"/>
<path class="st0" d="M210.7,341.6c-7-0.7-14-1.5-21-2.4"/>
<path class="st0" d="M175.8,337.3c-10.7-1.5-21.3-3.3-31.9-5.3"/>
<path class="st0" d="M138.4,331c-5.5-1.1-11-2.2-16.5-3.4"/>
<path class="st0" d="M106.7,324.3c-5.5-1.3-10.9-2.6-16.4-4"/>
<path class="st0" d="M84.9,318.8c-1.4-0.4-2.7-0.7-4.1-1.1"/>
<path class="st0" d="M64.6,313.2c-1.8-0.5-3.6-1.1-5.4-1.6"/>
<path class="st0" d="M57.8,311.2c-11.7-3.5-23.2-7.3-34.7-11.4"/>
<path class="st0" d="M12.5,296c-0.9-0.3-1.8-0.7-2.7-1"/>
<path class="st0" d="M137.6,320.2c-1.8-0.4-3.6-0.7-5.4-1.1"/>
<path class="st0" d="M552.7,279.6c-0.4,0.2-0.9,0.3-1.3,0.5"/>
<path class="st0" d="M547.5,281.4c-8.6,3-17.3,5.8-26,8.5"/>
<path class="st0" d="M520.2,290.3c-1.3,0.4-2.6,0.8-4,1.2"/>
<path class="st0" d="M511,293.1c-8.8,2.6-17.6,5-26.4,7.2"/>
<path class="st0" d="M481.9,300.9c-0.9,0.2-1.8,0.4-2.6,0.7"/>
<path class="st0" d="M468.6,304.2c-7.1,1.7-14.3,3.2-21.4,4.7"/>
<path class="st0" d="M441.8,309.9c-4.9,1-9.9,1.9-14.8,2.8"/>
<path class="st0" d="M421.6,313.6c-1.8,0.3-3.6,0.6-5.4,0.9"/>
<path class="st0" d="M410.8,315.3c-5.4,0.8-10.8,1.6-16.3,2.3"/>
<path class="st0" d="M389.1,318.4c-6.8,0.9-13.6,1.6-20.4,2.3"/>
<path class="st0" d="M348.2,322.5c-3.6,0.3-7.3,0.5-10.9,0.7"/>
<path class="st0" d="M316.7,324.2c-3.7,0.1-7.3,0.2-11,0.3"/>
<path class="st0" d="M263.3,324.1c-3.2-0.1-6.4-0.2-9.6-0.4"/>
<path class="st0" d="M242.8,323.1c-5.5-0.3-10.9-0.7-16.4-1.2"/>
<path class="st0" d="M206,320c-3.6-0.4-7.3-0.8-10.9-1.3"/>
<path class="st0" d="M191,318.2c-1.8-0.2-3.6-0.5-5.4-0.7"/>
<path class="st0" d="M180.2,316.8c-0.9-0.1-1.8-0.3-2.7-0.4"/>
<path class="st0" d="M174.7,316c-3.6-0.5-7.2-1.1-10.8-1.7"/>
<path class="st0" d="M158.5,313.4c-1.8-0.3-3.6-0.6-5.4-0.9"/>
<path class="st0" d="M147.7,311.5c-1.3-0.2-2.7-0.5-4-0.8"/>
<path class="st0" d="M138.3,309.6c-10.8-2.1-21.5-4.5-32.1-7.1"/>
<path class="st0" d="M90.3,298.6c-4-1.1-7.9-2.1-11.9-3.2"/>
<path class="st0" d="M74.4,294.2c-3.5-1-7-2-10.5-3.1"/>
<path class="st0" d="M60,289.9c-7.4-2.3-14.8-4.7-22.2-7.2"/>
<path class="st0" d="M32.6,280.9c-3.4-1.2-6.9-2.4-10.3-3.7"/>
<path class="st0" d="M548.2,258.9c-0.4,0.1-0.8,0.3-1.2,0.4"/>
<path class="st0" d="M541.9,261.1c-5,1.8-10.1,3.5-15.2,5.1"/>
<path class="st0" d="M520.4,268.3c-1.3,0.4-2.5,0.8-3.8,1.2"/>
<path class="st0" d="M515.3,269.8c-5.1,1.6-10.2,3.1-15.3,4.5"/>
<path class="st0" d="M498.7,274.7c-1.3,0.4-2.6,0.7-3.8,1.1"/>
<path class="st0" d="M484.5,278.6c-3.4,0.9-6.9,1.8-10.3,2.6"/>
<path class="st0" d="M469,282.5c-5.6,1.3-11.2,2.6-16.9,3.8"/>
<path class="st0" d="M446.9,287.5c-1.7,0.4-3.5,0.7-5.2,1.1"/>
<path class="st0" d="M436.5,289.6c-5.2,1-10.5,2-15.7,2.9"/>
<path class="st0" d="M415.5,293.3c-1.8,0.3-3.5,0.6-5.3,0.9"/>
<path class="st0" d="M404.9,295c-1.8,0.3-3.5,0.5-5.3,0.8"/>
<path class="st0" d="M394.4,296.5c-6.6,0.9-13.2,1.7-19.8,2.5"/>
<path class="st0" d="M358.6,300.6c-21.3,1.9-42.6,2.9-63.9,3"/>
<path class="st0" d="M280.1,303.5c-21.3-0.3-42.6-1.5-63.9-3.6"/>
<path class="st0" d="M200.3,298.2c-3.5-0.4-7.1-0.9-10.6-1.3"/>
<path class="st0" d="M185.7,296.4c-5.3-0.7-10.6-1.5-15.8-2.4"/>
<path class="st0" d="M164.7,293.1c-1.8-0.3-3.5-0.6-5.3-0.9"/>
<path class="st0" d="M154.2,291.3c-2.2-0.4-4.4-0.8-6.6-1.2"/>
<path class="st0" d="M143.7,289.3c-1.7-0.3-3.5-0.7-5.2-1"/>
<path class="st0" d="M133.2,287.2c-5.6-1.2-11.3-2.4-16.9-3.8"/>
<path class="st0" d="M111.1,282.2c-1.7-0.4-3.5-0.8-5.2-1.3"/>
<path class="st0" d="M100.8,279.6c-3.4-0.9-6.9-1.8-10.3-2.7"/>
<path class="st0" d="M75.1,272.5c-3.8-1.1-7.7-2.3-11.5-3.5"/>
<path class="st0" d="M59.8,267.9c-5.5-1.7-11-3.6-16.5-5.4"/>
<path class="st0" d="M38.3,260.7c-3.4-1.2-6.7-2.4-10-3.6"/>
<path class="st0" d="M552.1,235.1c-3.2,1.2-6.5,2.4-9.7,3.6"/>
<path class="st0" d="M536.2,240.9c-6.9,2.4-13.9,4.7-20.9,7"/>
<path class="st0" d="M514.1,248.2c-1.2,0.4-2.5,0.8-3.7,1.2"/>
<path class="st0" d="M500.5,252.4c-1.3,0.4-2.5,0.7-3.8,1.1"/>
<path class="st0" d="M494.2,254.2c-1.7,0.5-3.3,0.9-5,1.4"/>
<path class="st0" d="M484.2,257c-5.4,1.5-10.9,2.9-16.3,4.2"/>
<path class="st0" d="M462.9,262.4c-5,1.2-10.1,2.4-15.2,3.4"/>
<path class="st0" d="M442.6,266.9c-21.2,4.4-42.5,7.9-63.9,10.5"/>
<path class="st0" d="M368.4,278.5c-8.6,0.9-17.2,1.7-25.8,2.3"/>
<path class="st0" d="M337.4,281.1c-3.5,0.2-6.9,0.4-10.4,0.6"/>
<path class="st0" d="M321.8,282c-1.7,0.1-3.5,0.1-5.2,0.2"/>
<path class="st0" d="M311.4,282.3c-3.5,0.1-6.9,0.2-10.4,0.2"/>
<path class="st0" d="M295.9,282.6c-2.2,0-4.3,0-6.5,0"/>
<path class="st0" d="M284.2,282.6c-6.9-0.1-13.8-0.2-20.7-0.5"/>
<path class="st0" d="M258.3,281.9c-3.5-0.2-6.9-0.3-10.4-0.5"/>
<path class="st0" d="M242.8,281.1c-1.7-0.1-3.4-0.2-5.2-0.4"/>
<path class="st0" d="M232.4,280.3c-8.6-0.7-17.2-1.5-25.8-2.5"/>
<path class="st0" d="M195,276.4c-17.6-2.3-35-5.2-52.4-8.7"/>
<path class="st0" d="M137.6,266.7c-1.7-0.4-3.4-0.7-5.1-1.1"/>
<path class="st0" d="M127.4,264.4c-8-1.8-16-3.7-23.9-5.8"/>
<path class="st0" d="M101,258c-3.3-0.9-6.7-1.8-10-2.7"/>
<path class="st0" d="M86,253.8c-3.7-1.1-7.5-2.2-11.2-3.3"/>
<path class="st0" d="M58.7,245.5c-7-2.3-13.9-4.7-20.8-7.2"/>
<path class="st0" d="M35.5,237.4c-4.5-1.6-8.9-3.3-13.3-5"/>
<path class="st0" d="M547,214.6c-7.1,2.7-14.2,5.3-21.3,7.7"/>
<path class="st0" d="M516.2,225.5c-14,4.6-28.1,8.8-42.3,12.5"/>
<path class="st0" d="M469,239.3c-24.4,6.2-49.2,11.2-74.1,14.8"/>
<path class="st0" d="M389.9,254.8c-1.7,0.2-3.3,0.5-5,0.7"/>
<path class="st0" d="M373.7,256.8c-1.7,0.2-3.3,0.4-5,0.6"/>
<path class="st0" d="M363.6,257.9c-8.8,0.9-17.5,1.6-26.3,2.2"/>
<path class="st0" d="M332.3,260.4c-7.1,0.4-14.3,0.7-21.4,0.9"/>
<path class="st0" d="M305.8,261.5c-5,0.1-10.1,0.2-15.1,0.2"/>
<path class="st0" d="M279.4,261.5c-7.1-0.1-14.3-0.3-21.4-0.7"/>
<path class="st0" d="M252.9,260.6c-6.7-0.4-13.4-0.8-20.1-1.3"/>
<path class="st0" d="M226.5,258.8c-1.7-0.1-3.3-0.3-5-0.5"/>
<path class="st0" d="M216.5,257.8c-1.7-0.2-3.3-0.4-5-0.5"/>
<path class="st0" d="M206.5,256.7c-1.7-0.2-3.3-0.4-5-0.6"/>
<path class="st0" d="M190.3,254.6c-1.7-0.2-3.3-0.5-5-0.7"/>
<path class="st0" d="M181.5,253.3c-21.6-3.3-43-7.6-64.2-12.8"/>
<path class="st0" d="M111.2,238.9c-17.5-4.5-34.8-9.6-51.9-15.4"/>
<path class="st0" d="M48.6,219.8c-7.1-2.5-14.2-5.2-21.2-7.9"/>
<path class="st0" d="M26.2,211.4c-1.2-0.5-2.3-0.9-3.5-1.4"/>
<path class="st0" d="M551,190.5c-3,1.2-6.1,2.4-9.1,3.6"/>
<path class="st0" d="M531.6,197.9c-19.2,7-38.6,13.2-58.3,18.5"/>
<path class="st0" d="M472.1,216.7c-27.2,7.3-54.8,12.9-82.7,16.9"/>
<path class="st0" d="M379.8,235c-12.5,1.6-25.1,2.9-37.7,3.8"/>
<path class="st0" d="M337.2,239.1c-3.3,0.2-6.5,0.4-9.8,0.6"/>
<path class="st0" d="M321.3,240c-1.6,0.1-3.3,0.1-4.9,0.2"/>
<path class="st0" d="M311.5,240.3c-3.7,0.1-7.3,0.2-11,0.2"/>
<path class="st0" d="M295.6,240.6c-2,0-4.1,0-6.1,0"/>
<path class="st0" d="M284.6,240.6c-6.9-0.1-13.8-0.2-20.8-0.5"/>
<path class="st0" d="M258.9,239.9c-3.7-0.2-7.3-0.4-11-0.6"/>
<path class="st0" d="M243.1,239c-1.6-0.1-3.3-0.2-4.9-0.3"/>
<path class="st0" d="M232.1,238.2c-12.2-1-24.3-2.4-36.5-4"/>
<path class="st0" d="M184.7,232.6c-0.4-0.1-0.8-0.1-1.2-0.2"/>
<path class="st0" d="M179.9,231.8c-24.6-3.9-48.9-9.2-72.9-15.7"/>
<path class="st0" d="M101.1,214.5c-12.2-3.4-24.2-7.2-36.2-11.2"/>
<path class="st0" d="M59.1,201.2c-5.4-1.9-10.7-3.8-16.1-5.9"/>
<path class="st0" d="M32.7,191.4c-1.1-0.4-2.3-0.9-3.4-1.4"/>
<path class="st0" d="M547.6,169.2c-15.7,6.4-31.7,12.3-47.9,17.5"/>
<path class="st0" d="M495.1,188.2c-32.8,10.4-66.4,18.2-100.4,23.5"/>
<path class="st0" d="M384.2,213.2c-5.1,0.7-10.2,1.4-15.3,1.9"/>
<path class="st0" d="M364.1,215.7c-24.8,2.7-49.7,4-74.6,4"/>
<path class="st0" d="M284.8,219.6c-24.5-0.2-49-1.8-73.4-4.6"/>
<path class="st0" d="M206.7,214.4c-5.5-0.7-11-1.4-16.5-2.3"/>
<path class="st0" d="M179.7,210.5c-33.6-5.6-66.7-13.6-99-24.1"/>
<path class="st0" d="M76.1,184.9c-16.5-5.5-32.8-11.6-48.9-18.4"/>
<path class="st0" d="M536.4,151.1c-37.4,15-76,26.6-115.5,34.5"/>
<path class="st0" d="M416.4,186.6c-5.3,1-10.5,2-15.8,2.9"/>
<path class="st0" d="M390.4,191.1c-33,5-66.3,7.6-99.7,7.6"/>
<path class="st0" d="M285,198.6c-33.4-0.3-66.7-3.1-99.6-8.4"/>
<path class="st0" d="M175.2,188.4c-5.3-0.9-10.5-1.9-15.8-3"/>
<path class="st0" d="M158.2,185.2c-41-8.4-81-20.7-119.6-36.7"/>
<path class="st0" d="M458.5,166.1c-3.6,1-7.3,1.9-10.9,2.8"/>
<path class="st0" d="M136.1,169.4c-1.1-0.3-2.2-0.5-3.3-0.8"/>
<path class="st0" d="M512,138.1c-34.5,12.8-70,22.5-106.1,29.1"/>
<path class="st0" d="M394.9,169.1c-34.4,5.7-69.3,8.6-104.2,8.6"/>
<path class="st0" d="M285.1,177.6c-35.3-0.3-70.4-3.5-105.2-9.7"/>
<path class="st0" d="M169,165.9c-34.3-6.7-67.9-16.1-100.6-28.3"/>
<path class="st0" d="M520.7,123.5c-1.7,0.7-3.4,1.3-5.1,2"/>
<path class="st0" d="M479.4,138.1c-1.7,0.5-3.5,1.1-5.2,1.6"/>
<path class="st0" d="M415.8,154.6c-1.8,0.4-3.6,0.7-5.4,1.1"/>
<path class="st0" d="M347.6,164.6c-1.8,0.2-3.6,0.3-5.4,0.5"/>
<path class="st0" d="M242.6,165.3c-1.5-0.1-2.9-0.2-4.4-0.4"/>
<path class="st0" d="M190.4,159.1c-0.4-0.1-0.7-0.1-1.1-0.2"/>
<path class="st0" d="M153.9,152.1c-3.6-0.8-7.1-1.6-10.7-2.5"/>
<path class="st0" d="M111.5,141c-1.8-0.5-3.5-1.1-5.2-1.6"/>
<path class="st0" d="M85.4,132.6c-1.7-0.6-3.4-1.2-5.1-1.8"/>
<path class="st0" d="M59.8,123.1c-1-0.4-2-0.8-3-1.2"/>
<path class="st0" d="M489.5,123.8c-22.4,7.6-45.3,14-68.4,19"/>
<path class="st0" d="M400,146.9c-36.4,6.6-73.3,9.8-110.3,9.7"/>
<path class="st0" d="M285.3,156.7c-37-0.3-73.9-4-110.2-10.9"/>
<path class="st0" d="M164.6,143.6c-26.4-5.5-52.3-12.7-77.7-21.6"/>
<path class="st0" d="M491.1,112.1c-0.7,0.2-1.3,0.5-2,0.7"/>
<path class="st0" d="M457.8,122.7c-3.4,1-6.8,1.9-10.2,2.8"/>
<path class="st0" d="M442.5,126.9c-1.7,0.4-3.4,0.9-5.1,1.3"/>
<path class="st0" d="M400.2,136.2c-1.7,0.3-3.5,0.6-5.2,0.9"/>
<path class="st0" d="M379.3,139.7c-3.5,0.5-7,1-10.5,1.5"/>
<path class="st0" d="M216.8,141.7c-1.8-0.2-3.5-0.4-5.3-0.7"/>
<path class="st0" d="M190.7,137.9c-1.7-0.3-3.5-0.6-5.2-0.9"/>
<path class="st0" d="M137.9,126.6c-1.7-0.4-3.4-0.9-5.1-1.4"/>
<path class="st0" d="M127.7,123.8c-2-0.6-4.1-1.1-6.1-1.7"/>
<path class="st0" d="M89.3,111.8c-1.3-0.5-2.7-0.9-4-1.4"/>
<path class="st0" d="M463,110.3c-15.3,4.6-30.7,8.6-46.3,12"/>
<path class="st0" d="M405.4,124.5c-38.1,7.5-76.9,11.2-115.7,11.1"/>
<path class="st0" d="M284.5,135.7c-38.5-0.4-76.9-4.5-114.6-12.3"/>
<path class="st0" d="M158.7,120.9c-15.9-3.6-31.6-7.9-47.2-12.8"/>
<path class="st0" d="M473.5,95.9c-0.3,0.1-0.6,0.2-1,0.3"/>
<path class="st0" d="M468.7,97.5c-1.6,0.5-3.3,1-4.9,1.5"/>
<path class="st0" d="M442.2,105.2c-1.6,0.4-3.3,0.9-4.9,1.3"/>
<path class="st0" d="M400.4,114.8c-1.7,0.3-3.3,0.6-5,0.9"/>
<path class="st0" d="M390.4,116.6c-1,0.2-2,0.3-3,0.5"/>
<path class="st0" d="M347.9,122.4c-1.7,0.2-3.4,0.3-5.1,0.5"/>
<path class="st0" d="M337.7,123.3c-1.7,0.1-3.4,0.3-5.1,0.4"/>
<path class="st0" d="M279.5,125.1c-1.7,0-3.4-0.1-5.1-0.1"/>
<path class="st0" d="M269.3,124.8c-1.7-0.1-3.4-0.1-5.1-0.2"/>
<path class="st0" d="M259.1,124.3c-3.7-0.2-7.5-0.4-11.2-0.7"/>
<path class="st0" d="M242.8,123.2c-1.7-0.1-3.4-0.3-5.1-0.4"/>
<path class="st0" d="M232.6,122.3c-0.3,0-0.7-0.1-1-0.1"/>
<path class="st0" d="M190.1,116.5c-1.7-0.3-3.3-0.6-5-0.9"/>
<path class="st0" d="M180,114.6c-3.3-0.6-6.7-1.3-10-2"/>
<path class="st0" d="M148.1,107.6c-3.3-0.8-6.6-1.7-9.9-2.6"/>
<path class="st0" d="M111.8,97.2c-1.3-0.4-2.6-0.8-3.9-1.3"/>
<path class="st0" d="M437.6,95.6c-5.5,1.5-11,2.8-16.6,4.1"/>
<path class="st0" d="M411.2,101.9c-26.2,5.6-52.7,9.4-79.4,11.3"/>
<path class="st0" d="M321.8,113.9c-3.7,0.2-7.3,0.4-11,0.5"/>
<path class="st0" d="M295.7,114.7c-1.7,0-3.3,0-5,0"/>
<path class="st0" d="M284.7,114.7c-40.5-0.4-80.8-5.1-120.4-14"/>
<path class="st0" d="M153.6,98.1c-3.6-0.9-7.2-1.8-10.7-2.7"/>
<path class="st0" d="M415.8,90.2c-1,0.2-1.9,0.4-2.9,0.6"/>
<path class="st0" d="M385.8,96.1c-5.5,0.9-11,1.8-16.6,2.6"/>
<path class="st0" d="M363.4,99.5c-3.3,0.4-6.5,0.8-9.8,1.2"/>
<path class="st0" d="M305.5,104c-3.3,0.1-6.6,0.1-9.9,0.2"/>
<path class="st0" d="M253.3,103c-3.6-0.2-7.2-0.5-10.8-0.8"/>
<path class="st0" d="M232.7,101.2c-3.6-0.4-7.2-0.8-10.8-1.2"/>
<path class="st0" d="M217.1,99.4c-2-0.3-3.9-0.5-5.9-0.8"/>
<path class="st0" d="M206.3,97.9c-3.6-0.5-7.1-1.1-10.7-1.7"/>
<path class="st0" d="M138,83.1c-1.6-0.4-3.2-0.9-4.7-1.4"/>
<path class="st0" d="M433.1,75.1c-0.3,0.1-0.6,0.2-0.9,0.2"/>
<path class="st0" d="M411.5,80.4c-40,8.9-80.8,13.4-121.8,13.3"/>
<path class="st0" d="M284.9,93.7c-39-0.4-77.9-4.9-116-13.5"/>
<path class="st0" d="M389.8,74.1c-1.6,0.3-3.1,0.6-4.7,0.8"/>
<path class="st0" d="M384.1,75.1c-3.4,0.6-6.9,1.2-10.3,1.7"/>
<path class="st0" d="M358.8,78.9c-3.8,0.5-7.5,0.9-11.3,1.3"/>
<path class="st0" d="M337.1,81.2c-6.9,0.6-13.9,1.1-20.8,1.4"/>
<path class="st0" d="M305.9,83c-3.5,0.1-6.9,0.2-10.4,0.2"/>
<path class="st0" d="M279.4,83.1c-5.1-0.1-10.1-0.3-15.2-0.5"/>
<path class="st0" d="M258.5,82.3c-5-0.3-10.1-0.7-15.1-1.1"/>
<path class="st0" d="M227.3,79.5c-3.5-0.4-6.9-0.8-10.4-1.3"/>
<path class="st0" d="M196.4,75c-0.3-0.1-0.6-0.1-0.9-0.2"/>
<path class="st0" d="M190.8,73.9c-1.9-0.3-3.7-0.7-5.6-1.1"/>
<path class="st0" d="M383.2,64.6c-8.2,1.5-16.5,2.7-24.8,3.8"/>
<path class="st0" d="M345.5,69.9c-6.2,0.6-12.3,1.2-18.5,1.6"/>
<path class="st0" d="M321.4,71.8c-1.5,0.1-3.1,0.2-4.6,0.2"/>
<path class="st0" d="M259.1,71.8c-8.1-0.5-16.1-1.1-24.1-2"/>
<path class="st0" d="M212,66.9c-4.9-0.7-9.8-1.5-14.7-2.4"/>
<g>
	<polyline class="st1" points="0.7,16.2 0.7,0 16.8,0 	"/>
	<polyline class="st1" points="569.1,642 585.3,642 585.3,625.8 	"/>
</g>
</svg>
