<?xml version="1.0" encoding="UTF-8" standalone="no"?>
<svg
   xmlns:dc="http://purl.org/dc/elements/1.1/"
   xmlns:cc="http://creativecommons.org/ns#"
   xmlns:rdf="http://www.w3.org/1999/02/22-rdf-syntax-ns#"
   xmlns:svg="http://www.w3.org/2000/svg"
   xmlns="http://www.w3.org/2000/svg"
   xmlns:sodipodi="http://sodipodi.sourceforge.net/DTD/sodipodi-0.dtd"
   xmlns:inkscape="http://www.inkscape.org/namespaces/inkscape"
   width="210mm"
   height="297mm"
   viewBox="0 0 210 297"
   version="1.1"
   id="svg8"
   inkscape:version="1.0 (4035a4f, 2020-05-01)"
   sodipodi:docname="etiquetas.svg">
  <defs
     id="defs2" />
  <sodipodi:namedview
     inkscape:guide-bbox="true"
     showguides="true"
     id="base"
     pagecolor="#ffffff"
     bordercolor="#666666"
     borderopacity="1.0"
     inkscape:pageopacity="0.0"
     inkscape:pageshadow="2"
     inkscape:zoom="1.2418265"
     inkscape:cx="262.69643"
     inkscape:cy="326.80352"
     inkscape:document-units="mm"
     inkscape:current-layer="layer1"
     inkscape:document-rotation="0"
     showgrid="false"
     inkscape:window-width="1440"
     inkscape:window-height="855"
     inkscape:window-x="0"
     inkscape:window-y="23"
     inkscape:window-maximized="0" />
  <metadata
     id="metadata5">
    <rdf:RDF>
      <cc:Work
         rdf:about="">
        <dc:format>image/svg+xml</dc:format>
        <dc:type
           rdf:resource="http://purl.org/dc/dcmitype/StillImage" />
        <dc:title />
      </cc:Work>
    </rdf:RDF>
  </metadata>
  <g
     inkscape:label="Layer 1"
     inkscape:groupmode="layer"
     id="layer1">
    <rect
       style="fill:none;stroke:#000000;stroke-width:0.0937249;stop-color:#000000"
       id="rect10"
       width="85.506271"
       height="53.906277"
       x="17.342405"
       y="20.841749" />
    <rect
       style="fill:none;stroke:#000000;stroke-width:0.0937249;stop-color:#000000"
       id="rect10-8-6-7-6"
       width="85.506271"
       height="53.906277"
       x="17.342405"
       y="74.748024" />
    <text
       xml:space="preserve"
       style="font-style:normal;font-variant:normal;font-weight:bold;font-stretch:normal;font-size:3.52778px;line-height:1.25;font-family:Helvetica;-inkscape-font-specification:'Helvetica Bold';fill:#000000;fill-opacity:1;stroke:none;stroke-width:0.264583"
       x="27.591492"
       y="33.541763"
       id="text100"><tspan
         sodipodi:role="line"
         id="tspan98"
         x="27.591492"
         y="33.541763"
         style="font-style:normal;font-variant:normal;font-weight:bold;font-stretch:normal;font-size:3.52778px;font-family:Helvetica;-inkscape-font-specification:'Helvetica Bold';stroke-width:0.264583">Hasta las estrellas</tspan></text>
    <text
       id="text100-1"
       y="40.84457"
       x="27.710712"
       style="font-style:normal;font-variant:normal;font-weight:normal;font-stretch:normal;font-size:3.175px;line-height:1.25;font-family:Helvetica;-inkscape-font-specification:Helvetica;fill:#000000;fill-opacity:1;stroke:none;stroke-width:0.264583"
       xml:space="preserve"><tspan
         style="font-style:normal;font-variant:normal;font-weight:normal;font-stretch:normal;font-size:3.175px;font-family:Helvetica;-inkscape-font-specification:Helvetica;stroke-width:0.264583"
         y="40.84457"
         x="27.710712"
         sodipodi:role="line"
         id="tspan156">Cielo, el mundo está ahí para compartirlo</tspan><tspan
         style="font-style:normal;font-variant:normal;font-weight:normal;font-stretch:normal;font-size:3.175px;font-family:Helvetica;-inkscape-font-specification:Helvetica;stroke-width:0.264583"
         y="44.81332"
         x="27.710712"
         sodipodi:role="line"
         id="tspan158">con quién quieras... si es tu deseo.</tspan></text>
    <text
       xml:space="preserve"
       style="font-style:normal;font-variant:normal;font-weight:300;font-stretch:normal;font-size:3.175px;line-height:1.25;font-family:Helvetica;-inkscape-font-specification:'Helvetica Light';fill:#000000;fill-opacity:1;stroke:none;stroke-width:0.264583"
       x="27.74049"
       y="56.04958"
       id="text100-1-7"><tspan
         sodipodi:role="line"
         x="27.74049"
         y="56.04958"
         style="font-style:normal;font-variant:normal;font-weight:300;font-stretch:normal;font-size:3.175px;font-family:Helvetica;-inkscape-font-specification:'Helvetica Light';stroke-width:0.264583"
         id="tspan148">Obra Multimedia, 2019</tspan><tspan
         sodipodi:role="line"
         x="27.74049"
         y="60.01833"
         style="font-style:normal;font-variant:normal;font-weight:300;font-stretch:normal;font-size:3.175px;font-family:Helvetica;-inkscape-font-specification:'Helvetica Light';stroke-width:0.264583"
         id="tspan152">Plotter de dibujo y corte con pantalla LCD</tspan><tspan
         id="tspan1019"
         sodipodi:role="line"
         x="27.74049"
         y="63.98708"
         style="font-style:normal;font-variant:normal;font-weight:300;font-stretch:normal;font-size:3.175px;font-family:Helvetica;-inkscape-font-specification:'Helvetica Light';stroke-width:0.264583">72 x 102 cm</tspan></text>
    <g
       id="g336"
       transform="matrix(0.42519686,0,0,0.42519686,-105.18506,-11.886862)">
      <rect
         style="stroke-width:0.423333"
         x="304.04889"
         y="269.53583"
         width="169.33333"
         height="42.333332"
         fill="#ffffff"
         id="rect160" />
      <rect
         style="stroke-width:0.423333"
         x="346.3822"
         y="288.37418"
         width="2.8405666"
         height="4.6566668"
         rx="1.4224"
         ry="1.4224"
         fill="#000000"
         id="rect162" />
      <rect
         style="stroke-width:0.423333"
         x="351.64001"
         y="288.37418"
         width="2.8405666"
         height="4.6566668"
         rx="1.4224"
         ry="1.4224"
         fill="#000000"
         id="rect164" />
      <rect
         style="stroke-width:0.423333"
         x="356.89783"
         y="286.89252"
         width="2.8405666"
         height="7.6199999"
         rx="1.4224"
         ry="1.4224"
         fill="#000000"
         id="rect166" />
      <rect
         style="stroke-width:0.423333"
         x="362.15985"
         y="283.92917"
         width="2.8405666"
         height="13.546667"
         rx="1.4224"
         ry="1.4224"
         fill="#000000"
         id="rect168" />
      <rect
         style="stroke-width:0.423333"
         x="367.41766"
         y="285.41083"
         width="2.8405666"
         height="10.583333"
         rx="1.4224"
         ry="1.4224"
         fill="#000000"
         id="rect170" />
      <rect
         style="stroke-width:0.423333"
         x="372.67545"
         y="278.0025"
         width="2.8405666"
         height="25.4"
         rx="1.4224"
         ry="1.4224"
         fill="#000000"
         id="rect172" />
      <rect
         style="stroke-width:0.423333"
         x="377.93326"
         y="278.0025"
         width="2.8405666"
         height="25.4"
         rx="1.4224"
         ry="1.4224"
         fill="#000000"
         id="rect174" />
      <rect
         style="stroke-width:0.423333"
         x="383.19528"
         y="278.0025"
         width="2.8405666"
         height="25.4"
         rx="1.4224"
         ry="1.4224"
         fill="#000000"
         id="rect176" />
      <rect
         style="stroke-width:0.423333"
         x="388.45309"
         y="286.89252"
         width="2.8405666"
         height="7.6199999"
         rx="1.4224"
         ry="1.4224"
         fill="#000000"
         id="rect178" />
      <rect
         style="stroke-width:0.423333"
         x="393.71088"
         y="279.48416"
         width="2.8405666"
         height="22.436668"
         rx="1.4224"
         ry="1.4224"
         fill="#000000"
         id="rect180" />
      <rect
         style="stroke-width:0.423333"
         x="398.96869"
         y="278.0025"
         width="2.8405666"
         height="25.4"
         rx="1.4224"
         ry="1.4224"
         fill="#000000"
         id="rect182" />
      <rect
         style="stroke-width:0.423333"
         x="404.22647"
         y="278.0025"
         width="2.8405666"
         height="25.4"
         rx="1.4224"
         ry="1.4224"
         fill="#000000"
         id="rect184" />
      <rect
         style="stroke-width:0.423333"
         x="409.48853"
         y="282.44751"
         width="2.8405666"
         height="16.51"
         rx="1.4224"
         ry="1.4224"
         fill="#000000"
         id="rect186" />
      <rect
         style="stroke-width:0.423333"
         x="414.74631"
         y="286.89252"
         width="2.8405666"
         height="7.6199999"
         rx="1.4224"
         ry="1.4224"
         fill="#000000"
         id="rect188" />
      <rect
         style="stroke-width:0.423333"
         x="420.00412"
         y="283.92917"
         width="2.8405666"
         height="13.546667"
         rx="1.4224"
         ry="1.4224"
         fill="#000000"
         id="rect190" />
      <rect
         style="stroke-width:0.423333"
         x="425.2619"
         y="280.96585"
         width="2.8405666"
         height="19.473333"
         rx="1.4224"
         ry="1.4224"
         fill="#000000"
         id="rect192" />
      <rect
         style="stroke-width:0.423333"
         x="430.52396"
         y="285.41083"
         width="2.8405666"
         height="10.583333"
         rx="1.4224"
         ry="1.4224"
         fill="#000000"
         id="rect194" />
      <rect
         style="stroke-width:0.423333"
         x="435.78174"
         y="286.89252"
         width="2.8405666"
         height="7.6199999"
         rx="1.4224"
         ry="1.4224"
         fill="#000000"
         id="rect196" />
      <rect
         style="stroke-width:0.423333"
         x="441.03955"
         y="288.37418"
         width="2.8405666"
         height="4.6566668"
         rx="1.4224"
         ry="1.4224"
         fill="#000000"
         id="rect198" />
      <rect
         style="stroke-width:0.423333"
         x="446.29733"
         y="288.37418"
         width="2.8405666"
         height="4.6566668"
         rx="1.4224"
         ry="1.4224"
         fill="#000000"
         id="rect200" />
      <rect
         style="stroke-width:0.423333"
         x="451.55515"
         y="283.92917"
         width="2.8405666"
         height="13.546667"
         rx="1.4224"
         ry="1.4224"
         fill="#000000"
         id="rect202" />
      <rect
         style="stroke-width:0.423333"
         x="456.81717"
         y="279.48416"
         width="2.8405666"
         height="22.436668"
         rx="1.4224"
         ry="1.4224"
         fill="#000000"
         id="rect204" />
      <rect
         style="stroke-width:0.423333"
         x="462.07498"
         y="288.37418"
         width="2.8405666"
         height="4.6566668"
         rx="1.4224"
         ry="1.4224"
         fill="#000000"
         id="rect206" />
      <g
         transform="matrix(0.42333333,0,0,0.42333333,312.51555,278.00251)"
         id="g210">
        <path
           fill="#000000"
           d="M 30,0 A 30,30 0 1 1 0,30 30,30 0 0 1 30,0 M 43.73,43.2 A 1.85,1.85 0 0 0 43.26,40.77 5,5 0 0 0 42.78,40.46 30.64,30.64 0 0 0 36.86,37.74 37.07,37.07 0 0 0 25.3,35.9 c -1.33,0.07 -2.67,0.12 -4,0.23 a 52.44,52.44 0 0 0 -7.08,1.12 3.45,3.45 0 0 0 -0.54,0.16 1.83,1.83 0 0 0 -1.11,2.08 1.79,1.79 0 0 0 1.8,1.51 4.29,4.29 0 0 0 0.88,-0.12 48.93,48.93 0 0 1 8.66,-1.15 35.33,35.33 0 0 1 6.75,0.37 28.29,28.29 0 0 1 10.25,3.61 4.77,4.77 0 0 0 0.5,0.27 1.85,1.85 0 0 0 2.33,-0.74 M 47.41,35 A 2.34,2.34 0 0 0 46.63,31.81 L 46.28,31.6 A 35.72,35.72 0 0 0 38.9,28.3 45.39,45.39 0 0 0 23.2,26.17 41.19,41.19 0 0 0 15.81,27.09 c -1,0.22 -2,0.48 -2.94,0.77 a 2.26,2.26 0 0 0 -1.58,2.14 2.32,2.32 0 0 0 1.44,2.2 2.47,2.47 0 0 0 1.67,0 37,37 0 0 1 10.38,-1.46 43,43 0 0 1 7.91,0.74 35.46,35.46 0 0 1 9.58,3.18 c 0.66,0.34 1.3,0.72 1.95,1.08 A 2.33,2.33 0 0 0 47.41,35 m 0.35,-8.49 A 2.79,2.79 0 0 0 52,24.11 c 0,-0.2 0,-0.4 -0.08,-0.6 a 2.78,2.78 0 0 0 -1.4,-1.85 35.91,35.91 0 0 0 -6.41,-2.91 56.19,56.19 0 0 0 -16.86,-2.89 58.46,58.46 0 0 0 -7,0.21 48.31,48.31 0 0 0 -6.52,1 c -0.87,0.2 -1.73,0.42 -2.58,0.7 a 2.73,2.73 0 0 0 -1.85,2.68 2.79,2.79 0 0 0 2,2.61 2.9,2.9 0 0 0 1.6,0 c 0.87,-0.23 1.75,-0.47 2.63,-0.66 a 45.52,45.52 0 0 1 7.26,-0.91 57.42,57.42 0 0 1 6.4,0 53.7,53.7 0 0 1 6.11,0.72 42.63,42.63 0 0 1 8.49,2.35 33.25,33.25 0 0 1 4,2"
           id="path208" />
      </g>
    </g>
    <rect
       y="20.841749"
       x="107.30073"
       height="53.906277"
       width="85.506271"
       id="rect10-6"
       style="fill:none;stroke:#000000;stroke-width:0.0937249;stop-color:#000000" />
    <text
       id="text100-2"
       y="33.541756"
       x="117.54984"
       style="font-style:normal;font-variant:normal;font-weight:bold;font-stretch:normal;font-size:3.52777px;line-height:1.25;font-family:Helvetica;-inkscape-font-specification:'Helvetica Bold';fill:#000000;fill-opacity:1;stroke:none;stroke-width:0.264583"
       xml:space="preserve"><tspan
         style="font-style:normal;font-variant:normal;font-weight:bold;font-stretch:normal;font-size:3.52777px;font-family:Helvetica;-inkscape-font-specification:'Helvetica Bold';stroke-width:0.264583"
         y="33.541756"
         x="117.54984"
         id="tspan98-9"
         sodipodi:role="line">La noche en que naciste</tspan></text>
    <text
       xml:space="preserve"
       style="font-style:normal;font-variant:normal;font-weight:normal;font-stretch:normal;font-size:3.175px;line-height:1.25;font-family:Helvetica;-inkscape-font-specification:Helvetica;fill:#000000;fill-opacity:1;stroke:none;stroke-width:0.264583"
       x="117.66904"
       y="40.84457"
       id="text100-1-85"><tspan
         id="tspan158-5"
         sodipodi:role="line"
         x="117.66904"
         y="40.84457"
         style="font-style:normal;font-variant:normal;font-weight:normal;font-stretch:normal;font-size:3.175px;font-family:Helvetica;-inkscape-font-specification:Helvetica;stroke-width:0.264583">Para Andrea</tspan></text>
    <text
       id="text100-1-7-5"
       y="56.049572"
       x="117.69884"
       style="font-style:normal;font-variant:normal;font-weight:300;font-stretch:normal;font-size:3.175px;line-height:1.25;font-family:Helvetica;-inkscape-font-specification:'Helvetica Light';fill:#000000;fill-opacity:1;stroke:none;stroke-width:0.264583"
       xml:space="preserve"><tspan
         id="tspan148-9"
         style="font-style:normal;font-variant:normal;font-weight:300;font-stretch:normal;font-size:3.175px;font-family:Helvetica;-inkscape-font-specification:'Helvetica Light';stroke-width:0.264583"
         y="56.049572"
         x="117.69884"
         sodipodi:role="line">Obra Multimedia, 2019</tspan><tspan
         id="tspan152-1"
         style="font-style:normal;font-variant:normal;font-weight:300;font-stretch:normal;font-size:3.175px;font-family:Helvetica;-inkscape-font-specification:'Helvetica Light';stroke-width:0.264583"
         y="60.018322"
         x="117.69884"
         sodipodi:role="line">Plotter de dibujo y visualización de datos</tspan><tspan
         style="font-style:normal;font-variant:normal;font-weight:300;font-stretch:normal;font-size:3.175px;font-family:Helvetica;-inkscape-font-specification:'Helvetica Light';stroke-width:0.264583"
         y="63.987072"
         x="117.69884"
         sodipodi:role="line"
         id="tspan1019-14">29 x 34 cm</tspan></text>
    <rect
       y="74.748055"
       x="107.30073"
       height="53.906277"
       width="85.506271"
       id="rect10-4"
       style="fill:none;stroke:#000000;stroke-width:0.0937249;stop-color:#000000" />
    <text
       id="text100-16"
       y="87.448067"
       x="117.54984"
       style="font-style:normal;font-variant:normal;font-weight:bold;font-stretch:normal;font-size:3.52777px;line-height:1.25;font-family:Helvetica;-inkscape-font-specification:'Helvetica Bold';fill:#000000;fill-opacity:1;stroke:none;stroke-width:0.264583"
       xml:space="preserve"><tspan
         style="font-style:normal;font-variant:normal;font-weight:bold;font-stretch:normal;font-size:3.52777px;font-family:Helvetica;-inkscape-font-specification:'Helvetica Bold';stroke-width:0.264583"
         y="87.448067"
         x="117.54984"
         id="tspan98-60"
         sodipodi:role="line">El día en que naciste</tspan></text>
    <text
       xml:space="preserve"
       style="font-style:normal;font-variant:normal;font-weight:normal;font-stretch:normal;font-size:3.175px;line-height:1.25;font-family:Helvetica;-inkscape-font-specification:Helvetica;fill:#000000;fill-opacity:1;stroke:none;stroke-width:0.264583"
       x="117.66904"
       y="94.750877"
       id="text100-1-2"><tspan
         id="tspan158-58"
         sodipodi:role="line"
         x="117.66904"
         y="94.750877"
         style="font-style:normal;font-variant:normal;font-weight:normal;font-stretch:normal;font-size:3.175px;font-family:Helvetica;-inkscape-font-specification:Helvetica;stroke-width:0.264583">Para Agustina</tspan></text>
    <text
       id="text100-1-7-1"
       y="109.95589"
       x="117.69884"
       style="font-style:normal;font-variant:normal;font-weight:300;font-stretch:normal;font-size:3.175px;line-height:1.25;font-family:Helvetica;-inkscape-font-specification:'Helvetica Light';fill:#000000;fill-opacity:1;stroke:none;stroke-width:0.264583"
       xml:space="preserve"><tspan
         id="tspan148-8"
         style="font-style:normal;font-variant:normal;font-weight:300;font-stretch:normal;font-size:3.175px;font-family:Helvetica;-inkscape-font-specification:'Helvetica Light';stroke-width:0.264583"
         y="109.95589"
         x="117.69884"
         sodipodi:role="line">Obra Multimedia, 2019</tspan><tspan
         id="tspan152-11"
         style="font-style:normal;font-variant:normal;font-weight:300;font-stretch:normal;font-size:3.175px;font-family:Helvetica;-inkscape-font-specification:'Helvetica Light';stroke-width:0.264583"
         y="113.92464"
         x="117.69884"
         sodipodi:role="line">Plotter de dibujo y procesamiento de imagen</tspan><tspan
         style="font-style:normal;font-variant:normal;font-weight:300;font-stretch:normal;font-size:3.175px;font-family:Helvetica;-inkscape-font-specification:'Helvetica Light';stroke-width:0.264583"
         y="117.89339"
         x="117.69884"
         sodipodi:role="line"
         id="tspan1019-3">29 x 34 cm</tspan></text>
    <rect
       style="fill:none;stroke:#000000;stroke-width:0.0937249;stop-color:#000000"
       id="rect10-6-1"
       width="85.506271"
       height="53.906277"
       x="17.342405"
       y="133.94598" />
    <text
       xml:space="preserve"
       style="font-style:normal;font-variant:normal;font-weight:bold;font-stretch:normal;font-size:3.52777px;line-height:1.25;font-family:Helvetica;-inkscape-font-specification:'Helvetica Bold';fill:#000000;fill-opacity:1;stroke:none;stroke-width:0.264583"
       x="27.591494"
       y="146.646"
       id="text100-2-0"><tspan
         sodipodi:role="line"
         id="tspan98-9-5"
         x="27.591494"
         y="146.646"
         style="font-style:normal;font-variant:normal;font-weight:bold;font-stretch:normal;font-size:3.52777px;font-family:Helvetica;-inkscape-font-specification:'Helvetica Bold';stroke-width:0.264583">Just breath</tspan></text>
    <text
       id="text100-1-85-4"
       y="153.94881"
       x="27.710711"
       style="font-style:normal;font-variant:normal;font-weight:normal;font-stretch:normal;font-size:3.175px;line-height:1.25;font-family:Helvetica;-inkscape-font-specification:Helvetica;fill:#000000;fill-opacity:1;stroke:none;stroke-width:0.264583"
       xml:space="preserve"><tspan
         style="font-style:normal;font-variant:normal;font-weight:normal;font-stretch:normal;font-size:3.175px;font-family:Helvetica;-inkscape-font-specification:Helvetica;stroke-width:0.264583"
         y="153.94881"
         x="27.710711"
         sodipodi:role="line"
         id="tspan158-5-7">Para Delfina o Felipe</tspan></text>
    <text
       xml:space="preserve"
       style="font-style:normal;font-variant:normal;font-weight:300;font-stretch:normal;font-size:3.175px;line-height:1.25;font-family:Helvetica;-inkscape-font-specification:'Helvetica Light';fill:#000000;fill-opacity:1;stroke:none;stroke-width:0.264583"
       x="27.74048"
       y="169.15381"
       id="text100-1-7-5-9"><tspan
         sodipodi:role="line"
         x="27.74048"
         y="169.15381"
         style="font-style:normal;font-variant:normal;font-weight:300;font-stretch:normal;font-size:3.175px;font-family:Helvetica;-inkscape-font-specification:'Helvetica Light';stroke-width:0.264583"
         id="tspan148-9-5">Obra Tridimensional, 2020</tspan><tspan
         sodipodi:role="line"
         x="27.74048"
         y="173.12256"
         style="font-style:normal;font-variant:normal;font-weight:300;font-stretch:normal;font-size:3.175px;font-family:Helvetica;-inkscape-font-specification:'Helvetica Light';stroke-width:0.264583"
         id="tspan152-1-9">Objeto-ensamble</tspan><tspan
         id="tspan1019-14-1"
         sodipodi:role="line"
         x="27.74048"
         y="177.09131"
         style="font-style:normal;font-variant:normal;font-weight:300;font-stretch:normal;font-size:3.175px;font-family:Helvetica;-inkscape-font-specification:'Helvetica Light';stroke-width:0.264583">50 x 150 x 50 cm ~</tspan></text>
    <text
       xml:space="preserve"
       style="font-style:oblique;font-variant:normal;font-weight:normal;font-stretch:normal;font-size:3.175px;line-height:1.25;font-family:Helvetica;-inkscape-font-specification:'Helvetica Oblique';fill:#000000;fill-opacity:1;stroke:none;stroke-width:0.264583"
       x="27.71072"
       y="87.228607"
       id="text100-1-85-4-1"><tspan
         id="tspan158-5-7-2"
         sodipodi:role="line"
         x="27.71072"
         y="87.228607"
         style="font-style:oblique;font-variant:normal;font-weight:normal;font-stretch:normal;font-size:3.175px;font-family:Helvetica;-inkscape-font-specification:'Helvetica Oblique';stroke-width:0.264583">Estando enfrente de la obra, </tspan><tspan
         id="tspan1318"
         sodipodi:role="line"
         x="27.71072"
         y="91.197357"
         style="font-style:oblique;font-variant:normal;font-weight:normal;font-stretch:normal;font-size:3.175px;font-family:Helvetica;-inkscape-font-specification:'Helvetica Oblique';stroke-width:0.264583">si pudiera poner una canción, </tspan><tspan
         id="tspan1320"
         sodipodi:role="line"
         x="27.71072"
         y="95.166107"
         style="font-style:oblique;font-variant:normal;font-weight:normal;font-stretch:normal;font-size:3.175px;font-family:Helvetica;-inkscape-font-specification:'Helvetica Oblique';stroke-width:0.264583">escucharía:</tspan><tspan
         id="tspan1316"
         sodipodi:role="line"
         x="27.71072"
         y="99.134857"
         style="font-style:oblique;font-variant:normal;font-weight:normal;font-stretch:normal;font-size:3.175px;font-family:Helvetica;-inkscape-font-specification:'Helvetica Oblique';stroke-width:0.264583" /></text>
    <rect
       style="fill:none;stroke:#000000;stroke-width:0.0937249;stop-color:#000000"
       id="rect10-5-4"
       width="85.506271"
       height="53.906277"
       x="107.30073"
       y="128.65434" />
    <text
       xml:space="preserve"
       style="font-style:normal;font-variant:normal;font-weight:bold;font-stretch:normal;font-size:3.52777px;line-height:1.25;font-family:Helvetica;-inkscape-font-specification:'Helvetica Bold';fill:#000000;fill-opacity:1;stroke:none;stroke-width:0.264583"
       x="117.54984"
       y="141.35437"
       id="text100-4-9"><tspan
         sodipodi:role="line"
         id="tspan98-23-1"
         x="117.54984"
         y="141.35437"
         style="font-style:normal;font-variant:normal;font-weight:bold;font-stretch:normal;font-size:3.52777px;font-family:Helvetica;-inkscape-font-specification:'Helvetica Bold';stroke-width:0.264583">Parte de tu huella</tspan></text>
    <text
       id="text100-1-1-9"
       y="148.65717"
       x="117.66904"
       style="font-style:normal;font-variant:normal;font-weight:normal;font-stretch:normal;font-size:3.175px;line-height:1.25;font-family:Helvetica;-inkscape-font-specification:Helvetica;fill:#000000;fill-opacity:1;stroke:none;stroke-width:0.264583"
       xml:space="preserve"><tspan
         style="font-style:normal;font-variant:normal;font-weight:normal;font-stretch:normal;font-size:3.175px;font-family:Helvetica;-inkscape-font-specification:Helvetica;stroke-width:0.264583"
         y="148.65717"
         x="117.66904"
         sodipodi:role="line"
         id="tspan158-2-0">Para Joaquín</tspan></text>
    <text
       xml:space="preserve"
       style="font-style:normal;font-variant:normal;font-weight:300;font-stretch:normal;font-size:3.175px;line-height:1.25;font-family:Helvetica;-inkscape-font-specification:'Helvetica Light';fill:#000000;fill-opacity:1;stroke:none;stroke-width:0.264583"
       x="117.69884"
       y="163.86217"
       id="text100-1-7-56-1"><tspan
         sodipodi:role="line"
         x="117.69884"
         y="163.86217"
         style="font-style:normal;font-variant:normal;font-weight:300;font-stretch:normal;font-size:3.175px;font-family:Helvetica;-inkscape-font-specification:'Helvetica Light';stroke-width:0.264583"
         id="tspan148-4-6"
         dx="0 0 0 0 0 0 0 0 0 0 0 0 0 0 0 0">Tintado en Papel, 2019</tspan><tspan
         sodipodi:role="line"
         x="117.69884"
         y="167.83092"
         style="font-style:normal;font-variant:normal;font-weight:300;font-stretch:normal;font-size:3.175px;font-family:Helvetica;-inkscape-font-specification:'Helvetica Light';stroke-width:0.264583"
         id="tspan152-8-9">Sello con la palma de la mano</tspan><tspan
         id="tspan1019-0-9"
         sodipodi:role="line"
         x="117.69884"
         y="171.79967"
         style="font-style:normal;font-variant:normal;font-weight:300;font-stretch:normal;font-size:3.175px;font-family:Helvetica;-inkscape-font-specification:'Helvetica Light';stroke-width:0.264583">9 x 9 cm</tspan></text>
    <g
       transform="matrix(0.17741935,0,0,0.17741935,80.40488,84.89675)"
       id="g1387">
      <path
         d="M 32,9 H 10 C 9.447,9 9,9.448 9,10 v 22 c 0,0.552 0.447,1 1,1 h 22 c 0.553,0 1,-0.448 1,-1 V 10 C 33,9.448 32.553,9 32,9 Z M 31,31 H 11 V 11 h 20 z"
         id="path1363" />
      <path
         d="m 13,13 h 2 v 2 h -2 z"
         id="path1365" />
      <path
         d="m 19,18 v -5 h -2 v 4 h -4 v 2 h 5 c 0.553,0 1,-0.448 1,-1 z"
         id="path1367" />
      <path
         d="m 14,29 h 5 v -2 h -4 v -6 h -2 v 7 c 0,0.552 0.447,1 1,1 z"
         id="path1369" />
      <path
         d="m 22,23 h -5 v 2 h 4 v 4 h 2 v -5 c 0,-0.552 -0.447,-1 -1,-1 z"
         id="path1371" />
      <path
         d="m 27,27 h 2 v 2 h -2 z"
         id="path1373" />
      <path
         d="m 25,25 h 2 v 2 h -2 z"
         id="path1375" />
      <path
         d="m 19,19 h 2 v 2 h -2 z"
         id="path1377" />
      <path
         d="m 21,17 h 2 v 2 h -2 z"
         id="path1379" />
      <path
         d="m 25,19 h 2 v -5 c 0,-0.552 -0.447,-1 -1,-1 h -5 v 2 h 4 z"
         id="path1381" />
      <path
         d="m 25,21 h 2 v 2 h -2 z"
         id="path1383" />
      <path
         d="m 61.257,52.843 -18.55,-18.55 c -0.375,-0.375 -1.039,-0.375 -1.414,0 L 40,35.586 37.155,32.741 C 39.562,29.44 41,25.389 41,21 41,9.972 32.028,1 21,1 9.972,1 1,9.972 1,21 c 0,11.028 8.972,20 20,20 4.389,0 8.44,-1.438 11.741,-3.845 L 35.586,40 34.293,41.293 c -0.391,0.391 -0.391,1.023 0,1.414 l 18.55,18.551 C 53.967,62.381 55.461,63 57.05,63 60.331,63 63,60.331 63,57.05 63,55.461 62.381,53.967 61.257,52.843 Z M 3,21 C 3,11.075 11.075,3 21,3 30.925,3 39,11.075 39,21 39,30.925 30.925,39 21,39 11.075,39 3,30.925 3,21 Z m 31.305,14.891 c 0.558,-0.499 1.087,-1.028 1.586,-1.586 L 38.586,37 37,38.586 Z M 57.05,61 c -1.055,0 -2.047,-0.411 -2.793,-1.157 L 36.414,42 42,36.414 59.843,54.258 C 60.589,55.003 61,55.995 61,57.05 61,59.228 59.228,61 57.05,61 Z"
         id="path1385" />
    </g>
  </g>
</svg>
