<?xml version="1.0" encoding="utf-8"?>
<!-- Generator: Adobe Illustrator 22.0.0, SVG Export Plug-In . SVG Version: 6.00 Build 0)  -->
<svg version="1.0" id="Layer_1" xmlns="http://www.w3.org/2000/svg" xmlns:xlink="http://www.w3.org/1999/xlink" x="0px" y="0px"
	 viewBox="0 0 793.7 708.7" style="enable-background:new 0 0 793.7 708.7;" xml:space="preserve">
<style type="text/css">
	.st0{fill:#181818;}
	.st1{fill:none;stroke:#EB3593;stroke-miterlimit:10;}
</style>
<g>
	<path class="st0" d="M300.2,51.3l137.9,513.5l-134.6,78.7L300.2,51.3 M295,12.6l0.2,38.7l3.3,592.2l0,8.7l7.5-4.4l134.6-78.7
		l3.3-1.9l-1-3.7L305.1,50L295,12.6L295,12.6z"/>
</g>
<g>
	<path class="st0" d="M292.3,53.6l3.3,589.9l-126.5-72.1L292.3,53.6 M297.1,12l-9.6,40.5L164.2,570.3l-0.9,3.6l3.3,1.9l126.5,72.1
		l7.5,4.3l0-8.7l-3.3-589.9L297.1,12L297.1,12z"/>
</g>
<g>
	<path class="st0" d="M285.8,46.6L161.9,567.3L31.4,492.9L285.8,46.6 M298.8,13.8l-17.3,30.3L27.1,490.4l-2.5,4.3l4.3,2.5
		l130.5,74.4l5.8,3.3l1.5-6.5L290.7,47.8L298.8,13.8L298.8,13.8z"/>
</g>
<g>
	<path class="st0" d="M327.6,48l367.8,384.8l-72.8,126.1L327.6,48 M302.5,14.5l20.8,36l295,510.9l4.3,7.5l4.3-7.5l72.8-126.1
		l1.9-3.2l-2.6-2.7L331.2,44.5L302.5,14.5L302.5,14.5z"/>
</g>
<g>
	<path class="st0" d="M319.6,50l296.1,512.9l-156,0L319.6,50 M304.6,13.9l10.2,37.3l140.2,512.9l1,3.7l3.8,0l156,0l8.7,0l-4.3-7.5
		L323.9,47.5L304.6,13.9L304.6,13.9z"/>
</g>
<g>
	<path class="st0" d="M329.7,38.7l444.9,256.9l-75.1,130.1L329.7,38.7 M301.9,16.9l24.1,25.2l369.9,387l4.6,4.8l3.3-5.8l75.1-130.1
		l2.5-4.3l-4.3-2.5L332.2,34.4L301.9,16.9L301.9,16.9z"/>
</g>
<g>
	<polyline class="st1" points="8.1,31.3 8.1,15.1 24.3,15.1 	"/>
	<polyline class="st1" points="772.3,649.1 788.5,649.1 788.5,632.9 	"/>
</g>
</svg>
