<?xml version="1.0" encoding="utf-8"?>
<!-- Generator: Adobe Illustrator 22.0.0, SVG Export Plug-In . SVG Version: 6.00 Build 0)  -->
<svg version="1.0" id="Layer_1" xmlns="http://www.w3.org/2000/svg" xmlns:xlink="http://www.w3.org/1999/xlink" x="0px" y="0px"
	 viewBox="0 0 793.7 708.7" style="enable-background:new 0 0 793.7 708.7;" xml:space="preserve">
<style type="text/css">
	.st0{fill:#19B3E8;}
	.st1{fill:none;stroke:#EB3593;stroke-miterlimit:10;}
</style>
<g>
	<circle class="st0" cx="116.4" cy="516.6" r="1"/>
	<circle class="st0" cx="162.4" cy="523.1" r="1.2"/>
	<circle class="st0" cx="279.8" cy="276.8" r="0.7"/>
	<circle class="st0" cx="332.1" cy="325.4" r="1"/>
</g>
<g>
	<circle class="st0" cx="321.7" cy="53.7" r="1"/>
	<circle class="st0" cx="336" cy="64.4" r="1.2"/>
	<path class="st0" d="M334.1,111.8c0.6,0,1.1-0.5,1.1-1.1c0-0.6-0.5-1.1-1.1-1.1s-1.1,0.5-1.1,1.1
		C333,111.3,333.5,111.8,334.1,111.8z"/>
	<circle class="st0" cx="375.1" cy="162.1" r="1.3"/>
	<circle class="st0" cx="387.2" cy="127.8" r="1"/>
	<circle class="st0" cx="388.8" cy="152.5" r="1.4"/>
	<circle class="st0" cx="413.8" cy="115.6" r="0.9"/>
	<circle class="st0" cx="427" cy="100.6" r="1.2"/>
	<circle class="st0" cx="365.1" cy="268.9" r="1.2"/>
	<circle class="st0" cx="398.6" cy="259.1" r="1"/>
	<circle class="st0" cx="425.3" cy="241.2" r="1"/>
	<circle class="st0" cx="551.6" cy="252.8" r="1.1"/>
	<circle class="st0" cx="550.2" cy="264.4" r="1.1"/>
	<circle class="st0" cx="521.4" cy="354.3" r="1"/>
	<circle class="st0" cx="424.4" cy="377.3" r="0.9"/>
	<circle class="st0" cx="565.1" cy="294.1" r="1.1"/>
	<circle class="st0" cx="586.2" cy="295.1" r="0.9"/>
	<circle class="st0" cx="610.3" cy="402.2" r="0.9"/>
	<circle class="st0" cx="595.4" cy="410.7" r="1"/>
	<circle class="st0" cx="594.5" cy="389.3" r="1.2"/>
	<circle class="st0" cx="636.5" cy="309.6" r="1.2"/>
	<circle class="st0" cx="629.7" cy="290.8" r="1.4"/>
	<circle class="st0" cx="676.6" cy="280" r="1.3"/>
	<circle class="st0" cx="699.7" cy="300.4" r="1.1"/>
	<circle class="st0" cx="576.4" cy="173.7" r="0.9"/>
	<circle class="st0" cx="590.7" cy="178.6" r="1.1"/>
	<circle class="st0" cx="581.1" cy="230.2" r="1.7"/>
	<circle class="st0" cx="596.8" cy="229.7" r="0.7"/>
	<circle class="st0" cx="597.8" cy="231.2" r="0.8"/>
	<circle class="st0" cx="650.6" cy="216" r="0.8"/>
	<circle class="st0" cx="526" cy="175" r="1.1"/>
</g>
<g>
	<polyline class="st1" points="8.1,31.3 8.1,15.1 24.3,15.1 	"/>
	<polyline class="st1" points="772.3,649.1 788.5,649.1 788.5,632.9 	"/>
</g>
</svg>
