<?xml version="1.0" encoding="utf-8"?>
<!-- Generator: Adobe Illustrator 22.0.0, SVG Export Plug-In . SVG Version: 6.00 Build 0)  -->
<svg version="1.0" id="Layer_1" xmlns="http://www.w3.org/2000/svg" xmlns:xlink="http://www.w3.org/1999/xlink" x="0px" y="0px"
	 viewBox="0 0 793.7 708.7" style="enable-background:new 0 0 793.7 708.7;" xml:space="preserve">
<style type="text/css">
	.st0{fill:#FFFFFF;}
	.st1{fill:none;stroke:#EB3593;stroke-miterlimit:10;}
</style>
<g>
	<g>
		<circle class="st0" cx="316.5" cy="630.8" r="1.4"/>
	</g>
</g>
<g>
	<g>
		<circle class="st0" cx="598.1" cy="552" r="1.4"/>
	</g>
</g>
<g>
	<circle class="st0" cx="63.9" cy="418.5" r="1.4"/>
	<circle class="st0" cx="75.8" cy="534.6" r="1.5"/>
	<circle class="st0" cx="184.9" cy="406.4" r="1.2"/>
	<circle class="st0" cx="234.5" cy="388.7" r="0.8"/>
	<circle class="st0" cx="199.3" cy="313.5" r="1.9"/>
	<circle class="st0" cx="279.3" cy="69.7" r="1.2"/>
	<circle class="st0" cx="332.7" cy="239.9" r="1.1"/>
	<circle class="st0" cx="289.5" cy="487.9" r="1.4"/>
	<circle class="st0" cx="319.9" cy="464" r="1.3"/>
	<circle class="st0" cx="332" cy="453.2" r="1.3"/>
	<circle class="st0" cx="319.3" cy="446.9" r="1"/>
	<circle class="st0" cx="327.5" cy="434.3" r="1"/>
	<circle class="st0" cx="408.4" cy="545.7" r="1.3"/>
	<circle class="st0" cx="407.8" cy="578.9" r="0.9"/>
	<circle class="st0" cx="324" cy="609" r="1.8"/>
	<circle class="st0" cx="302.2" cy="603.6" r="3.2"/>
	<circle class="st0" cx="273.6" cy="600.6" r="1.4"/>
	<circle class="st0" cx="189.6" cy="586.3" r="1.4"/>
</g>
<g>
	<circle class="st0" cx="231.7" cy="164.7" r="1.7"/>
	<circle class="st0" cx="258.6" cy="146.1" r="1.1"/>
	<circle class="st0" cx="294.6" cy="93.5" r="3"/>
	<circle class="st0" cx="316.7" cy="142.8" r="1.6"/>
	<circle class="st0" cx="331.7" cy="161.3" r="2.4"/>
	<circle class="st0" cx="291" cy="146.8" r="2.6"/>
	<circle class="st0" cx="339.1" cy="241.1" r="1.2"/>
	<circle class="st0" cx="364.5" cy="267.1" r="1.7"/>
	<circle class="st0" cx="235.3" cy="249.4" r="1.6"/>
	<circle class="st0" cx="174.5" cy="284.8" r="3.1"/>
	<circle class="st0" cx="216.8" cy="327.5" r="1.8"/>
	<circle class="st0" cx="234.5" cy="385.9" r="1.2"/>
	<circle class="st0" cx="235.4" cy="395.8" r="1.3"/>
	<circle class="st0" cx="314.8" cy="454.4" r="1.4"/>
	<circle class="st0" cx="193.4" cy="462.2" r="2"/>
	<circle class="st0" cx="132.6" cy="387.4" r="1.9"/>
	<circle class="st0" cx="125.6" cy="327" r="1.7"/>
	<circle class="st0" cx="180.4" cy="586.1" r="1.2"/>
</g>
<g>
	<circle class="st0" cx="493.1" cy="573.9" r="0.9"/>
	<circle class="st0" cx="503.4" cy="555.8" r="0.9"/>
	<circle class="st0" cx="508.8" cy="559.7" r="0.8"/>
	<circle class="st0" cx="493" cy="507.7" r="1"/>
	<circle class="st0" cx="451.6" cy="504.2" r="1.6"/>
	<circle class="st0" cx="346.8" cy="114.7" r="1.1"/>
	<circle class="st0" cx="357.2" cy="89.3" r="1.4"/>
	<circle class="st0" cx="455.7" cy="133.2" r="1.2"/>
	<circle class="st0" cx="435.7" cy="270.6" r="1.4"/>
	<circle class="st0" cx="436.1" cy="240.9" r="1.4"/>
	<circle class="st0" cx="464.4" cy="213.3" r="1.4"/>
	<circle class="st0" cx="497.8" cy="173" r="0.9"/>
	<circle class="st0" cx="527.7" cy="180.9" r="1.3"/>
	<circle class="st0" cx="571" cy="474.6" r="1.6"/>
	<circle class="st0" cx="658.8" cy="236.2" r="2"/>
	<circle class="st0" cx="737" cy="290.9" r="1.8"/>
	<circle class="st0" cx="751.9" cy="309.7" r="1.1"/>
</g>
<g>
	<circle class="st0" cx="345.7" cy="77.2" r="3"/>
	<circle class="st0" cx="348" cy="154.5" r="2.4"/>
	<circle class="st0" cx="375.8" cy="121.3" r="2.6"/>
	<circle class="st0" cx="373.1" cy="262.3" r="1.7"/>
	<circle class="st0" cx="475.7" cy="181.8" r="1.6"/>
	<circle class="st0" cx="436" cy="122.6" r="3.1"/>
	<circle class="st0" cx="531.1" cy="239.9" r="1.8"/>
	<circle class="st0" cx="545.2" cy="299.2" r="1.2"/>
	<circle class="st0" cx="549.5" cy="308.2" r="1.3"/>
	<circle class="st0" cx="510.6" cy="398.9" r="1.4"/>
	<circle class="st0" cx="619.3" cy="344.4" r="2"/>
	<circle class="st0" cx="634" cy="249.1" r="1.9"/>
	<circle class="st0" cx="609.6" cy="193.4" r="1.7"/>
	<circle class="st0" cx="693" cy="444.7" r="1.2"/>
	<circle class="st0" cx="771" cy="349.3" r="0.9"/>
</g>
<g>
	<polyline class="st1" points="8.1,31.3 8.1,15.1 24.3,15.1 	"/>
	<polyline class="st1" points="772.3,649.1 788.5,649.1 788.5,632.9 	"/>
</g>
</svg>
