<?xml version="1.0" encoding="utf-8"?>
<!-- Generator: Adobe Illustrator 22.0.0, SVG Export Plug-In . SVG Version: 6.00 Build 0)  -->
<svg version="1.0" id="Layer_1" xmlns="http://www.w3.org/2000/svg" xmlns:xlink="http://www.w3.org/1999/xlink" x="0px" y="0px"
	 viewBox="0 0 793.7 708.7" style="enable-background:new 0 0 793.7 708.7;" xml:space="preserve">
<style type="text/css">
	.st0{fill:#19B3E8;}
	.st1{fill:none;stroke:#EB3593;stroke-miterlimit:10;}
</style>
<g>
	<circle class="st0" cx="303.5" cy="61.2" r="1"/>
	<circle class="st0" cx="296.6" cy="77.6" r="1.2"/>
	<path class="st0" d="M322.1,117.5c-0.5,0.3-1.3,0.1-1.6-0.4c-0.3-0.5-0.1-1.3,0.4-1.6s1.3-0.1,1.6,0.4
		C322.9,116.5,322.7,117.2,322.1,117.5z"/>
	<circle class="st0" cx="312.2" cy="181.6" r="1.3"/>
	<circle class="st0" cx="284.4" cy="158.1" r="1"/>
	<circle class="st0" cx="295.5" cy="180.3" r="1.4"/>
	<circle class="st0" cx="255.3" cy="161" r="0.9"/>
	<circle class="st0" cx="236.3" cy="154.7" r="1.2"/>
	<circle class="st0" cx="340.8" cy="277.2" r="1"/>
	<circle class="st0" cx="308.7" cy="275.3" r="1"/>
	<circle class="st0" cx="205.6" cy="349" r="1.1"/>
	<circle class="st0" cx="212.7" cy="358.3" r="1.1"/>
	<circle class="st0" cx="282.9" cy="421.3" r="1"/>
	<circle class="st0" cx="378.3" cy="392.3" r="0.9"/>
	<circle class="st0" cx="214.8" cy="391.4" r="1.1"/>
	<circle class="st0" cx="197.1" cy="403" r="0.9"/>
	<circle class="st0" cx="230.4" cy="507.6" r="0.9"/>
	<circle class="st0" cx="247.5" cy="507.4" r="1"/>
	<circle class="st0" cx="237.4" cy="488.5" r="1.2"/>
	<circle class="st0" cx="161" cy="440.8" r="1.2"/>
	<circle class="st0" cx="157.4" cy="421.3" r="1.4"/>
	<circle class="st0" cx="111.4" cy="435.6" r="1.3"/>
	<circle class="st0" cx="101.8" cy="464.8" r="1.1"/>
	<circle class="st0" cx="144.3" cy="293.3" r="0.9"/>
	<circle class="st0" cx="134.4" cy="304.7" r="1.1"/>
	<circle class="st0" cx="168.7" cy="344.4" r="1.7"/>
	<circle class="st0" cx="154.9" cy="351.9" r="0.7"/>
	<circle class="st0" cx="154.8" cy="353.7" r="0.8"/>
	<circle class="st0" cx="101.5" cy="367.2" r="0.8"/>
	<circle class="st0" cx="187" cy="246.6" r="1.1"/>
</g>
<g>
	<circle class="st0" cx="423.1" cy="240.2" r="1.1"/>
	<circle class="st0" cx="530.1" cy="277.2" r="1.1"/>
	<circle class="st0" cx="533.6" cy="300.1" r="1.2"/>
	<circle class="st0" cx="511.1" cy="338.3" r="1.4"/>
	<circle class="st0" cx="509.6" cy="402.4" r="1.3"/>
	<circle class="st0" cx="535.9" cy="413.1" r="1.1"/>
	<circle class="st0" cx="561.9" cy="455.9" r="1.4"/>
	<circle class="st0" cx="661.8" cy="334.7" r="1.1"/>
	<path class="st0" d="M737.8,340.3c-0.7-0.1-1.3,0.3-1.5,1c-0.1,0.7,0.3,1.3,1,1.5c0.7,0.1,1.3-0.3,1.5-1
		C738.9,341.1,738.4,340.4,737.8,340.3z"/>
	<circle class="st0" cx="737.3" cy="355.2" r="1.2"/>
	<circle class="st0" cx="752.9" cy="350.3" r="1"/>
</g>
<g>
	<polyline class="st1" points="8.1,31.3 8.1,15.1 24.3,15.1 	"/>
	<polyline class="st1" points="772.3,649.1 788.5,649.1 788.5,632.9 	"/>
</g>
</svg>
