<?xml version="1.0" encoding="utf-8"?>
<!-- Generator: Adobe Illustrator 22.0.0, SVG Export Plug-In . SVG Version: 6.00 Build 0)  -->
<svg version="1.0" xmlns="http://www.w3.org/2000/svg" xmlns:xlink="http://www.w3.org/1999/xlink" x="0px" y="0px"
	 viewBox="0 0 595.3 841.9" style="enable-background:new 0 0 595.3 841.9;" xml:space="preserve">
<style type="text/css">
	.st0{fill:none;stroke:#ED3293;stroke-miterlimit:10;}
	.st1{fill:#19B3E8;}
	.st2{fill:none;stroke:#48A1D9;stroke-width:2;stroke-linecap:round;stroke-miterlimit:10;}
</style>
<g id="Layer_1">
	<rect x="10" y="9" class="st0" width="560.8" height="644.9"/>
</g>
<g id="Layer_2">
</g>
<g id="Layer_3">
	<g>
		<circle class="st1" cx="47.4" cy="257.8" r="1.2"/>
		<circle class="st1" cx="136.1" cy="311.6" r="1.1"/>
		<circle class="st1" cx="132.2" cy="337.4" r="1.3"/>
		<circle class="st1" cx="81.9" cy="414.9" r="1"/>
		<circle class="st1" cx="237.5" cy="612.2" r="1.4"/>
		<circle class="st1" cx="233.2" cy="594.6" r="1"/>
		<circle class="st1" cx="404.2" cy="168.5" r="0.9"/>
		<circle class="st1" cx="423.4" cy="129.3" r="1.1"/>
		<circle class="st1" cx="515.2" cy="365.7" r="1"/>
		<circle class="st1" cx="256.3" cy="200.7" r="1.3"/>
		<circle class="st1" cx="415" cy="429.2" r="1"/>
		<circle class="st1" cx="399.5" cy="461.1" r="1"/>
		<circle class="st1" cx="364.6" cy="516.4" r="1.1"/>
		<circle class="st1" cx="241.8" cy="580.4" r="1.1"/>
		<circle class="st1" cx="245.6" cy="554.5" r="1.3"/>
		<circle class="st1" cx="296" cy="477" r="1"/>
		<circle class="st1" cx="140.4" cy="279.8" r="1.4"/>
		<circle class="st1" cx="144.7" cy="297.3" r="1"/>
	</g>
	<g>
		<g transform="translate(-3.0891,0)">
			<line class="st2" x1="299" y1="557" x2="283.3" y2="557.5"/>
		</g>
		<g transform="translate(-9.8134,0)">
			<line class="st2" x1="297.3" y1="557.3" x2="268.2" y2="558.3"/>
		</g>
		<g transform="translate(-6.7937,0)">
			<line class="st2" x1="310.1" y1="556.7" x2="262.9" y2="558.4"/>
		</g>
		<g transform="translate(6.7539,0)">
			<line class="st2" x1="333.7" y1="555.4" x2="273.1" y2="557.5"/>
		</g>
		<g transform="translate(-6.9464,0)">
			<line class="st2" x1="325.5" y1="553.9" x2="247" y2="556.7"/>
		</g>
		<g transform="translate(8.8864,0)">
			<line class="st2" x1="351.9" y1="550.2" x2="259.9" y2="553.4"/>
		</g>
		<g transform="translate(3.5904,0)">
			<line class="st2" x1="354.3" y1="550.3" x2="244.3" y2="554.2"/>
		</g>
		<g transform="translate(9.0651,0)">
			<line class="st2" x1="367.7" y1="547.4" x2="244.3" y2="551.7"/>
		</g>
		<g transform="translate(-3.8908,0)">
			<line class="st2" x1="358.3" y1="545.9" x2="221.4" y2="550.7"/>
		</g>
		<g transform="translate(9.3125,0)">
			<line class="st2" x1="383.5" y1="540.1" x2="228.6" y2="545.5"/>
		</g>
		<g transform="translate(-9.7764,0)">
			<line class="st2" x1="366.4" y1="539.1" x2="198.1" y2="545"/>
		</g>
		<g transform="translate(3.1136,0)">
			<line class="st2" x1="389.1" y1="535.6" x2="207.3" y2="542"/>
		</g>
		<g transform="translate(2.1803,0)">
			<line class="st2" x1="394.5" y1="531" x2="199.3" y2="537.8"/>
		</g>
		<g transform="translate(6.1813,0)">
			<line class="st2" x1="406.2" y1="528.2" x2="197.4" y2="535.5"/>
		</g>
		<g transform="translate(-1.6998,0)">
			<line class="st2" x1="405.2" y1="524" x2="178.5" y2="531.9"/>
		</g>
		<g transform="translate(1.0678,0)">
			<line class="st2" x1="412.9" y1="519.1" x2="177.3" y2="527.4"/>
		</g>
		<g transform="translate(8.8074,0)">
			<line class="st2" x1="429.2" y1="513.8" x2="180" y2="522.5"/>
		</g>
		<g transform="translate(8.7499,0)">
			<line class="st2" x1="435.7" y1="509.1" x2="173.1" y2="518.3"/>
		</g>
		<g transform="translate(-0.6336,0)">
			<line class="st2" x1="430.6" y1="505.1" x2="154.5" y2="514.7"/>
		</g>
		<g transform="translate(-7.2012,0)">
			<line class="st2" x1="429" y1="500.9" x2="139.4" y2="511"/>
		</g>
		<g transform="translate(7.1876,0)">
			<line class="st2" x1="451.2" y1="495.1" x2="152.7" y2="505.5"/>
		</g>
		<g transform="translate(-9.7402,0)">
			<line class="st2" x1="436.6" y1="489.5" x2="124.7" y2="500.4"/>
		</g>
		<g transform="translate(-4.2755,0)">
			<line class="st2" x1="447.8" y1="484.4" x2="126.8" y2="495.6"/>
		</g>
		<g transform="translate(5.4574,0)">
			<line class="st2" x1="466.4" y1="476.7" x2="132" y2="488.4"/>
		</g>
		<g transform="translate(8.7043,0)">
			<line class="st2" x1="474.8" y1="471.8" x2="131.4" y2="483.8"/>
		</g>
		<g transform="translate(-1.0349,0)">
			<line class="st2" x1="466.9" y1="465.6" x2="114.5" y2="478"/>
		</g>
		<g transform="translate(-8.0123,0)">
			<line class="st2" x1="462.5" y1="459.3" x2="101.1" y2="471.9"/>
		</g>
		<g transform="translate(8.3846,0)">
			<line class="st2" x1="487.1" y1="451.1" x2="116.8" y2="464.1"/>
		</g>
		<g transform="translate(8.0543,0)">
			<line class="st2" x1="491" y1="444.3" x2="111.6" y2="457.5"/>
		</g>
		<g transform="translate(1.4983,0)">
			<line class="st2" x1="487.1" y1="440.1" x2="98.8" y2="453.7"/>
		</g>
		<g transform="translate(-0.7226,0)">
			<line class="st2" x1="488.5" y1="431.2" x2="91.3" y2="445"/>
		</g>
		<g transform="translate(7.5277,0)">
			<line class="st2" x1="500.8" y1="423.7" x2="99.1" y2="437.7"/>
		</g>
		<g transform="translate(-3.7165,0)">
			<line class="st2" x1="491.1" y1="417.7" x2="80.3" y2="432.1"/>
		</g>
		<g transform="translate(4.5783,0)">
			<line class="st2" x1="503.4" y1="410.2" x2="88.2" y2="424.7"/>
		</g>
		<g transform="translate(-5.2641,0)">
			<line class="st2" x1="493.2" y1="404.2" x2="73.5" y2="418.9"/>
		</g>
		<g transform="translate(5.3962,0)">
			<line class="st2" x1="510.6" y1="394.2" x2="81.9" y2="409.2"/>
		</g>
		<g transform="translate(-8.1592,0)">
			<line class="st2" x1="495.8" y1="388.5" x2="62.6" y2="403.6"/>
		</g>
		<g transform="translate(-2.7596,0)">
			<line class="st2" x1="504.5" y1="381.3" x2="66.8" y2="396.5"/>
		</g>
		<g transform="translate(-1.7327,0)">
			<line class="st2" x1="505.4" y1="372.2" x2="67.8" y2="387.5"/>
		</g>
		<g transform="translate(4.0956,0)">
			<line class="st2" x1="514.7" y1="364.9" x2="72.6" y2="380.4"/>
		</g>
		<g transform="translate(0.1812,0)">
			<line class="st2" x1="511.8" y1="356.2" x2="65.1" y2="371.8"/>
		</g>
		<g transform="translate(2.255,0)">
			<line class="st2" x1="514.1" y1="349.3" x2="67.5" y2="364.9"/>
		</g>
		<g transform="translate(3.735,0)">
			<line class="st2" x1="515.6" y1="340.2" x2="69" y2="355.8"/>
		</g>
		<g transform="translate(-3.4541,0)">
			<line class="st2" x1="506.5" y1="334" x2="59.8" y2="349.6"/>
		</g>
		<g transform="translate(2.9066,0)">
			<line class="st2" x1="516.3" y1="324.5" x2="67.4" y2="340.1"/>
		</g>
		<g transform="translate(-3.0924,0)">
			<line class="st2" x1="506.4" y1="318.3" x2="59.7" y2="333.9"/>
		</g>
		<g transform="translate(6.2918,0)">
			<line class="st2" x1="517.8" y1="310.8" x2="71.2" y2="326.4"/>
		</g>
		<g transform="translate(-1.1356,0)">
			<line class="st2" x1="508.2" y1="302.4" x2="61.6" y2="318"/>
		</g>
		<g transform="translate(-2.1069,0)">
			<line class="st2" x1="506.8" y1="295.8" x2="60.2" y2="311.4"/>
		</g>
		<g transform="translate(4.8625,0)">
			<line class="st2" x1="512.9" y1="286.3" x2="70.8" y2="301.7"/>
		</g>
		<g transform="translate(-1.7605,0)">
			<line class="st2" x1="502.2" y1="280.2" x2="64.5" y2="295.5"/>
		</g>
		<g transform="translate(2.1221,0)">
			<line class="st2" x1="506.7" y1="270.9" x2="69.1" y2="286.2"/>
		</g>
		<g transform="translate(-9.143,0)">
			<line class="st2" x1="490.2" y1="265.1" x2="57" y2="280.2"/>
		</g>
		<g transform="translate(-7.2484,0)">
			<line class="st2" x1="490.1" y1="258.3" x2="61.4" y2="273.3"/>
		</g>
		<g transform="translate(8.9831,0)">
			<line class="st2" x1="505.5" y1="248.2" x2="85.8" y2="262.9"/>
		</g>
		<g transform="translate(9.1254,0)">
			<line class="st2" x1="503.2" y1="241.6" x2="88" y2="256.1"/>
		</g>
		<g transform="translate(-3.5457,0)">
			<line class="st2" x1="484.9" y1="235.9" x2="74.2" y2="250.2"/>
		</g>
		<g transform="translate(8.0683,0)">
			<line class="st2" x1="494.7" y1="228.4" x2="92.9" y2="242.4"/>
		</g>
		<g transform="translate(0.5334,0)">
			<line class="st2" x1="482.8" y1="222.3" x2="85.6" y2="236.2"/>
		</g>
		<g transform="translate(9.217,0)">
			<line class="st2" x1="488.8" y1="212.8" x2="100.5" y2="226.4"/>
		</g>
		<g transform="translate(-0.0511,0)">
			<line class="st2" x1="472.6" y1="209.2" x2="93.3" y2="222.5"/>
		</g>
		<g transform="translate(-5.1453,0)">
			<line class="st2" x1="461.6" y1="203.1" x2="91.2" y2="216"/>
		</g>
		<g transform="translate(-2.0762,0)">
			<line class="st2" x1="460.7" y1="196.2" x2="99.3" y2="208.9"/>
		</g>
		<g transform="translate(6.8106,0)">
			<line class="st2" x1="467" y1="189" x2="114.6" y2="201.3"/>
		</g>
		<g transform="translate(-3.0529,0)">
			<line class="st2" x1="450" y1="183.2" x2="106.6" y2="195.2"/>
		</g>
		<g transform="translate(-3.1717,0)">
			<line class="st2" x1="445.2" y1="178.8" x2="110.8" y2="190.5"/>
		</g>
		<g transform="translate(-2.7773,0)">
			<line class="st2" x1="438.7" y1="172.3" x2="117.8" y2="183.5"/>
		</g>
		<g transform="translate(-4.2209,0)">
			<line class="st2" x1="432.3" y1="168.1" x2="120.3" y2="179"/>
		</g>
		<g transform="translate(-6.5321,0)">
			<line class="st2" x1="422.5" y1="161.8" x2="123.9" y2="172.2"/>
		</g>
		<g transform="translate(-4.429,0)">
			<line class="st2" x1="420.4" y1="157.3" x2="130.9" y2="167.4"/>
		</g>
		<g transform="translate(4.9943,0)">
			<line class="st2" x1="425.3" y1="152.3" x2="149.2" y2="161.9"/>
		</g>
		<g transform="translate(8.0146,0)">
			<line class="st2" x1="422.1" y1="147.8" x2="159.5" y2="157"/>
		</g>
		<g transform="translate(8.0391,0)">
			<line class="st2" x1="415.3" y1="143.5" x2="166.1" y2="152.2"/>
		</g>
		<g transform="translate(6.1052,0)">
			<line class="st2" x1="406" y1="139.4" x2="170.3" y2="147.7"/>
		</g>
		<g transform="translate(8.576,0)">
			<line class="st2" x1="402.2" y1="135" x2="180" y2="142.8"/>
		</g>
		<g transform="translate(-0.5956,0)">
			<line class="st2" x1="383.9" y1="131.5" x2="175.1" y2="138.7"/>
		</g>
		<g transform="translate(4.5016,0)">
			<line class="st2" x1="383.4" y1="129" x2="188.1" y2="135.9"/>
		</g>
		<g transform="translate(0.8064,0)">
			<line class="st2" x1="371.9" y1="125.1" x2="190.1" y2="131.4"/>
		</g>
		<g transform="translate(1.9779,0)">
			<line class="st2" x1="366.5" y1="123" x2="198.2" y2="128.9"/>
		</g>
		<g transform="translate(6.8472,0)">
			<line class="st2" x1="365.8" y1="120.6" x2="210.9" y2="126"/>
		</g>
		<g transform="translate(-6.7708,0)">
			<line class="st2" x1="339.7" y1="117.5" x2="202.8" y2="122.3"/>
		</g>
		<g transform="translate(2.6787,0)">
			<line class="st2" x1="344.7" y1="114.7" x2="221.2" y2="119"/>
		</g>
		<g transform="translate(7.1948,0)">
			<line class="st2" x1="343.5" y1="112.4" x2="233.5" y2="116.2"/>
		</g>
		<g transform="translate(-4.6717,0)">
			<line class="st2" x1="319.7" y1="113.6" x2="227.7" y2="116.8"/>
		</g>
		<g transform="translate(-9.4318,0)">
			<line class="st2" x1="307" y1="112" x2="228.4" y2="114.7"/>
		</g>
		<g transform="translate(3.3662,0)">
			<line class="st2" x1="313.9" y1="109" x2="253.3" y2="111.2"/>
		</g>
		<g transform="translate(-6.0568,0)">
			<line class="st2" x1="295.4" y1="110" x2="248.3" y2="111.7"/>
		</g>
		<g transform="translate(1.8409,0)">
			<line class="st2" x1="296.2" y1="109.7" x2="267.1" y2="110.7"/>
		</g>
		<g transform="translate(-5.9257,0)">
			<line class="st2" x1="279.8" y1="110.6" x2="264.1" y2="111.1"/>
		</g>
		<g transform="translate(3.0532,0)">
			<line class="st2" x1="282" y1="110.2" x2="284.3" y2="110.1"/>
		</g>
		<g transform="translate(5.0492,0)">
			<line class="st2" x1="277.8" y1="110.2" x2="293.5" y2="109.7"/>
		</g>
		<g transform="translate(-6.7409,0)">
			<line class="st2" x1="256.4" y1="111.4" x2="285.6" y2="110.4"/>
		</g>
		<g transform="translate(3.7187,0)">
			<line class="st2" x1="260.4" y1="110.9" x2="307.6" y2="109.3"/>
		</g>
		<g transform="translate(7.0589,0)">
			<line class="st2" x1="257.9" y1="110.9" x2="318.5" y2="108.8"/>
		</g>
		<g transform="translate(-8.2607,0)">
			<line class="st2" x1="229.9" y1="114.6" x2="308.4" y2="111.9"/>
		</g>
		<g transform="translate(6.1226,0)">
			<line class="st2" x1="241.1" y1="116" x2="333.2" y2="112.8"/>
		</g>
		<g transform="translate(7.3918,0)">
			<line class="st2" x1="233.7" y1="116.2" x2="343.7" y2="112.4"/>
		</g>
		<g transform="translate(6.2367,0)">
			<line class="st2" x1="225.6" y1="118.8" x2="349.1" y2="114.5"/>
		</g>
		<g transform="translate(8.7957,0)">
			<line class="st2" x1="222.2" y1="121" x2="359.1" y2="116.3"/>
		</g>
		<g transform="translate(8.4918,0)">
			<line class="st2" x1="213" y1="125.9" x2="367.8" y2="120.5"/>
		</g>
		<g transform="translate(-9.9809,0)">
			<line class="st2" x1="183.3" y1="129.8" x2="351.7" y2="123.9"/>
		</g>
		<g transform="translate(9.3252,0)">
			<line class="st2" x1="200.7" y1="130.8" x2="382.5" y2="124.4"/>
		</g>
		<g transform="translate(-1.1211,0)">
			<line class="st2" x1="181.1" y1="136.3" x2="376.4" y2="129.5"/>
		</g>
		<g transform="translate(6.1764,0)">
			<line class="st2" x1="183.5" y1="138.2" x2="392.3" y2="130.9"/>
		</g>
		<g transform="translate(8.2844,0)">
			<line class="st2" x1="177.4" y1="142.9" x2="404" y2="134.9"/>
		</g>
		<g transform="translate(-0.4375,0)">
			<line class="st2" x1="162.2" y1="148.2" x2="397.8" y2="140"/>
		</g>
		<g transform="translate(7.2945,0)">
			<line class="st2" x1="165.2" y1="152.3" x2="414.3" y2="143.6"/>
		</g>
		<g transform="translate(9.1692,0)">
			<line class="st2" x1="161" y1="156.9" x2="423.6" y2="147.7"/>
		</g>
		<g transform="translate(2.7245,0)">
			<line class="st2" x1="146.4" y1="162.1" x2="422.4" y2="152.5"/>
		</g>
		<g transform="translate(-5.1331,0)">
			<line class="st2" x1="130" y1="167.4" x2="419.5" y2="157.3"/>
		</g>
		<g transform="translate(-8.8468,0)">
			<line class="st2" x1="121.1" y1="172.4" x2="419.6" y2="162"/>
		</g>
		<g transform="translate(-1.7408,0)">
			<line class="st2" x1="123.4" y1="178.8" x2="435.4" y2="167.9"/>
		</g>
		<g transform="translate(2.8005,0)">
			<line class="st2" x1="124.7" y1="183.1" x2="445.7" y2="171.9"/>
		</g>
		<g transform="translate(-9.259,0)">
			<line class="st2" x1="103.2" y1="191" x2="437.6" y2="179.3"/>
		</g>
		<g transform="translate(2.3755,0)">
			<line class="st2" x1="113.4" y1="194.7" x2="456.8" y2="182.7"/>
		</g>
		<g transform="translate(8.6054,0)">
			<line class="st2" x1="116.9" y1="201.1" x2="469.2" y2="188.8"/>
		</g>
		<g transform="translate(-8.0025,0)">
			<line class="st2" x1="91.9" y1="209.3" x2="453.3" y2="196.7"/>
		</g>
		<g transform="translate(3.0859,0)">
			<line class="st2" x1="101.5" y1="215.3" x2="471.8" y2="202.4"/>
		</g>
		<g transform="translate(3.513,0)">
			<line class="st2" x1="97.8" y1="222.2" x2="477.1" y2="209"/>
		</g>
		<g transform="translate(6.3966,0)">
			<line class="st2" x1="97.1" y1="228.9" x2="485.4" y2="215.3"/>
		</g>
		<g transform="translate(4.1473,0)">
			<line class="st2" x1="90" y1="235.9" x2="487.3" y2="222.1"/>
		</g>
		<g transform="translate(9.9762,0)">
			<line class="st2" x1="95.3" y1="242.3" x2="497" y2="228.3"/>
		</g>
		<g transform="translate(4.1542,0)">
			<line class="st2" x1="83.8" y1="249.6" x2="494.5" y2="235.3"/>
		</g>
		<g transform="translate(-0.7339,0)">
			<line class="st2" x1="75.7" y1="256.8" x2="490.9" y2="242.3"/>
		</g>
		<g transform="translate(0.6788,0)">
			<line class="st2" x1="75.5" y1="263.5" x2="495.2" y2="248.9"/>
		</g>
		<g transform="translate(8.0975,0)">
			<line class="st2" x1="80.5" y1="272.1" x2="509.2" y2="257.1"/>
		</g>
		<g transform="translate(8.0661,0)">
			<line class="st2" x1="78.5" y1="278.9" x2="511.6" y2="263.8"/>
		</g>
		<g transform="translate(-8.6271,0)">
			<line class="st2" x1="55.7" y1="287" x2="493.3" y2="271.7"/>
		</g>
		<g transform="translate(-5.4088,0)">
			<line class="st2" x1="60" y1="295.7" x2="497.7" y2="280.5"/>
		</g>
		<g transform="translate(-7.7504,0)">
			<line class="st2" x1="55.1" y1="302.7" x2="497.2" y2="287.3"/>
		</g>
		<g transform="translate(5.5787,0)">
			<line class="st2" x1="69.7" y1="310.7" x2="516.4" y2="295.2"/>
		</g>
		<g transform="translate(-6.7027,0)">
			<line class="st2" x1="54.7" y1="318.4" x2="501.3" y2="302.8"/>
		</g>
		<g transform="translate(-9.5941,0)">
			<line class="st2" x1="51.4" y1="327.6" x2="498" y2="312.1"/>
		</g>
		<g transform="translate(-8.3346,0)">
			<line class="st2" x1="53.2" y1="334.3" x2="499.8" y2="318.7"/>
		</g>
		<g transform="translate(9.4831,0)">
			<line class="st2" x1="75.6" y1="339.6" x2="524.5" y2="323.9"/>
		</g>
		<g transform="translate(-3.7566,0)">
			<line class="st2" x1="59.4" y1="349.6" x2="506.1" y2="334"/>
		</g>
		<g transform="translate(1.532,0)">
			<line class="st2" x1="66.3" y1="356" x2="512.9" y2="340.4"/>
		</g>
		<g transform="translate(-8.2308,0)">
			<line class="st2" x1="54.4" y1="365.7" x2="501.1" y2="350.1"/>
		</g>
		<g transform="translate(7.3918,0)">
			<line class="st2" x1="74.1" y1="371.2" x2="520.7" y2="355.6"/>
		</g>
		<g transform="translate(3.4218,0)">
			<line class="st2" x1="71.7" y1="380.4" x2="513.9" y2="365"/>
		</g>
		<g transform="translate(5.2854,0)">
			<line class="st2" x1="76.5" y1="386.9" x2="514.2" y2="371.6"/>
		</g>
		<g transform="translate(-3.3874,0)">
			<line class="st2" x1="66" y1="396.6" x2="503.7" y2="381.3"/>
		</g>
		<g transform="translate(-0.3289,0)">
			<line class="st2" x1="72.3" y1="403" x2="505.5" y2="387.9"/>
		</g>
		<g transform="translate(0.6359,0)">
			<line class="st2" x1="76" y1="409.6" x2="504.7" y2="394.6"/>
		</g>
		<g transform="translate(0.706,0)">
			<line class="st2" x1="80.9" y1="418.4" x2="500.6" y2="403.7"/>
		</g>
		<g transform="translate(-1.8982,0)">
			<line class="st2" x1="80.1" y1="425.3" x2="495.4" y2="410.8"/>
		</g>
		<g transform="translate(4.3229,0)">
			<line class="st2" x1="90.4" y1="431.4" x2="501.1" y2="417.1"/>
		</g>
		<g transform="translate(7.5739,0)">
			<line class="st2" x1="99.1" y1="437.7" x2="500.9" y2="423.7"/>
		</g>
		<g transform="translate(-8.6415,0)">
			<line class="st2" x1="81.4" y1="445.7" x2="478.7" y2="431.8"/>
		</g>
		<g transform="translate(1.095,0)">
			<line class="st2" x1="98.3" y1="451.5" x2="486.6" y2="437.9"/>
		</g>
		<g transform="translate(2.264,0)">
			<line class="st2" x1="104.4" y1="458" x2="483.8" y2="444.7"/>
		</g>
		<g transform="translate(-6.5308,0)">
			<line class="st2" x1="98.2" y1="465.2" x2="468.6" y2="452.3"/>
		</g>
		<g transform="translate(2.0745,0)">
			<line class="st2" x1="113.7" y1="471.1" x2="475" y2="458.5"/>
		</g>
		<g transform="translate(-3.352,0)">
			<line class="st2" x1="111.6" y1="478.1" x2="464" y2="465.8"/>
		</g>
		<g transform="translate(6.0764,0)">
			<line class="st2" x1="128.1" y1="484" x2="471.5" y2="472"/>
		</g>
		<g transform="translate(-9.1836,0)">
			<line class="st2" x1="113.7" y1="489.5" x2="448.2" y2="477.8"/>
		</g>
		<g transform="translate(9.2603,0)">
			<line class="st2" x1="143.7" y1="494.6" x2="464.6" y2="483.3"/>
		</g>
		<g transform="translate(-7.4191,0)">
			<line class="st2" x1="127.5" y1="500.2" x2="439.5" y2="489.3"/>
		</g>
		<g transform="translate(-0.7033,0)">
			<line class="st2" x1="142.9" y1="506.2" x2="441.4" y2="495.7"/>
		</g>
		<g transform="translate(1.709,0)">
			<line class="st2" x1="150.5" y1="510.3" x2="440.1" y2="500.2"/>
		</g>
		<g transform="translate(-5.326,0)">
			<line class="st2" x1="148.7" y1="515.1" x2="424.7" y2="505.5"/>
		</g>
		<g transform="translate(4.8943,0)">
			<line class="st2" x1="168.3" y1="518.6" x2="430.9" y2="509.4"/>
		</g>
		<g transform="translate(-7.4371,0)">
			<line class="st2" x1="159.8" y1="523.8" x2="408.9" y2="515.1"/>
		</g>
		<g transform="translate(8.8882,0)">
			<line class="st2" x1="187" y1="526.8" x2="422.7" y2="518.5"/>
		</g>
		<g transform="translate(4.7596,0)">
			<line class="st2" x1="186.5" y1="531.4" x2="413.2" y2="523.5"/>
		</g>
		<g transform="translate(4.4616,0)">
			<line class="st2" x1="195.3" y1="535.6" x2="404" y2="528.3"/>
		</g>
		<g transform="translate(7.3699,0)">
			<line class="st2" x1="205.7" y1="537.4" x2="401" y2="530.6"/>
		</g>
		<g transform="translate(-8.6103,0)">
			<line class="st2" x1="192.7" y1="542.9" x2="374.5" y2="536.6"/>
		</g>
		<g transform="translate(5.5543,0)">
			<line class="st2" x1="217.2" y1="543.8" x2="385.5" y2="537.9"/>
		</g>
		<g transform="translate(0.2653,0)">
			<line class="st2" x1="217.4" y1="546.2" x2="372.3" y2="540.8"/>
		</g>
		<g transform="translate(-8.1756,0)">
			<line class="st2" x1="216" y1="551.1" x2="352.9" y2="546.3"/>
		</g>
		<g transform="translate(9.1526,0)">
			<line class="st2" x1="244.4" y1="551.7" x2="367.8" y2="547.4"/>
		</g>
		<g transform="translate(-2.7263,0)">
			<line class="st2" x1="236.4" y1="554.7" x2="346.4" y2="550.8"/>
		</g>
		<g transform="translate(7.9255,0)">
			<line class="st2" x1="258.7" y1="553.5" x2="350.7" y2="550.3"/>
		</g>
		<g transform="translate(-1.3191,0)">
			<line class="st2" x1="254" y1="556.2" x2="332.5" y2="553.5"/>
		</g>
		<g transform="translate(6.3729,0)">
			<line class="st2" x1="272.6" y1="557.6" x2="333.2" y2="555.5"/>
		</g>
		<g transform="translate(4.9012,0)">
			<line class="st2" x1="277.5" y1="557.4" x2="324.6" y2="555.8"/>
		</g>
		<g transform="translate(-4.5772,0)">
			<line class="st2" x1="274.7" y1="557.9" x2="303.9" y2="556.9"/>
		</g>
		<g transform="translate(1.2313,0)">
			<line class="st2" x1="288.6" y1="557.2" x2="304.4" y2="556.6"/>
		</g>
		<g transform="translate(-3.2297,0)">
			<line class="st2" x1="289.9" y1="559.5" x2="292.1" y2="559.5"/>
		</g>
		<g transform="translate(9.9898,0)">
			<line class="st2" x1="315.3" y1="556" x2="299.5" y2="556.5"/>
		</g>
	</g>
</g>
</svg>
