<?xml version="1.0" encoding="utf-8"?>
<!-- Generator: Adobe Illustrator 22.0.0, SVG Export Plug-In . SVG Version: 6.00 Build 0)  -->
<svg version="1.0" xmlns="http://www.w3.org/2000/svg" xmlns:xlink="http://www.w3.org/1999/xlink" x="0px" y="0px"
	 viewBox="0 0 595.3 841.9" style="enable-background:new 0 0 595.3 841.9;" xml:space="preserve">
<style type="text/css">
	.st0{fill:none;stroke:#ED3293;stroke-miterlimit:10;}
	.st1{fill:#FFFFFF;}
	.st2{fill:none;stroke:#FFFFFF;stroke-width:2;stroke-linecap:round;stroke-miterlimit:10;}
</style>
<g id="Layer_1">
	<rect x="10" y="9" class="st0" width="560.8" height="644.9"/>
</g>
<g id="Layer_2">
	<circle class="st1" cx="299.3" cy="642.3" r="1.6"/>
	<circle class="st1" cx="269.8" cy="637.3" r="1.4"/>
</g>
<g id="Layer_3">
	<g>
		<g transform="translate(-4.3301,0)">
			<line class="st2" x1="285.8" y1="557" x2="270.1" y2="556.5"/>
		</g>
		<g transform="translate(-1.6245,0)">
			<line class="st2" x1="295.9" y1="557.5" x2="266.7" y2="556.4"/>
		</g>
		<g transform="translate(2.1981,0)">
			<line class="st2" x1="309.6" y1="558.1" x2="262.5" y2="556.4"/>
		</g>
		<g transform="translate(-2.2206,0)">
			<line class="st2" x1="310.8" y1="558" x2="250.2" y2="555.8"/>
		</g>
		<g transform="translate(-2.4601,0)">
			<line class="st2" x1="319.6" y1="556" x2="241.1" y2="553.3"/>
		</g>
		<g transform="translate(4.4882,0)">
			<line class="st2" x1="335.1" y1="554.5" x2="243" y2="551.3"/>
		</g>
		<g transform="translate(-4.5233,0)">
			<line class="st2" x1="332.8" y1="554.1" x2="222.9" y2="550.3"/>
		</g>
		<g transform="translate(7.5803,0)">
			<line class="st2" x1="354.7" y1="553.1" x2="231.3" y2="548.8"/>
		</g>
		<g transform="translate(-2.3344,0)">
			<line class="st2" x1="349.2" y1="550.3" x2="212.3" y2="545.5"/>
		</g>
		<g transform="translate(8.9196,0)">
			<line class="st2" x1="372.3" y1="547" x2="217.4" y2="541.6"/>
		</g>
		<g transform="translate(3.7889,0)">
			<line class="st2" x1="372.7" y1="544.6" x2="204.4" y2="538.7"/>
		</g>
		<g transform="translate(3.3813,0)">
			<line class="st2" x1="379" y1="542.6" x2="197.2" y2="536.2"/>
		</g>
		<g transform="translate(-7.5533,0)">
			<line class="st2" x1="372.3" y1="537.4" x2="177.1" y2="530.6"/>
		</g>
		<g transform="translate(1.0991,0)">
			<line class="st2" x1="389.9" y1="536.1" x2="181.2" y2="528.8"/>
		</g>
		<g transform="translate(4.9526,0)">
			<line class="st2" x1="403.8" y1="532.2" x2="177.1" y2="524.3"/>
		</g>
		<g transform="translate(2.6313,0)">
			<line class="st2" x1="405.6" y1="527.7" x2="169.9" y2="519.5"/>
		</g>
		<g transform="translate(-6.5863,0)">
			<line class="st2" x1="401" y1="522.7" x2="151.9" y2="514"/>
		</g>
		<g transform="translate(7.2832,0)">
			<line class="st2" x1="425.2" y1="519.6" x2="162.6" y2="510.4"/>
		</g>
		<g transform="translate(7.2492,0)">
			<line class="st2" x1="432" y1="515.3" x2="155.9" y2="505.7"/>
		</g>
		<g transform="translate(6.3715,0)">
			<line class="st2" x1="437.8" y1="511" x2="148.3" y2="500.9"/>
		</g>
		<g transform="translate(9.1571,0)">
			<line class="st2" x1="445.9" y1="506.9" x2="147.4" y2="496.5"/>
		</g>
		<g transform="translate(6.0933,0)">
			<line class="st2" x1="449.1" y1="500.2" x2="137.1" y2="489.3"/>
		</g>
		<g transform="translate(-2.3082,0)">
			<line class="st2" x1="443.3" y1="495.2" x2="122.3" y2="484"/>
		</g>
		<g transform="translate(-6.0789,0)">
			<line class="st2" x1="445.5" y1="488.4" x2="111.1" y2="476.7"/>
		</g>
		<g transform="translate(-3.3615,0)">
			<line class="st2" x1="453.6" y1="484.2" x2="110.2" y2="472.3"/>
		</g>
		<g transform="translate(3.7012,0)">
			<line class="st2" x1="467.1" y1="478.2" x2="114.7" y2="465.9"/>
		</g>
		<g transform="translate(-8.6324,0)">
			<line class="st2" x1="456.5" y1="470.7" x2="95.1" y2="458.1"/>
		</g>
		<g transform="translate(7.1498,0)">
			<line class="st2" x1="480.8" y1="465.3" x2="110.5" y2="452.4"/>
		</g>
		<g transform="translate(-9.3675,0)">
			<line class="st2" x1="465" y1="457.5" x2="85.7" y2="444.2"/>
		</g>
		<g transform="translate(3.5648,0)">
			<line class="st2" x1="485.7" y1="454.2" x2="97.4" y2="440.6"/>
		</g>
		<g transform="translate(-9.7384,0)">
			<line class="st2" x1="474" y1="444.3" x2="76.7" y2="430.4"/>
		</g>
		<g transform="translate(-2.772,0)">
			<line class="st2" x1="485.1" y1="438.2" x2="83.4" y2="424.2"/>
		</g>
		<g transform="translate(5.6665,0)">
			<line class="st2" x1="500.4" y1="432.3" x2="89.6" y2="417.9"/>
		</g>
		<g transform="translate(-2.8064,0)">
			<line class="st2" x1="492.3" y1="424.9" x2="77.1" y2="410.4"/>
		</g>
		<g transform="translate(8.8379,0)">
			<line class="st2" x1="509.3" y1="419.2" x2="89.5" y2="404.5"/>
		</g>
		<g transform="translate(3.7853,0)">
			<line class="st2" x1="507.8" y1="410" x2="79.1" y2="395"/>
		</g>
		<g transform="translate(1.7777,0)">
			<line class="st2" x1="507.8" y1="403.2" x2="74.6" y2="388"/>
		</g>
		<g transform="translate(8.7952,0)">
			<line class="st2" x1="519" y1="397.1" x2="81.3" y2="381.8"/>
		</g>
		<g transform="translate(-1.7558,0)">
			<line class="st2" x1="506.2" y1="387.3" x2="68.5" y2="372"/>
		</g>
		<g transform="translate(-8.8108,0)">
			<line class="st2" x1="499.9" y1="380.1" x2="57.7" y2="364.6"/>
		</g>
		<g transform="translate(3.4723,0)">
			<line class="st2" x1="517.7" y1="372.1" x2="71.1" y2="356.5"/>
		</g>
		<g transform="translate(4.4227,0)">
			<line class="st2" x1="519.1" y1="365.5" x2="72.5" y2="349.9"/>
		</g>
		<g transform="translate(-1.2487,0)">
			<line class="st2" x1="512.4" y1="356" x2="65.7" y2="340.4"/>
		</g>
		<g transform="translate(-9.6985,0)">
			<line class="st2" x1="502.1" y1="348.6" x2="55.4" y2="333"/>
		</g>
		<g transform="translate(1.8158,0)">
			<line class="st2" x1="519" y1="340.6" x2="70.1" y2="325"/>
		</g>
		<g transform="translate(2.2877,0)">
			<line class="st2" x1="517.6" y1="333.9" x2="70.9" y2="318.3"/>
		</g>
		<g transform="translate(2.4557,0)">
			<line class="st2" x1="518" y1="327.2" x2="71.4" y2="311.6"/>
		</g>
		<g transform="translate(-9.5088,0)">
			<line class="st2" x1="503.4" y1="317.2" x2="56.8" y2="301.6"/>
		</g>
		<g transform="translate(-9.5068,0)">
			<line class="st2" x1="503.7" y1="310.5" x2="57" y2="294.9"/>
		</g>
		<g transform="translate(-2.5559,0)">
			<line class="st2" x1="510.4" y1="302" x2="68.2" y2="286.6"/>
		</g>
		<g transform="translate(5.9152,0)">
			<line class="st2" x1="518.9" y1="295.8" x2="81.2" y2="280.6"/>
		</g>
		<g transform="translate(-2.3629,0)">
			<line class="st2" x1="508.9" y1="286.2" x2="71.3" y2="270.9"/>
		</g>
		<g transform="translate(7.4441,0)">
			<line class="st2" x1="519.1" y1="280.2" x2="85.9" y2="265"/>
		</g>
		<g transform="translate(-6.412,0)">
			<line class="st2" x1="499.9" y1="272.3" x2="71.2" y2="257.3"/>
		</g>
		<g transform="translate(9.8906,0)">
			<line class="st2" x1="516" y1="264.4" x2="96.3" y2="249.8"/>
		</g>
		<g transform="translate(3.8727,0)">
			<line class="st2" x1="506.5" y1="257.1" x2="91.3" y2="242.6"/>
		</g>
		<g transform="translate(0.3273,0)">
			<line class="st2" x1="500.1" y1="250" x2="89.3" y2="235.7"/>
		</g>
		<g transform="translate(5.1137,0)">
			<line class="st2" x1="501.8" y1="243.5" x2="100" y2="229.5"/>
		</g>
		<g transform="translate(4.423,0)">
			<line class="st2" x1="498.9" y1="236.7" x2="101.6" y2="222.8"/>
		</g>
		<g transform="translate(-3.7139,0)">
			<line class="st2" x1="484.6" y1="226.9" x2="96.3" y2="213.3"/>
		</g>
		<g transform="translate(4.2028,0)">
			<line class="st2" x1="490.1" y1="222.9" x2="110.8" y2="209.6"/>
		</g>
		<g transform="translate(1.9308,0)">
			<line class="st2" x1="483" y1="215.8" x2="112.7" y2="202.9"/>
		</g>
		<g transform="translate(-0.1661,0)">
			<line class="st2" x1="476.2" y1="208.7" x2="114.8" y2="196.1"/>
		</g>
		<g transform="translate(9.8602,0)">
			<line class="st2" x1="484.4" y1="202.6" x2="132" y2="190.3"/>
		</g>
		<g transform="translate(7.59,0)">
			<line class="st2" x1="477.3" y1="195.6" x2="133.9" y2="183.6"/>
		</g>
		<g transform="translate(-8.6318,0)">
			<line class="st2" x1="452.8" y1="189.7" x2="118.4" y2="178"/>
		</g>
		<g transform="translate(4.7155,0)">
			<line class="st2" x1="462.9" y1="183.7" x2="141.9" y2="172.5"/>
		</g>
		<g transform="translate(7.6112,0)">
			<line class="st2" x1="462.2" y1="179.3" x2="150.2" y2="168.4"/>
		</g>
		<g transform="translate(4.2085,0)">
			<line class="st2" x1="451.4" y1="172.1" x2="152.9" y2="161.7"/>
		</g>
		<g transform="translate(9.5166,0)">
			<line class="st2" x1="453.7" y1="167.9" x2="164.2" y2="157.7"/>
		</g>
		<g transform="translate(-8.5372,0)">
			<line class="st2" x1="424.7" y1="161.7" x2="148.6" y2="152.1"/>
		</g>
		<g transform="translate(-6.0432,0)">
			<line class="st2" x1="421.2" y1="157.2" x2="158.6" y2="148"/>
		</g>
		<g transform="translate(4.4905,0)">
			<line class="st2" x1="427.7" y1="153.3" x2="178.6" y2="144.6"/>
		</g>
		<g transform="translate(7.6797,0)">
			<line class="st2" x1="425.1" y1="148.8" x2="189.5" y2="140.6"/>
		</g>
		<g transform="translate(-1.683,0)">
			<line class="st2" x1="406.9" y1="143.4" x2="184.7" y2="135.6"/>
		</g>
		<g transform="translate(9.4359,0)">
			<line class="st2" x1="414.2" y1="139.5" x2="205.4" y2="132.2"/>
		</g>
		<g transform="translate(7.2517,0)">
			<line class="st2" x1="404.8" y1="136.9" x2="209.5" y2="130"/>
		</g>
		<g transform="translate(7.621,0)">
			<line class="st2" x1="398.7" y1="132.2" x2="216.9" y2="125.8"/>
		</g>
		<g transform="translate(-1.7376,0)">
			<line class="st2" x1="380.4" y1="128.9" x2="212" y2="123.1"/>
		</g>
		<g transform="translate(2.4319,0)">
			<line class="st2" x1="378.9" y1="126.8" x2="224" y2="121.4"/>
		</g>
		<g transform="translate(-1.9016,0)">
			<line class="st2" x1="364.7" y1="121.6" x2="227.8" y2="116.9"/>
		</g>
		<g transform="translate(6.692,0)">
			<line class="st2" x1="368.7" y1="119.8" x2="245.3" y2="115.5"/>
		</g>
		<g transform="translate(2.4959,0)">
			<line class="st2" x1="356.8" y1="117" x2="246.9" y2="113.2"/>
		</g>
		<g transform="translate(-9.241,0)">
			<line class="st2" x1="333.3" y1="115.8" x2="241.2" y2="112.6"/>
		</g>
		<g transform="translate(-0.7677,0)">
			<line class="st2" x1="337.2" y1="114" x2="258.6" y2="111.2"/>
		</g>
		<g transform="translate(-4.2449,0)">
			<line class="st2" x1="323.9" y1="111.2" x2="263.3" y2="109"/>
		</g>
		<g transform="translate(6.7107,0)">
			<line class="st2" x1="330.8" y1="111.8" x2="283.7" y2="110.1"/>
		</g>
		<g transform="translate(-0.0897,0)">
			<line class="st2" x1="313.4" y1="110.9" x2="284.2" y2="109.9"/>
		</g>
		<g transform="translate(3.8072,0)">
			<line class="st2" x1="311.5" y1="111" x2="295.8" y2="110.5"/>
		</g>
		<g transform="translate(-0.6216,0)">
			<line class="st2" x1="297" y1="110.3" x2="299.3" y2="110.4"/>
		</g>
		<g transform="translate(8.2893,0)">
			<line class="st2" x1="301.4" y1="110.8" x2="317.1" y2="111.4"/>
		</g>
		<g transform="translate(-9.6995,0)">
			<line class="st2" x1="272.2" y1="109.2" x2="301.4" y2="110.2"/>
		</g>
		<g transform="translate(-2.9976,0)">
			<line class="st2" x1="271.6" y1="109.4" x2="318.7" y2="111"/>
		</g>
		<g transform="translate(9.7438,0)">
			<line class="st2" x1="280.7" y1="110.1" x2="341.3" y2="112.3"/>
		</g>
		<g transform="translate(-8.0604,0)">
			<line class="st2" x1="249.5" y1="110.7" x2="328.1" y2="113.4"/>
		</g>
		<g transform="translate(-9.3679,0)">
			<line class="st2" x1="241.1" y1="112.6" x2="333.1" y2="115.8"/>
		</g>
		<g transform="translate(2.1595,0)">
			<line class="st2" x1="246.5" y1="113.2" x2="356.4" y2="117"/>
		</g>
		<g transform="translate(-0.9833,0)">
			<line class="st2" x1="235.7" y1="114.9" x2="359.2" y2="119.2"/>
		</g>
		<g transform="translate(9.6495,0)">
			<line class="st2" x1="242.1" y1="117.8" x2="379.1" y2="122.6"/>
		</g>
		<g transform="translate(4.0744,0)">
			<line class="st2" x1="226.1" y1="121.5" x2="380.9" y2="126.9"/>
		</g>
		<g transform="translate(1.9107,0)">
			<line class="st2" x1="216.6" y1="123.4" x2="384.9" y2="129.2"/>
		</g>
		<g transform="translate(5.8548,0)">
			<line class="st2" x1="214.7" y1="125.7" x2="396.5" y2="132"/>
		</g>
		<g transform="translate(1.4612,0)">
			<line class="st2" x1="202.3" y1="129.6" x2="397.6" y2="136.4"/>
		</g>
		<g transform="translate(-3.4387,0)">
			<line class="st2" x1="189.4" y1="131.2" x2="398.1" y2="138.5"/>
		</g>
		<g transform="translate(5.9869,0)">
			<line class="st2" x1="192" y1="136.1" x2="418.7" y2="144"/>
		</g>
		<g transform="translate(1.8606,0)">
			<line class="st2" x1="182.2" y1="140.1" x2="417.9" y2="148.4"/>
		</g>
		<g transform="translate(-1.0901,0)">
			<line class="st2" x1="171.7" y1="144.1" x2="420.8" y2="152.8"/>
		</g>
		<g transform="translate(8.2962,0)">
			<line class="st2" x1="176.4" y1="149.1" x2="439" y2="158.3"/>
		</g>
		<g transform="translate(-4.3121,0)">
			<line class="st2" x1="153.9" y1="152.4" x2="429.9" y2="162"/>
		</g>
		<g transform="translate(-4.9922,0)">
			<line class="st2" x1="146.1" y1="156.6" x2="435.7" y2="166.7"/>
		</g>
		<g transform="translate(-0.4527,0)">
			<line class="st2" x1="147.1" y1="161.3" x2="445.6" y2="171.7"/>
		</g>
		<g transform="translate(-0.56,0)">
			<line class="st2" x1="140" y1="167.8" x2="452" y2="178.7"/>
		</g>
		<g transform="translate(-7.2757,0)">
			<line class="st2" x1="127" y1="171.6" x2="448" y2="182.8"/>
		</g>
		<g transform="translate(6.5927,0)">
			<line class="st2" x1="137.3" y1="179.2" x2="471.7" y2="190.9"/>
		</g>
		<g transform="translate(-5.6645,0)">
			<line class="st2" x1="117.4" y1="182.5" x2="460.8" y2="194.5"/>
		</g>
		<g transform="translate(-4.3251,0)">
			<line class="st2" x1="114.4" y1="189.2" x2="466.7" y2="201.5"/>
		</g>
		<g transform="translate(1.7881,0)">
			<line class="st2" x1="117.2" y1="196.3" x2="478.6" y2="208.9"/>
		</g>
		<g transform="translate(3.6135,0)">
			<line class="st2" x1="114.8" y1="203" x2="485.1" y2="215.9"/>
		</g>
		<g transform="translate(9.4849,0)">
			<line class="st2" x1="117.4" y1="210" x2="496.7" y2="223.3"/>
		</g>
		<g transform="translate(8.4412,0)">
			<line class="st2" x1="111.4" y1="216.5" x2="499.6" y2="230.1"/>
		</g>
		<g transform="translate(-7.203,0)">
			<line class="st2" x1="87.2" y1="221.9" x2="484.4" y2="235.8"/>
		</g>
		<g transform="translate(-7.5229,0)">
			<line class="st2" x1="84.3" y1="228.5" x2="486" y2="242.5"/>
		</g>
		<g transform="translate(-0.7852,0)">
			<line class="st2" x1="87.9" y1="235.6" x2="498.7" y2="250"/>
		</g>
		<g transform="translate(5.4989,0)">
			<line class="st2" x1="93.3" y1="242.8" x2="508.5" y2="257.3"/>
		</g>
		<g transform="translate(2.8955,0)">
			<line class="st2" x1="87.6" y1="249.2" x2="507.3" y2="263.9"/>
		</g>
		<g transform="translate(-4.2672,0)">
			<line class="st2" x1="73.8" y1="257.5" x2="502.5" y2="272.4"/>
		</g>
		<g transform="translate(-1.3203,0)">
			<line class="st2" x1="75" y1="264.4" x2="508.2" y2="279.5"/>
		</g>
		<g transform="translate(-9.754,0)">
			<line class="st2" x1="62.1" y1="270.4" x2="499.7" y2="285.6"/>
		</g>
		<g transform="translate(9.1357,0)">
			<line class="st2" x1="85.3" y1="280.8" x2="522.9" y2="296.1"/>
		</g>
		<g transform="translate(-0.4141,0)">
			<line class="st2" x1="70.9" y1="286.7" x2="513" y2="302.2"/>
		</g>
		<g transform="translate(-1.2356,0)">
			<line class="st2" x1="67.3" y1="295.6" x2="514" y2="311.2"/>
		</g>
		<g transform="translate(0.9144,0)">
			<line class="st2" x1="69.7" y1="302.5" x2="516.4" y2="318.1"/>
		</g>
		<g transform="translate(-8.9684,0)">
			<line class="st2" x1="57.1" y1="310.7" x2="503.8" y2="326.3"/>
		</g>
		<g transform="translate(5.0216,0)">
			<line class="st2" x1="74.3" y1="318.5" x2="521" y2="334.1"/>
		</g>
		<g transform="translate(2.4604,0)">
			<line class="st2" x1="70.9" y1="325" x2="519.8" y2="340.7"/>
		</g>
		<g transform="translate(-5.8259,0)">
			<line class="st2" x1="60.3" y1="333.4" x2="506.9" y2="348.9"/>
		</g>
		<g transform="translate(-4.8378,0)">
			<line class="st2" x1="61.3" y1="340.2" x2="507.9" y2="355.8"/>
		</g>
		<g transform="translate(3.5561,0)">
			<line class="st2" x1="71.4" y1="349.8" x2="518" y2="365.4"/>
		</g>
		<g transform="translate(1.0613,0)">
			<line class="st2" x1="68.1" y1="356.3" x2="514.7" y2="371.9"/>
		</g>
		<g transform="translate(-9.59,0)">
			<line class="st2" x1="56.7" y1="364.6" x2="498.9" y2="380"/>
		</g>
		<g transform="translate(-9.457,0)">
			<line class="st2" x1="58.9" y1="371.4" x2="496.6" y2="386.7"/>
		</g>
		<g transform="translate(-5.6843,0)">
			<line class="st2" x1="63.3" y1="380.7" x2="500.9" y2="395.9"/>
		</g>
		<g transform="translate(-3.5588,0)">
			<line class="st2" x1="67.9" y1="387.6" x2="501.1" y2="402.8"/>
		</g>
		<g transform="translate(1.4187,0)">
			<line class="st2" x1="76.1" y1="394.8" x2="504.8" y2="409.8"/>
		</g>
		<g transform="translate(-1.0018,0)">
			<line class="st2" x1="77.3" y1="403.8" x2="497" y2="418.4"/>
		</g>
		<g transform="translate(-7.9587,0)">
			<line class="st2" x1="70.7" y1="410" x2="485.9" y2="424.5"/>
		</g>
		<g transform="translate(1.2824,0)">
			<line class="st2" x1="84.2" y1="417.6" x2="494.9" y2="431.9"/>
		</g>
		<g transform="translate(4.7573,0)">
			<line class="st2" x1="92.7" y1="424.7" x2="494.5" y2="438.8"/>
		</g>
		<g transform="translate(-3.7744,0)">
			<line class="st2" x1="84.1" y1="430.9" x2="481.4" y2="444.8"/>
		</g>
		<g transform="translate(5.7352,0)">
			<line class="st2" x1="100.2" y1="438.5" x2="488.5" y2="452.1"/>
		</g>
		<g transform="translate(4.427,0)">
			<line class="st2" x1="102.8" y1="445.3" x2="482.2" y2="458.6"/>
		</g>
		<g transform="translate(4.4919,0)">
			<line class="st2" x1="107.2" y1="452.2" x2="477.5" y2="465.1"/>
		</g>
		<g transform="translate(-9.8169,0)">
			<line class="st2" x1="93.6" y1="458" x2="455" y2="470.6"/>
		</g>
		<g transform="translate(-9.6468,0)">
			<line class="st2" x1="98.1" y1="464.9" x2="450.5" y2="477.2"/>
		</g>
		<g transform="translate(-5.2754,0)">
			<line class="st2" x1="107.8" y1="472.1" x2="451.2" y2="484.1"/>
		</g>
		<g transform="translate(5.5213,0)">
			<line class="st2" x1="125.6" y1="477.6" x2="460" y2="489.3"/>
		</g>
		<g transform="translate(8.9345,0)">
			<line class="st2" x1="136.3" y1="484.8" x2="457.3" y2="496"/>
		</g>
		<g transform="translate(4.826,0)">
			<line class="st2" x1="135.5" y1="489.2" x2="447.5" y2="500.1"/>
		</g>
		<g transform="translate(9.1019,0)">
			<line class="st2" x1="147.3" y1="496.5" x2="445.9" y2="506.9"/>
		</g>
		<g transform="translate(0.6604,0)">
			<line class="st2" x1="141.2" y1="500.4" x2="430.7" y2="510.6"/>
		</g>
		<g transform="translate(1.85,0)">
			<line class="st2" x1="149.2" y1="505.3" x2="425.3" y2="514.9"/>
		</g>
		<g transform="translate(9.746,0)">
			<line class="st2" x1="165.6" y1="510.6" x2="428.2" y2="519.8"/>
		</g>
		<g transform="translate(3.3914,0)">
			<line class="st2" x1="164.3" y1="514.8" x2="413.4" y2="523.5"/>
		</g>
		<g transform="translate(-3.2573,0)">
			<line class="st2" x1="162.6" y1="519" x2="398.3" y2="527.3"/>
		</g>
		<g transform="translate(9.256,0)">
			<line class="st2" x1="182.5" y1="524.7" x2="409.2" y2="532.6"/>
		</g>
		<g transform="translate(-1.4675,0)">
			<line class="st2" x1="178" y1="528.6" x2="386.7" y2="535.9"/>
		</g>
		<g transform="translate(-3.8828,0)">
			<line class="st2" x1="181.6" y1="530.9" x2="376.9" y2="537.7"/>
		</g>
		<g transform="translate(1.4502,0)">
			<line class="st2" x1="194.8" y1="536.1" x2="376.6" y2="542.4"/>
		</g>
		<g transform="translate(6.0908,0)">
			<line class="st2" x1="207.3" y1="538.9" x2="375.6" y2="544.8"/>
		</g>
		<g transform="translate(3.3784,0)">
			<line class="st2" x1="210.6" y1="541.2" x2="365.4" y2="546.6"/>
		</g>
		<g transform="translate(-6.622,0)">
			<line class="st2" x1="206.9" y1="545.2" x2="343.8" y2="550"/>
		</g>
		<g transform="translate(-2.4913,0)">
			<line class="st2" x1="218.7" y1="548" x2="342.2" y2="552.3"/>
		</g>
		<g transform="translate(6.1626,0)">
			<line class="st2" x1="236.1" y1="551.1" x2="346.1" y2="555"/>
		</g>
		<g transform="translate(-1.3156,0)">
			<line class="st2" x1="235.8" y1="550.9" x2="327.8" y2="554.1"/>
		</g>
		<g transform="translate(8.7038,0)">
			<line class="st2" x1="254.9" y1="554.1" x2="333.5" y2="556.9"/>
		</g>
		<g transform="translate(-0.7704,0)">
			<line class="st2" x1="252.1" y1="556" x2="312.7" y2="558.1"/>
		</g>
		<g transform="translate(-6.8457,0)">
			<line class="st2" x1="251.2" y1="555.7" x2="298.4" y2="557.4"/>
		</g>
		<g transform="translate(-7.8049,0)">
			<line class="st2" x1="259" y1="556" x2="288.2" y2="557"/>
		</g>
		<g transform="translate(5.8488,0)">
			<line class="st2" x1="282.7" y1="557.3" x2="298.4" y2="557.8"/>
		</g>
		<g transform="translate(9.8641,0)">
			<line class="st2" x1="294.4" y1="560" x2="296.6" y2="560.1"/>
		</g>
		<g transform="translate(-7.9536,0)">
			<line class="st2" x1="281.3" y1="556.7" x2="265.6" y2="556.2"/>
		</g>
	</g>
</g>
</svg>
