<?xml version="1.0" encoding="utf-8"?>
<!-- Generator: Adobe Illustrator 22.0.0, SVG Export Plug-In . SVG Version: 6.00 Build 0)  -->
<svg version="1.0" xmlns="http://www.w3.org/2000/svg" xmlns:xlink="http://www.w3.org/1999/xlink" x="0px" y="0px"
	 viewBox="0 0 595.3 841.9" style="enable-background:new 0 0 595.3 841.9;" xml:space="preserve">
<style type="text/css">
	.st0{fill:none;stroke:#ED3293;stroke-miterlimit:10;}
	.st1{fill:#A9A8A9;}
	.st2{fill:none;stroke:#A9A8A9;stroke-width:2;stroke-linecap:round;stroke-miterlimit:10;}
</style>
<g id="Layer_1">
	<rect x="10" y="9" class="st0" width="560.8" height="644.9"/>
</g>
<g id="Layer_2">
</g>
<g id="Layer_3">
	<g>
		<circle class="st1" cx="74.6" cy="511.6" r="0.9"/>
		<circle class="st1" cx="156" cy="514.1" r="0.8"/>
		<circle class="st1" cx="160.5" cy="575.1" r="0.9"/>
		<circle class="st1" cx="469.8" cy="541.7" r="1.4"/>
		<circle class="st1" cx="285.3" cy="601.2" r="2"/>
		<circle class="st1" cx="335.3" cy="577.1" r="2.3"/>
		<circle class="st1" cx="290.4" cy="564.7" r="1"/>
		<circle class="st1" cx="290.2" cy="562.3" r="1.1"/>
		<circle class="st1" cx="326.1" cy="485.8" r="1.7"/>
		<circle class="st1" cx="329.9" cy="442.9" r="1.1"/>
		<circle class="st1" cx="286.8" cy="456.9" r="0.8"/>
		<circle class="st1" cx="242.1" cy="468.1" r="1"/>
		<circle class="st1" cx="205.7" cy="490.9" r="0.9"/>
		<circle class="st1" cx="198" cy="490.9" r="1"/>
		<circle class="st1" cx="181.7" cy="467" r="2.5"/>
		<circle class="st1" cx="204.6" cy="428.8" r="1"/>
		<path class="st1" d="M51.5,293.7c0-0.5-0.4-0.9-0.9-0.9s-0.9,0.4-0.9,0.9c0,0.5,0.4,0.9,0.9,0.9S51.5,294.2,51.5,293.7z"/>
		<circle class="st1" cx="55.2" cy="290.8" r="0.9"/>
		<circle class="st1" cx="108.1" cy="254.6" r="1.4"/>
		<circle class="st1" cx="130.9" cy="165.3" r="1.5"/>
		<circle class="st1" cx="147.9" cy="160" r="1.3"/>
		<circle class="st1" cx="169.5" cy="170" r="1.3"/>
		<circle class="st1" cx="207.6" cy="150.5" r="1.4"/>
		<circle class="st1" cx="408.4" cy="210.1" r="1.4"/>
		<circle class="st1" cx="236.7" cy="283.1" r="1.1"/>
		<circle class="st1" cx="197.1" cy="231.3" r="1.3"/>
		<circle class="st1" cx="120.5" cy="402.1" r="1.2"/>
		<circle class="st1" cx="86.1" cy="406.5" r="1.3"/>
		<circle class="st1" cx="285.3" cy="293.2" r="1.7"/>
		<circle class="st1" cx="301.9" cy="294.5" r="1.4"/>
		<circle class="st1" cx="341" cy="288.1" r="1"/>
		<circle class="st1" cx="376.9" cy="285.8" r="1.1"/>
		<circle class="st1" cx="313.9" cy="318.6" r="0.9"/>
		<circle class="st1" cx="341.8" cy="340.3" r="1.1"/>
		<circle class="st1" cx="418.9" cy="367.3" r="1.1"/>
		<path class="st1" d="M429.3,351.4c0-0.5-0.4-0.9-0.9-0.9s-0.9,0.4-0.9,0.9s0.4,0.9,0.9,0.9S429.3,351.9,429.3,351.4z"/>
		<circle class="st1" cx="471.8" cy="253.2" r="1.5"/>
		<path class="st1" d="M478.6,232.5c0-0.7-0.6-1.3-1.3-1.3s-1.3,0.6-1.3,1.3c0,0.7,0.6,1.3,1.3,1.3S478.6,233.2,478.6,232.5z"/>
		<circle class="st1" cx="325.7" cy="75.2" r="1.1"/>
		<circle class="st1" cx="183.7" cy="84.7" r="1.4"/>
		<circle class="st1" cx="522.8" cy="431.5" r="1"/>
		<circle class="st1" cx="532" cy="488.8" r="1"/>
		<circle class="st1" cx="489.9" cy="526.5" r="1.3"/>
		<circle class="st1" cx="489.3" cy="390.8" r="1.7"/>
		<circle class="st1" cx="427.4" cy="258" r="1.1"/>
		<circle class="st1" cx="303.3" cy="380.4" r="0.9"/>
		<circle class="st1" cx="221.9" cy="377.8" r="0.8"/>
		<circle class="st1" cx="217.3" cy="316.8" r="0.9"/>
		<circle class="st1" cx="267.5" cy="210.8" r="1.7"/>
		<circle class="st1" cx="218.2" cy="208.7" r="1.1"/>
		<circle class="st1" cx="335.6" cy="99" r="1.2"/>
		<circle class="st1" cx="277.5" cy="61.4" r="1.1"/>
		<circle class="st1" cx="71.6" cy="170.8" r="0.9"/>
		<circle class="st1" cx="86.4" cy="227.8" r="1.2"/>
		<circle class="st1" cx="78.6" cy="249.6" r="1.6"/>
		<circle class="st1" cx="92.6" cy="290.8" r="2"/>
		<circle class="st1" cx="42.5" cy="314.9" r="2.3"/>
		<circle class="st1" cx="87.5" cy="327.3" r="1"/>
		<circle class="st1" cx="87.6" cy="329.6" r="1.1"/>
		<circle class="st1" cx="51.7" cy="406.1" r="1.7"/>
		<circle class="st1" cx="47.9" cy="449" r="1.1"/>
		<circle class="st1" cx="91.1" cy="435.1" r="0.8"/>
		<circle class="st1" cx="135.8" cy="423.8" r="1"/>
		<circle class="st1" cx="172.1" cy="401" r="0.9"/>
		<circle class="st1" cx="179.9" cy="401" r="1"/>
		<circle class="st1" cx="196.2" cy="424.9" r="2.5"/>
		<circle class="st1" cx="173.3" cy="463.1" r="1"/>
		<path class="st1" d="M326.4,598.2c0,0.5,0.4,0.9,0.9,0.9s0.9-0.4,0.9-0.9c0-0.5-0.4-0.9-0.9-0.9S326.4,597.7,326.4,598.2z"/>
		<circle class="st1" cx="322.7" cy="601.1" r="0.9"/>
		<circle class="st1" cx="257.3" cy="489.8" r="1.2"/>
		<circle class="st1" cx="291.8" cy="485.5" r="1.3"/>
		<circle class="st1" cx="301.2" cy="186.8" r="1.3"/>
		<circle class="st1" cx="277.3" cy="118" r="1.4"/>
	</g>
	<g>
		<g transform="translate(9.4639,0)">
			<line class="st2" x1="311.3" y1="557.1" x2="295.6" y2="557.1"/>
		</g>
		<g transform="translate(-0.4707,0)">
			<line class="st2" x1="305.7" y1="557.1" x2="276.5" y2="557.1"/>
		</g>
		<g transform="translate(-7.6746,0)">
			<line class="st2" x1="305.7" y1="557.1" x2="258.5" y2="557.1"/>
		</g>
		<g transform="translate(-7.4219,0)">
			<line class="st2" x1="312.7" y1="557.1" x2="252.1" y2="557.1"/>
		</g>
		<g transform="translate(1.1958,0)">
			<line class="st2" x1="332.5" y1="554.9" x2="253.9" y2="554.9"/>
		</g>
		<g transform="translate(8.7308,0)">
			<line class="st2" x1="348.6" y1="552.6" x2="256.5" y2="552.6"/>
		</g>
		<g transform="translate(9.5049,0)">
			<line class="st2" x1="358.5" y1="552.6" x2="248.5" y2="552.6"/>
		</g>
		<g transform="translate(-7.0026,0)">
			<line class="st2" x1="344.7" y1="550.4" x2="221.2" y2="550.4"/>
		</g>
		<g transform="translate(-6.5254,0)">
			<line class="st2" x1="352" y1="548.1" x2="215" y2="548.1"/>
		</g>
		<g transform="translate(-6.2305,0)">
			<line class="st2" x1="361.4" y1="543.6" x2="206.4" y2="543.6"/>
		</g>
		<g transform="translate(-6.9897,0)">
			<line class="st2" x1="367.2" y1="541.4" x2="198.7" y2="541.4"/>
		</g>
		<g transform="translate(8.8445,0)">
			<line class="st2" x1="393.6" y1="539.1" x2="211.7" y2="539.1"/>
		</g>
		<g transform="translate(2.6513,0)">
			<line class="st2" x1="392.7" y1="534.7" x2="197.3" y2="534.7"/>
		</g>
		<g transform="translate(-9.9422,0)">
			<line class="st2" x1="383.7" y1="532.4" x2="174.9" y2="532.4"/>
		</g>
		<g transform="translate(-1.0746,0)">
			<line class="st2" x1="403.7" y1="527.9" x2="176.9" y2="527.9"/>
		</g>
		<g transform="translate(5.3409,0)">
			<line class="st2" x1="416.2" y1="523.4" x2="180.4" y2="523.4"/>
		</g>
		<g transform="translate(-2.2378,0)">
			<line class="st2" x1="413.5" y1="518.9" x2="164.2" y2="518.9"/>
		</g>
		<g transform="translate(4.2258,0)">
			<line class="st2" x1="428.3" y1="514.4" x2="165.6" y2="514.4"/>
		</g>
		<g transform="translate(-2.917,0)">
			<line class="st2" x1="426.2" y1="510" x2="149.9" y2="510"/>
		</g>
		<g transform="translate(-5.3977,0)">
			<line class="st2" x1="429.8" y1="505.5" x2="140.1" y2="505.5"/>
		</g>
		<g transform="translate(9.7782,0)">
			<line class="st2" x1="453.2" y1="501" x2="154.5" y2="501"/>
		</g>
		<g transform="translate(-3.0148,0)">
			<line class="st2" x1="444" y1="494.2" x2="131.8" y2="494.2"/>
		</g>
		<g transform="translate(-9.2213,0)">
			<line class="st2" x1="440.8" y1="489.7" x2="119.6" y2="489.7"/>
		</g>
		<g transform="translate(-4.0959,0)">
			<line class="st2" x1="453.9" y1="483" x2="119.3" y2="483"/>
		</g>
		<g transform="translate(-7.605,0)">
			<line class="st2" x1="454" y1="478.5" x2="110.4" y2="478.5"/>
		</g>
		<g transform="translate(4.3779,0)">
			<line class="st2" x1="473.4" y1="471.8" x2="120.8" y2="471.8"/>
		</g>
		<g transform="translate(-1.9729,0)">
			<line class="st2" x1="470" y1="465" x2="108.4" y2="465"/>
		</g>
		<g transform="translate(7.4831,0)">
			<line class="st2" x1="486.3" y1="458.3" x2="115.7" y2="458.3"/>
		</g>
		<g transform="translate(-6.5108,0)">
			<line class="st2" x1="473.3" y1="451.6" x2="93.8" y2="451.6"/>
		</g>
		<g transform="translate(-7.4587,0)">
			<line class="st2" x1="476.6" y1="447.1" x2="88.1" y2="447.1"/>
		</g>
		<g transform="translate(-6.9833,0)">
			<line class="st2" x1="481.7" y1="438.1" x2="84.2" y2="438.1"/>
		</g>
		<g transform="translate(8.1607,0)">
			<line class="st2" x1="502.8" y1="431.3" x2="100.8" y2="431.3"/>
		</g>
		<g transform="translate(5.9679,0)">
			<line class="st2" x1="504.6" y1="424.6" x2="93.6" y2="424.6"/>
		</g>
		<g transform="translate(-9.0127,0)">
			<line class="st2" x1="488.2" y1="417.9" x2="72.7" y2="417.9"/>
		</g>
		<g transform="translate(-7.9778,0)">
			<line class="st2" x1="491.7" y1="411.1" x2="71.7" y2="411.1"/>
		</g>
		<g transform="translate(-5.4495,0)">
			<line class="st2" x1="499.4" y1="402.2" x2="70.4" y2="402.2"/>
		</g>
		<g transform="translate(-3.4341,0)">
			<line class="st2" x1="504.1" y1="395.4" x2="70.7" y2="395.4"/>
		</g>
		<g transform="translate(8.7784,0)">
			<line class="st2" x1="521.6" y1="388.7" x2="83.6" y2="388.7"/>
		</g>
		<g transform="translate(8.4849,0)">
			<line class="st2" x1="521.2" y1="379.7" x2="83.3" y2="379.7"/>
		</g>
		<g transform="translate(5.095,0)">
			<line class="st2" x1="519.2" y1="373" x2="76.8" y2="373"/>
		</g>
		<g transform="translate(-4.1584,0)">
			<line class="st2" x1="509.9" y1="364" x2="63" y2="364"/>
		</g>
		<g transform="translate(-8.5565,0)">
			<line class="st2" x1="504.5" y1="357.2" x2="57.6" y2="357.2"/>
		</g>
		<g transform="translate(3.3072,0)">
			<line class="st2" x1="519.2" y1="348.3" x2="72.3" y2="348.3"/>
		</g>
		<g transform="translate(-6.5007,0)">
			<line class="st2" x1="507" y1="341.5" x2="60.1" y2="341.5"/>
		</g>
		<g transform="translate(-4.1409,0)">
			<line class="st2" x1="512.2" y1="332.5" x2="63.1" y2="332.5"/>
		</g>
		<g transform="translate(-3.6259,0)">
			<line class="st2" x1="510.6" y1="325.8" x2="63.7" y2="325.8"/>
		</g>
		<g transform="translate(-3.7696,0)">
			<line class="st2" x1="510.4" y1="319.1" x2="63.5" y2="319.1"/>
		</g>
		<g transform="translate(-0.5549,0)">
			<line class="st2" x1="514.4" y1="310.1" x2="67.5" y2="310.1"/>
		</g>
		<g transform="translate(1.5957,0)">
			<line class="st2" x1="517.1" y1="303.3" x2="70.2" y2="303.3"/>
		</g>
		<g transform="translate(-4.0484,0)">
			<line class="st2" x1="507.8" y1="294.4" x2="65.4" y2="294.4"/>
		</g>
		<g transform="translate(-3.3758,0)">
			<line class="st2" x1="506.4" y1="287.6" x2="68.5" y2="287.6"/>
		</g>
		<g transform="translate(-2.7875,0)">
			<line class="st2" x1="507.2" y1="278.6" x2="69.2" y2="278.6"/>
		</g>
		<g transform="translate(-5.2226,0)">
			<line class="st2" x1="501.9" y1="271.9" x2="68.4" y2="271.9"/>
		</g>
		<g transform="translate(3.7637,0)">
			<line class="st2" x1="510.8" y1="265.2" x2="81.9" y2="265.2"/>
		</g>
		<g transform="translate(-7.1544,0)">
			<line class="st2" x1="492.7" y1="256.2" x2="72.8" y2="256.2"/>
		</g>
		<g transform="translate(6.8116,0)">
			<line class="st2" x1="507.9" y1="249.4" x2="92.4" y2="249.4"/>
		</g>
		<g transform="translate(-4.4814,0)">
			<line class="st2" x1="491.6" y1="242.7" x2="80.6" y2="242.7"/>
		</g>
		<g transform="translate(5.7837,0)">
			<line class="st2" x1="499.9" y1="236" x2="97.9" y2="236"/>
		</g>
		<g transform="translate(-9.1954,0)">
			<line class="st2" x1="479" y1="229.2" x2="81.5" y2="229.2"/>
		</g>
		<g transform="translate(6.4772,0)">
			<line class="st2" x1="494" y1="220.2" x2="105.5" y2="220.2"/>
		</g>
		<g transform="translate(-2.2523,0)">
			<line class="st2" x1="478.6" y1="215.8" x2="99.1" y2="215.8"/>
		</g>
		<g transform="translate(-1.0886,0)">
			<line class="st2" x1="475.6" y1="209" x2="105" y2="209"/>
		</g>
		<g transform="translate(8.3488,0)">
			<line class="st2" x1="482.9" y1="202.3" x2="121.3" y2="202.3"/>
		</g>
		<g transform="translate(9.3322,0)">
			<line class="st2" x1="479.6" y1="195.5" x2="127" y2="195.5"/>
		</g>
		<g transform="translate(-7.0413,0)">
			<line class="st2" x1="454.7" y1="188.8" x2="111.1" y2="188.8"/>
		</g>
		<g transform="translate(0.24,0)">
			<line class="st2" x1="459.3" y1="184.3" x2="124.7" y2="184.3"/>
		</g>
		<g transform="translate(2.9666,0)">
			<line class="st2" x1="455.9" y1="177.6" x2="134.8" y2="177.6"/>
		</g>
		<g transform="translate(5.3672,0)">
			<line class="st2" x1="454.4" y1="173.1" x2="142.3" y2="173.1"/>
		</g>
		<g transform="translate(6.3965,0)">
			<line class="st2" x1="449" y1="166.3" x2="150.3" y2="166.3"/>
		</g>
		<g transform="translate(-3.9356,0)">
			<line class="st2" x1="431.6" y1="161.9" x2="141.9" y2="161.9"/>
		</g>
		<g transform="translate(8.0739,0)">
			<line class="st2" x1="439.8" y1="157.4" x2="163.6" y2="157.4"/>
		</g>
		<g transform="translate(-2.3568,0)">
			<line class="st2" x1="420.1" y1="152.9" x2="157.4" y2="152.9"/>
		</g>
		<g transform="translate(-2.5096,0)">
			<line class="st2" x1="413.2" y1="148.4" x2="163.9" y2="148.4"/>
		</g>
		<g transform="translate(-2.9822,0)">
			<line class="st2" x1="405.9" y1="143.9" x2="170.1" y2="143.9"/>
		</g>
		<g transform="translate(-3.6683,0)">
			<line class="st2" x1="398.3" y1="139.4" x2="175.9" y2="139.4"/>
		</g>
		<g transform="translate(9.13,0)">
			<line class="st2" x1="407.5" y1="134.9" x2="198.6" y2="134.9"/>
		</g>
		<g transform="translate(-1.6073,0)">
			<line class="st2" x1="387.4" y1="132.7" x2="192" y2="132.7"/>
		</g>
		<g transform="translate(9.6958,0)">
			<line class="st2" x1="394.7" y1="128.2" x2="212.8" y2="128.2"/>
		</g>
		<g transform="translate(7.1402,0)">
			<line class="st2" x1="384.8" y1="125.9" x2="216.3" y2="125.9"/>
		</g>
		<g transform="translate(-5.5084,0)">
			<line class="st2" x1="362.3" y1="123.7" x2="207.3" y2="123.7"/>
		</g>
		<g transform="translate(-8.8948,0)">
			<line class="st2" x1="349.1" y1="119.2" x2="212.1" y2="119.2"/>
		</g>
		<g transform="translate(-6.6371,0)">
			<line class="st2" x1="345.2" y1="116.9" x2="221.6" y2="116.9"/>
		</g>
		<g transform="translate(-3.6753,0)">
			<line class="st2" x1="342.1" y1="114.7" x2="232.1" y2="114.7"/>
		</g>
		<g transform="translate(-4.6237,0)">
			<line class="st2" x1="331.9" y1="114.7" x2="239.9" y2="114.7"/>
		</g>
		<g transform="translate(4.2081,0)">
			<line class="st2" x1="336.2" y1="112.4" x2="257.6" y2="112.4"/>
		</g>
		<g transform="translate(8.3346,0)">
			<line class="st2" x1="332.4" y1="110.2" x2="271.7" y2="110.2"/>
		</g>
		<g transform="translate(-2.7053,0)">
			<line class="st2" x1="311.9" y1="110.2" x2="264.7" y2="110.2"/>
		</g>
		<g transform="translate(-5.3661,0)">
			<line class="st2" x1="299.6" y1="110.2" x2="270.4" y2="110.2"/>
		</g>
		<g transform="translate(-1.9876,0)">
			<line class="st2" x1="297.1" y1="110.2" x2="281.3" y2="110.2"/>
		</g>
		<g transform="translate(8.6766,0)">
			<line class="st2" x1="301.4" y1="110.2" x2="303.6" y2="110.2"/>
		</g>
		<g transform="translate(-0.5892,0)">
			<line class="st2" x1="283.1" y1="110.2" x2="298.8" y2="110.2"/>
		</g>
		<g transform="translate(-4.0496,0)">
			<line class="st2" x1="272" y1="110.2" x2="301.2" y2="110.2"/>
		</g>
		<g transform="translate(4.496,0)">
			<line class="st2" x1="273.7" y1="110.2" x2="320.9" y2="110.2"/>
		</g>
		<g transform="translate(2.091,0)">
			<line class="st2" x1="264" y1="110.2" x2="324.6" y2="110.2"/>
		</g>
		<g transform="translate(-2.7318,0)">
			<line class="st2" x1="249" y1="112.4" x2="327.6" y2="112.4"/>
		</g>
		<g transform="translate(2.5485,0)">
			<line class="st2" x1="248.8" y1="114.7" x2="340.9" y2="114.7"/>
		</g>
		<g transform="translate(-7.858,0)">
			<line class="st2" x1="226.9" y1="114.7" x2="336.9" y2="114.7"/>
		</g>
		<g transform="translate(3.1791,0)">
			<line class="st2" x1="233.9" y1="116.9" x2="357.4" y2="116.9"/>
		</g>
		<g transform="translate(7.0283,0)">
			<line class="st2" x1="231.9" y1="119.2" x2="368.9" y2="119.2"/>
		</g>
		<g transform="translate(-0.9338,0)">
			<line class="st2" x1="213" y1="123.7" x2="368" y2="123.7"/>
		</g>
		<g transform="translate(-8.6505,0)">
			<line class="st2" x1="196.7" y1="125.9" x2="365.1" y2="125.9"/>
		</g>
		<g transform="translate(9.4236,0)">
			<line class="st2" x1="212.5" y1="128.2" x2="394.4" y2="128.2"/>
		</g>
		<g transform="translate(7.2581,0)">
			<line class="st2" x1="203" y1="132.7" x2="398.4" y2="132.7"/>
		</g>
		<g transform="translate(-7.9881,0)">
			<line class="st2" x1="177.3" y1="134.9" x2="386.1" y2="134.9"/>
		</g>
		<g transform="translate(3.0693,0)">
			<line class="st2" x1="182.1" y1="139.4" x2="408.9" y2="139.4"/>
		</g>
		<g transform="translate(1.7808,0)">
			<line class="st2" x1="176" y1="143.9" x2="411.8" y2="143.9"/>
		</g>
		<g transform="translate(-6.9839,0)">
			<line class="st2" x1="158.3" y1="148.4" x2="407.6" y2="148.4"/>
		</g>
		<g transform="translate(9.1272,0)">
			<line class="st2" x1="171.7" y1="152.9" x2="434.4" y2="152.9"/>
		</g>
		<g transform="translate(-9.6011,0)">
			<line class="st2" x1="141.6" y1="157.4" x2="417.8" y2="157.4"/>
		</g>
		<g transform="translate(-8.9396,0)">
			<line class="st2" x1="135.7" y1="161.9" x2="425.4" y2="161.9"/>
		</g>
		<g transform="translate(-4.2505,0)">
			<line class="st2" x1="137" y1="166.3" x2="435.7" y2="166.3"/>
		</g>
		<g transform="translate(9.7312,0)">
			<line class="st2" x1="147.7" y1="173.1" x2="459.9" y2="173.1"/>
		</g>
		<g transform="translate(2.8349,0)">
			<line class="st2" x1="134.6" y1="177.6" x2="455.8" y2="177.6"/>
		</g>
		<g transform="translate(7.4873,0)">
			<line class="st2" x1="133.7" y1="184.3" x2="468.3" y2="184.3"/>
		</g>
		<g transform="translate(-2.9088,0)">
			<line class="st2" x1="116.2" y1="188.8" x2="459.9" y2="188.8"/>
		</g>
		<g transform="translate(-4.8952,0)">
			<line class="st2" x1="109.3" y1="195.5" x2="461.9" y2="195.5"/>
		</g>
		<g transform="translate(7.5184,0)">
			<line class="st2" x1="120.3" y1="202.3" x2="481.8" y2="202.3"/>
		</g>
		<g transform="translate(-8.0267,0)">
			<line class="st2" x1="96.4" y1="209" x2="466.9" y2="209"/>
		</g>
		<g transform="translate(-7.3917,0)">
			<line class="st2" x1="92.7" y1="215.8" x2="472.2" y2="215.8"/>
		</g>
		<g transform="translate(-1.0058,0)">
			<line class="st2" x1="96.2" y1="222.5" x2="484.7" y2="222.5"/>
		</g>
		<g transform="translate(7.012,0)">
			<line class="st2" x1="101.7" y1="229.2" x2="499.2" y2="229.2"/>
		</g>
		<g transform="translate(4.4658,0)">
			<line class="st2" x1="96.2" y1="236" x2="498.2" y2="236"/>
		</g>
		<g transform="translate(9.2189,0)">
			<line class="st2" x1="97.7" y1="242.7" x2="508.6" y2="242.7"/>
		</g>
		<g transform="translate(7.4316,0)">
			<line class="st2" x1="93.2" y1="249.4" x2="508.7" y2="249.4"/>
		</g>
		<g transform="translate(3.8578,0)">
			<line class="st2" x1="86.5" y1="256.2" x2="506.5" y2="256.2"/>
		</g>
		<g transform="translate(-4.0843,0)">
			<line class="st2" x1="72.1" y1="265.2" x2="501.1" y2="265.2"/>
		</g>
		<g transform="translate(6.2268,0)">
			<line class="st2" x1="82.7" y1="271.9" x2="516.1" y2="271.9"/>
		</g>
		<g transform="translate(8.6965,0)">
			<line class="st2" x1="83.5" y1="278.6" x2="521.5" y2="278.6"/>
		</g>
		<g transform="translate(-2.6212,0)">
			<line class="st2" x1="69.4" y1="287.6" x2="507.4" y2="287.6"/>
		</g>
		<g transform="translate(7.3279,0)">
			<line class="st2" x1="79.6" y1="294.4" x2="522" y2="294.4"/>
		</g>
		<g transform="translate(-9.8729,0)">
			<line class="st2" x1="55.9" y1="303.3" x2="502.8" y2="303.3"/>
		</g>
		<g transform="translate(-1.9264,0)">
			<line class="st2" x1="65.8" y1="310.1" x2="512.7" y2="310.1"/>
		</g>
		<g transform="translate(-4.0221,0)">
			<line class="st2" x1="63.2" y1="319.1" x2="510.1" y2="319.1"/>
		</g>
		<g transform="translate(-8.7226,0)">
			<line class="st2" x1="57.3" y1="325.8" x2="504.3" y2="325.8"/>
		</g>
		<g transform="translate(4.4768,0)">
			<line class="st2" x1="73.8" y1="332.5" x2="523" y2="332.5"/>
		</g>
		<g transform="translate(-1.8801,0)">
			<line class="st2" x1="65.9" y1="341.5" x2="512.8" y2="341.5"/>
		</g>
		<g transform="translate(-9.3186,0)">
			<line class="st2" x1="56.6" y1="348.3" x2="503.5" y2="348.3"/>
		</g>
		<g transform="translate(-9.7703,0)">
			<line class="st2" x1="56" y1="357.2" x2="503" y2="357.2"/>
		</g>
		<g transform="translate(1.7533,0)">
			<line class="st2" x1="70.4" y1="364" x2="517.3" y2="364"/>
		</g>
		<g transform="translate(-1.2231,0)">
			<line class="st2" x1="68.9" y1="373" x2="511.4" y2="373"/>
		</g>
		<g transform="translate(4.0635,0)">
			<line class="st2" x1="77.8" y1="379.7" x2="515.7" y2="379.7"/>
		</g>
		<g transform="translate(-8.1326,0)">
			<line class="st2" x1="62.6" y1="388.7" x2="500.5" y2="388.7"/>
		</g>
		<g transform="translate(-0.6782,0)">
			<line class="st2" x1="74.1" y1="395.4" x2="507.5" y2="395.4"/>
		</g>
		<g transform="translate(8.4846,0)">
			<line class="st2" x1="87.8" y1="402.2" x2="516.7" y2="402.2"/>
		</g>
		<g transform="translate(-1.7751,0)">
			<line class="st2" x1="79.5" y1="411.1" x2="499.4" y2="411.1"/>
		</g>
		<g transform="translate(7.073,0)">
			<line class="st2" x1="92.7" y1="417.9" x2="508.2" y2="417.9"/>
		</g>
		<g transform="translate(-1.9307,0)">
			<line class="st2" x1="83.8" y1="424.6" x2="494.8" y2="424.6"/>
		</g>
		<g transform="translate(-1.559,0)">
			<line class="st2" x1="88.7" y1="431.3" x2="490.7" y2="431.3"/>
		</g>
		<g transform="translate(-9.5003,0)">
			<line class="st2" x1="81.1" y1="438.1" x2="478.6" y2="438.1"/>
		</g>
		<g transform="translate(-8.2709,0)">
			<line class="st2" x1="87.1" y1="444.8" x2="475.6" y2="444.8"/>
		</g>
		<g transform="translate(-6.8383,0)">
			<line class="st2" x1="93.4" y1="451.6" x2="472.9" y2="451.6"/>
		</g>
		<g transform="translate(8.5654,0)">
			<line class="st2" x1="117.1" y1="458.3" x2="487.6" y2="458.3"/>
		</g>
		<g transform="translate(4.4133,0)">
			<line class="st2" x1="116.4" y1="465" x2="478" y2="465"/>
		</g>
		<g transform="translate(-7.6154,0)">
			<line class="st2" x1="105.9" y1="471.8" x2="458.5" y2="471.8"/>
		</g>
		<g transform="translate(-8.4815,0)">
			<line class="st2" x1="109.3" y1="478.5" x2="452.9" y2="478.5"/>
		</g>
		<g transform="translate(-7.8452,0)">
			<line class="st2" x1="114.6" y1="483" x2="449.2" y2="483"/>
		</g>
		<g transform="translate(3.5434,0)">
			<line class="st2" x1="135.5" y1="489.7" x2="456.7" y2="489.7"/>
		</g>
		<g transform="translate(-0.7977,0)">
			<line class="st2" x1="134.6" y1="494.2" x2="446.8" y2="494.2"/>
		</g>
		<g transform="translate(1.3338,0)">
			<line class="st2" x1="144" y1="501" x2="442.7" y2="501"/>
		</g>
		<g transform="translate(-6.443,0)">
			<line class="st2" x1="138.8" y1="505.5" x2="428.5" y2="505.5"/>
		</g>
		<g transform="translate(-1.1414,0)">
			<line class="st2" x1="152.1" y1="510" x2="428.4" y2="510"/>
		</g>
		<g transform="translate(-8.617,0)">
			<line class="st2" x1="149.6" y1="514.4" x2="412.3" y2="514.4"/>
		</g>
		<g transform="translate(3.208,0)">
			<line class="st2" x1="171" y1="518.9" x2="420.3" y2="518.9"/>
		</g>
		<g transform="translate(-8.3635,0)">
			<line class="st2" x1="163.3" y1="523.4" x2="399.2" y2="523.4"/>
		</g>
		<g transform="translate(6.3849,0)">
			<line class="st2" x1="186.2" y1="527.9" x2="413" y2="527.9"/>
		</g>
		<g transform="translate(-7.8143,0)">
			<line class="st2" x1="177.5" y1="532.4" x2="386.4" y2="532.4"/>
		</g>
		<g transform="translate(-0.3376,0)">
			<line class="st2" x1="193.6" y1="534.7" x2="388.9" y2="534.7"/>
		</g>
		<g transform="translate(3.8937,0)">
			<line class="st2" x1="205.6" y1="539.1" x2="387.5" y2="539.1"/>
		</g>
		<g transform="translate(6.3115,0)">
			<line class="st2" x1="215.3" y1="541.4" x2="383.8" y2="541.4"/>
		</g>
		<g transform="translate(7.288,0)">
			<line class="st2" x1="223.3" y1="543.6" x2="378.2" y2="543.6"/>
		</g>
		<g transform="translate(6.0313,0)">
			<line class="st2" x1="230.7" y1="548.1" x2="367.7" y2="548.1"/>
		</g>
		<g transform="translate(9.6502,0)">
			<line class="st2" x1="241.9" y1="550.4" x2="365.5" y2="550.4"/>
		</g>
		<g transform="translate(-9.4134,0)">
			<line class="st2" x1="224.9" y1="552.6" x2="335" y2="552.6"/>
		</g>
		<g transform="translate(3.9176,0)">
			<line class="st2" x1="250.5" y1="552.6" x2="342.6" y2="552.6"/>
		</g>
		<g transform="translate(-1.4489,0)">
			<line class="st2" x1="250.6" y1="554.9" x2="329.2" y2="554.9"/>
		</g>
		<g transform="translate(-6.1285,0)">
			<line class="st2" x1="253.7" y1="557.1" x2="314.4" y2="557.1"/>
		</g>
		<g transform="translate(-8.5828,0)">
			<line class="st2" x1="257.4" y1="557.1" x2="304.6" y2="557.1"/>
		</g>
		<g transform="translate(-5.8926,0)">
			<line class="st2" x1="269.7" y1="557.1" x2="298.9" y2="557.1"/>
		</g>
		<g transform="translate(-0.9369,0)">
			<line class="st2" x1="282.6" y1="557.1" x2="298.4" y2="557.1"/>
		</g>
		<g transform="translate(-0.5675,0)">
			<line class="st2" x1="289.8" y1="559.4" x2="292.1" y2="559.4"/>
		</g>
		<g transform="translate(4.7043,0)">
			<line class="st2" x1="305.4" y1="557.1" x2="289.7" y2="557.1"/>
		</g>
	</g>
</g>
</svg>
