<?xml version="1.0" encoding="utf-8"?>
<!-- Generator: Adobe Illustrator 22.0.0, SVG Export Plug-In . SVG Version: 6.00 Build 0)  -->
<svg version="1.0" id="Layer_1" xmlns="http://www.w3.org/2000/svg" xmlns:xlink="http://www.w3.org/1999/xlink" x="0px" y="0px"
	 viewBox="0 0 595.3 652" style="enable-background:new 0 0 595.3 652;" xml:space="preserve">
<style type="text/css">
	.st0{fill:#181818;}
	.st1{fill:none;stroke:#EB3593;stroke-miterlimit:10;}
</style>
<g>
	<path class="st0" d="M421.5,559.8l16.6,74.1H291.3L421.5,559.8 M424.8,552.1l-5.9,3.3l-130.1,74.1l-16.4,9.3h18.9h146.8h6.2
		l-1.4-6.1l-16.6-74.1L424.8,552.1L424.8,552.1z"/>
</g>
<g>
	<path class="st0" d="M554.7,482.9l0,151H446.9l-18.3-78.2L554.7,482.9 M559.7,474.2l-7.5,4.3l-126.1,72.8l-3.2,1.9l0.8,3.6
		l18.3,78.2l0.9,3.9h4h107.8h5l0-5l0-151L559.7,474.2L559.7,474.2z"/>
</g>
<g>
	<path class="st0" d="M41.8,175l512.9,140.2l0,156L41.8,175 M5.8,160l33.5,19.4l512.9,296.1l7.5,4.3l0-8.7l0-156l0-3.8l-3.7-1
		L43.1,170.2L5.8,160L5.8,160z"/>
</g>
<g>
	<path class="st0" d="M39.8,183l510.9,295l-126.1,72.8L39.8,183 M6.3,157.9l30.1,28.8l384.8,367.8l2.7,2.6l3.2-1.9l126.1-72.8
		l7.5-4.3l-7.5-4.3l-510.9-295L6.3,157.9L6.3,157.9z"/>
</g>
<g>
	<path class="st0" d="M554.7,167.1V307L42.8,167.1H554.7 M559.7,162.1h-5H42.8H5.5l35.9,9.8l511.9,139.9l6.3,1.7V307V167.1V162.1
		L559.7,162.1z"/>
</g>
<g>
	<path class="st0" d="M286,10.2l257.9,149H28L286,10.2 M286,4.4l-2.5,1.4l-257.9,149l-16.2,9.3H28h515.8h18.7l-16.2-9.3L288.5,5.9
		L286,4.4L286,4.4z"/>
</g>
<g>
	<path class="st0" d="M17.2,177.9l257.9,446.8l-257.9-149V177.9 M12.2,159.3v18.7v297.8v2.9l2.5,1.4l257.9,149l16.2,9.3l-9.3-16.2
		L21.5,175.4L12.2,159.3L12.2,159.3z"/>
</g>
<g>
	<path class="st0" d="M30.5,185.1l386.9,369.8L287.3,630L30.5,185.1 M8.7,157.4l17.5,30.2L283,632.5l2.5,4.3l4.3-2.5L420,559.3
		l5.8-3.3l-4.8-4.6L34,181.5L8.7,157.4L8.7,157.4z"/>
</g>
<g>
	<polyline class="st1" points="0.7,16.2 0.7,0 16.8,0 	"/>
	<polyline class="st1" points="569.1,642 585.3,642 585.3,625.8 	"/>
</g>
</svg>
