<?xml version="1.0" encoding="utf-8"?>
<!-- Generator: Adobe Illustrator 22.0.0, SVG Export Plug-In . SVG Version: 6.00 Build 0)  -->
<svg version="1.0" id="Layer_1" xmlns="http://www.w3.org/2000/svg" xmlns:xlink="http://www.w3.org/1999/xlink" x="0px" y="0px"
	 viewBox="0 0 595.3 652" style="enable-background:new 0 0 595.3 652;" xml:space="preserve">
<style type="text/css">
	.st0{fill:none;stroke:#CCCCCC;stroke-linecap:round;}
	.st1{fill:none;stroke:#EB3593;stroke-miterlimit:10;}
</style>
<path class="st0" d="M560.3,573.5c-0.6,0.5-1.2,1-1.8,1.4"/>
<path class="st0" d="M561.3,545.8c-1.2,0.9-2.3,1.9-3.5,2.8"/>
<path class="st0" d="M556.1,550c-1.8,1.4-3.5,2.8-5.3,4.2"/>
<path class="st0" d="M502.4,590.9c-1.2,0.9-2.4,1.8-3.7,2.6"/>
<path class="st0" d="M561.8,518.2c-1.7,1.4-3.4,2.8-5.1,4.2"/>
<path class="st0" d="M461.2,594.2c-0.6,0.4-1.2,0.8-1.8,1.3"/>
<path class="st0" d="M561.6,490.9c-3.9,3.3-7.7,6.6-11.6,9.9"/>
<path class="st0" d="M524.7,521.4c-0.6,0.4-1.1,0.9-1.7,1.3"/>
<path class="st0" d="M424,593.6c-1.2,0.8-2.4,1.6-3.7,2.4"/>
<path class="st0" d="M383.2,618.8c-1.9,1.1-3.7,2.2-5.6,3.3"/>
<path class="st0" d="M456.9,546c-1.2,0.8-2.3,1.6-3.5,2.5"/>
<path class="st0" d="M383.6,594.1c-1.2,0.7-2.4,1.5-3.7,2.2"/>
<path class="st0" d="M513.3,476.6c-1.6,1.3-3.2,2.7-4.9,4"/>
<path class="st0" d="M501.9,485.9c-1.1,0.9-2.2,1.8-3.3,2.6"/>
<path class="st0" d="M456.7,520.3c-1.1,0.8-2.3,1.6-3.4,2.5"/>
<path class="st0" d="M525.2,439.1c-2.1,1.8-4.2,3.6-6.3,5.4"/>
<path class="st0" d="M304.4,590.9c-1.8,1-3.6,1.9-5.5,2.9"/>
<path class="st0" d="M250.8,617.6c-1.2,0.6-2.5,1.2-3.7,1.7"/>
<path class="st0" d="M525.1,411.1c-4.5,4.1-9.1,8.1-13.7,12.1"/>
<path class="st0" d="M486.6,444.2c-6.3,5.2-12.6,10.2-19,15.3"/>
<path class="st0" d="M446.7,475.5c-0.5,0.4-1.1,0.8-1.6,1.2"/>
<path class="st0" d="M440.2,480.4c-1.6,1.2-3.3,2.4-4.9,3.6"/>
<path class="st0" d="M330,552.6c-0.6,0.3-1.2,0.7-1.7,1"/>
<path class="st0" d="M303.4,567.5c-1.2,0.6-2.4,1.3-3.6,1.9"/>
<path class="st0" d="M298.1,570.4c-1.8,1-3.6,1.9-5.4,2.9"/>
<path class="st0" d="M251.1,594.3c-1.2,0.6-2.4,1.2-3.7,1.7"/>
<path class="st0" d="M560.2,348.8c-1.4,1.4-2.8,2.8-4.2,4.2"/>
<path class="st0" d="M546,362.9c-1.9,1.9-3.8,3.7-5.7,5.5"/>
<path class="st0" d="M530.2,378c-1,0.9-1.9,1.8-2.9,2.7"/>
<path class="st0" d="M524.3,383.4c-2.9,2.7-5.8,5.4-8.8,8.1"/>
<path class="st0" d="M493.2,411.3c-0.5,0.4-1,0.9-1.5,1.3"/>
<path class="st0" d="M488.6,415.2c-3,2.6-6.1,5.1-9.1,7.7"/>
<path class="st0" d="M453.1,444.2c-2.6,2.1-5.2,4.1-7.9,6.1"/>
<path class="st0" d="M440.5,453.9c-1.6,1.2-3.2,2.4-4.8,3.6"/>
<path class="st0" d="M408.4,477.5c-1.6,1.1-3.2,2.3-4.9,3.4"/>
<path class="st0" d="M348.6,517.1c-0.6,0.4-1.1,0.7-1.7,1.1"/>
<path class="st0" d="M298.7,546.2c-1.2,0.6-2.3,1.3-3.5,1.9"/>
<path class="st0" d="M198.4,595.1c-0.6,0.3-1.2,0.5-1.8,0.8"/>
<path class="st0" d="M517.2,375.7c-1,0.9-1.9,1.8-2.9,2.7"/>
<path class="st0" d="M545.3,334c-1.8,1.9-3.7,3.7-5.5,5.5"/>
<path class="st0" d="M529.9,349.2c-5.1,5-10.3,9.9-15.6,14.8"/>
<path class="st0" d="M508.7,369.4c-0.5,0.4-1,0.9-1.4,1.3"/>
<path class="st0" d="M498.5,378.6c-1,0.9-2,1.8-2.9,2.6"/>
<path class="st0" d="M492.7,383.8c-1,0.9-2,1.7-3,2.6"/>
<path class="st0" d="M488.3,387.7c-1.5,1.3-2.9,2.6-4.4,3.9"/>
<path class="st0" d="M482.4,392.8c-1.5,1.3-3,2.6-4.4,3.8"/>
<path class="st0" d="M467.5,405.5c-2,1.7-4,3.3-6,5"/>
<path class="st0" d="M409,451.3c-1.6,1.1-3.2,2.3-4.7,3.4"/>
<path class="st0" d="M257.4,544.3c-1.7,0.9-3.5,1.8-5.2,2.6"/>
<path class="st0" d="M248.7,548.7c-0.6,0.3-1.2,0.6-1.8,0.9"/>
<path class="st0" d="M541.8,322.5c-0.5,0.5-0.9,0.9-1.4,1.4"/>
<path class="st0" d="M546.3,302.8c-0.4,0.5-0.9,0.9-1.3,1.4"/>
<path class="st0" d="M535.7,313.8c-1.3,1.4-2.7,2.7-4,4.1"/>
<path class="st0" d="M530.3,319.3c-1.8,1.8-3.6,3.6-5.4,5.4"/>
<path class="st0" d="M519.4,330.1c-4.6,4.5-9.2,8.9-13.8,13.3"/>
<path class="st0" d="M504.2,344.8c-1.9,1.8-3.7,3.5-5.6,5.3"/>
<path class="st0" d="M493,355.2c-1.9,1.7-3.8,3.5-5.7,5.2"/>
<path class="st0" d="M483.1,364.3c-7.1,6.4-14.4,12.7-21.7,18.9"/>
<path class="st0" d="M457,386.9c-3.9,3.3-7.9,6.6-11.8,9.8"/>
<path class="st0" d="M439.2,401.6c-1.5,1.2-3,2.4-4.5,3.6"/>
<path class="st0" d="M415.1,420.5c-1,0.8-2.1,1.6-3.1,2.3"/>
<path class="st0" d="M382.6,444.4c-7.3,5.2-14.7,10.2-22.1,15.2"/>
<path class="st0" d="M329.8,479.3c-3.3,2-6.5,4-9.8,6"/>
<path class="st0" d="M256.5,521.2c-0.6,0.3-1.1,0.6-1.7,0.9"/>
<path class="st0" d="M176.6,558.8c-1.2,0.5-2.4,1-3.6,1.5"/>
<path class="st0" d="M551.5,266.2c-1.3,1.4-2.5,2.8-3.8,4.2"/>
<path class="st0" d="M545.2,273.1c-5.5,6-11.1,12-16.7,17.9"/>
<path class="st0" d="M524.6,295.1c-0.4,0.5-0.9,0.9-1.3,1.4"/>
<path class="st0" d="M519.3,300.5c-0.4,0.5-0.9,0.9-1.3,1.4"/>
<path class="st0" d="M512.8,307.2c-3.5,3.6-7.1,7.1-10.7,10.6"/>
<path class="st0" d="M498,321.7c-0.4,0.4-0.9,0.9-1.3,1.3"/>
<path class="st0" d="M492.5,326.9c-0.4,0.4-0.9,0.8-1.3,1.3"/>
<path class="st0" d="M488.4,330.8c-6.8,6.5-13.8,12.8-20.8,19.1"/>
<path class="st0" d="M466.2,351.2c-1.4,1.2-2.8,2.5-4.2,3.7"/>
<path class="st0" d="M450.7,364.8c-1.4,1.2-2.9,2.4-4.3,3.7"/>
<path class="st0" d="M444.9,369.7c-1.4,1.2-2.9,2.4-4.3,3.6"/>
<path class="st0" d="M437.7,375.7c-1.9,1.6-3.9,3.2-5.8,4.8"/>
<path class="st0" d="M424.6,386.4c-1.5,1.2-3,2.4-4.4,3.6"/>
<path class="st0" d="M405.3,401.5c-0.5,0.4-1,0.8-1.5,1.2"/>
<path class="st0" d="M378.2,421.7c-0.5,0.4-1,0.7-1.5,1.1"/>
<path class="st0" d="M329.8,454.5c-1.6,1-3.2,2-4.8,3"/>
<path class="st0" d="M292.9,477.1c-3.2,1.9-6.5,3.8-9.8,5.6"/>
<path class="st0" d="M278.2,485.5c-1.7,0.9-3.3,1.9-5,2.8"/>
<path class="st0" d="M261.7,494.6c-1.1,0.6-2.2,1.2-3.3,1.8"/>
<path class="st0" d="M224.9,513.6c-1.7,0.8-3.4,1.7-5.1,2.5"/>
<path class="st0" d="M151,546.6c-1.7,0.7-3.5,1.4-5.2,2.1"/>
<path class="st0" d="M561.3,222.8c-1.6,1.9-3.2,3.8-4.7,5.7"/>
<path class="st0" d="M546.9,239.7c-2,2.3-4,4.6-6.1,6.9"/>
<path class="st0" d="M538.4,249.4c-4.5,5.1-9,10.1-13.6,15"/>
<path class="st0" d="M523.5,265.8c-8,8.6-16.1,17-24.3,25.3"/>
<path class="st0" d="M488.7,301.5c-7,6.9-14.2,13.7-21.4,20.4"/>
<path class="st0" d="M465.9,323.1c-1.4,1.2-2.7,2.5-4.1,3.7"/>
<path class="st0" d="M460.5,328.1c-6.4,5.8-12.8,11.5-19.3,17.1"/>
<path class="st0" d="M437,348.8c-0.5,0.4-0.9,0.8-1.4,1.2"/>
<path class="st0" d="M414.3,367.7c-1,0.8-1.9,1.6-2.9,2.3"/>
<path class="st0" d="M408.6,372.4c-3.4,2.7-6.7,5.3-10.1,8"/>
<path class="st0" d="M362.9,406.8c-2,1.4-4,2.9-6,4.3"/>
<path class="st0" d="M341.6,421.6c-0.5,0.3-1,0.7-1.5,1"/>
<path class="st0" d="M299.7,448.6c-5.8,3.5-11.6,7-17.4,10.4"/>
<path class="st0" d="M251.8,476.2c-1.6,0.9-3.2,1.7-4.9,2.6"/>
<path class="st0" d="M225.6,489.8c-0.6,0.3-1.1,0.6-1.7,0.8"/>
<path class="st0" d="M220.6,492.3c-1.6,0.8-3.3,1.6-5,2.5"/>
<path class="st0" d="M172.1,515c-1.7,0.7-3.4,1.5-5.1,2.2"/>
<path class="st0" d="M550.9,202.4c-4.2,5.1-8.5,10.2-12.8,15.3"/>
<path class="st0" d="M535.8,220.4c-7.1,8.2-14.2,16.4-21.6,24.4"/>
<path class="st0" d="M509.3,250.1c-3.7,4-7.4,7.9-11.2,11.9"/>
<path class="st0" d="M494.4,265.9c-6.7,6.9-13.5,13.8-20.4,20.5"/>
<path class="st0" d="M463.6,296.5c-0.4,0.4-0.9,0.8-1.3,1.3"/>
<path class="st0" d="M458.3,301.5c-5.7,5.4-11.5,10.7-17.3,15.9"/>
<path class="st0" d="M430.2,327c-1.8,1.6-3.6,3.2-5.5,4.7"/>
<path class="st0" d="M416.4,338.8c-6.5,5.4-13,10.8-19.6,16.1"/>
<path class="st0" d="M388.4,361.6c-1.9,1.5-3.8,3-5.7,4.4"/>
<path class="st0" d="M378.4,369.3c-0.5,0.4-1,0.7-1.4,1.1"/>
<path class="st0" d="M366.8,378c-3.4,2.5-6.8,5-10.2,7.5"/>
<path class="st0" d="M349.2,390.8c-2.5,1.7-4.9,3.5-7.4,5.2"/>
<path class="st0" d="M334.4,401.2c-3,2-6,4.1-9,6.1"/>
<path class="st0" d="M267.1,443.6c-1.6,0.9-3.2,1.8-4.7,2.7"/>
<path class="st0" d="M251.3,452.5c-1.6,0.9-3.2,1.7-4.7,2.6"/>
<path class="st0" d="M188.5,484.6c-0.6,0.3-1.1,0.5-1.7,0.8"/>
<path class="st0" d="M120.2,513.6c-1.7,0.7-3.4,1.3-5.1,1.9"/>
<path class="st0" d="M111.8,516.8c-0.6,0.2-1.1,0.4-1.7,0.6"/>
<path class="st0" d="M99.9,521.2c-1.1,0.4-2.3,0.8-3.4,1.2"/>
<path class="st0" d="M549.1,171.1c-16.7,21.4-34.3,42.2-52.7,62.2"/>
<path class="st0" d="M492.7,237.2c-2.4,2.6-4.9,5.2-7.3,7.8"/>
<path class="st0" d="M483,247.5c-4.1,4.3-8.2,8.5-12.4,12.7"/>
<path class="st0" d="M466.9,264c-2.1,2.1-4.2,4.2-6.3,6.2"/>
<path class="st0" d="M456.8,274c-2.5,2.5-5.1,4.9-7.6,7.4"/>
<path class="st0" d="M440.1,289.8c-0.4,0.4-0.8,0.8-1.3,1.2"/>
<path class="st0" d="M434.9,294.7c-0.9,0.8-1.7,1.6-2.6,2.4"/>
<path class="st0" d="M429.6,299.4c-1.8,1.6-3.5,3.2-5.3,4.7"/>
<path class="st0" d="M420.4,307.7c-5.3,4.7-10.7,9.3-16.1,13.9"/>
<path class="st0" d="M402.9,322.7c-2.3,1.9-4.5,3.8-6.8,5.7"/>
<path class="st0" d="M387.9,335.1c-6.9,5.6-13.8,11.1-20.9,16.5"/>
<path class="st0" d="M361.4,355.9c-1.4,1.1-2.8,2.1-4.2,3.2"/>
<path class="st0" d="M345.7,367.5c-10,7.3-20.2,14.4-30.5,21.3"/>
<path class="st0" d="M283.9,409c-1.5,0.9-3,1.9-4.6,2.8"/>
<path class="st0" d="M262.7,421.8c-0.5,0.3-1,0.6-1.5,0.9"/>
<path class="st0" d="M224,443.4c-4.7,2.5-9.4,4.9-14.2,7.4"/>
<path class="st0" d="M147.2,480c-3.8,1.6-7.6,3.2-11.4,4.8"/>
<path class="st0" d="M116,492.7c-2.8,1.1-5.5,2.1-8.3,3.2"/>
<path class="st0" d="M392.1,318.1c-1.4,1.1-2.7,2.3-4.1,3.4"/>
<path class="st0" d="M541,147.2c-0.7,0.9-1.4,1.9-2.1,2.8"/>
<path class="st0" d="M522.8,170.4c-30.2,37.4-63,72.6-98.3,105.2"/>
<path class="st0" d="M418.1,281.5C404.4,294,390.4,306,376,317.7"/>
<path class="st0" d="M369.3,323.2c-0.5,0.4-0.9,0.7-1.4,1.1"/>
<path class="st0" d="M357,332.8c-5,3.9-10.1,7.7-15.2,11.5"/>
<path class="st0" d="M340.3,345.4c-1.4,1-2.8,2.1-4.2,3.1"/>
<path class="st0" d="M327.7,354.6c-0.9,0.7-1.9,1.4-2.8,2"/>
<path class="st0" d="M320.7,359.6c-1.9,1.3-3.8,2.7-5.7,4"/>
<path class="st0" d="M309.2,367.5c-1.4,1-2.9,1.9-4.3,2.9"/>
<path class="st0" d="M299.2,374.3c-5.8,3.8-11.6,7.6-17.5,11.3"/>
<path class="st0" d="M266.9,394.8c-1,0.6-2,1.2-2.9,1.8"/>
<path class="st0" d="M255,402c-3,1.8-6,3.5-9,5.2"/>
<path class="st0" d="M231,415.8c-1,0.6-2,1.1-3.1,1.7"/>
<path class="st0" d="M224.9,419.1c-2,1.1-4.1,2.2-6.1,3.3"/>
<path class="st0" d="M183.2,440.6c-1.6,0.8-3.1,1.5-4.7,2.3"/>
<path class="st0" d="M154.9,453.8c-4.2,1.9-8.5,3.8-12.7,5.6"/>
<path class="st0" d="M79.1,484c-1.1,0.4-2.2,0.8-3.3,1.1"/>
<path class="st0" d="M67.6,488c-1.6,0.6-3.3,1.1-4.9,1.7"/>
<path class="st0" d="M390.5,292c-0.9,0.7-1.7,1.5-2.6,2.2"/>
<path class="st0" d="M513.9,148c-3.2,4-6.3,8-9.6,12"/>
<path class="st0" d="M495.7,170.4c-18.9,22.6-38.8,44.3-59.7,65.1"/>
<path class="st0" d="M432.4,239.1c-9.3,9.1-18.7,18.1-28.4,26.9"/>
<path class="st0" d="M392.6,276.2c-1.3,1.1-2.6,2.3-3.9,3.4"/>
<path class="st0" d="M387.5,280.7c-5.1,4.5-10.3,8.9-15.5,13.2"/>
<path class="st0" d="M368,297.1c-0.4,0.4-0.9,0.7-1.3,1.1"/>
<path class="st0" d="M362.8,301.5c-6.6,5.4-13.3,10.6-20,15.8"/>
<path class="st0" d="M341.5,318.3c-1.8,1.4-3.6,2.8-5.4,4.1"/>
<path class="st0" d="M334.7,323.4c-5,3.7-10,7.4-15,11.1"/>
<path class="st0" d="M310,341.5c-1.4,1-2.8,2-4.2,2.9"/>
<path class="st0" d="M304.4,345.4c-5.1,3.6-10.3,7.1-15.4,10.5"/>
<path class="st0" d="M283.3,359.6c-1.9,1.2-3.8,2.5-5.7,3.7"/>
<path class="st0" d="M261.8,373.3c-5.3,3.3-10.6,6.5-16,9.7"/>
<path class="st0" d="M204.3,406.3c-1.5,0.8-3,1.6-4.5,2.4"/>
<path class="st0" d="M193.8,411.8c-5,2.6-10.1,5.1-15.2,7.6"/>
<path class="st0" d="M115,448c-6.8,2.8-13.7,5.5-20.6,8.1"/>
<path class="st0" d="M39.9,474.9c-1.1,0.3-2.2,0.7-3.3,1"/>
<path class="st0" d="M520,122.8c-0.3,0.5-0.7,0.9-1,1.4"/>
<path class="st0" d="M514.9,129.5c-0.3,0.4-0.7,0.9-1,1.3"/>
<path class="st0" d="M287.3,344.3c-1.4,0.9-2.8,1.9-4.2,2.8"/>
<path class="st0" d="M494.3,138.9c-5.9,7.4-11.8,14.7-17.9,21.9"/>
<path class="st0" d="M467.7,170.8c-23.3,26.8-48,52.2-74.2,76.3"/>
<path class="st0" d="M391.1,249.3c-4.1,3.7-8.2,7.5-12.4,11.1"/>
<path class="st0" d="M362.4,274.5c-6.8,5.7-13.6,11.3-20.6,16.9"/>
<path class="st0" d="M340.5,292.4c-8.7,6.9-17.5,13.6-26.4,20.2"/>
<path class="st0" d="M310,315.6c-0.9,0.7-1.8,1.3-2.7,2"/>
<path class="st0" d="M282.8,334.7c-3.2,2.2-6.4,4.3-9.7,6.5"/>
<path class="st0" d="M262,348.4c-0.5,0.3-0.9,0.6-1.4,0.9"/>
<path class="st0" d="M256.4,352c-3.3,2.1-6.6,4.1-9.9,6.1"/>
<path class="st0" d="M240.8,361.6c-1.4,0.9-2.9,1.7-4.3,2.6"/>
<path class="st0" d="M220.7,373.4c-7.2,4.1-14.5,8.1-21.8,12.1"/>
<path class="st0" d="M194.5,387.8c-3.4,1.8-6.9,3.6-10.3,5.4"/>
<path class="st0" d="M146.8,411.3c-4.5,2.1-9.1,4.1-13.7,6.2"/>
<path class="st0" d="M104,429.8c-1.5,0.6-3.1,1.2-4.6,1.8"/>
<path class="st0" d="M73,441.6c-5.2,1.9-10.4,3.7-15.7,5.5"/>
<path class="st0" d="M41.5,452.4c-6.8,2.2-13.7,4.3-20.6,6.4"/>
<path class="st0" d="M477.9,125.8c-9.4,11.9-19.2,23.5-29.2,34.9"/>
<path class="st0" d="M440,170.5c-23.6,26.1-48.7,50.9-75.1,74.2"/>
<path class="st0" d="M362.4,246.8c-2.9,2.5-5.7,5-8.6,7.5"/>
<path class="st0" d="M346.4,260.6c-10.4,8.7-21,17.2-31.8,25.4"/>
<path class="st0" d="M309.4,289.9c-10.4,7.8-20.9,15.4-31.7,22.8"/>
<path class="st0" d="M257.5,326.3c-0.9,0.6-1.8,1.2-2.7,1.8"/>
<path class="st0" d="M252,329.9c-5.5,3.5-11,7-16.5,10.4"/>
<path class="st0" d="M231.4,342.8c-5.6,3.4-11.2,6.7-16.8,9.9"/>
<path class="st0" d="M201.9,359.9c-1,0.5-1.9,1.1-2.9,1.6"/>
<path class="st0" d="M189,366.9c-3.3,1.8-6.7,3.6-10.1,5.3"/>
<path class="st0" d="M173.2,375.2c-1.9,1-3.9,2-5.8,2.9"/>
<path class="st0" d="M157.1,383.2c-1.9,1-3.9,1.9-5.9,2.8"/>
<path class="st0" d="M136.6,393c-2,0.9-3.9,1.8-5.9,2.7"/>
<path class="st0" d="M117.2,401.5c-0.5,0.2-1,0.4-1.5,0.6"/>
<path class="st0" d="M105.2,406.6c-3.5,1.5-7,2.9-10.5,4.3"/>
<path class="st0" d="M78,417.4c-4.6,1.7-9.1,3.4-13.7,5.1"/>
<path class="st0" d="M482.5,102.8c-1.3,1.7-2.6,3.4-3.9,5.1"/>
<path class="st0" d="M288.9,292c-1.7,1.3-3.5,2.5-5.2,3.8"/>
<path class="st0" d="M456.5,119c-11.3,14-23.1,27.7-35.2,41"/>
<path class="st0" d="M411.5,170.4c-25.4,27-52.5,52.4-81.1,76.1"/>
<path class="st0" d="M320.6,254.6c-2.1,1.7-4.1,3.3-6.2,5"/>
<path class="st0" d="M309.4,263.5c-12.1,9.5-24.5,18.6-37,27.5"/>
<path class="st0" d="M271.1,291.8c-1.3,0.9-2.6,1.8-3.9,2.7"/>
<path class="st0" d="M264.5,296.4c-0.9,0.6-1.7,1.2-2.6,1.8"/>
<path class="st0" d="M248.7,307c-4,2.6-8,5.2-12,7.8"/>
<path class="st0" d="M232.7,317.3c-0.5,0.3-0.9,0.6-1.4,0.8"/>
<path class="st0" d="M223.2,323.2c-0.9,0.5-1.8,1.1-2.7,1.6"/>
<path class="st0" d="M188.9,343.1c-0.5,0.3-0.9,0.5-1.4,0.8"/>
<path class="st0" d="M183.3,346.2c-5.1,2.8-10.3,5.5-15.4,8.2"/>
<path class="st0" d="M152.2,362.3c-3.3,1.6-6.7,3.3-10,4.9"/>
<path class="st0" d="M124.9,375.2c-8.2,3.7-16.4,7.3-24.7,10.8"/>
<path class="st0" d="M84,392.6c-2,0.8-3.9,1.6-5.9,2.3"/>
<path class="st0" d="M46.7,406.4c-0.5,0.2-1,0.3-1.5,0.5"/>
<path class="st0" d="M42.2,407.9c-3.5,1.2-7.1,2.4-10.6,3.5"/>
<path class="st0" d="M30.2,411.9c-3,1-6.1,2-9.1,2.9"/>
<path class="st0" d="M460,97.6c-1.3,1.7-2.6,3.3-3.9,5"/>
<path class="st0" d="M447.3,113.6c-1.3,1.6-2.6,3.2-4,4.9"/>
<path class="st0" d="M441.3,120.9c-0.7,0.8-1.3,1.6-2,2.4"/>
<path class="st0" d="M441.1,104.5c-15.6,19.3-32,38-49.2,56"/>
<path class="st0" d="M382.2,170.5c-8.4,8.5-16.9,16.8-25.6,24.9"/>
<path class="st0" d="M355.5,196.5c-8.3,7.8-16.8,15.4-25.4,22.8"/>
<path class="st0" d="M325.4,223.4c-3.9,3.4-7.9,6.7-11.9,9.9"/>
<path class="st0" d="M309.8,236.3c-1.2,1-2.4,2-3.6,2.9"/>
<path class="st0" d="M294,248.8c-7,5.4-14,10.7-21.1,15.9"/>
<path class="st0" d="M271.7,265.6c-1.3,0.9-2.5,1.8-3.8,2.7"/>
<path class="st0" d="M265.4,270.1c-9.7,6.9-19.5,13.6-29.5,20.1"/>
<path class="st0" d="M226.7,296.2c-11.8,7.5-23.7,14.7-35.9,21.7"/>
<path class="st0" d="M184.1,321.7c-0.4,0.2-0.9,0.5-1.3,0.7"/>
<path class="st0" d="M173.3,327.7c-5.5,3-10.9,5.9-16.5,8.7"/>
<path class="st0" d="M152.6,338.6c-5.5,2.8-11.1,5.6-16.7,8.3"/>
<path class="st0" d="M110.6,358.6c-1.9,0.8-3.8,1.7-5.7,2.5"/>
<path class="st0" d="M99.2,363.6c-3.3,1.4-6.7,2.8-10,4.2"/>
<path class="st0" d="M79.1,371.9c-7.2,2.9-14.5,5.7-21.8,8.4"/>
<path class="st0" d="M47.2,384c-1.5,0.5-2.9,1-4.4,1.5"/>
<path class="st0" d="M36.9,387.6c-3.4,1.2-6.9,2.3-10.3,3.5"/>
<path class="st0" d="M445.3,82.3c-2.5,3.2-5,6.5-7.6,9.7"/>
<path class="st0" d="M429.1,102.7c-1.3,1.6-2.6,3.2-3.9,4.7"/>
<path class="st0" d="M414.3,120.3c-1,1.2-2,2.3-3,3.5"/>
<path class="st0" d="M404.2,131.8c-0.7,0.8-1.4,1.5-2.1,2.3"/>
<path class="st0" d="M388.6,148.8c-0.3,0.4-0.7,0.7-1,1.1"/>
<path class="st0" d="M160.1,322.9c-0.9,0.5-1.8,0.9-2.7,1.4"/>
<path class="st0" d="M423.8,92.5c-19.1,23.6-39.4,46.1-60.9,67.6"/>
<path class="st0" d="M352.2,170.7c-13.1,12.6-26.6,24.9-40.4,36.7"/>
<path class="st0" d="M309.4,209.4c-10,8.5-20.3,16.7-30.7,24.7"/>
<path class="st0" d="M272.7,238.7c-3.6,2.7-7.3,5.4-10.9,8.1"/>
<path class="st0" d="M258.1,249.5c-4.9,3.6-9.9,7.1-14.9,10.5"/>
<path class="st0" d="M240.8,261.8c-8.3,5.7-16.8,11.3-25.3,16.7"/>
<path class="st0" d="M205.2,284.9c-5.6,3.5-11.2,6.8-16.9,10.2"/>
<path class="st0" d="M185.7,296.6c-0.9,0.5-1.8,1-2.6,1.5"/>
<path class="st0" d="M177.8,301.2c-3.5,2-7,4-10.6,5.9"/>
<path class="st0" d="M152.5,315c-1.8,0.9-3.6,1.9-5.4,2.8"/>
<path class="st0" d="M136.3,323.3c-1.8,0.9-3.6,1.8-5.4,2.7"/>
<path class="st0" d="M120,331.2c-1.4,0.6-2.7,1.3-4.1,1.9"/>
<path class="st0" d="M104.8,338.2c-4.1,1.9-8.3,3.7-12.5,5.5"/>
<path class="st0" d="M79.8,349c-0.5,0.2-0.9,0.4-1.4,0.6"/>
<path class="st0" d="M72.7,351.9c-3.3,1.3-6.6,2.6-9.9,3.9"/>
<path class="st0" d="M57.2,357.9c-1.4,0.5-2.8,1.1-4.2,1.6"/>
<path class="st0" d="M41.6,363.7c-1.4,0.5-2.9,1-4.3,1.5"/>
<path class="st0" d="M31.6,367.2c-1.9,0.7-3.8,1.3-5.7,2"/>
<path class="st0" d="M22.9,370.1c-0.5,0.2-1,0.3-1.4,0.5"/>
<path class="st0" d="M423.2,76.6c-0.9,1.2-1.9,2.3-2.8,3.5"/>
<path class="st0" d="M410.9,91.7c-0.6,0.8-1.3,1.5-1.9,2.3"/>
<path class="st0" d="M406.2,97.5c-7.4,8.8-14.9,17.4-22.7,25.9"/>
<path class="st0" d="M373.3,134.4c-0.3,0.4-0.7,0.7-1,1.1"/>
<path class="st0" d="M361.9,146.3c-1,1.1-2.1,2.1-3.1,3.2"/>
<path class="st0" d="M351.3,156.9c-1.1,1-2.1,2.1-3.2,3.1"/>
<path class="st0" d="M336.2,171.4c-1.5,1.4-2.9,2.7-4.4,4.1"/>
<path class="st0" d="M403.8,83.9c-9.7,11.8-19.7,23.4-30.1,34.6"/>
<path class="st0" d="M372.7,119.6c-1.3,1.5-2.7,2.9-4,4.3"/>
<path class="st0" d="M367.7,125.1c-1.3,1.4-2.7,2.9-4.1,4.3"/>
<path class="st0" d="M362.6,130.4c-9.9,10.4-20,20.5-30.3,30.3"/>
<path class="st0" d="M321.4,170.8c-22.2,20.3-45.4,39.5-69.6,57.3"/>
<path class="st0" d="M244.6,233.4c-12.8,9.2-25.8,18.1-39.1,26.6"/>
<path class="st0" d="M204.2,260.8c-2.1,1.3-4.2,2.6-6.3,4"/>
<path class="st0" d="M189.1,270.2c-10.5,6.4-21.2,12.6-32,18.5"/>
<path class="st0" d="M142.8,296.4c-0.4,0.2-0.9,0.5-1.3,0.7"/>
<path class="st0" d="M136.2,299.8c-1.3,0.7-2.6,1.3-3.9,2"/>
<path class="st0" d="M130.9,302.5c-8.8,4.4-17.7,8.7-26.6,12.9"/>
<path class="st0" d="M84,324.4c-1.8,0.8-3.6,1.6-5.4,2.3"/>
<path class="st0" d="M67.6,331.3c-5,2-10.1,4-15.1,6"/>
<path class="st0" d="M47,339.4c-5.1,1.9-10.2,3.8-15.3,5.6"/>
<path class="st0" d="M26.1,346.9c-1.9,0.6-3.7,1.3-5.6,1.9"/>
<path class="st0" d="M404,67c-1.2,1.5-2.4,3-3.7,4.6"/>
<path class="st0" d="M392,81.7c-1.2,1.5-2.5,3-3.8,4.5"/>
<path class="st0" d="M387.2,87.3c-1.3,1.5-2.5,3-3.8,4.4"/>
<path class="st0" d="M373.8,102.8c-1.6,1.8-3.3,3.6-4.9,5.4"/>
<path class="st0" d="M362,115.7c-0.7,0.7-1.3,1.4-2,2.2"/>
<path class="st0" d="M344.8,133.7c-1.4,1.4-2.7,2.8-4.1,4.1"/>
<path class="st0" d="M333.5,145c-1,1-2.1,2-3.1,3"/>
<path class="st0" d="M130.1,291.1c-1.3,0.7-2.6,1.3-3.9,2"/>
<path class="st0" d="M58.3,323.7c-1.8,0.7-3.6,1.4-5.4,2.1"/>
<path class="st0" d="M383,76.1c-12,14.4-24.6,28.4-37.6,41.9"/>
<path class="st0" d="M341.4,122.2c-12.7,13.1-25.9,25.8-39.5,38"/>
<path class="st0" d="M290,170.7c-19.3,16.7-39.3,32.5-60,47.3"/>
<path class="st0" d="M214.6,228.8c-7.5,5.1-15.2,10.2-22.9,15.1"/>
<path class="st0" d="M189.3,245.4c-4.9,3.1-9.8,6.1-14.7,9.1"/>
<path class="st0" d="M162.1,261.8c-1.7,1-3.3,1.9-5,2.9"/>
<path class="st0" d="M155.8,265.4c-6.3,3.6-12.6,7-19,10.4"/>
<path class="st0" d="M127.9,280.5c-4.3,2.2-8.6,4.4-12.9,6.5"/>
<path class="st0" d="M109.8,289.5c-1.3,0.6-2.6,1.3-3.9,1.9"/>
<path class="st0" d="M104.6,292c-3.5,1.7-7,3.3-10.5,4.9"/>
<path class="st0" d="M78.4,304c-6.6,2.9-13.3,5.7-20,8.4"/>
<path class="st0" d="M57.1,312.9c-1.3,0.5-2.7,1.1-4,1.6"/>
<path class="st0" d="M47.7,316.6c-1.8,0.7-3.6,1.4-5.4,2.1"/>
<path class="st0" d="M36.9,320.7c-3.6,1.3-7.2,2.7-10.8,3.9"/>
<path class="st0" d="M369.4,75.9c-0.6,0.7-1.2,1.4-1.8,2.1"/>
<path class="st0" d="M364.8,81.3c-0.9,1.1-1.9,2.2-2.8,3.2"/>
<path class="st0" d="M360.1,86.7c-0.9,1.1-1.9,2.1-2.8,3.2"/>
<path class="st0" d="M355.3,92c-2.9,3.2-5.7,6.3-8.6,9.4"/>
<path class="st0" d="M345.7,102.5c-3.2,3.5-6.5,6.9-9.8,10.3"/>
<path class="st0" d="M319.8,129c-1.7,1.7-3.4,3.3-5.1,4.9"/>
<path class="st0" d="M309.6,138.9c-1.7,1.6-3.5,3.3-5.2,4.9"/>
<path class="st0" d="M303.3,144.7c-1.4,1.3-2.8,2.6-4.2,3.9"/>
<path class="st0" d="M291.7,155.3c-1.1,0.9-2.1,1.9-3.2,2.8"/>
<path class="st0" d="M367.8,61.6c-29.7,35.7-62.5,68.7-97.9,98.8"/>
<path class="st0" d="M256.9,171.1c-17.8,14.5-36.3,28.2-55.3,41.1"/>
<path class="st0" d="M188.8,220.8c-7.1,4.6-14.2,9.1-21.4,13.5"/>
<path class="st0" d="M162.5,237.2c-3.6,2.2-7.2,4.3-10.9,6.4"/>
<path class="st0" d="M141.8,249.2c-7,3.9-14,7.7-21.1,11.4"/>
<path class="st0" d="M112,265c-0.4,0.2-0.8,0.4-1.3,0.6"/>
<path class="st0" d="M104.5,268.8c-6.7,3.3-13.5,6.5-20.3,9.7"/>
<path class="st0" d="M73.9,283.1c-3.9,1.7-7.7,3.4-11.6,5"/>
<path class="st0" d="M57.1,290.2c-0.9,0.4-1.7,0.7-2.6,1.1"/>
<path class="st0" d="M51.9,292.4c-5.2,2.1-10.4,4.2-15.7,6.2"/>
<path class="st0" d="M30.9,300.6c-3.5,1.3-7,2.6-10.6,3.9"/>
<path class="st0" d="M357,58.1c-3.6,4.2-7.2,8.5-10.9,12.6"/>
<path class="st0" d="M325.6,93.2c-1.3,1.3-2.6,2.7-3.8,4"/>
<path class="st0" d="M316.9,102.2c-0.6,0.7-1.3,1.3-1.9,2"/>
<path class="st0" d="M306.1,113c-0.7,0.7-1.3,1.3-2,2"/>
<path class="st0" d="M290.1,128.4c-0.3,0.3-0.7,0.6-1,1"/>
<path class="st0" d="M349.9,50.3c-33.8,40.2-71.5,77-112.6,109.7"/>
<path class="st0" d="M223.2,170.9c-9.5,7.2-19.1,14.1-28.8,20.9"/>
<path class="st0" d="M188.7,195.7c-5.3,3.6-10.6,7.1-16,10.6"/>
<path class="st0" d="M162.3,212.8c-8.5,5.3-17.2,10.4-25.9,15.4"/>
<path class="st0" d="M125.6,234.2c-6.8,3.7-13.7,7.4-20.6,10.9"/>
<path class="st0" d="M94,250.6c-6.6,3.2-13.2,6.3-19.8,9.4"/>
<path class="st0" d="M62.9,264.9c-1.7,0.7-3.4,1.5-5,2.2"/>
<path class="st0" d="M52.8,269.3c-0.8,0.4-1.7,0.7-2.5,1.1"/>
<path class="st0" d="M47.8,271.4C38.9,275,30,278.5,21,281.8"/>
<path class="st0" d="M10.7,285.6c-0.4,0.2-0.9,0.3-1.3,0.5"/>
<path class="st0" d="M335.7,50.7c-5.9,6.8-11.9,13.6-18,20.2"/>
<path class="st0" d="M315,73.9c-0.6,0.7-1.2,1.3-1.8,2"/>
<path class="st0" d="M309.4,79.8c-0.6,0.7-1.3,1.3-1.9,2"/>
<path class="st0" d="M297.2,92.4c-1.6,1.6-3.2,3.2-4.8,4.8"/>
<path class="st0" d="M283.7,105.6c-2,1.9-3.9,3.7-5.9,5.6"/>
<path class="st0" d="M267.8,120.3c-1.3,1.2-2.7,2.4-4,3.6"/>
<path class="st0" d="M257.7,129.3c-1.7,1.5-3.4,2.9-5.1,4.4"/>
<path class="st0" d="M325.2,46.9c-36.5,42-77.4,79.8-122.1,112.9"/>
<path class="st0" d="M187.9,170.7c-13.1,9.2-26.5,18-40.1,26.3"/>
<path class="st0" d="M136.4,203.9c-8,4.7-16.2,9.3-24.4,13.8"/>
<path class="st0" d="M101.4,223.3c-3.9,2-7.9,4.1-11.9,6"/>
<path class="st0" d="M78.7,234.6c-5.2,2.5-10.4,4.9-15.7,7.3"/>
<path class="st0" d="M47.2,248.9c-8.6,3.6-17.3,7.1-26,10.5"/>
<path class="st0" d="M335.8,17.8c-1.6,2-3.3,4.1-5,6.1"/>
<path class="st0" d="M320.7,36c-2,2.3-4,4.6-6,6.9"/>
<path class="st0" d="M312.9,45c-1.2,1.3-2.3,2.6-3.5,3.9"/>
<path class="st0" d="M308.5,49.9c-1.5,1.6-2.9,3.2-4.4,4.8"/>
<path class="st0" d="M303.2,55.7c-8,8.7-16.2,17.2-24.6,25.6"/>
<path class="st0" d="M268.2,91.3c-1.9,1.8-3.8,3.6-5.8,5.4"/>
<path class="st0" d="M256.7,102.1c-1.9,1.8-3.9,3.5-5.9,5.3"/>
<path class="st0" d="M241.9,115.2c-2,1.7-4,3.4-6,5.1"/>
<path class="st0" d="M225.8,128.7c-1.7,1.4-3.4,2.8-5.1,4.1"/>
<path class="st0" d="M215.6,137c-1,0.8-2.1,1.6-3.1,2.4"/>
<path class="st0" d="M205.2,145c-2.1,1.6-4.2,3.2-6.3,4.8"/>
<path class="st0" d="M189.4,156.8c-1.4,1-2.8,2-4.3,3.1"/>
<path class="st0" d="M169.9,170.3c-0.7,0.5-1.4,1-2.2,1.5"/>
<path class="st0" d="M312.7,29.2c-39.4,46-84.3,87-133.7,122.1"/>
<path class="st0" d="M168.4,158.7c-0.7,0.5-1.4,1-2.2,1.5"/>
<path class="st0" d="M150,170.9c-11.3,7.2-22.7,14.2-34.4,20.8"/>
<path class="st0" d="M106.6,196.7c-5.7,3.1-11.4,6.2-17.2,9.1"/>
<path class="st0" d="M79,211.1c-1.9,1-3.9,1.9-5.8,2.9"/>
<path class="st0" d="M57.9,221.2c-2,0.9-3.9,1.8-5.9,2.7"/>
<path class="st0" d="M42.5,228c-7.1,3.1-14.3,6-21.6,8.9"/>
<path class="st0" d="M309.7,16.5c-0.5,0.6-1.1,1.3-1.6,1.9"/>
<path class="st0" d="M298.9,29.1c-3.4,3.8-6.8,7.6-10.2,11.4"/>
<path class="st0" d="M284.3,45.2c-0.3,0.3-0.6,0.6-0.9,0.9"/>
<path class="st0" d="M279.9,49.9c-0.6,0.6-1.2,1.2-1.8,1.8"/>
<path class="st0" d="M274.6,55.4c-3.9,4-7.8,7.9-11.7,11.8"/>
<path class="st0" d="M259.2,70.8c-0.6,0.6-1.2,1.2-1.8,1.8"/>
<path class="st0" d="M253.7,76.1c-0.6,0.6-1.2,1.2-1.8,1.7"/>
<path class="st0" d="M241.6,87.4c-1.9,1.7-3.8,3.4-5.7,5.1"/>
<path class="st0" d="M231.1,96.8c-0.3,0.3-0.6,0.6-1,0.8"/>
<path class="st0" d="M224.3,102.7c-1.3,1.1-2.6,2.2-3.9,3.3"/>
<path class="st0" d="M204.6,118.9c-2,1.6-4,3.2-6,4.7"/>
<path class="st0" d="M189.4,130.7c-2,1.5-4.1,3.1-6.1,4.6"/>
<path class="st0" d="M178.1,139c-1.7,1.3-3.5,2.5-5.2,3.7"/>
<path class="st0" d="M125.9,173.5c-1.5,0.9-2.9,1.8-4.4,2.6"/>
<path class="st0" d="M294.3,18.4c-47.9,55.3-104,103.1-166.3,141.5"/>
<path class="st0" d="M110.7,170.3c-6.5,3.8-13.1,7.5-19.8,11.1"/>
<path class="st0" d="M78.7,187.8c-2.6,1.3-5.3,2.7-7.9,4"/>
<path class="st0" d="M60.6,196.8c-1.1,0.5-2.3,1.1-3.4,1.6"/>
<path class="st0" d="M46.9,203.2c-1.5,0.7-3.1,1.4-4.6,2.1"/>
<path class="st0" d="M31.9,209.8c-3.5,1.5-7,2.9-10.5,4.4"/>
<path class="st0" d="M279.8,19c-1.4,1.5-2.8,3.1-4.2,4.6"/>
<path class="st0" d="M270.6,29.1c-0.8,0.9-1.7,1.8-2.5,2.7"/>
<path class="st0" d="M265.5,34.6c-1.7,1.8-3.4,3.6-5.1,5.4"/>
<path class="st0" d="M256.9,43.5c-0.3,0.3-0.6,0.6-0.9,0.9"/>
<path class="st0" d="M251.7,48.8c-0.3,0.3-0.6,0.6-0.9,0.9"/>
<path class="st0" d="M245.5,54.9c-1.2,1.2-2.4,2.3-3.6,3.5"/>
<path class="st0" d="M239.2,60.9c-1.8,1.7-3.6,3.4-5.4,5.1"/>
<path class="st0" d="M231.1,68.6c-0.9,0.8-1.8,1.7-2.7,2.5"/>
<path class="st0" d="M225.6,73.6c-1.5,1.4-3.1,2.8-4.6,4.1"/>
<path class="st0" d="M210.7,86.7c-6.3,5.4-12.7,10.6-19.2,15.8"/>
<path class="st0" d="M188.6,104.8c-1.3,1-2.6,2-3.9,3.1"/>
<path class="st0" d="M183.7,108.6c-3.6,2.8-7.2,5.5-10.9,8.2"/>
<path class="st0" d="M170.8,118.3c-1,0.7-2,1.5-3,2.2"/>
<path class="st0" d="M152.6,131.3c-1.4,0.9-2.7,1.9-4.1,2.8"/>
<path class="st0" d="M125.7,149c-0.4,0.2-0.7,0.4-1.1,0.7"/>
<path class="st0" d="M267.9,16.6c-0.6,0.6-1.1,1.2-1.7,1.8"/>
<path class="st0" d="M256.2,29.1c-1.4,1.5-2.8,2.9-4.2,4.4"/>
<path class="st0" d="M251.1,34.4c-1.4,1.5-2.9,2.9-4.3,4.4"/>
<path class="st0" d="M246,39.6c-47.2,47.5-101,88-159.7,120.3"/>
<path class="st0" d="M65.8,170.8c-2.5,1.3-5.1,2.6-7.7,3.8"/>
<path class="st0" d="M208.8,60.4c-1.2,1.1-2.4,2.1-3.6,3.2"/>
<path class="st0" d="M202.5,66c-3.9,3.4-7.9,6.8-11.9,10.1"/>
<path class="st0" d="M188.7,77.7c-3.4,2.8-6.8,5.6-10.3,8.3"/>
<path class="st0" d="M177.5,86.8c-1.3,1-2.5,2-3.8,3"/>
<path class="st0" d="M170.9,92c-1,0.7-1.9,1.5-2.9,2.2"/>
<path class="st0" d="M152.5,105.7c-1,0.7-2,1.4-2.9,2.1"/>
<path class="st0" d="M136.7,116.8c-1.7,1.1-3.3,2.3-5,3.4"/>
<path class="st0" d="M118.6,128.7c-1,0.7-2.1,1.3-3.1,1.9"/>
<path class="st0" d="M110.4,133.8c-1.7,1.1-3.4,2.1-5.2,3.1"/>
<path class="st0" d="M92.8,144.3c-1,0.6-2.1,1.2-3.1,1.8"/>
<path class="st0" d="M209.8,45.4c-3.5,3.2-7,6.4-10.6,9.5"/>
<path class="st0" d="M194.7,58.9c-0.6,0.5-1.2,1-1.8,1.6"/>
<path class="st0" d="M173.8,76.4c-0.3,0.2-0.6,0.5-0.9,0.7"/>
<path class="st0" d="M167.3,81.5c-1.6,1.2-3.1,2.4-4.7,3.6"/>
<path class="st0" d="M160.7,86.6c-4.4,3.4-8.8,6.7-13.3,9.9"/>
<path class="st0" d="M146.4,97.2c-33.4,24.1-68.9,45.1-106.1,62.7"/>
<path class="st0" d="M215.3,25.7c-1.1,1.1-2.2,2.2-3.4,3.2"/>
<path class="st0" d="M152.5,79.7c-0.6,0.5-1.2,0.9-1.9,1.4"/>
<path class="st0" d="M136.5,91.4c-0.3,0.2-0.6,0.5-1,0.7"/>
<g>
	<polyline class="st1" points="0.7,16.2 0.7,0 16.8,0 	"/>
	<polyline class="st1" points="569.1,642 585.3,642 585.3,625.8 	"/>
</g>
</svg>
