<?xml version="1.0" encoding="utf-8"?>
<!-- Generator: Adobe Illustrator 22.0.0, SVG Export Plug-In . SVG Version: 6.00 Build 0)  -->
<svg version="1.1"
	 id="Layer_1" inkscape:version="1.0 (4035a4f, 2020-05-01)" sodipodi:docname="11_cut.svg" xmlns:cc="http://creativecommons.org/ns#" xmlns:dc="http://purl.org/dc/elements/1.1/" xmlns:inkscape="http://www.inkscape.org/namespaces/inkscape" xmlns:rdf="http://www.w3.org/1999/02/22-rdf-syntax-ns#" xmlns:sodipodi="http://sodipodi.sourceforge.net/DTD/sodipodi-0.dtd" xmlns:svg="http://www.w3.org/2000/svg"
	 xmlns="http://www.w3.org/2000/svg" xmlns:xlink="http://www.w3.org/1999/xlink" x="0px" y="0px" viewBox="0 0 595.3 652"
	 style="enable-background:new 0 0 595.3 652;" xml:space="preserve">
<style type="text/css">
	.st0{fill:#181818;}
	.st1{fill:none;stroke:#EB3593;stroke-miterlimit:10;}
</style>
<sodipodi:namedview  bordercolor="#666666" borderopacity="1" gridtolerance="10" guidetolerance="10" id="namedview2394" inkscape:current-layer="Layer_1" inkscape:cx="-284.51619" inkscape:cy="-697.67474" inkscape:pageopacity="0" inkscape:pageshadow="2" inkscape:window-height="1395" inkscape:window-maximized="0" inkscape:window-width="1280" inkscape:window-x="0" inkscape:window-y="23" inkscape:zoom="0.15047867" objecttolerance="10" pagecolor="#ffffff" showgrid="false">
	</sodipodi:namedview>
<g id="g2373">
	<path id="path2371" class="st0" d="M281.1,12.1v590L155,84.9L281.1,12.1 M286.1,3.4l-7.5,4.3L152.5,80.5l-3.2,1.9l0.9,3.6
		l126,517.2l9.9,40.4V602V12V3.4L286.1,3.4z"/>
</g>
<g id="g2377">
	<path id="path2375" class="st0" d="M289,12.1l126.1,72.8L288.9,602.1L289,12.1 M284,3.4v8.7v590v41.6l9.9-40.4l126-517.2l0.9-3.6
		l-3.2-1.9L291.5,7.7L284,3.4L284,3.4z"/>
</g>
<g id="g2391">
	<polyline id="polyline2387" class="st1" points="0.7,16.2 0.7,0 16.8,0 	"/>
	<polyline id="polyline2389" class="st1" points="569.1,642 585.3,642 585.3,625.8 	"/>
</g>
<g id="g4299" transform="rotate(45,209.67251,171.80119)">
	<path id="path4297" class="st0" d="M34.2,189.2l510.9,295L419,557L34.2,189.2 M0.7,164.1l30.1,28.8l384.8,367.8l2.7,2.6l3.2-1.9
		l126.1-72.8l7.5-4.3l-7.5-4.3L36.7,185L0.7,164.1z"/>
</g>
<g id="g9134" transform="rotate(-45,380.07433,181.74703)">
	<path id="path9132" class="st0" d="M560.1,189.3L175.3,557.1L49.2,484.3L560.1,189.3 M593.6,164.2l-36,20.8L46.7,480l-7.5,4.3
		l7.5,4.3l126.1,72.8l3.2,1.9l2.7-2.6L563.6,193L593.6,164.2z"/>
</g>
</svg>
