<?xml version="1.0" encoding="utf-8"?>
<!-- Generator: Adobe Illustrator 22.0.0, SVG Export Plug-In . SVG Version: 6.00 Build 0)  -->
<svg version="1.1"
	 id="Layer_1" inkscape:version="1.0 (4035a4f, 2020-05-01)" sodipodi:docname="11_draw-white.svg" xmlns:cc="http://creativecommons.org/ns#" xmlns:dc="http://purl.org/dc/elements/1.1/" xmlns:inkscape="http://www.inkscape.org/namespaces/inkscape" xmlns:rdf="http://www.w3.org/1999/02/22-rdf-syntax-ns#" xmlns:sodipodi="http://sodipodi.sourceforge.net/DTD/sodipodi-0.dtd" xmlns:svg="http://www.w3.org/2000/svg"
	 xmlns="http://www.w3.org/2000/svg" xmlns:xlink="http://www.w3.org/1999/xlink" x="0px" y="0px" viewBox="0 0 595.3 652"
	 style="enable-background:new 0 0 595.3 652;" xml:space="preserve">
<style type="text/css">
	.st0{fill:none;stroke:#CCCCCC;stroke-linecap:round;}
	.st1{fill:none;stroke:#EB3593;stroke-miterlimit:10;}
	.st2{fill:none;stroke:#CCCCCC;stroke-width:1;stroke-linecap:round;}
</style>
<sodipodi:namedview  bordercolor="#666666" borderopacity="1" gridtolerance="10" guidetolerance="10" id="namedview3143" inkscape:current-layer="Layer_1" inkscape:cx="260.97095" inkscape:cy="687.341" inkscape:pageopacity="0" inkscape:pageshadow="2" inkscape:window-height="1395" inkscape:window-maximized="0" inkscape:window-width="1280" inkscape:window-x="1280" inkscape:window-y="23" inkscape:zoom="0.35216386" objecttolerance="10" pagecolor="#ffffff" showgrid="false" showguides="false">
	</sodipodi:namedview>
<path id="path2414" class="st0" d="M306.3,534.4c-1.7,0-3.5,0-5.2,0.1"/>
<path id="path2416" class="st0" d="M278.6,534.4c-1.7,0-3.5,0-5.2-0.1"/>
<path id="path2430" class="st0" d="M311.1,513.3c-1.7,0-3.4,0.1-5.1,0.1"/>
<path id="path2432" class="st0" d="M300.9,513.4c-1.7,0-3.4,0-5.1,0"/>
<path id="path2434" class="st0" d="M273.7,513.3c-1.7,0-3.4-0.1-5.1-0.1"/>
<path id="path2456" class="st0" d="M279.1,492.4c-1.7,0-3.3,0-5-0.1"/>
<path id="path2486" class="st0" d="M305.4,471.4c-1.6,0-3.3,0-4.9,0.1"/>
<path id="path2502" class="st0" d="M320.9,450c-3.2,0.1-6.4,0.2-9.6,0.3"/>
<path id="path2504" class="st0" d="M305,450.4c-3.2,0-6.3,0.1-9.5,0.1"/>
<path id="path2506" class="st0" d="M279.6,450.5c-6.9-0.1-13.8-0.2-20.6-0.5"/>
<path id="path2550" class="st0" d="M316.5,408.2c-5.6,0.2-11.1,0.3-16.7,0.3"/>
<path id="path2552" class="st0" d="M280.1,408.5c-7.1-0.1-14.2-0.3-21.2-0.5"/>
<path id="path2554" class="st0" d="M248.3,407.5c-2-0.1-4-0.2-6.1-0.3"/>
<path id="path2592" class="st0" d="M336.6,386.3c-3.4,0.2-6.9,0.4-10.3,0.5"/>
<path id="path2594" class="st0" d="M311.4,387.3c-3.4,0.1-6.9,0.1-10.3,0.2"/>
<path id="path2596" class="st0" d="M284.8,387.5c-3.4,0-6.9-0.1-10.3-0.1"/>
<path id="path2598" class="st0" d="M258.2,386.9c-3.4-0.1-6.9-0.3-10.3-0.5"/>
<path id="path2644" class="st0" d="M342.6,364.9c-1.9,0.1-3.8,0.2-5.8,0.3"/>
<path id="path2646" class="st0" d="M316.7,366.2c-5.3,0.2-10.6,0.3-15.9,0.3"/>
<path id="path2648" class="st0" d="M279.2,366.5c-3.4,0-6.8-0.1-10.1-0.2"/>
<path id="path2650" class="st0" d="M263.3,366.1c-1.4,0-2.9-0.1-4.3-0.2"/>
<path id="path2652" class="st0" d="M247.4,365.4c-1.4-0.1-2.9-0.2-4.3-0.2"/>
<path id="path2654" class="st0" d="M237.4,364.8c-1.9-0.1-3.8-0.3-5.8-0.4"/>
<path id="path2694" class="st0" d="M352.5,343.2c-3.3,0.3-6.5,0.5-9.8,0.7"/>
<path id="path2696" class="st0" d="M337.1,344.2c-3.3,0.2-6.5,0.4-9.8,0.5"/>
<path id="path2698" class="st0" d="M321.7,345c-1.9,0.1-3.7,0.1-5.6,0.2"/>
<path id="path2700" class="st0" d="M310.4,345.3c-6.6,0.2-13.1,0.2-19.7,0.2"/>
<path id="path2702" class="st0" d="M285.1,345.6c-7,0-14.1-0.2-21.1-0.4"/>
<path id="path2704" class="st0" d="M258.4,344.9c-12.2-0.5-24.3-1.3-36.5-2.3"/>
<path id="path2744" class="st0" d="M348.2,322.5c-3.6,0.3-7.3,0.5-10.9,0.7"/>
<path id="path2746" class="st0" d="M316.7,324.2c-3.7,0.1-7.3,0.2-11,0.3"/>
<path id="path2748" class="st0" d="M263.3,324.1c-3.2-0.1-6.4-0.2-9.6-0.4"/>
<path id="path2750" class="st0" d="M242.8,323.1c-5.5-0.3-10.9-0.7-16.4-1.2"/>
<path id="path2798" class="st0" d="M358.6,300.6c-21.3,1.9-42.6,2.9-63.9,3"/>
<path id="path2800" class="st0" d="M280.1,303.5c-21.3-0.3-42.6-1.5-63.9-3.6"/>
<path id="path2840" class="st0" d="M368.4,278.5c-8.6,0.9-17.2,1.7-25.8,2.3"/>
<path id="path2842" class="st0" d="M337.4,281.1c-3.5,0.2-6.9,0.4-10.4,0.6"/>
<path id="path2844" class="st0" d="M321.8,282c-1.7,0.1-3.5,0.1-5.2,0.2"/>
<path id="path2846" class="st0" d="M311.4,282.3c-3.5,0.1-6.9,0.2-10.4,0.2"/>
<path id="path2848" class="st0" d="M295.9,282.6c-2.2,0-4.3,0-6.5,0"/>
<path id="path2850" class="st0" d="M284.2,282.6c-6.9-0.1-13.8-0.2-20.7-0.5"/>
<path id="path2852" class="st0" d="M258.3,281.9c-3.5-0.2-6.9-0.3-10.4-0.5"/>
<path id="path2854" class="st0" d="M242.8,281.1c-1.7-0.1-3.4-0.2-5.2-0.4"/>
<path id="path2856" class="st0" d="M232.4,280.3c-8.6-0.7-17.2-1.5-25.8-2.5"/>
<path id="path2880" class="st0" d="M373.7,256.8c-1.7,0.2-3.3,0.4-5,0.6"/>
<path id="path2882" class="st0" d="M363.6,257.9c-8.8,0.9-17.5,1.6-26.3,2.2"/>
<path id="path2884" class="st0" d="M332.3,260.4c-7.1,0.4-14.3,0.7-21.4,0.9"/>
<path id="path2886" class="st0" d="M305.8,261.5c-5,0.1-10.1,0.2-15.1,0.2"/>
<path id="path2888" class="st0" d="M279.4,261.5c-7.1-0.1-14.3-0.3-21.4-0.7"/>
<path id="path2890" class="st0" d="M252.9,260.6c-6.7-0.4-13.4-0.8-20.1-1.3"/>
<path id="path2892" class="st0" d="M226.5,258.8c-1.7-0.1-3.3-0.3-5-0.5"/>
<path id="path2894" class="st0" d="M216.5,257.8c-1.7-0.2-3.3-0.4-5-0.5"/>
<path id="path2896" class="st0" d="M206.5,256.7c-1.7-0.2-3.3-0.4-5-0.6"/>
<path id="path2914" class="st0" d="M379.8,235c-12.5,1.6-25.1,2.9-37.7,3.8"/>
<path id="path2916" class="st0" d="M337.2,239.1c-3.3,0.2-6.5,0.4-9.8,0.6"/>
<path id="path2918" class="st0" d="M321.3,240c-1.6,0.1-3.3,0.1-4.9,0.2"/>
<path id="path2920" class="st0" d="M311.5,240.3c-3.7,0.1-7.3,0.2-11,0.2"/>
<path id="path2922" class="st0" d="M295.6,240.6c-2,0-4.1,0-6.1,0"/>
<path id="path2924" class="st0" d="M284.6,240.6c-6.9-0.1-13.8-0.2-20.8-0.5"/>
<path id="path2926" class="st0" d="M258.9,239.9c-3.7-0.2-7.3-0.4-11-0.6"/>
<path id="path2928" class="st0" d="M243.1,239c-1.6-0.1-3.3-0.2-4.9-0.3"/>
<path id="path2930" class="st0" d="M232.1,238.2c-12.2-1-24.3-2.4-36.5-4"/>
<path id="path2946" class="st0" d="M384.2,213.2c-5.1,0.7-10.2,1.4-15.3,1.9"/>
<path id="path2948" class="st0" d="M364.1,215.7c-24.8,2.7-49.7,4-74.6,4"/>
<path id="path2950" class="st0" d="M284.8,219.6c-24.5-0.2-49-1.8-73.4-4.6"/>
<path id="path2952" class="st0" d="M206.7,214.4c-5.5-0.7-11-1.4-16.5-2.3"/>
<path id="path2962" class="st0" d="M390.4,191.1c-33,5-66.3,7.6-99.7,7.6"/>
<path id="path2964" class="st0" d="M285,198.6c-33.4-0.3-66.7-3.1-99.6-8.4"/>
<path id="path2976" class="st0" d="M394.9,169.1c-34.4,5.7-69.3,8.6-104.2,8.6"/>
<path id="path2978" class="st0" d="M285.1,177.6c-35.3-0.3-70.4-3.5-105.2-9.7"/>
<path id="path2988" class="st0" d="M347.6,164.6c-1.8,0.2-3.6,0.3-5.4,0.5"/>
<path id="path2990" class="st0" d="M242.6,165.3c-1.5-0.1-2.9-0.2-4.4-0.4"/>
<path id="path2992" class="st0" d="M190.4,159.1c-0.4-0.1-0.7-0.1-1.1-0.2"/>
<path id="path3004" class="st0" d="M400,146.9c-36.4,6.6-73.3,9.8-110.3,9.7"/>
<path id="path3006" class="st0" d="M285.3,156.7c-37-0.3-73.9-4-110.2-10.9"/>
<path id="path3016" class="st0" d="M400.2,136.2c-1.7,0.3-3.5,0.6-5.2,0.9"/>
<path id="path3018" class="st0" d="M379.3,139.7c-3.5,0.5-7,1-10.5,1.5"/>
<path id="path3020" class="st0" d="M216.8,141.7c-1.8-0.2-3.5-0.4-5.3-0.7"/>
<path id="path3022" class="st0" d="M190.7,137.9c-1.7-0.3-3.5-0.6-5.2-0.9"/>
<path id="path3032" class="st0" d="M405.4,124.5c-38.1,7.5-76.9,11.2-115.7,11.1"/>
<path id="path3034" class="st0" d="M284.5,135.7c-38.5-0.4-76.9-4.5-114.6-12.3"/>
<path id="path3044" class="st0" d="M400.4,114.8c-1.7,0.3-3.3,0.6-5,0.9"/>
<path id="path3046" class="st0" d="M390.4,116.6c-1,0.2-2,0.3-3,0.5"/>
<path id="path3048" class="st0" d="M347.9,122.4c-1.7,0.2-3.4,0.3-5.1,0.5"/>
<path id="path3050" class="st0" d="M337.7,123.3c-1.7,0.1-3.4,0.3-5.1,0.4"/>
<path id="path3052" class="st0" d="M279.5,125.1c-1.7,0-3.4-0.1-5.1-0.1"/>
<path id="path3054" class="st0" d="M269.3,124.8c-1.7-0.1-3.4-0.1-5.1-0.2"/>
<path id="path3056" class="st0" d="M259.1,124.3c-3.7-0.2-7.5-0.4-11.2-0.7"/>
<path id="path3058" class="st0" d="M242.8,123.2c-1.7-0.1-3.4-0.3-5.1-0.4"/>
<path id="path3060" class="st0" d="M232.6,122.3c-0.3,0-0.7-0.1-1-0.1"/>
<path id="path3062" class="st0" d="M190.1,116.5c-1.7-0.3-3.3-0.6-5-0.9"/>
<path id="path3064" class="st0" d="M180,114.6c-3.3-0.6-6.7-1.3-10-2"/>
<path id="path3072" class="st0" d="M411.2,101.9c-26.2,5.6-52.7,9.4-79.4,11.3"/>
<path id="path3074" class="st0" d="M321.8,113.9c-3.7,0.2-7.3,0.4-11,0.5"/>
<path id="path3076" class="st0" d="M295.7,114.7c-1.7,0-3.3,0-5,0"/>
<path id="path3078" class="st0" d="M284.7,114.7c-40.5-0.4-80.8-5.1-120.4-14"/>
<path id="path3082" class="st0" d="M415.8,90.2c-1,0.2-1.9,0.4-2.9,0.6"/>
<path id="path3084" class="st0" d="M385.8,96.1c-5.5,0.9-11,1.8-16.6,2.6"/>
<path id="path3086" class="st0" d="M363.4,99.5c-3.3,0.4-6.5,0.8-9.8,1.2"/>
<path id="path3088" class="st0" d="M305.5,104c-3.3,0.1-6.6,0.1-9.9,0.2"/>
<path id="path3090" class="st0" d="M253.3,103c-3.6-0.2-7.2-0.5-10.8-0.8"/>
<path id="path3092" class="st0" d="M232.7,101.2c-3.6-0.4-7.2-0.8-10.8-1.2"/>
<path id="path3094" class="st0" d="M217.1,99.4c-2-0.3-3.9-0.5-5.9-0.8"/>
<path id="path3096" class="st0" d="M206.3,97.9c-3.6-0.5-7.1-1.1-10.7-1.7"/>
<path id="path3100" class="st0" d="M433.1,75.1c-0.3,0.1-0.6,0.2-0.9,0.2"/>
<path id="path3102" class="st0" d="M411.5,80.4c-40,8.9-80.8,13.4-121.8,13.3"/>
<path id="path3104" class="st0" d="M284.9,93.7c-39-0.4-77.9-4.9-116-13.5"/>
<path id="path3106" class="st0" d="M389.8,74.1c-1.6,0.3-3.1,0.6-4.7,0.8"/>
<path id="path3108" class="st0" d="M384.1,75.1c-3.4,0.6-6.9,1.2-10.3,1.7"/>
<path id="path3110" class="st0" d="M358.8,78.9c-3.8,0.5-7.5,0.9-11.3,1.3"/>
<path id="path3112" class="st0" d="M337.1,81.2c-6.9,0.6-13.9,1.1-20.8,1.4"/>
<path id="path3114" class="st0" d="M305.9,83c-3.5,0.1-6.9,0.2-10.4,0.2"/>
<path id="path3116" class="st0" d="M279.4,83.1c-5.1-0.1-10.1-0.3-15.2-0.5"/>
<path id="path3118" class="st0" d="M258.5,82.3c-5-0.3-10.1-0.7-15.1-1.1"/>
<path id="path3120" class="st0" d="M227.3,79.5c-3.5-0.4-6.9-0.8-10.4-1.3"/>
<path id="path3122" class="st0" d="M196.4,75c-0.3-0.1-0.6-0.1-0.9-0.2"/>
<path id="path3124" class="st0" d="M190.8,73.9c-1.9-0.3-3.7-0.7-5.6-1.1"/>
<path id="path3126" class="st0" d="M383.2,64.6c-8.2,1.5-16.5,2.7-24.8,3.8"/>
<path id="path3128" class="st0" d="M345.5,69.9c-6.2,0.6-12.3,1.2-18.5,1.6"/>
<path id="path3130" class="st0" d="M321.4,71.8c-1.5,0.1-3.1,0.2-4.6,0.2"/>
<path id="path3132" class="st0" d="M259.1,71.8c-8.1-0.5-16.1-1.1-24.1-2"/>
<path id="path3134" class="st0" d="M212,66.9c-4.9-0.7-9.8-1.5-14.7-2.4"/>
<g id="g3140">
	<polyline id="polyline3136" class="st1" points="0.7,16.2 0.7,0 16.8,0 	"/>
	<polyline id="polyline3138" class="st1" points="569.1,642 585.3,642 585.3,625.8 	"/>
</g>
<path id="path4622" class="st2" d="M60.3,35c1.9-3.5,3.9-7,5.9-10.5"/>
<path id="path4624" class="st2" d="M73.3,585.5c-0.8-1.4-1.6-2.9-2.3-4.3"/>
<path id="path4680" class="st2" d="M46.7,115.4c1.2-3.3,2.5-6.6,3.8-9.9"/>
<path id="path4684" class="st2" d="M56.4,91.2c0.3-0.6,0.5-1.2,0.8-1.8"/>
<path id="path4686" class="st2" d="M99.7,589.3c-0.9-1.6-2-3.3-2.9-4.9"/>
<path id="path4688" class="st2" d="M94.4,580.3c-0.9-1.6-1.9-3.3-2.8-4.9"/>
<path id="path4690" class="st2" d="M81.3,556c-1.3-2.5-2.5-5.1-3.8-7.6"/>
<path id="path4714" class="st2" d="M32,205.7c0.1-0.6,0.3-1.3,0.4-1.9"/>
<path id="path4716" class="st2" d="M47,146.9c0.3-0.8,0.6-1.8,0.8-2.7"/>
<path id="path4718" class="st2" d="M50.8,135.2c0.3-0.8,0.6-1.8,0.8-2.7"/>
<path id="path4720" class="st2" d="M54.5,124.3c0.4-0.9,0.6-1.8,1-2.7"/>
<path id="path4722" class="st2" d="M58.5,113.7c0.6-1.4,1.1-3,1.7-4.4"/>
<path id="path4726" class="st2" d="M71.4,83.1c0.1-0.3,0.3-0.6,0.4-0.8"/>
<path id="path4730" class="st2" d="M118.5,599.6c-8.8-13.6-17-27.4-24.5-41.7"/>
<path id="path4732" class="st2" d="M93.7,557.1c-0.7-1.4-1.5-2.8-2.1-4.1"/>
<path id="path4734" class="st2" d="M81.7,532.8c-0.6-1.3-1.3-2.8-1.9-4.2"/>
<path id="path4740" class="st2" d="M74.2,102.8c0.4-0.9,0.7-1.7,1.1-2.5"/>
<path id="path4742" class="st2" d="M79.8,90c0.1-0.3,0.3-0.6,0.4-0.8"/>
<path id="path4744" class="st2" d="M82.1,85c0.8-1.7,1.6-3.4,2.4-5.1"/>
<path id="path4748" class="st2" d="M80.8,504.2c-0.7-1.7-1.3-3.3-2-5.1"/>
<path id="path4750" class="st2" d="M77.8,496.6c-1.7-4.5-3.5-9.1-5-13.6"/>
<path id="path4760" class="st2" d="M73.6,133.2c0.4-1.1,0.8-2.3,1.3-3.4"/>
<path id="path4762" class="st2" d="M81.2,113.7c2.1-5.4,4.5-10.7,6.8-16"/>
<path id="path4770" class="st2" d="M72.6,170.9c0.4-1.4,0.8-2.9,1.2-4.3"/>
<path id="path4772" class="st2" d="M81.2,143.5c3.1-9.1,6.4-17.9,10-26.8"/>
<path id="path4774" class="st2" d="M92.1,114.3c0.4-1.1,0.9-2.2,1.3-3.3"/>
<path id="path4784" class="st2" d="M72.9,215.4c0.4-1.8,0.6-3.5,1.1-5.2"/>
<path id="path4786" class="st2" d="M74.9,205.9c0.1-0.6,0.3-1.1,0.4-1.7"/>
<path id="path4788" class="st2" d="M82.5,174.5c3.7-13.2,7.9-26.3,12.7-39.1"/>
<path id="path4790" class="st2" d="M96.1,133c0.4-1.1,0.8-2.2,1.3-3.3"/>
<path id="path4796" class="st2" d="M78.6,372.6c-0.1-0.5-0.1-1.1-0.2-1.6"/>
<path id="path4798" class="st2" d="M77.9,365.7c-0.1-1.1-0.3-2.3-0.4-3.4"/>
<path id="path4800" class="st2" d="M77.2,359.8c-0.1-1.7-0.3-3.4-0.5-5.2"/>
<path id="path4802" class="st2" d="M76.5,352.9c-2.6-29.3-2.6-58.8,0.1-88.2"/>
<path id="path4804" class="st2" d="M76.8,263.1c0.1-1.7,0.3-3.4,0.6-5.1"/>
<path id="path4806" class="st2" d="M77.5,255.5c0.1-1.1,0.3-2.3,0.4-3.4"/>
<path id="path4808" class="st2" d="M78.6,246.9c0.1-0.5,0.1-1.1,0.2-1.6"/>
<path id="path4810" class="st2" d="M82.7,219.9c4.5-24.2,10.7-47.9,18.8-71.1"/>
<path id="path4816" class="st2" d="M85.1,303.5c0-1.4,0.1-2.8,0.1-4.2"/>
<path id="path4818" class="st2" d="M85.3,295.9c0-1.4,0.1-2.8,0.1-4.2"/>
<path id="path4820" class="st2" d="M85.5,289.2c0.1-1.6,0.1-3.4,0.2-5"/>
<path id="path4822" class="st2" d="M85.8,281.7c0.1-2,0.3-4,0.4-5.9"/>
<path id="path4824" class="st2" d="M86.3,275c1.8-24,5.2-47.8,10.5-71.3"/>
<path id="path4826" class="st2" d="M98.3,197.2c2.3-9.5,4.8-19,7.7-28.4"/>
<path id="path4828" class="st2" d="M106.8,166.5c0.4-1.1,0.7-2.1,1.1-3.2"/>
<path id="path4834" class="st2" d="M96.4,337.2c-0.1-2.7-0.3-5.5-0.4-8.2"/>
<path id="path4836" class="st2" d="M95.8,325.7c-0.1-1.3-0.1-2.8-0.1-4.1"/>
<path id="path4838" class="st2" d="M95.5,314.3c0-1.1-0.1-2.2-0.1-3.3"/>
<path id="path4840" class="st2" d="M95.7,296.2c0.8-30.1,4.6-60,11.2-89.4"/>
<path id="path4842" class="st2" d="M108.3,200.5c1.3-5.9,2.9-11.7,4.5-17.5"/>
<path id="path4848" class="st2" d="M108.6,261.3c0-0.3,0.1-0.5,0.1-0.8"/>
<path id="path4850" class="st2" d="M109.5,252.6c1.3-10.3,3-20.6,4.9-30.9"/>
<path id="path4852" class="st2" d="M115.8,215.4c0.4-2.1,0.9-4.2,1.3-6.3"/>
<path id="path4854" class="st2" d="M121.5,191.3c0.3-1,0.6-2.1,0.8-3.1"/>
<path id="path4860" class="st2" d="M124.8,395c-0.1-0.5-0.2-1.1-0.3-1.6"/>
<path id="path4862" class="st2" d="M119.4,360.2c-0.2-1.8-0.4-3.7-0.6-5.5"/>
<path id="path4864" class="st2" d="M118.6,351.6c-0.2-2.6-0.4-5.2-0.6-7.8"/>
<path id="path4866" class="st2" d="M116.9,327.4c-0.1-2.3-0.1-4.7-0.2-7"/>
<path id="path4868" class="st2" d="M116.5,312.5c0-4.9,0-9.9,0.1-14.8"/>
<path id="path4870" class="st2" d="M117,290.6c0.1-2.3,0.2-4.7,0.4-7"/>
<path id="path4872" class="st2" d="M117.4,281.9c0.1-2.5,0.4-5.2,0.6-7.8"/>
<path id="path4874" class="st2" d="M118.6,266.3c0.1-1.1,0.2-2.1,0.3-3.1"/>
<path id="path4876" class="st2" d="M119.5,257.8c0.3-2.5,0.6-5.2,1-7.8"/>
<path id="path4878" class="st2" d="M120.6,249.2c0.4-2.8,0.8-5.7,1.2-8.6"/>
<path id="path4880" class="st2" d="M122.5,236.8c0.4-2.1,0.7-4.1,1.1-6.2"/>
<path id="path4892" class="st2" d="M153.1,423.7c-0.4-1.7-0.9-3.3-1.3-5"/>
<path id="path4894" class="st2" d="M146.1,394.7c-0.1-0.2-0.1-0.5-0.1-0.7"/>
<path id="path4896" class="st2" d="M144.3,385.1c-0.5-2.9-1.1-5.9-1.5-8.8"/>
<path id="path4898" class="st2" d="M142.7,375.6c-0.4-2.7-0.8-5.4-1.2-8.1"/>
<path id="path4900" class="st2" d="M140.4,358.5c-0.1-1-0.3-2-0.4-3"/>
<path id="path4902" class="st2" d="M137.9,326.5c-0.1-2.5-0.1-4.9-0.2-7.4"/>
<path id="path4904" class="st2" d="M137.5,304.1c0.1-2.5,0.1-5,0.1-7.5"/>
<path id="path4906" class="st2" d="M138.3,283.2c0-0.3,0.1-0.5,0.1-0.8"/>
<path id="path4908" class="st2" d="M139.4,269.1c0.1-0.5,0.1-1,0.1-1.6"/>
<path id="path4942" class="st2" d="M182.6,447.1c-0.2-0.6-0.5-1.3-0.7-2"/>
<path id="path4944" class="st2" d="M170.4,407.1c-0.4-1.3-0.6-2.8-1-4.1"/>
<path id="path4946" class="st2" d="M167.7,395.4c-0.1-0.7-0.3-1.4-0.4-2.1"/>
<path id="path9427" class="st2" d="M569.1,134.6c0.2,0.6,0.4,1.3,0.6,1.9"/>
<path id="path9479" class="st2" d="M509.1,579.2c-0.1,0.3-0.3,0.6-0.5,0.8"/>
<path id="path9481" class="st2" d="M521.6,70.1c0.8,1.7,1.6,3.5,2.3,5.2"/>
<path id="path9483" class="st2" d="M524.3,76.1c0.6,1.5,1.3,2.9,1.9,4.3"/>
<path id="path9485" class="st2" d="M530.5,90.1c0.1,0.3,0.3,0.6,0.4,0.9"/>
<path id="path9487" class="st2" d="M553.7,157.2c0.1,0.4,0.2,0.6,0.2,0.9"/>
<path id="path9489" class="st2" d="M569.9,240.9c0.1,0.9,0.2,1.9,0.3,2.8"/>
<path id="path9519" class="st2" d="M517.5,541.3c-2,4-4,7.9-6,11.8"/>
<path id="path9521" class="st2" d="M509.7,556.6c-0.3,0.6-0.6,1.1-0.9,1.6"/>
<path id="path9523" class="st2" d="M501,572.4c-0.1,0.3-0.3,0.6-0.5,0.8"/>
<path id="path9525" class="st2" d="M495.2,582.1c-0.8,1.3-1.6,2.8-2.5,4"/>
<path id="path9527" class="st2" d="M477.7,609.2c-0.9,1.3-1.8,2.6-2.8,3.9"/>
<path id="path9531" class="st2" d="M511.3,72.9c0.8,1.7,1.6,3.4,2.4,5.1"/>
<path id="path9533" class="st2" d="M515.5,82.2c0.1,0.3,0.3,0.6,0.4,0.8"/>
<path id="path9537" class="st2" d="M508.8,535.1c-0.1,0.3-0.3,0.6-0.4,0.8"/>
<path id="path9539" class="st2" d="M503.5,545.9c-0.7,1.4-1.5,2.8-2.1,4.1"/>
<path id="path9541" class="st2" d="M500.8,550.9c-7.6,14.2-15.7,28.1-24.5,41.6"/>
<path id="path9545" class="st2" d="M500.6,74.9c0.1,0.3,0.3,0.6,0.4,0.8"/>
<path id="path9547" class="st2" d="M505.6,85.7c0.5,1.1,1,2.3,1.5,3.3"/>
<path id="path9549" class="st2" d="M507.9,90.7c0.8,2,1.8,3.9,2.5,5.8"/>
<path id="path9565" class="st2" d="M514.3,497.1c-0.7,1.7-1.4,3.4-2.1,5"/>
<path id="path9567" class="st2" d="M492.4,544.3c-0.6,1.1-1.1,2.1-1.7,3.3"/>
<path id="path9573" class="st2" d="M500.1,99c3.8,8.8,7.3,17.6,10.6,26.6"/>
<path id="path9585" class="st2" d="M496.5,117.7c4.9,12.5,9.3,25.2,13.2,38"/>
<path id="path9587" class="st2" d="M510.7,159.1c0.3,0.8,0.5,1.6,0.7,2.5"/>
<path id="path9589" class="st2" d="M517.7,185.3c0.3,1.4,0.7,2.8,1,4.2"/>
<path id="path9597" class="st2" d="M492.4,136.8c7.4,20.7,13.4,41.9,17.9,63.4"/>
<path id="path9599" class="st2" d="M511.1,204.5c0.1,0.6,0.2,1.1,0.4,1.6"/>
<path id="path9601" class="st2" d="M516.7,238.3c0.1,0.5,0.1,1.1,0.2,1.6"/>
<path id="path9607" class="st2" d="M512.7,390.1c0,0.3-0.1,0.6-0.1,0.8"/>
<path id="path9615" class="st2" d="M487.8,156.2c8.1,25.6,14.1,51.8,17.8,78.3"/>
<path id="path9617" class="st2" d="M505.9,236.3c0.2,1.6,0.5,3.3,0.6,5"/>
<path id="path9619" class="st2" d="M506.9,244.6c0.1,1.1,0.3,2.3,0.4,3.3"/>
<path id="path9621" class="st2" d="M507.9,252.9c0,0.6,0.1,1.1,0.1,1.7"/>
<path id="path9629" class="st2" d="M481,169.5c11,37.5,17.3,76.4,18.6,115.5"/>
<path id="path9631" class="st2" d="M499.8,292.4c0.1,1.3,0.1,2.8,0.1,4"/>
<path id="path9633" class="st2" d="M499.8,299.8c0,2.4,0,4.9,0,7.4"/>
<path id="path9635" class="st2" d="M499.4,322c-0.1,2.8-0.3,5.5-0.4,8.2"/>
<path id="path9637" class="st2" d="M496.1,360.3c-0.1,0.8-0.2,1.6-0.4,2.5"/>
<path id="path9643" class="st2" d="M475.7,190.3c0.1,0.2,0.1,0.6,0.2,0.8"/>
<path id="path9645" class="st2" d="M476.9,195.8c0.4,1.8,0.8,3.7,1.3,5.5"/>
<path id="path9647" class="st2" d="M478.4,202.1c4.9,22.5,8.3,45.2,9.8,68.2"/>
<path id="path9649" class="st2" d="M488.5,273.5c0.1,1.6,0.2,3.2,0.3,4.8"/>
<path id="path9655" class="st2" d="M469.7,211.2c0.3,1.6,0.6,3,0.9,4.6"/>
<path id="path9657" class="st2" d="M470.9,217.3c2.1,11,3.7,22.1,5,33.3"/>
<path id="path9659" class="st2" d="M476.5,256.2c0.2,2.3,0.4,4.7,0.6,7"/>
<path id="path9661" class="st2" d="M477.5,267c0.1,0.8,0.1,1.6,0.2,2.3"/>
<path id="path9663" class="st2" d="M478.1,276.4c0.1,2.1,0.2,4.2,0.3,6.2"/>
<path id="path9665" class="st2" d="M478.7,291.3c0.1,4.7,0.1,9.5,0.1,14.1"/>
<path id="path9667" class="st2" d="M478.4,321.1c-0.1,2.1-0.2,4.2-0.4,6.3"/>
<path id="path9669" class="st2" d="M476.7,344.5c-0.3,2.8-0.6,5.7-0.9,8.6"/>
<path id="path9671" class="st2" d="M471.8,380.2c-0.4,2.5-0.9,5.2-1.5,7.7"/>
<path id="path9677" class="st2" d="M465.6,251.8c0.1,1.3,0.3,2.5,0.4,3.8"/>
<path id="path9691" class="st2" d="M457.1,275.3c0,0.3,0.1,0.5,0.1,0.8"/>
<path id="path9693" class="st2" d="M457.7,289.5c0,0.7,0.1,1.5,0.1,2.2"/>
<path id="path9695" class="st2" d="M457.8,297c0.1,2.5,0,4.9,0,7.5"/>
<path id="path9697" class="st2" d="M457.7,311.9c-0.1,3-0.1,5.9-0.3,8.9"/>
<path id="path9699" class="st2" d="M455.2,348.4c-0.1,1.3-0.3,2.4-0.4,3.7"/>
<path id="path9701" class="st2" d="M452.5,369.1c-0.3,2-0.6,3.9-1,5.9"/>
<path id="path9703" class="st2" d="M444.8,406.4c-0.4,1.7-0.8,3.4-1.3,5"/>
<path id="path9707" class="st2" d="M432.9,192.7c0.1,0.7,0.4,1.4,0.6,2.1"/>
<path id="path9715" class="st2" d="M444.3,251.3c0.3,2.1,0.5,4.3,0.7,6.5"/>
<path id="path9729" class="st2" d="M435.4,267.4c0.4,4.7,0.7,9.5,1,14.1"/>
<path id="path9733" class="st2" d="M436.8,300.8c0,0.7,0,1.4,0,2.1"/>
<path id="path9735" class="st2" d="M431.4,367.9c-0.1,0.5-0.1,1-0.3,1.4"/>
<path id="path9737" class="st2" d="M425.8,395.8c-0.4,1.3-0.6,2.8-1.1,4.2"/>
</svg>
