<?xml version="1.0" encoding="utf-8"?>
<!-- Generator: Adobe Illustrator 22.0.0, SVG Export Plug-In . SVG Version: 6.00 Build 0)  -->
<svg version="1.0" xmlns="http://www.w3.org/2000/svg" xmlns:xlink="http://www.w3.org/1999/xlink" x="0px" y="0px"
	 viewBox="0 0 595.3 841.9" style="enable-background:new 0 0 595.3 841.9;" xml:space="preserve">
<style type="text/css">
	.st0{display:none;}
	.st1{fill:none;stroke:#000000;stroke-width:0.5669;stroke-miterlimit:10;}
	.st2{fill:none;stroke:#231F20;stroke-miterlimit:10;}
	.st3{fill:none;stroke:#231F20;stroke-width:0.5;stroke-linecap:square;stroke-linejoin:round;stroke-miterlimit:10;}
</style>
<g id="base">
</g>
<g id="imagen" class="st0">
	
		<image style="display:inline;overflow:visible;" width="4000" height="4000" xlink:href="55DCF64CE93A48EC.png"  transform="matrix(1 0 0 1 -1702 -1579.1102)">
	</image>
</g>
<g id="constelaciones">
</g>
<g id="estrellas">
</g>
<g id="estrellas2">
	<g>
		<line class="st1" x1="11" y1="12" x2="1" y2="2"/>
		<line class="st1" x1="584" y1="12" x2="594" y2="2"/>
		<line class="st1" x1="11" y1="713" x2="1" y2="723"/>
		<line class="st1" x1="584" y1="713" x2="594" y2="723"/>
	</g>
	<g>
		<circle class="st2" cx="297.7" cy="297.2" r="242.1"/>
		<g>
			<g>
				<polyline class="st2" points="153,347 183.2,317.4 203.1,317.9 204.2,332.7 				"/>
				<polyline class="st2" points="172.9,291.7 177.4,264.9 186.2,291.7 				"/>
				<polyline class="st2" points="194.5,290.9 177.4,264.9 178.6,263.7 191.3,255.1 196.9,233.3 201,232 206.4,234.5 215.6,229.7 
					238.3,238.5 264.2,244.2 				"/>
				<path class="st2" d="M222.7,261.9"/>
				<line class="st2" x1="238.3" y1="238.5" x2="222.7" y2="261.9"/>
				<line class="st2" x1="215.6" y1="229.7" x2="213" y2="249.1"/>
				<line class="st2" x1="201" y1="232" x2="202.5" y2="228"/>
				<polyline class="st2" points="57.7,264.9 70.2,252.1 79.4,246.7 92,242.6 132.9,230.4 148.7,229.7 156.7,225 162.8,226.3 
					166.9,231.5 175.6,227.6 				"/>
				<polyline class="st2" points="148.7,229.7 146,237.4 150.8,241.3 161.9,239.1 166.9,231.5 				"/>
				<polyline class="st2" points="57.7,330.4 78.1,331.3 92.4,308.8 107.5,306.6 138,281.7 138,315 97.8,341.8 78.1,331.3 				"/>
				<polyline class="st2" points="225,201.8 209.7,213.6 186.7,204.8 182.4,201.6 167.9,194.9 142.1,199.3 114,206.4 110.8,179 
					109.9,152.7 137.5,151.8 163.8,153 175,163.9 177.9,167.2 205.9,159.3 221.2,157.7 				"/>
				<line class="st2" x1="103.6" y1="151.3" x2="109.9" y2="152.7"/>
				<polyline class="st2" points="202.7,134.2 179.2,144.8 163.8,153 167.9,194.9 				"/>
				<polyline class="st2" points="198.5,118.4 200.2,110.7 189,97.3 196.9,84.3 191.4,78.6 182.2,92.2 189,97.3 				"/>
				<line class="st2" x1="159.8" y1="97.2" x2="165.7" y2="99"/>
				<polyline class="st2" points="241.9,143.2 259.3,131.3 275.1,110.8 299,94 308.3,69 315.9,62.5 				"/>
				<polyline class="st2" points="263,93.1 275.1,110.8 291.7,127.9 308.1,149.3 				"/>
				<polygon class="st2" points="328.7,135.4 331.4,122 337.7,119.7 343,115.7 337.9,112.7 337.7,119.7 334.4,133.1 				"/>
				<polyline class="st2" points="369.8,120.3 392.5,120.3 399,121.4 409.4,142.3 397.9,161.6 376.3,151.2 368.9,146.3 362.3,147.7 
									"/>
				<polyline class="st2" points="430.4,93.9 428.2,98.5 422.4,112.9 399,121.4 				"/>
				<polyline class="st2" points="422.4,112.9 423.8,140.3 409.4,142.3 				"/>
				<polyline class="st2" points="394.7,192.8 429.3,175.2 427.1,156.4 423.8,140.3 				"/>
				<line class="st2" x1="435.1" y1="183.7" x2="429.3" y2="175.2"/>
				<polyline class="st2" points="479.5,143.1 483.5,152.6 476.8,161.5 469.7,162.6 463.7,162.9 457.3,159.2 454.9,148.1 				"/>
				<line class="st2" x1="515.1" y1="221.8" x2="526" y2="216.8"/>
				<polygon class="st2" points="467.2,187 460.4,191.1 452.5,198.2 460.5,200.9 				"/>
				<polyline class="st2" points="460.5,200.9 465.7,219.3 454.7,229.6 448,233.9 424.2,250.9 420.7,252.8 403.9,263 381,268.7 
					365.8,263.8 356.9,248.4 355.2,243.9 346.8,230.6 327.6,211.9 				"/>
				<polyline class="st2" points="356.9,248.4 368.7,220.1 372.4,215.8 380.8,195.8 404.3,208.4 417.9,232.6 424.2,250.9 				"/>
				<polyline class="st2" points="372.4,215.8 375.1,228.8 377.8,244.4 379.5,255.9 381,268.7 368.2,287.5 361.7,297.3 				"/>
				<polyline class="st2" points="397.7,295.7 402.2,288.4 402.2,283.9 401.7,278.7 403.9,263 405.1,238.9 405.1,221.5 404.3,208.4 
									"/>
				<polyline class="st2" points="412.5,292.8 411.8,300.7 407.9,309 411.8,300.7 397.7,301.6 392.6,301.3 387.6,303.7 374.9,313.4 
					370.1,320.9 364.5,329.3 356.9,327.7 347.5,323.3 345.7,315.8 348.7,314.2 353.6,311.5 354.8,312.4 				"/>
				<polyline class="st2" points="493.8,261.4 513.9,272.4 530.5,282.8 539.2,292.8 				"/>
				<polyline class="st2" points="483.8,285.8 502.8,299.5 513.2,317 526.6,346.6 534.7,344.9 				"/>
				<polyline class="st2" points="412.5,323 415.7,320.2 435.8,290.1 455,282.6 460.2,310.1 436.4,326.3 				"/>
				<line class="st2" x1="435.8" y1="290.1" x2="460.2" y2="310.1"/>
				<polyline class="st2" points="438.1,337.8 461.3,356.6 492.7,379.5 491.4,398.8 489.2,415.2 485.3,432.9 477.7,458.1 				"/>
				<polyline class="st2" points="278.9,149.7 288.6,149.7 293.5,160.4 309.2,158.5 316.8,167.3 				"/>
				<polyline class="st2" points="302.1,176.7 297.4,175.3 290.2,172.7 				"/>
				<line class="st2" x1="301.4" y1="178.1" x2="297.4" y2="175.3"/>
				<polyline class="st2" points="244.2,211.6 243.8,199.4 246.6,198.8 				"/>
				<polyline class="st2" points="269.4,194.4 266.3,186.1 264.8,182.7 260.3,182.2 262.5,185.1 266.3,186.1 				"/>
				<polyline class="st2" points="298,195.4 295.4,199.8 292.6,205.8 283.6,223.1 294.5,218.5 310.4,213.6 295.4,199.8 311.1,192.8 
					323.4,187.8 310.4,213.6 320.7,232.9 				"/>
				<polygon class="st2" points="331.4,233.4 337.3,242.1 338.8,257 333.1,243.4 				"/>
				<polygon class="st2" points="281.1,249.5 279.7,254.8 275.9,261.9 269.2,278.3 266.9,282.3 247.9,275.6 241.5,270.3 
					234.3,264.2 238.3,264.6 248,263 256.7,262.4 				"/>
				<polygon class="st2" points="213.3,312.4 215.1,312.4 224,306.7 234.9,304 245.3,300.7 242.6,296.4 234.9,304 214.8,297.1 
					209.3,306.4 				"/>
				<polyline class="st2" points="244.3,311.1 240.9,317.6 235.6,329.7 235.6,330.2 246.5,333.1 234.3,339.1 237.9,349.1 
					235.9,354.5 				"/>
				<line class="st2" x1="235.6" y1="330.2" x2="234.3" y2="339.1"/>
				<polygon class="st2" points="256.8,295.7 264.2,294.3 270,296.8 274.1,318.3 260.1,314.2 				"/>
				<polygon class="st2" points="279.2,324.6 278.6,334.9 278.2,349.6 257.1,348.2 267.7,340.8 				"/>
				<polyline class="st2" points="332.9,325.3 327.1,323.7 324.9,330.3 				"/>
				<polyline class="st2" points="326.2,315.6 319.8,316.8 314.9,313.2 312.9,309.2 312.6,307 313.2,304.1 314.7,302.3 317.8,302.8 
									"/>
				<polyline class="st2" points="306.4,318.3 306.8,317.4 306.8,309.5 317.9,287.4 316.4,282.6 322.3,280.2 318.7,269.9 
					316.3,268.1 310.7,261 310.8,257 				"/>
				<polyline class="st2" points="318.7,269.9 322.3,269 323.6,272.8 322.3,280.2 326.6,282.2 335.6,280.3 344.3,272.3 				"/>
				<polyline class="st2" points="335.6,280.3 337.1,290.3 343.9,293.2 333.7,299.5 335.4,305.5 				"/>
				<polygon class="st2" points="317.9,287.4 333.7,299.5 337.1,290.3 326.6,282.2 				"/>
				<polyline class="st2" points="294.2,311.7 291.8,297.3 293.4,278.8 302.6,275.8 308.1,275.1 322.3,280.2 				"/>
				<polyline class="st2" points="102.7,434.2 121.6,419.5 123.3,399.4 125.7,382.7 				"/>
				<polyline class="st2" points="209.7,406.1 192.1,408.4 188.9,417.2 176.1,419.7 149,421 147.8,432.9 156.4,449.2 145.4,460.7 
					129.1,470.6 				"/>
				<polyline class="st2" points="156.2,487.7 184.3,429.5 190,427.6 197.3,430.6 212.2,440.3 225.2,437.5 				"/>
				<polyline class="st2" points="219.4,416.9 236.5,419.1 238.8,426.5 237.4,431 257.9,443.1 266.5,410 				"/>
				<polygon class="st2" points="233.3,393 239.3,393 244,389.6 260.4,372.5 256.9,361.9 239.6,368.1 				"/>
				<path class="st2" d="M175.4,385.4"/>
				<polygon class="st2" points="189.6,381 191.9,358.1 204.2,358.9 				"/>
				<polygon class="st2" points="209.7,393.7 189.6,381 175.4,385.4 189.6,394.8 				"/>
				<polygon class="st2" points="314.2,420 297.9,407.6 282.8,394.4 281.9,406.7 298,413.9 				"/>
				<polyline class="st2" points="325.2,414.5 319.8,404.3 319.8,400 318.4,403.3 				"/>
				<polygon class="st2" points="346.7,397.3 349,390.1 351.5,381.8 332.5,383.2 				"/>
				<polyline class="st2" points="285.9,344.3 284.3,366.1 292.6,365.2 311.7,357.2 319.7,357.5 321.6,363.4 326.1,367.6 
					309.5,378.4 295.3,380.4 284.3,366.1 274.3,367 				"/>
				<polyline class="st2" points="339.7,352.5 333.5,360.9 346.2,363.6 347.6,356.1 350.6,350 343.8,338.4 340.6,350.9 				"/>
				<polygon class="st2" points="366.6,352.4 367.9,345.6 378.2,346 373.1,354.7 				"/>
				<polyline class="st2" points="401.2,327.4 404.9,332.4 409.2,342.1 401.5,351 404.3,363.6 400.1,376.7 382.5,373.9 389,364.9 
					393.7,357.8 395.8,347.1 				"/>
				<polyline class="st2" points="390.1,329.3 390.5,334.3 395.8,347.1 401.5,351 				"/>
				<polyline class="st2" points="406.3,361.4 413.8,370.9 436.8,374.5 428.1,391.4 450,400.8 				"/>
				<polyline class="st2" points="369.7,396.4 397.3,409.4 411.5,395.9 425.8,392.4 428.1,391.4 				"/>
				<polyline class="st2" points="375.6,406.8 397.3,409.4 416.9,434.2 413.2,441.7 411.4,452.4 401.7,464.8 393.2,474.6 				"/>
				<polyline class="st2" points="378.9,463.9 393.5,457.2 405.8,450.4 413.2,441.7 				"/>
				<polyline class="st2" points="367.6,383.1 359.7,400.8 365.5,382.3 				"/>
				<polyline class="st2" points="358.2,451.7 357,441.7 354.3,435.6 357.6,433.5 347.8,429 345.6,435.5 354.3,435.6 				"/>
				<line class="st2" x1="371.9" y1="440.8" x2="390.8" y2="440.3"/>
				<line class="st2" x1="385" y1="446.8" x2="382.7" y2="433.6"/>
				<polyline class="st2" points="302.7,460.8 319.7,446.3 327.2,436.8 325,433.2 316.5,441.6 319.7,446.3 				"/>
				<polyline class="st2" points="407.6,511.9 402.9,500.5 387.2,507 368.3,513 351.3,524.1 331.8,535.4 340.4,511.2 349.5,498.9 
					356.9,488.3 360,482.5 373.5,480.3 376.4,473.9 373,470.4 367.5,469.5 365.2,469.5 355.3,473.4 360,482.5 				"/>
				<polyline class="st2" points="355.3,473.4 335,468.2 321.7,478.8 304.1,495.3 288.6,507.8 276.6,516.6 263.3,525.3 249.2,533.6 
									"/>
				<polygon class="st2" points="286.6,480.6 303.8,487.8 323.3,490.5 311.1,495.4 303.8,487.8 287.6,489.5 				"/>
				<polyline class="st2" points="307.5,538.3 314.9,519.7 329.3,515.4 340.4,511.2 				"/>
				<polygon class="st2" points="217.6,469.6 221.6,460.2 230.5,451.8 227.3,464.5 				"/>
				<polyline class="st2" points="259.3,461.9 266.5,453.3 274.5,455 278,463 				"/>
				<polyline class="st2" points="222.1,526.4 235.9,512.7 254.4,510.9 271.5,507.8 				"/>
				<polyline class="st2" points="207.5,483.6 223.4,492.6 235.2,491.5 245.5,489.9 253.3,493.3 256,483.9 245.5,489.9 226.7,487.7 
					207.5,483.6 191.4,479.2 				"/>
			</g>
			<g>
				<circle class="st2" cx="78.4" cy="331.5" r="0.3"/>
				<circle class="st2" cx="98" cy="341.6" r="0.3"/>
				<circle class="st2" cx="92.6" cy="308.8" r="0.2"/>
				<circle class="st2" cx="107.5" cy="306.4" r="0.3"/>
				<circle class="st2" cx="138" cy="281.8" r="0.3"/>
				<circle class="st2" cx="138.2" cy="314.7" r="0.4"/>
				<circle class="st2" cx="153.2" cy="347" r="0.3"/>
				<circle class="st2" cx="183.3" cy="317.3" r="0.2"/>
				<circle class="st2" cx="203.1" cy="317.9" r="0.2"/>
				<circle class="st2" cx="204.2" cy="332.7" r="0.2"/>
				<circle class="st2" cx="192" cy="358.4" r="0.4"/>
				<circle class="st2" cx="204" cy="358.9" r="0.3"/>
				<circle class="st2" cx="189.6" cy="381" r="0.3"/>
				<circle class="st2" cx="175.5" cy="385.5" r="0.3"/>
				<circle class="st2" cx="189.6" cy="394.7" r="0.3"/>
				<circle class="st2" cx="209.4" cy="393.7" r="0.3"/>
				<circle class="st2" cx="210" cy="406.3" r="0.7"/>
				<circle class="st2" cx="192" cy="408.1" r="0.2"/>
				<circle class="st2" cx="189.1" cy="417.3" r="0.3"/>
				<circle class="st2" cx="176.3" cy="419.6" r="0.2"/>
				<circle class="st2" cx="149" cy="421.1" r="0.2"/>
				<circle class="st2" cx="148" cy="433.1" r="0.4"/>
				<circle class="st2" cx="156.2" cy="448.8" r="0.3"/>
				<circle class="st2" cx="156.4" cy="487.6" r="0.2"/>
				<circle class="st2" cx="191.6" cy="479.2" r="0.2"/>
				<circle class="st2" cx="207.5" cy="483.5" r="0.3"/>
				<circle class="st2" cx="245.5" cy="489.9" r="0.3"/>
				<circle class="st2" cx="256.1" cy="484" r="0.2"/>
				<circle class="st2" cx="286.8" cy="480.7" r="0.3"/>
				<circle class="st2" cx="287.5" cy="489.6" r="0.3"/>
				<circle class="st2" cx="303.8" cy="487.7" r="0.3"/>
				<circle class="st2" cx="311.2" cy="495.4" r="0.3"/>
				<circle class="st2" cx="323.2" cy="490.6" r="0.3"/>
				<circle class="st2" cx="321.6" cy="478.9" r="0.5"/>
				<circle class="st2" cx="335.1" cy="468.4" r="0.4"/>
				<circle class="st2" cx="355.1" cy="473.5" r="0.4"/>
				<circle class="st2" cx="360.1" cy="482.4" r="0.4"/>
				<circle class="st2" cx="357" cy="488.1" r="0.3"/>
				<circle class="st2" cx="376.4" cy="474" r="0.3"/>
				<circle class="st2" cx="373.6" cy="480.3" r="0.3"/>
				<circle class="st2" cx="340.3" cy="511.2" r="0.5"/>
				<circle class="st2" cx="314.8" cy="519.8" r="0.5"/>
				<circle class="st2" cx="331.9" cy="535.3" r="0.5"/>
				<circle class="st2" cx="351.5" cy="524.2" r="0.5"/>
				<circle class="st2" cx="368.3" cy="513.1" r="0.3"/>
				<circle class="st2" cx="403" cy="500.5" r="0.4"/>
				<circle class="st2" cx="302.9" cy="460.7" r="0.3"/>
				<circle class="st2" cx="319.7" cy="446.4" r="0.3"/>
				<circle class="st2" cx="316.5" cy="441.6" r="0.2"/>
				<circle class="st2" cx="325.1" cy="433.3" r="0.3"/>
				<circle class="st2" cx="345.6" cy="435.6" r="0.3"/>
				<circle class="st2" cx="347.9" cy="429.1" r="0.3"/>
				<circle class="st2" cx="357.6" cy="433.5" r="0.4"/>
				<circle class="st2" cx="354.4" cy="435.7" r="0.4"/>
				<circle class="st2" cx="357" cy="441.4" r="0.3"/>
				<circle class="st2" cx="358.2" cy="451.5" r="0.3"/>
				<circle class="st2" cx="372" cy="440.9" r="0.7"/>
				<circle class="st2" cx="385" cy="446.7" r="0.4"/>
				<circle class="st2" cx="390.8" cy="440.3" r="0.6"/>
				<circle class="st2" cx="382.7" cy="433.6" r="0.6"/>
				<circle class="st2" cx="393.3" cy="474.6" r="0.3"/>
				<circle class="st2" cx="405.8" cy="450.3" r="0.3"/>
				<circle class="st2" cx="411.4" cy="452.5" r="0.4"/>
				<circle class="st2" cx="413.2" cy="441.8" r="0.3"/>
				<circle class="st2" cx="416.9" cy="434.3" r="0.4"/>
				<circle class="st2" cx="397.4" cy="409.4" r="0.4"/>
				<circle class="st2" cx="375.8" cy="406.8" r="0.8"/>
				<circle class="st2" cx="369.8" cy="396.4" r="0.9"/>
				<circle class="st2" cx="411.5" cy="395.9" r="0.4"/>
				<circle class="st2" cx="425.9" cy="392.5" r="0.3"/>
				<circle class="st2" cx="428.1" cy="391.4" r="0.3"/>
				<circle class="st2" cx="450.1" cy="400.9" r="0.3"/>
				<circle class="st2" cx="436.9" cy="374.5" r="0.5"/>
				<circle class="st2" cx="413.7" cy="370.9" r="0.5"/>
				<circle class="st2" cx="406.3" cy="361.5" r="0.4"/>
				<circle class="st2" cx="400.2" cy="376.9" r="0.4"/>
				<path class="st2" d="M382.7,374c0-0.2-0.1-0.3-0.3-0.3s-0.3,0.1-0.3,0.3s0.1,0.3,0.3,0.3S382.7,374.2,382.7,374z"/>
				<circle class="st2" cx="389" cy="364.9" r="0.2"/>
				<circle class="st2" cx="404.4" cy="363.5" r="0.4"/>
				<circle class="st2" cx="393.7" cy="357.9" r="0.3"/>
				<circle class="st2" cx="395.6" cy="347.3" r="0.4"/>
				<circle class="st2" cx="401.5" cy="350.8" r="0.3"/>
				<circle class="st2" cx="409.1" cy="342.2" r="0.3"/>
				<circle class="st2" cx="401.2" cy="327.3" r="0.3"/>
				<circle class="st2" cx="390.5" cy="334.3" r="0.3"/>
				<circle class="st2" cx="390.1" cy="329.3" r="0.3"/>
				<circle class="st2" cx="366.7" cy="352.4" r="0.3"/>
				<circle class="st2" cx="367.9" cy="345.6" r="0.2"/>
				<circle class="st2" cx="492.9" cy="379.6" r="0.3"/>
				<circle class="st2" cx="461.2" cy="356.6" r="0.3"/>
				<circle class="st2" cx="438.1" cy="337.7" r="0.2"/>
				<circle class="st2" cx="359.7" cy="400.7" r="0.4"/>
				<circle class="st2" cx="367.6" cy="383.2" r="0.2"/>
				<circle class="st2" cx="365.4" cy="382.4" r="0.2"/>
				<circle class="st2" cx="346.7" cy="397.4" r="0.3"/>
				<circle class="st2" cx="349.1" cy="390.3" r="0.3"/>
				<circle class="st2" cx="351.4" cy="381.9" r="0.3"/>
				<circle class="st2" cx="332.4" cy="383.1" r="0.5"/>
				<circle class="st2" cx="325.2" cy="414.5" r="0.3"/>
				<circle class="st2" cx="318.4" cy="403.4" r="0.3"/>
				<circle class="st2" cx="319.9" cy="400" r="0.2"/>
				<circle class="st2" cx="314" cy="420" r="0.2"/>
				<circle class="st2" cx="282.7" cy="394.5" r="0.2"/>
				<circle class="st2" cx="282" cy="406.9" r="0.3"/>
				<circle class="st2" cx="266.4" cy="410" r="0.4"/>
				<circle class="st2" cx="257.7" cy="443" r="0.4"/>
				<circle class="st2" cx="237.5" cy="431.2" r="0.3"/>
				<circle class="st2" cx="238.7" cy="426.4" r="0.4"/>
				<circle class="st2" cx="219.6" cy="417" r="0.4"/>
				<circle class="st2" cx="217.7" cy="469.7" r="0.2"/>
				<circle class="st2" cx="227.2" cy="464.6" r="0.3"/>
				<circle class="st2" cx="230.5" cy="451.8" r="0.3"/>
				<circle class="st2" cx="526.5" cy="346.4" r="0.7"/>
				<circle class="st2" cx="503.1" cy="299.6" r="0.2"/>
				<circle class="st2" cx="484" cy="285.8" r="0.3"/>
				<circle class="st2" cx="494" cy="261.5" r="0.3"/>
				<circle class="st2" cx="530.6" cy="282.9" r="0.3"/>
				<circle class="st2" cx="515" cy="221.8" r="0.4"/>
				<circle class="st2" cx="479.6" cy="143" r="0.3"/>
				<circle class="st2" cx="483.6" cy="152.6" r="0.3"/>
				<circle class="st2" cx="476.7" cy="161.7" r="0.5"/>
				<circle class="st2" cx="469.6" cy="162.6" r="0.3"/>
				<circle class="st2" cx="457.3" cy="159.3" r="0.3"/>
				<circle class="st2" cx="436.5" cy="326.1" r="0.3"/>
				<circle class="st2" cx="460.4" cy="310.1" r="0.4"/>
				<circle class="st2" cx="454.9" cy="282.6" r="0.4"/>
				<circle class="st2" cx="435.8" cy="290" r="0.3"/>
				<circle class="st2" cx="412.4" cy="323.1" r="0.3"/>
				<circle class="st2" cx="415.7" cy="320.1" r="0.3"/>
				<circle class="st2" cx="408" cy="308.9" r="0.4"/>
				<circle class="st2" cx="333.7" cy="360.9" r="0.3"/>
				<circle class="st2" cx="346.1" cy="363.6" r="0.3"/>
				<circle class="st2" cx="347.6" cy="356" r="0.4"/>
				<circle class="st2" cx="350.7" cy="350.2" r="0.3"/>
				<circle class="st2" cx="343.8" cy="338.4" r="0.4"/>
				<circle class="st2" cx="340.5" cy="351" r="0.4"/>
				<circle class="st2" cx="339.6" cy="352.8" r="0.3"/>
				<circle class="st2" cx="274.3" cy="367" r="0.2"/>
				<circle class="st2" cx="284.2" cy="366.2" r="0.3"/>
				<circle class="st2" cx="292.5" cy="365" r="0.3"/>
				<circle class="st2" cx="311.8" cy="357.1" r="0.2"/>
				<circle class="st2" cx="319.6" cy="357.3" r="0.2"/>
				<circle class="st2" cx="321.8" cy="363.3" r="0.2"/>
				<circle class="st2" cx="326.2" cy="367.7" r="0.3"/>
				<circle class="st2" cx="309.3" cy="378.3" r="0.3"/>
				<circle class="st2" cx="295.1" cy="380.5" r="0.3"/>
				<circle class="st2" cx="285.9" cy="344.4" r="0.5"/>
				<circle class="st2" cx="278" cy="349.6" r="0.3"/>
				<circle class="st2" cx="257.2" cy="348.3" r="0.2"/>
				<circle class="st2" cx="267.7" cy="340.8" r="0.2"/>
				<circle class="st2" cx="278.6" cy="334.8" r="0.3"/>
				<circle class="st2" cx="279.2" cy="324.6" r="0.3"/>
				<circle class="st2" cx="233.4" cy="392.9" r="0.3"/>
				<circle class="st2" cx="239.4" cy="392.9" r="0.3"/>
				<circle class="st2" cx="244" cy="389.5" r="0.2"/>
				<circle class="st2" cx="260.5" cy="372.6" r="0.2"/>
				<circle class="st2" cx="256.9" cy="361.9" r="0.3"/>
				<circle class="st2" cx="239.5" cy="368.1" r="0.2"/>
				<circle class="st2" cx="235.9" cy="354.3" r="0.3"/>
				<circle class="st2" cx="237.8" cy="349" r="0.4"/>
				<circle class="st2" cx="234.4" cy="339" r="0.5"/>
				<circle class="st2" cx="246.6" cy="333.2" r="0.6"/>
				<circle class="st2" cx="235.7" cy="330.2" r="0.2"/>
				<circle class="st2" cx="235.6" cy="329.6" r="0.3"/>
				<circle class="st2" cx="244.4" cy="311" r="0.4"/>
				<circle class="st2" cx="245.3" cy="300.6" r="0.3"/>
				<circle class="st2" cx="234.8" cy="304" r="0.2"/>
				<circle class="st2" cx="224" cy="306.7" r="0.2"/>
				<circle class="st2" cx="215.1" cy="312.3" r="0.2"/>
				<circle class="st2" cx="213.3" cy="312.3" r="0.2"/>
				<circle class="st2" cx="209.3" cy="306.5" r="0.6"/>
				<circle class="st2" cx="214.9" cy="297.2" r="0.2"/>
				<circle class="st2" cx="271.6" cy="507.9" r="0.3"/>
				<circle class="st2" cx="102.9" cy="434.3" r="0.2"/>
				<path class="st2" d="M177.7,264.4c0-0.1-0.1-0.2-0.2-0.2s-0.2,0.1-0.2,0.2c0,0.1,0.1,0.2,0.2,0.2S177.7,264.5,177.7,264.4z"/>
				<circle class="st2" cx="178.6" cy="263.7" r="0.2"/>
				<circle class="st2" cx="191.4" cy="254.9" r="0.3"/>
				<circle class="st2" cx="197" cy="233.2" r="0.4"/>
				<circle class="st2" cx="201.1" cy="232" r="0.3"/>
				<circle class="st2" cx="206.3" cy="234.4" r="0.3"/>
				<circle class="st2" cx="215.6" cy="229.6" r="0.4"/>
				<circle class="st2" cx="238.3" cy="238.5" r="0.3"/>
				<circle class="st2" cx="264.3" cy="244.1" r="0.4"/>
				<circle class="st2" cx="222.7" cy="261.8" r="0.3"/>
				<circle class="st2" cx="213" cy="249.3" r="0.3"/>
				<circle class="st2" cx="194.5" cy="290.7" r="0.3"/>
				<circle class="st2" cx="186.1" cy="291.8" r="0.3"/>
				<circle class="st2" cx="79.3" cy="246.7" r="0.3"/>
				<circle class="st2" cx="92.2" cy="242.6" r="0.2"/>
				<circle class="st2" cx="133.1" cy="230.5" r="0.3"/>
				<circle class="st2" cx="148.7" cy="229.7" r="0.3"/>
				<circle class="st2" cx="150.8" cy="241.3" r="0.2"/>
				<circle class="st2" cx="156.8" cy="225" r="0.2"/>
				<circle class="st2" cx="166.9" cy="231.6" r="0.3"/>
				<circle class="st2" cx="175.6" cy="227.6" r="0.3"/>
				<circle class="st2" cx="234.5" cy="264.3" r="0.4"/>
				<circle class="st2" cx="238.5" cy="264.6" r="0.3"/>
				<circle class="st2" cx="248" cy="263" r="0.2"/>
				<circle class="st2" cx="256.7" cy="262.5" r="0.3"/>
				<circle class="st2" cx="241.4" cy="270.4" r="0.2"/>
				<circle class="st2" cx="248.2" cy="275.7" r="0.3"/>
				<circle class="st2" cx="266.9" cy="282.3" r="0.3"/>
				<path class="st2" d="M269.4,278.4c0-0.1-0.1-0.2-0.2-0.2s-0.2,0.1-0.2,0.2s0.1,0.2,0.2,0.2S269.4,278.5,269.4,278.4z"/>
				<circle class="st2" cx="279.7" cy="254.6" r="0.4"/>
				<path class="st2" d="M281.4,249.6c0-0.2-0.1-0.3-0.3-0.3s-0.3,0.1-0.3,0.3c0,0.2,0.1,0.3,0.3,0.3S281.4,249.7,281.4,249.6z"/>
				<circle class="st2" cx="244.3" cy="211.4" r="0.3"/>
				<circle class="st2" cx="243.9" cy="199.4" r="0.2"/>
				<circle class="st2" cx="225.1" cy="201.7" r="0.4"/>
				<circle class="st2" cx="209.8" cy="213.7" r="0.3"/>
				<circle class="st2" cx="186.7" cy="204.8" r="0.3"/>
				<circle class="st2" cx="182.4" cy="201.7" r="0.2"/>
				<circle class="st2" cx="167.9" cy="195" r="0.4"/>
				<circle class="st2" cx="114.1" cy="206.4" r="0.5"/>
				<circle class="st2" cx="109.9" cy="152.8" r="0.5"/>
				<circle class="st2" cx="163.8" cy="153" r="0.4"/>
				<circle class="st2" cx="175" cy="163.9" r="0.4"/>
				<circle class="st2" cx="177.9" cy="167.1" r="0.3"/>
				<circle class="st2" cx="205.8" cy="159.4" r="0.2"/>
				<circle class="st2" cx="221.1" cy="157.7" r="0.3"/>
				<circle class="st2" cx="179.1" cy="144.8" r="0.4"/>
				<circle class="st2" cx="202.8" cy="134.2" r="0.3"/>
				<circle class="st2" cx="198.7" cy="118.1" r="0.2"/>
				<circle class="st2" cx="189.2" cy="97.4" r="0.3"/>
				<circle class="st2" cx="191.6" cy="78.9" r="0.2"/>
				<circle class="st2" cx="197.1" cy="84.2" r="0.2"/>
				<circle class="st2" cx="242" cy="143.1" r="0.3"/>
				<circle class="st2" cx="269.3" cy="194.5" r="0.3"/>
				<circle class="st2" cx="266.3" cy="186.2" r="0.3"/>
				<circle class="st2" cx="264.8" cy="182.8" r="0.3"/>
				<circle class="st2" cx="262.5" cy="185.1" r="0.2"/>
				<circle class="st2" cx="260.4" cy="182.4" r="0.2"/>
				<circle class="st2" cx="290.3" cy="172.8" r="0.3"/>
				<circle class="st2" cx="297.4" cy="175.2" r="0.2"/>
				<circle class="st2" cx="302" cy="176.6" r="0.2"/>
				<circle class="st2" cx="301.3" cy="178.1" r="0.2"/>
				<circle class="st2" cx="309.3" cy="158.6" r="0.2"/>
				<circle class="st2" cx="293.5" cy="160.3" r="0.2"/>
				<circle class="st2" cx="308" cy="149.2" r="0.4"/>
				<circle class="st2" cx="291.7" cy="127.8" r="0.3"/>
				<circle class="st2" cx="275.1" cy="111" r="0.5"/>
				<circle class="st2" cx="259.4" cy="131.3" r="0.4"/>
				<circle class="st2" cx="263.1" cy="93.1" r="0.6"/>
				<circle class="st2" cx="165.6" cy="98.9" r="0.3"/>
				<circle class="st2" cx="298.9" cy="94.1" r="0.4"/>
				<circle class="st2" cx="308.3" cy="69.2" r="0.3"/>
				<circle class="st2" cx="315.9" cy="62.3" r="0.3"/>
				<circle class="st2" cx="366.8" cy="66.8" r="0.5"/>
				<circle class="st2" cx="328.6" cy="135.3" r="0.4"/>
				<circle class="st2" cx="334.4" cy="133.2" r="0.3"/>
				<circle class="st2" cx="331.5" cy="121.9" r="0.3"/>
				<circle class="st2" cx="337.8" cy="119.6" r="0.3"/>
				<circle class="st2" cx="342.9" cy="115.5" r="0.9"/>
				<circle class="st2" cx="370.1" cy="120.4" r="0.3"/>
				<circle class="st2" cx="392.7" cy="120.4" r="0.3"/>
				<circle class="st2" cx="398.9" cy="121.5" r="0.3"/>
				<circle class="st2" cx="428.2" cy="98.5" r="0.3"/>
				<circle class="st2" cx="422.3" cy="113" r="0.3"/>
				<circle class="st2" cx="423.7" cy="140.2" r="0.4"/>
				<circle class="st2" cx="409.5" cy="142.2" r="0.3"/>
				<circle class="st2" cx="362.3" cy="147.8" r="0.3"/>
				<circle class="st2" cx="368.9" cy="146.4" r="0.3"/>
				<circle class="st2" cx="376.4" cy="151.4" r="0.3"/>
				<circle class="st2" cx="387" cy="156.9" r="0.2"/>
				<circle class="st2" cx="397.8" cy="161.5" r="0.3"/>
				<circle class="st2" cx="429.6" cy="175.2" r="0.3"/>
				<circle class="st2" cx="434.9" cy="183.6" r="0.3"/>
				<circle class="st2" cx="395" cy="192.5" r="0.3"/>
				<circle class="st2" cx="323.3" cy="187.8" r="0.4"/>
				<circle class="st2" cx="298" cy="195.5" r="0.4"/>
				<circle class="st2" cx="295.3" cy="199.9" r="0.7"/>
				<circle class="st2" cx="292.6" cy="205.9" r="0.3"/>
				<circle class="st2" cx="283.6" cy="223.1" r="0.3"/>
				<circle class="st2" cx="294.4" cy="218.6" r="0.3"/>
				<circle class="st2" cx="310.3" cy="213.8" r="0.3"/>
				<circle class="st2" cx="320.6" cy="232.8" r="0.3"/>
				<circle class="st2" cx="380.7" cy="195.8" r="0.5"/>
				<circle class="st2" cx="404.3" cy="208.3" r="0.3"/>
				<circle class="st2" cx="417.9" cy="232.6" r="0.3"/>
				<circle class="st2" cx="372.3" cy="215.9" r="0.4"/>
				<circle class="st2" cx="368.8" cy="220.1" r="0.2"/>
				<circle class="st2" cx="357.2" cy="248.6" r="0.4"/>
				<circle class="st2" cx="366.2" cy="264" r="0.4"/>
				<circle class="st2" cx="380.8" cy="268.9" r="0.5"/>
				<circle class="st2" cx="346.9" cy="230.7" r="0.3"/>
				<circle class="st2" cx="467.3" cy="187" r="0.2"/>
				<circle class="st2" cx="460.4" cy="191.3" r="0.2"/>
				<circle class="st2" cx="452.6" cy="198.3" r="0.3"/>
				<circle class="st2" cx="460.6" cy="200.8" r="0.3"/>
				<circle class="st2" cx="465.7" cy="219.1" r="0.3"/>
				<circle class="st2" cx="454.6" cy="229.7" r="0.4"/>
				<circle class="st2" cx="447.9" cy="233.9" r="0.3"/>
				<circle class="st2" cx="420.7" cy="252.7" r="0.3"/>
				<circle class="st2" cx="424.1" cy="251" r="0.4"/>
				<circle class="st2" cx="403.8" cy="263.2" r="0.4"/>
				<circle class="st2" cx="401.8" cy="278.9" r="0.2"/>
				<circle class="st2" cx="402.2" cy="284.1" r="0.2"/>
				<circle class="st2" cx="412.5" cy="292.8" r="0.4"/>
				<circle class="st2" cx="411.7" cy="300.7" r="0.5"/>
				<circle class="st2" cx="397.6" cy="301.6" r="0.4"/>
				<circle class="st2" cx="392.6" cy="301.4" r="0.7"/>
				<circle class="st2" cx="387.5" cy="303.7" r="0.4"/>
				<circle class="st2" cx="374.7" cy="313.5" r="0.5"/>
				<circle class="st2" cx="370.1" cy="320.9" r="0.5"/>
				<circle class="st2" cx="364.5" cy="329.3" r="0.3"/>
				<circle class="st2" cx="356.9" cy="327.8" r="0.4"/>
				<circle class="st2" cx="347.6" cy="323.3" r="0.5"/>
				<circle class="st2" cx="345.7" cy="315.9" r="0.4"/>
				<circle class="st2" cx="348.6" cy="314.3" r="0.5"/>
				<circle class="st2" cx="354.7" cy="312.4" r="0.5"/>
				<circle class="st2" cx="353.7" cy="311.5" r="0.6"/>
				<circle class="st2" cx="324.9" cy="330.2" r="0.3"/>
				<circle class="st2" cx="327.1" cy="323.8" r="0.3"/>
				<circle class="st2" cx="361.9" cy="297.2" r="0.2"/>
				<circle class="st2" cx="368" cy="287.6" r="0.4"/>
				<circle class="st2" cx="344.4" cy="272.1" r="0.3"/>
				<circle class="st2" cx="337.3" cy="242.1" r="0.3"/>
				<circle class="st2" cx="331.5" cy="233.3" r="0.3"/>
				<circle class="st2" cx="310.8" cy="256.9" r="0.2"/>
				<circle class="st2" cx="310.6" cy="261" r="0.3"/>
				<circle class="st2" cx="316.2" cy="268.2" r="0.3"/>
				<circle class="st2" cx="318.6" cy="270" r="0.3"/>
				<circle class="st2" cx="322.2" cy="269" r="0.3"/>
				<circle class="st2" cx="322.2" cy="280.2" r="0.5"/>
				<circle class="st2" cx="326.6" cy="282.3" r="0.4"/>
				<circle class="st2" cx="335.6" cy="280.3" r="0.4"/>
				<circle class="st2" cx="337.1" cy="290.3" r="0.3"/>
				<circle class="st2" cx="343.8" cy="293.1" r="0.4"/>
				<circle class="st2" cx="333.7" cy="299.6" r="0.5"/>
				<circle class="st2" cx="335.4" cy="305.3" r="0.4"/>
				<circle class="st2" cx="306.5" cy="318.2" r="0.2"/>
				<circle class="st2" cx="306.8" cy="317.5" r="0.3"/>
				<circle class="st2" cx="306.9" cy="309.3" r="0.3"/>
				<circle class="st2" cx="312.7" cy="307.1" r="0.3"/>
				<circle class="st2" cx="313.2" cy="304.1" r="0.2"/>
				<circle class="st2" cx="314.7" cy="302.4" r="0.2"/>
				<circle class="st2" cx="317.9" cy="287.5" r="0.5"/>
				<circle class="st2" cx="316.4" cy="282.5" r="0.3"/>
				<circle class="st2" cx="302.6" cy="275.8" r="0.2"/>
				<circle class="st2" cx="292.1" cy="297.8" r="0.2"/>
				<circle class="st2" cx="294.3" cy="311.7" r="0.2"/>
			</g>
			<g>
				<circle class="st2" cx="103.3" cy="364.1" r="0.2"/>
				<circle class="st2" cx="194.7" cy="360.9" r="0.3"/>
				<circle class="st2" cx="177.5" cy="401.5" r="0.2"/>
				<circle class="st2" cx="134.8" cy="469.9" r="0.3"/>
				<circle class="st2" cx="156.2" cy="305.4" r="0.2"/>
				<circle class="st2" cx="160" cy="297.7" r="0.2"/>
				<circle class="st2" cx="168.4" cy="284.3" r="0.3"/>
				<circle class="st2" cx="176.7" cy="255.7" r="0.3"/>
				<circle class="st2" cx="198.2" cy="268.7" r="0.3"/>
				<circle class="st2" cx="197.3" cy="275" r="0.3"/>
				<circle class="st2" cx="185.1" cy="293.8" r="0.2"/>
				<circle class="st2" cx="145.8" cy="268.4" r="0.2"/>
				<circle class="st2" cx="148.3" cy="170.7" r="0.2"/>
				<circle class="st2" cx="224.3" cy="460.2" r="0.2"/>
				<circle class="st2" cx="219.2" cy="388.5" r="0.3"/>
				<circle class="st2" cx="222.8" cy="341.7" r="0.3"/>
				<circle class="st2" cx="221.8" cy="337.4" r="0.2"/>
				<circle class="st2" cx="263.3" cy="234" r="0.2"/>
				<circle class="st2" cx="268" cy="224.5" r="0.3"/>
				<circle class="st2" cx="221.5" cy="75.2" r="0.2"/>
				<circle class="st2" cx="228.9" cy="90.5" r="0.2"/>
				<circle class="st2" cx="247.7" cy="97.5" r="0.2"/>
				<circle class="st2" cx="252.5" cy="107.5" r="0.2"/>
				<circle class="st2" cx="239" cy="113.3" r="0.2"/>
				<circle class="st2" cx="240.7" cy="117.9" r="0.2"/>
				<circle class="st2" cx="238.5" cy="128.3" r="0.3"/>
				<circle class="st2" cx="258.7" cy="123.3" r="0.2"/>
				<circle class="st2" cx="222.9" cy="181.6" r="0.2"/>
				<circle class="st2" cx="237.1" cy="173.7" r="0.2"/>
				<circle class="st2" cx="259.8" cy="141.3" r="0.2"/>
				<circle class="st2" cx="270.4" cy="142.3" r="0.2"/>
				<circle class="st2" cx="274" cy="136.8" r="0.2"/>
				<circle class="st2" cx="279.7" cy="84.5" r="0.2"/>
				<circle class="st2" cx="280.8" cy="88.2" r="0.3"/>
				<circle class="st2" cx="304.2" cy="75.1" r="0.2"/>
				<circle class="st2" cx="331.9" cy="334.5" r="0.3"/>
				<circle class="st2" cx="290.2" cy="281.9" r="0.2"/>
				<path class="st2" d="M347.2,378.4c0-0.1-0.1-0.2-0.2-0.2s-0.2,0.1-0.2,0.2c0,0.1,0.1,0.2,0.2,0.2S347.2,378.6,347.2,378.4z"/>
				<circle class="st2" cx="518.6" cy="211.4" r="0.3"/>
				<circle class="st2" cx="317.1" cy="358.5" r="0.2"/>
				<circle class="st2" cx="308.6" cy="368.2" r="0.2"/>
				<circle class="st2" cx="330.6" cy="98" r="0.2"/>
				<circle class="st2" cx="319" cy="114.7" r="0.2"/>
				<circle class="st2" cx="317.3" cy="118" r="0.2"/>
				<circle class="st2" cx="354.2" cy="124.5" r="0.2"/>
				<path class="st2" d="M380.4,87.9c0-0.1-0.1-0.3-0.3-0.3s-0.3,0.1-0.3,0.3s0.1,0.3,0.3,0.3S380.4,88,380.4,87.9z"/>
				<circle class="st2" cx="432.5" cy="100.5" r="0.2"/>
				<circle class="st2" cx="368.4" cy="143.5" r="0.2"/>
				<circle class="st2" cx="365.4" cy="169.1" r="0.2"/>
				<circle class="st2" cx="360.4" cy="171" r="0.3"/>
				<circle class="st2" cx="350.8" cy="167.8" r="0.3"/>
				<circle class="st2" cx="336.5" cy="170.6" r="0.3"/>
				<circle class="st2" cx="335.3" cy="177" r="0.2"/>
				<circle class="st2" cx="327.1" cy="184.9" r="0.3"/>
				<circle class="st2" cx="303.6" cy="224" r="0.3"/>
				<circle class="st2" cx="323.1" cy="234.9" r="0.2"/>
				<circle class="st2" cx="358.9" cy="201.3" r="0.2"/>
				<circle class="st2" cx="407.3" cy="206.6" r="0.2"/>
				<circle class="st2" cx="429.7" cy="199.1" r="0.2"/>
				<path class="st2" d="M383.1,218.8c0-0.1-0.1-0.2-0.2-0.2s-0.2,0.1-0.2,0.2c0,0.1,0.1,0.2,0.2,0.2S383.1,218.9,383.1,218.8z"/>
				<path class="st2" d="M361.3,218.5c0-0.2-0.1-0.3-0.3-0.3c-0.2,0-0.3,0.1-0.3,0.3c0,0.2,0.1,0.3,0.3,0.3
					C361.2,218.8,361.3,218.6,361.3,218.5z"/>
				<circle class="st2" cx="358" cy="219.1" r="0.3"/>
				<circle class="st2" cx="359.8" cy="222.3" r="0.2"/>
				<circle class="st2" cx="365.5" cy="257.8" r="0.3"/>
				<circle class="st2" cx="377" cy="260.6" r="0.2"/>
				<circle class="st2" cx="453.8" cy="226.4" r="0.2"/>
				<circle class="st2" cx="296" cy="474.7" r="0.4"/>
				<circle class="st2" cx="339.3" cy="486.5" r="0.3"/>
				<circle class="st2" cx="315.8" cy="471.1" r="0.3"/>
				<circle class="st2" cx="367.2" cy="490.4" r="0.4"/>
				<circle class="st2" cx="372.9" cy="489.9" r="0.3"/>
				<circle class="st2" cx="380" cy="492.4" r="0.3"/>
				<circle class="st2" cx="372.9" cy="499.3" r="0.3"/>
				<circle class="st2" cx="344.3" cy="494.1" r="0.3"/>
				<circle class="st2" cx="344.9" cy="499.1" r="0.2"/>
				<circle class="st2" cx="347.5" cy="506.8" r="0.3"/>
				<circle class="st2" cx="338.2" cy="513.7" r="0.4"/>
				<circle class="st2" cx="328.5" cy="511.1" r="0.3"/>
				<circle class="st2" cx="332.5" cy="502.4" r="0.3"/>
				<circle class="st2" cx="351.1" cy="514.7" r="0.4"/>
				<circle class="st2" cx="343.3" cy="517.3" r="0.2"/>
				<circle class="st2" cx="323.2" cy="516.6" r="0.3"/>
				<circle class="st2" cx="330.1" cy="526.8" r="0.3"/>
				<circle class="st2" cx="404.3" cy="508.4" r="0.3"/>
				<circle class="st2" cx="328.1" cy="457.5" r="0.3"/>
				<circle class="st2" cx="302.9" cy="458.9" r="0.2"/>
				<circle class="st2" cx="368.1" cy="458.6" r="0.4"/>
				<circle class="st2" cx="375.1" cy="456.6" r="0.3"/>
				<circle class="st2" cx="367.4" cy="453" r="0.3"/>
				<circle class="st2" cx="370" cy="448.9" r="0.3"/>
				<circle class="st2" cx="366.3" cy="446.7" r="0.2"/>
				<circle class="st2" cx="368.9" cy="443.2" r="0.3"/>
				<path class="st2" d="M380.4,443.7c0-0.2-0.1-0.3-0.3-0.3s-0.3,0.1-0.3,0.3s0.1,0.3,0.3,0.3S380.4,443.9,380.4,443.7z"/>
				<circle class="st2" cx="396.2" cy="468" r="0.2"/>
				<circle class="st2" cx="392.6" cy="433.8" r="0.3"/>
				<circle class="st2" cx="384.3" cy="430.8" r="0.2"/>
				<circle class="st2" cx="390.3" cy="430.4" r="0.4"/>
				<circle class="st2" cx="381.3" cy="424.4" r="0.2"/>
				<circle class="st2" cx="377.7" cy="421.2" r="0.3"/>
				<circle class="st2" cx="418.5" cy="436.2" r="0.3"/>
				<circle class="st2" cx="416.2" cy="428.1" r="0.2"/>
				<circle class="st2" cx="411.8" cy="421.6" r="0.2"/>
				<circle class="st2" cx="414.6" cy="390.9" r="0.3"/>
				<circle class="st2" cx="417.5" cy="391.3" r="0.3"/>
				<circle class="st2" cx="439.3" cy="398.3" r="0.2"/>
				<circle class="st2" cx="444.8" cy="421.8" r="0.2"/>
				<circle class="st2" cx="424.6" cy="387.7" r="0.3"/>
				<circle class="st2" cx="424.9" cy="382.5" r="0.2"/>
				<circle class="st2" cx="450.9" cy="376.7" r="0.2"/>
				<circle class="st2" cx="452.9" cy="380.3" r="0.2"/>
				<circle class="st2" cx="447.8" cy="380.5" r="0.3"/>
				<circle class="st2" cx="428.4" cy="370.3" r="0.3"/>
				<circle class="st2" cx="423.9" cy="372" r="0.3"/>
				<circle class="st2" cx="421.2" cy="360.6" r="0.3"/>
				<circle class="st2" cx="426.2" cy="355" r="0.3"/>
				<circle class="st2" cx="395.4" cy="384.9" r="0.2"/>
				<circle class="st2" cx="396.6" cy="381.4" r="0.3"/>
				<circle class="st2" cx="409.1" cy="383.8" r="0.4"/>
				<circle class="st2" cx="409" cy="380" r="0.2"/>
				<circle class="st2" cx="409.4" cy="379.7" r="0.2"/>
				<circle class="st2" cx="389.2" cy="368.5" r="0.3"/>
				<circle class="st2" cx="394.5" cy="367.9" r="0.2"/>
				<circle class="st2" cx="396.9" cy="363.6" r="0.2"/>
				<circle class="st2" cx="405.7" cy="366.9" r="0.2"/>
				<circle class="st2" cx="388.9" cy="354.2" r="0.3"/>
				<circle class="st2" cx="392.2" cy="349" r="0.2"/>
				<circle class="st2" cx="383.6" cy="397.1" r="0.3"/>
				<circle class="st2" cx="421.4" cy="331.2" r="0.2"/>
				<circle class="st2" cx="407.5" cy="342.9" r="0.3"/>
				<circle class="st2" cx="485.3" cy="318.6" r="0.2"/>
				<circle class="st2" cx="496.1" cy="313.6" r="0.2"/>
				<circle class="st2" cx="476" cy="276.2" r="0.2"/>
				<path class="st2" d="M481.5,254.8c0-0.1-0.1-0.2-0.2-0.2s-0.2,0.1-0.2,0.2c0,0.1,0.1,0.2,0.2,0.2S481.5,255,481.5,254.8z"/>
				<circle class="st2" cx="441.6" cy="310.4" r="0.3"/>
				<circle class="st2" cx="404.8" cy="316.2" r="0.3"/>
				<circle class="st2" cx="411.7" cy="308.8" r="0.3"/>
				<path class="st2" d="M441.1,256.5c0-0.2-0.1-0.3-0.3-0.3s-0.3,0.1-0.3,0.3s0.1,0.3,0.3,0.3S441.1,256.7,441.1,256.5z"/>
				<circle class="st2" cx="396.4" cy="289.7" r="0.2"/>
				<circle class="st2" cx="409.3" cy="290.2" r="0.3"/>
				<circle class="st2" cx="422.7" cy="288.9" r="0.3"/>
				<circle class="st2" cx="410.7" cy="294.4" r="0.3"/>
				<circle class="st2" cx="410.2" cy="294.7" r="0.2"/>
				<circle class="st2" cx="399.2" cy="309" r="0.3"/>
				<circle class="st2" cx="379.6" cy="318.6" r="0.3"/>
				<circle class="st2" cx="382.4" cy="318.6" r="0.3"/>
				<circle class="st2" cx="345.4" cy="330.8" r="0.3"/>
				<circle class="st2" cx="351.3" cy="314.3" r="0.3"/>
				<circle class="st2" cx="346.9" cy="309.1" r="0.3"/>
				<circle class="st2" cx="370" cy="292.2" r="0.3"/>
				<circle class="st2" cx="366.4" cy="285.1" r="0.2"/>
				<circle class="st2" cx="371.4" cy="279.2" r="0.3"/>
			</g>
		</g>
		<circle class="st2" cx="297.7" cy="297.2" r="242.9"/>
		<circle class="st2" cx="297.7" cy="297.2" r="242.9"/>
		<circle class="st2" cx="297.7" cy="297.2" r="243.3"/>
	</g>
	<g>
		<g>
			<g>
				<line class="st3" x1="241.1" y1="649" x2="241.1" y2="661.3"/>
				<line class="st3" x1="243.3" y1="649" x2="243.3" y2="661.3"/>
				<line class="st3" x1="243.3" y1="661.3" x2="248.3" y2="661.3"/>
				<line class="st3" x1="248.3" y1="655.2" x2="248.3" y2="661.3"/>
				<line class="st3" x1="243.3" y1="655.2" x2="248.3" y2="655.2"/>
			</g>
			<g>
				<line class="st3" x1="266.6" y1="661.3" x2="266.6" y2="649"/>
				<line class="st3" x1="266.6" y1="649" x2="261.6" y2="649"/>
				<line class="st3" x1="261.6" y1="655.2" x2="261.6" y2="649"/>
				<line class="st3" x1="266.6" y1="655.2" x2="261.6" y2="655.2"/>
				<line class="st3" x1="259.4" y1="661.3" x2="259.4" y2="649"/>
				<line class="st3" x1="259.4" y1="649" x2="254.2" y2="649"/>
				<line class="st3" x1="254.2" y1="655.2" x2="254.2" y2="649"/>
				<line class="st3" x1="254.2" y1="661.3" x2="254.2" y2="655.2"/>
				<line class="st3" x1="259.4" y1="661.3" x2="254.2" y2="661.3"/>
			</g>
			<g>
				<line class="st3" x1="272.5" y1="661.3" x2="272.5" y2="649"/>
				<line class="st3" x1="287" y1="661.3" x2="287" y2="649"/>
				<line class="st3" x1="287" y1="649" x2="281.9" y2="649"/>
				<line class="st3" x1="281.9" y1="655.2" x2="281.9" y2="649"/>
				<line class="st3" x1="287" y1="655.2" x2="281.9" y2="655.2"/>
				<line class="st3" x1="281.9" y1="661.3" x2="281.9" y2="655.2"/>
				<line class="st3" x1="287" y1="661.3" x2="281.9" y2="661.3"/>
				<line class="st3" x1="279.8" y1="661.3" x2="279.8" y2="649"/>
				<line class="st3" x1="279.8" y1="649" x2="274.7" y2="649"/>
				<line class="st3" x1="274.7" y1="655.2" x2="274.7" y2="649"/>
				<line class="st3" x1="279.8" y1="655.2" x2="274.7" y2="655.2"/>
				<line class="st3" x1="294.2" y1="661.3" x2="294.2" y2="649"/>
				<line class="st3" x1="294.2" y1="649" x2="289.3" y2="649"/>
				<line class="st3" x1="294.2" y1="655.2" x2="289.3" y2="655.2"/>
				<line class="st3" x1="294.2" y1="661.3" x2="289.3" y2="661.3"/>
			</g>
			<circle class="st3" cx="251.4" cy="661.3" r="0.3"/>
			<circle class="st3" cx="269.6" cy="661.3" r="0.3"/>
		</g>
		<g>
			<g>
				<line class="st3" x1="308.5" y1="661.3" x2="308.5" y2="649"/>
				<line class="st3" x1="305.6" y1="655.2" x2="305.6" y2="649"/>
				<line class="st3" x1="305.6" y1="649" x2="300.5" y2="649"/>
				<line class="st3" x1="305.6" y1="655.2" x2="300.5" y2="655.2"/>
				<line class="st3" x1="300.5" y1="661.3" x2="300.5" y2="655.2"/>
				<line class="st3" x1="305.6" y1="661.3" x2="300.5" y2="661.3"/>
				<line class="st3" x1="319.5" y1="661.3" x2="319.5" y2="649"/>
				<line class="st3" x1="319.5" y1="649" x2="314.4" y2="649"/>
				<line class="st3" x1="314.4" y1="655.2" x2="314.4" y2="649"/>
				<line class="st3" x1="314.4" y1="661.3" x2="314.4" y2="655.2"/>
				<line class="st3" x1="319.5" y1="661.3" x2="314.4" y2="661.3"/>
				<line class="st3" x1="327.5" y1="661.3" x2="327.5" y2="649"/>
				<line class="st3" x1="327.5" y1="649" x2="322.4" y2="649"/>
				<line class="st3" x1="322.4" y1="655.2" x2="322.4" y2="649"/>
				<line class="st3" x1="322.4" y1="661.3" x2="322.4" y2="655.2"/>
				<line class="st3" x1="327.5" y1="661.3" x2="322.4" y2="661.3"/>
				<circle class="st3" cx="311.5" cy="652" r="0.3"/>
				<circle class="st3" cx="311.5" cy="658.4" r="0.3"/>
			</g>
			<g>
				<line class="st3" x1="338.4" y1="661.3" x2="338.4" y2="649"/>
				<line class="st3" x1="338.4" y1="649" x2="333.5" y2="649"/>
				<line class="st3" x1="333.5" y1="655.2" x2="333.5" y2="649"/>
				<line class="st3" x1="338.4" y1="655.2" x2="333.5" y2="655.2"/>
				<line class="st3" x1="333.5" y1="661.3" x2="333.5" y2="655.2"/>
				<line class="st3" x1="338.4" y1="661.3" x2="333.5" y2="661.3"/>
				<line class="st3" x1="345.6" y1="655.2" x2="345.6" y2="661.3"/>
				<line class="st3" x1="345.6" y1="661.3" x2="340.7" y2="661.3"/>
				<line class="st3" x1="345.6" y1="655.2" x2="340.7" y2="655.2"/>
				<line class="st3" x1="340.7" y1="649" x2="340.7" y2="655.2"/>
				<line class="st3" x1="345.6" y1="649" x2="340.7" y2="649"/>
				<line class="st3" x1="355.2" y1="661.3" x2="355.2" y2="649"/>
				<line class="st3" x1="355.2" y1="649" x2="350.1" y2="649"/>
				<line class="st3" x1="350.1" y1="655.2" x2="350.1" y2="649"/>
				<line class="st3" x1="355.2" y1="655.2" x2="350.1" y2="655.2"/>
				<line class="st3" x1="350.1" y1="661.3" x2="350.1" y2="655.2"/>
				<line class="st3" x1="362.6" y1="655.2" x2="362.6" y2="661.3"/>
				<line class="st3" x1="362.6" y1="661.3" x2="357.5" y2="661.3"/>
				<line class="st3" x1="362.6" y1="655.2" x2="357.5" y2="655.2"/>
				<line class="st3" x1="357.5" y1="649" x2="357.5" y2="655.2"/>
				<line class="st3" x1="362.6" y1="649" x2="357.5" y2="649"/>
				<circle class="st3" cx="347.9" cy="661.3" r="0.3"/>
				<circle class="st3" cx="364.8" cy="661.3" r="0.3"/>
			</g>
		</g>
	</g>
	<g>
		<g>
			<line class="st3" x1="300.7" y1="620.8" x2="300.7" y2="608.3"/>
		</g>
		<g>
			<line class="st3" x1="317.1" y1="608.3" x2="317.1" y2="620.8"/>
			<line class="st3" x1="317.1" y1="620.8" x2="322.1" y2="620.8"/>
			<line class="st3" x1="317.1" y1="614.6" x2="322.1" y2="614.6"/>
			<line class="st3" x1="317.1" y1="608.3" x2="322.1" y2="608.3"/>
		</g>
		<g>
			<line class="st3" x1="289.1" y1="620.8" x2="289.1" y2="608.3"/>
			<line class="st3" x1="289.1" y1="608.3" x2="284.2" y2="608.3"/>
			<line class="st3" x1="284.2" y1="614.6" x2="284.2" y2="608.3"/>
			<line class="st3" x1="289.1" y1="614.6" x2="284.2" y2="614.6"/>
			<line class="st3" x1="284.2" y1="620.8" x2="284.2" y2="614.6"/>
		</g>
		<g>
			<line class="st3" x1="297.4" y1="620.8" x2="297.4" y2="614.6"/>
			<line class="st3" x1="292.3" y1="614.6" x2="292.3" y2="608.3"/>
			<g>
				<line class="st3" x1="297.4" y1="608.3" x2="292.3" y2="608.3"/>
				<line class="st3" x1="297.4" y1="614.6" x2="292.3" y2="614.6"/>
				<line class="st3" x1="297.4" y1="620.8" x2="292.3" y2="620.8"/>
			</g>
		</g>
		<g>
			<line class="st3" x1="313.6" y1="620.8" x2="308.7" y2="620.8"/>
			<line class="st3" x1="313.9" y1="620.8" x2="313.9" y2="614.6"/>
			<line class="st3" x1="313.9" y1="608.3" x2="308.8" y2="608.3"/>
			<line class="st3" x1="308.8" y1="614.6" x2="308.8" y2="608.3"/>
			<line class="st3" x1="313.9" y1="614.6" x2="308.8" y2="614.6"/>
		</g>
	</g>
	<g>
		<g>
			<line class="st3" x1="259.8" y1="634.7" x2="259.8" y2="628.6"/>
			<line class="st3" x1="259.8" y1="641" x2="259.8" y2="634.7"/>
			<line class="st3" x1="264.7" y1="641" x2="259.8" y2="641"/>
			<line class="st3" x1="264.7" y1="641" x2="264.7" y2="634.7"/>
			<line class="st3" x1="264.7" y1="634.9" x2="264.7" y2="628.8"/>
		</g>
		<g>
			<line class="st3" x1="273" y1="628.6" x2="267.9" y2="628.6"/>
			<line class="st3" x1="267.9" y1="634.7" x2="267.9" y2="628.6"/>
			<line class="st3" x1="273" y1="634.7" x2="267.9" y2="634.7"/>
			<line class="st3" x1="267.9" y1="641" x2="267.9" y2="634.7"/>
			<line class="st3" x1="273" y1="641" x2="267.9" y2="641"/>
		</g>
		<g>
			<line class="st3" x1="276.2" y1="641" x2="276.2" y2="634.7"/>
			<line class="st3" x1="276.2" y1="634.9" x2="276.2" y2="628.8"/>
		</g>
		<g>
			<line class="st3" x1="297.2" y1="628.6" x2="292.2" y2="628.6"/>
			<line class="st3" x1="292.2" y1="634.7" x2="292.2" y2="628.6"/>
			<line class="st3" x1="297.2" y1="634.7" x2="292.2" y2="634.7"/>
			<line class="st3" x1="292.2" y1="641" x2="292.2" y2="634.7"/>
			<line class="st3" x1="297.2" y1="641" x2="292.2" y2="641"/>
		</g>
		<g>
			<line class="st3" x1="284.2" y1="628.6" x2="279.1" y2="628.6"/>
			<line class="st3" x1="279.1" y1="634.7" x2="279.1" y2="628.6"/>
			<line class="st3" x1="284.2" y1="634.7" x2="279.1" y2="634.7"/>
			<line class="st3" x1="279.1" y1="641" x2="279.1" y2="634.7"/>
			<line class="st3" x1="284.2" y1="641" x2="284.2" y2="634.7"/>
			<line class="st3" x1="284.2" y1="634.9" x2="284.2" y2="628.8"/>
		</g>
		<g>
			<line class="st3" x1="300.4" y1="634.7" x2="300.4" y2="628.6"/>
			<line class="st3" x1="300.4" y1="641" x2="300.4" y2="634.7"/>
			<line class="st3" x1="305.5" y1="641" x2="300.4" y2="641"/>
		</g>
		<g>
			<line class="st3" x1="318.7" y1="628.6" x2="313.5" y2="628.6"/>
			<line class="st3" x1="313.5" y1="634.7" x2="313.5" y2="628.6"/>
			<line class="st3" x1="313.5" y1="641" x2="313.5" y2="634.7"/>
			<line class="st3" x1="318.7" y1="641" x2="313.5" y2="641"/>
		</g>
		<g>
			<line class="st3" x1="321.9" y1="634.7" x2="321.9" y2="628.6"/>
			<line class="st3" x1="321.9" y1="641" x2="321.9" y2="634.7"/>
		</g>
		<g>
			<line class="st3" x1="330" y1="628.6" x2="325.1" y2="628.6"/>
			<line class="st3" x1="325.1" y1="634.7" x2="325.1" y2="628.6"/>
			<line class="st3" x1="330" y1="634.7" x2="325.1" y2="634.7"/>
			<line class="st3" x1="325.1" y1="641" x2="325.1" y2="634.7"/>
			<line class="st3" x1="330" y1="641" x2="325.1" y2="641"/>
		</g>
		<g>
			<line class="st3" x1="333.2" y1="634.7" x2="333.2" y2="628.6"/>
			<line class="st3" x1="333.2" y1="641" x2="333.2" y2="634.7"/>
			<line class="st3" x1="338.3" y1="641" x2="333.2" y2="641"/>
		</g>
		<g>
			<line class="st3" x1="346.5" y1="628.6" x2="341.5" y2="628.6"/>
			<line class="st3" x1="341.5" y1="634.7" x2="341.5" y2="628.6"/>
			<line class="st3" x1="341.5" y1="641" x2="341.5" y2="634.7"/>
			<line class="st3" x1="346.5" y1="641" x2="341.5" y2="641"/>
			<line class="st3" x1="346.5" y1="641" x2="346.5" y2="634.7"/>
			<line class="st3" x1="346.5" y1="634.9" x2="346.5" y2="628.8"/>
		</g>
	</g>
	<rect x="21.3" y="22" class="st1" width="552.8" height="680.3"/>
</g>
</svg>
