<?xml version="1.0" encoding="utf-8"?>
<!-- Generator: Adobe Illustrator 22.0.0, SVG Export Plug-In . SVG Version: 6.00 Build 0)  -->
<svg version="1.0" id="Layer_1" xmlns="http://www.w3.org/2000/svg" xmlns:xlink="http://www.w3.org/1999/xlink" x="0px" y="0px"
	 viewBox="0 0 595.3 841.9" style="enable-background:new 0 0 595.3 841.9;" xml:space="preserve">
<style type="text/css">
	.st0{display:none;}
	.st1{fill:none;stroke:#000000;stroke-width:0.5669;stroke-miterlimit:10;}
	.st2{fill:none;stroke:#231F20;stroke-miterlimit:10;}
</style>
<g id="base">
</g>
<g id="imagen" class="st0">
	
		<image style="display:inline;overflow:visible;enable-background:new    ;" width="4000" height="4000" xlink:href="8B3B6708CA87CEB0.png"  transform="matrix(1 0 0 1 -1702 -1579.1102)">
	</image>
</g>
<g id="constelaciones">
</g>
<g id="estrellas">
</g>
<g id="estrellas2">
	<g>
		<line class="st1" x1="11" y1="12" x2="1" y2="2"/>
		<line class="st1" x1="584" y1="12" x2="594" y2="2"/>
		<line class="st1" x1="11" y1="713" x2="1" y2="723"/>
		<line class="st1" x1="584" y1="713" x2="594" y2="723"/>
	</g>
	<g>
		<circle class="st2" cx="78.4" cy="331.5" r="0.3"/>
		<circle class="st2" cx="98" cy="341.6" r="0.3"/>
		<circle class="st2" cx="92.6" cy="308.8" r="0.2"/>
		<circle class="st2" cx="107.5" cy="306.4" r="0.3"/>
		<circle class="st2" cx="138" cy="281.8" r="0.3"/>
		<circle class="st2" cx="138.2" cy="314.7" r="0.4"/>
		<circle class="st2" cx="153.2" cy="347" r="0.3"/>
		<circle class="st2" cx="183.3" cy="317.3" r="0.2"/>
		<circle class="st2" cx="203.1" cy="317.9" r="0.2"/>
		<circle class="st2" cx="204.2" cy="332.7" r="0.2"/>
		<circle class="st2" cx="192" cy="358.4" r="0.4"/>
		<circle class="st2" cx="204" cy="358.9" r="0.3"/>
		<circle class="st2" cx="189.6" cy="381" r="0.3"/>
		<circle class="st2" cx="175.5" cy="385.5" r="0.3"/>
		<circle class="st2" cx="189.6" cy="394.7" r="0.3"/>
		<circle class="st2" cx="209.4" cy="393.7" r="0.3"/>
		<circle class="st2" cx="210" cy="406.3" r="0.7"/>
		<circle class="st2" cx="192" cy="408.1" r="0.2"/>
		<circle class="st2" cx="189.1" cy="417.3" r="0.3"/>
		<circle class="st2" cx="176.3" cy="419.6" r="0.2"/>
		<circle class="st2" cx="149" cy="421.1" r="0.2"/>
		<circle class="st2" cx="148" cy="433.1" r="0.4"/>
		<circle class="st2" cx="156.2" cy="448.8" r="0.3"/>
		<circle class="st2" cx="156.4" cy="487.6" r="0.2"/>
		<circle class="st2" cx="191.6" cy="479.2" r="0.2"/>
		<circle class="st2" cx="207.5" cy="483.5" r="0.3"/>
		<circle class="st2" cx="245.5" cy="489.9" r="0.3"/>
		<path class="st2" d="M256.1,483.8c0.1,0,0.2,0.1,0.2,0.2s-0.1,0.2-0.2,0.2s-0.2-0.1-0.2-0.2S256,483.8,256.1,483.8z"/>
		<circle class="st2" cx="286.8" cy="480.7" r="0.3"/>
		<circle class="st2" cx="287.5" cy="489.6" r="0.3"/>
		<circle class="st2" cx="303.8" cy="487.7" r="0.3"/>
		<circle class="st2" cx="311.2" cy="495.4" r="0.3"/>
		<circle class="st2" cx="323.2" cy="490.6" r="0.3"/>
		<circle class="st2" cx="321.6" cy="478.9" r="0.5"/>
		<circle class="st2" cx="335.1" cy="468.4" r="0.4"/>
		<circle class="st2" cx="355.1" cy="473.5" r="0.4"/>
		<circle class="st2" cx="360.1" cy="482.4" r="0.4"/>
		<circle class="st2" cx="357" cy="488.1" r="0.3"/>
		<circle class="st2" cx="376.4" cy="474" r="0.3"/>
		<circle class="st2" cx="373.6" cy="480.3" r="0.3"/>
		<circle class="st2" cx="340.3" cy="511.2" r="0.5"/>
		<circle class="st2" cx="314.8" cy="519.8" r="0.5"/>
		<circle class="st2" cx="331.9" cy="535.3" r="0.5"/>
		<circle class="st2" cx="351.5" cy="524.2" r="0.5"/>
		<circle class="st2" cx="368.3" cy="513.1" r="0.3"/>
		<circle class="st2" cx="403" cy="500.5" r="0.4"/>
		<circle class="st2" cx="302.9" cy="460.7" r="0.3"/>
		<circle class="st2" cx="319.7" cy="446.4" r="0.3"/>
		<circle class="st2" cx="316.5" cy="441.6" r="0.2"/>
		<circle class="st2" cx="325.1" cy="433.3" r="0.3"/>
		<circle class="st2" cx="345.6" cy="435.6" r="0.3"/>
		<circle class="st2" cx="347.9" cy="429.1" r="0.3"/>
		<circle class="st2" cx="357.6" cy="433.5" r="0.4"/>
		<circle class="st2" cx="354.4" cy="435.7" r="0.4"/>
		<circle class="st2" cx="357" cy="441.4" r="0.3"/>
		<circle class="st2" cx="358.2" cy="451.5" r="0.3"/>
		<circle class="st2" cx="372" cy="440.9" r="0.7"/>
		<circle class="st2" cx="385" cy="446.7" r="0.4"/>
		<circle class="st2" cx="390.8" cy="440.3" r="0.6"/>
		<circle class="st2" cx="382.7" cy="433.6" r="0.6"/>
		<circle class="st2" cx="393.3" cy="474.6" r="0.3"/>
		<circle class="st2" cx="405.8" cy="450.3" r="0.3"/>
		<circle class="st2" cx="411.4" cy="452.5" r="0.4"/>
		<circle class="st2" cx="413.2" cy="441.8" r="0.3"/>
		<circle class="st2" cx="416.9" cy="434.3" r="0.4"/>
		<circle class="st2" cx="397.4" cy="409.4" r="0.4"/>
		<circle class="st2" cx="375.8" cy="406.8" r="0.8"/>
		<circle class="st2" cx="369.8" cy="396.4" r="0.9"/>
		<circle class="st2" cx="411.5" cy="395.9" r="0.4"/>
		<circle class="st2" cx="425.9" cy="392.5" r="0.3"/>
		<circle class="st2" cx="428.1" cy="391.4" r="0.3"/>
		<circle class="st2" cx="450.1" cy="400.9" r="0.3"/>
		<circle class="st2" cx="436.9" cy="374.5" r="0.5"/>
		<circle class="st2" cx="413.7" cy="370.9" r="0.5"/>
		<circle class="st2" cx="406.3" cy="361.5" r="0.4"/>
		<circle class="st2" cx="400.2" cy="376.9" r="0.4"/>
		<path class="st2" d="M382.7,374c0-0.2-0.1-0.3-0.3-0.3s-0.3,0.1-0.3,0.3s0.1,0.3,0.3,0.3S382.7,374.2,382.7,374z"/>
		<circle class="st2" cx="389" cy="364.9" r="0.2"/>
		<circle class="st2" cx="404.4" cy="363.5" r="0.4"/>
		<circle class="st2" cx="393.7" cy="357.9" r="0.3"/>
		<circle class="st2" cx="395.6" cy="347.3" r="0.4"/>
		<circle class="st2" cx="401.5" cy="350.8" r="0.3"/>
		<circle class="st2" cx="409.1" cy="342.2" r="0.3"/>
		<circle class="st2" cx="401.2" cy="327.3" r="0.3"/>
		<circle class="st2" cx="390.5" cy="334.3" r="0.3"/>
		<circle class="st2" cx="390.1" cy="329.3" r="0.3"/>
		<circle class="st2" cx="366.7" cy="352.4" r="0.3"/>
		<circle class="st2" cx="367.9" cy="345.6" r="0.2"/>
		<circle class="st2" cx="492.9" cy="379.6" r="0.3"/>
		<circle class="st2" cx="461.2" cy="356.6" r="0.3"/>
		<circle class="st2" cx="438.1" cy="337.7" r="0.2"/>
		<circle class="st2" cx="359.7" cy="400.7" r="0.4"/>
		<circle class="st2" cx="367.6" cy="383.2" r="0.2"/>
		<circle class="st2" cx="365.4" cy="382.4" r="0.2"/>
		<circle class="st2" cx="346.7" cy="397.4" r="0.3"/>
		<circle class="st2" cx="349.1" cy="390.3" r="0.3"/>
		<circle class="st2" cx="351.4" cy="381.9" r="0.3"/>
		<circle class="st2" cx="332.4" cy="383.1" r="0.5"/>
		<circle class="st2" cx="325.2" cy="414.5" r="0.3"/>
		<circle class="st2" cx="318.4" cy="403.4" r="0.3"/>
		<circle class="st2" cx="319.9" cy="400" r="0.2"/>
		<circle class="st2" cx="314" cy="420" r="0.2"/>
		<circle class="st2" cx="282.7" cy="394.5" r="0.2"/>
		<circle class="st2" cx="282" cy="406.9" r="0.3"/>
		<circle class="st2" cx="266.4" cy="410" r="0.4"/>
		<circle class="st2" cx="257.7" cy="443" r="0.4"/>
		<circle class="st2" cx="237.5" cy="431.2" r="0.3"/>
		<circle class="st2" cx="238.7" cy="426.4" r="0.4"/>
		<circle class="st2" cx="219.6" cy="417" r="0.4"/>
		<circle class="st2" cx="217.7" cy="469.7" r="0.2"/>
		<circle class="st2" cx="227.2" cy="464.6" r="0.3"/>
		<circle class="st2" cx="230.5" cy="451.8" r="0.3"/>
		<circle class="st2" cx="526.5" cy="346.4" r="0.7"/>
		<circle class="st2" cx="503.1" cy="299.6" r="0.2"/>
		<circle class="st2" cx="484" cy="285.8" r="0.3"/>
		<circle class="st2" cx="494" cy="261.5" r="0.3"/>
		<circle class="st2" cx="530.6" cy="282.9" r="0.3"/>
		<circle class="st2" cx="515" cy="221.8" r="0.4"/>
		<circle class="st2" cx="479.6" cy="143" r="0.3"/>
		<circle class="st2" cx="483.6" cy="152.6" r="0.3"/>
		<circle class="st2" cx="476.7" cy="161.7" r="0.5"/>
		<circle class="st2" cx="469.6" cy="162.6" r="0.3"/>
		<circle class="st2" cx="457.3" cy="159.3" r="0.3"/>
		<circle class="st2" cx="436.5" cy="326.1" r="0.3"/>
		<circle class="st2" cx="460.4" cy="310.1" r="0.4"/>
		<circle class="st2" cx="454.9" cy="282.6" r="0.4"/>
		<circle class="st2" cx="435.8" cy="290" r="0.3"/>
		<circle class="st2" cx="412.4" cy="323.1" r="0.3"/>
		<circle class="st2" cx="415.7" cy="320.1" r="0.3"/>
		<circle class="st2" cx="408" cy="308.9" r="0.4"/>
		<circle class="st2" cx="333.7" cy="360.9" r="0.3"/>
		<circle class="st2" cx="346.1" cy="363.6" r="0.3"/>
		<circle class="st2" cx="347.6" cy="356" r="0.4"/>
		<circle class="st2" cx="350.7" cy="350.2" r="0.3"/>
		<circle class="st2" cx="343.8" cy="338.4" r="0.4"/>
		<circle class="st2" cx="340.5" cy="351" r="0.4"/>
		<circle class="st2" cx="339.6" cy="352.8" r="0.3"/>
		<circle class="st2" cx="274.3" cy="367" r="0.2"/>
		<circle class="st2" cx="284.2" cy="366.2" r="0.3"/>
		<circle class="st2" cx="292.5" cy="365" r="0.3"/>
		<circle class="st2" cx="311.8" cy="357.1" r="0.2"/>
		<circle class="st2" cx="319.6" cy="357.3" r="0.2"/>
		<circle class="st2" cx="321.8" cy="363.3" r="0.2"/>
		<circle class="st2" cx="326.2" cy="367.7" r="0.3"/>
		<circle class="st2" cx="309.3" cy="378.3" r="0.3"/>
		<circle class="st2" cx="295.1" cy="380.5" r="0.3"/>
		<circle class="st2" cx="285.9" cy="344.4" r="0.5"/>
		<circle class="st2" cx="278" cy="349.6" r="0.3"/>
		<circle class="st2" cx="257.2" cy="348.3" r="0.2"/>
		<circle class="st2" cx="267.7" cy="340.8" r="0.2"/>
		<circle class="st2" cx="278.6" cy="334.8" r="0.3"/>
		<circle class="st2" cx="279.2" cy="324.6" r="0.3"/>
		<circle class="st2" cx="233.4" cy="392.9" r="0.3"/>
		<circle class="st2" cx="239.4" cy="392.9" r="0.3"/>
		<circle class="st2" cx="244" cy="389.5" r="0.2"/>
		<circle class="st2" cx="260.5" cy="372.6" r="0.2"/>
		<circle class="st2" cx="256.9" cy="361.9" r="0.3"/>
		<circle class="st2" cx="239.5" cy="368.1" r="0.2"/>
		<circle class="st2" cx="235.9" cy="354.3" r="0.3"/>
		<circle class="st2" cx="237.8" cy="349" r="0.4"/>
		<circle class="st2" cx="234.4" cy="339" r="0.5"/>
		<circle class="st2" cx="246.6" cy="333.2" r="0.6"/>
		<circle class="st2" cx="235.7" cy="330.2" r="0.2"/>
		<circle class="st2" cx="235.6" cy="329.6" r="0.3"/>
		<circle class="st2" cx="244.4" cy="311" r="0.4"/>
		<circle class="st2" cx="245.3" cy="300.6" r="0.3"/>
		<circle class="st2" cx="234.8" cy="304" r="0.2"/>
		<circle class="st2" cx="224" cy="306.7" r="0.2"/>
		<circle class="st2" cx="215.1" cy="312.3" r="0.2"/>
		<circle class="st2" cx="213.3" cy="312.3" r="0.2"/>
		<circle class="st2" cx="209.3" cy="306.5" r="0.6"/>
		<circle class="st2" cx="214.9" cy="297.2" r="0.2"/>
		<circle class="st2" cx="271.6" cy="507.9" r="0.3"/>
		<circle class="st2" cx="102.9" cy="434.3" r="0.2"/>
		<path class="st2" d="M177.7,264.4c0-0.1-0.1-0.2-0.2-0.2s-0.2,0.1-0.2,0.2s0.1,0.2,0.2,0.2S177.7,264.5,177.7,264.4z"/>
		<circle class="st2" cx="178.6" cy="263.7" r="0.2"/>
		<circle class="st2" cx="191.4" cy="254.9" r="0.3"/>
		<circle class="st2" cx="197" cy="233.2" r="0.4"/>
		<circle class="st2" cx="201.1" cy="232" r="0.3"/>
		<circle class="st2" cx="206.3" cy="234.4" r="0.3"/>
		<circle class="st2" cx="215.6" cy="229.6" r="0.4"/>
		<circle class="st2" cx="238.3" cy="238.5" r="0.3"/>
		<circle class="st2" cx="264.3" cy="244.1" r="0.4"/>
		<circle class="st2" cx="222.7" cy="261.8" r="0.3"/>
		<circle class="st2" cx="213" cy="249.3" r="0.3"/>
		<circle class="st2" cx="194.5" cy="290.7" r="0.3"/>
		<circle class="st2" cx="186.1" cy="291.8" r="0.3"/>
		<circle class="st2" cx="79.3" cy="246.7" r="0.3"/>
		<circle class="st2" cx="92.2" cy="242.6" r="0.2"/>
		<circle class="st2" cx="133.1" cy="230.5" r="0.3"/>
		<circle class="st2" cx="148.7" cy="229.7" r="0.3"/>
		<circle class="st2" cx="150.8" cy="241.3" r="0.2"/>
		<circle class="st2" cx="156.8" cy="225" r="0.2"/>
		<circle class="st2" cx="166.9" cy="231.6" r="0.3"/>
		<circle class="st2" cx="175.6" cy="227.6" r="0.3"/>
		<circle class="st2" cx="234.5" cy="264.3" r="0.4"/>
		<circle class="st2" cx="238.5" cy="264.6" r="0.3"/>
		<circle class="st2" cx="248" cy="263" r="0.2"/>
		<circle class="st2" cx="256.7" cy="262.5" r="0.3"/>
		<circle class="st2" cx="241.4" cy="270.4" r="0.2"/>
		<circle class="st2" cx="248.2" cy="275.7" r="0.3"/>
		<circle class="st2" cx="266.9" cy="282.3" r="0.3"/>
		<path class="st2" d="M269.4,278.4c0-0.1-0.1-0.2-0.2-0.2s-0.2,0.1-0.2,0.2s0.1,0.2,0.2,0.2S269.4,278.5,269.4,278.4z"/>
		<circle class="st2" cx="279.7" cy="254.6" r="0.4"/>
		<path class="st2" d="M281.4,249.6c0-0.2-0.1-0.3-0.3-0.3s-0.3,0.1-0.3,0.3s0.1,0.3,0.3,0.3S281.4,249.7,281.4,249.6z"/>
		<circle class="st2" cx="244.3" cy="211.4" r="0.3"/>
		<circle class="st2" cx="243.9" cy="199.4" r="0.2"/>
		<circle class="st2" cx="225.1" cy="201.7" r="0.4"/>
		<circle class="st2" cx="209.8" cy="213.7" r="0.3"/>
		<circle class="st2" cx="186.7" cy="204.8" r="0.3"/>
		<circle class="st2" cx="182.4" cy="201.7" r="0.2"/>
		<circle class="st2" cx="167.9" cy="195" r="0.4"/>
		<circle class="st2" cx="114.1" cy="206.4" r="0.5"/>
		<circle class="st2" cx="109.9" cy="152.8" r="0.5"/>
		<circle class="st2" cx="163.8" cy="153" r="0.4"/>
		<circle class="st2" cx="175" cy="163.9" r="0.4"/>
		<circle class="st2" cx="177.9" cy="167.1" r="0.3"/>
		<circle class="st2" cx="205.8" cy="159.4" r="0.2"/>
		<circle class="st2" cx="221.1" cy="157.7" r="0.3"/>
		<circle class="st2" cx="179.1" cy="144.8" r="0.4"/>
		<circle class="st2" cx="202.8" cy="134.2" r="0.3"/>
		<circle class="st2" cx="198.7" cy="118.1" r="0.2"/>
		<circle class="st2" cx="189.2" cy="97.4" r="0.3"/>
		<circle class="st2" cx="191.6" cy="78.9" r="0.2"/>
		<circle class="st2" cx="197.1" cy="84.2" r="0.2"/>
		<circle class="st2" cx="242" cy="143.1" r="0.3"/>
		<circle class="st2" cx="269.3" cy="194.5" r="0.3"/>
		<circle class="st2" cx="266.3" cy="186.2" r="0.3"/>
		<circle class="st2" cx="264.8" cy="182.8" r="0.3"/>
		<circle class="st2" cx="262.5" cy="185.1" r="0.2"/>
		<circle class="st2" cx="260.4" cy="182.4" r="0.2"/>
		<circle class="st2" cx="290.3" cy="172.8" r="0.3"/>
		<circle class="st2" cx="297.4" cy="175.2" r="0.2"/>
		<circle class="st2" cx="302" cy="176.6" r="0.2"/>
		<circle class="st2" cx="301.3" cy="178.1" r="0.2"/>
		<circle class="st2" cx="309.3" cy="158.6" r="0.2"/>
		<circle class="st2" cx="293.5" cy="160.3" r="0.2"/>
		<circle class="st2" cx="308" cy="149.2" r="0.4"/>
		<circle class="st2" cx="291.7" cy="127.8" r="0.3"/>
		<circle class="st2" cx="275.1" cy="111" r="0.5"/>
		<circle class="st2" cx="259.4" cy="131.3" r="0.4"/>
		<circle class="st2" cx="263.1" cy="93.1" r="0.6"/>
		<circle class="st2" cx="165.6" cy="98.9" r="0.3"/>
		<circle class="st2" cx="298.9" cy="94.1" r="0.4"/>
		<circle class="st2" cx="308.3" cy="69.2" r="0.3"/>
		<circle class="st2" cx="315.9" cy="62.3" r="0.3"/>
		<circle class="st2" cx="366.8" cy="66.8" r="0.5"/>
		<circle class="st2" cx="328.6" cy="135.3" r="0.4"/>
		<circle class="st2" cx="334.4" cy="133.2" r="0.3"/>
		<circle class="st2" cx="331.5" cy="121.9" r="0.3"/>
		<circle class="st2" cx="337.8" cy="119.6" r="0.3"/>
		<circle class="st2" cx="342.9" cy="115.5" r="0.9"/>
		<circle class="st2" cx="370.1" cy="120.4" r="0.3"/>
		<circle class="st2" cx="392.7" cy="120.4" r="0.3"/>
		<circle class="st2" cx="398.9" cy="121.5" r="0.3"/>
		<circle class="st2" cx="428.2" cy="98.5" r="0.3"/>
		<circle class="st2" cx="422.3" cy="113" r="0.3"/>
		<circle class="st2" cx="423.7" cy="140.2" r="0.4"/>
		<circle class="st2" cx="409.5" cy="142.2" r="0.3"/>
		<circle class="st2" cx="362.3" cy="147.8" r="0.3"/>
		<circle class="st2" cx="368.9" cy="146.4" r="0.3"/>
		<circle class="st2" cx="376.4" cy="151.4" r="0.3"/>
		<circle class="st2" cx="387" cy="156.9" r="0.2"/>
		<circle class="st2" cx="397.8" cy="161.5" r="0.3"/>
		<circle class="st2" cx="429.6" cy="175.2" r="0.3"/>
		<circle class="st2" cx="434.9" cy="183.6" r="0.3"/>
		<circle class="st2" cx="395" cy="192.5" r="0.3"/>
		<circle class="st2" cx="323.3" cy="187.8" r="0.4"/>
		<circle class="st2" cx="298" cy="195.5" r="0.4"/>
		<circle class="st2" cx="295.3" cy="199.9" r="0.7"/>
		<circle class="st2" cx="292.6" cy="205.9" r="0.3"/>
		<circle class="st2" cx="283.6" cy="223.1" r="0.3"/>
		<circle class="st2" cx="294.4" cy="218.6" r="0.3"/>
		<circle class="st2" cx="310.3" cy="213.8" r="0.3"/>
		<circle class="st2" cx="320.6" cy="232.8" r="0.3"/>
		<circle class="st2" cx="380.7" cy="195.8" r="0.5"/>
		<circle class="st2" cx="404.3" cy="208.3" r="0.3"/>
		<circle class="st2" cx="417.9" cy="232.6" r="0.3"/>
		<circle class="st2" cx="372.3" cy="215.9" r="0.4"/>
		<circle class="st2" cx="368.8" cy="220.1" r="0.2"/>
		<circle class="st2" cx="357.2" cy="248.6" r="0.4"/>
		<circle class="st2" cx="366.2" cy="264" r="0.4"/>
		<circle class="st2" cx="380.8" cy="268.9" r="0.5"/>
		<circle class="st2" cx="346.9" cy="230.7" r="0.3"/>
		<circle class="st2" cx="467.3" cy="187" r="0.2"/>
		<circle class="st2" cx="460.4" cy="191.3" r="0.2"/>
		<circle class="st2" cx="452.6" cy="198.3" r="0.3"/>
		<circle class="st2" cx="460.6" cy="200.8" r="0.3"/>
		<circle class="st2" cx="465.7" cy="219.1" r="0.3"/>
		<circle class="st2" cx="454.6" cy="229.7" r="0.4"/>
		<circle class="st2" cx="447.9" cy="233.9" r="0.3"/>
		<circle class="st2" cx="420.7" cy="252.7" r="0.3"/>
		<circle class="st2" cx="424.1" cy="251" r="0.4"/>
		<circle class="st2" cx="403.8" cy="263.2" r="0.4"/>
		<circle class="st2" cx="401.8" cy="278.9" r="0.2"/>
		<circle class="st2" cx="402.2" cy="284.1" r="0.2"/>
		<circle class="st2" cx="412.5" cy="292.8" r="0.4"/>
		<circle class="st2" cx="411.7" cy="300.7" r="0.5"/>
		<circle class="st2" cx="397.6" cy="301.6" r="0.4"/>
		<circle class="st2" cx="392.6" cy="301.4" r="0.7"/>
		<circle class="st2" cx="387.5" cy="303.7" r="0.4"/>
		<circle class="st2" cx="374.7" cy="313.5" r="0.5"/>
		<circle class="st2" cx="370.1" cy="320.9" r="0.5"/>
		<circle class="st2" cx="364.5" cy="329.3" r="0.3"/>
		<circle class="st2" cx="356.9" cy="327.8" r="0.4"/>
		<circle class="st2" cx="347.6" cy="323.3" r="0.5"/>
		<circle class="st2" cx="345.7" cy="315.9" r="0.4"/>
		<circle class="st2" cx="348.6" cy="314.3" r="0.5"/>
		<circle class="st2" cx="354.7" cy="312.4" r="0.5"/>
		<circle class="st2" cx="353.7" cy="311.5" r="0.6"/>
		<circle class="st2" cx="324.9" cy="330.2" r="0.3"/>
		<circle class="st2" cx="327.1" cy="323.8" r="0.3"/>
		<circle class="st2" cx="361.9" cy="297.2" r="0.2"/>
		<circle class="st2" cx="368" cy="287.6" r="0.4"/>
		<circle class="st2" cx="344.4" cy="272.1" r="0.3"/>
		<circle class="st2" cx="337.3" cy="242.1" r="0.3"/>
		<circle class="st2" cx="331.5" cy="233.3" r="0.3"/>
		<circle class="st2" cx="310.8" cy="256.9" r="0.2"/>
		<circle class="st2" cx="310.6" cy="261" r="0.3"/>
		<circle class="st2" cx="316.2" cy="268.2" r="0.3"/>
		<circle class="st2" cx="318.6" cy="270" r="0.3"/>
		<circle class="st2" cx="322.2" cy="269" r="0.3"/>
		<circle class="st2" cx="322.2" cy="280.2" r="0.5"/>
		<circle class="st2" cx="326.6" cy="282.3" r="0.4"/>
		<circle class="st2" cx="335.6" cy="280.3" r="0.4"/>
		<circle class="st2" cx="337.1" cy="290.3" r="0.3"/>
		<circle class="st2" cx="343.8" cy="293.1" r="0.4"/>
		<circle class="st2" cx="333.7" cy="299.6" r="0.5"/>
		<circle class="st2" cx="335.4" cy="305.3" r="0.4"/>
		<circle class="st2" cx="306.5" cy="318.2" r="0.2"/>
		<circle class="st2" cx="306.8" cy="317.5" r="0.3"/>
		<circle class="st2" cx="306.9" cy="309.3" r="0.3"/>
		<circle class="st2" cx="312.7" cy="307.1" r="0.3"/>
		<circle class="st2" cx="313.2" cy="304.1" r="0.2"/>
		<circle class="st2" cx="314.7" cy="302.4" r="0.2"/>
		<circle class="st2" cx="317.9" cy="287.5" r="0.5"/>
		<circle class="st2" cx="316.4" cy="282.5" r="0.3"/>
		<circle class="st2" cx="302.6" cy="275.8" r="0.2"/>
		<circle class="st2" cx="292.1" cy="297.8" r="0.2"/>
		<circle class="st2" cx="294.3" cy="311.7" r="0.2"/>
	</g>
</g>
</svg>
