<?xml version="1.0" encoding="utf-8"?>
<!-- Generator: Adobe Illustrator 22.0.0, SVG Export Plug-In . SVG Version: 6.00 Build 0)  -->
<svg version="1.0" id="Layer_1" xmlns="http://www.w3.org/2000/svg" xmlns:xlink="http://www.w3.org/1999/xlink" x="0px" y="0px"
	 viewBox="0 0 595.3 841.9" style="enable-background:new 0 0 595.3 841.9;" xml:space="preserve">
<style type="text/css">
	.st0{display:none;}
	.st1{fill:none;stroke:#000000;stroke-width:0.5669;stroke-miterlimit:10;}
	.st2{fill:none;stroke:#231F20;stroke-width:0.5;stroke-linecap:square;stroke-linejoin:round;stroke-miterlimit:10;}
</style>
<g id="base">
</g>
<g id="imagen" class="st0">
	
		<image style="display:inline;overflow:visible;enable-background:new    ;" width="4000" height="4000" xlink:href="8B3B6708CA87CEB0.png"  transform="matrix(1 0 0 1 -1702 -1579.1102)">
	</image>
</g>
<g id="constelaciones">
</g>
<g id="estrellas">
</g>
<g id="estrellas2">
	<g>
		<line class="st1" x1="11" y1="12" x2="1" y2="2"/>
		<line class="st1" x1="584" y1="12" x2="594" y2="2"/>
		<line class="st1" x1="11" y1="713" x2="1" y2="723"/>
		<line class="st1" x1="584" y1="713" x2="594" y2="723"/>
	</g>
	<g>
		<g>
			<g>
				<line class="st2" x1="235.3" y1="649" x2="235.3" y2="661.3"/>
				<line class="st2" x1="238.5" y1="649" x2="238.5" y2="661.3"/>
				<line class="st2" x1="238.5" y1="661.3" x2="243.5" y2="661.3"/>
				<line class="st2" x1="243.5" y1="655.2" x2="243.5" y2="661.3"/>
				<line class="st2" x1="238.5" y1="655.2" x2="243.5" y2="655.2"/>
			</g>
			<g>
				<line class="st2" x1="263.8" y1="661.3" x2="263.8" y2="649"/>
				<line class="st2" x1="263.8" y1="649" x2="258.8" y2="649"/>
				<line class="st2" x1="258.8" y1="655.2" x2="258.8" y2="649"/>
				<line class="st2" x1="263.8" y1="655.2" x2="258.8" y2="655.2"/>
				<line class="st2" x1="256.6" y1="661.3" x2="256.6" y2="649"/>
				<line class="st2" x1="256.6" y1="649" x2="251.4" y2="649"/>
				<line class="st2" x1="251.4" y1="655.2" x2="251.4" y2="649"/>
				<line class="st2" x1="251.4" y1="661.3" x2="251.4" y2="655.2"/>
				<line class="st2" x1="256.6" y1="661.3" x2="251.4" y2="661.3"/>
			</g>
			<g>
				<line class="st2" x1="271.7" y1="661.3" x2="271.7" y2="649"/>
				<line class="st2" x1="288.2" y1="661.3" x2="288.2" y2="649"/>
				<line class="st2" x1="288.2" y1="649" x2="283.1" y2="649"/>
				<line class="st2" x1="283.1" y1="655.2" x2="283.1" y2="649"/>
				<line class="st2" x1="288.2" y1="655.2" x2="283.1" y2="655.2"/>
				<line class="st2" x1="283.1" y1="661.3" x2="283.1" y2="655.2"/>
				<line class="st2" x1="288.2" y1="661.3" x2="283.1" y2="661.3"/>
				<line class="st2" x1="280" y1="661.3" x2="280" y2="649"/>
				<line class="st2" x1="280" y1="649" x2="274.9" y2="649"/>
				<line class="st2" x1="274.9" y1="655.2" x2="274.9" y2="649"/>
				<line class="st2" x1="280" y1="655.2" x2="274.9" y2="655.2"/>
				<line class="st2" x1="295.4" y1="661.3" x2="295.4" y2="649"/>
				<line class="st2" x1="295.4" y1="649" x2="290.5" y2="649"/>
				<line class="st2" x1="295.4" y1="655.2" x2="290.5" y2="655.2"/>
				<line class="st2" x1="295.4" y1="661.3" x2="290.5" y2="661.3"/>
			</g>
			<circle class="st2" cx="247.6" cy="661.3" r="0.3"/>
			<circle class="st2" cx="267.8" cy="661.3" r="0.3"/>
		</g>
		<g>
			<g>
				<line class="st2" x1="310.7" y1="661.3" x2="310.7" y2="649"/>
				<line class="st2" x1="306.8" y1="655.2" x2="306.8" y2="649"/>
				<line class="st2" x1="306.8" y1="649" x2="301.7" y2="649"/>
				<line class="st2" x1="306.8" y1="655.2" x2="301.7" y2="655.2"/>
				<line class="st2" x1="301.7" y1="661.3" x2="301.7" y2="655.2"/>
				<line class="st2" x1="306.8" y1="661.3" x2="301.7" y2="661.3"/>
				<line class="st2" x1="322.7" y1="661.3" x2="322.7" y2="649"/>
				<line class="st2" x1="322.7" y1="649" x2="317.6" y2="649"/>
				<line class="st2" x1="317.6" y1="655.2" x2="317.6" y2="649"/>
				<line class="st2" x1="317.6" y1="661.3" x2="317.6" y2="655.2"/>
				<line class="st2" x1="322.7" y1="661.3" x2="317.6" y2="661.3"/>
				<line class="st2" x1="330.7" y1="661.3" x2="330.7" y2="649"/>
				<line class="st2" x1="330.7" y1="649" x2="325.6" y2="649"/>
				<line class="st2" x1="325.6" y1="655.2" x2="325.6" y2="649"/>
				<line class="st2" x1="325.6" y1="661.3" x2="325.6" y2="655.2"/>
				<line class="st2" x1="330.7" y1="661.3" x2="325.6" y2="661.3"/>
				<circle class="st2" cx="314.7" cy="652" r="0.3"/>
				<circle class="st2" cx="314.7" cy="658.4" r="0.3"/>
			</g>
			<g>
				<line class="st2" x1="341.6" y1="661.3" x2="341.6" y2="649"/>
				<line class="st2" x1="341.6" y1="649" x2="336.7" y2="649"/>
				<line class="st2" x1="336.7" y1="655.2" x2="336.7" y2="649"/>
				<line class="st2" x1="341.6" y1="655.2" x2="336.7" y2="655.2"/>
				<line class="st2" x1="336.7" y1="661.3" x2="336.7" y2="655.2"/>
				<line class="st2" x1="341.6" y1="661.3" x2="336.7" y2="661.3"/>
				<line class="st2" x1="348.8" y1="655.2" x2="348.8" y2="661.3"/>
				<line class="st2" x1="348.8" y1="661.3" x2="343.9" y2="661.3"/>
				<line class="st2" x1="348.8" y1="655.2" x2="343.9" y2="655.2"/>
				<line class="st2" x1="343.9" y1="649" x2="343.9" y2="655.2"/>
				<line class="st2" x1="348.8" y1="649" x2="343.9" y2="649"/>
				<line class="st2" x1="360.4" y1="661.3" x2="360.4" y2="649"/>
				<line class="st2" x1="360.4" y1="649" x2="355.3" y2="649"/>
				<line class="st2" x1="355.3" y1="655.2" x2="355.3" y2="649"/>
				<line class="st2" x1="360.4" y1="655.2" x2="355.3" y2="655.2"/>
				<line class="st2" x1="355.3" y1="661.3" x2="355.3" y2="655.2"/>
				<line class="st2" x1="367.8" y1="655.2" x2="367.8" y2="661.3"/>
				<line class="st2" x1="367.8" y1="661.3" x2="362.7" y2="661.3"/>
				<line class="st2" x1="367.8" y1="655.2" x2="362.7" y2="655.2"/>
				<line class="st2" x1="362.7" y1="649" x2="362.7" y2="655.2"/>
				<line class="st2" x1="367.8" y1="649" x2="362.7" y2="649"/>
				<circle class="st2" cx="352.1" cy="661.3" r="0.3"/>
				<circle class="st2" cx="371" cy="661.3" r="0.3"/>
			</g>
		</g>
	</g>
	<g>
		<g>
			<line class="st2" x1="301.4" y1="620.8" x2="301.4" y2="608.3"/>
		</g>
		<g>
			<line class="st2" x1="317.8" y1="608.3" x2="317.8" y2="620.8"/>
			<line class="st2" x1="317.8" y1="620.8" x2="322.8" y2="620.8"/>
			<line class="st2" x1="317.8" y1="614.6" x2="322.8" y2="614.6"/>
			<line class="st2" x1="317.8" y1="608.3" x2="322.8" y2="608.3"/>
		</g>
		<g>
			<line class="st2" x1="288.8" y1="620.8" x2="288.8" y2="608.3"/>
			<line class="st2" x1="288.8" y1="608.3" x2="283.9" y2="608.3"/>
			<line class="st2" x1="283.9" y1="614.6" x2="283.9" y2="608.3"/>
			<line class="st2" x1="288.8" y1="614.6" x2="283.9" y2="614.6"/>
			<line class="st2" x1="283.9" y1="620.8" x2="283.9" y2="614.6"/>
		</g>
		<g>
			<line class="st2" x1="297" y1="620.8" x2="297" y2="614.6"/>
			<line class="st2" x1="291.9" y1="614.6" x2="291.9" y2="608.3"/>
			<g>
				<line class="st2" x1="297" y1="608.3" x2="291.9" y2="608.3"/>
				<line class="st2" x1="297" y1="614.6" x2="291.9" y2="614.6"/>
				<line class="st2" x1="297" y1="620.8" x2="291.9" y2="620.8"/>
			</g>
		</g>
		<g>
			<line class="st2" x1="314.2" y1="620.8" x2="309.4" y2="620.8"/>
			<line class="st2" x1="314.5" y1="620.8" x2="314.5" y2="614.6"/>
			<line class="st2" x1="314.5" y1="608.3" x2="309.4" y2="608.3"/>
			<line class="st2" x1="309.4" y1="614.6" x2="309.4" y2="608.3"/>
			<line class="st2" x1="314.5" y1="614.6" x2="309.4" y2="614.6"/>
		</g>
	</g>
	<g>
		<g>
			<line class="st2" x1="257.9" y1="634.7" x2="257.9" y2="628.6"/>
			<line class="st2" x1="257.9" y1="641" x2="257.9" y2="634.7"/>
			<line class="st2" x1="262.9" y1="641" x2="257.9" y2="641"/>
			<line class="st2" x1="262.9" y1="641" x2="262.9" y2="634.7"/>
			<line class="st2" x1="262.9" y1="634.9" x2="262.9" y2="628.8"/>
		</g>
		<g>
			<line class="st2" x1="271.1" y1="628.6" x2="266" y2="628.6"/>
			<line class="st2" x1="266" y1="634.7" x2="266" y2="628.6"/>
			<line class="st2" x1="271.1" y1="634.7" x2="266" y2="634.7"/>
			<line class="st2" x1="266" y1="641" x2="266" y2="634.7"/>
			<line class="st2" x1="271.1" y1="641" x2="266" y2="641"/>
		</g>
		<g>
			<line class="st2" x1="275.4" y1="641" x2="275.4" y2="634.7"/>
			<line class="st2" x1="275.4" y1="634.9" x2="275.4" y2="628.8"/>
		</g>
		<g>
			<line class="st2" x1="297.4" y1="628.6" x2="292.4" y2="628.6"/>
			<line class="st2" x1="292.4" y1="634.7" x2="292.4" y2="628.6"/>
			<line class="st2" x1="297.4" y1="634.7" x2="292.4" y2="634.7"/>
			<line class="st2" x1="292.4" y1="641" x2="292.4" y2="634.7"/>
			<line class="st2" x1="297.4" y1="641" x2="292.4" y2="641"/>
		</g>
		<g>
			<line class="st2" x1="284.4" y1="628.6" x2="279.2" y2="628.6"/>
			<line class="st2" x1="279.2" y1="634.7" x2="279.2" y2="628.6"/>
			<line class="st2" x1="284.4" y1="634.7" x2="279.2" y2="634.7"/>
			<line class="st2" x1="279.2" y1="641" x2="279.2" y2="634.7"/>
			<line class="st2" x1="284.4" y1="641" x2="284.4" y2="634.7"/>
			<line class="st2" x1="284.4" y1="634.9" x2="284.4" y2="628.8"/>
		</g>
		<g>
			<line class="st2" x1="300.5" y1="634.7" x2="300.5" y2="628.6"/>
			<line class="st2" x1="300.5" y1="641" x2="300.5" y2="634.7"/>
			<line class="st2" x1="305.6" y1="641" x2="300.5" y2="641"/>
		</g>
		<g>
			<line class="st2" x1="318.9" y1="628.6" x2="313.6" y2="628.6"/>
			<line class="st2" x1="313.6" y1="634.7" x2="313.6" y2="628.6"/>
			<line class="st2" x1="313.6" y1="641" x2="313.6" y2="634.7"/>
			<line class="st2" x1="318.9" y1="641" x2="313.6" y2="641"/>
		</g>
		<g>
			<line class="st2" x1="323" y1="634.7" x2="323" y2="628.6"/>
			<line class="st2" x1="323" y1="641" x2="323" y2="634.7"/>
		</g>
		<g>
			<line class="st2" x1="332.1" y1="628.6" x2="327.2" y2="628.6"/>
			<line class="st2" x1="327.2" y1="634.7" x2="327.2" y2="628.6"/>
			<line class="st2" x1="332.1" y1="634.7" x2="327.2" y2="634.7"/>
			<line class="st2" x1="327.2" y1="641" x2="327.2" y2="634.7"/>
			<line class="st2" x1="332.1" y1="641" x2="327.2" y2="641"/>
		</g>
		<g>
			<line class="st2" x1="335.4" y1="634.7" x2="335.4" y2="628.6"/>
			<line class="st2" x1="335.4" y1="641" x2="335.4" y2="634.7"/>
			<line class="st2" x1="340.4" y1="641" x2="335.4" y2="641"/>
		</g>
		<g>
			<line class="st2" x1="348.6" y1="628.6" x2="343.6" y2="628.6"/>
			<line class="st2" x1="343.6" y1="634.7" x2="343.6" y2="628.6"/>
			<line class="st2" x1="343.6" y1="641" x2="343.6" y2="634.7"/>
			<line class="st2" x1="348.6" y1="641" x2="343.6" y2="641"/>
			<line class="st2" x1="348.6" y1="641" x2="348.6" y2="634.7"/>
			<line class="st2" x1="348.6" y1="634.9" x2="348.6" y2="628.8"/>
		</g>
	</g>
</g>
</svg>
