<?xml version="1.0" encoding="utf-8"?>
<!-- Generator: Adobe Illustrator 22.0.0, SVG Export Plug-In . SVG Version: 6.00 Build 0)  -->
<svg version="1.0" id="Layer_8" xmlns="http://www.w3.org/2000/svg" xmlns:xlink="http://www.w3.org/1999/xlink" x="0px" y="0px"
	 viewBox="0 0 595.3 841.9" style="enable-background:new 0 0 595.3 841.9;" xml:space="preserve">
<style type="text/css">
	.st0{fill:#231F20;}
	.st1{fill:none;stroke:#231F20;stroke-width:0.5;stroke-linecap:square;stroke-linejoin:round;stroke-miterlimit:10;}
</style>
<g>
	<path class="st0" d="M109,63.4c23.5,0,42.7,19.2,42.7,42.7c0,23.5-19.2,42.7-42.7,42.7s-42.7-19.2-42.7-42.7
		C66.3,82.5,85.5,63.4,109,63.4 M109,62.9c-23.9,0-43.2,19.3-43.2,43.2c0,23.9,19.3,43.2,43.2,43.2s43.2-19.3,43.2-43.2
		C152.2,82.2,132.9,62.9,109,62.9L109,62.9z"/>
</g>
<g>
	<polyline class="st1" points="83.2,115.1 88.6,109.8 92.2,109.9 92.4,112.5 	"/>
	<polyline class="st1" points="86.8,105.2 87.6,100.4 89.2,105.2 	"/>
	<polyline class="st1" points="90.6,105.1 87.6,100.4 87.8,100.2 90.1,98.7 91.1,94.8 91.8,94.5 92.8,95 94.4,94.1 98.5,95.7 
		103.1,96.7 	"/>
	<path class="st1" d="M95.7,99.9"/>
	<line class="st1" x1="98.5" y1="95.7" x2="95.7" y2="99.9"/>
	<line class="st1" x1="94.4" y1="94.1" x2="93.9" y2="97.6"/>
	<line class="st1" x1="91.8" y1="94.5" x2="92.1" y2="93.8"/>
	<polyline class="st1" points="66.2,100.4 68.4,98.1 70.1,97.2 72.3,96.4 79.6,94.3 82.4,94.1 83.9,93.3 85,93.5 85.7,94.4 
		87.3,93.7 	"/>
	<polyline class="st1" points="82.4,94.1 82,95.5 82.8,96.2 84.8,95.8 85.7,94.4 	"/>
	<polyline class="st1" points="66.2,112.1 69.8,112.3 72.4,108.3 75.1,107.9 80.5,103.4 80.5,109.4 73.4,114.1 69.8,112.3 	"/>
	<polyline class="st1" points="96.1,89.1 93.3,91.2 89.3,89.7 88.5,89.1 85.9,87.9 81.3,88.7 76.3,90 75.7,85.1 75.5,80.4 
		80.5,80.2 85.2,80.4 87.2,82.4 87.7,83 92.7,81.5 95.4,81.2 	"/>
	<line class="st1" x1="74.4" y1="80.1" x2="75.5" y2="80.4"/>
	<polyline class="st1" points="92.1,77.1 87.9,78.9 85.2,80.4 85.9,87.9 	"/>
	<polyline class="st1" points="91.4,74.2 91.7,72.9 89.6,70.5 91.1,68.1 90.1,67.1 88.4,69.6 89.6,70.5 	"/>
	<line class="st1" x1="84.4" y1="70.4" x2="85.5" y2="70.8"/>
	<polyline class="st1" points="99.1,78.7 102.2,76.5 105,72.9 109.3,69.9 111,65.4 112.3,64.2 	"/>
	<polyline class="st1" points="102.9,69.7 105,72.9 108,75.9 110.9,79.8 	"/>
	<polygon class="st1" points="114.6,77.3 115.1,74.9 116.2,74.5 117.2,73.7 116.3,73.2 116.2,74.5 115.6,76.9 	"/>
	<polyline class="st1" points="122,74.6 126,74.6 127.2,74.8 129,78.5 127,81.9 123.1,80.1 121.8,79.2 120.6,79.5 	"/>
	<polyline class="st1" points="132.8,69.9 132.4,70.7 131.4,73.2 127.2,74.8 	"/>
	<polyline class="st1" points="131.4,73.2 131.6,78.1 129,78.5 	"/>
	<polyline class="st1" points="126.4,87.5 132.6,84.4 132.2,81 131.6,78.1 	"/>
	<line class="st1" x1="133.6" y1="85.9" x2="132.6" y2="84.4"/>
	<polyline class="st1" points="141.6,78.6 142.3,80.3 141.1,81.9 139.8,82.1 138.7,82.2 137.6,81.5 137.2,79.5 	"/>
	<line class="st1" x1="147.9" y1="92.7" x2="149.9" y2="91.8"/>
	<polygon class="st1" points="139.4,86.5 138.2,87.2 136.8,88.5 138.2,89 	"/>
	<polyline class="st1" points="138.2,89 139.1,92.3 137.1,94.1 135.9,94.9 131.7,97.9 131.1,98.2 128.1,100.1 124,101.1 
		121.3,100.2 119.7,97.5 119.4,96.7 117.8,94.3 114.4,90.9 	"/>
	<polyline class="st1" points="119.7,97.5 121.8,92.4 122.4,91.6 123.9,88.1 128.1,90.3 130.6,94.6 131.7,97.9 	"/>
	<polyline class="st1" points="122.4,91.6 122.9,94 123.4,96.7 123.7,98.8 124,101.1 121.7,104.4 120.5,106.2 	"/>
	<polyline class="st1" points="127,105.9 127.8,104.6 127.8,103.8 127.7,102.9 128.1,100.1 128.3,95.8 128.3,92.7 128.1,90.3 	"/>
	<polyline class="st1" points="129.6,105.4 129.5,106.8 128.8,108.3 129.5,106.8 127,107 126,106.9 125.1,107.3 122.9,109.1 
		122,110.4 121,111.9 119.7,111.6 118,110.8 117.7,109.5 118.2,109.2 119.1,108.7 119.3,108.9 	"/>
	<polyline class="st1" points="144.1,99.8 147.7,101.8 150.7,103.6 152.2,105.4 	"/>
	<polyline class="st1" points="142.3,104.1 145.7,106.6 147.6,109.7 150,115 151.4,114.7 	"/>
	<polyline class="st1" points="129.6,110.8 130.2,110.3 133.8,104.9 137.2,103.6 138.1,108.5 133.9,111.4 	"/>
	<line class="st1" x1="133.8" y1="104.9" x2="138.1" y2="108.5"/>
	<polyline class="st1" points="134.2,113.4 138.3,116.8 143.9,120.9 143.7,124.3 143.3,127.3 142.6,130.4 141.2,134.9 	"/>
	<polyline class="st1" points="105.7,79.8 107.5,79.8 108.3,81.7 111.1,81.4 112.5,83 	"/>
	<polyline class="st1" points="109.9,84.6 109,84.4 107.7,83.9 	"/>
	<line class="st1" x1="109.7" y1="84.9" x2="109" y2="84.4"/>
	<polyline class="st1" points="99.5,90.9 99.5,88.7 99.9,88.6 	"/>
	<polyline class="st1" points="104,87.8 103.5,86.3 103.2,85.7 102.4,85.6 102.8,86.2 103.5,86.3 	"/>
	<polyline class="st1" points="109.1,88 108.7,88.8 108.2,89.8 106.6,92.9 108.5,92.1 111.4,91.2 108.7,88.8 111.5,87.5 113.7,86.6 
		111.4,91.2 113.2,94.7 	"/>
	<polygon class="st1" points="115.1,94.8 116.1,96.3 116.4,99 115.4,96.6 	"/>
	<polygon class="st1" points="106.1,97.7 105.9,98.6 105.2,99.9 104,102.8 103.6,103.5 100.2,102.3 99,101.4 97.8,100.3 98.5,100.4 
		100.2,100.1 101.8,100 	"/>
	<polygon class="st1" points="94,108.9 94.3,108.9 95.9,107.9 97.9,107.4 99.7,106.8 99.2,106 97.9,107.4 94.3,106.2 93.3,107.8 	
		"/>
	<polyline class="st1" points="99.5,108.7 98.9,109.8 98,112 98,112.1 99.9,112.6 97.8,113.7 98.4,115.4 98,116.4 	"/>
	<line class="st1" x1="98" y1="112.1" x2="97.8" y2="113.7"/>
	<polygon class="st1" points="101.8,105.9 103.1,105.7 104.1,106.1 104.9,109.9 102.4,109.2 	"/>
	<polygon class="st1" points="105.8,111.1 105.7,112.9 105.6,115.5 101.8,115.3 103.7,114 	"/>
	<polyline class="st1" points="115.4,111.2 114.3,110.9 113.9,112.1 	"/>
	<polyline class="st1" points="114.2,109.5 113,109.7 112.2,109 111.8,108.3 111.7,107.9 111.8,107.4 112.1,107.1 112.7,107.2 	"/>
	<polyline class="st1" points="110.6,109.9 110.7,109.8 110.7,108.4 112.7,104.4 112.4,103.6 113.5,103.1 112.8,101.3 112.4,101 
		111.4,99.7 111.4,99 	"/>
	<polyline class="st1" points="112.8,101.3 113.5,101.2 113.7,101.8 113.5,103.1 114.2,103.5 115.9,103.2 117.4,101.7 	"/>
	<polyline class="st1" points="115.9,103.2 116.1,104.9 117.3,105.5 115.5,106.6 115.8,107.7 	"/>
	<polygon class="st1" points="112.7,104.4 115.5,106.6 116.1,104.9 114.2,103.5 	"/>
	<polyline class="st1" points="108.5,108.8 108,106.2 108.3,102.9 109.9,102.4 110.9,102.2 113.5,103.1 	"/>
	<polyline class="st1" points="74.2,130.7 77.6,128 77.9,124.4 78.3,121.5 	"/>
	<polyline class="st1" points="93.4,125.6 90.2,126.1 89.6,127.6 87.3,128.1 82.5,128.3 82.3,130.4 83.8,133.3 81.9,135.4 
		78.9,137.2 	"/>
	<polyline class="st1" points="83.8,140.2 88.8,129.8 89.8,129.5 91.1,130 93.8,131.8 96.1,131.3 	"/>
	<polyline class="st1" points="95.1,127.6 98.1,128 98.5,129.3 98.3,130.1 102,132.3 103.5,126.3 	"/>
	<polygon class="st1" points="97.6,123.3 98.6,123.3 99.5,122.7 102.4,119.6 101.8,117.7 98.7,118.9 	"/>
	<path class="st1" d="M87.2,121.9"/>
	<polygon class="st1" points="89.8,121.2 90.2,117.1 92.4,117.2 	"/>
	<polygon class="st1" points="93.4,123.4 89.8,121.2 87.2,121.9 89.8,123.6 	"/>
	<polygon class="st1" points="112,128.1 109.1,125.9 106.4,123.6 106.3,125.8 109.1,127 	"/>
	<polyline class="st1" points="114,127.1 113,125.3 113,124.5 112.8,125.1 	"/>
	<polygon class="st1" points="117.8,124.1 118.2,122.8 118.7,121.3 115.3,121.5 	"/>
	<polyline class="st1" points="107,114.6 106.7,118.5 108.2,118.3 111.6,116.9 113,117 113.4,118 114.2,118.8 111.2,120.7 
		108.6,121 106.7,118.5 104.9,118.7 	"/>
	<polyline class="st1" points="116.6,116.1 115.5,117.6 117.7,118 118,116.7 118.5,115.6 117.3,113.5 116.8,115.8 	"/>
	<polygon class="st1" points="121.4,116 121.6,114.8 123.5,114.9 122.6,116.5 	"/>
	<polyline class="st1" points="127.6,111.6 128.2,112.5 129,114.2 127.6,115.8 128.1,118 127.4,120.4 124.2,119.9 125.4,118.3 
		126.2,117 126.6,115.1 	"/>
	<polyline class="st1" points="125.6,111.9 125.7,112.8 126.6,115.1 127.6,115.8 	"/>
	<polyline class="st1" points="128.5,117.7 129.8,119.3 133.9,120 132.4,123 136.3,124.7 	"/>
	<polyline class="st1" points="122,123.9 126.9,126.2 129.4,123.8 132,123.2 132.4,123 	"/>
	<polyline class="st1" points="123,125.8 126.9,126.2 130.4,130.7 129.7,132 129.4,133.9 127.7,136.1 126.1,137.9 	"/>
	<polyline class="st1" points="123.6,136 126.2,134.8 128.4,133.6 129.7,132 	"/>
	<polyline class="st1" points="121.6,121.5 120.2,124.7 121.2,121.4 	"/>
	<polyline class="st1" points="119.9,133.8 119.7,132 119.2,130.9 119.8,130.5 118,129.7 117.6,130.9 119.2,130.9 	"/>
	<line class="st1" x1="122.3" y1="131.9" x2="125.7" y2="131.8"/>
	<line class="st1" x1="124.7" y1="132.9" x2="124.3" y2="130.6"/>
	<polyline class="st1" points="110,135.4 113,132.8 114.3,131.1 114,130.5 112.4,132 113,132.8 	"/>
	<polyline class="st1" points="128.7,144.6 127.9,142.5 125.1,143.7 121.7,144.8 118.7,146.7 115.2,148.7 116.7,144.4 118.3,142.2 
		119.7,140.3 120.2,139.3 122.6,138.9 123.2,137.8 122.5,137.1 121.5,137 121.1,137 119.4,137.7 120.2,139.3 	"/>
	<polyline class="st1" points="119.4,137.7 115.7,136.7 113.4,138.6 110.2,141.6 107.5,143.8 105.3,145.4 102.9,146.9 100.4,148.4 	
		"/>
	<polygon class="st1" points="107.1,139 110.2,140.2 113.7,140.7 111.5,141.6 110.2,140.2 107.3,140.6 	"/>
	<polyline class="st1" points="110.8,149.3 112.2,145.9 114.7,145.2 116.7,144.4 	"/>
	<polygon class="st1" points="94.8,137 95.5,135.3 97.1,133.8 96.5,136.1 	"/>
	<polyline class="st1" points="102.2,135.6 103.5,134.1 104.9,134.4 105.6,135.8 	"/>
	<polyline class="st1" points="95.6,147.1 98,144.7 101.3,144.4 104.4,143.8 	"/>
	<polyline class="st1" points="93,139.5 95.8,141.1 97.9,140.9 99.8,140.6 101.1,141.2 101.6,139.6 99.8,140.6 96.4,140.2 93,139.5 
		90.1,138.7 	"/>
</g>
<rect x="61.5" y="58.6" class="st1" width="95" height="95"/>
<g>
	<g>
		<line class="st1" x1="62.4" y1="187.7" x2="62.4" y2="195.4"/>
		<line class="st1" x1="63.8" y1="187.7" x2="63.8" y2="195.4"/>
		<line class="st1" x1="63.8" y1="195.4" x2="66.9" y2="195.4"/>
		<line class="st1" x1="66.9" y1="191.6" x2="66.9" y2="195.4"/>
		<line class="st1" x1="63.8" y1="191.6" x2="66.9" y2="191.6"/>
	</g>
	<g>
		<line class="st1" x1="78.3" y1="195.4" x2="78.3" y2="187.7"/>
		<line class="st1" x1="78.3" y1="187.7" x2="75.2" y2="187.7"/>
		<line class="st1" x1="75.2" y1="191.6" x2="75.2" y2="187.7"/>
		<line class="st1" x1="78.3" y1="191.6" x2="75.2" y2="191.6"/>
		<line class="st1" x1="73.8" y1="195.4" x2="73.8" y2="187.7"/>
		<line class="st1" x1="73.8" y1="187.7" x2="70.6" y2="187.7"/>
		<line class="st1" x1="70.6" y1="191.6" x2="70.6" y2="187.7"/>
		<line class="st1" x1="70.6" y1="195.4" x2="70.6" y2="191.6"/>
		<line class="st1" x1="73.8" y1="195.4" x2="70.6" y2="195.4"/>
	</g>
	<g>
		<line class="st1" x1="82" y1="195.4" x2="82" y2="187.7"/>
		<line class="st1" x1="91.1" y1="195.4" x2="91.1" y2="187.7"/>
		<line class="st1" x1="91.1" y1="187.7" x2="87.9" y2="187.7"/>
		<line class="st1" x1="87.9" y1="191.6" x2="87.9" y2="187.7"/>
		<line class="st1" x1="91.1" y1="191.6" x2="87.9" y2="191.6"/>
		<line class="st1" x1="87.9" y1="195.4" x2="87.9" y2="191.6"/>
		<line class="st1" x1="91.1" y1="195.4" x2="87.9" y2="195.4"/>
		<line class="st1" x1="86.6" y1="195.4" x2="86.6" y2="187.7"/>
		<line class="st1" x1="86.6" y1="187.7" x2="83.4" y2="187.7"/>
		<line class="st1" x1="83.4" y1="191.6" x2="83.4" y2="187.7"/>
		<line class="st1" x1="86.6" y1="191.6" x2="83.4" y2="191.6"/>
		<line class="st1" x1="95.6" y1="195.4" x2="95.6" y2="187.7"/>
		<line class="st1" x1="95.6" y1="187.7" x2="92.5" y2="187.7"/>
		<line class="st1" x1="95.6" y1="191.6" x2="92.5" y2="191.6"/>
		<line class="st1" x1="95.6" y1="195.4" x2="92.5" y2="195.4"/>
	</g>
	<circle class="st1" cx="68.8" cy="195.4" r="0.2"/>
	<circle class="st1" cx="80.2" cy="195.4" r="0.2"/>
</g>
<g>
	<g>
		<line class="st1" x1="104.5" y1="195.4" x2="104.5" y2="187.7"/>
		<line class="st1" x1="102.7" y1="191.6" x2="102.7" y2="187.7"/>
		<line class="st1" x1="102.7" y1="187.7" x2="99.5" y2="187.7"/>
		<line class="st1" x1="102.7" y1="191.6" x2="99.5" y2="191.6"/>
		<line class="st1" x1="99.5" y1="195.4" x2="99.5" y2="191.6"/>
		<line class="st1" x1="102.7" y1="195.4" x2="99.5" y2="195.4"/>
		<line class="st1" x1="111.4" y1="195.4" x2="111.4" y2="187.7"/>
		<line class="st1" x1="111.4" y1="187.7" x2="108.2" y2="187.7"/>
		<line class="st1" x1="108.2" y1="191.6" x2="108.2" y2="187.7"/>
		<line class="st1" x1="108.2" y1="195.4" x2="108.2" y2="191.6"/>
		<line class="st1" x1="111.4" y1="195.4" x2="108.2" y2="195.4"/>
		<line class="st1" x1="116.4" y1="195.4" x2="116.4" y2="187.7"/>
		<line class="st1" x1="116.4" y1="187.7" x2="113.2" y2="187.7"/>
		<line class="st1" x1="113.2" y1="191.6" x2="113.2" y2="187.7"/>
		<line class="st1" x1="113.2" y1="195.4" x2="113.2" y2="191.6"/>
		<line class="st1" x1="116.4" y1="195.4" x2="113.2" y2="195.4"/>
		<circle class="st1" cx="106.4" cy="189.6" r="0.2"/>
		<circle class="st1" cx="106.4" cy="193.6" r="0.2"/>
	</g>
	<g>
		<line class="st1" x1="123.2" y1="195.4" x2="123.2" y2="187.7"/>
		<line class="st1" x1="123.2" y1="187.7" x2="120.1" y2="187.7"/>
		<line class="st1" x1="120.1" y1="191.6" x2="120.1" y2="187.7"/>
		<line class="st1" x1="123.2" y1="191.6" x2="120.1" y2="191.6"/>
		<line class="st1" x1="120.1" y1="195.4" x2="120.1" y2="191.6"/>
		<line class="st1" x1="123.2" y1="195.4" x2="120.1" y2="195.4"/>
		<line class="st1" x1="127.7" y1="191.6" x2="127.7" y2="195.4"/>
		<line class="st1" x1="127.7" y1="195.4" x2="124.6" y2="195.4"/>
		<line class="st1" x1="127.7" y1="191.6" x2="124.6" y2="191.6"/>
		<line class="st1" x1="124.6" y1="187.7" x2="124.6" y2="191.6"/>
		<line class="st1" x1="127.7" y1="187.7" x2="124.6" y2="187.7"/>
		<line class="st1" x1="133.7" y1="195.4" x2="133.7" y2="187.7"/>
		<line class="st1" x1="133.7" y1="187.7" x2="130.5" y2="187.7"/>
		<line class="st1" x1="130.5" y1="191.6" x2="130.5" y2="187.7"/>
		<line class="st1" x1="133.7" y1="191.6" x2="130.5" y2="191.6"/>
		<line class="st1" x1="130.5" y1="195.4" x2="130.5" y2="191.6"/>
		<line class="st1" x1="138.3" y1="191.6" x2="138.3" y2="195.4"/>
		<line class="st1" x1="138.3" y1="195.4" x2="135.1" y2="195.4"/>
		<line class="st1" x1="138.3" y1="191.6" x2="135.1" y2="191.6"/>
		<line class="st1" x1="135.1" y1="187.7" x2="135.1" y2="191.6"/>
		<line class="st1" x1="138.3" y1="187.7" x2="135.1" y2="187.7"/>
		<circle class="st1" cx="129.1" cy="195.4" r="0.2"/>
		<circle class="st1" cx="139.7" cy="195.4" r="0.2"/>
	</g>
</g>
<g>
	<line class="st1" x1="72.7" y1="170.1" x2="72.7" y2="162.3"/>
</g>
<g>
	<line class="st1" x1="83" y1="162.3" x2="83" y2="170.1"/>
	<line class="st1" x1="83" y1="170.1" x2="86.1" y2="170.1"/>
	<line class="st1" x1="83" y1="166.2" x2="86.1" y2="166.2"/>
	<line class="st1" x1="83" y1="162.3" x2="86.1" y2="162.3"/>
</g>
<g>
	<line class="st1" x1="65.5" y1="170.1" x2="65.5" y2="162.3"/>
	<line class="st1" x1="65.5" y1="162.3" x2="62.4" y2="162.3"/>
	<line class="st1" x1="62.4" y1="166.2" x2="62.4" y2="162.3"/>
	<line class="st1" x1="65.5" y1="166.2" x2="62.4" y2="166.2"/>
	<line class="st1" x1="62.4" y1="170.1" x2="62.4" y2="166.2"/>
</g>
<g>
	<line class="st1" x1="70.7" y1="170.1" x2="70.7" y2="166.2"/>
	<line class="st1" x1="67.5" y1="166.2" x2="67.5" y2="162.3"/>
	<g>
		<line class="st1" x1="70.7" y1="162.3" x2="67.5" y2="162.3"/>
		<line class="st1" x1="70.7" y1="166.2" x2="67.5" y2="166.2"/>
		<line class="st1" x1="70.7" y1="170.1" x2="67.5" y2="170.1"/>
	</g>
</g>
<g>
	<line class="st1" x1="80.8" y1="170.1" x2="77.7" y2="170.1"/>
	<line class="st1" x1="81" y1="170.1" x2="81" y2="166.2"/>
	<line class="st1" x1="81" y1="162.3" x2="77.8" y2="162.3"/>
	<line class="st1" x1="77.8" y1="166.2" x2="77.8" y2="162.3"/>
	<line class="st1" x1="81" y1="166.2" x2="77.8" y2="166.2"/>
</g>
<g>
	<line class="st1" x1="62.4" y1="178.8" x2="62.4" y2="175"/>
	<line class="st1" x1="62.4" y1="182.7" x2="62.4" y2="178.8"/>
	<line class="st1" x1="65.5" y1="182.7" x2="62.4" y2="182.7"/>
	<line class="st1" x1="65.5" y1="182.7" x2="65.5" y2="178.8"/>
	<line class="st1" x1="65.5" y1="178.9" x2="65.5" y2="175.1"/>
</g>
<g>
	<line class="st1" x1="70.7" y1="175" x2="67.5" y2="175"/>
	<line class="st1" x1="67.5" y1="178.8" x2="67.5" y2="175"/>
	<line class="st1" x1="70.7" y1="178.8" x2="67.5" y2="178.8"/>
	<line class="st1" x1="67.5" y1="182.7" x2="67.5" y2="178.8"/>
	<line class="st1" x1="70.7" y1="182.7" x2="67.5" y2="182.7"/>
</g>
<g>
	<line class="st1" x1="72.7" y1="182.7" x2="72.7" y2="178.8"/>
	<line class="st1" x1="72.7" y1="178.9" x2="72.7" y2="175.1"/>
</g>
<g>
	<line class="st1" x1="85.8" y1="175" x2="82.7" y2="175"/>
	<line class="st1" x1="82.7" y1="178.8" x2="82.7" y2="175"/>
	<line class="st1" x1="85.8" y1="178.8" x2="82.7" y2="178.8"/>
	<line class="st1" x1="82.7" y1="182.7" x2="82.7" y2="178.8"/>
	<line class="st1" x1="85.8" y1="182.7" x2="82.7" y2="182.7"/>
</g>
<g>
	<line class="st1" x1="77.7" y1="175" x2="74.5" y2="175"/>
	<line class="st1" x1="74.5" y1="178.8" x2="74.5" y2="175"/>
	<line class="st1" x1="77.7" y1="178.8" x2="74.5" y2="178.8"/>
	<line class="st1" x1="74.5" y1="182.7" x2="74.5" y2="178.8"/>
	<line class="st1" x1="77.7" y1="182.7" x2="77.7" y2="178.8"/>
	<line class="st1" x1="77.7" y1="178.9" x2="77.7" y2="175.1"/>
</g>
<g>
	<line class="st1" x1="87.8" y1="178.8" x2="87.8" y2="175"/>
	<line class="st1" x1="87.8" y1="182.7" x2="87.8" y2="178.8"/>
	<line class="st1" x1="91" y1="182.7" x2="87.8" y2="182.7"/>
</g>
<g>
	<line class="st1" x1="99.2" y1="175" x2="96" y2="175"/>
	<line class="st1" x1="96" y1="178.8" x2="96" y2="175"/>
	<line class="st1" x1="96" y1="182.7" x2="96" y2="178.8"/>
	<line class="st1" x1="99.2" y1="182.7" x2="96" y2="182.7"/>
</g>
<g>
	<line class="st1" x1="101.2" y1="178.8" x2="101.2" y2="175"/>
	<line class="st1" x1="101.2" y1="182.7" x2="101.2" y2="178.8"/>
</g>
<g>
	<line class="st1" x1="106.3" y1="175" x2="103.2" y2="175"/>
	<line class="st1" x1="103.2" y1="178.8" x2="103.2" y2="175"/>
	<line class="st1" x1="106.3" y1="178.8" x2="103.2" y2="178.8"/>
	<line class="st1" x1="103.2" y1="182.7" x2="103.2" y2="178.8"/>
	<line class="st1" x1="106.3" y1="182.7" x2="103.2" y2="182.7"/>
</g>
<g>
	<line class="st1" x1="108.3" y1="178.8" x2="108.3" y2="175"/>
	<line class="st1" x1="108.3" y1="182.7" x2="108.3" y2="178.8"/>
	<line class="st1" x1="111.5" y1="182.7" x2="108.3" y2="182.7"/>
</g>
<g>
	<line class="st1" x1="116.6" y1="175" x2="113.5" y2="175"/>
	<line class="st1" x1="113.5" y1="178.8" x2="113.5" y2="175"/>
	<line class="st1" x1="113.5" y1="182.7" x2="113.5" y2="178.8"/>
	<line class="st1" x1="116.6" y1="182.7" x2="113.5" y2="182.7"/>
	<line class="st1" x1="116.6" y1="182.7" x2="116.6" y2="178.8"/>
	<line class="st1" x1="116.6" y1="178.9" x2="116.6" y2="175.1"/>
</g>
<g>
	<g>
		<path class="st0" d="M74.3,118.1C74.4,118.1,74.4,118.1,74.3,118.1C74.4,118.2,74.4,118.2,74.3,118.1
			C74.3,118.2,74.3,118.2,74.3,118.1C74.3,118.1,74.3,118.1,74.3,118.1 M74.3,117.6c-0.3,0-0.5,0.2-0.5,0.5s0.2,0.5,0.5,0.5
			s0.5-0.2,0.5-0.5S74.6,117.6,74.3,117.6L74.3,117.6z"/>
	</g>
	<g>
		<path class="st0" d="M90.7,117.5C90.7,117.5,90.7,117.5,90.7,117.5c0.1,0.1,0,0.1,0,0.1S90.6,117.6,90.7,117.5
			C90.6,117.5,90.6,117.5,90.7,117.5 M90.7,117c-0.3,0-0.6,0.2-0.6,0.6c0,0.3,0.2,0.6,0.6,0.6s0.6-0.2,0.6-0.6
			C91.2,117.3,91,117,90.7,117L90.7,117z"/>
	</g>
	<g>
		<path class="st0" d="M87.6,124.8C87.6,124.8,87.7,124.8,87.6,124.8C87.7,124.8,87.6,124.9,87.6,124.8
			C87.6,124.9,87.6,124.8,87.6,124.8C87.6,124.8,87.6,124.8,87.6,124.8 M87.6,124.3c-0.3,0-0.5,0.2-0.5,0.5s0.2,0.5,0.5,0.5
			s0.5-0.2,0.5-0.5S87.9,124.3,87.6,124.3L87.6,124.3z"/>
	</g>
	<g>
		<path class="st0" d="M80,137C80,137,80,137,80,137c0.1,0.1,0,0.1,0,0.1S79.9,137.1,80,137C79.9,137,79.9,137,80,137 M80,136.5
			c-0.3,0-0.6,0.2-0.6,0.6c0,0.3,0.2,0.6,0.6,0.6c0.3,0,0.6-0.2,0.6-0.6C80.5,136.7,80.3,136.5,80,136.5L80,136.5z"/>
	</g>
	<g>
		<path class="st0" d="M83.8,107.6C83.8,107.6,83.8,107.6,83.8,107.6C83.8,107.7,83.8,107.7,83.8,107.6
			C83.8,107.7,83.7,107.7,83.8,107.6C83.7,107.6,83.8,107.6,83.8,107.6 M83.8,107.1c-0.3,0-0.5,0.2-0.5,0.5s0.2,0.5,0.5,0.5
			s0.5-0.2,0.5-0.5S84.1,107.1,83.8,107.1L83.8,107.1z"/>
	</g>
	<g>
		<path class="st0" d="M84.5,106.2C84.5,106.2,84.5,106.2,84.5,106.2C84.5,106.3,84.5,106.3,84.5,106.2
			C84.4,106.3,84.4,106.3,84.5,106.2C84.4,106.2,84.4,106.2,84.5,106.2 M84.5,105.7c-0.3,0-0.5,0.2-0.5,0.5c0,0.3,0.2,0.5,0.5,0.5
			s0.5-0.2,0.5-0.5C85,106,84.8,105.7,84.5,105.7L84.5,105.7z"/>
	</g>
	<g>
		<path class="st0" d="M86,103.8C86,103.8,86,103.8,86,103.8C86,103.9,86,103.9,86,103.8C86,103.9,85.9,103.9,86,103.8
			C85.9,103.8,86,103.8,86,103.8 M86,103.3c-0.3,0-0.5,0.2-0.5,0.5s0.2,0.5,0.5,0.5s0.5-0.2,0.5-0.5S86.3,103.3,86,103.3L86,103.3z"
			/>
	</g>
	<g>
		<path class="st0" d="M87.5,98.7C87.5,98.7,87.5,98.7,87.5,98.7c0.1,0.1,0,0.1,0,0.1S87.4,98.8,87.5,98.7
			C87.4,98.7,87.4,98.7,87.5,98.7 M87.5,98.2c-0.3,0-0.6,0.2-0.6,0.6s0.2,0.6,0.6,0.6s0.6-0.2,0.6-0.6S87.8,98.2,87.5,98.2
			L87.5,98.2z"/>
	</g>
	<g>
		<path class="st0" d="M91.3,101C91.3,101,91.4,101.1,91.3,101C91.4,101.1,91.3,101.1,91.3,101C91.3,101.1,91.3,101.1,91.3,101
			C91.3,101.1,91.3,101,91.3,101 M91.3,100.5c-0.3,0-0.5,0.2-0.5,0.5s0.2,0.5,0.5,0.5s0.5-0.2,0.5-0.5S91.6,100.5,91.3,100.5
			L91.3,100.5z"/>
	</g>
	<g>
		<path class="st0" d="M91.1,102.2C91.2,102.2,91.2,102.2,91.1,102.2c0.1,0.1,0,0.1,0,0.1C91.1,102.3,91.1,102.2,91.1,102.2
			C91.1,102.2,91.1,102.2,91.1,102.2 M91.1,101.7c-0.3,0-0.6,0.3-0.6,0.6s0.3,0.6,0.6,0.6c0.3,0,0.6-0.3,0.6-0.6
			S91.4,101.7,91.1,101.7L91.1,101.7z"/>
	</g>
	<g>
		<path class="st0" d="M89,105.5C89,105.5,89,105.6,89,105.5C89,105.6,89,105.6,89,105.5C88.9,105.6,88.9,105.6,89,105.5
			C88.9,105.6,88.9,105.5,89,105.5 M89,105c-0.3,0-0.5,0.2-0.5,0.5s0.2,0.5,0.5,0.5s0.5-0.2,0.5-0.5S89.3,105,89,105L89,105z"/>
	</g>
	<g>
		<path class="st0" d="M81.9,101C82,101,82,101,81.9,101C82,101.1,82,101.1,81.9,101C81.9,101.1,81.9,101.1,81.9,101
			C81.9,101,81.9,101,81.9,101 M81.9,100.5c-0.3,0-0.5,0.2-0.5,0.5c0,0.3,0.2,0.5,0.5,0.5s0.5-0.2,0.5-0.5
			C82.5,100.7,82.2,100.5,81.9,100.5L81.9,100.5z"/>
	</g>
	<g>
		<path class="st0" d="M82.4,83.5C82.4,83.5,82.4,83.5,82.4,83.5C82.4,83.6,82.4,83.6,82.4,83.5C82.4,83.6,82.3,83.6,82.4,83.5
			C82.3,83.5,82.4,83.5,82.4,83.5 M82.4,83c-0.3,0-0.5,0.2-0.5,0.5s0.2,0.5,0.5,0.5s0.5-0.2,0.5-0.5S82.7,83,82.4,83L82.4,83z"/>
	</g>
	<g>
		<path class="st0" d="M96,135.3C96,135.3,96,135.3,96,135.3C96,135.3,96,135.4,96,135.3C95.9,135.4,95.9,135.3,96,135.3
			C95.9,135.3,95.9,135.3,96,135.3 M96,134.8c-0.3,0-0.5,0.2-0.5,0.5c0,0.3,0.2,0.5,0.5,0.5s0.5-0.2,0.5-0.5
			C96.5,135,96.3,134.8,96,134.8L96,134.8z"/>
	</g>
	<g>
		<path class="st0" d="M95.1,122.5C95.1,122.5,95.1,122.5,95.1,122.5c0.1,0.1,0,0.1,0,0.1C95,122.6,95,122.5,95.1,122.5
			C95,122.5,95,122.5,95.1,122.5 M95.1,122c-0.3,0-0.6,0.2-0.6,0.6s0.2,0.6,0.6,0.6s0.6-0.2,0.6-0.6S95.4,122,95.1,122L95.1,122z"/>
	</g>
	<g>
		<path class="st0" d="M95.7,114.1C95.7,114.1,95.8,114.1,95.7,114.1c0.1,0.1,0,0.1,0,0.1S95.6,114.2,95.7,114.1
			C95.6,114.1,95.7,114.1,95.7,114.1 M95.7,113.6c-0.3,0-0.6,0.3-0.6,0.6c0,0.3,0.3,0.6,0.6,0.6s0.6-0.3,0.6-0.6
			C96.3,113.8,96,113.6,95.7,113.6L95.7,113.6z"/>
	</g>
	<g>
		<path class="st0" d="M95.5,113.3C95.5,113.3,95.6,113.3,95.5,113.3C95.6,113.4,95.5,113.4,95.5,113.3
			C95.5,113.4,95.5,113.4,95.5,113.3C95.5,113.3,95.5,113.3,95.5,113.3 M95.5,112.8c-0.3,0-0.5,0.2-0.5,0.5s0.2,0.5,0.5,0.5
			s0.5-0.2,0.5-0.5S95.8,112.8,95.5,112.8L95.5,112.8z"/>
	</g>
	<g>
		<path class="st0" d="M102.9,94.9C103,94.9,103,94.9,102.9,94.9C103,94.9,103,94.9,102.9,94.9C102.9,94.9,102.9,94.9,102.9,94.9
			C102.9,94.9,102.9,94.9,102.9,94.9 M102.9,94.4c-0.3,0-0.5,0.2-0.5,0.5s0.2,0.5,0.5,0.5s0.5-0.2,0.5-0.5S103.2,94.4,102.9,94.4
			L102.9,94.4z"/>
	</g>
	<g>
		<path class="st0" d="M103.8,93.1C103.8,93.1,103.8,93.2,103.8,93.1C103.8,93.2,103.8,93.2,103.8,93.1
			C103.7,93.2,103.7,93.2,103.8,93.1C103.7,93.2,103.7,93.1,103.8,93.1 M103.8,92.6c-0.3,0-0.5,0.2-0.5,0.5c0,0.3,0.2,0.5,0.5,0.5
			s0.5-0.2,0.5-0.5C104.3,92.9,104.1,92.6,103.8,92.6L103.8,92.6z"/>
	</g>
	<g>
		<path class="st0" d="M95.5,66.5C95.5,66.5,95.5,66.5,95.5,66.5C95.5,66.5,95.5,66.5,95.5,66.5C95.4,66.5,95.4,66.5,95.5,66.5
			C95.4,66.5,95.4,66.5,95.5,66.5 M95.5,66c-0.3,0-0.5,0.2-0.5,0.5s0.2,0.5,0.5,0.5s0.5-0.2,0.5-0.5S95.8,66,95.5,66L95.5,66z"/>
	</g>
	<g>
		<path class="st0" d="M96.8,69.2C96.8,69.2,96.8,69.2,96.8,69.2C96.8,69.3,96.8,69.3,96.8,69.2C96.8,69.3,96.7,69.3,96.8,69.2
			C96.7,69.2,96.8,69.2,96.8,69.2 M96.8,68.7c-0.3,0-0.5,0.2-0.5,0.5s0.2,0.5,0.5,0.5s0.5-0.2,0.5-0.5S97.1,68.7,96.8,68.7
			L96.8,68.7z"/>
	</g>
	<g>
		<path class="st0" d="M100.1,70.5C100.2,70.5,100.2,70.5,100.1,70.5C100.2,70.5,100.2,70.5,100.1,70.5
			C100.1,70.5,100.1,70.5,100.1,70.5C100.1,70.5,100.1,70.5,100.1,70.5 M100.1,70c-0.3,0-0.5,0.2-0.5,0.5s0.2,0.5,0.5,0.5
			s0.5-0.2,0.5-0.5S100.4,70,100.1,70L100.1,70z"/>
	</g>
	<g>
		<path class="st0" d="M101,72.2C101,72.2,101,72.3,101,72.2C101,72.3,101,72.3,101,72.2C101,72.3,101,72.3,101,72.2
			C101,72.3,101,72.2,101,72.2 M101,71.7c-0.3,0-0.5,0.2-0.5,0.5s0.2,0.5,0.5,0.5c0.3,0,0.5-0.2,0.5-0.5S101.3,71.7,101,71.7
			L101,71.7z"/>
	</g>
	<g>
		<path class="st0" d="M98.6,73.3C98.6,73.3,98.6,73.3,98.6,73.3C98.6,73.3,98.6,73.4,98.6,73.3C98.6,73.4,98.6,73.3,98.6,73.3
			C98.6,73.3,98.6,73.3,98.6,73.3 M98.6,72.8c-0.3,0-0.5,0.2-0.5,0.5s0.2,0.5,0.5,0.5s0.5-0.2,0.5-0.5S98.9,72.8,98.6,72.8
			L98.6,72.8z"/>
	</g>
	<g>
		<path class="st0" d="M98.9,74.1C98.9,74.1,98.9,74.1,98.9,74.1C98.9,74.2,98.9,74.2,98.9,74.1C98.9,74.2,98.8,74.2,98.9,74.1
			C98.8,74.1,98.9,74.1,98.9,74.1 M98.9,73.6c-0.3,0-0.5,0.2-0.5,0.5s0.2,0.5,0.5,0.5s0.5-0.2,0.5-0.5S99.2,73.6,98.9,73.6
			L98.9,73.6z"/>
	</g>
	<g>
		<path class="st0" d="M98.5,76C98.5,76,98.6,76,98.5,76C98.6,76,98.5,76,98.5,76C98.5,76,98.5,76,98.5,76C98.5,76,98.5,76,98.5,76
			 M98.5,75.5c-0.3,0-0.5,0.2-0.5,0.5c0,0.3,0.2,0.5,0.5,0.5s0.5-0.2,0.5-0.5C99.1,75.7,98.8,75.5,98.5,75.5L98.5,75.5z"/>
	</g>
	<g>
		<path class="st0" d="M102.1,75.1C102.1,75.1,102.1,75.1,102.1,75.1C102.1,75.1,102.1,75.1,102.1,75.1
			C102.1,75.1,102.1,75.1,102.1,75.1C102.1,75.1,102.1,75.1,102.1,75.1 M102.1,74.6c-0.3,0-0.5,0.3-0.5,0.5s0.3,0.5,0.5,0.5
			s0.5-0.3,0.5-0.5S102.4,74.6,102.1,74.6L102.1,74.6z"/>
	</g>
	<g>
		<path class="st0" d="M95.7,85.5C95.7,85.5,95.7,85.5,95.7,85.5C95.7,85.5,95.7,85.6,95.7,85.5C95.7,85.6,95.7,85.5,95.7,85.5
			C95.7,85.5,95.7,85.5,95.7,85.5 M95.7,85c-0.3,0-0.5,0.3-0.5,0.5s0.3,0.5,0.5,0.5s0.5-0.3,0.5-0.5S96,85,95.7,85L95.7,85z"/>
	</g>
	<g>
		<path class="st0" d="M98.2,84.1C98.3,84.1,98.3,84.1,98.2,84.1C98.3,84.1,98.3,84.2,98.2,84.1C98.2,84.2,98.2,84.1,98.2,84.1
			C98.2,84.1,98.2,84.1,98.2,84.1 M98.2,83.6c-0.3,0-0.5,0.2-0.5,0.5s0.2,0.5,0.5,0.5s0.5-0.2,0.5-0.5S98.5,83.6,98.2,83.6
			L98.2,83.6z"/>
	</g>
	<g>
		<path class="st0" d="M102.3,78.3C102.3,78.3,102.4,78.3,102.3,78.3C102.4,78.3,102.3,78.4,102.3,78.3
			C102.3,78.4,102.3,78.3,102.3,78.3C102.3,78.3,102.3,78.3,102.3,78.3 M102.3,77.8c-0.3,0-0.5,0.2-0.5,0.5s0.2,0.5,0.5,0.5
			s0.5-0.2,0.5-0.5S102.6,77.8,102.3,77.8L102.3,77.8z"/>
	</g>
	<g>
		<path class="st0" d="M104.2,78.5C104.2,78.5,104.2,78.5,104.2,78.5C104.2,78.5,104.2,78.5,104.2,78.5
			C104.2,78.5,104.2,78.5,104.2,78.5C104.2,78.5,104.2,78.5,104.2,78.5 M104.2,78c-0.3,0-0.5,0.2-0.5,0.5s0.2,0.5,0.5,0.5
			s0.5-0.2,0.5-0.5S104.5,78,104.2,78L104.2,78z"/>
	</g>
	<g>
		<path class="st0" d="M104.8,77.5C104.9,77.5,104.9,77.5,104.8,77.5C104.9,77.5,104.9,77.5,104.8,77.5
			C104.8,77.5,104.8,77.5,104.8,77.5C104.8,77.5,104.8,77.5,104.8,77.5 M104.8,77c-0.3,0-0.5,0.2-0.5,0.5s0.2,0.5,0.5,0.5
			s0.5-0.2,0.5-0.5S105.1,77,104.8,77L104.8,77z"/>
	</g>
	<g>
		<path class="st0" d="M105.9,68.1C105.9,68.1,105.9,68.2,105.9,68.1C105.9,68.2,105.9,68.2,105.9,68.1
			C105.8,68.2,105.8,68.2,105.9,68.1C105.8,68.2,105.8,68.1,105.9,68.1 M105.9,67.6c-0.3,0-0.5,0.2-0.5,0.5s0.2,0.5,0.5,0.5
			s0.5-0.2,0.5-0.5S106.2,67.6,105.9,67.6L105.9,67.6z"/>
	</g>
	<g>
		<path class="st0" d="M106.1,68.8C106.1,68.8,106.1,68.8,106.1,68.8c0.1,0.1,0,0.1,0,0.1S106,68.9,106.1,68.8
			C106,68.8,106,68.8,106.1,68.8 M106.1,68.3c-0.3,0-0.6,0.2-0.6,0.6s0.2,0.6,0.6,0.6s0.6-0.2,0.6-0.6S106.4,68.3,106.1,68.3
			L106.1,68.3z"/>
	</g>
	<g>
		<path class="st0" d="M110.2,66.4C110.3,66.4,110.3,66.5,110.2,66.4C110.3,66.5,110.3,66.5,110.2,66.4
			C110.2,66.5,110.2,66.5,110.2,66.4C110.2,66.5,110.2,66.4,110.2,66.4 M110.2,65.9c-0.3,0-0.5,0.2-0.5,0.5s0.2,0.5,0.5,0.5
			s0.5-0.2,0.5-0.5S110.5,65.9,110.2,65.9L110.2,65.9z"/>
	</g>
	<g>
		<path class="st0" d="M115.2,112.8C115.2,112.8,115.2,112.8,115.2,112.8c0.1,0.1,0,0.1,0,0.1S115.1,112.9,115.2,112.8
			C115.1,112.8,115.2,112.8,115.2,112.8 M115.2,112.3c-0.3,0-0.6,0.2-0.6,0.6c0,0.3,0.2,0.6,0.6,0.6s0.6-0.2,0.6-0.6
			C115.7,112.5,115.5,112.3,115.2,112.3L115.2,112.3z"/>
	</g>
	<g>
		<path class="st0" d="M107.7,103.4C107.8,103.4,107.8,103.4,107.7,103.4C107.8,103.5,107.8,103.5,107.7,103.4
			C107.7,103.5,107.7,103.5,107.7,103.4C107.7,103.4,107.7,103.4,107.7,103.4 M107.7,102.9c-0.3,0-0.5,0.2-0.5,0.5s0.2,0.5,0.5,0.5
			s0.5-0.2,0.5-0.5S108,102.9,107.7,102.9L107.7,102.9z"/>
	</g>
	<g>
		<path class="st0" d="M117.9,120.7C117.9,120.7,117.9,120.7,117.9,120.7C117.9,120.7,117.9,120.7,117.9,120.7
			C117.9,120.7,117.8,120.7,117.9,120.7C117.8,120.7,117.9,120.7,117.9,120.7 M117.9,120.2c-0.3,0-0.5,0.2-0.5,0.5s0.2,0.5,0.5,0.5
			s0.5-0.2,0.5-0.5S118.2,120.2,117.9,120.2L117.9,120.2z"/>
	</g>
	<g>
		<path class="st0" d="M148.6,90.8C148.6,90.8,148.6,90.8,148.6,90.8c0.1,0.1,0,0.1,0,0.1S148.5,90.9,148.6,90.8
			C148.5,90.8,148.5,90.8,148.6,90.8 M148.6,90.3c-0.3,0-0.6,0.3-0.6,0.6s0.3,0.6,0.6,0.6s0.6-0.3,0.6-0.6S148.9,90.3,148.6,90.3
			L148.6,90.3z"/>
	</g>
	<g>
		<path class="st0" d="M112.5,117.1C112.6,117.1,112.6,117.1,112.5,117.1C112.6,117.2,112.6,117.2,112.5,117.1
			C112.5,117.2,112.5,117.2,112.5,117.1C112.5,117.1,112.5,117.1,112.5,117.1 M112.5,116.6c-0.3,0-0.5,0.2-0.5,0.5s0.2,0.5,0.5,0.5
			s0.5-0.2,0.5-0.5S112.8,116.6,112.5,116.6L112.5,116.6z"/>
	</g>
	<g>
		<path class="st0" d="M111,118.8C111,118.8,111.1,118.9,111,118.8C111.1,118.9,111,118.9,111,118.8C111,118.9,111,118.9,111,118.8
			C111,118.9,111,118.8,111,118.8 M111,118.3c-0.3,0-0.5,0.3-0.5,0.5s0.3,0.5,0.5,0.5s0.5-0.3,0.5-0.5S111.3,118.3,111,118.3
			L111,118.3z"/>
	</g>
	<g>
		<path class="st0" d="M115,70.5C115,70.5,115,70.6,115,70.5C115,70.6,115,70.6,115,70.5C114.9,70.6,114.9,70.6,115,70.5
			C114.9,70.6,114.9,70.5,115,70.5 M115,70c-0.3,0-0.5,0.2-0.5,0.5c0,0.3,0.2,0.5,0.5,0.5s0.5-0.2,0.5-0.5
			C115.5,70.3,115.3,70,115,70L115,70z"/>
	</g>
	<g>
		<path class="st0" d="M112.9,73.5C112.9,73.5,112.9,73.5,112.9,73.5C112.9,73.6,112.9,73.6,112.9,73.5
			C112.9,73.6,112.8,73.6,112.9,73.5C112.8,73.5,112.9,73.5,112.9,73.5 M112.9,73c-0.3,0-0.5,0.2-0.5,0.5s0.2,0.5,0.5,0.5
			c0.3,0,0.5-0.2,0.5-0.5S113.2,73,112.9,73L112.9,73z"/>
	</g>
	<g>
		<path class="st0" d="M112.6,74.1C112.6,74.1,112.6,74.1,112.6,74.1C112.6,74.2,112.6,74.2,112.6,74.1
			C112.6,74.2,112.5,74.2,112.6,74.1C112.5,74.1,112.6,74.1,112.6,74.1 M112.6,73.6c-0.3,0-0.5,0.2-0.5,0.5s0.2,0.5,0.5,0.5
			s0.5-0.2,0.5-0.5S112.9,73.6,112.6,73.6L112.6,73.6z"/>
	</g>
	<g>
		<path class="st0" d="M119.2,75.3C119.2,75.3,119.2,75.3,119.2,75.3C119.2,75.3,119.2,75.4,119.2,75.3
			C119.2,75.4,119.2,75.3,119.2,75.3C119.2,75.3,119.2,75.3,119.2,75.3 M119.2,74.8c-0.3,0-0.5,0.2-0.5,0.5s0.2,0.5,0.5,0.5
			s0.5-0.2,0.5-0.5S119.5,74.8,119.2,74.8L119.2,74.8z"/>
	</g>
	<g>
		<path class="st0" d="M123.8,68.7C123.8,68.7,123.9,68.8,123.8,68.7C123.9,68.8,123.8,68.8,123.8,68.7
			C123.8,68.8,123.8,68.8,123.8,68.7C123.8,68.8,123.8,68.7,123.8,68.7 M123.8,68.2c-0.3,0-0.5,0.2-0.5,0.5s0.2,0.5,0.5,0.5
			c0.3,0,0.5-0.2,0.5-0.5S124.1,68.2,123.8,68.2L123.8,68.2z"/>
	</g>
	<g>
		<path class="st0" d="M133.2,71C133.2,71,133.2,71,133.2,71C133.2,71,133.2,71.1,133.2,71C133.2,71.1,133.1,71,133.2,71
			C133.1,71,133.2,71,133.2,71 M133.2,70.5c-0.3,0-0.5,0.2-0.5,0.5c0,0.3,0.2,0.5,0.5,0.5c0.3,0,0.5-0.2,0.5-0.5
			C133.7,70.7,133.5,70.5,133.2,70.5L133.2,70.5z"/>
	</g>
	<g>
		<path class="st0" d="M121.7,78.7C121.7,78.7,121.8,78.7,121.7,78.7C121.8,78.7,121.7,78.8,121.7,78.7
			C121.7,78.8,121.7,78.7,121.7,78.7C121.7,78.7,121.7,78.7,121.7,78.7 M121.7,78.2c-0.3,0-0.5,0.2-0.5,0.5s0.2,0.5,0.5,0.5
			s0.5-0.2,0.5-0.5S122,78.2,121.7,78.2L121.7,78.2z"/>
	</g>
	<g>
		<path class="st0" d="M121.2,83.2C121.2,83.2,121.2,83.3,121.2,83.2C121.2,83.3,121.2,83.3,121.2,83.2
			C121.1,83.3,121.1,83.3,121.2,83.2C121.1,83.3,121.1,83.2,121.2,83.2 M121.2,82.7c-0.3,0-0.5,0.2-0.5,0.5s0.2,0.5,0.5,0.5
			s0.5-0.2,0.5-0.5S121.5,82.7,121.2,82.7L121.2,82.7z"/>
	</g>
	<g>
		<path class="st0" d="M120.3,83.6C120.3,83.6,120.3,83.6,120.3,83.6C120.3,83.7,120.3,83.7,120.3,83.6
			C120.3,83.7,120.2,83.7,120.3,83.6C120.2,83.6,120.3,83.6,120.3,83.6 M120.3,83.1c-0.3,0-0.5,0.2-0.5,0.5c0,0.3,0.2,0.5,0.5,0.5
			s0.5-0.2,0.5-0.5C120.8,83.3,120.6,83.1,120.3,83.1L120.3,83.1z"/>
	</g>
	<g>
		<path class="st0" d="M118.6,83C118.6,83,118.6,83,118.6,83c0.1,0.1,0,0.1,0,0.1S118.5,83.1,118.6,83C118.5,83,118.5,83,118.6,83
			 M118.6,82.5c-0.3,0-0.6,0.2-0.6,0.6c0,0.3,0.2,0.6,0.6,0.6c0.3,0,0.6-0.2,0.6-0.6C119.1,82.8,118.9,82.5,118.6,82.5L118.6,82.5z"
			/>
	</g>
	<g>
		<path class="st0" d="M116,83.5C116,83.5,116.1,83.5,116,83.5c0.1,0.1,0,0.1,0,0.1S116,83.6,116,83.5C116,83.5,116,83.5,116,83.5
			 M116,83c-0.3,0-0.6,0.2-0.6,0.6s0.2,0.6,0.6,0.6s0.6-0.2,0.6-0.6S116.3,83,116,83L116,83z"/>
	</g>
	<g>
		<path class="st0" d="M115.8,84.7C115.8,84.7,115.9,84.7,115.8,84.7C115.9,84.7,115.8,84.7,115.8,84.7
			C115.8,84.7,115.8,84.7,115.8,84.7C115.8,84.7,115.8,84.7,115.8,84.7 M115.8,84.2c-0.3,0-0.5,0.2-0.5,0.5s0.2,0.5,0.5,0.5
			s0.5-0.2,0.5-0.5S116.1,84.2,115.8,84.2L115.8,84.2z"/>
	</g>
	<g>
		<path class="st0" d="M114.3,86.1C114.4,86.1,114.4,86.1,114.3,86.1c0.1,0.1,0,0.1,0,0.1C114.3,86.2,114.3,86.1,114.3,86.1
			C114.3,86.1,114.3,86.1,114.3,86.1 M114.3,85.6c-0.3,0-0.6,0.2-0.6,0.6c0,0.3,0.2,0.6,0.6,0.6c0.3,0,0.6-0.2,0.6-0.6
			C114.9,85.8,114.6,85.6,114.3,85.6L114.3,85.6z"/>
	</g>
	<g>
		<path class="st0" d="M110.1,93C110.2,93,110.2,93.1,110.1,93C110.2,93.1,110.2,93.1,110.1,93C110.1,93.1,110.1,93.1,110.1,93
			C110.1,93.1,110.1,93,110.1,93 M110.1,92.5c-0.3,0-0.5,0.2-0.5,0.5s0.2,0.5,0.5,0.5s0.5-0.2,0.5-0.5S110.4,92.5,110.1,92.5
			L110.1,92.5z"/>
	</g>
	<g>
		<path class="st0" d="M113.6,95C113.6,95,113.7,95,113.6,95C113.7,95.1,113.6,95.1,113.6,95C113.6,95.1,113.6,95.1,113.6,95
			C113.6,95,113.6,95,113.6,95 M113.6,94.5c-0.3,0-0.5,0.2-0.5,0.5s0.2,0.5,0.5,0.5s0.5-0.2,0.5-0.5S113.9,94.5,113.6,94.5
			L113.6,94.5z"/>
	</g>
	<g>
		<path class="st0" d="M120,89C120,89,120.1,89,120,89C120.1,89.1,120,89.1,120,89C120,89.1,120,89.1,120,89C120,89,120,89,120,89
			 M120,88.5c-0.3,0-0.5,0.2-0.5,0.5s0.2,0.5,0.5,0.5s0.5-0.2,0.5-0.5S120.3,88.5,120,88.5L120,88.5z"/>
	</g>
	<g>
		<path class="st0" d="M128.7,90C128.7,90,128.7,90,128.7,90C128.7,90,128.7,90,128.7,90C128.6,90,128.6,90,128.7,90
			C128.6,90,128.6,90,128.7,90 M128.7,89.5c-0.3,0-0.5,0.2-0.5,0.5c0,0.3,0.2,0.5,0.5,0.5s0.5-0.2,0.5-0.5
			C129.2,89.7,129,89.5,128.7,89.5L128.7,89.5z"/>
	</g>
	<g>
		<path class="st0" d="M132.7,88.6C132.7,88.6,132.7,88.6,132.7,88.6C132.7,88.7,132.7,88.7,132.7,88.6
			C132.6,88.7,132.6,88.7,132.7,88.6C132.6,88.6,132.6,88.6,132.7,88.6 M132.7,88.1c-0.3,0-0.5,0.3-0.5,0.5s0.3,0.5,0.5,0.5
			s0.5-0.3,0.5-0.5S132.9,88.1,132.7,88.1L132.7,88.1z"/>
	</g>
	<g>
		<path class="st0" d="M124.3,92.1C124.3,92.1,124.3,92.1,124.3,92.1C124.3,92.2,124.3,92.2,124.3,92.1
			C124.3,92.2,124.3,92.2,124.3,92.1C124.3,92.1,124.3,92.1,124.3,92.1 M124.3,91.6c-0.3,0-0.5,0.2-0.5,0.5s0.2,0.5,0.5,0.5
			c0.3,0,0.5-0.2,0.5-0.5S124.6,91.6,124.3,91.6L124.3,91.6z"/>
	</g>
	<g>
		<path class="st0" d="M120.4,92.1C120.4,92.1,120.5,92.1,120.4,92.1c0.1,0.1,0,0.1,0,0.1C120.4,92.2,120.4,92.1,120.4,92.1
			C120.4,92.1,120.4,92.1,120.4,92.1 M120.4,91.6c-0.3,0-0.6,0.2-0.6,0.6s0.2,0.6,0.6,0.6c0.3,0,0.6-0.2,0.6-0.6
			S120.7,91.6,120.4,91.6L120.4,91.6z"/>
	</g>
	<g>
		<path class="st0" d="M119.9,92.2C119.9,92.2,119.9,92.2,119.9,92.2C119.9,92.2,119.9,92.3,119.9,92.2
			C119.8,92.3,119.8,92.2,119.9,92.2C119.8,92.2,119.8,92.2,119.9,92.2 M119.9,91.7c-0.3,0-0.5,0.2-0.5,0.5s0.2,0.5,0.5,0.5
			s0.5-0.2,0.5-0.5S120.2,91.7,119.9,91.7L119.9,91.7z"/>
	</g>
	<g>
		<path class="st0" d="M120.2,92.8C120.2,92.8,120.2,92.8,120.2,92.8C120.2,92.8,120.2,92.8,120.2,92.8
			C120.2,92.8,120.1,92.8,120.2,92.8C120.1,92.8,120.2,92.8,120.2,92.8 M120.2,92.3c-0.3,0-0.5,0.2-0.5,0.5c0,0.3,0.2,0.5,0.5,0.5
			s0.5-0.2,0.5-0.5C120.7,92.5,120.5,92.3,120.2,92.3L120.2,92.3z"/>
	</g>
	<g>
		<path class="st0" d="M121.2,99.1C121.2,99.1,121.2,99.1,121.2,99.1c0.1,0.1,0,0.1,0,0.1S121.1,99.2,121.2,99.1
			C121.1,99.1,121.2,99.1,121.2,99.1 M121.2,98.6c-0.3,0-0.6,0.2-0.6,0.6c0,0.3,0.2,0.6,0.6,0.6s0.6-0.2,0.6-0.6
			C121.7,98.8,121.5,98.6,121.2,98.6L121.2,98.6z"/>
	</g>
	<g>
		<path class="st0" d="M123.3,99.6C123.3,99.6,123.3,99.6,123.3,99.6C123.3,99.7,123.3,99.7,123.3,99.6
			C123.2,99.7,123.2,99.7,123.3,99.6C123.2,99.6,123.2,99.6,123.3,99.6 M123.3,99.1c-0.3,0-0.5,0.2-0.5,0.5s0.2,0.5,0.5,0.5
			s0.5-0.2,0.5-0.5S123.6,99.1,123.3,99.1L123.3,99.1z"/>
	</g>
	<g>
		<path class="st0" d="M137,93.5C137,93.5,137,93.5,137,93.5C137,93.5,137,93.6,137,93.5C137,93.6,136.9,93.5,137,93.5
			C136.9,93.5,137,93.5,137,93.5 M137,93c-0.3,0-0.5,0.2-0.5,0.5s0.2,0.5,0.5,0.5s0.5-0.2,0.5-0.5S137.3,93,137,93L137,93z"/>
	</g>
	<g>
		<path class="st0" d="M108.8,137.8C108.8,137.8,108.8,137.9,108.8,137.8c0.1,0.1,0,0.1,0,0.1S108.7,137.9,108.8,137.8
			C108.7,137.9,108.7,137.8,108.8,137.8 M108.8,137.3c-0.3,0-0.6,0.3-0.6,0.6s0.3,0.6,0.6,0.6s0.6-0.3,0.6-0.6
			S109.1,137.3,108.8,137.3L108.8,137.3z"/>
	</g>
	<g>
		<path class="st0" d="M116.5,140C116.5,140,116.6,140,116.5,140c0.1,0.1,0,0.1,0,0.1S116.5,140,116.5,140
			C116.5,140,116.5,140,116.5,140 M116.5,139.5c-0.3,0-0.6,0.3-0.6,0.6s0.3,0.6,0.6,0.6s0.6-0.3,0.6-0.6S116.8,139.5,116.5,139.5
			L116.5,139.5z"/>
	</g>
	<g>
		<path class="st0" d="M112.3,137.2C112.3,137.2,112.4,137.2,112.3,137.2C112.4,137.3,112.3,137.3,112.3,137.2
			C112.3,137.3,112.3,137.3,112.3,137.2C112.3,137.2,112.3,137.2,112.3,137.2 M112.3,136.7c-0.3,0-0.5,0.2-0.5,0.5
			c0,0.3,0.2,0.5,0.5,0.5s0.5-0.2,0.5-0.5C112.9,137,112.6,136.7,112.3,136.7L112.3,136.7z"/>
	</g>
	<g>
		<path class="st0" d="M121.5,140.6C121.5,140.6,121.6,140.7,121.5,140.6c0.1,0.1,0,0.1,0,0.1C121.5,140.8,121.4,140.7,121.5,140.6
			C121.4,140.7,121.5,140.6,121.5,140.6 M121.5,140.1c-0.3,0-0.6,0.3-0.6,0.6c0,0.3,0.3,0.6,0.6,0.6s0.6-0.3,0.6-0.6
			C122.1,140.4,121.8,140.1,121.5,140.1L121.5,140.1z"/>
	</g>
	<g>
		<path class="st0" d="M122.5,140.6C122.6,140.6,122.6,140.6,122.5,140.6c0.1,0.1,0,0.1,0,0.1C122.5,140.7,122.5,140.7,122.5,140.6
			C122.5,140.6,122.5,140.6,122.5,140.6 M122.5,140.1c-0.3,0-0.6,0.2-0.6,0.6c0,0.3,0.2,0.6,0.6,0.6c0.3,0,0.6-0.2,0.6-0.6
			C123.1,140.3,122.8,140.1,122.5,140.1L122.5,140.1z"/>
	</g>
	<g>
		<path class="st0" d="M123.8,141C123.8,141,123.9,141,123.8,141c0.1,0.1,0,0.1,0,0.1S123.7,141.1,123.8,141
			C123.7,141,123.8,141,123.8,141 M123.8,140.5c-0.3,0-0.6,0.3-0.6,0.6c0,0.3,0.3,0.6,0.6,0.6c0.3,0,0.6-0.3,0.6-0.6
			C124.4,140.8,124.1,140.5,123.8,140.5L123.8,140.5z"/>
	</g>
	<g>
		<path class="st0" d="M122.5,142.3C122.6,142.3,122.6,142.3,122.5,142.3c0.1,0.1,0,0.1,0,0.1C122.5,142.4,122.5,142.3,122.5,142.3
			C122.5,142.3,122.5,142.3,122.5,142.3 M122.5,141.8c-0.3,0-0.6,0.2-0.6,0.6c0,0.3,0.2,0.6,0.6,0.6c0.3,0,0.6-0.2,0.6-0.6
			C123.1,142,122.8,141.8,122.5,141.8L122.5,141.8z"/>
	</g>
	<g>
		<path class="st0" d="M117.4,141.3C117.4,141.3,117.5,141.3,117.4,141.3c0.1,0.1,0,0.1,0,0.1C117.4,141.4,117.3,141.4,117.4,141.3
			C117.3,141.3,117.4,141.3,117.4,141.3 M117.4,140.8c-0.3,0-0.6,0.2-0.6,0.6c0,0.3,0.2,0.6,0.6,0.6c0.3,0,0.6-0.2,0.6-0.6
			C118,141.1,117.7,140.8,117.4,140.8L117.4,140.8z"/>
	</g>
	<g>
		<path class="st0" d="M117.5,142.2C117.5,142.2,117.5,142.2,117.5,142.2C117.5,142.3,117.5,142.3,117.5,142.2
			C117.5,142.3,117.5,142.3,117.5,142.2C117.5,142.2,117.5,142.2,117.5,142.2 M117.5,141.7c-0.3,0-0.5,0.2-0.5,0.5s0.2,0.5,0.5,0.5
			s0.5-0.2,0.5-0.5S117.8,141.7,117.5,141.7L117.5,141.7z"/>
	</g>
	<g>
		<path class="st0" d="M118,143.6C118,143.6,118,143.6,118,143.6c0.1,0.1,0,0.1,0,0.1C118,143.7,117.9,143.7,118,143.6
			C117.9,143.6,118,143.6,118,143.6 M118,143.1c-0.3,0-0.6,0.2-0.6,0.6s0.2,0.6,0.6,0.6c0.3,0,0.6-0.2,0.6-0.6
			S118.3,143.1,118,143.1L118,143.1z"/>
	</g>
	<g>
		<path class="st0" d="M116.3,144.8C116.4,144.8,116.4,144.8,116.3,144.8c0.1,0.1,0,0.1,0,0.1S116.3,144.9,116.3,144.8
			C116.3,144.8,116.3,144.8,116.3,144.8 M116.3,144.3c-0.3,0-0.6,0.3-0.6,0.6c0,0.3,0.3,0.6,0.6,0.6c0.3,0,0.6-0.3,0.6-0.6
			C116.9,144.6,116.6,144.3,116.3,144.3L116.3,144.3z"/>
	</g>
	<g>
		<path class="st0" d="M114.6,144.4C114.6,144.4,114.6,144.4,114.6,144.4c0.1,0.1,0,0.1,0,0.1C114.6,144.5,114.5,144.4,114.6,144.4
			C114.5,144.4,114.6,144.4,114.6,144.4 M114.6,143.9c-0.3,0-0.6,0.2-0.6,0.6s0.2,0.6,0.6,0.6s0.6-0.2,0.6-0.6
			S114.9,143.9,114.6,143.9L114.6,143.9z"/>
	</g>
	<g>
		<path class="st0" d="M115.3,142.8C115.3,142.8,115.4,142.8,115.3,142.8c0.1,0.1,0,0.1,0,0.1S115.2,142.9,115.3,142.8
			C115.2,142.8,115.3,142.8,115.3,142.8 M115.3,142.3c-0.3,0-0.6,0.3-0.6,0.6s0.3,0.6,0.6,0.6c0.3,0,0.6-0.3,0.6-0.6
			S115.6,142.3,115.3,142.3L115.3,142.3z"/>
	</g>
	<g>
		<path class="st0" d="M118.6,145C118.7,145,118.7,145,118.6,145c0.1,0.1,0,0.1,0,0.1C118.6,145.1,118.6,145.1,118.6,145
			C118.6,145,118.6,145,118.6,145 M118.6,144.5c-0.3,0-0.6,0.3-0.6,0.6s0.3,0.6,0.6,0.6c0.3,0,0.6-0.3,0.6-0.6
			S118.9,144.5,118.6,144.5L118.6,144.5z"/>
	</g>
	<g>
		<path class="st0" d="M117.2,145.5C117.2,145.5,117.3,145.5,117.2,145.5C117.3,145.5,117.2,145.6,117.2,145.5
			C117.2,145.6,117.2,145.5,117.2,145.5C117.2,145.5,117.2,145.5,117.2,145.5 M117.2,145c-0.3,0-0.5,0.2-0.5,0.5
			c0,0.3,0.2,0.5,0.5,0.5s0.5-0.2,0.5-0.5C117.8,145.2,117.5,145,117.2,145L117.2,145z"/>
	</g>
	<g>
		<path class="st0" d="M113.6,145.3C113.7,145.3,113.7,145.4,113.6,145.3c0.1,0.1,0,0.1,0,0.1S113.6,145.4,113.6,145.3
			C113.6,145.4,113.6,145.3,113.6,145.3 M113.6,144.8c-0.3,0-0.6,0.3-0.6,0.6s0.3,0.6,0.6,0.6s0.6-0.3,0.6-0.6
			S113.9,144.8,113.6,144.8L113.6,144.8z"/>
	</g>
	<g>
		<path class="st0" d="M114.9,147.2C114.9,147.2,114.9,147.2,114.9,147.2C114.9,147.2,114.9,147.3,114.9,147.2
			C114.8,147.3,114.8,147.2,114.9,147.2C114.8,147.2,114.8,147.2,114.9,147.2 M114.9,146.7c-0.3,0-0.5,0.2-0.5,0.5
			c0,0.3,0.2,0.5,0.5,0.5s0.5-0.2,0.5-0.5C115.4,146.9,115.2,146.7,114.9,146.7L114.9,146.7z"/>
	</g>
	<g>
		<path class="st0" d="M128.1,143.9C128.2,143.9,128.2,143.9,128.1,143.9c0.1,0.1,0,0.1,0,0.1S128.1,144,128.1,143.9
			C128.1,143.9,128.1,143.9,128.1,143.9 M128.1,143.4c-0.3,0-0.6,0.2-0.6,0.6s0.2,0.6,0.6,0.6s0.6-0.2,0.6-0.6
			S128.4,143.4,128.1,143.4L128.1,143.4z"/>
	</g>
	<g>
		<path class="st0" d="M114.5,134.8C114.5,134.8,114.6,134.8,114.5,134.8c0.1,0.1,0,0.1,0,0.1S114.5,134.9,114.5,134.8
			C114.5,134.8,114.5,134.8,114.5,134.8 M114.5,134.3c-0.3,0-0.6,0.2-0.6,0.6c0,0.3,0.2,0.6,0.6,0.6s0.6-0.2,0.6-0.6
			C115.1,134.5,114.8,134.3,114.5,134.3L114.5,134.3z"/>
	</g>
	<g>
		<path class="st0" d="M110,135C110,135,110,135.1,110,135C110,135.1,110,135.1,110,135C110,135.1,110,135.1,110,135
			C110,135.1,110,135,110,135 M110,134.5c-0.3,0-0.5,0.3-0.5,0.5s0.3,0.5,0.5,0.5s0.5-0.3,0.5-0.5S110.3,134.5,110,134.5L110,134.5z
			"/>
	</g>
	<g>
		<path class="st0" d="M121.7,135C121.7,135,121.7,135,121.7,135c0.1,0.1,0,0.1,0,0.1S121.6,135.1,121.7,135
			C121.6,135,121.6,135,121.7,135 M121.7,134.5c-0.3,0-0.6,0.3-0.6,0.6s0.3,0.6,0.6,0.6c0.3,0,0.6-0.3,0.6-0.6
			S122,134.5,121.7,134.5L121.7,134.5z"/>
	</g>
	<g>
		<path class="st0" d="M122.9,134.6C122.9,134.6,123,134.6,122.9,134.6C123,134.7,122.9,134.7,122.9,134.6
			C122.9,134.7,122.9,134.7,122.9,134.6C122.9,134.6,122.9,134.6,122.9,134.6 M122.9,134.1c-0.3,0-0.5,0.2-0.5,0.5
			c0,0.3,0.2,0.5,0.5,0.5c0.3,0,0.5-0.2,0.5-0.5C123.5,134.4,123.2,134.1,122.9,134.1L122.9,134.1z"/>
	</g>
	<g>
		<path class="st0" d="M121.5,134C121.6,134,121.6,134,121.5,134c0.1,0.1,0,0.1,0,0.1S121.5,134.1,121.5,134
			C121.5,134,121.5,134,121.5,134 M121.5,133.5c-0.3,0-0.6,0.2-0.6,0.6s0.2,0.6,0.6,0.6s0.6-0.2,0.6-0.6S121.8,133.5,121.5,133.5
			L121.5,133.5z"/>
	</g>
	<g>
		<path class="st0" d="M122,133.2C122,133.2,122.1,133.3,122,133.2c0.1,0.1,0,0.1,0,0.1C122,133.3,122,133.3,122,133.2
			C122,133.3,122,133.2,122,133.2 M122,132.7c-0.3,0-0.6,0.2-0.6,0.6s0.2,0.6,0.6,0.6s0.6-0.2,0.6-0.6S122.3,132.7,122,132.7
			L122,132.7z"/>
	</g>
	<g>
		<path class="st0" d="M121.3,132.9C121.4,132.9,121.4,132.9,121.3,132.9C121.4,132.9,121.4,132.9,121.3,132.9
			C121.3,132.9,121.3,132.9,121.3,132.9C121.3,132.9,121.3,132.9,121.3,132.9 M121.3,132.4c-0.3,0-0.5,0.2-0.5,0.5
			c0,0.3,0.2,0.5,0.5,0.5s0.5-0.2,0.5-0.5C121.9,132.6,121.6,132.4,121.3,132.4L121.3,132.4z"/>
	</g>
	<g>
		<path class="st0" d="M121.8,132.2C121.8,132.2,121.9,132.3,121.8,132.2c0.1,0.1,0,0.1,0,0.1C121.8,132.3,121.8,132.3,121.8,132.2
			C121.8,132.3,121.8,132.2,121.8,132.2 M121.8,131.7c-0.3,0-0.6,0.2-0.6,0.6s0.2,0.6,0.6,0.6s0.6-0.2,0.6-0.6
			S122.1,131.7,121.8,131.7L121.8,131.7z"/>
	</g>
	<g>
		<path class="st0" d="M123.8,132.3C123.8,132.3,123.9,132.3,123.8,132.3C123.9,132.4,123.8,132.4,123.8,132.3
			C123.8,132.4,123.8,132.4,123.8,132.3C123.8,132.3,123.8,132.3,123.8,132.3 M123.8,131.8c-0.3,0-0.5,0.2-0.5,0.5
			c0,0.3,0.2,0.5,0.5,0.5s0.5-0.2,0.5-0.5C124.4,132.1,124.1,131.8,123.8,131.8L123.8,131.8z"/>
	</g>
	<g>
		<path class="st0" d="M126.7,136.7C126.7,136.7,126.7,136.7,126.7,136.7C126.7,136.7,126.7,136.7,126.7,136.7
			C126.7,136.7,126.7,136.7,126.7,136.7C126.7,136.7,126.7,136.7,126.7,136.7 M126.7,136.2c-0.3,0-0.5,0.3-0.5,0.5s0.3,0.5,0.5,0.5
			s0.5-0.3,0.5-0.5S127,136.2,126.7,136.2L126.7,136.2z"/>
	</g>
	<g>
		<path class="st0" d="M126,130.5C126.1,130.5,126.1,130.6,126,130.5c0.1,0.1,0,0.1,0,0.1S126,130.6,126,130.5
			C126,130.6,126,130.5,126,130.5 M126,130c-0.3,0-0.6,0.2-0.6,0.6c0,0.3,0.2,0.6,0.6,0.6c0.3,0,0.6-0.2,0.6-0.6
			C126.6,130.3,126.4,130,126,130L126,130z"/>
	</g>
	<g>
		<path class="st0" d="M124.6,130C124.6,130,124.6,130,124.6,130C124.6,130.1,124.6,130.1,124.6,130
			C124.5,130.1,124.5,130.1,124.6,130C124.5,130,124.5,130,124.6,130 M124.6,129.5c-0.3,0-0.5,0.2-0.5,0.5s0.2,0.5,0.5,0.5
			s0.5-0.2,0.5-0.5S124.9,129.5,124.6,129.5L124.6,129.5z"/>
	</g>
	<g>
		<path class="st0" d="M125.6,129.9C125.7,129.9,125.7,130,125.6,129.9c0.1,0.1,0,0.1,0,0.1C125.6,130.1,125.6,130,125.6,129.9
			C125.6,130,125.6,129.9,125.6,129.9 M125.6,129.4c-0.3,0-0.6,0.3-0.6,0.6s0.3,0.6,0.6,0.6s0.6-0.3,0.6-0.6
			S125.9,129.4,125.6,129.4L125.6,129.4z"/>
	</g>
	<g>
		<path class="st0" d="M124,128.9C124,128.9,124.1,128.9,124,128.9C124.1,128.9,124,128.9,124,128.9C124,128.9,124,128.9,124,128.9
			C124,128.9,124,128.9,124,128.9 M124,128.4c-0.3,0-0.5,0.2-0.5,0.5c0,0.3,0.2,0.5,0.5,0.5s0.5-0.2,0.5-0.5
			C124.6,128.6,124.3,128.4,124,128.4L124,128.4z"/>
	</g>
	<g>
		<path class="st0" d="M123.4,128.3C123.4,128.3,123.4,128.3,123.4,128.3c0.1,0.1,0,0.1,0,0.1C123.3,128.4,123.3,128.4,123.4,128.3
			C123.3,128.3,123.3,128.3,123.4,128.3 M123.4,127.8c-0.3,0-0.6,0.2-0.6,0.6s0.2,0.6,0.6,0.6s0.6-0.2,0.6-0.6
			S123.7,127.8,123.4,127.8L123.4,127.8z"/>
	</g>
	<g>
		<path class="st0" d="M130.7,131C130.7,131,130.7,131,130.7,131c0.1,0.1,0,0.1,0,0.1C130.6,131.1,130.6,131.1,130.7,131
			C130.6,131,130.6,131,130.7,131 M130.7,130.5c-0.3,0-0.6,0.2-0.6,0.6s0.2,0.6,0.6,0.6s0.6-0.2,0.6-0.6S131,130.5,130.7,130.5
			L130.7,130.5z"/>
	</g>
	<g>
		<path class="st0" d="M130.2,129.5C130.3,129.5,130.3,129.5,130.2,129.5C130.3,129.6,130.3,129.6,130.2,129.5
			C130.2,129.6,130.2,129.6,130.2,129.5C130.2,129.5,130.2,129.5,130.2,129.5 M130.2,129c-0.3,0-0.5,0.2-0.5,0.5s0.2,0.5,0.5,0.5
			s0.5-0.2,0.5-0.5S130.5,129,130.2,129L130.2,129z"/>
	</g>
	<g>
		<path class="st0" d="M129.5,128.4C129.5,128.4,129.5,128.4,129.5,128.4C129.5,128.4,129.5,128.5,129.5,128.4
			C129.5,128.5,129.4,128.4,129.5,128.4C129.4,128.4,129.5,128.4,129.5,128.4 M129.5,127.9c-0.3,0-0.5,0.2-0.5,0.5s0.2,0.5,0.5,0.5
			c0.3,0,0.5-0.2,0.5-0.5S129.8,127.9,129.5,127.9L129.5,127.9z"/>
	</g>
	<g>
		<path class="st0" d="M130,122.9C130,122.9,130,122.9,130,122.9C130,123,130,123,130,122.9C130,123,129.9,123,130,122.9
			C129.9,122.9,130,122.9,130,122.9 M130,122.4c-0.3,0-0.5,0.2-0.5,0.5c0,0.3,0.2,0.5,0.5,0.5s0.5-0.2,0.5-0.5
			C130.5,122.6,130.3,122.4,130,122.4L130,122.4z"/>
	</g>
	<g>
		<path class="st0" d="M130.5,122.9C130.5,122.9,130.5,123,130.5,122.9C130.5,123,130.5,123,130.5,122.9
			C130.5,123,130.4,123,130.5,122.9C130.4,123,130.5,122.9,130.5,122.9 M130.5,122.4c-0.3,0-0.5,0.2-0.5,0.5s0.2,0.5,0.5,0.5
			c0.3,0,0.5-0.2,0.5-0.5S130.8,122.4,130.5,122.4L130.5,122.4z"/>
	</g>
	<g>
		<path class="st0" d="M134.4,124.2C134.4,124.2,134.4,124.2,134.4,124.2C134.4,124.3,134.4,124.3,134.4,124.2
			C134.4,124.3,134.3,124.3,134.4,124.2C134.3,124.2,134.4,124.2,134.4,124.2 M134.4,123.7c-0.3,0-0.5,0.2-0.5,0.5s0.2,0.5,0.5,0.5
			s0.5-0.2,0.5-0.5S134.7,123.7,134.4,123.7L134.4,123.7z"/>
	</g>
	<g>
		<path class="st0" d="M135.4,128.4C135.4,128.4,135.4,128.4,135.4,128.4C135.4,128.5,135.4,128.5,135.4,128.4
			C135.4,128.5,135.3,128.5,135.4,128.4C135.3,128.4,135.4,128.4,135.4,128.4 M135.4,127.9c-0.3,0-0.5,0.2-0.5,0.5s0.2,0.5,0.5,0.5
			s0.5-0.2,0.5-0.5S135.7,127.9,135.4,127.9L135.4,127.9z"/>
	</g>
	<g>
		<path class="st0" d="M131.8,122.3C131.8,122.3,131.8,122.3,131.8,122.3C131.8,122.4,131.8,122.4,131.8,122.3
			C131.7,122.4,131.7,122.4,131.8,122.3C131.7,122.3,131.7,122.3,131.8,122.3 M131.8,121.8c-0.3,0-0.5,0.2-0.5,0.5
			c0,0.3,0.2,0.5,0.5,0.5c0.3,0,0.5-0.2,0.5-0.5C132.3,122,132.1,121.8,131.8,121.8L131.8,121.8z"/>
	</g>
	<g>
		<path class="st0" d="M131.8,121.4C131.8,121.4,131.9,121.4,131.8,121.4C131.9,121.5,131.8,121.5,131.8,121.4
			C131.8,121.5,131.8,121.5,131.8,121.4C131.8,121.4,131.8,121.4,131.8,121.4 M131.8,120.9c-0.3,0-0.5,0.2-0.5,0.5
			c0,0.3,0.2,0.5,0.5,0.5s0.5-0.2,0.5-0.5C132.4,121.1,132.1,120.9,131.8,120.9L131.8,120.9z"/>
	</g>
	<g>
		<path class="st0" d="M136.5,120.3C136.5,120.3,136.5,120.4,136.5,120.3C136.5,120.4,136.5,120.4,136.5,120.3
			C136.4,120.4,136.4,120.4,136.5,120.3C136.4,120.4,136.4,120.3,136.5,120.3 M136.5,119.8c-0.3,0-0.5,0.2-0.5,0.5s0.2,0.5,0.5,0.5
			s0.5-0.2,0.5-0.5S136.8,119.8,136.5,119.8L136.5,119.8z"/>
	</g>
	<g>
		<path class="st0" d="M136.8,121C136.8,121,136.9,121,136.8,121C136.9,121.1,136.8,121.1,136.8,121
			C136.8,121.1,136.8,121.1,136.8,121C136.8,121,136.8,121,136.8,121 M136.8,120.5c-0.3,0-0.5,0.2-0.5,0.5s0.2,0.5,0.5,0.5
			c0.3,0,0.5-0.2,0.5-0.5S137.1,120.5,136.8,120.5L136.8,120.5z"/>
	</g>
	<g>
		<path class="st0" d="M135.9,121C135.9,121,135.9,121,135.9,121c0.1,0.1,0,0.1,0,0.1S135.8,121.1,135.9,121
			C135.8,121,135.9,121,135.9,121 M135.9,120.5c-0.3,0-0.6,0.2-0.6,0.6s0.2,0.6,0.6,0.6s0.6-0.2,0.6-0.6S136.2,120.5,135.9,120.5
			L135.9,120.5z"/>
	</g>
	<g>
		<path class="st0" d="M132.4,119.2C132.5,119.2,132.5,119.2,132.4,119.2c0.1,0.1,0,0.1,0,0.1C132.4,119.3,132.4,119.3,132.4,119.2
			C132.4,119.2,132.4,119.2,132.4,119.2 M132.4,118.7c-0.3,0-0.6,0.2-0.6,0.6s0.2,0.6,0.6,0.6s0.6-0.2,0.6-0.6
			S132.7,118.7,132.4,118.7L132.4,118.7z"/>
	</g>
	<g>
		<path class="st0" d="M131.6,119.5C131.7,119.5,131.7,119.5,131.6,119.5c0.1,0.1,0,0.1,0,0.1S131.6,119.6,131.6,119.5
			C131.6,119.5,131.6,119.5,131.6,119.5 M131.6,119c-0.3,0-0.6,0.3-0.6,0.6c0,0.3,0.3,0.6,0.6,0.6s0.6-0.3,0.6-0.6
			C132.2,119.2,131.9,119,131.6,119L131.6,119z"/>
	</g>
	<g>
		<path class="st0" d="M131.2,117.5C131.2,117.5,131.2,117.5,131.2,117.5c0.1,0.1,0,0.1,0,0.1C131.1,117.6,131.1,117.5,131.2,117.5
			C131.1,117.5,131.1,117.5,131.2,117.5 M131.2,117c-0.3,0-0.6,0.2-0.6,0.6s0.2,0.6,0.6,0.6c0.3,0,0.6-0.2,0.6-0.6
			S131.5,117,131.2,117L131.2,117z"/>
	</g>
	<g>
		<path class="st0" d="M132,116.5C132.1,116.5,132.1,116.5,132,116.5C132.1,116.5,132.1,116.6,132,116.5
			C132,116.6,132,116.5,132,116.5C132,116.5,132,116.5,132,116.5 M132,116c-0.3,0-0.5,0.2-0.5,0.5c0,0.3,0.2,0.5,0.5,0.5
			s0.5-0.2,0.5-0.5C132.6,116.2,132.3,116,132,116L132,116z"/>
	</g>
	<g>
		<path class="st0" d="M126.5,121.8C126.6,121.8,126.6,121.8,126.5,121.8C126.6,121.9,126.6,121.9,126.5,121.8
			C126.5,121.9,126.5,121.9,126.5,121.8C126.5,121.8,126.5,121.8,126.5,121.8 M126.5,121.3c-0.3,0-0.5,0.2-0.5,0.5s0.2,0.5,0.5,0.5
			s0.5-0.2,0.5-0.5S126.8,121.3,126.5,121.3L126.5,121.3z"/>
	</g>
	<g>
		<path class="st0" d="M126.8,121.2C126.8,121.2,126.8,121.2,126.8,121.2C126.8,121.3,126.8,121.3,126.8,121.2
			C126.7,121.3,126.7,121.3,126.8,121.2C126.7,121.2,126.7,121.2,126.8,121.2 M126.8,120.7c-0.3,0-0.5,0.2-0.5,0.5s0.2,0.5,0.5,0.5
			s0.5-0.2,0.5-0.5S127.1,120.7,126.8,120.7L126.8,120.7z"/>
	</g>
	<g>
		<path class="st0" d="M129,121.6C129,121.6,129.1,121.6,129,121.6c0.1,0.1,0,0.1,0,0.1S128.9,121.7,129,121.6
			C128.9,121.6,129,121.6,129,121.6 M129,121.1c-0.3,0-0.6,0.3-0.6,0.6c0,0.3,0.3,0.6,0.6,0.6s0.6-0.3,0.6-0.6
			C129.6,121.3,129.3,121.1,129,121.1L129,121.1z"/>
	</g>
	<g>
		<path class="st0" d="M129,120.9C129,120.9,129,121,129,120.9C129,121,129,121,129,120.9C129,121,128.9,121,129,120.9
			C128.9,121,129,120.9,129,120.9 M129,120.4c-0.3,0-0.5,0.3-0.5,0.5s0.3,0.5,0.5,0.5s0.5-0.3,0.5-0.5S129.3,120.4,129,120.4
			L129,120.4z"/>
	</g>
	<g>
		<path class="st0" d="M129,120.9C129.1,120.9,129.1,120.9,129,120.9C129.1,120.9,129.1,121,129,120.9C129,121,129,120.9,129,120.9
			C129,120.9,129,120.9,129,120.9 M129,120.4c-0.3,0-0.5,0.3-0.5,0.5s0.3,0.5,0.5,0.5s0.5-0.3,0.5-0.5S129.3,120.4,129,120.4
			L129,120.4z"/>
	</g>
	<g>
		<path class="st0" d="M125.4,118.9C125.4,118.9,125.5,118.9,125.4,118.9C125.5,119,125.4,119,125.4,118.9
			C125.4,119,125.4,119,125.4,118.9C125.4,118.9,125.4,118.9,125.4,118.9 M125.4,118.4c-0.3,0-0.5,0.2-0.5,0.5
			c0,0.3,0.2,0.5,0.5,0.5s0.5-0.2,0.5-0.5C126,118.6,125.7,118.4,125.4,118.4L125.4,118.4z"/>
	</g>
	<g>
		<path class="st0" d="M126.4,118.8C126.4,118.8,126.4,118.8,126.4,118.8C126.4,118.8,126.4,118.9,126.4,118.8
			C126.4,118.9,126.3,118.8,126.4,118.8C126.3,118.8,126.4,118.8,126.4,118.8 M126.4,118.3c-0.3,0-0.5,0.2-0.5,0.5s0.2,0.5,0.5,0.5
			c0.3,0,0.5-0.2,0.5-0.5S126.7,118.3,126.4,118.3L126.4,118.3z"/>
	</g>
	<g>
		<path class="st0" d="M126.8,118C126.8,118,126.9,118,126.8,118C126.9,118.1,126.8,118.1,126.8,118
			C126.8,118.1,126.8,118.1,126.8,118C126.8,118,126.8,118,126.8,118 M126.8,117.5c-0.3,0-0.5,0.2-0.5,0.5s0.2,0.5,0.5,0.5
			s0.5-0.2,0.5-0.5S127.1,117.5,126.8,117.5L126.8,117.5z"/>
	</g>
	<g>
		<path class="st0" d="M128.4,118.6C128.4,118.6,128.4,118.6,128.4,118.6C128.4,118.7,128.4,118.7,128.4,118.6
			C128.4,118.7,128.3,118.7,128.4,118.6C128.3,118.6,128.4,118.6,128.4,118.6 M128.4,118.1c-0.3,0-0.5,0.2-0.5,0.5
			c0,0.3,0.2,0.5,0.5,0.5s0.5-0.2,0.5-0.5C128.9,118.3,128.7,118.1,128.4,118.1L128.4,118.1z"/>
	</g>
	<g>
		<path class="st0" d="M125.4,116.3C125.4,116.3,125.4,116.3,125.4,116.3C125.4,116.4,125.4,116.4,125.4,116.3
			C125.3,116.4,125.3,116.4,125.4,116.3C125.3,116.3,125.3,116.3,125.4,116.3 M125.4,115.8c-0.3,0-0.5,0.2-0.5,0.5s0.2,0.5,0.5,0.5
			s0.5-0.2,0.5-0.5S125.7,115.8,125.4,115.8L125.4,115.8z"/>
	</g>
	<g>
		<path class="st0" d="M126,115.4C126,115.4,126,115.4,126,115.4C126,115.5,126,115.5,126,115.4C126,115.5,125.9,115.5,126,115.4
			C125.9,115.4,126,115.4,126,115.4 M126,114.9c-0.3,0-0.5,0.2-0.5,0.5s0.2,0.5,0.5,0.5s0.5-0.2,0.5-0.5S126.3,114.9,126,114.9
			L126,114.9z"/>
	</g>
	<g>
		<path class="st0" d="M124.4,124C124.5,124,124.5,124,124.4,124C124.5,124.1,124.5,124.1,124.4,124
			C124.4,124.1,124.4,124.1,124.4,124C124.4,124,124.4,124,124.4,124 M124.4,123.5c-0.3,0-0.5,0.2-0.5,0.5s0.2,0.5,0.5,0.5
			c0.3,0,0.5-0.2,0.5-0.5S124.7,123.5,124.4,123.5L124.4,123.5z"/>
	</g>
	<g>
		<path class="st0" d="M131.2,112.2C131.2,112.2,131.2,112.2,131.2,112.2C131.2,112.3,131.2,112.3,131.2,112.2
			C131.2,112.3,131.1,112.3,131.2,112.2C131.1,112.2,131.2,112.2,131.2,112.2 M131.2,111.7c-0.3,0-0.5,0.2-0.5,0.5s0.2,0.5,0.5,0.5
			c0.3,0,0.5-0.2,0.5-0.5S131.5,111.7,131.2,111.7L131.2,111.7z"/>
	</g>
	<g>
		<path class="st0" d="M128.7,114.3C128.7,114.3,128.8,114.3,128.7,114.3c0.1,0.1,0,0.1,0,0.1S128.6,114.4,128.7,114.3
			C128.6,114.3,128.7,114.3,128.7,114.3 M128.7,113.8c-0.3,0-0.6,0.2-0.6,0.6s0.2,0.6,0.6,0.6s0.6-0.2,0.6-0.6
			S129,113.8,128.7,113.8L128.7,113.8z"/>
	</g>
	<g>
		<path class="st0" d="M142.6,110C142.6,110,142.6,110,142.6,110C142.6,110,142.6,110,142.6,110C142.6,110,142.6,110,142.6,110
			C142.6,110,142.6,110,142.6,110 M142.6,109.5c-0.3,0-0.5,0.2-0.5,0.5s0.2,0.5,0.5,0.5c0.3,0,0.5-0.2,0.5-0.5
			S142.9,109.5,142.6,109.5L142.6,109.5z"/>
	</g>
	<g>
		<path class="st0" d="M144.5,109.1C144.6,109.1,144.6,109.1,144.5,109.1C144.6,109.1,144.6,109.1,144.5,109.1
			C144.5,109.1,144.5,109.1,144.5,109.1C144.5,109.1,144.5,109.1,144.5,109.1 M144.5,108.6c-0.3,0-0.5,0.2-0.5,0.5s0.2,0.5,0.5,0.5
			c0.3,0,0.5-0.2,0.5-0.5S144.8,108.6,144.5,108.6L144.5,108.6z"/>
	</g>
	<g>
		<path class="st0" d="M140.9,102.4C141,102.4,141,102.4,140.9,102.4C141,102.4,141,102.5,140.9,102.4
			C140.9,102.5,140.9,102.4,140.9,102.4C140.9,102.4,140.9,102.4,140.9,102.4 M140.9,101.9c-0.3,0-0.5,0.2-0.5,0.5s0.2,0.5,0.5,0.5
			s0.5-0.2,0.5-0.5S141.2,101.9,140.9,101.9L140.9,101.9z"/>
	</g>
	<g>
		<path class="st0" d="M141.9,98.6C141.9,98.6,141.9,98.6,141.9,98.6C141.9,98.6,141.9,98.7,141.9,98.6
			C141.9,98.7,141.8,98.6,141.9,98.6C141.8,98.6,141.9,98.6,141.9,98.6 M141.9,98.1c-0.3,0-0.5,0.2-0.5,0.5s0.2,0.5,0.5,0.5
			s0.5-0.2,0.5-0.5S142.2,98.1,141.9,98.1L141.9,98.1z"/>
	</g>
	<g>
		<path class="st0" d="M134.8,108.5C134.8,108.5,134.8,108.5,134.8,108.5C134.8,108.6,134.8,108.6,134.8,108.5
			C134.8,108.6,134.8,108.6,134.8,108.5C134.8,108.5,134.8,108.5,134.8,108.5 M134.8,108c-0.3,0-0.5,0.2-0.5,0.5s0.2,0.5,0.5,0.5
			s0.5-0.2,0.5-0.5S135.1,108,134.8,108L134.8,108z"/>
	</g>
	<g>
		<path class="st0" d="M128.2,109.5C128.2,109.5,128.3,109.5,128.2,109.5c0.1,0.1,0,0.1,0,0.1C128.2,109.6,128.2,109.6,128.2,109.5
			C128.2,109.5,128.2,109.5,128.2,109.5 M128.2,109c-0.3,0-0.6,0.2-0.6,0.6s0.2,0.6,0.6,0.6c0.3,0,0.6-0.2,0.6-0.6
			S128.5,109,128.2,109L128.2,109z"/>
	</g>
	<g>
		<path class="st0" d="M129.4,108.2C129.5,108.2,129.5,108.2,129.4,108.2c0.1,0.1,0,0.1,0,0.1C129.4,108.3,129.4,108.3,129.4,108.2
			C129.4,108.2,129.4,108.2,129.4,108.2 M129.4,107.7c-0.3,0-0.6,0.2-0.6,0.6s0.2,0.6,0.6,0.6s0.6-0.2,0.6-0.6
			S129.8,107.7,129.4,107.7L129.4,107.7z"/>
	</g>
	<g>
		<path class="st0" d="M134.7,98.9C134.7,98.9,134.7,98.9,134.7,98.9c0.1,0.1,0,0.1,0,0.1C134.6,99,134.6,98.9,134.7,98.9
			C134.6,98.9,134.6,98.9,134.7,98.9 M134.7,98.4c-0.3,0-0.6,0.2-0.6,0.6s0.2,0.6,0.6,0.6s0.6-0.2,0.6-0.6S135,98.4,134.7,98.4
			L134.7,98.4z"/>
	</g>
	<g>
		<path class="st0" d="M126.7,104.8C126.7,104.8,126.8,104.8,126.7,104.8C126.8,104.9,126.7,104.9,126.7,104.8
			C126.7,104.9,126.7,104.9,126.7,104.8C126.7,104.8,126.7,104.8,126.7,104.8 M126.7,104.3c-0.3,0-0.5,0.2-0.5,0.5
			c0,0.3,0.2,0.5,0.5,0.5s0.5-0.2,0.5-0.5C127.3,104.5,127,104.3,126.7,104.3L126.7,104.3z"/>
	</g>
	<g>
		<path class="st0" d="M129,104.9C129.1,104.9,129.1,104.9,129,104.9C129.1,105,129.1,105,129,104.9C129,105,129,105,129,104.9
			C129,104.9,129,104.9,129,104.9 M129,104.4c-0.3,0-0.5,0.2-0.5,0.5c0,0.3,0.2,0.5,0.5,0.5s0.5-0.2,0.5-0.5
			C129.6,104.6,129.3,104.4,129,104.4L129,104.4z"/>
	</g>
	<g>
		<path class="st0" d="M131.4,104.7C131.4,104.7,131.5,104.7,131.4,104.7C131.5,104.7,131.4,104.8,131.4,104.7
			C131.4,104.8,131.4,104.7,131.4,104.7C131.4,104.7,131.4,104.7,131.4,104.7 M131.4,104.2c-0.3,0-0.5,0.2-0.5,0.5s0.2,0.5,0.5,0.5
			s0.5-0.2,0.5-0.5S131.7,104.2,131.4,104.2L131.4,104.2z"/>
	</g>
	<g>
		<path class="st0" d="M129.3,105.6C129.3,105.6,129.3,105.7,129.3,105.6C129.3,105.7,129.3,105.7,129.3,105.6
			C129.2,105.7,129.2,105.7,129.3,105.6C129.2,105.7,129.2,105.6,129.3,105.6 M129.3,105.1c-0.3,0-0.5,0.2-0.5,0.5
			c0,0.3,0.2,0.5,0.5,0.5s0.5-0.2,0.5-0.5C129.8,105.4,129.6,105.1,129.3,105.1L129.3,105.1z"/>
	</g>
	<g>
		<path class="st0" d="M129.2,105.7C129.2,105.7,129.2,105.7,129.2,105.7C129.2,105.8,129.2,105.8,129.2,105.7
			C129.2,105.8,129.1,105.8,129.2,105.7C129.1,105.7,129.2,105.7,129.2,105.7 M129.2,105.2c-0.3,0-0.5,0.3-0.5,0.5s0.3,0.5,0.5,0.5
			s0.5-0.3,0.5-0.5S129.5,105.2,129.2,105.2L129.2,105.2z"/>
	</g>
	<g>
		<path class="st0" d="M127.2,108.3C127.2,108.3,127.3,108.3,127.2,108.3C127.3,108.3,127.2,108.3,127.2,108.3
			C127.2,108.3,127.2,108.3,127.2,108.3C127.2,108.3,127.2,108.3,127.2,108.3 M127.2,107.8c-0.3,0-0.5,0.2-0.5,0.5
			c0,0.3,0.2,0.5,0.5,0.5s0.5-0.2,0.5-0.5C127.8,108,127.5,107.8,127.2,107.8L127.2,107.8z"/>
	</g>
	<g>
		<path class="st0" d="M123.7,110C123.8,110,123.8,110,123.7,110C123.8,110,123.8,110,123.7,110C123.7,110,123.7,110,123.7,110
			C123.7,110,123.7,110,123.7,110 M123.7,109.5c-0.3,0-0.5,0.2-0.5,0.5c0,0.3,0.2,0.5,0.5,0.5s0.5-0.2,0.5-0.5
			C124.3,109.7,124,109.5,123.7,109.5L123.7,109.5z"/>
	</g>
	<g>
		<path class="st0" d="M124.2,109.9C124.3,109.9,124.3,110,124.2,109.9c0.1,0.1,0,0.1,0,0.1C124.2,110.1,124.2,110,124.2,109.9
			C124.2,110,124.2,109.9,124.2,109.9 M124.2,109.4c-0.3,0-0.6,0.2-0.6,0.6s0.2,0.6,0.6,0.6s0.6-0.2,0.6-0.6
			S124.5,109.4,124.2,109.4L124.2,109.4z"/>
	</g>
	<g>
		<path class="st0" d="M117.6,112.1C117.6,112.1,117.6,112.2,117.6,112.1C117.6,112.2,117.6,112.2,117.6,112.1
			C117.6,112.2,117.6,112.2,117.6,112.1C117.6,112.2,117.6,112.1,117.6,112.1 M117.6,111.6c-0.3,0-0.5,0.2-0.5,0.5
			c0,0.3,0.2,0.5,0.5,0.5c0.3,0,0.5-0.2,0.5-0.5C118.1,111.9,117.9,111.6,117.6,111.6L117.6,111.6z"/>
	</g>
	<g>
		<path class="st0" d="M118.7,109.2C118.7,109.2,118.7,109.2,118.7,109.2C118.7,109.3,118.7,109.3,118.7,109.2
			C118.6,109.3,118.6,109.3,118.7,109.2C118.6,109.2,118.6,109.2,118.7,109.2 M118.7,108.7c-0.3,0-0.5,0.2-0.5,0.5s0.2,0.5,0.5,0.5
			s0.5-0.2,0.5-0.5S119,108.7,118.7,108.7L118.7,108.7z"/>
	</g>
	<g>
		<path class="st0" d="M117.9,108.3C117.9,108.3,117.9,108.3,117.9,108.3c0.1,0.1,0,0.1,0,0.1S117.8,108.3,117.9,108.3
			C117.8,108.3,117.8,108.3,117.9,108.3 M117.9,107.8c-0.3,0-0.6,0.2-0.6,0.6s0.2,0.6,0.6,0.6s0.6-0.2,0.6-0.6
			S118.2,107.8,117.9,107.8L117.9,107.8z"/>
	</g>
	<g>
		<path class="st0" d="M122,105.2C122,105.2,122.1,105.3,122,105.2C122.1,105.3,122,105.3,122,105.2C122,105.3,122,105.3,122,105.2
			C122,105.3,122,105.2,122,105.2 M122,104.7c-0.3,0-0.5,0.2-0.5,0.5s0.2,0.5,0.5,0.5s0.5-0.2,0.5-0.5S122.3,104.7,122,104.7
			L122,104.7z"/>
	</g>
	<g>
		<path class="st0" d="M121.4,104C121.4,104,121.4,104,121.4,104C121.4,104,121.4,104.1,121.4,104C121.3,104.1,121.3,104,121.4,104
			C121.3,104,121.3,104,121.4,104 M121.4,103.5c-0.3,0-0.5,0.2-0.5,0.5s0.2,0.5,0.5,0.5s0.5-0.2,0.5-0.5S121.7,103.5,121.4,103.5
			L121.4,103.5z"/>
	</g>
	<g>
		<path class="st0" d="M122.2,102.9C122.3,102.9,122.3,102.9,122.2,102.9c0.1,0.1,0,0.1,0,0.1C122.2,103,122.2,103,122.2,102.9
			C122.2,102.9,122.2,102.9,122.2,102.9 M122.2,102.4c-0.3,0-0.6,0.2-0.6,0.6s0.2,0.6,0.6,0.6s0.6-0.2,0.6-0.6
			S122.5,102.4,122.2,102.4L122.2,102.4z"/>
	</g>
</g>
</svg>
