<?xml version="1.0" encoding="utf-8"?>
<!-- Generator: Adobe Illustrator 22.0.0, SVG Export Plug-In . SVG Version: 6.00 Build 0)  -->
<svg version="1.0" id="Layer_8" xmlns="http://www.w3.org/2000/svg" xmlns:xlink="http://www.w3.org/1999/xlink" x="0px" y="0px"
	 viewBox="0 0 595.3 841.9" style="enable-background:new 0 0 595.3 841.9;" xml:space="preserve">
<style type="text/css">
	.st0{fill:#231F20;}
	.st1{fill:none;stroke:#231F20;stroke-width:0.5;stroke-linecap:square;stroke-linejoin:round;stroke-miterlimit:10;}
</style>
<g>
	<path class="st0" d="M109,63.4c23.5,0,42.7,19.2,42.7,42.7c0,23.5-19.2,42.7-42.7,42.7s-42.7-19.2-42.7-42.7
		C66.3,82.5,85.5,63.4,109,63.4 M109,62.9c-23.9,0-43.2,19.3-43.2,43.2c0,23.9,19.3,43.2,43.2,43.2s43.2-19.3,43.2-43.2
		C152.2,82.2,132.9,62.9,109,62.9L109,62.9z"/>
</g>
<g>
	<polyline class="st1" points="83.2,115.1 88.6,109.8 92.2,109.9 92.4,112.5 	"/>
	<polyline class="st1" points="86.8,105.2 87.6,100.4 89.2,105.2 	"/>
	<polyline class="st1" points="90.6,105.1 87.6,100.4 87.8,100.2 90.1,98.7 91.1,94.8 91.8,94.5 92.8,95 94.4,94.1 98.5,95.7 
		103.1,96.7 	"/>
	<path class="st1" d="M95.7,99.9"/>
	<line class="st1" x1="98.5" y1="95.7" x2="95.7" y2="99.9"/>
	<line class="st1" x1="94.4" y1="94.1" x2="93.9" y2="97.6"/>
	<line class="st1" x1="91.8" y1="94.5" x2="92.1" y2="93.8"/>
	<polyline class="st1" points="66.2,100.4 68.4,98.1 70.1,97.2 72.3,96.4 79.6,94.3 82.4,94.1 83.9,93.3 85,93.5 85.7,94.4 
		87.3,93.7 	"/>
	<polyline class="st1" points="82.4,94.1 82,95.5 82.8,96.2 84.8,95.8 85.7,94.4 	"/>
	<polyline class="st1" points="66.2,112.1 69.8,112.3 72.4,108.3 75.1,107.9 80.5,103.4 80.5,109.4 73.4,114.1 69.8,112.3 	"/>
	<polyline class="st1" points="96.1,89.1 93.3,91.2 89.3,89.7 88.5,89.1 85.9,87.9 81.3,88.7 76.3,90 75.7,85.1 75.5,80.4 
		80.5,80.2 85.2,80.4 87.2,82.4 87.7,83 92.7,81.5 95.4,81.2 	"/>
	<line class="st1" x1="74.4" y1="80.1" x2="75.5" y2="80.4"/>
	<polyline class="st1" points="92.1,77.1 87.9,78.9 85.2,80.4 85.9,87.9 	"/>
	<polyline class="st1" points="91.4,74.2 91.7,72.9 89.6,70.5 91.1,68.1 90.1,67.1 88.4,69.6 89.6,70.5 	"/>
	<line class="st1" x1="84.4" y1="70.4" x2="85.5" y2="70.8"/>
	<polyline class="st1" points="99.1,78.7 102.2,76.5 105,72.9 109.3,69.9 111,65.4 112.3,64.2 	"/>
	<polyline class="st1" points="102.9,69.7 105,72.9 108,75.9 110.9,79.8 	"/>
	<polygon class="st1" points="114.6,77.3 115.1,74.9 116.2,74.5 117.2,73.7 116.3,73.2 116.2,74.5 115.6,76.9 	"/>
	<polyline class="st1" points="122,74.6 126,74.6 127.2,74.8 129,78.5 127,81.9 123.1,80.1 121.8,79.2 120.6,79.5 	"/>
	<polyline class="st1" points="132.8,69.9 132.4,70.7 131.4,73.2 127.2,74.8 	"/>
	<polyline class="st1" points="131.4,73.2 131.6,78.1 129,78.5 	"/>
	<polyline class="st1" points="126.4,87.5 132.6,84.4 132.2,81 131.6,78.1 	"/>
	<line class="st1" x1="133.6" y1="85.9" x2="132.6" y2="84.4"/>
	<polyline class="st1" points="141.6,78.6 142.3,80.3 141.1,81.9 139.8,82.1 138.7,82.2 137.6,81.5 137.2,79.5 	"/>
	<line class="st1" x1="147.9" y1="92.7" x2="149.9" y2="91.8"/>
	<polygon class="st1" points="139.4,86.5 138.2,87.2 136.8,88.5 138.2,89 	"/>
	<polyline class="st1" points="138.2,89 139.1,92.3 137.1,94.1 135.9,94.9 131.7,97.9 131.1,98.2 128.1,100.1 124,101.1 
		121.3,100.2 119.7,97.5 119.4,96.7 117.8,94.3 114.4,90.9 	"/>
	<polyline class="st1" points="119.7,97.5 121.8,92.4 122.4,91.6 123.9,88.1 128.1,90.3 130.6,94.6 131.7,97.9 	"/>
	<polyline class="st1" points="122.4,91.6 122.9,94 123.4,96.7 123.7,98.8 124,101.1 121.7,104.4 120.5,106.2 	"/>
	<polyline class="st1" points="127,105.9 127.8,104.6 127.8,103.8 127.7,102.9 128.1,100.1 128.3,95.8 128.3,92.7 128.1,90.3 	"/>
	<polyline class="st1" points="129.6,105.4 129.5,106.8 128.8,108.3 129.5,106.8 127,107 126,106.9 125.1,107.3 122.9,109.1 
		122,110.4 121,111.9 119.7,111.6 118,110.8 117.7,109.5 118.2,109.2 119.1,108.7 119.3,108.9 	"/>
	<polyline class="st1" points="144.1,99.8 147.7,101.8 150.7,103.6 152.2,105.4 	"/>
	<polyline class="st1" points="142.3,104.1 145.7,106.6 147.6,109.7 150,115 151.4,114.7 	"/>
	<polyline class="st1" points="129.6,110.8 130.2,110.3 133.8,104.9 137.2,103.6 138.1,108.5 133.9,111.4 	"/>
	<line class="st1" x1="133.8" y1="104.9" x2="138.1" y2="108.5"/>
	<polyline class="st1" points="134.2,113.4 138.3,116.8 143.9,120.9 143.7,124.3 143.3,127.3 142.6,130.4 141.2,134.9 	"/>
	<polyline class="st1" points="105.7,79.8 107.5,79.8 108.3,81.7 111.1,81.4 112.5,83 	"/>
	<polyline class="st1" points="109.9,84.6 109,84.4 107.7,83.9 	"/>
	<line class="st1" x1="109.7" y1="84.9" x2="109" y2="84.4"/>
	<polyline class="st1" points="99.5,90.9 99.5,88.7 99.9,88.6 	"/>
	<polyline class="st1" points="104,87.8 103.5,86.3 103.2,85.7 102.4,85.6 102.8,86.2 103.5,86.3 	"/>
	<polyline class="st1" points="109.1,88 108.7,88.8 108.2,89.8 106.6,92.9 108.5,92.1 111.4,91.2 108.7,88.8 111.5,87.5 113.7,86.6 
		111.4,91.2 113.2,94.7 	"/>
	<polygon class="st1" points="115.1,94.8 116.1,96.3 116.4,99 115.4,96.6 	"/>
	<polygon class="st1" points="106.1,97.7 105.9,98.6 105.2,99.9 104,102.8 103.6,103.5 100.2,102.3 99,101.4 97.8,100.3 98.5,100.4 
		100.2,100.1 101.8,100 	"/>
	<polygon class="st1" points="94,108.9 94.3,108.9 95.9,107.9 97.9,107.4 99.7,106.8 99.2,106 97.9,107.4 94.3,106.2 93.3,107.8 	
		"/>
	<polyline class="st1" points="99.5,108.7 98.9,109.8 98,112 98,112.1 99.9,112.6 97.8,113.7 98.4,115.4 98,116.4 	"/>
	<line class="st1" x1="98" y1="112.1" x2="97.8" y2="113.7"/>
	<polygon class="st1" points="101.8,105.9 103.1,105.7 104.1,106.1 104.9,109.9 102.4,109.2 	"/>
	<polygon class="st1" points="105.8,111.1 105.7,112.9 105.6,115.5 101.8,115.3 103.7,114 	"/>
	<polyline class="st1" points="115.4,111.2 114.3,110.9 113.9,112.1 	"/>
	<polyline class="st1" points="114.2,109.5 113,109.7 112.2,109 111.8,108.3 111.7,107.9 111.8,107.4 112.1,107.1 112.7,107.2 	"/>
	<polyline class="st1" points="110.6,109.9 110.7,109.8 110.7,108.4 112.7,104.4 112.4,103.6 113.5,103.1 112.8,101.3 112.4,101 
		111.4,99.7 111.4,99 	"/>
	<polyline class="st1" points="112.8,101.3 113.5,101.2 113.7,101.8 113.5,103.1 114.2,103.5 115.9,103.2 117.4,101.7 	"/>
	<polyline class="st1" points="115.9,103.2 116.1,104.9 117.3,105.5 115.5,106.6 115.8,107.7 	"/>
	<polygon class="st1" points="112.7,104.4 115.5,106.6 116.1,104.9 114.2,103.5 	"/>
	<polyline class="st1" points="108.5,108.8 108,106.2 108.3,102.9 109.9,102.4 110.9,102.2 113.5,103.1 	"/>
	<polyline class="st1" points="74.2,130.7 77.6,128 77.9,124.4 78.3,121.5 	"/>
	<polyline class="st1" points="93.4,125.6 90.2,126.1 89.6,127.6 87.3,128.1 82.5,128.3 82.3,130.4 83.8,133.3 81.9,135.4 
		78.9,137.2 	"/>
	<polyline class="st1" points="83.8,140.2 88.8,129.8 89.8,129.5 91.1,130 93.8,131.8 96.1,131.3 	"/>
	<polyline class="st1" points="95.1,127.6 98.1,128 98.5,129.3 98.3,130.1 102,132.3 103.5,126.3 	"/>
	<polygon class="st1" points="97.6,123.3 98.6,123.3 99.5,122.7 102.4,119.6 101.8,117.7 98.7,118.9 	"/>
	<path class="st1" d="M87.2,121.9"/>
	<polygon class="st1" points="89.8,121.2 90.2,117.1 92.4,117.2 	"/>
	<polygon class="st1" points="93.4,123.4 89.8,121.2 87.2,121.9 89.8,123.6 	"/>
	<polygon class="st1" points="112,128.1 109.1,125.9 106.4,123.6 106.3,125.8 109.1,127 	"/>
	<polyline class="st1" points="114,127.1 113,125.3 113,124.5 112.8,125.1 	"/>
	<polygon class="st1" points="117.8,124.1 118.2,122.8 118.7,121.3 115.3,121.5 	"/>
	<polyline class="st1" points="107,114.6 106.7,118.5 108.2,118.3 111.6,116.9 113,117 113.4,118 114.2,118.8 111.2,120.7 
		108.6,121 106.7,118.5 104.9,118.7 	"/>
	<polyline class="st1" points="116.6,116.1 115.5,117.6 117.7,118 118,116.7 118.5,115.6 117.3,113.5 116.8,115.8 	"/>
	<polygon class="st1" points="121.4,116 121.6,114.8 123.5,114.9 122.6,116.5 	"/>
	<polyline class="st1" points="127.6,111.6 128.2,112.5 129,114.2 127.6,115.8 128.1,118 127.4,120.4 124.2,119.9 125.4,118.3 
		126.2,117 126.6,115.1 	"/>
	<polyline class="st1" points="125.6,111.9 125.7,112.8 126.6,115.1 127.6,115.8 	"/>
	<polyline class="st1" points="128.5,117.7 129.8,119.3 133.9,120 132.4,123 136.3,124.7 	"/>
	<polyline class="st1" points="122,123.9 126.9,126.2 129.4,123.8 132,123.2 132.4,123 	"/>
	<polyline class="st1" points="123,125.8 126.9,126.2 130.4,130.7 129.7,132 129.4,133.9 127.7,136.1 126.1,137.9 	"/>
	<polyline class="st1" points="123.6,136 126.2,134.8 128.4,133.6 129.7,132 	"/>
	<polyline class="st1" points="121.6,121.5 120.2,124.7 121.2,121.4 	"/>
	<polyline class="st1" points="119.9,133.8 119.7,132 119.2,130.9 119.8,130.5 118,129.7 117.6,130.9 119.2,130.9 	"/>
	<line class="st1" x1="122.3" y1="131.9" x2="125.7" y2="131.8"/>
	<line class="st1" x1="124.7" y1="132.9" x2="124.3" y2="130.6"/>
	<polyline class="st1" points="110,135.4 113,132.8 114.3,131.1 114,130.5 112.4,132 113,132.8 	"/>
	<polyline class="st1" points="128.7,144.6 127.9,142.5 125.1,143.7 121.7,144.8 118.7,146.7 115.2,148.7 116.7,144.4 118.3,142.2 
		119.7,140.3 120.2,139.3 122.6,138.9 123.2,137.8 122.5,137.1 121.5,137 121.1,137 119.4,137.7 120.2,139.3 	"/>
	<polyline class="st1" points="119.4,137.7 115.7,136.7 113.4,138.6 110.2,141.6 107.5,143.8 105.3,145.4 102.9,146.9 100.4,148.4 	
		"/>
	<polygon class="st1" points="107.1,139 110.2,140.2 113.7,140.7 111.5,141.6 110.2,140.2 107.3,140.6 	"/>
	<polyline class="st1" points="110.8,149.3 112.2,145.9 114.7,145.2 116.7,144.4 	"/>
	<polygon class="st1" points="94.8,137 95.5,135.3 97.1,133.8 96.5,136.1 	"/>
	<polyline class="st1" points="102.2,135.6 103.5,134.1 104.9,134.4 105.6,135.8 	"/>
	<polyline class="st1" points="95.6,147.1 98,144.7 101.3,144.4 104.4,143.8 	"/>
	<polyline class="st1" points="93,139.5 95.8,141.1 97.9,140.9 99.8,140.6 101.1,141.2 101.6,139.6 99.8,140.6 96.4,140.2 93,139.5 
		90.1,138.7 	"/>
</g>
<rect x="61.5" y="58.6" class="st1" width="95" height="95"/>
<g>
	<g>
		<line class="st1" x1="62.4" y1="187.7" x2="62.4" y2="195.4"/>
		<line class="st1" x1="63.8" y1="187.7" x2="63.8" y2="195.4"/>
		<line class="st1" x1="63.8" y1="195.4" x2="66.9" y2="195.4"/>
		<line class="st1" x1="66.9" y1="191.6" x2="66.9" y2="195.4"/>
		<line class="st1" x1="63.8" y1="191.6" x2="66.9" y2="191.6"/>
	</g>
	<g>
		<line class="st1" x1="78.3" y1="195.4" x2="78.3" y2="187.7"/>
		<line class="st1" x1="78.3" y1="187.7" x2="75.2" y2="187.7"/>
		<line class="st1" x1="75.2" y1="191.6" x2="75.2" y2="187.7"/>
		<line class="st1" x1="78.3" y1="191.6" x2="75.2" y2="191.6"/>
		<line class="st1" x1="73.8" y1="195.4" x2="73.8" y2="187.7"/>
		<line class="st1" x1="73.8" y1="187.7" x2="70.6" y2="187.7"/>
		<line class="st1" x1="70.6" y1="191.6" x2="70.6" y2="187.7"/>
		<line class="st1" x1="70.6" y1="195.4" x2="70.6" y2="191.6"/>
		<line class="st1" x1="73.8" y1="195.4" x2="70.6" y2="195.4"/>
	</g>
	<g>
		<line class="st1" x1="82" y1="195.4" x2="82" y2="187.7"/>
		<line class="st1" x1="91.1" y1="195.4" x2="91.1" y2="187.7"/>
		<line class="st1" x1="91.1" y1="187.7" x2="87.9" y2="187.7"/>
		<line class="st1" x1="87.9" y1="191.6" x2="87.9" y2="187.7"/>
		<line class="st1" x1="91.1" y1="191.6" x2="87.9" y2="191.6"/>
		<line class="st1" x1="87.9" y1="195.4" x2="87.9" y2="191.6"/>
		<line class="st1" x1="91.1" y1="195.4" x2="87.9" y2="195.4"/>
		<line class="st1" x1="86.6" y1="195.4" x2="86.6" y2="187.7"/>
		<line class="st1" x1="86.6" y1="187.7" x2="83.4" y2="187.7"/>
		<line class="st1" x1="83.4" y1="191.6" x2="83.4" y2="187.7"/>
		<line class="st1" x1="86.6" y1="191.6" x2="83.4" y2="191.6"/>
		<line class="st1" x1="95.6" y1="195.4" x2="95.6" y2="187.7"/>
		<line class="st1" x1="95.6" y1="187.7" x2="92.5" y2="187.7"/>
		<line class="st1" x1="95.6" y1="191.6" x2="92.5" y2="191.6"/>
		<line class="st1" x1="95.6" y1="195.4" x2="92.5" y2="195.4"/>
	</g>
	<circle class="st1" cx="68.8" cy="195.4" r="0.2"/>
	<circle class="st1" cx="80.2" cy="195.4" r="0.2"/>
</g>
<g>
	<g>
		<line class="st1" x1="104.5" y1="195.4" x2="104.5" y2="187.7"/>
		<line class="st1" x1="102.7" y1="191.6" x2="102.7" y2="187.7"/>
		<line class="st1" x1="102.7" y1="187.7" x2="99.5" y2="187.7"/>
		<line class="st1" x1="102.7" y1="191.6" x2="99.5" y2="191.6"/>
		<line class="st1" x1="99.5" y1="195.4" x2="99.5" y2="191.6"/>
		<line class="st1" x1="102.7" y1="195.4" x2="99.5" y2="195.4"/>
		<line class="st1" x1="111.4" y1="195.4" x2="111.4" y2="187.7"/>
		<line class="st1" x1="111.4" y1="187.7" x2="108.2" y2="187.7"/>
		<line class="st1" x1="108.2" y1="191.6" x2="108.2" y2="187.7"/>
		<line class="st1" x1="108.2" y1="195.4" x2="108.2" y2="191.6"/>
		<line class="st1" x1="111.4" y1="195.4" x2="108.2" y2="195.4"/>
		<line class="st1" x1="116.4" y1="195.4" x2="116.4" y2="187.7"/>
		<line class="st1" x1="116.4" y1="187.7" x2="113.2" y2="187.7"/>
		<line class="st1" x1="113.2" y1="191.6" x2="113.2" y2="187.7"/>
		<line class="st1" x1="113.2" y1="195.4" x2="113.2" y2="191.6"/>
		<line class="st1" x1="116.4" y1="195.4" x2="113.2" y2="195.4"/>
		<circle class="st1" cx="106.4" cy="189.6" r="0.2"/>
		<circle class="st1" cx="106.4" cy="193.6" r="0.2"/>
	</g>
	<g>
		<line class="st1" x1="123.2" y1="195.4" x2="123.2" y2="187.7"/>
		<line class="st1" x1="123.2" y1="187.7" x2="120.1" y2="187.7"/>
		<line class="st1" x1="120.1" y1="191.6" x2="120.1" y2="187.7"/>
		<line class="st1" x1="123.2" y1="191.6" x2="120.1" y2="191.6"/>
		<line class="st1" x1="120.1" y1="195.4" x2="120.1" y2="191.6"/>
		<line class="st1" x1="123.2" y1="195.4" x2="120.1" y2="195.4"/>
		<line class="st1" x1="127.7" y1="191.6" x2="127.7" y2="195.4"/>
		<line class="st1" x1="127.7" y1="195.4" x2="124.6" y2="195.4"/>
		<line class="st1" x1="127.7" y1="191.6" x2="124.6" y2="191.6"/>
		<line class="st1" x1="124.6" y1="187.7" x2="124.6" y2="191.6"/>
		<line class="st1" x1="127.7" y1="187.7" x2="124.6" y2="187.7"/>
		<line class="st1" x1="133.7" y1="195.4" x2="133.7" y2="187.7"/>
		<line class="st1" x1="133.7" y1="187.7" x2="130.5" y2="187.7"/>
		<line class="st1" x1="130.5" y1="191.6" x2="130.5" y2="187.7"/>
		<line class="st1" x1="133.7" y1="191.6" x2="130.5" y2="191.6"/>
		<line class="st1" x1="130.5" y1="195.4" x2="130.5" y2="191.6"/>
		<line class="st1" x1="138.3" y1="191.6" x2="138.3" y2="195.4"/>
		<line class="st1" x1="138.3" y1="195.4" x2="135.1" y2="195.4"/>
		<line class="st1" x1="138.3" y1="191.6" x2="135.1" y2="191.6"/>
		<line class="st1" x1="135.1" y1="187.7" x2="135.1" y2="191.6"/>
		<line class="st1" x1="138.3" y1="187.7" x2="135.1" y2="187.7"/>
		<circle class="st1" cx="129.1" cy="195.4" r="0.2"/>
		<circle class="st1" cx="139.7" cy="195.4" r="0.2"/>
	</g>
</g>
<g>
	<line class="st1" x1="72.7" y1="170.1" x2="72.7" y2="162.3"/>
</g>
<g>
	<line class="st1" x1="83" y1="162.3" x2="83" y2="170.1"/>
	<line class="st1" x1="83" y1="170.1" x2="86.1" y2="170.1"/>
	<line class="st1" x1="83" y1="166.2" x2="86.1" y2="166.2"/>
	<line class="st1" x1="83" y1="162.3" x2="86.1" y2="162.3"/>
</g>
<g>
	<line class="st1" x1="65.5" y1="170.1" x2="65.5" y2="162.3"/>
	<line class="st1" x1="65.5" y1="162.3" x2="62.4" y2="162.3"/>
	<line class="st1" x1="62.4" y1="166.2" x2="62.4" y2="162.3"/>
	<line class="st1" x1="65.5" y1="166.2" x2="62.4" y2="166.2"/>
	<line class="st1" x1="62.4" y1="170.1" x2="62.4" y2="166.2"/>
</g>
<g>
	<line class="st1" x1="70.7" y1="170.1" x2="70.7" y2="166.2"/>
	<line class="st1" x1="67.5" y1="166.2" x2="67.5" y2="162.3"/>
	<g>
		<line class="st1" x1="70.7" y1="162.3" x2="67.5" y2="162.3"/>
		<line class="st1" x1="70.7" y1="166.2" x2="67.5" y2="166.2"/>
		<line class="st1" x1="70.7" y1="170.1" x2="67.5" y2="170.1"/>
	</g>
</g>
<g>
	<line class="st1" x1="80.8" y1="170.1" x2="77.7" y2="170.1"/>
	<line class="st1" x1="81" y1="170.1" x2="81" y2="166.2"/>
	<line class="st1" x1="81" y1="162.3" x2="77.8" y2="162.3"/>
	<line class="st1" x1="77.8" y1="166.2" x2="77.8" y2="162.3"/>
	<line class="st1" x1="81" y1="166.2" x2="77.8" y2="166.2"/>
</g>
<g>
	<line class="st1" x1="62.4" y1="178.8" x2="62.4" y2="175"/>
	<line class="st1" x1="62.4" y1="182.7" x2="62.4" y2="178.8"/>
	<line class="st1" x1="65.5" y1="182.7" x2="62.4" y2="182.7"/>
	<line class="st1" x1="65.5" y1="182.7" x2="65.5" y2="178.8"/>
	<line class="st1" x1="65.5" y1="178.9" x2="65.5" y2="175.1"/>
</g>
<g>
	<line class="st1" x1="70.7" y1="175" x2="67.5" y2="175"/>
	<line class="st1" x1="67.5" y1="178.8" x2="67.5" y2="175"/>
	<line class="st1" x1="70.7" y1="178.8" x2="67.5" y2="178.8"/>
	<line class="st1" x1="67.5" y1="182.7" x2="67.5" y2="178.8"/>
	<line class="st1" x1="70.7" y1="182.7" x2="67.5" y2="182.7"/>
</g>
<g>
	<line class="st1" x1="72.7" y1="182.7" x2="72.7" y2="178.8"/>
	<line class="st1" x1="72.7" y1="178.9" x2="72.7" y2="175.1"/>
</g>
<g>
	<line class="st1" x1="85.8" y1="175" x2="82.7" y2="175"/>
	<line class="st1" x1="82.7" y1="178.8" x2="82.7" y2="175"/>
	<line class="st1" x1="85.8" y1="178.8" x2="82.7" y2="178.8"/>
	<line class="st1" x1="82.7" y1="182.7" x2="82.7" y2="178.8"/>
	<line class="st1" x1="85.8" y1="182.7" x2="82.7" y2="182.7"/>
</g>
<g>
	<line class="st1" x1="77.7" y1="175" x2="74.5" y2="175"/>
	<line class="st1" x1="74.5" y1="178.8" x2="74.5" y2="175"/>
	<line class="st1" x1="77.7" y1="178.8" x2="74.5" y2="178.8"/>
	<line class="st1" x1="74.5" y1="182.7" x2="74.5" y2="178.8"/>
	<line class="st1" x1="77.7" y1="182.7" x2="77.7" y2="178.8"/>
	<line class="st1" x1="77.7" y1="178.9" x2="77.7" y2="175.1"/>
</g>
<g>
	<line class="st1" x1="87.8" y1="178.8" x2="87.8" y2="175"/>
	<line class="st1" x1="87.8" y1="182.7" x2="87.8" y2="178.8"/>
	<line class="st1" x1="91" y1="182.7" x2="87.8" y2="182.7"/>
</g>
<g>
	<line class="st1" x1="99.2" y1="175" x2="96" y2="175"/>
	<line class="st1" x1="96" y1="178.8" x2="96" y2="175"/>
	<line class="st1" x1="96" y1="182.7" x2="96" y2="178.8"/>
	<line class="st1" x1="99.2" y1="182.7" x2="96" y2="182.7"/>
</g>
<g>
	<line class="st1" x1="101.2" y1="178.8" x2="101.2" y2="175"/>
	<line class="st1" x1="101.2" y1="182.7" x2="101.2" y2="178.8"/>
</g>
<g>
	<line class="st1" x1="106.3" y1="175" x2="103.2" y2="175"/>
	<line class="st1" x1="103.2" y1="178.8" x2="103.2" y2="175"/>
	<line class="st1" x1="106.3" y1="178.8" x2="103.2" y2="178.8"/>
	<line class="st1" x1="103.2" y1="182.7" x2="103.2" y2="178.8"/>
	<line class="st1" x1="106.3" y1="182.7" x2="103.2" y2="182.7"/>
</g>
<g>
	<line class="st1" x1="108.3" y1="178.8" x2="108.3" y2="175"/>
	<line class="st1" x1="108.3" y1="182.7" x2="108.3" y2="178.8"/>
	<line class="st1" x1="111.5" y1="182.7" x2="108.3" y2="182.7"/>
</g>
<g>
	<line class="st1" x1="116.6" y1="175" x2="113.5" y2="175"/>
	<line class="st1" x1="113.5" y1="178.8" x2="113.5" y2="175"/>
	<line class="st1" x1="113.5" y1="182.7" x2="113.5" y2="178.8"/>
	<line class="st1" x1="116.6" y1="182.7" x2="113.5" y2="182.7"/>
	<line class="st1" x1="116.6" y1="182.7" x2="116.6" y2="178.8"/>
	<line class="st1" x1="116.6" y1="178.9" x2="116.6" y2="175.1"/>
</g>
</svg>
