<?xml version="1.0" encoding="utf-8"?>
<!-- Generator: Adobe Illustrator 22.0.0, SVG Export Plug-In . SVG Version: 6.00 Build 0)  -->
<svg version="1.0" id="Layer_1" xmlns="http://www.w3.org/2000/svg" xmlns:xlink="http://www.w3.org/1999/xlink" x="0px" y="0px"
	 viewBox="0 0 595.3 652" style="enable-background:new 0 0 595.3 652;" xml:space="preserve">
<style type="text/css">
	.st0{fill:#181818;}
	.st1{fill:none;stroke:#EB3593;stroke-miterlimit:10;}
</style>
<g>
	<path class="st0" d="M537.9,187.3L153,555.1L27,482.3L537.9,187.3 M571.4,162.2l-36,20.8L24.5,478l-7.5,4.3l7.5,4.3l126.1,72.8
		l3.2,1.9l2.7-2.6l384.8-367.8L571.4,162.2L571.4,162.2z"/>
</g>
<g>
	<path class="st0" d="M535.9,179.3L23,475.4l0-156L535.9,179.3 M571.9,164.3l-37.3,10.2L21.7,314.6l-3.7,1l0,3.8l0,156l0,8.7
		l7.5-4.3l512.9-296.1L571.9,164.3L571.9,164.3z"/>
</g>
<g>
	<path class="st0" d="M547.2,189.4L290.3,634.3l-130.1-75.1L547.2,189.4 M569,161.6l-25.2,24.1l-387,369.9l-4.8,4.6l5.8,3.3
		l130.1,75.1l4.3,2.5l2.5-4.3l256.9-444.9L569,161.6L569,161.6z"/>
</g>
<g>
	<path class="st0" d="M560.5,182.2V480L302.6,628.9L560.5,182.2 M565.5,163.5l-9.3,16.2L298.2,626.4l-9.3,16.2l16.2-9.3L563,484.3
		l2.5-1.4V480V182.2V163.5L565.5,163.5z"/>
</g>
<g>
	<path class="st0" d="M291.7,14.5l257.9,149H33.8L291.7,14.5 M291.7,8.7l-2.5,1.4l-257.9,149l-16.2,9.3h18.7h515.8h18.7l-16.2-9.3
		l-257.9-149L291.7,8.7L291.7,8.7z"/>
</g>
<g>
	<path class="st0" d="M534.9,171.4L23,311.2V171.4H534.9 M572.2,166.4h-37.3H23h-5v5v139.9v6.5l6.3-1.7l511.9-139.9L572.2,166.4
		L572.2,166.4z"/>
</g>
<g>
	<polyline class="st1" points="0.7,16.2 0.7,0 16.8,0 	"/>
	<polyline class="st1" points="569.1,642 585.3,642 585.3,625.8 	"/>
</g>
</svg>
