<?xml version="1.0" encoding="utf-8"?>
<!-- Generator: Adobe Illustrator 22.0.0, SVG Export Plug-In . SVG Version: 6.00 Build 0)  -->
<svg version="1.0" id="Layer_1" xmlns="http://www.w3.org/2000/svg" xmlns:xlink="http://www.w3.org/1999/xlink" x="0px" y="0px"
	 viewBox="0 0 595.3 652" style="enable-background:new 0 0 595.3 652;" xml:space="preserve">
<style type="text/css">
	.st0{fill:none;stroke:#19B3E8;stroke-width:3;stroke-miterlimit:10;}
	.st1{fill:#19B3E8;}
	.st2{fill:none;stroke:#EB3593;stroke-miterlimit:10;}
</style>
<line class="st0" x1="55.8" y1="571.2" x2="63.2" y2="567"/>
<line class="st0" x1="68.4" y1="564" x2="75.5" y2="559.9"/>
<line class="st0" x1="54.8" y1="569.5" x2="62.2" y2="565.2"/>
<line class="st0" x1="67.4" y1="562.3" x2="74.5" y2="558.1"/>
<line class="st0" x1="56.8" y1="572.9" x2="64.2" y2="568.7"/>
<line class="st0" x1="69.4" y1="565.7" x2="76.5" y2="561.6"/>
<line class="st0" x1="71.3" y1="575.4" x2="67.1" y2="568"/>
<line class="st0" x1="64.1" y1="562.8" x2="60" y2="555.7"/>
<line class="st0" x1="69.6" y1="576.4" x2="65.4" y2="569"/>
<line class="st0" x1="62.4" y1="563.8" x2="58.3" y2="556.7"/>
<line class="st0" x1="73.1" y1="574.4" x2="68.8" y2="567"/>
<line class="st0" x1="65.8" y1="561.8" x2="61.7" y2="554.7"/>
<path class="st1" d="M36.2,324.8c0.1-0.5-0.2-1.1-0.8-1.2c-0.5-0.1-1.1,0.2-1.2,0.8s0.2,1.1,0.8,1.2
	C35.5,325.7,36.1,325.3,36.2,324.8z"/>
<circle class="st1" cx="139.7" cy="553.3" r="1"/>
<circle class="st1" cx="127" cy="536.1" r="1.3"/>
<circle class="st1" cx="288" cy="638.6" r="1.3"/>
<circle class="st1" cx="285.4" cy="601.5" r="1.1"/>
<circle class="st1" cx="272.8" cy="569.6" r="1"/>
<circle class="st1" cx="313.4" cy="441" r="1.2"/>
<circle class="st1" cx="325.2" cy="445.1" r="1.2"/>
<circle class="st1" cx="412.1" cy="495.3" r="1.1"/>
<circle class="st1" cx="359.3" cy="436.3" r="1.1"/>
<circle class="st1" cx="365.2" cy="414.6" r="1"/>
<circle class="st1" cx="482" cy="413.7" r="1"/>
<circle class="st1" cx="487.4" cy="431.1" r="1.1"/>
<circle class="st1" cx="465" cy="427.2" r="1.3"/>
<circle class="st1" cx="391.6" cy="365.6" r="1.3"/>
<circle class="st1" cx="370.6" cy="368.4" r="1.4"/>
<circle class="st1" cx="369.9" cy="317.1" r="1.4"/>
<circle class="st1" cx="396.3" cy="297.8" r="1.2"/>
<circle class="st1" cx="236.8" cy="397.4" r="1"/>
<circle class="st1" cx="245.1" cy="383.6" r="1.2"/>
<circle class="st1" cx="296.5" cy="405.2" r="1.8"/>
<circle class="st1" cx="299.6" cy="388.8" r="0.7"/>
<circle class="st1" cx="301.4" cy="388.1" r="0.9"/>
<circle class="st1" cx="225.1" cy="321.3" r="1.1"/>
<circle class="st1" cx="248.5" cy="323.6" r="1"/>
<circle class="st1" cx="262.9" cy="307.3" r="1.1"/>
<circle class="st1" cx="297.5" cy="329.7" r="0.9"/>
<circle class="st1" cx="237.3" cy="259.7" r="1.2"/>
<circle class="st1" cx="256.3" cy="240.7" r="0.9"/>
<circle class="st1" cx="174.7" cy="438.8" r="1.2"/>
<circle class="st1" cx="397.9" cy="191.6" r="1.1"/>
<circle class="st1" cx="327.5" cy="228.6" r="1.3"/>
<circle class="st1" cx="340.8" cy="111.7" r="1.4"/>
<circle class="st1" cx="377.1" cy="86.2" r="1.3"/>
<circle class="st1" cx="323.3" cy="75.8" r="1.2"/>
<circle class="st1" cx="230.9" cy="98.4" r="1.2"/>
<circle class="st1" cx="242.8" cy="101" r="1.3"/>
<circle class="st1" cx="139.9" cy="206.2" r="1.4"/>
<circle class="st1" cx="523.4" cy="486.1" r="1"/>
<circle class="st1" cx="536.1" cy="380.4" r="1"/>
<circle class="st1" cx="556.5" cy="372.6" r="1.1"/>
<circle class="st1" cx="562.7" cy="247.9" r="1"/>
<circle class="st1" cx="363.4" cy="225.9" r="1"/>
<circle class="st1" cx="271.1" cy="256.8" r="0.8"/>
<path class="st1" d="M463,175.8c0,0.5,0.4,1,1,1c0.5,0,1-0.4,1-1s-0.4-1-1-1C463.5,174.8,463,175.3,463,175.8z"/>
<path class="st1" d="M552.6,177.1c0,0.7,0.5,1.2,1.2,1.2s1.2-0.5,1.2-1.2c0-0.7-0.5-1.2-1.2-1.2S552.6,176.4,552.6,177.1z"/>
<circle class="st1" cx="566.4" cy="174.6" r="1.1"/>
<circle class="st1" cx="558.8" cy="161.2" r="1"/>
<circle class="st1" cx="171.6" cy="144.5" r="1"/>
<g>
	<polyline class="st2" points="0.7,16.2 0.7,0 16.8,0 	"/>
	<polyline class="st2" points="569.1,642 585.3,642 585.3,625.8 	"/>
</g>
</svg>
