<?xml version="1.0" encoding="utf-8"?>
<!-- Generator: Adobe Illustrator 22.0.0, SVG Export Plug-In . SVG Version: 6.00 Build 0)  -->
<svg version="1.0" id="Layer_1" xmlns="http://www.w3.org/2000/svg" xmlns:xlink="http://www.w3.org/1999/xlink" x="0px" y="0px"
	 viewBox="0 0 595.3 652" style="enable-background:new 0 0 595.3 652;" xml:space="preserve">
<style type="text/css">
	.st0{fill:#FFFFFF;}
	.st1{fill:none;stroke:#EB3593;stroke-miterlimit:10;}
</style>
<circle class="st0" cx="260.1" cy="657.7" r="1.3"/>
<circle class="st0" cx="283" cy="628.8" r="1.9"/>
<circle class="st0" cx="222.4" cy="503.9" r="1.7"/>
<circle class="st0" cx="132.1" cy="473" r="3.3"/>
<circle class="st0" cx="116.1" cy="422.7" r="3.8"/>
<circle class="st0" cx="295.3" cy="459.4" r="1.9"/>
<circle class="st0" cx="423.9" cy="391.3" r="2.2"/>
<circle class="st0" cx="328.2" cy="354.5" r="2"/>
<circle class="st0" cx="305.1" cy="307.1" r="1.8"/>
<circle class="st0" cx="264.8" cy="367.3" r="1.8"/>
<path class="st0" d="M192.1,338.9c0.1-0.7-0.3-1.3-0.9-1.5c-0.7-0.1-1.3,0.3-1.5,0.9c-0.1,0.7,0.3,1.3,0.9,1.5
	C191.3,339.9,192,339.5,192.1,338.9z"/>
<circle class="st0" cx="295.1" cy="314" r="1.8"/>
<circle class="st0" cx="272.5" cy="236.3" r="1.7"/>
<circle class="st0" cx="294.3" cy="256.9" r="1.5"/>
<circle class="st0" cx="334.9" cy="227.2" r="1.4"/>
<circle class="st0" cx="544.9" cy="337.3" r="1.3"/>
<circle class="st0" cx="68.8" cy="431.7" r="1.6"/>
<circle class="st0" cx="467.2" cy="183.7" r="1.5"/>
<circle class="st0" cx="367" cy="148.6" r="1.4"/>
<circle class="st0" cx="383.8" cy="138.7" r="1.4"/>
<circle class="st0" cx="361.3" cy="83.3" r="1.8"/>
<circle class="st0" cx="45.3" cy="260.1" r="1.5"/>
<circle class="st0" cx="58.7" cy="229.1" r="1.5"/>
<circle class="st0" cx="77.2" cy="207.1" r="1.4"/>
<circle class="st0" cx="59" cy="150" r="1.8"/>
<circle class="st0" cx="33.1" cy="200.9" r="1.6"/>
<circle class="st0" cx="27.4" cy="207.7" r="1.5"/>
<circle class="st0" cx="323.4" cy="42.3" r="1.7"/>
<circle class="st0" cx="302.2" cy="36.8" r="3.1"/>
<circle class="st0" cx="278.3" cy="42.2" r="1.9"/>
<circle class="st0" cx="214.4" cy="72.2" r="2.2"/>
<circle class="st0" cx="187.9" cy="99.8" r="2"/>
<circle class="st0" cx="124.9" cy="163.3" r="1.8"/>
<circle class="st0" cx="49" cy="448.5" r="1.4"/>
<circle class="st0" cx="77.3" cy="411.1" r="1.9"/>
<circle class="st0" cx="106.7" cy="407.4" r="1.3"/>
<circle class="st0" cx="157.1" cy="421" r="1.1"/>
<circle class="st0" cx="398" cy="576.7" r="1.3"/>
<circle class="st0" cx="295.6" cy="499.6" r="1.6"/>
<circle class="st0" cx="490.5" cy="453.5" r="1.4"/>
<circle class="st0" cx="402.2" cy="411.8" r="1.2"/>
<circle class="st0" cx="271.3" cy="355.4" r="1.3"/>
<circle class="st0" cx="414" cy="284" r="1.4"/>
<circle class="st0" cx="472.8" cy="270.4" r="1.9"/>
<circle class="st0" cx="375.5" cy="218.8" r="1.4"/>
<circle class="st0" cx="507.4" cy="187.6" r="1.7"/>
<circle class="st0" cx="176.5" cy="260.1" r="1.3"/>
<circle class="st0" cx="122.5" cy="174.6" r="1.3"/>
<circle class="st0" cx="168.3" cy="130.7" r="1.8"/>
<g>
	<polyline class="st1" points="0.7,16.2 0.7,0 16.8,0 	"/>
	<polyline class="st1" points="569.1,642 585.3,642 585.3,625.8 	"/>
</g>
</svg>
