<?xml version="1.0" encoding="utf-8"?>
<!-- Generator: Adobe Illustrator 22.0.0, SVG Export Plug-In . SVG Version: 6.00 Build 0)  -->
<svg version="1.0" id="Layer_1" xmlns="http://www.w3.org/2000/svg" xmlns:xlink="http://www.w3.org/1999/xlink" x="0px" y="0px"
	 viewBox="0 0 595.3 652" style="enable-background:new 0 0 595.3 652;" xml:space="preserve">
<style type="text/css">
	.st0{fill:#FFFFFF;}
	.st1{fill:none;stroke:#EB3593;stroke-miterlimit:10;}
</style>
<circle class="st0" cx="360.2" cy="458.1" r="1.2"/>
<circle class="st0" cx="370.5" cy="455.7" r="1.4"/>
<circle class="st0" cx="456" cy="516.6" r="1.4"/>
<circle class="st0" cx="227.7" cy="305.7" r="1"/>
<circle class="st0" cx="254.3" cy="279.8" r="1.2"/>
<circle class="st0" cx="315" cy="156" r="1.5"/>
<circle class="st0" cx="262.6" cy="176.1" r="1.2"/>
<circle class="st0" cx="265.8" cy="154" r="1.2"/>
<circle class="st0" cx="143.8" cy="231.2" r="1.4"/>
<circle class="st0" cx="155.5" cy="203.5" r="1.1"/>
<circle class="st0" cx="463.3" cy="234.7" r="1"/>
<circle class="st0" cx="119.3" cy="364" r="1.1"/>
<circle class="st0" cx="110.4" cy="358.8" r="1"/>
<circle class="st0" cx="33" cy="377.3" r="1.2"/>
<circle class="st0" cx="50.9" cy="343.4" r="1.5"/>
<circle class="st0" cx="155.8" cy="130.3" r="1.4"/>
<circle class="st0" cx="124.9" cy="116.9" r="1.6"/>
<circle class="st0" cx="65.4" cy="487.9" r="1.1"/>
<circle class="st0" cx="301.3" cy="611.7" r="1.4"/>
<circle class="st0" cx="354.3" cy="491.5" r="1.1"/>
<circle class="st0" cx="548.9" cy="468.5" r="1.4"/>
<circle class="st0" cx="521.5" cy="474" r="1.3"/>
<circle class="st0" cx="446.8" cy="430.8" r="0.8"/>
<circle class="st0" cx="249.4" cy="320.7" r="1.3"/>
<ellipse transform="matrix(0.9871 -0.1602 0.1602 0.9871 -14.9126 52.7519)" class="st0" cx="319.7" cy="118.9" rx="1.2" ry="1.2"/>
<circle class="st0" cx="521.8" cy="170.2" r="1"/>
<circle class="st0" cx="116.2" cy="306.6" r="1"/>
<circle class="st0" cx="144.4" cy="289.2" r="0.9"/>
<circle class="st0" cx="143.5" cy="249.8" r="1.3"/>
<circle class="st0" cx="195.8" cy="113.3" r="1.1"/>
<circle class="st0" cx="308.2" cy="36.1" r="1.4"/>
<circle class="st0" cx="293.9" cy="43" r="1.6"/>
<g>
	<polyline class="st1" points="0.7,16.2 0.7,0 16.8,0 	"/>
	<polyline class="st1" points="569.1,642 585.3,642 585.3,625.8 	"/>
</g>
</svg>
