<?xml version="1.0" encoding="utf-8"?>
<!-- Generator: Adobe Illustrator 22.0.0, SVG Export Plug-In . SVG Version: 6.00 Build 0)  -->
<svg version="1.0" id="Layer_1" xmlns="http://www.w3.org/2000/svg" xmlns:xlink="http://www.w3.org/1999/xlink" x="0px" y="0px"
	 viewBox="0 0 680.3 311.8" style="enable-background:new 0 0 680.3 311.8;" xml:space="preserve">
<style type="text/css">
	.st0{fill:none;stroke:#181818;stroke-width:5;stroke-miterlimit:10;}
	.st1{fill:#181818;}
	.st2{fill:none;stroke:#EB3593;stroke-miterlimit:10;}
</style>
<polyline class="st0" points="281.9,152.3 539.9,301.2 24,301.2 281.9,152.3 "/>
<g>
	<path class="st1" d="M663.3,14.9v133.9l-30.9,34.1L506.3,110L663.3,14.9 M668.3,6l-7.6,4.6l-157,95.2l-7.2,4.4l7.3,4.2l126.1,72.8
		l3.5,2l2.7-3l30.9-34.1l1.3-1.4v-1.9V14.9V6L668.3,6z"/>
</g>
<g>
	<path class="st1" d="M502.3,114.9l126.1,72.8l-18.3,78.2H502.3L502.3,114.9 M497.3,106.2l0,8.7l0,151l0,5h5h107.8h4l0.9-3.9
		l18.3-78.2l0.8-3.6l-3.2-1.9l-126.1-72.8L497.3,106.2L497.3,106.2z"/>
</g>
<g>
	<path class="st1" d="M635.5,191.8l27.7,18v56.1h-45.5L635.5,191.8 M632.3,183.8l-1.7,6.9l-17.8,74.1l-1.5,6.2h6.3h45.5h5v-5v-56.1
		v-2.7l-2.3-1.5l-27.7-18L632.3,183.8L632.3,183.8z"/>
</g>
<g>
	<path class="st1" d="M184,63.1V169L23,265.2l0-156L184,63.1 M189,56.4l-6.4,1.8l-161,46.1l-3.6,1l0,3.8l0,156l0,8.8l7.6-4.5
		l161-96.2l2.4-1.5V169V63.1V56.4L189,56.4z"/>
</g>
<g>
	<path class="st1" d="M394,11.1v97.3l-161,42.5V11.1H394 M399,6.1h-5h-161h-5v5V151v6.5l6.3-1.7l161-42.5l3.7-1v-3.9V11.1V6.1
		L399,6.1z"/>
</g>
<g>
	<polyline class="st2" points="0.7,16.2 0.7,0 16.9,0 	"/>
	<polyline class="st2" points="665.1,312 681.3,312 681.3,295.8 	"/>
</g>
</svg>
