<?xml version="1.0" encoding="utf-8"?>
<!-- Generator: Adobe Illustrator 22.0.0, SVG Export Plug-In . SVG Version: 6.00 Build 0)  -->
<svg version="1.0" id="Layer_1" xmlns="http://www.w3.org/2000/svg" xmlns:xlink="http://www.w3.org/1999/xlink" x="0px" y="0px"
	 viewBox="0 0 680.3 311.8" style="enable-background:new 0 0 680.3 311.8;" xml:space="preserve">
<style type="text/css">
	.st0{fill:none;stroke:#CCCCCC;stroke-linecap:round;}
	.st1{fill:none;stroke:#EB3593;stroke-miterlimit:10;}
</style>
<path class="st0" d="M476.5,275.6c-1.2,0.6-2.5,1.2-3.7,1.7"/>
<path class="st0" d="M464.9,285.6c-1.9,0.8-3.7,1.6-5.6,2.3"/>
<path class="st0" d="M464.1,263.1c-0.6,0.3-1.2,0.5-1.8,0.8"/>
<path class="st0" d="M410.5,284.5c-1.3,0.5-2.5,0.9-3.8,1.4"/>
<path class="st0" d="M412.3,261.4c-1.8,0.7-3.7,1.4-5.5,2.1"/>
<path class="st0" d="M332.6,288.3c-1.2,0.4-2.5,0.7-3.7,1.1"/>
<path class="st0" d="M357.9,258.4c-1.2,0.4-2.4,0.8-3.7,1.2"/>
<path class="st0" d="M343.2,263.1c-0.6,0.2-1.2,0.4-1.8,0.6"/>
<path class="st0" d="M254.3,286.9c-1.3,0.3-2.5,0.6-3.8,0.8"/>
<path class="st0" d="M286.3,257.6c-0.6,0.2-1.2,0.3-1.8,0.5"/>
<path class="st0" d="M280.8,259c-1.8,0.5-3.6,0.9-5.5,1.4"/>
<path class="st0" d="M266.2,262.6c-1.2,0.3-2.4,0.6-3.6,0.9"/>
<path class="st0" d="M145.8,284.4c-0.6,0.1-1.3,0.2-1.9,0.2"/>
<path class="st0" d="M365.7,211.4c-1.7,0.6-3.5,1.2-5.2,1.8"/>
<path class="st0" d="M291.7,234.4c-1.8,0.5-3.6,1-5.4,1.4"/>
<path class="st0" d="M176.2,259c-1.8,0.3-3.6,0.6-5.5,0.8"/>
<path class="st0" d="M159.7,261.4c-1.8,0.3-3.6,0.5-5.5,0.7"/>
<path class="st0" d="M150.6,262.6c-1.8,0.2-3.7,0.5-5.5,0.7"/>
<path class="st0" d="M286.2,214.2c-1.7,0.5-3.5,0.9-5.2,1.4"/>
<path class="st0" d="M233.5,227.1c-1.8,0.4-3.5,0.8-5.3,1.1"/>
<path class="st0" d="M208.7,232.1c-0.6,0.1-1.2,0.2-1.8,0.3"/>
<path class="st0" d="M187.3,235.9c-1.8,0.3-3.6,0.6-5.4,0.9"/>
<path class="st0" d="M311.4,185.1c-1.1,0.3-2.3,0.7-3.4,1"/>
<path class="st0" d="M302.9,187.6c-2.3,0.7-4.5,1.3-6.8,2"/>
<path class="st0" d="M206.4,211.2c-1.2,0.2-2.3,0.4-3.5,0.7"/>
<path class="st0" d="M182,215.5c-1.2,0.2-2.3,0.4-3.5,0.6"/>
<path class="st0" d="M229.7,184.9c-0.6,0.1-1.1,0.3-1.7,0.4"/>
<path class="st0" d="M647.6,217.3c-1.8,1.7-3.6,3.4-5.5,5"/>
<path class="st0" d="M652.9,183.6c-1.2,1.1-2.3,2.2-3.5,3.4"/>
<path class="st0" d="M574.3,226.1c-0.6,0.5-1.2,1-1.8,1.6"/>
<path class="st0" d="M575,197.8c-1.8,1.6-3.6,3.1-5.4,4.6"/>
<path class="st0" d="M546.2,222.2c-1.2,1-2.4,2-3.7,3"/>
<path class="st0" d="M627.5,120.3c-1.1,1.1-2.2,2.2-3.3,3.3"/>
<path class="st0" d="M600.9,146.1c-1.1,1.1-2.3,2.1-3.4,3.2"/>
<path class="st0" d="M595.8,150.9c-1.1,1.1-2.3,2.1-3.4,3.2"/>
<path class="st0" d="M573.5,171.2c-3.5,3.1-7,6.2-10.5,9.2"/>
<path class="st0" d="M646.1,70.9c-1,1.1-2.1,2.2-3.1,3.3"/>
<path class="st0" d="M611.1,107c-1.6,1.6-3.2,3.2-4.9,4.8"/>
<path class="st0" d="M599.7,118.2c-1.6,1.6-3.3,3.2-4.9,4.7"/>
<path class="st0" d="M571.4,144.8c-0.6,0.5-1.1,1-1.7,1.6"/>
<path class="st0" d="M500,205.5c-0.6,0.5-1.2,1-1.8,1.4"/>
<path class="st0" d="M657.9,26.6c-0.5,0.6-1,1.1-1.5,1.7"/>
<path class="st0" d="M647.4,38.3c-3.5,3.9-7,7.8-10.6,11.6"/>
<path class="st0" d="M610.6,77.7c-2.6,2.7-5.2,5.3-7.9,8"/>
<path class="st0" d="M570.4,117.1c-0.5,0.5-1.1,1-1.6,1.5"/>
<path class="st0" d="M501,177.8c-1.2,0.9-2.3,1.9-3.5,2.8"/>
<path class="st0" d="M607.8,50.3c-0.5,0.5-1,1.1-1.5,1.6"/>
<path class="st0" d="M583.1,75.7c-5.2,5.2-10.5,10.4-15.8,15.5"/>
<path class="st0" d="M543.1,113.8c-1.6,1.5-3.3,3-4.9,4.5"/>
<path class="st0" d="M533.2,122.7c-0.6,0.5-1.1,1-1.7,1.5"/>
<path class="st0" d="M501.4,150.2c-1.7,1.4-3.4,2.8-5.1,4.2"/>
<path class="st0" d="M188.6,144.4c-1.4,1.7-2.8,3.4-4.2,5.1"/>
<path class="st0" d="M178.7,156.3c-6.7,7.9-13.4,15.7-20.2,23.4"/>
<path class="st0" d="M152.6,186.3c-1.5,1.6-3,3.3-4.4,4.9"/>
<path class="st0" d="M179.2,122.6c-1.8,2.3-3.7,4.5-5.5,6.8"/>
<path class="st0" d="M171,132.7c-2.3,2.8-4.6,5.6-7,8.4"/>
<path class="st0" d="M162.6,142.7c-1.4,1.7-2.8,3.3-4.2,5"/>
<path class="st0" d="M152.7,154.3c-2.8,3.3-5.7,6.6-8.6,9.8"/>
<path class="st0" d="M142.7,165.8c-7.2,8.1-14.5,16.2-21.9,24.1"/>
<path class="st0" d="M110.3,201c-5,5.2-10.1,10.4-15.2,15.6"/>
<path class="st0" d="M181.4,85.9c-6.2,8-8.5,11-2.6,3.4"/>
<path class="st0" d="M177.5,91c-5.7,7.3-11.4,14.6-17.3,21.8"/>
<path class="st0" d="M153.4,121c-0.5,0.6-0.9,1.1-1.4,1.7"/>
<path class="st0" d="M143.8,132.5c-2.3,2.7-4.6,5.4-6.9,8.1"/>
<path class="st0" d="M134.1,143.9c-0.5,0.5-0.9,1.1-1.4,1.6"/>
<path class="st0" d="M127,151.9c-1.9,2.1-3.8,4.3-5.7,6.4"/>
<path class="st0" d="M119.9,159.9c-1.4,1.6-2.9,3.2-4.3,4.8"/>
<path class="st0" d="M111.3,169.4c-6.8,7.3-13.6,14.6-20.5,21.8"/>
<path class="st0" d="M86.3,195.8c-2.5,2.6-5,5.1-7.5,7.6"/>
<path class="st0" d="M58.9,222.9c-1.5,1.5-3.1,3-4.6,4.4"/>
<path class="st0" d="M27.6,252c-0.5,0.5-1.1,0.9-1.6,1.4"/>
<path class="st0" d="M405.8,80.9c-6.8,9.7-13.8,19.3-20.9,28.9"/>
<path class="st0" d="M167.3,69.8c-7,9.2-5.1,6.6-9,11.6"/>
<path class="st0" d="M154.4,86.4c-0.4,0.5-0.9,1.1-1.3,1.6"/>
<path class="st0" d="M150.5,91.3c-5.7,7.1-11.4,14.2-17.3,21.2"/>
<path class="st0" d="M131.9,114.1c-0.9,1.1-1.8,2.1-2.7,3.2"/>
<path class="st0" d="M126.4,120.5c-1.8,2.1-3.6,4.3-5.5,6.4"/>
<path class="st0" d="M115.5,133.3c-1.4,1.6-2.8,3.2-4.2,4.7"/>
<path class="st0" d="M107.1,142.7c-0.5,0.5-0.9,1-1.4,1.6"/>
<path class="st0" d="M100.1,150.5c-3.3,3.6-6.6,7.2-10,10.8"/>
<path class="st0" d="M87.2,164.4c-1,1-1.9,2-2.9,3.1"/>
<path class="st0" d="M82.9,169c-1,1-1.9,2-2.9,3"/>
<path class="st0" d="M72.7,179.6c-2.9,3-5.9,6-8.8,9"/>
<path class="st0" d="M26.4,236c-1,1-2,2-3,3"/>
<path class="st0" d="M51.9,200.4c-1.5,1.5-3,2.9-4.5,4.4"/>
<path class="st0" d="M45.9,206.3c-1,1-2,1.9-3,2.9"/>
<path class="st0" d="M111.7,121.6c-0.5,0.5-0.9,1-1.4,1.6"/>
<path class="st0" d="M406,43.2c-4.2,6.3-8.4,12.5-12.6,18.7"/>
<path class="st0" d="M389.8,67c-11.4,16.4-23.3,32.5-35.5,48.3"/>
<path class="st0" d="M132.8,79.8c-0.4,0.5-0.9,1.1-1.3,1.6"/>
<path class="st0" d="M127.6,86.3c-0.4,0.5-0.9,1.1-1.3,1.6"/>
<path class="st0" d="M123.7,91.1c-5.7,6.9-11.4,13.8-17.3,20.6"/>
<path class="st0" d="M101,117.9c-1.8,2.1-3.6,4.1-5.5,6.2"/>
<path class="st0" d="M92.8,127.2c-0.9,1-1.8,2.1-2.8,3.1"/>
<path class="st0" d="M87.3,133.3c-1.4,1.5-2.8,3.1-4.2,4.6"/>
<path class="st0" d="M74.7,147c-0.5,0.5-0.9,1-1.4,1.5"/>
<path class="st0" d="M59.1,163.5c-3.8,4-7.7,7.9-11.6,11.8"/>
<path class="st0" d="M43.1,179.7c-2,1.9-3.9,3.9-5.9,5.8"/>
<path class="st0" d="M399.6,14.5c-10.2,16-20.7,31.7-31.7,47.2"/>
<path class="st0" d="M363.2,68.2c-4.7,6.6-9.5,13.1-14.4,19.6"/>
<path class="st0" d="M347.6,89.5c-4.9,6.5-9.8,12.9-14.9,19.3"/>
<path class="st0" d="M331.5,110.4c-1.7,2.1-3.4,4.2-5.1,6.4"/>
<path class="st0" d="M323.9,119.9c-0.8,1.1-1.7,2.1-2.6,3.2"/>
<path class="st0" d="M316.2,129.3c-0.4,0.5-0.9,1.1-1.3,1.6"/>
<path class="st0" d="M97.1,90.2c-9.3,11.1-4.5,5.5-17.2,19.9"/>
<path class="st0" d="M73.1,117.7c-1.4,1.5-2.7,3-4.1,4.5"/>
<path class="st0" d="M59.4,132.7c-3.2,3.5-6.5,6.9-9.7,10.3"/>
<path class="st0" d="M48.2,144.5c-1.9,2-3.8,3.9-5.6,5.8"/>
<path class="st0" d="M32.6,160.5c-1.4,1.4-2.9,2.9-4.3,4.3"/>
<path class="st0" d="M26.9,166.2c-1.9,1.9-3.9,3.8-5.8,5.7"/>
<path class="st0" d="M374.4,14.9c-10.5,16.1-21.5,31.9-32.8,47.5"/>
<path class="st0" d="M338,67.2c-5.1,7-10.3,13.9-15.6,20.7"/>
<path class="st0" d="M321.2,89.5c-11,14.2-22.3,28.1-34,41.7"/>
<path class="st0" d="M284.6,134.2c-0.4,0.5-0.9,1-1.3,1.5"/>
<path class="st0" d="M60.1,100.7c-4,4.4-8,8.9-12,13.2"/>
<path class="st0" d="M45.4,116.9c-1.8,1.9-3.6,3.9-5.4,5.8"/>
<path class="st0" d="M31.7,131.4c-1.4,1.4-2.8,2.9-4.1,4.3"/>
<path class="st0" d="M24.8,138.6c-0.9,0.9-1.8,1.9-2.8,2.8"/>
<path class="st0" d="M31,117c-1.4,1.4-2.7,2.9-4.1,4.3"/>
<path class="st0" d="M349.2,14.8c-10.9,16.2-22.2,32.2-34,47.8"/>
<path class="st0" d="M311.7,67.4c-16.6,21.8-33.9,43-52,63.5"/>
<path class="st0" d="M258.4,132.4c-0.9,1-1.7,1.9-2.6,2.9"/>
<path class="st0" d="M253.2,138.2c-1.7,1.9-3.5,3.9-5.2,5.8"/>
<path class="st0" d="M323.2,15.8c-10.9,15.8-22.3,31.3-34,46.5"/>
<path class="st0" d="M285.6,66.8C273,83,260,98.7,246.5,114.1"/>
<path class="st0" d="M242.7,118.5c-0.4,0.5-0.9,1-1.3,1.4"/>
<path class="st0" d="M237.6,124.2c-1.7,1.9-3.4,3.8-5.1,5.7"/>
<path class="st0" d="M298.3,14.7c-11.6,16.4-23.7,32.4-36.3,48.1"/>
<path class="st0" d="M258.6,67.2c-3.5,4.4-7.1,8.8-10.8,13.1"/>
<path class="st0" d="M245.4,83.1c-6,7.2-12.2,14.3-18.4,21.4"/>
<path class="st0" d="M272.6,14.5c-9.1,12.4-18.4,24.6-28.1,36.6"/>
<path class="st0" d="M242.2,54c-2.3,2.9-4.7,5.7-7,8.6"/>
<path class="st0" d="M231.7,66.8c-1.6,1.9-3.2,3.8-4.7,5.7"/>
<path class="st0" d="M245.9,15.1c-5.5,7.2-11,14.4-16.6,21.4"/>
<g>
	<line class="st0" x1="537.7" y1="200.9" x2="538.1" y2="194.6"/>
	<line class="st0" x1="540.8" y1="198.3" x2="541.2" y2="191.9"/>
	<line class="st0" x1="543.8" y1="195.6" x2="544.3" y2="189.2"/>
	<line class="st0" x1="531.6" y1="206.3" x2="532" y2="199.9"/>
	<line class="st0" x1="534.6" y1="203.6" x2="535.1" y2="197.3"/>
	<line class="st0" x1="546.9" y1="192.9" x2="547.3" y2="186.6"/>
	<line class="st0" x1="550" y1="190.3" x2="550.4" y2="183.9"/>
	<line class="st0" x1="541.2" y1="191.9" x2="544.3" y2="189.2"/>
	<line class="st0" x1="540.8" y1="198.3" x2="543.8" y2="195.6"/>
	<line class="st0" x1="553" y1="187.6" x2="553.5" y2="181.2"/>
	<line class="st0" x1="556.1" y1="184.9" x2="556.5" y2="178.6"/>
	<line class="st0" x1="553.5" y1="181.2" x2="556.5" y2="178.6"/>
	<line class="st0" x1="553" y1="187.6" x2="556.1" y2="184.9"/>
</g>
<g>
	<polyline class="st1" points="0.7,16.2 0.7,0 16.9,0 	"/>
	<polyline class="st1" points="665.1,312 681.3,312 681.3,295.8 	"/>
</g>
</svg>
