<?xml version="1.0" encoding="utf-8"?>
<!-- Generator: Adobe Illustrator 22.0.0, SVG Export Plug-In . SVG Version: 6.00 Build 0)  -->
<svg version="1.0" id="Layer_1" xmlns="http://www.w3.org/2000/svg" xmlns:xlink="http://www.w3.org/1999/xlink" x="0px" y="0px"
	 viewBox="0 0 708.7 652" style="enable-background:new 0 0 708.7 652;" xml:space="preserve">
<style type="text/css">
	.st0{fill:#181818;}
	.st1{fill:none;stroke:#CCCCCC;stroke-linecap:round;}
	.st2{fill:none;stroke:#EB3593;stroke-miterlimit:10;}
</style>
<g>
	<path class="st0" d="M36.2,181.2l512.9,140.2l0,156L36.2,181.2 M0.1,166.2l33.5,19.4l512.9,296.1l7.5,4.3l0-8.7l0-156l0-3.8l-3.7-1
		L37.5,176.4L0.1,166.2L0.1,166.2z"/>
</g>
<g>
	<path class="st0" d="M34.2,189.2l510.9,295L419,557L34.2,189.2 M0.7,164.1l30.1,28.8l384.8,367.8l2.7,2.6l3.2-1.9l126.1-72.8
		l7.5-4.3l-7.5-4.3l-510.9-295L0.7,164.1L0.7,164.1z"/>
</g>
<g>
	<path class="st0" d="M37.9,170.5l413.6,4.4l-0.4,37.1l98.3,1.1l-1.1,102.8L37.9,170.5 M0.7,165.1l35.8,10.2l510.4,145.4l6.3,1.8
		l0.1-6.5l1.1-102.8l0.1-5l-5-0.1l-93.3-1l0.3-32.1l0.1-5l-5-0.1L38,165.5L0.7,165.1L0.7,165.1z"/>
</g>
<g>
	<path class="st0" d="M11.6,184.1l257.9,446.8l-257.9-149V184.1 M6.6,165.4v18.7v297.8v2.9l2.5,1.4l257.9,149l16.2,9.3l-9.3-16.2
		L15.9,181.6L6.6,165.4L6.6,165.4z"/>
</g>
<g>
	<path class="st0" d="M24.9,191.3l386.9,369.8l-130.1,75.1L24.9,191.3 M3.1,163.5l17.5,30.2l256.8,444.9l2.5,4.3l4.3-2.5l130.1-75.1
		l5.8-3.3l-4.8-4.6L28.3,187.7L3.1,163.5L3.1,163.5z"/>
</g>
<g>
	<rect x="491.3" y="60" class="st1" width="184.3" height="90.7"/>
	<rect x="458.7" y="18.9" class="st1" width="249.4" height="172.9"/>
</g>
<g>
	<path class="st0" d="M280.3,16.4l170.5,98.5v50.5H22.4L280.3,16.4 M280.3,10.6l-2.5,1.4L19.9,161l-16.2,9.3h18.7h428.4h5v-5v-50.5
		V112l-2.5-1.4L282.8,12L280.3,10.6L280.3,10.6z"/>
</g>
<g>
	<polyline class="st2" points="0.4,16.2 0.4,0 16.5,0 	"/>
	<polyline class="st2" points="692.3,652 708.5,652 708.5,635.8 	"/>
</g>
</svg>
