<?xml version="1.0" encoding="utf-8"?>
<!-- Generator: Adobe Illustrator 22.0.0, SVG Export Plug-In . SVG Version: 6.00 Build 0)  -->
<svg version="1.0" id="Layer_1" xmlns="http://www.w3.org/2000/svg" xmlns:xlink="http://www.w3.org/1999/xlink" x="0px" y="0px"
	 viewBox="0 0 708.7 652" style="enable-background:new 0 0 708.7 652;" xml:space="preserve">
<style type="text/css">
	.st0{fill:none;stroke:#CCCCCC;stroke-linecap:round;}
	.st1{fill:none;stroke:#EB3593;stroke-miterlimit:10;}
</style>
<path class="st0" d="M69.7,563.9c-3.5-3.1-6.9-6.3-10.4-9.5"/>
<path class="st0" d="M26.7,522c-1.2-1.2-2.3-2.5-3.5-3.7"/>
<path class="st0" d="M22.3,517.3c-1.4-1.6-2.9-3.1-4.3-4.7"/>
<path class="st0" d="M17.1,511.7c-4.9-5.4-9.7-10.8-14.4-16.3"/>
<path class="st0" d="M101.5,563.7c-3.5-2.9-6.9-5.9-10.4-8.9"/>
<path class="st0" d="M90.2,554c-4.1-3.5-8.1-7.1-12-10.8"/>
<path class="st0" d="M75.4,540.7c-0.9-0.8-1.8-1.7-2.7-2.5"/>
<path class="st0" d="M70,535.7c-0.9-0.9-1.8-1.7-2.7-2.6"/>
<path class="st0" d="M60.2,526.2c-1.5-1.4-2.9-2.9-4.4-4.4"/>
<path class="st0" d="M54.9,520.9c-1.5-1.5-2.9-2.9-4.4-4.4"/>
<path class="st0" d="M49.6,515.6c-4.6-4.7-9.2-9.5-13.7-14.4"/>
<path class="st0" d="M33.5,498.5c-0.8-0.9-1.7-1.8-2.5-2.8"/>
<path class="st0" d="M28.5,492.9c-0.6-0.6-1.1-1.2-1.7-1.9"/>
<path class="st0" d="M12.2,474.1C8.8,470,5.4,465.8,2,461.6"/>
<path class="st0" d="M76.3,527.2c-0.3-0.3-0.6-0.6-0.9-0.8"/>
<path class="st0" d="M70.1,521.2c-1.5-1.4-2.9-2.9-4.4-4.3"/>
<path class="st0" d="M64.9,516.1c-1.4-1.4-2.9-2.9-4.3-4.3"/>
<path class="st0" d="M45.3,495.9c-0.6-0.6-1.1-1.2-1.7-1.8"/>
<path class="st0" d="M40.4,490.5c-7.7-8.4-15.2-17.1-22.4-25.9"/>
<path class="st0" d="M12.6,458c-2.6-3.2-5.1-6.4-7.6-9.6"/>
<path class="st0" d="M221.9,621.4c-1.8-1-3.5-2-5.3-3"/>
<path class="st0" d="M205.3,611.8c-1.4-0.8-2.8-1.7-4.1-2.5"/>
<path class="st0" d="M196,606.1c-2.7-1.7-5.5-3.4-8.2-5.1"/>
<path class="st0" d="M179.7,595.8c-1.7-1.1-3.3-2.2-5-3.3"/>
<path class="st0" d="M156.9,580.1c-2.6-1.9-5.2-3.8-7.8-5.7"/>
<path class="st0" d="M117.8,550c-0.6-0.5-1.2-1-1.9-1.6"/>
<path class="st0" d="M112.2,545.3c-0.9-0.8-1.8-1.6-2.7-2.3"/>
<path class="st0" d="M69.8,506.1c-5.1-5.1-10.1-10.3-15.1-15.6"/>
<path class="st0" d="M49.8,485.2c-3.3-3.6-6.5-7.1-9.7-10.8"/>
<path class="st0" d="M38.5,472.6c-3.4-3.9-6.8-7.9-10.1-11.9"/>
<path class="st0" d="M26.8,458.8c-1.3-1.5-2.6-3.1-3.8-4.7"/>
<path class="st0" d="M263.9,631.4c-2.9-1.4-5.7-2.8-8.5-4.2"/>
<path class="st0" d="M254.3,626.7c-24.8-12.4-48.7-26.3-71.8-41.6"/>
<path class="st0" d="M180.5,583.7c-4.3-2.9-8.5-5.8-12.7-8.7"/>
<path class="st0" d="M164.9,573c-1.6-1.1-3.2-2.3-4.8-3.5"/>
<path class="st0" d="M154.4,565.3c-0.6-0.5-1.3-0.9-1.9-1.4"/>
<path class="st0" d="M148.7,561.1c-1-0.7-1.9-1.4-2.9-2.2"/>
<path class="st0" d="M126.3,543.4c-1.2-1-2.4-2-3.7-3"/>
<path class="st0" d="M119.9,538.1c-0.9-0.8-1.8-1.5-2.7-2.3"/>
<path class="st0" d="M113.6,532.7c-35.3-30.6-67.4-64.7-95.7-101.9"/>
<path class="st0" d="M219,595.5c-0.7-0.4-1.3-0.8-2-1.2"/>
<path class="st0" d="M194.2,580.2c-1-0.6-2-1.3-2.9-1.9"/>
<path class="st0" d="M178.7,569.8c-1.3-0.9-2.6-1.8-3.8-2.7"/>
<path class="st0" d="M171,564.4c-0.3-0.2-0.6-0.5-1-0.7"/>
<path class="st0" d="M154,552c-3.4-2.6-6.8-5.2-10.2-7.9"/>
<path class="st0" d="M143,543.4c-5.2-4.1-10.3-8.3-15.4-12.6"/>
<path class="st0" d="M124,527.8c-0.3-0.3-0.6-0.5-0.9-0.8"/>
<path class="st0" d="M112.6,517.8c-1.7-1.6-3.5-3.1-5.2-4.7"/>
<path class="st0" d="M105.7,511.5c-1.7-1.6-3.4-3.2-5.1-4.8"/>
<path class="st0" d="M96.3,502.7c-0.6-0.5-1.1-1.1-1.7-1.6"/>
<path class="st0" d="M91.3,497.9c-3.6-3.5-7.2-7.1-10.7-10.7"/>
<path class="st0" d="M78.9,485.5c-3.3-3.4-6.5-6.7-9.7-10.2"/>
<path class="st0" d="M65.3,471c-7.4-8-14.5-16.3-21.5-24.6"/>
<path class="st0" d="M41.5,443.7c-6.2-7.5-12.2-15.2-18-22.9"/>
<path class="st0" d="M301.3,625.3c-8.8-3.7-17.5-7.7-26.2-11.8"/>
<path class="st0" d="M264.8,608.4c-1.4-0.7-2.7-1.4-4.1-2.1"/>
<path class="st0" d="M259.6,605.8C162.8,556.5,79.7,484,17.7,394.8"/>
<path class="st0" d="M233.6,579.7c-2-1.1-3.9-2.3-5.9-3.4"/>
<path class="st0" d="M217.1,569.8c-2.9-1.8-5.8-3.6-8.6-5.4"/>
<path class="st0" d="M206.6,563.2c-3.5-2.3-6.9-4.5-10.4-6.9"/>
<path class="st0" d="M192.4,553.8c-4-2.8-8.1-5.6-12.1-8.5"/>
<path class="st0" d="M177.6,543.3c-0.9-0.7-1.8-1.3-2.7-2"/>
<path class="st0" d="M170.4,538c-4.5-3.4-9-6.8-13.5-10.3"/>
<path class="st0" d="M154.2,525.5c-5.3-4.2-10.5-8.5-15.7-12.9"/>
<path class="st0" d="M137.7,511.8c-3.2-2.7-6.3-5.4-9.4-8.2"/>
<path class="st0" d="M125.7,501.4c-1.1-1-2.2-2-3.4-3"/>
<path class="st0" d="M119.9,496.1c-8.1-7.4-15.9-15-23.6-22.8"/>
<path class="st0" d="M93.1,470c-7.9-8.1-15.5-16.5-23-25"/>
<path class="st0" d="M68.7,443.3c-16.3-18.8-31.5-38.6-45.5-59.1"/>
<path class="st0" d="M322.9,611.5c-5.5-2.2-11-4.5-16.5-6.8"/>
<path class="st0" d="M301.3,602.4c-1-0.4-2-0.9-3-1.4"/>
<path class="st0" d="M296.2,600.2c-3.7-1.7-7.4-3.4-11.1-5.1"/>
<path class="st0" d="M276.1,590.6c-5.6-2.8-11.3-5.7-16.8-8.6"/>
<path class="st0" d="M255.4,579.9c-0.7-0.4-1.3-0.7-2-1.1"/>
<path class="st0" d="M248.5,576.2c-1-0.5-2-1.1-2.9-1.6"/>
<path class="st0" d="M243.7,573.4C152.6,521.7,75.6,448.3,19.6,359.7"/>
<path class="st0" d="M379.5,620c-1.8-0.5-3.5-1.1-5.2-1.6"/>
<path class="st0" d="M353.4,611.6c-1.7-0.6-3.4-1.2-5.1-1.8"/>
<path class="st0" d="M327.8,602.1c-1-0.4-2-0.8-3-1.2"/>
<path class="st0" d="M312.6,595.9c-2-0.9-4-1.7-6-2.6"/>
<path class="st0" d="M300.6,590.6c-1.7-0.8-3.3-1.5-5-2.3"/>
<path class="st0" d="M274.9,578.3c-1.6-0.8-3.2-1.7-4.9-2.5"/>
<path class="st0" d="M268.1,574.8c-2.9-1.5-5.8-3.1-8.7-4.6"/>
<path class="st0" d="M258.4,569.6c-1.6-0.9-3.2-1.8-4.8-2.6"/>
<path class="st0" d="M217.1,545c-8.9-5.8-17.6-11.8-26.2-18"/>
<path class="st0" d="M184.7,522.5c-1.5-1.1-2.9-2.2-4.4-3.3"/>
<path class="st0" d="M177.7,517.2c-0.9-0.7-1.7-1.3-2.6-2"/>
<path class="st0" d="M170.8,511.8c-4.3-3.4-8.6-6.8-12.8-10.3"/>
<path class="st0" d="M154.6,498.7c-3.1-2.6-6.1-5.2-9.1-7.8"/>
<path class="st0" d="M143.8,489.4c-44.7-39.4-83.6-85-115.4-135.3"/>
<path class="st0" d="M342.7,596.6c-36.3-13.6-71.3-30.6-104.4-50.7"/>
<path class="st0" d="M233.7,543.1c-0.3-0.2-0.6-0.4-0.9-0.6"/>
<path class="st0" d="M222.8,536.2C146.6,486.7,82.3,421.1,34.5,343.9"/>
<path class="st0" d="M31.1,338.4c-4.5-7.4-8.8-14.8-12.9-22.4"/>
<path class="st0" d="M395.7,602.8c-2-0.6-4.1-1.1-6.1-1.7"/>
<path class="st0" d="M357.3,590.8c-1.3-0.5-2.7-0.9-4-1.4"/>
<path class="st0" d="M327.7,579.4c-2-0.8-3.9-1.6-5.9-2.5"/>
<path class="st0" d="M316.9,574.9c-1.9-0.8-3.9-1.7-5.8-2.6"/>
<path class="st0" d="M301.5,567.9c-1.9-0.9-3.8-1.8-5.7-2.7"/>
<path class="st0" d="M285.3,560.1c-0.6-0.3-1.3-0.6-1.9-1"/>
<path class="st0" d="M279.7,557.2c-1.6-0.8-3.1-1.6-4.7-2.4"/>
<path class="st0" d="M273.1,553.7c-1.2-0.7-2.5-1.3-3.7-2"/>
<path class="st0" d="M264.7,549.2c-1.8-1-3.7-2.1-5.5-3.1"/>
<path class="st0" d="M254.6,543.4c-0.3-0.2-0.6-0.4-0.9-0.5"/>
<path class="st0" d="M248.2,539.7c-5.2-3.1-10.3-6.2-15.3-9.4"/>
<path class="st0" d="M228.5,527.4c-0.3-0.2-0.6-0.4-0.9-0.6"/>
<path class="st0" d="M206.6,512.5c-0.3-0.2-0.6-0.4-0.9-0.6"/>
<path class="st0" d="M201.5,508.8c-3.4-2.5-6.8-5-10.2-7.6"/>
<path class="st0" d="M184.6,496c-3.1-2.4-6.1-4.8-9.1-7.3"/>
<path class="st0" d="M169.8,484c-3.5-2.9-7-5.9-10.4-8.9"/>
<path class="st0" d="M154.6,470.9c-14.7-13.2-28.8-27.1-42.2-41.6"/>
<path class="st0" d="M92.9,407c-26.7-32-50-66.7-69.5-103.5"/>
<path class="st0" d="M374.6,585.5c-56.2-18.2-109.3-44.7-157.7-78.6"/>
<path class="st0" d="M216.1,506.3c-1.4-1-2.8-2-4.2-3"/>
<path class="st0" d="M196,491.6c-27.2-20.9-52.6-44.1-75.9-69.4"/>
<path class="st0" d="M112.5,413.7C74,370.2,42.1,321.4,17.8,268.8"/>
<path class="st0" d="M416.1,586.6c-3.3-0.8-6.6-1.7-9.9-2.6"/>
<path class="st0" d="M379.8,576.2c-1.3-0.4-2.6-0.8-3.9-1.3"/>
<path class="st0" d="M374.9,574.6c-3.6-1.2-7.1-2.4-10.6-3.6"/>
<path class="st0" d="M360.4,569.6c-0.6-0.2-1.3-0.5-1.9-0.7"/>
<path class="st0" d="M353.7,567.1c-1.9-0.7-3.8-1.4-5.7-2.2"/>
<path class="st0" d="M337.6,560.8c-3.5-1.4-6.9-2.9-10.4-4.3"/>
<path class="st0" d="M316.9,551.9c-2.5-1.1-5-2.3-7.4-3.4"/>
<path class="st0" d="M306.7,547.2c-1.8-0.9-3.7-1.8-5.5-2.7"/>
<path class="st0" d="M298.4,543.1c-0.9-0.5-1.8-0.9-2.7-1.4"/>
<path class="st0" d="M290.3,539c-5.1-2.7-10.3-5.4-15.3-8.2"/>
<path class="st0" d="M264.3,524.7c-1.8-1-3.5-2.1-5.3-3.1"/>
<path class="st0" d="M243.3,512c-3.4-2.2-6.9-4.4-10.3-6.7"/>
<path class="st0" d="M228,501.8c-0.3-0.2-0.6-0.4-0.8-0.6"/>
<path class="st0" d="M222.1,497.8c-3.3-2.4-6.7-4.7-10-7.2"/>
<path class="st0" d="M205.6,485.7c-1.4-1-2.7-2.1-4.1-3.1"/>
<path class="st0" d="M180.9,465.9c-16.7-14.1-32.5-29.1-47.5-44.9"/>
<path class="st0" d="M120.3,406.7c-40-45.2-72.8-96.4-97.2-151.7"/>
<path class="st0" d="M13,230.5c-3.7-9.5-7.1-19.1-10.3-28.8"/>
<path class="st0" d="M421.6,577.1c-3.6-0.9-7.2-1.8-10.7-2.7"/>
<path class="st0" d="M394.5,569.7c-74.6-22.2-143.9-59.4-203.8-109.2"/>
<path class="st0" d="M189.2,459.2c-1-0.9-2-1.7-3.1-2.6"/>
<path class="st0" d="M183.1,454c-0.8-0.7-1.5-1.3-2.3-2"/>
<path class="st0" d="M170.3,442.7c-1.5-1.4-2.9-2.7-4.4-4.1"/>
<path class="st0" d="M164.5,437.2c-1.5-1.4-2.9-2.8-4.4-4.1"/>
<path class="st0" d="M159.4,432.4C96.3,371.5,48,297,18.2,214.5"/>
<path class="st0" d="M12.9,199.3c-0.8-2.5-1.7-5.1-2.5-7.6"/>
<path class="st0" d="M7.5,182.1c-1.1-3.8-2.2-7.7-3.3-11.6"/>
<path class="st0" d="M406,562.1c-1.6-0.4-3.2-0.9-4.7-1.4"/>
<path class="st0" d="M385.2,555.9c-3.4-1.1-6.9-2.3-10.3-3.4"/>
<path class="st0" d="M369.4,550.5c-1.9-0.7-3.7-1.3-5.6-2"/>
<path class="st0" d="M359.2,546.8c-1.8-0.7-3.7-1.4-5.5-2.1"/>
<path class="st0" d="M350,543.2c-0.6-0.2-1.2-0.5-1.8-0.7"/>
<path class="st0" d="M342.7,540.2c-5.8-2.4-11.5-4.9-17.2-7.4"/>
<path class="st0" d="M322,531.2c-5.4-2.5-10.7-5-16-7.7"/>
<path class="st0" d="M303.4,522.1c-0.9-0.4-1.8-0.9-2.7-1.4"/>
<path class="st0" d="M295.5,518.1c-0.6-0.3-1.2-0.6-1.8-0.9"/>
<path class="st0" d="M290.3,515.3c-8.1-4.4-16.1-8.9-23.9-13.7"/>
<path class="st0" d="M264.7,500.6c-5-3.1-10-6.2-15-9.5"/>
<path class="st0" d="M248.9,490.5c-1.9-1.3-3.8-2.5-5.7-3.8"/>
<path class="st0" d="M241.5,485.6c-5.2-3.5-10.3-7.1-15.3-10.8"/>
<path class="st0" d="M222.2,471.9c-18.2-13.5-35.6-28.1-52-43.7"/>
<path class="st0" d="M149.3,407.3c-0.2-0.2-0.5-0.5-0.7-0.7"/>
<path class="st0" d="M144,401.6c-1.6-1.7-3.1-3.4-4.7-5.1"/>
<path class="st0" d="M138.7,395.7c-1.3-1.5-2.6-2.9-3.9-4.4"/>
<path class="st0" d="M133.4,389.8C84.3,333.5,46.8,267.9,23.2,197"/>
<path class="st0" d="M406.1,551.3c-64.3-18.4-124.7-48.4-178.3-88.3"/>
<path class="st0" d="M222.3,458.8c-2-1.6-4.1-3.1-6.1-4.7"/>
<path class="st0" d="M211.7,450.5c-20.3-16.4-39.5-34.1-57.4-53.2"/>
<path class="st0" d="M153.6,396.6c-1.5-1.6-3.1-3.3-4.6-5"/>
<path class="st0" d="M148.4,390.9c-1.5-1.7-3-3.3-4.5-5"/>
<path class="st0" d="M139.4,380.8c-0.2-0.2-0.4-0.5-0.6-0.7"/>
<path class="st0" d="M128.3,367.4c-0.6-0.7-1.2-1.5-1.8-2.3"/>
<path class="st0" d="M122.9,360.6c-0.2-0.3-0.4-0.5-0.6-0.8"/>
<path class="st0" d="M117.5,353.7c-1.2-1.5-2.3-3.1-3.5-4.6"/>
<path class="st0" d="M112.3,346.7c-22.3-30.4-41.5-63-57.2-97.3"/>
<path class="st0" d="M54.7,248.5c-1.5-3.2-2.9-6.5-4.3-9.7"/>
<path class="st0" d="M49.6,237c-1.3-3-2.5-5.9-3.7-8.9"/>
<path class="st0" d="M44.5,224.5c-0.2-0.6-0.5-1.2-0.7-1.8"/>
<path class="st0" d="M427.3,546.1c-1.8-0.5-3.7-0.9-5.5-1.4"/>
<path class="st0" d="M417.2,543.5c-1.8-0.5-3.7-1-5.5-1.5"/>
<path class="st0" d="M390.8,535.6c-2.7-0.9-5.4-1.8-8.1-2.7"/>
<path class="st0" d="M354.3,522.3c-0.3-0.1-0.6-0.2-0.9-0.4"/>
<path class="st0" d="M348.2,519.8c-5.3-2.2-10.5-4.5-15.6-6.9"/>
<path class="st0" d="M329.9,511.7c-6-2.8-12-5.7-17.9-8.7"/>
<path class="st0" d="M308.7,501.3c-0.8-0.4-1.7-0.9-2.5-1.3"/>
<path class="st0" d="M301.1,497.3c-7-3.7-13.8-7.6-20.6-11.7"/>
<path class="st0" d="M274.8,482.1c-11.6-7.1-22.9-14.6-33.9-22.6"/>
<path class="st0" d="M227.9,449.9c-0.5-0.4-1-0.8-1.5-1.1"/>
<path class="st0" d="M219.7,443.5c-34.1-27.3-64.9-58.5-91.5-93.1"/>
<path class="st0" d="M127.1,348.9c-1.3-1.8-2.7-3.5-4-5.3"/>
<path class="st0" d="M119.1,338.2c-0.6-0.8-1.1-1.5-1.7-2.3"/>
<path class="st0" d="M115.8,333.6c-1.1-1.5-2.2-3.1-3.3-4.6"/>
<path class="st0" d="M108.2,322.7c-0.4-0.5-0.7-1.1-1.1-1.6"/>
<path class="st0" d="M77.2,270.6c-0.4-0.8-0.9-1.7-1.3-2.5"/>
<path class="st0" d="M71.6,259.6c-0.4-0.8-0.8-1.7-1.3-2.5"/>
<path class="st0" d="M66.6,249.3c-0.4-0.9-0.8-1.7-1.2-2.6"/>
<path class="st0" d="M61.9,239c-0.6-1.4-1.3-2.9-1.9-4.3"/>
<path class="st0" d="M59.7,233.8c-3-7-5.9-14-8.6-21.1"/>
<path class="st0" d="M49.4,208.2c-0.1-0.3-0.2-0.6-0.3-0.9"/>
<path class="st0" d="M480,545.9c-4.9-0.7-9.8-1.5-14.7-2.4"/>
<path class="st0" d="M447.9,540.1c-15.8-3.4-31.4-7.4-46.8-12.2"/>
<path class="st0" d="M400.3,527.6c-1.5-0.5-3-0.9-4.4-1.4"/>
<path class="st0" d="M374.7,518.9c-1.4-0.5-2.9-1.1-4.3-1.6"/>
<path class="st0" d="M369.5,517c-43-16.3-83.6-38.1-121-64.9"/>
<path class="st0" d="M237.3,443.9c-75.6-57.2-134.6-133.5-170.9-221.1"/>
<path class="st0" d="M65.3,220.2c-0.4-0.9-0.7-1.7-1-2.6"/>
<path class="st0" d="M60.2,207.2c-0.1-0.3-0.2-0.6-0.3-0.9"/>
<path class="st0" d="M58.3,202c-0.6-1.8-1.3-3.5-1.9-5.3"/>
<path class="st0" d="M52.8,186.2c-0.6-1.8-1.2-3.5-1.7-5.3"/>
<path class="st0" d="M353.8,499.3c-1.7-0.7-3.3-1.4-5-2.2"/>
<path class="st0" d="M346.3,496.1c-4.4-2-8.9-4-13.2-6.1"/>
<path class="st0" d="M327.3,487.1c-7.6-3.8-15.2-7.7-22.6-11.9"/>
<path class="st0" d="M301.5,473.5c-1.9-1.1-3.7-2.1-5.6-3.2"/>
<path class="st0" d="M295.2,469.9c-57.9-33.8-108.8-78.5-149.8-131.6"/>
<path class="st0" d="M138.8,329.6c-18.6-25.2-35-52-48.8-80.1"/>
<path class="st0" d="M86.4,242.1c-0.5-1.1-1-2.2-1.5-3.3"/>
<path class="st0" d="M77.9,222.9c-2.3-5.3-4.4-10.7-6.5-16.1"/>
<path class="st0" d="M65.7,191.5c-0.6-1.7-1.2-3.5-1.8-5.2"/>
<path class="st0" d="M311.3,467c-1.3-0.7-2.6-1.4-3.9-2.2"/>
<path class="st0" d="M306.7,464.4c-81.1-45.9-148.2-113.1-193.9-194.2"/>
<path class="st0" d="M112.3,269.4c-0.7-1.3-1.5-2.6-2.2-3.9"/>
<path class="st0" d="M99,244c-4.2-8.6-8.1-17.2-11.9-26"/>
<path class="st0" d="M86.1,215.6c-0.5-1.1-0.9-2.2-1.4-3.3"/>
<path class="st0" d="M80.8,202.3c-1.4-3.6-2.7-7.2-4-10.9"/>
<path class="st0" d="M75.9,188.9c-0.3-0.8-0.6-1.7-0.9-2.5"/>
<path class="st0" d="M73.3,181.3c-1.2-3.7-2.4-7.3-3.6-11"/>
<path class="st0" d="M274.7,432.1c-50.9-35-94.8-79-129.7-129.9"/>
<path class="st0" d="M144,300.7c-1-1.5-2-2.9-2.9-4.4"/>
<path class="st0" d="M138.7,292.6c-0.3-0.5-0.6-1-0.9-1.5"/>
<path class="st0" d="M121.9,265c-6.7-11.9-13-24.2-18.7-36.6"/>
<path class="st0" d="M102.1,226c-0.5-1.1-1-2.1-1.4-3.2"/>
<path class="st0" d="M94.2,207.5c-2.1-5.1-4.1-10.3-6-15.5"/>
<path class="st0" d="M84.4,181.3c-0.7-1.9-1.3-3.9-2-5.8"/>
<path class="st0" d="M259.2,407.8c-0.4-0.3-0.9-0.7-1.3-1"/>
<path class="st0" d="M253.8,403.5c-0.9-0.7-1.8-1.4-2.7-2.1"/>
<path class="st0" d="M249.1,399.8c-1.3-1.1-2.6-2.2-4-3.3"/>
<path class="st0" d="M243.8,395.4c-22.6-18.9-43.4-39.7-62.3-62.4"/>
<path class="st0" d="M180.5,331.7c-1.1-1.3-2.2-2.6-3.2-4"/>
<path class="st0" d="M175.6,325.8c-0.7-0.9-1.4-1.8-2.1-2.7"/>
<path class="st0" d="M170.3,319c-0.3-0.4-0.7-0.9-1-1.3"/>
<path class="st0" d="M154.1,296.9c-13.9-20.3-26.3-41.5-37-63.6"/>
<path class="st0" d="M109.9,217.7c-3-6.8-5.9-13.6-8.6-20.6"/>
<path class="st0" d="M97.4,186.7c-2-5.4-3.8-10.8-5.6-16.2"/>
<path class="st0" d="M214.9,354.4c-1-1-1.9-2-2.9-3"/>
<path class="st0" d="M209.7,348.9c-1-1-1.9-2-2.9-3.1"/>
<path class="st0" d="M205.1,344c-1.1-1.2-2.3-2.5-3.4-3.7"/>
<path class="st0" d="M200,338.4c-1.3-1.5-2.6-3-3.9-4.4"/>
<path class="st0" d="M195.6,333.4c-15.7-18.2-30.1-37.5-43-57.8"/>
<path class="st0" d="M149.1,269.9c-5.1-8.3-10-16.8-14.6-25.5"/>
<path class="st0" d="M133.4,242.1c-0.5-1-1-2-1.5-3"/>
<path class="st0" d="M126.6,228.7c-4.3-8.8-8.3-17.7-12-26.8"/>
<path class="st0" d="M110.5,191.8c-2-5.2-3.9-10.5-5.8-15.8"/>
<path class="st0" d="M246.7,370.2c-2-1.8-4.1-3.7-6.1-5.5"/>
<path class="st0" d="M238.2,362.5c-1-0.9-2-1.9-3-2.8"/>
<path class="st0" d="M229.9,354.6c-0.8-0.8-1.6-1.5-2.4-2.3"/>
<path class="st0" d="M217.3,341.7c-20.7-21.9-39.2-45.7-55.3-71.1"/>
<path class="st0" d="M158.5,265.1c-3.2-5.1-6.2-10.3-9.2-15.6"/>
<path class="st0" d="M143.4,238.7c-6.3-11.8-12-23.9-17.3-36.2"/>
<path class="st0" d="M124,197.2c-3.6-8.9-7-17.8-10.1-26.9"/>
<path class="st0" d="M201.7,307.9c-0.2-0.2-0.3-0.4-0.5-0.6"/>
<path class="st0" d="M196.2,301.1c-6.4-8.2-12.5-16.7-18.4-25.3"/>
<path class="st0" d="M174.3,270.4c-1.2-1.8-2.3-3.6-3.5-5.4"/>
<path class="st0" d="M161.3,249.3c-0.5-0.9-1.1-1.9-1.6-2.8"/>
<path class="st0" d="M158.5,244.4c-6.8-12.1-13.1-24.5-18.8-37.2"/>
<path class="st0" d="M135.2,196.9c-2.9-6.9-5.6-13.9-8.2-20.9"/>
<path class="st0" d="M307.7,391c-0.4-0.3-0.9-0.6-1.3-0.9"/>
<path class="st0" d="M279.3,370.2c-1.4-1.1-2.9-2.3-4.3-3.5"/>
<path class="st0" d="M272.6,364.7c-2-1.7-4-3.4-6-5.1"/>
<path class="st0" d="M254.3,348.8c-1.7-1.6-3.4-3.2-5.1-4.8"/>
<path class="st0" d="M243.5,338.5c-3.5-3.5-7-7-10.4-10.6"/>
<path class="st0" d="M228.3,322.7c-1.6-1.7-3.2-3.5-4.7-5.2"/>
<path class="st0" d="M222.5,316.3c-1.7-1.9-3.4-3.9-5.1-5.9"/>
<path class="st0" d="M212.3,304.4c-0.7-0.8-1.3-1.6-2-2.4"/>
<path class="st0" d="M206.9,297.7c-1.6-2-3.2-4.1-4.8-6.2"/>
<path class="st0" d="M201.6,290.9c-1.7-2.3-3.5-4.6-5.2-6.9"/>
<path class="st0" d="M194.2,280.8c-1.2-1.7-2.4-3.4-3.6-5.1"/>
<path class="st0" d="M180.1,260c-10.8-17-20.5-34.6-28.9-52.9"/>
<path class="st0" d="M148.9,202.2c-4.6-10.3-8.8-20.7-12.6-31.3"/>
<path class="st0" d="M191,257.6c-0.7-1.1-1.4-2.1-2.1-3.2"/>
<path class="st0" d="M180.6,240.7c-4.4-7.5-8.6-15.1-12.5-22.8"/>
<path class="st0" d="M160.4,202c-3.9-8.6-7.6-17.3-11-26.1"/>
<path class="st0" d="M348,391.3c-1.5-0.9-3-1.7-4.5-2.6"/>
<path class="st0" d="M322.5,375.7c-0.2-0.1-0.4-0.3-0.6-0.4"/>
<path class="st0" d="M314.5,370.2c-2.4-1.7-4.9-3.4-7.3-5.2"/>
<path class="st0" d="M306.6,364.6c-2.2-1.6-4.4-3.3-6.6-4.9"/>
<path class="st0" d="M292.9,354.2c-0.8-0.6-1.6-1.2-2.4-1.9"/>
<path class="st0" d="M268.5,333.3c-1.8-1.7-3.6-3.4-5.4-5.1"/>
<path class="st0" d="M252.4,317.7c-1.7-1.8-3.5-3.6-5.2-5.4"/>
<path class="st0" d="M238.2,302.4c-0.2-0.2-0.3-0.4-0.5-0.6"/>
<path class="st0" d="M229,291.6c-0.3-0.4-0.6-0.8-1-1.2"/>
<path class="st0" d="M220.6,281.1c-1.1-1.4-2.1-2.8-3.2-4.1"/>
<path class="st0" d="M216.5,275.8c-1.5-2-3-4-4.4-6"/>
<path class="st0" d="M208.6,264.9c-1.1-1.6-2.3-3.3-3.4-4.9"/>
<path class="st0" d="M201.5,254.4c-1.1-1.7-2.2-3.3-3.3-5"/>
<path class="st0" d="M196.6,246.9c-3.7-5.9-7.3-11.9-10.7-18"/>
<path class="st0" d="M185.5,228.2c-1-1.7-1.9-3.5-2.9-5.2"/>
<path class="st0" d="M180.9,219.7c-0.4-0.7-0.7-1.3-1.1-2"/>
<path class="st0" d="M174.4,207.1c-5.8-11.8-11.1-24-15.7-36.3"/>
<path class="st0" d="M233.4,280.4c-1.2-1.5-2.4-3-3.6-4.6"/>
<path class="st0" d="M225.8,270.7c-1.3-1.7-2.6-3.5-3.9-5.3"/>
<path class="st0" d="M218,260.1c-1.3-1.8-2.5-3.6-3.8-5.4"/>
<path class="st0" d="M212.2,251.7c-0.5-0.8-1.1-1.6-1.6-2.4"/>
<path class="st0" d="M207,243.7c-1-1.6-2.1-3.3-3.1-4.9"/>
<path class="st0" d="M200.9,233.8c-1.1-1.9-2.2-3.8-3.3-5.7"/>
<path class="st0" d="M186.5,207.7c-1-2-2-3.9-2.9-5.9"/>
<path class="st0" d="M181,196.6c-3.2-6.8-6.2-13.7-9.1-20.7"/>
<path class="st0" d="M385.4,387c-0.6-0.3-1.3-0.6-1.9-0.9"/>
<path class="st0" d="M348.5,367.3c-1.2-0.7-2.4-1.5-3.6-2.2"/>
<path class="st0" d="M338.3,360.9c-0.6-0.4-1.2-0.8-1.8-1.2"/>
<path class="st0" d="M282.8,317.9c-1.9-1.8-3.8-3.6-5.7-5.4"/>
<path class="st0" d="M275,310.6c-1.7-1.7-3.4-3.3-5.1-5"/>
<path class="st0" d="M266.5,302c-1.7-1.7-3.3-3.4-4.9-5.2"/>
<path class="st0" d="M256.8,291.7c-1.6-1.7-3.1-3.5-4.7-5.3"/>
<path class="st0" d="M248.8,282.6c-1.7-2-3.4-4-5-6"/>
<path class="st0" d="M242.9,275.5c-1.3-1.7-2.7-3.3-4-5"/>
<path class="st0" d="M235,265.4c-5.3-7-10.4-14.1-15.2-21.4"/>
<path class="st0" d="M217.4,240.5c-1.8-2.8-3.6-5.6-5.3-8.4"/>
<path class="st0" d="M203.8,218c-0.7-1.2-1.4-2.5-2.1-3.8"/>
<path class="st0" d="M200.8,212.4c-6.4-11.9-12.2-24.1-17.5-36.5"/>
<path class="st0" d="M261.3,281c-1.5-1.7-3-3.5-4.5-5.2"/>
<path class="st0" d="M252.4,270.5c-1.2-1.4-2.3-2.9-3.5-4.3"/>
<path class="st0" d="M240,254.7c-1.2-1.7-2.5-3.4-3.7-5"/>
<path class="st0" d="M232.4,244c-1.2-1.7-2.3-3.4-3.5-5.2"/>
<path class="st0" d="M228.1,237.7c-0.9-1.4-1.8-2.7-2.7-4.1"/>
<path class="st0" d="M215.7,217.7c-0.9-1.6-1.8-3.2-2.7-4.8"/>
<path class="st0" d="M212.3,211.6c-4.6-8.3-8.9-16.7-12.9-25.3"/>
<path class="st0" d="M197.1,181.3c-0.8-1.9-1.7-3.8-2.5-5.7"/>
<path class="st0" d="M453.6,390.2c-4.5-1.3-9.1-2.7-13.6-4.1"/>
<path class="st0" d="M364,352.1c-1.6-0.9-3.1-1.8-4.6-2.8"/>
<path class="st0" d="M335.1,333.4c-2.4-1.7-4.8-3.4-7.1-5.2"/>
<path class="st0" d="M322.2,323.8c-0.4-0.3-0.7-0.6-1.1-0.8"/>
<path class="st0" d="M314.3,317.5c-2.1-1.7-4.2-3.4-6.2-5.2"/>
<path class="st0" d="M306.5,311c-1.5-1.3-3.1-2.7-4.6-4"/>
<path class="st0" d="M296.5,302c-2-1.8-3.9-3.7-5.9-5.5"/>
<path class="st0" d="M285.8,291.7c-1.8-1.8-3.5-3.5-5.2-5.3"/>
<path class="st0" d="M280.2,286c-1.7-1.8-3.4-3.6-5.1-5.4"/>
<path class="st0" d="M270.5,275.6c-3-3.3-5.9-6.7-8.8-10.2"/>
<path class="st0" d="M257.5,260.2c-1.4-1.8-2.8-3.5-4.2-5.3"/>
<path class="st0" d="M249.3,249.5c-3.8-5-7.4-10.2-10.9-15.4"/>
<path class="st0" d="M231.4,223.4c-9.5-15.2-18-31.1-25.3-47.6"/>
<path class="st0" d="M300.7,291.6c-1.9-1.8-3.8-3.6-5.6-5.5"/>
<path class="st0" d="M290,281.1c-1.7-1.7-3.3-3.5-5-5.2"/>
<path class="st0" d="M275.3,265.2c-1.4-1.6-2.8-3.3-4.2-5"/>
<path class="st0" d="M266.5,254.6c-0.6-0.7-1.1-1.4-1.7-2.1"/>
<path class="st0" d="M259.2,245.3c-0.3-0.3-0.5-0.7-0.8-1"/>
<path class="st0" d="M247.1,228.2c-1.1-1.6-2.2-3.3-3.2-4.9"/>
<path class="st0" d="M237.2,212.8c-1-1.7-2-3.4-3-5.1"/>
<path class="st0" d="M231,202c-1-1.7-1.9-3.4-2.8-5.1"/>
<path class="st0" d="M227.8,196.3c-3.6-6.7-7-13.6-10.2-20.5"/>
<path class="st0" d="M511.1,380.7c-1.7-0.2-3.4-0.5-5-0.7"/>
<path class="st0" d="M484.7,376.2c-1-0.2-2.1-0.4-3.1-0.7"/>
<path class="st0" d="M448.4,366.7c-1.6-0.5-3.2-1-4.8-1.6"/>
<path class="st0" d="M406.2,350.4c-0.8-0.4-1.5-0.7-2.3-1.1"/>
<path class="st0" d="M390.8,342.9c-1.9-1-3.8-2-5.6-3"/>
<path class="st0" d="M374,333.6c-2.9-1.7-5.8-3.5-8.7-5.3"/>
<path class="st0" d="M356.8,322.8c-2.5-1.6-4.9-3.3-7.4-5"/>
<path class="st0" d="M348.3,317.1c-4.5-3.2-9-6.5-13.3-9.9"/>
<path class="st0" d="M328.5,302.1c-2.1-1.7-4.3-3.5-6.4-5.3"/>
<path class="st0" d="M316.9,292.2c-0.3-0.3-0.6-0.6-1-0.9"/>
<path class="st0" d="M310.3,286.2c-3.7-3.5-7.4-7-11-10.6"/>
<path class="st0" d="M294.4,270.5c-1.6-1.7-3.2-3.4-4.8-5.1"/>
<path class="st0" d="M285,260.2c-1.5-1.8-3.1-3.5-4.6-5.3"/>
<path class="st0" d="M263.8,233.9c-13.3-18.2-24.8-37.6-34.5-57.9"/>
<path class="st0" d="M332.3,291.6c-2.1-1.7-4.1-3.5-6.1-5.2"/>
<path class="st0" d="M317,278.1c-0.9-0.8-1.8-1.7-2.7-2.5"/>
<path class="st0" d="M296.1,256.9c-0.7-0.8-1.4-1.5-2.1-2.3"/>
<path class="st0" d="M280.9,239c-0.1-0.2-0.3-0.3-0.4-0.5"/>
<path class="st0" d="M269.1,223.2c-1.2-1.7-2.4-3.4-3.5-5.1"/>
<path class="st0" d="M262.1,212.9c-0.9-1.4-1.8-2.8-2.7-4.2"/>
<path class="st0" d="M258.8,207.7c-1.5-2.4-3-4.9-4.5-7.4"/>
<path class="st0" d="M252.3,197.1c-1-1.8-2.1-3.6-3.1-5.4"/>
<path class="st0" d="M246.3,186.3c-1.9-3.5-3.7-6.9-5.4-10.5"/>
<path class="st0" d="M469.1,350.9c-1.7-0.5-3.5-1-5.2-1.4"/>
<path class="st0" d="M437.7,340.8c-1.7-0.6-3.4-1.3-5-1.9"/>
<path class="st0" d="M419.9,333.6c-2.7-1.2-5.5-2.5-8.2-3.7"/>
<path class="st0" d="M408.5,328.3c-0.7-0.3-1.4-0.7-2.1-1"/>
<path class="st0" d="M398.3,323.1c-0.9-0.5-1.8-0.9-2.7-1.4"/>
<path class="st0" d="M385.2,315.8c-4.7-2.7-9.3-5.6-13.8-8.5"/>
<path class="st0" d="M363.4,302c-2.5-1.7-4.9-3.4-7.3-5.2"/>
<path class="st0" d="M348.8,291.4c-1.9-1.5-3.8-2.9-5.6-4.4"/>
<path class="st0" d="M338.1,282.7c-2.8-2.3-5.5-4.7-8.2-7"/>
<path class="st0" d="M324.1,270.4c-1.8-1.6-3.5-3.3-5.2-5"/>
<path class="st0" d="M313.4,259.9c-1.7-1.7-3.3-3.4-5-5.2"/>
<path class="st0" d="M290.3,233.9c-14.4-18-27-37.4-37.5-57.9"/>
<path class="st0" d="M367,291.7c-2.5-1.8-5.1-3.6-7.5-5.5"/>
<path class="st0" d="M352.5,280.9c-1.4-1.1-2.7-2.2-4.1-3.3"/>
<path class="st0" d="M318,249.6c-0.3-0.3-0.5-0.5-0.8-0.8"/>
<path class="st0" d="M308.2,238.9c-0.5-0.6-1-1.2-1.5-1.8"/>
<path class="st0" d="M303.6,233.6c-1.4-1.6-2.7-3.3-4.1-4.9"/>
<path class="st0" d="M295.2,223.2c-1.3-1.7-2.6-3.4-3.9-5.1"/>
<path class="st0" d="M291,217.7c-1.2-1.6-2.3-3.1-3.4-4.7"/>
<path class="st0" d="M283.9,207.7c-1.2-1.8-2.4-3.5-3.6-5.3"/>
<path class="st0" d="M276.8,197c-2.4-3.8-4.7-7.6-6.9-11.5"/>
<path class="st0" d="M267.3,181c-0.9-1.7-1.9-3.4-2.8-5.1"/>
<path class="st0" d="M548,341.6c-1.7-0.1-3.4-0.1-5.1-0.2"/>
<path class="st0" d="M537.3,341.1c-3.4-0.2-6.7-0.5-10.1-0.8"/>
<path class="st0" d="M521.6,339.7c-1.7-0.2-3.4-0.4-5-0.6"/>
<path class="st0" d="M486.6,333.7c-6.8-1.6-13.5-3.3-20.2-5.3"/>
<path class="st0" d="M453.6,324.2c-1.1-0.4-2.1-0.7-3.2-1.1"/>
<path class="st0" d="M437.7,318.3c-0.4-0.1-0.7-0.3-1.1-0.4"/>
<path class="st0" d="M424.3,312.5c-3.6-1.6-7.1-3.3-10.7-5.1"/>
<path class="st0" d="M411.6,306.4c-1.8-0.9-3.7-1.9-5.5-2.9"/>
<path class="st0" d="M403.6,302.1c-3.1-1.7-6.2-3.5-9.3-5.3"/>
<path class="st0" d="M385.7,291.5c-2.7-1.7-5.4-3.5-8-5.3"/>
<path class="st0" d="M374.8,284.4c-4-2.8-8-5.7-11.9-8.6"/>
<path class="st0" d="M356.3,270.6c-2.2-1.8-4.4-3.6-6.5-5.4"/>
<path class="st0" d="M338,254.7c-7.3-6.8-14.2-14-20.9-21.4"/>
<path class="st0" d="M313.1,228.6c-13.9-16.3-26.2-34-36.6-52.7"/>
<path class="st0" d="M401,288.6c-1.2-0.7-2.5-1.5-3.7-2.2"/>
<path class="st0" d="M388.5,280.9c-2.6-1.7-5.2-3.4-7.7-5.2"/>
<path class="st0" d="M359.9,260c-0.3-0.2-0.5-0.5-0.8-0.7"/>
<path class="st0" d="M348,249.6c-1.6-1.5-3.2-3-4.8-4.5"/>
<path class="st0" d="M338.1,240.2c-0.4-0.4-0.8-0.8-1.1-1.1"/>
<path class="st0" d="M332,233.9c-1.5-1.6-3-3.2-4.4-4.8"/>
<path class="st0" d="M317.9,218c-1.4-1.7-2.8-3.4-4.1-5.1"/>
<path class="st0" d="M309.5,207.3c-1-1.3-2-2.6-2.9-3.9"/>
<path class="st0" d="M305.6,202.1c-1.2-1.6-2.3-3.3-3.5-4.9"/>
<path class="st0" d="M298.4,191.8c-1.1-1.7-2.2-3.3-3.3-5"/>
<path class="st0" d="M291.7,181.2c-1-1.7-2.1-3.4-3.1-5.2"/>
<path class="st0" d="M542.9,320.4c-1.8-0.1-3.5-0.2-5.3-0.3"/>
<path class="st0" d="M488.7,312.6c-6.5-1.5-12.9-3.3-19.3-5.3"/>
<path class="st0" d="M453.9,302.1c-4.5-1.6-8.9-3.4-13.2-5.3"/>
<path class="st0" d="M429.2,291.6c-3.6-1.7-7.3-3.5-10.8-5.4"/>
<path class="st0" d="M392,270.7c-0.4-0.3-0.9-0.6-1.3-0.9"/>
<path class="st0" d="M377,260c-8-6-15.7-12.4-23-19.2"/>
<path class="st0" d="M352,239c-19.8-18.5-36.9-39.7-51-62.8"/>
<path class="st0" d="M411.7,270.5c-1.8-1-3.5-2.1-5.3-3.1"/>
<path class="st0" d="M390.7,257c-1.1-0.8-2.2-1.6-3.3-2.4"/>
<path class="st0" d="M380,249.2c-1.7-1.3-3.5-2.7-5.2-4.1"/>
<path class="st0" d="M374.1,244.4c-2.1-1.7-4.2-3.5-6.2-5.2"/>
<path class="st0" d="M361.8,233.7c-0.9-0.8-1.7-1.6-2.6-2.4"/>
<path class="st0" d="M356.2,228.5c-1.8-1.8-3.6-3.6-5.4-5.4"/>
<path class="st0" d="M345.9,218c-1.6-1.7-3.2-3.5-4.8-5.3"/>
<path class="st0" d="M338,209.3c-0.6-0.6-1.1-1.3-1.6-1.9"/>
<path class="st0" d="M332.2,202.3c-1.4-1.7-2.8-3.4-4.1-5.2"/>
<path class="st0" d="M327.8,196.7c-3.8-5-7.5-10.1-11-15.3"/>
<path class="st0" d="M547.9,299.6c-10-0.4-19.9-1.3-29.8-2.7"/>
<path class="st0" d="M491.2,291.6c-6.2-1.5-12.3-3.3-18.4-5.2"/>
<path class="st0" d="M458,281.2c-4.3-1.6-8.5-3.4-12.7-5.2"/>
<path class="st0" d="M433.8,270.5c-3.4-1.7-6.7-3.4-10-5.2"/>
<path class="st0" d="M414.4,260c-10.1-6-19.8-12.7-29.1-20"/>
<path class="st0" d="M384.2,239.1c-2.2-1.7-4.3-3.5-6.4-5.3"/>
<path class="st0" d="M374.7,231.2c-18.7-16.2-35.2-34.8-49-55.3"/>
<path class="st0" d="M547.9,289.1c-9.8-0.4-19.5-1.3-29.1-2.8"/>
<path class="st0" d="M492.4,281.1c-4.3-1.1-8.5-2.3-12.7-3.6"/>
<path class="st0" d="M427.2,255.2c-0.3-0.2-0.6-0.3-0.8-0.5"/>
<path class="st0" d="M417,249.2c-1.7-1.1-3.5-2.2-5.2-3.3"/>
<path class="st0" d="M406.3,242.3c-1.6-1.1-3.1-2.1-4.6-3.2"/>
<path class="st0" d="M387.8,228.5c-2.1-1.7-4.1-3.4-6.1-5.2"/>
<path class="st0" d="M375.6,218c-0.2-0.2-0.5-0.4-0.7-0.6"/>
<path class="st0" d="M370.1,212.8c-1.8-1.8-3.6-3.5-5.3-5.3"/>
<path class="st0" d="M359.9,202.3c-3.2-3.5-6.3-7-9.3-10.7"/>
<path class="st0" d="M346.4,186.5c-2.7-3.5-5.4-7-7.9-10.6"/>
<path class="st0" d="M553.3,278.8c-11.2-0.2-22.4-1.2-33.4-2.9"/>
<path class="st0" d="M494.1,270.7c-4.8-1.2-9.6-2.6-14.4-4.1"/>
<path class="st0" d="M469.4,263c-1.8-0.7-3.7-1.4-5.5-2.1"/>
<path class="st0" d="M461.7,260.1c-4.1-1.6-8.1-3.4-12.1-5.2"/>
<path class="st0" d="M443.1,251.7c-1.8-0.9-3.5-1.8-5.2-2.7"/>
<path class="st0" d="M432.7,246.3c-7.3-4-14.4-8.4-21.2-13.1"/>
<path class="st0" d="M406.3,229.5c-7.2-5.2-14.2-10.8-20.9-16.8"/>
<path class="st0" d="M380.1,207.8c-10.3-9.8-19.9-20.4-28.5-31.7"/>
<path class="st0" d="M542.6,267.8c-7-0.4-13.9-1.2-20.8-2.2"/>
<path class="st0" d="M495.4,260.2c-5.9-1.5-11.7-3.3-17.5-5.3"/>
<path class="st0" d="M458.8,247.5c-2.3-1-4.5-2-6.7-3.1"/>
<path class="st0" d="M441.6,239.2c-1.3-0.7-2.6-1.4-3.8-2.1"/>
<path class="st0" d="M423.6,228.6c-2.6-1.7-5.1-3.4-7.6-5.1"/>
<path class="st0" d="M408.5,218.1c-0.7-0.5-1.4-1-2.1-1.6"/>
<path class="st0" d="M401.7,212.8c-2-1.6-4-3.3-6-5"/>
<path class="st0" d="M390.8,203.4c-1.8-1.7-3.6-3.4-5.4-5.1"/>
<path class="st0" d="M384.1,197.1c-1.8-1.7-3.5-3.5-5.2-5.3"/>
<path class="st0" d="M375,187.7c-1.9-2-3.7-4.1-5.5-6.2"/>
<path class="st0" d="M369.3,181.2c-1.4-1.7-2.8-3.3-4.2-5"/>
<path class="st0" d="M553.3,257.8c-10.7-0.2-21.4-1.2-32-2.9"/>
<path class="st0" d="M506.2,252c-9-2-17.8-4.5-26.4-7.6"/>
<path class="st0" d="M474.6,242.6c-9-3.4-17.8-7.3-26.3-11.7"/>
<path class="st0" d="M444.3,228.7c-24.9-13.5-47.1-31.4-65.7-52.7"/>
<path class="st0" d="M548,247.1c-1.7-0.1-3.5-0.2-5.2-0.3"/>
<path class="st0" d="M537.6,246.4c-3.6-0.3-7.1-0.7-10.7-1.2"/>
<path class="st0" d="M498,239.2c-5.6-1.6-11.2-3.3-16.7-5.3"/>
<path class="st0" d="M469.4,229.2c-0.5-0.2-1-0.4-1.5-0.6"/>
<path class="st0" d="M458.9,224.4c-0.7-0.3-1.4-0.7-2.1-1.1"/>
<path class="st0" d="M446.9,218.1c-5.8-3.3-11.5-6.8-17-10.5"/>
<path class="st0" d="M427.3,205.8c-1.7-1.2-3.5-2.5-5.2-3.7"/>
<path class="st0" d="M415.8,197.2c-2.2-1.7-4.3-3.5-6.5-5.4"/>
<path class="st0" d="M406.4,189.2c-1-0.9-2-1.8-3-2.7"/>
<path class="st0" d="M398,181.3c-1.7-1.7-3.4-3.4-5-5.1"/>
<path class="st0" d="M553.4,236.8c-32.7-0.8-64.9-9-94-23.9"/>
<path class="st0" d="M453.7,209.9c-16.7-9.2-32.1-20.5-45.9-33.7"/>
<path class="st0" d="M548.2,226.1c-3.6-0.2-7.2-0.5-10.8-0.8"/>
<path class="st0" d="M532.3,224.7c-2.8-0.4-5.5-0.8-8.2-1.2"/>
<path class="st0" d="M495.6,216.6c-3.6-1.1-7.1-2.4-10.6-3.7"/>
<path class="st0" d="M452.4,197.1c-2.8-1.7-5.6-3.4-8.3-5.2"/>
<path class="st0" d="M437.9,187.6c-0.5-0.4-1-0.7-1.5-1.1"/>
<path class="st0" d="M429.8,181.5c-2.2-1.7-4.3-3.5-6.4-5.3"/>
<path class="st0" d="M553.2,215.8c-9.5-0.3-19-1.2-28.4-2.9"/>
<path class="st0" d="M453.7,185.6c-4.7-2.9-9.2-6.1-13.6-9.4"/>
<g>
	<polyline class="st1" points="0.4,16.2 0.4,0 16.5,0 	"/>
	<polyline class="st1" points="692.3,652 708.5,652 708.5,635.8 	"/>
</g>
</svg>
