<?xml version="1.0" encoding="utf-8"?>
<!-- Generator: Adobe Illustrator 22.0.0, SVG Export Plug-In . SVG Version: 6.00 Build 0)  -->
<svg version="1.0" id="Layer_1" xmlns="http://www.w3.org/2000/svg" xmlns:xlink="http://www.w3.org/1999/xlink" x="0px" y="0px"
	 viewBox="0 0 708.7 652" style="enable-background:new 0 0 708.7 652;" xml:space="preserve">
<style type="text/css">
	.st0{fill:#181818;}
	.st1{fill:none;stroke:#EB3593;stroke-miterlimit:10;}
</style>
<g>
	<path class="st0" d="M560.1,189.3L175.3,557.1L49.2,484.3L560.1,189.3 M593.6,164.2l-36,20.8L46.7,480l-7.5,4.3l7.5,4.3l126.1,72.8
		l3.2,1.9l2.7-2.6L563.6,193L593.6,164.2L593.6,164.2z"/>
</g>
<g>
	<path class="st0" d="M558.1,181.3L45.2,477.5l0-156L558.1,181.3 M594.2,166.3l-37.3,10.2L43.9,316.7l-3.7,1l0,3.8l0,156l0,8.7
		l7.5-4.3l512.9-296.1L594.2,166.3L594.2,166.3z"/>
</g>
<g>
	<path class="st0" d="M582.7,184.2V482L324.8,630.9L582.7,184.2 M587.7,165.5l-9.3,16.2L320.5,628.4l-9.3,16.2l16.2-9.3l257.9-148.9
		l2.5-1.4V482V184.2V165.5L587.7,165.5z"/>
</g>
<g>
	<path class="st0" d="M314,16.5l257.9,149H143.1v-50.3L314,16.5 M314,10.7l-2.5,1.4l-170.8,98.7l-2.5,1.4v2.9v50.3v5h5h428.8h18.7
		l-16.2-9.3l-257.9-149L314,10.7L314,10.7z"/>
</g>
<g>
	<path class="st0" d="M557.1,173.4L45.2,313.3V210.5h97.9v-37.1H557.1 M594.4,168.4h-37.3h-414h-5v5v32.1H45.2h-5v5v102.8v6.5
		l6.3-1.7l511.9-139.9L594.4,168.4L594.4,168.4z"/>
</g>
<g>
	<path class="st0" d="M569.4,191.4L312.5,636.3l-130.1-75.1L569.4,191.4 M591.2,163.7L566,187.8L179,557.6l-4.8,4.6l5.8,3.3
		L310,640.7l4.3,2.5l2.5-4.3l256.9-444.9L591.2,163.7L591.2,163.7z"/>
</g>
<g>
	<polyline class="st1" points="0.4,16.2 0.4,0 16.5,0 	"/>
	<polyline class="st1" points="672.3,652 688.5,652 688.5,635.8 	"/>
</g>
</svg>
