<?xml version="1.0" encoding="utf-8"?>
<!-- Generator: Adobe Illustrator 22.0.0, SVG Export Plug-In . SVG Version: 6.00 Build 0)  -->
<svg version="1.0" id="Layer_1" xmlns="http://www.w3.org/2000/svg" xmlns:xlink="http://www.w3.org/1999/xlink" x="0px" y="0px"
	 viewBox="0 0 708.7 652" style="enable-background:new 0 0 708.7 652;" xml:space="preserve">
<style type="text/css">
	.st0{fill:none;stroke:#CCCCCC;stroke-linecap:round;}
	.st1{fill:none;stroke:#EB3593;stroke-miterlimit:10;}
</style>
<path class="st0" d="M592.6,475.2c-1.6,1.9-3.2,3.8-4.8,5.7"/>
<path class="st0" d="M578,492.1c-1.4,1.5-2.8,3.1-4.2,4.6"/>
<path class="st0" d="M568.9,502.2c-0.8,0.9-1.7,1.8-2.5,2.7"/>
<path class="st0" d="M592.3,459c-1.8,2.2-3.6,4.4-5.4,6.6"/>
<path class="st0" d="M581.4,472.2c-4,4.7-8,9.3-12,13.8"/>
<path class="st0" d="M566.1,489.7c-0.6,0.6-1.1,1.2-1.7,1.8"/>
<path class="st0" d="M554.4,502.2c-1.4,1.5-2.8,2.9-4.2,4.4"/>
<path class="st0" d="M549.4,507.5c-1.4,1.5-2.9,2.9-4.3,4.4"/>
<path class="st0" d="M576.5,461.7c-2.6,3.1-5.2,6.1-7.8,9.2"/>
<path class="st0" d="M566.4,473.6c-2.1,2.4-4.2,4.8-6.4,7.2"/>
<path class="st0" d="M555.9,485.3c-3.5,3.9-7.1,7.7-10.7,11.4"/>
<path class="st0" d="M507.1,533.6c-1.2,1.1-2.4,2.1-3.6,3.2"/>
<path class="st0" d="M500.7,539.1c-3.9,3.4-7.9,6.8-11.9,10.1"/>
<path class="st0" d="M469.1,565.1c-1,0.7-1.9,1.5-2.9,2.2"/>
<path class="st0" d="M450.8,578.8c-1,0.7-2,1.4-2.9,2.1"/>
<path class="st0" d="M581.9,438.4c-22.2,28.3-46.7,54.9-73.1,79.3"/>
<path class="st0" d="M508,518.5c-3.5,3.2-7,6.4-10.6,9.5"/>
<path class="st0" d="M493,532c-0.6,0.5-1.2,1-1.8,1.6"/>
<path class="st0" d="M472,549.5c-0.3,0.2-0.6,0.5-0.9,0.7"/>
<path class="st0" d="M465.5,554.6c-1.6,1.2-3.1,2.4-4.7,3.6"/>
<path class="st0" d="M458.9,559.7c-4.4,3.4-8.8,6.7-13.3,9.9"/>
<path class="st0" d="M576.5,428.3c-5,6.5-10.1,12.8-15.3,19.1"/>
<path class="st0" d="M558.9,450.1c-5.8,6.8-11.7,13.6-17.7,20.2"/>
<path class="st0" d="M539.6,472c-7.9,8.6-16,17-24.4,25.2"/>
<path class="st0" d="M513.6,498.8c-1.1,1.1-2.2,2.2-3.4,3.2"/>
<path class="st0" d="M508.5,503.6c-8.7,8.3-17.7,16.4-26.9,24.3"/>
<path class="st0" d="M480.8,528.7c-4.7,4-9.5,8-14.4,11.9"/>
<path class="st0" d="M450.7,552.8c-0.6,0.5-1.2,0.9-1.9,1.4"/>
<path class="st0" d="M434.7,564.5c-0.3,0.2-0.6,0.5-1,0.7"/>
<path class="st0" d="M582,403.4c-33.2,46.1-72.1,87.8-116,123.9"/>
<path class="st0" d="M465.1,528c-1.5,1.2-3,2.4-4.5,3.6"/>
<path class="st0" d="M458,533.8c-0.6,0.5-1.2,1-1.8,1.4"/>
<path class="st0" d="M451.7,538.8c-24.8,19.3-51,36.8-78.3,52.4"/>
<path class="st0" d="M371.4,592.4c-2.3,1.3-4.7,2.6-7,3.9"/>
<path class="st0" d="M354.2,601.7c-1,0.5-2,1.1-3,1.6"/>
<path class="st0" d="M346,606c-3.8,1.9-7.5,3.8-11.3,5.6"/>
<path class="st0" d="M324.4,616.5c-0.7,0.3-1.4,0.6-2.1,1"/>
<path class="st0" d="M319.1,618.9c-7,3.2-14,6.2-21.1,9.1"/>
<path class="st0" d="M576.7,392.7c-13,18.5-27.1,36.3-42,53.3"/>
<path class="st0" d="M531.8,449.4c-4.3,4.8-8.6,9.5-13,14.2"/>
<path class="st0" d="M517.2,465.2c-2.9,3-5.7,6-8.6,8.9"/>
<path class="st0" d="M507,475.8c-4.8,4.8-9.6,9.6-14.6,14.2"/>
<path class="st0" d="M490.8,491.6c-2.7,2.6-5.5,5.1-8.3,7.7"/>
<path class="st0" d="M479.1,502.3c-4.2,3.8-8.5,7.5-12.8,11.1"/>
<path class="st0" d="M455.8,522.1c-0.3,0.2-0.6,0.5-0.9,0.7"/>
<path class="st0" d="M441.6,533.3c-3.9,3-7.8,5.9-11.8,8.8"/>
<path class="st0" d="M427.1,544.1c-0.9,0.7-1.8,1.3-2.7,2"/>
<path class="st0" d="M419.7,549.4c-1.8,1.3-3.7,2.6-5.6,3.9"/>
<path class="st0" d="M402.9,560.8c-6.9,4.6-14,9-21.1,13.3"/>
<path class="st0" d="M379.9,575.3c-1,0.6-1.9,1.2-2.9,1.7"/>
<path class="st0" d="M372.1,579.8c-2,1.1-3.9,2.3-5.9,3.4"/>
<path class="st0" d="M356.3,588.7c-1.7,0.9-3.3,1.8-5,2.7"/>
<path class="st0" d="M330.2,602.1c-1.7,0.8-3.4,1.6-5.1,2.5"/>
<path class="st0" d="M581.9,366.3c-37.5,57.7-84,108.9-137.9,151.8"/>
<path class="st0" d="M439.6,521.6c-0.6,0.5-1.2,0.9-1.7,1.4"/>
<path class="st0" d="M435.2,525c-26.5,20.3-54.6,38.6-83.9,54.5"/>
<path class="st0" d="M340.5,585.2c-19.1,9.9-38.7,18.8-58.7,26.8"/>
<path class="st0" d="M581.9,346.7c-0.8,1.2-1.5,2.5-2.3,3.7"/>
<path class="st0" d="M576.6,355.1c-17.6,27.7-37.4,54.1-59.1,78.7"/>
<path class="st0" d="M513.9,437.9c-2,2.2-3.9,4.3-5.9,6.5"/>
<path class="st0" d="M502.8,450c-3.3,3.4-6.5,6.8-9.9,10.2"/>
<path class="st0" d="M487.5,465.6c-1.8,1.8-3.7,3.6-5.5,5.4"/>
<path class="st0" d="M477.2,475.5c-4,3.8-8,7.5-12.1,11.1"/>
<path class="st0" d="M461,490.2c-2.5,2.2-5,4.3-7.5,6.5"/>
<path class="st0" d="M450.2,499.5c-6.7,5.6-13.5,11.1-20.5,16.5"/>
<path class="st0" d="M427.1,518c-0.9,0.7-1.7,1.3-2.6,2"/>
<path class="st0" d="M420.1,523.2c-2.1,1.5-4.1,3-6.2,4.5"/>
<path class="st0" d="M413,528.4c-1.5,1.1-3,2.1-4.4,3.2"/>
<path class="st0" d="M405.9,533.5c-9.3,6.5-18.7,12.7-28.3,18.7"/>
<path class="st0" d="M373.8,554.4c-0.6,0.4-1.2,0.8-1.9,1.1"/>
<path class="st0" d="M336.6,575.4c-0.6,0.3-1.3,0.7-1.9,1"/>
<path class="st0" d="M329.8,578.9c-1.3,0.7-2.6,1.3-3.9,2"/>
<path class="st0" d="M324.9,581.4c-3.6,1.8-7.2,3.5-10.8,5.2"/>
<path class="st0" d="M303.1,591.6c-1.7,0.7-3.3,1.5-5,2.2"/>
<path class="st0" d="M293.1,596c-0.3,0.1-0.7,0.3-1,0.4"/>
<path class="st0" d="M276.9,602.6c-1.7,0.7-3.4,1.3-5.1,2"/>
<path class="st0" d="M581.7,326.4C531.9,413,461.8,486.2,377.5,539.8"/>
<path class="st0" d="M361,549.9c-33.4,19.7-68.6,36.3-105.1,49.4"/>
<path class="st0" d="M596,276.2c-2.8,6.1-5.8,12.1-8.8,18.1"/>
<path class="st0" d="M581.8,304.5c-0.7,1.2-1.3,2.5-2,3.7"/>
<path class="st0" d="M576.8,313.8c-19.4,34.9-42.2,67.7-68.1,98.1"/>
<path class="st0" d="M499,423.1c-6.6,7.4-13.3,14.6-20.3,21.6"/>
<path class="st0" d="M477.2,446.2c-4.7,4.8-9.5,9.4-14.4,14"/>
<path class="st0" d="M461.3,461.7c-3.1,2.9-6.2,5.8-9.4,8.6"/>
<path class="st0" d="M450.3,471.7c-6.9,6.1-13.8,12.1-21,17.8"/>
<path class="st0" d="M426.9,491.5c-6,4.9-12.2,9.6-18.4,14.2"/>
<path class="st0" d="M406.8,507c-2.5,1.9-5.1,3.7-7.7,5.6"/>
<path class="st0" d="M398.2,513.2c-1.7,1.2-3.5,2.4-5.2,3.7"/>
<path class="st0" d="M371.8,530.9c-1.5,0.9-3,1.9-4.5,2.8"/>
<path class="st0" d="M366.5,534.3c-2.4,1.5-4.8,3-7.2,4.4"/>
<path class="st0" d="M356.5,540.3c-1.8,1.1-3.7,2.2-5.5,3.2"/>
<path class="st0" d="M350.1,544.1c-4.9,2.8-9.8,5.6-14.8,8.3"/>
<path class="st0" d="M325,557.8c-3.8,1.9-7.5,3.8-11.3,5.7"/>
<path class="st0" d="M310.9,564.9c-0.6,0.3-1.3,0.6-1.9,0.9"/>
<path class="st0" d="M303.2,568.5c-1.3,0.6-2.6,1.2-3.8,1.8"/>
<path class="st0" d="M287.8,575.4c-1.6,0.7-3.2,1.4-4.8,2.1"/>
<path class="st0" d="M277,579.9c-0.6,0.3-1.3,0.5-1.9,0.8"/>
<path class="st0" d="M272.1,581.9c-3.6,1.4-7.2,2.9-10.9,4.2"/>
<path class="st0" d="M247.4,591.2c-0.7,0.2-1.3,0.5-2,0.7"/>
<path class="st0" d="M582,281.1c-23.4,47.7-53,92.1-88.1,131.9"/>
<path class="st0" d="M479.9,428.4c-25,26.5-52.4,50.6-81.9,72"/>
<path class="st0" d="M382.7,511.2c-47,32.1-98.4,57.3-152.6,74.8"/>
<path class="st0" d="M577.5,266.3c-23.9,51.3-55.2,98.9-92.8,141.3"/>
<path class="st0" d="M482,410.6c-1.6,1.8-3.2,3.5-4.8,5.3"/>
<path class="st0" d="M470.2,423.4c-16,16.7-33,32.5-50.9,47.3"/>
<path class="st0" d="M392.7,491.3c-2.5,1.8-4.9,3.6-7.4,5.4"/>
<path class="st0" d="M382.7,498.4c-1.7,1.2-3.4,2.3-5.1,3.5"/>
<path class="st0" d="M376.8,502.5c-5.1,3.5-10.2,6.8-15.3,10.1"/>
<path class="st0" d="M356.3,515.9c-0.9,0.5-1.7,1.1-2.6,1.6"/>
<path class="st0" d="M351.1,519.1c-7,4.2-14.1,8.3-21.2,12.3"/>
<path class="st0" d="M326.3,533.4c-5.7,3.1-11.4,6.1-17.2,9"/>
<path class="st0" d="M306.3,543.7c-0.9,0.5-1.8,0.9-2.7,1.3"/>
<path class="st0" d="M298,547.7c-0.9,0.4-1.8,0.9-2.8,1.3"/>
<path class="st0" d="M293.4,549.9c-3.4,1.6-6.8,3.1-10.2,4.6"/>
<path class="st0" d="M271.9,559.4c-3.5,1.4-6.9,2.8-10.4,4.2"/>
<path class="st0" d="M258.6,564.7c-0.6,0.2-1.3,0.5-1.9,0.7"/>
<path class="st0" d="M251,567.6c-1.6,0.6-3.2,1.2-4.8,1.8"/>
<path class="st0" d="M229.8,575c-0.3,0.1-0.6,0.2-1,0.3"/>
<path class="st0" d="M224.9,576.6c-1.6,0.5-3.3,1-4.9,1.5"/>
<path class="st0" d="M198.5,584.4c-1.6,0.4-3.3,0.9-4.9,1.3"/>
<path class="st0" d="M593.4,197.5c-2,6-4.1,12.1-6.2,18"/>
<path class="st0" d="M581.8,229.6c-32.1,81.6-82.5,154.7-147.2,213.8"/>
<path class="st0" d="M433.8,444.1c-1.5,1.3-3,2.7-4.5,4"/>
<path class="st0" d="M427.9,449.5c-1.2,1.1-2.5,2.2-3.8,3.3"/>
<path class="st0" d="M408.7,465.7c-23.1,18.7-47.7,35.7-73.5,50.6"/>
<path class="st0" d="M330,519.3c-38.2,21.6-78.7,38.8-120.8,51.1"/>
<path class="st0" d="M193.8,574.7c-5.5,1.5-11,2.8-16.6,4.1"/>
<path class="st0" d="M582.2,198c-7.2,21.5-15.7,42.5-25.4,63"/>
<path class="st0" d="M546.2,282.2c-0.3,0.6-0.6,1.2-0.9,1.8"/>
<path class="st0" d="M543.4,287.4c-7.5,13.9-15.6,27.4-24.2,40.6"/>
<path class="st0" d="M513.7,336.2c-18.7,27.4-39.7,53.2-62.9,76.9"/>
<path class="st0" d="M446,418c-0.2,0.2-0.5,0.5-0.7,0.7"/>
<path class="st0" d="M424.6,438.4c-12.4,11.2-25.4,21.9-38.8,31.9"/>
<path class="st0" d="M382.6,472.6c-6.9,5.1-13.8,10-20.9,14.8"/>
<path class="st0" d="M356,491.2c-2.8,1.8-5.5,3.6-8.3,5.3"/>
<path class="st0" d="M346,497.6c-5.3,3.3-10.6,6.5-16,9.7"/>
<path class="st0" d="M324.9,510.2c-1.4,0.8-2.8,1.6-4.3,2.4"/>
<path class="st0" d="M319.7,513c-2.9,1.6-5.8,3.2-8.7,4.7"/>
<path class="st0" d="M309.3,518.6c-1.7,0.9-3.5,1.8-5.3,2.7"/>
<path class="st0" d="M301.4,522.7c-0.9,0.4-1.8,0.9-2.6,1.3"/>
<path class="st0" d="M293.5,526.6c-1.8,0.9-3.6,1.7-5.3,2.6"/>
<path class="st0" d="M282.8,531.7c-5.1,2.3-10.2,4.6-15.3,6.8"/>
<path class="st0" d="M266.6,538.8c-3.3,1.4-6.7,2.8-10,4.1"/>
<path class="st0" d="M253.8,544c-0.9,0.4-1.8,0.7-2.7,1.1"/>
<path class="st0" d="M245.5,547.2c-5.2,2-10.5,3.9-15.8,5.7"/>
<path class="st0" d="M219.5,556.3c-5.3,1.7-10.6,3.3-16,4.9"/>
<path class="st0" d="M198.7,562.5c-1.9,0.5-3.8,1.1-5.7,1.6"/>
<path class="st0" d="M172,569.3c-1,0.2-1.9,0.4-2.9,0.6"/>
<path class="st0" d="M569.4,202.9c-1,2.7-1.9,5.5-3,8.2"/>
<path class="st0" d="M565.4,213.8c-21,55.9-50.9,108.1-88.6,154.4"/>
<path class="st0" d="M474.3,371.3c-0.8,1-1.6,2-2.5,3"/>
<path class="st0" d="M470,376.4c-1.3,1.5-2.5,3-3.8,4.4"/>
<path class="st0" d="M445.4,403.7c-1.3,1.4-2.7,2.8-4,4.1"/>
<path class="st0" d="M440,409.2c-68.3,68.8-153.4,118.4-246.9,144"/>
<path class="st0" d="M189.4,554.2c-0.3,0.1-0.6,0.2-0.9,0.2"/>
<path class="st0" d="M558.2,203c-0.6,1.8-1.3,3.6-2,5.3"/>
<path class="st0" d="M555.9,209.2c-0.6,1.5-1.1,3-1.7,4.4"/>
<path class="st0" d="M550.4,223.4c-0.1,0.3-0.2,0.6-0.4,0.9"/>
<path class="st0" d="M519.4,287.3c-0.2,0.3-0.3,0.6-0.5,0.8"/>
<path class="st0" d="M471.6,358c-0.6,0.7-1.2,1.5-1.8,2.2"/>
<path class="st0" d="M466.2,364.6c-3.2,3.9-6.5,7.8-9.8,11.6"/>
<path class="st0" d="M455.8,376.9c-20.8,23.8-43.7,45.7-68.4,65.6"/>
<path class="st0" d="M378.5,449.5c-5.5,4.2-11.1,8.4-16.8,12.4"/>
<path class="st0" d="M357.1,465.2c-2.6,1.8-5.2,3.6-7.8,5.3"/>
<path class="st0" d="M345.3,473.1c-4,2.6-8,5.2-12,7.7"/>
<path class="st0" d="M330.1,482.8c-1.9,1.2-3.8,2.3-5.7,3.4"/>
<path class="st0" d="M319.5,489c-4.4,2.5-8.8,5-13.2,7.4"/>
<path class="st0" d="M303.7,497.8c-1.7,0.9-3.3,1.8-5,2.7"/>
<path class="st0" d="M296.2,501.8c-7.9,4.1-15.8,7.9-23.9,11.6"/>
<path class="st0" d="M267.1,515.7c-1.4,0.6-2.9,1.3-4.3,1.9"/>
<path class="st0" d="M256.6,520.2c-1.7,0.7-3.5,1.5-5.2,2.2"/>
<path class="st0" d="M250.5,522.8c-1.5,0.6-2.9,1.2-4.4,1.8"/>
<path class="st0" d="M240.8,526.6c-1.8,0.7-3.5,1.3-5.3,2"/>
<path class="st0" d="M230.1,530.5c-1.8,0.6-3.6,1.3-5.4,1.9"/>
<path class="st0" d="M222.1,533.3c-4.2,1.4-8.4,2.8-12.6,4.1"/>
<path class="st0" d="M205.8,538.6c-0.6,0.2-1.2,0.4-1.8,0.5"/>
<path class="st0" d="M188.5,543.6c-0.3,0.1-0.6,0.2-0.9,0.2"/>
<path class="st0" d="M177.5,546.4c-1.5,0.4-3.1,0.8-4.6,1.1"/>
<path class="st0" d="M146,553.2c-1.6,0.3-3.1,0.6-4.7,0.8"/>
<path class="st0" d="M140.4,554.2c-3.4,0.6-6.9,1.2-10.3,1.7"/>
<path class="st0" d="M549,197.7c-0.6,1.8-1.3,3.5-1.9,5.3"/>
<path class="st0" d="M545.4,207.3c-0.1,0.3-0.2,0.6-0.3,0.9"/>
<path class="st0" d="M543.1,213.4c-56.4,143.9-172.5,256.3-318.3,307.9"/>
<path class="st0" d="M220.4,522.8c-0.3,0.1-0.6,0.2-0.9,0.3"/>
<path class="st0" d="M209,526.6c-1.5,0.5-3,0.9-4.4,1.4"/>
<path class="st0" d="M203.6,528.3c-15.4,4.7-31,8.8-46.8,12.1"/>
<path class="st0" d="M139.5,543.7c-8.2,1.5-16.5,2.7-24.8,3.8"/>
<path class="st0" d="M540,191.6c-0.1,0.3-0.2,0.6-0.3,0.8"/>
<path class="st0" d="M535.9,202.7c-0.4,1.1-0.9,2.3-1.3,3.4"/>
<path class="st0" d="M534,207.9c-0.8,2-1.5,4-2.3,5.9"/>
<path class="st0" d="M522.7,234.8c-36.1,79.6-91.6,148.8-161.3,201.4"/>
<path class="st0" d="M357.7,438.9c-2.4,1.8-4.9,3.6-7.4,5.4"/>
<path class="st0" d="M345.8,447.4c-3.5,2.4-7,4.8-10.5,7.2"/>
<path class="st0" d="M326.9,460c-5.9,3.7-11.9,7.4-17.9,10.9"/>
<path class="st0" d="M303.4,474.1c-7.4,4.2-14.9,8.2-22.5,12"/>
<path class="st0" d="M277.6,487.7c-1.9,0.9-3.8,1.9-5.7,2.8"/>
<path class="st0" d="M270.2,491.2c-4.7,2.2-9.4,4.3-14.1,6.4"/>
<path class="st0" d="M251.1,499.8c-1.7,0.7-3.4,1.4-5,2.1"/>
<path class="st0" d="M202.3,517.7c-1.2,0.4-2.3,0.7-3.5,1.1"/>
<path class="st0" d="M535.7,171.2c-1.2,3.7-2.3,7.4-3.6,11.1"/>
<path class="st0" d="M530.4,187.3c-1.2,3.4-2.4,6.7-3.6,10.1"/>
<path class="st0" d="M522.6,208.2c-3.5,8.9-7.3,17.6-11.3,26.3"/>
<path class="st0" d="M501,255.3c-40.9,78.6-101.6,145.3-176,193.4"/>
<path class="st0" d="M315.2,454.9c-2,1.2-4.1,2.5-6.1,3.7"/>
<path class="st0" d="M298.2,464.9c-8.6,4.8-17.3,9.4-26.1,13.7"/>
<path class="st0" d="M523,176.4c-0.6,1.9-1.3,3.9-2,5.8"/>
<path class="st0" d="M517.2,192.9c-1.9,5.2-3.9,10.4-6,15.5"/>
<path class="st0" d="M506.8,218.9c-5.4,12.3-11.2,24.4-17.5,36.2"/>
<path class="st0" d="M487.6,258.2c-0.4,0.8-0.8,1.5-1.3,2.3"/>
<path class="st0" d="M474,281.7c-0.8,1.2-1.5,2.5-2.3,3.7"/>
<path class="st0" d="M470.8,286.9c-39.9,63.1-93.4,116.5-156.6,156.3"/>
<path class="st0" d="M513.6,171.5c-1.8,5.4-3.6,10.8-5.6,16.2"/>
<path class="st0" d="M504,198.1c-2.7,6.9-5.6,13.8-8.6,20.5"/>
<path class="st0" d="M490.4,229.5c-9.4,19.9-20.2,39.1-32.2,57.5"/>
<path class="st0" d="M455.8,290.6c-0.3,0.5-0.6,0.9-0.9,1.4"/>
<path class="st0" d="M435.9,318.5c-0.3,0.4-0.7,0.9-1,1.3"/>
<path class="st0" d="M431.7,323.9c-27.7,35-60.1,66-96.2,92.2"/>
<path class="st0" d="M332.7,418.1c-0.9,0.7-1.9,1.3-2.8,2"/>
<path class="st0" d="M325.7,423c-0.2,0.2-0.5,0.3-0.7,0.5"/>
<path class="st0" d="M500.6,176.9c-1.8,5.3-3.8,10.5-5.8,15.7"/>
<path class="st0" d="M493,197.4c-0.1,0.3-0.2,0.5-0.3,0.8"/>
<path class="st0" d="M490.8,202.8c-3,7.2-6.2,14.4-9.5,21.5"/>
<path class="st0" d="M473.5,240c-12.4,23.8-26.7,46.6-42.8,68"/>
<path class="st0" d="M429.6,309.4c-1,1.3-2,2.7-3.1,4"/>
<path class="st0" d="M424.5,316c-0.7,0.9-1.4,1.8-2.1,2.6"/>
<path class="st0" d="M419.3,322.6c-0.4,0.4-0.7,0.9-1.1,1.3"/>
<path class="st0" d="M491.5,171.2c-2.5,7.2-5.1,14.4-8,21.5"/>
<path class="st0" d="M482.3,195.7c-0.3,0.8-0.6,1.5-0.9,2.3"/>
<path class="st0" d="M479.2,203.3c-4.5,10.6-9.4,20.9-14.7,31.1"/>
<path class="st0" d="M459.2,244.6c-18.8,34.3-41.8,66.2-68.5,94.8"/>
<path class="st0" d="M385.6,344.8c-0.9,1-1.9,2-2.8,2.9"/>
<path class="st0" d="M380.4,350.1c-1.7,1.7-3.5,3.5-5.2,5.2"/>
<path class="st0" d="M364.4,365.4c-2,1.9-4.1,3.7-6.1,5.5"/>
<path class="st0" d="M335,390.2c-0.7,0.5-1.3,1-2,1.5"/>
<path class="st0" d="M478.4,176.8c-2.6,7-5.3,14-8.2,20.9"/>
<path class="st0" d="M465.7,208c-5.7,12.7-12,25.1-18.9,37.2"/>
<path class="st0" d="M440.8,255.6c-0.1,0.2-0.3,0.5-0.4,0.7"/>
<path class="st0" d="M437.8,260.3c-1,1.6-2,3.2-3,4.8"/>
<path class="st0" d="M434.4,265.8c-12.4,19.4-26.1,37.8-41.3,55.2"/>
<path class="st0" d="M391,323.4c-1.1,1.2-2.1,2.4-3.2,3.6"/>
<path class="st0" d="M469.1,171.7c-3.8,10.6-8,21-12.7,31.2"/>
<path class="st0" d="M454.2,208c-7.6,16.3-16.2,32.2-25.7,47.5"/>
<path class="st0" d="M421.7,266.1c-0.9,1.3-1.7,2.6-2.6,3.9"/>
<path class="st0" d="M418.3,271.3c-6.3,9.3-13,18.3-20,27.1"/>
<path class="st0" d="M394.8,302.7c-1.5,1.8-3,3.6-4.5,5.4"/>
<path class="st0" d="M387.8,311.1c-0.5,0.6-1,1.2-1.5,1.8"/>
<path class="st0" d="M381.6,318.2c-1.4,1.6-2.8,3.1-4.2,4.6"/>
<path class="st0" d="M371.5,329.1c-3.3,3.4-6.6,6.8-9.9,10.1"/>
<path class="st0" d="M350.2,349.9c-1.5,1.4-3.1,2.8-4.7,4.2"/>
<path class="st0" d="M332.5,365.3c-2.2,1.8-4.5,3.6-6.7,5.4"/>
<path class="st0" d="M303.8,387.1c-2.1,1.5-4.3,3-6.5,4.4"/>
<path class="st0" d="M456,176.8c-3.4,8.8-7.1,17.5-11,26.1"/>
<path class="st0" d="M440,213.2c-7.7,15.5-16.3,30.6-25.8,45.2"/>
<path class="st0" d="M390.1,291.9c-0.8,1-1.6,2-2.4,3"/>
<path class="st0" d="M446.7,171.6c-4.7,12.3-10,24.4-15.8,36.3"/>
<path class="st0" d="M425.5,218.5c-4.8,9-9.8,17.9-15.2,26.6"/>
<path class="st0" d="M408.7,247.6c-0.5,0.8-1.1,1.7-1.6,2.5"/>
<path class="st0" d="M403.8,255.1c-1.2,1.9-2.5,3.7-3.8,5.6"/>
<path class="st0" d="M398.4,263.2c-1.7,2.4-3.4,4.9-5.2,7.3"/>
<path class="st0" d="M392.7,271.1c-1.3,1.8-2.7,3.6-4,5.4"/>
<path class="st0" d="M367.5,302.5c-0.2,0.2-0.3,0.4-0.5,0.6"/>
<path class="st0" d="M357.9,313c-0.5,0.5-1,1.1-1.5,1.6"/>
<path class="st0" d="M352.7,318.4c-1.7,1.8-3.5,3.5-5.3,5.3"/>
<path class="st0" d="M342.1,328.8c-2.2,2.1-4.3,4.1-6.5,6.1"/>
<path class="st0" d="M314.5,352.9c-1,0.8-1.9,1.5-2.9,2.3"/>
<path class="st0" d="M297.9,365.6c-1.6,1.2-3.2,2.3-4.9,3.5"/>
<path class="st0" d="M266.1,386.5c-1.5,0.9-3,1.8-4.5,2.6"/>
<path class="st0" d="M433.5,176.7c-4.3,10.6-9.1,21-14.2,31.1"/>
<path class="st0" d="M408.8,227c-0.4,0.6-0.7,1.3-1.1,1.9"/>
<path class="st0" d="M404.4,234.6c-1,1.7-2,3.3-3,5"/>
<path class="st0" d="M393,252.4c-0.7,1-1.4,2-2,3"/>
<path class="st0" d="M387.2,260.8c-1.3,1.8-2.5,3.6-3.8,5.3"/>
<path class="st0" d="M375.5,276.5c-1.3,1.7-2.7,3.4-4.1,5.1"/>
<path class="st0" d="M422.1,176.7c-5.2,12.4-11.1,24.6-17.5,36.5"/>
<path class="st0" d="M403.6,215c-0.7,1.2-1.4,2.5-2.1,3.7"/>
<path class="st0" d="M398.7,223.6c-1.1,1.8-2.2,3.7-3.3,5.5"/>
<path class="st0" d="M393.2,232.8c-2.5,4-5.1,8-7.7,12"/>
<path class="st0" d="M382.7,248.9c-2.7,3.9-5.4,7.8-8.2,11.6"/>
<path class="st0" d="M370.2,266.1c-2.9,3.8-5.8,7.5-8.8,11.1"/>
<path class="st0" d="M357.8,281.6c-3.1,3.6-6.2,7.2-9.3,10.7"/>
<path class="st0" d="M343.6,297.5c-1.6,1.7-3.2,3.4-4.9,5.1"/>
<path class="st0" d="M335.2,306.2c-0.5,0.5-1,1-1.5,1.5"/>
<path class="st0" d="M283.9,349.8c-0.4,0.3-0.8,0.6-1.2,0.8"/>
<path class="st0" d="M260.2,365.6c-1.2,0.7-2.4,1.5-3.7,2.2"/>
<path class="st0" d="M410.8,176.4c-3.1,7.2-6.4,14.3-10,21.3"/>
<path class="st0" d="M398.3,202.6c-1,1.8-1.9,3.7-2.9,5.5"/>
<path class="st0" d="M393,212.3c-0.2,0.4-0.5,0.8-0.7,1.2"/>
<path class="st0" d="M383.2,229c-0.2,0.4-0.5,0.8-0.7,1.2"/>
<path class="st0" d="M361.1,260.9c-1.3,1.6-2.5,3.3-3.8,4.9"/>
<path class="st0" d="M345.7,279.6c-0.6,0.7-1.2,1.4-1.8,2.1"/>
<path class="st0" d="M339.3,286.8c-1.2,1.4-2.5,2.7-3.8,4.1"/>
<path class="st0" d="M330.2,296.3c-0.3,0.3-0.7,0.7-1,1"/>
<path class="st0" d="M399.3,176.6c-7.3,16.4-15.8,32.3-25.4,47.5"/>
<path class="st0" d="M366.9,234.8c-1.1,1.7-2.3,3.3-3.4,5"/>
<path class="st0" d="M356,250.2c-1.3,1.8-2.7,3.6-4.1,5.3"/>
<path class="st0" d="M351.1,256.6c-1.8,2.3-3.6,4.6-5.5,6.8"/>
<path class="st0" d="M343.5,266c-1.4,1.7-2.9,3.4-4.3,5.1"/>
<path class="st0" d="M334.7,276.2c-4.8,5.4-9.7,10.6-14.8,15.7"/>
<path class="st0" d="M314.6,297.1c-1.9,1.9-3.9,3.7-5.9,5.5"/>
<path class="st0" d="M303.2,307.6c-1.5,1.3-3,2.7-4.6,4"/>
<path class="st0" d="M297.1,312.9c-4.3,3.6-8.6,7.2-13.1,10.6"/>
<path class="st0" d="M277.1,328.8c-3.2,2.4-6.5,4.8-9.9,7.1"/>
<path class="st0" d="M256.6,343c-0.7,0.5-1.5,1-2.3,1.4"/>
<path class="st0" d="M245.7,349.8c-1.7,1-3.5,2.1-5.2,3.1"/>
<path class="st0" d="M165,386.4c-0.9,0.3-1.7,0.6-2.6,0.8"/>
<path class="st0" d="M387.8,176.4c-2.5,5.3-5.1,10.6-7.8,15.9"/>
<path class="st0" d="M377.2,197.5c-2,3.7-4,7.3-6.1,10.9"/>
<path class="st0" d="M368.1,213.5c-1,1.7-2,3.3-3.1,5"/>
<path class="st0" d="M338.7,255.2c-1.5,1.9-3,3.7-4.6,5.5"/>
<path class="st0" d="M324.7,271.6c-1.5,1.6-3,3.2-4.5,4.8"/>
<path class="st0" d="M310.1,286.7c-1.9,1.8-3.8,3.7-5.7,5.5"/>
<path class="st0" d="M376.1,176.6c-8.8,18.4-19.2,36-30.9,52.7"/>
<path class="st0" d="M333.8,244.6c-2.9,3.7-5.9,7.3-8.9,10.9"/>
<path class="st0" d="M320.3,260.8c-3.1,3.5-6.3,6.9-9.5,10.3"/>
<path class="st0" d="M305.9,276.1c-1.8,1.8-3.6,3.6-5.4,5.4"/>
<path class="st0" d="M298.6,283.3c-1.7,1.6-3.4,3.2-5.1,4.8"/>
<path class="st0" d="M289.3,291.9c-0.3,0.3-0.6,0.6-1,0.9"/>
<path class="st0" d="M283,297.3c-2.1,1.8-4.2,3.5-6.4,5.3"/>
<path class="st0" d="M270.2,307.7c-4.4,3.4-8.8,6.7-13.3,9.8"/>
<path class="st0" d="M255.8,318.3c-2.6,1.8-5.2,3.6-7.9,5.4"/>
<path class="st0" d="M239.8,328.8c-1.4,0.9-2.9,1.8-4.3,2.7"/>
<path class="st0" d="M231.1,334.1c-0.2,0.1-0.4,0.2-0.6,0.3"/>
<path class="st0" d="M222.2,339.1c-2.6,1.4-5.2,2.8-7.9,4.2"/>
<path class="st0" d="M193.7,353.1c-1.4,0.6-2.7,1.2-4.1,1.8"/>
<path class="st0" d="M104.7,379.3c-3.6,0.6-7.1,1.1-10.7,1.6"/>
<path class="st0" d="M361.7,182.1c-1.8,3.5-3.7,6.9-5.6,10.4"/>
<path class="st0" d="M353,197.8c-1,1.8-2.1,3.6-3.2,5.3"/>
<path class="st0" d="M346.6,208.4c-0.2,0.3-0.4,0.7-0.6,1"/>
<path class="st0" d="M343.2,213.5c-1.1,1.7-2.3,3.4-3.4,5.1"/>
<path class="st0" d="M336.3,223.8c-1.3,1.8-2.6,3.7-4,5.5"/>
<path class="st0" d="M315.7,250.1c-0.4,0.5-0.8,0.9-1.2,1.4"/>
<path class="st0" d="M311.2,255.2c-1.6,1.8-3.3,3.7-5,5.5"/>
<path class="st0" d="M301.5,265.6c-1,1-2,2.1-3,3.1"/>
<path class="st0" d="M279.1,286.9c-2,1.8-4.1,3.5-6.2,5.2"/>
<path class="st0" d="M352.6,176.7c-11.6,22.4-25.6,43.5-41.8,62.9"/>
<path class="st0" d="M296.9,255.3c-5.1,5.4-10.4,10.6-15.8,15.7"/>
<path class="st0" d="M275.3,276.2c-2.1,1.9-4.2,3.7-6.3,5.5"/>
<path class="st0" d="M262,287.4c-1.9,1.5-3.8,3-5.7,4.5"/>
<path class="st0" d="M249.1,297.2c-2.4,1.8-4.9,3.5-7.4,5.2"/>
<path class="st0" d="M233.8,307.8c-1.2,0.8-2.4,1.5-3.5,2.3"/>
<path class="st0" d="M225.7,312.9c-0.2,0.1-0.3,0.2-0.5,0.3"/>
<path class="st0" d="M216.3,318.3c-2.3,1.3-4.5,2.5-6.8,3.8"/>
<path class="st0" d="M204.2,324.9c-2.5,1.3-5,2.5-7.5,3.7"/>
<path class="st0" d="M193.4,330.2c-2.7,1.3-5.4,2.5-8.2,3.7"/>
<path class="st0" d="M340.9,176.5c-1.9,3.6-3.9,7.1-6,10.7"/>
<path class="st0" d="M331.9,192.2c-1.1,1.8-2.2,3.6-3.4,5.4"/>
<path class="st0" d="M321.5,208.3c-1.2,1.8-2.4,3.5-3.7,5.2"/>
<path class="st0" d="M314,218.7c-1.3,1.7-2.6,3.4-3.9,5.1"/>
<path class="st0" d="M309,225.2c-1.1,1.4-2.2,2.7-3.3,4.1"/>
<path class="st0" d="M301.7,234.2c-1.5,1.8-3,3.5-4.6,5.3"/>
<path class="st0" d="M245.8,286.7c-1.6,1.2-3.1,2.3-4.7,3.4"/>
<path class="st0" d="M328.9,176.5c-15.2,27.1-34.1,51.9-56.4,73.6"/>
<path class="st0" d="M251.5,268.9c-0.9,0.7-1.7,1.4-2.6,2.1"/>
<path class="st0" d="M242.2,276.2c-2.4,1.8-4.8,3.6-7.3,5.4"/>
<path class="st0" d="M225.2,288.3c-1.9,1.2-3.8,2.5-5.7,3.7"/>
<path class="st0" d="M210.9,297.2c-3.1,1.8-6.2,3.6-9.3,5.3"/>
<path class="st0" d="M199.1,303.9c-1.8,1-3.7,1.9-5.5,2.9"/>
<path class="st0" d="M191.6,307.7c-3.5,1.8-7.1,3.5-10.7,5.1"/>
<path class="st0" d="M162.2,320.7c-2.5,0.9-4.9,1.8-7.4,2.7"/>
<path class="st0" d="M141.4,327.8c-3.6,1.1-7.2,2.1-10.9,3.1"/>
<path class="st0" d="M125.7,332.2c-2.4,0.6-4.8,1.2-7.1,1.7"/>
<path class="st0" d="M88.6,339.3c-1.7,0.2-3.4,0.4-5,0.6"/>
<path class="st0" d="M77.9,340.5c-1.7,0.2-3.4,0.3-5.1,0.4"/>
<path class="st0" d="M62.2,341.6c-1.7,0.1-3.4,0.1-5.1,0.2"/>
<path class="st0" d="M316.8,176.6c-1,1.7-2,3.4-3.1,5.1"/>
<path class="st0" d="M310.2,187.3c-2.3,3.5-4.6,7-7,10.4"/>
<path class="st0" d="M299.8,202.6c-1.3,1.8-2.6,3.5-3.9,5.3"/>
<path class="st0" d="M293.5,210.9c-0.7,0.9-1.3,1.7-2,2.6"/>
<path class="st0" d="M287.4,218.6c-1.5,1.8-3,3.6-4.6,5.4"/>
<path class="st0" d="M278.5,228.9c-0.2,0.3-0.5,0.5-0.7,0.8"/>
<path class="st0" d="M273.2,234.5c-1.6,1.7-3.3,3.4-4.9,5.1"/>
<path class="st0" d="M256.5,250.8c-1.6,1.5-3.3,2.9-4.9,4.3"/>
<path class="st0" d="M219.9,279.2c-1.1,0.7-2.1,1.4-3.2,2.1"/>
<path class="st0" d="M207.9,286.8c-1.2,0.7-2.5,1.5-3.8,2.2"/>
<path class="st0" d="M304.5,176.7c-11.6,18.9-25.2,36.5-40.6,52.4"/>
<path class="st0" d="M262,231c-6.7,6.8-13.6,13.2-20.9,19.3"/>
<path class="st0" d="M235,255.3c-2.2,1.8-4.4,3.5-6.7,5.2"/>
<path class="st0" d="M225.3,262.6c-1.4,1-2.8,2.1-4.3,3.1"/>
<path class="st0" d="M205.2,276.2c-0.3,0.2-0.6,0.4-0.9,0.6"/>
<path class="st0" d="M186.9,286.6c-3.6,1.9-7.2,3.7-10.9,5.4"/>
<path class="st0" d="M167.4,295.9c-5.3,2.3-10.7,4.5-16.1,6.5"/>
<path class="st0" d="M135.8,307.6c-6.4,2-12.8,3.7-19.3,5.2"/>
<path class="st0" d="M83.2,318.8c-1.7,0.2-3.5,0.4-5.2,0.6"/>
<path class="st0" d="M57,320.8c-1.8,0.1-3.5,0.1-5.3,0.1"/>
<path class="st0" d="M292.3,176.4c-1.4,2.1-2.8,4.3-4.2,6.4"/>
<path class="st0" d="M285.2,187c-1.3,1.8-2.6,3.6-3.9,5.4"/>
<path class="st0" d="M277.6,197.2c-2.8,3.6-5.7,7.2-8.6,10.7"/>
<path class="st0" d="M264.3,213.2c-1.6,1.8-3.2,3.5-4.8,5.3"/>
<path class="st0" d="M256.6,221.5c-0.7,0.7-1.4,1.5-2.1,2.2"/>
<path class="st0" d="M249.1,229c-1,0.9-2,1.9-3,2.8"/>
<path class="st0" d="M243.5,234.2c-2,1.8-4,3.6-6.1,5.4"/>
<path class="st0" d="M231.2,244.9c-0.3,0.2-0.5,0.4-0.8,0.6"/>
<path class="st0" d="M224.8,249.9c-1.6,1.2-3.2,2.5-4.9,3.7"/>
<path class="st0" d="M202.3,265.6c-2.9,1.8-5.8,3.6-8.7,5.3"/>
<path class="st0" d="M279.7,176.5c-13.9,20.5-30.4,39-49.1,55.2"/>
<path class="st0" d="M227.6,234.2c-6.6,5.6-13.5,10.8-20.7,15.8"/>
<path class="st0" d="M199.2,255.2c-3.6,2.3-7.2,4.5-10.9,6.7"/>
<path class="st0" d="M181.5,265.7c-3.3,1.8-6.6,3.5-10,5.2"/>
<path class="st0" d="M159.9,276.3c-4.2,1.8-8.4,3.6-12.7,5.2"/>
<path class="st0" d="M130.5,287.2c-5.5,1.7-11,3.2-16.5,4.6"/>
<path class="st0" d="M87,297.1C73.8,299,60.4,300,46.9,300"/>
<path class="st0" d="M263,181.7c-1.3,1.8-2.7,3.5-4,5.2"/>
<path class="st0" d="M256.6,189.9c-0.6,0.7-1.2,1.5-1.8,2.2"/>
<path class="st0" d="M250.2,197.5c-1.6,1.8-3.1,3.5-4.7,5.3"/>
<path class="st0" d="M235.2,213.2c-1.8,1.8-3.6,3.5-5.5,5.2"/>
<path class="st0" d="M225.1,222.5c-0.5,0.4-1,0.8-1.4,1.2"/>
<path class="st0" d="M217.6,228.9c-1,0.8-2,1.6-2.9,2.4"/>
<path class="st0" d="M209.4,235.3c-1.9,1.4-3.8,2.8-5.7,4.2"/>
<path class="st0" d="M195.9,244.8c-0.8,0.5-1.6,1-2.4,1.5"/>
<path class="st0" d="M178.9,255.1c-3.3,1.8-6.6,3.6-10,5.3"/>
<path class="st0" d="M157.9,265.7c-4.2,1.9-8.4,3.6-12.6,5.3"/>
<path class="st0" d="M131,276.1c-0.2,0-0.3,0.1-0.5,0.1"/>
<path class="st0" d="M125.6,277.8c-4.2,1.3-8.5,2.5-12.8,3.5"/>
<path class="st0" d="M86.5,286.6c-6.2,0.9-12.5,1.6-18.8,2.1"/>
<path class="st0" d="M62.5,289c-3.5,0.2-6.9,0.3-10.4,0.4"/>
<path class="st0" d="M253.8,176.5c-15.5,20.4-34,38.3-54.7,53.3"/>
<path class="st0" d="M193.9,233.5c-8.9,6.1-18.1,11.6-27.6,16.5"/>
<path class="st0" d="M162.2,252.1c-6.1,3-12.3,5.8-18.6,8.3"/>
<path class="st0" d="M129,265.7c-5.9,2-11.8,3.7-17.9,5.2"/>
<path class="st0" d="M85.4,276.1C72.5,278,59.5,279,46.5,279"/>
<path class="st0" d="M240.3,176.7c-2.8,3.5-5.8,6.9-8.8,10.2"/>
<path class="st0" d="M226.5,192.3c-0.4,0.4-0.8,0.8-1.2,1.2"/>
<path class="st0" d="M221.2,197.5c-1.8,1.7-3.6,3.4-5.4,5.1"/>
<path class="st0" d="M209.7,208.1c-0.1,0.1-0.2,0.2-0.3,0.3"/>
<path class="st0" d="M203.6,213.1c-2.3,1.8-4.5,3.6-6.9,5.3"/>
<path class="st0" d="M193.6,220.8c-1.3,0.9-2.6,1.9-3.9,2.8"/>
<path class="st0" d="M173.2,234.2c-3.1,1.8-6.3,3.6-9.5,5.3"/>
<path class="st0" d="M127.4,255.2c-2.3,0.8-4.7,1.6-7,2.3"/>
<path class="st0" d="M114.9,259c-1.7,0.5-3.4,0.9-5.1,1.4"/>
<path class="st0" d="M83.4,265.8c-6.9,1-13.8,1.7-20.8,2.2"/>
<path class="st0" d="M57.4,268.3c-1.7,0.1-3.5,0.1-5.2,0.2"/>
<path class="st0" d="M226.8,176.4c-24.8,28.3-55.8,50.3-90.7,64.3"/>
<path class="st0" d="M130.7,242.8c-7.2,2.7-14.5,5-21.8,7"/>
<path class="st0" d="M93.8,253.3c-15.6,3.1-31.4,4.7-47.3,4.6"/>
<path class="st0" d="M212.5,176.6c-3.4,3.6-6.9,7-10.5,10.3"/>
<path class="st0" d="M196,192.2c-0.7,0.6-1.4,1.2-2.1,1.8"/>
<path class="st0" d="M189.5,197.6c-2.2,1.7-4.4,3.4-6.6,5.1"/>
<path class="st0" d="M178,206.2c-0.9,0.6-1.7,1.2-2.6,1.8"/>
<path class="st0" d="M167.4,213.2c-2.9,1.8-5.9,3.6-8.9,5.3"/>
<path class="st0" d="M157,219.2c-1.7,1-3.5,1.9-5.3,2.8"/>
<path class="st0" d="M146.4,224.7c-3,1.4-6,2.8-9.1,4.1"/>
<path class="st0" d="M120.2,235.4c-4.3,1.4-8.6,2.8-13,4"/>
<path class="st0" d="M197.6,176.6c-31.8,30.4-72,50.4-115.4,57.5"/>
<path class="st0" d="M73.2,235.4c-3.5,0.4-7.1,0.8-10.6,1"/>
<path class="st0" d="M51.9,236.9c-1.7,0-3.3,0.1-5,0.1"/>
<path class="st0" d="M182,176.5c-4.7,4-9.5,7.8-14.6,11.4"/>
<path class="st0" d="M161.2,192.2c-1.4,0.9-2.8,1.8-4.3,2.7"/>
<path class="st0" d="M152.9,197.4c-2.1,1.2-4.2,2.4-6.3,3.6"/>
<path class="st0" d="M114.9,215.1c-3.4,1.2-6.9,2.3-10.4,3.3"/>
<path class="st0" d="M88.7,222.3c-1.8,0.4-3.6,0.7-5.3,1"/>
<path class="st0" d="M81.2,223.7c-9.6,1.6-19.4,2.5-29.2,2.8"/>
<path class="st0" d="M165.3,176.5c-6.1,4.5-12.4,8.7-18.9,12.6"/>
<path class="st0" d="M80.5,213.1C69.3,215.1,58,216,46.6,216"/>
<path class="st0" d="M146.9,176.5c-0.1,0.1-0.2,0.1-0.3,0.2"/>
<g>
	<polyline class="st1" points="0.4,16.2 0.4,0 16.5,0 	"/>
	<polyline class="st1" points="672.3,652 688.5,652 688.5,635.8 	"/>
</g>
</svg>
