<?xml version="1.0" encoding="utf-8"?>
<!-- Generator: Adobe Illustrator 22.0.0, SVG Export Plug-In . SVG Version: 6.00 Build 0)  -->
<svg version="1.0" id="Layer_1" xmlns="http://www.w3.org/2000/svg" xmlns:xlink="http://www.w3.org/1999/xlink" x="0px" y="0px"
	 viewBox="0 0 708.7 652" style="enable-background:new 0 0 708.7 652;" xml:space="preserve">
<style type="text/css">
	.st0{fill:#181818;}
	.st1{fill:none;stroke:#181818;stroke-width:5;stroke-miterlimit:10;}
	.st2{fill:none;stroke:#EB3593;stroke-miterlimit:10;}
</style>
<g>
	<path class="st0" d="M437.9,322.3l257.9,149H180L437.9,322.3 M437.9,316.5l-2.5,1.4l-257.9,149l-16.2,9.3H180h515.8h18.7l-16.2-9.3
		L440.4,318L437.9,316.5L437.9,316.5z"/>
</g>
<g>
	<path class="st0" d="M681.1,479.2L169.2,619.1V479.2H681.1 M718.3,474.2h-37.3H169.2h-5v5v139.9v6.5l6.3-1.7L682.4,484L718.3,474.2
		L718.3,474.2z"/>
</g>
<g>
	<path class="st0" d="M10.1,478.1l151.2,1.1v139.9L10.1,573.4V478.1 M5.1,473.1v5v95.3v3.7l3.6,1.1l151.2,45.6l6.4,1.9v-6.7V479.2
		v-5l-5,0l-151.2-1.1L5.1,473.1L5.1,473.1z"/>
</g>
<g>
	<path class="st0" d="M10.1,377.3l140.4,93.9H10.1V377.3 M5.1,368v9.4v93.9v5h5h140.4h16.5l-13.7-9.2L12.8,373.2L5.1,368L5.1,368z"
		/>
</g>
<g>
	<path class="st0" d="M439.9,17.6l257.9,446.8l-257.9-149V17.6 M434.9-1.1v18.7v297.8v2.9l2.5,1.4l257.9,149l16.2,9.3l-9.3-16.2
		L444.2,15.1L434.9-1.1L434.9-1.1z"/>
</g>
<g>
	<g>
		<path class="st0" d="M10.1,186.4l144.3,277.8L10.1,371.9V186.4 M5.1,165.9v20.5v185.5v2.7l2.3,1.5l144.3,92.4l15.8,10.1l-8.6-16.6
			L14.5,184.1L5.1,165.9L5.1,165.9z"/>
	</g>
	<g>
		<path class="st0" d="M47.6,8.1l107.2,441.1L10.1,174.4V8.1H47.6 M51.5,3.1h-3.9H10.1h-5v5v166.4v1.2l0.6,1.1l144.7,274.7
			l18.8,35.7l-9.5-39.2L52.4,6.9L51.5,3.1L51.5,3.1z"/>
	</g>
	<g>
		<path class="st0" d="M161.2,8.1l0,434L56.1,8.1H161.2 M166.2,3.1h-5H56.1h-6.4l1.5,6.2l105.1,434l9.9,40.7l0-41.9l0-434L166.2,3.1
			L166.2,3.1z"/>
	</g>
	<g>
		<path class="st0" d="M278.3,8.1l-109.2,434l0-434H278.3 M284.7,3.1h-6.4H169.2h-5l0,5l0,434l0,40.4l9.9-39.2l109.2-434L284.7,3.1
			L284.7,3.1z"/>
	</g>
	<g>
		<path class="st0" d="M430.2,8.1L175.6,449.1L278.3,8.1H430.2 M438.9,3.1h-8.7H278.3h-4l-0.9,3.9L170.7,448l-7.6,32.8l16.8-29.2
			L434.5,10.6L438.9,3.1L438.9,3.1z"/>
	</g>
	<g>
		<path class="st0" d="M433.9,17.4v297.9L176,464.3L433.9,17.4 M438.9-1.2l-9.3,16.2l-258,446.8l-9.3,16.2l16.2-9.3l258-148.9
			l2.5-1.4v-2.9V17.4V-1.2L438.9-1.2z"/>
	</g>
</g>
<line class="st1" x1="681.6" y1="70.6" x2="681.6" y2="226.6"/>
<line class="st1" x1="530.4" y1="16.7" x2="681.6" y2="70.6"/>
<polyline class="st1" points="681.6,226.6 530.4,130.6 530.4,16.7 "/>
<g>
	<path class="st0" d="M700.5,484.3v139.9H188.5L700.5,484.3 M705.5,477.8l-6.3,1.7L187.2,619.4l-35.9,9.8h37.3h511.9h5v-5V484.3
		V477.8L705.5,477.8z"/>
</g>
<g>
	<polyline class="st2" points="0.4,16.2 0.4,0 16.5,0 	"/>
	<polyline class="st2" points="692.3,652 708.5,652 708.5,635.8 	"/>
</g>
</svg>
