<?xml version="1.0" encoding="utf-8"?>
<!-- Generator: Adobe Illustrator 22.0.0, SVG Export Plug-In . SVG Version: 6.00 Build 0)  -->
<svg version="1.0" id="Layer_1" xmlns="http://www.w3.org/2000/svg" xmlns:xlink="http://www.w3.org/1999/xlink" x="0px" y="0px"
	 viewBox="0 0 708.7 652" style="enable-background:new 0 0 708.7 652;" xml:space="preserve">
<style type="text/css">
	.st0{fill:#19B3E8;}
	.st1{fill:#FFFFFF;}
	.st2{fill:none;stroke:#EB3593;stroke-miterlimit:10;}
</style>
<circle class="st0" cx="271.5" cy="584.8" r="1"/>
<circle class="st0" cx="320.2" cy="535.2" r="1.2"/>
<circle class="st0" cx="382.3" cy="420.6" r="1.3"/>
<circle class="st0" cx="462.3" cy="496.5" r="1.1"/>
<circle class="st0" cx="452.5" cy="522.5" r="1.4"/>
<circle class="st0" cx="237.9" cy="446" r="1"/>
<circle class="st0" cx="339.5" cy="29.9" r="1.1"/>
<circle class="st0" cx="123.5" cy="569.6" r="1.4"/>
<circle class="st0" cx="119.1" cy="587.2" r="1"/>
<circle class="st0" cx="332.8" cy="479.4" r="1.3"/>
<path class="st0" d="M395.9,298.1c0,0.5-0.4,0.9-0.9,0.9s-0.9-0.4-0.9-0.9s0.4-0.9,0.9-0.9S395.9,297.6,395.9,298.1z"/>
<circle class="st0" cx="271.7" cy="380.3" r="0.9"/>
<circle class="st0" cx="236.7" cy="340.4" r="0.7"/>
<circle class="st0" cx="345.9" cy="308" r="1.5"/>
<circle class="st0" cx="217.5" cy="175.2" r="1.4"/>
<circle class="st0" cx="320" cy="229.4" r="1.1"/>
<circle class="st0" cx="148.2" cy="81.9" r="1.5"/>
<circle class="st0" cx="138.6" cy="60.3" r="1.3"/>
<circle class="st0" cx="115.6" cy="39.6" r="1.4"/>
<circle class="st0" cx="104.5" cy="79" r="1.3"/>
<circle class="st0" cx="180.3" cy="172.3" r="1.3"/>
<circle class="st0" cx="161.2" cy="179.9" r="0.9"/>
<circle class="st0" cx="128.1" cy="185.5" r="1.3"/>
<circle class="st0" cx="121.6" cy="232.8" r="1.5"/>
<circle class="st0" cx="150.1" cy="262.7" r="1.2"/>
<circle class="st0" cx="173.8" cy="231.1" r="1.4"/>
<circle class="st0" cx="92.4" cy="188.3" r="1.5"/>
<circle class="st0" cx="98.6" cy="221.8" r="1"/>
<circle class="st0" cx="140.6" cy="293" r="1.4"/>
<circle class="st0" cx="90.1" cy="288.3" r="1.1"/>
<circle class="st0" cx="594.7" cy="271.5" r="0.9"/>
<circle class="st0" cx="599.5" cy="285.8" r="1.1"/>
<circle class="st0" cx="568.7" cy="339" r="1.1"/>
<circle class="st0" cx="590.7" cy="341.6" r="1"/>
<circle class="st0" cx="600.7" cy="359.4" r="1"/>
<circle class="st0" cx="567.6" cy="398" r="1.1"/>
<circle class="st0" cx="581.4" cy="419.3" r="0.9"/>
<circle class="st0" cx="545.9" cy="221.1" r="1.1"/>
<circle class="st0" cx="644.3" cy="444.6" r="1.2"/>
<circle class="st0" cx="388.4" cy="494.3" r="1.1"/>
<circle class="st0" cx="420.9" cy="607.1" r="0.9"/>
<circle class="st1" cx="399.9" cy="562.8" r="1.7"/>
<circle class="st0" cx="206.7" cy="623.1" r="1.2"/>
<path class="st0" d="M249.4,612.7c0-0.6-0.5-1.1-1.1-1.1c-0.6,0-1.1,0.5-1.1,1.1s0.5,1.1,1.1,1.1
	C248.8,613.9,249.4,613.3,249.4,612.7z"/>
<circle class="st0" cx="406.4" cy="570.8" r="1.2"/>
<g>
	<polyline class="st2" points="0.4,16.2 0.4,0 16.5,0 	"/>
	<polyline class="st2" points="692.3,652 708.5,652 708.5,635.8 	"/>
</g>
</svg>
