<?xml version="1.0" encoding="utf-8"?>
<!-- Generator: Adobe Illustrator 22.0.0, SVG Export Plug-In . SVG Version: 6.00 Build 0)  -->
<svg version="1.0" id="Layer_1" xmlns="http://www.w3.org/2000/svg" xmlns:xlink="http://www.w3.org/1999/xlink" x="0px" y="0px"
	 viewBox="0 0 708.7 652" style="enable-background:new 0 0 708.7 652;" xml:space="preserve">
<style type="text/css">
	.st0{fill:none;stroke:#CCCCCC;stroke-linecap:round;}
	.st1{fill:#FFFFFF;}
	.st2{fill:none;stroke:#EB3593;stroke-miterlimit:10;}
</style>
<g>
	<circle class="st0" cx="192.2" cy="496.4" r="1.4"/>
	<circle class="st0" cx="383" cy="456.6" r="1"/>
	<circle class="st0" cx="446.1" cy="430.9" r="1.4"/>
	<circle class="st0" cx="490" cy="343.2" r="1.6"/>
	<circle class="st0" cx="508.9" cy="341.6" r="1.4"/>
	<circle class="st0" cx="573.1" cy="345.2" r="1.5"/>
	<circle class="st0" cx="662.1" cy="404.1" r="1.4"/>
	<circle class="st0" cx="573.4" cy="489.6" r="1.2"/>
	<circle class="st0" cx="543.9" cy="426.8" r="1.4"/>
	<circle class="st0" cx="32.5" cy="285.9" r="1"/>
	<circle class="st0" cx="218.8" cy="272" r="1.3"/>
	<circle class="st0" cx="325.6" cy="270.4" r="1"/>
	<circle class="st0" cx="362.8" cy="308.1" r="1.3"/>
	<circle class="st0" cx="403.8" cy="299.3" r="1.4"/>
	<circle class="st0" cx="563" cy="271.4" r="1.4"/>
	<circle class="st0" cx="472.5" cy="212" r="1.4"/>
	<circle class="st0" cx="456.8" cy="194.5" r="1.1"/>
	<circle class="st0" cx="159.7" cy="151.1" r="2"/>
	<circle class="st0" cx="211.9" cy="268.5" r="2.2"/>
	<circle class="st0" cx="391.6" cy="470.8" r="0.9"/>
	<circle class="st0" cx="342.7" cy="353.4" r="1.3"/>
	<circle class="st0" cx="309.2" cy="368.4" r="1.1"/>
	<circle class="st0" cx="241.4" cy="294.3" r="1.3"/>
	<circle class="st0" cx="191.2" cy="92.1" r="1.5"/>
	<circle class="st0" cx="176.8" cy="114.4" r="1.3"/>
	<circle class="st0" cx="126.3" cy="220.3" r="2"/>
	<circle class="st0" cx="145.7" cy="329.6" r="2"/>
	<circle class="st0" cx="57.3" cy="205.9" r="2"/>
	<circle class="st0" cx="64.1" cy="122.9" r="1.2"/>
	<circle class="st0" cx="282.8" cy="18.1" r="1.1"/>
	<circle class="st0" cx="269.3" cy="37.8" r="1"/>
	<circle class="st0" cx="304.8" cy="72.1" r="1"/>
	<circle class="st0" cx="389.4" cy="62.8" r="1.1"/>
	<circle class="st0" cx="398.7" cy="89.4" r="1.2"/>
	<circle class="st0" cx="438.8" cy="71.1" r="1.7"/>
	<circle class="st0" cx="425.5" cy="62.3" r="1.7"/>
	<circle class="st0" cx="436.3" cy="38.5" r="1.1"/>
	<circle class="st0" cx="391.2" cy="27" r="1.2"/>
	<circle class="st0" cx="639.4" cy="368.1" r="1.7"/>
	<circle class="st0" cx="614.4" cy="304.7" r="1.7"/>
	<circle class="st0" cx="568.1" cy="353.9" r="0.9"/>
	<circle class="st0" cx="587.3" cy="383" r="1.1"/>
	<circle class="st0" cx="619.4" cy="412" r="1.4"/>
	<circle class="st0" cx="650.9" cy="447.4" r="1.3"/>
	<circle class="st0" cx="574.2" cy="479.9" r="1.1"/>
	<circle class="st0" cx="572.8" cy="500.8" r="1.1"/>
	<circle class="st0" cx="476.1" cy="405.5" r="1.4"/>
	<circle class="st0" cx="481.3" cy="433.4" r="1"/>
	<circle class="st0" cx="447.2" cy="206.4" r="1.5"/>
	<circle class="st0" cx="480.1" cy="278.7" r="1"/>
	<circle class="st0" cx="470.9" cy="281.7" r="1"/>
	<circle class="st0" cx="413.1" cy="283.9" r="1.4"/>
	<circle class="st0" cx="305.3" cy="149.6" r="1.1"/>
	<circle class="st0" cx="277.2" cy="195.3" r="1.1"/>
	<circle class="st0" cx="283.3" cy="209.3" r="1"/>
	<circle class="st0" cx="259.3" cy="126.9" r="0.9"/>
	<circle class="st0" cx="130" cy="231.8" r="1"/>
	<circle class="st0" cx="127.1" cy="180.7" r="1.3"/>
	<circle class="st0" cx="27.1" cy="32.2" r="1.5"/>
	<circle class="st0" cx="340.3" cy="370.6" r="1.3"/>
	<circle class="st0" cx="391.4" cy="359.3" r="1.4"/>
	<circle class="st0" cx="95.5" cy="345.4" r="1"/>
	<circle class="st0" cx="136.3" cy="348.7" r="1.3"/>
	<circle class="st0" cx="170.5" cy="353.6" r="1.1"/>
	<circle class="st0" cx="249.8" cy="386.1" r="1"/>
	<circle class="st0" cx="282.2" cy="385.1" r="1"/>
	<circle class="st0" cx="291.2" cy="360.6" r="0.7"/>
	<circle class="st0" cx="309.3" cy="342.6" r="1.4"/>
	<circle class="st0" cx="239.8" cy="298.6" r="1.1"/>
	<circle class="st0" cx="181.2" cy="289.6" r="1.2"/>
	<circle class="st0" cx="143.3" cy="438.5" r="2"/>
	<circle class="st0" cx="25" cy="422.3" r="1"/>
	<circle class="st0" cx="68.4" cy="453.2" r="0.8"/>
	<circle class="st0" cx="113.2" cy="478" r="1.1"/>
	<circle class="st0" cx="115.8" cy="520.1" r="1.4"/>
	<circle class="st0" cx="38.4" cy="322" r="0.9"/>
	<circle class="st0" cx="23.7" cy="366.3" r="1.4"/>
	<circle class="st0" cx="26.3" cy="537.1" r="1"/>
	<circle class="st0" cx="274.4" cy="462" r="1.1"/>
	<circle class="st0" cx="490.4" cy="535" r="1.9"/>
	<circle class="st0" cx="467" cy="500.6" r="1.4"/>
	<circle class="st0" cx="435.9" cy="506.7" r="1.5"/>
	<circle class="st0" cx="389.8" cy="556" r="1.6"/>
	<circle class="st0" cx="401.8" cy="562.6" r="2.1"/>
	<circle class="st0" cx="313.1" cy="523.4" r="1.3"/>
	<circle class="st0" cx="228.3" cy="546.2" r="0.9"/>
	<circle class="st0" cx="229.5" cy="549.2" r="1.2"/>
	<circle class="st0" cx="229.7" cy="582.9" r="1.1"/>
	<circle class="st0" cx="253.6" cy="592.1" r="1.1"/>
	<circle class="st0" cx="177.9" cy="573" r="1"/>
	<circle class="st0" cx="645.2" cy="502.8" r="1"/>
	<circle class="st0" cx="641.8" cy="544.2" r="1.6"/>
	<circle class="st0" cx="540.9" cy="585" r="1.6"/>
	<circle class="st0" cx="514.1" cy="588.6" r="1.2"/>
	<circle class="st0" cx="349.1" cy="610.1" r="1.1"/>
	<circle class="st0" cx="268.5" cy="614.2" r="1.6"/>
	<circle class="st0" cx="354.2" cy="629" r="1.2"/>
	<circle class="st0" cx="384.7" cy="593.9" r="1.2"/>
	<circle class="st0" cx="682.6" cy="81" r="1.8"/>
	<circle class="st0" cx="566.8" cy="49.9" r="0.9"/>
	<circle class="st0" cx="681.5" cy="139.4" r="1"/>
</g>
<g>
	<polyline class="st1" points="0.4,16.2 0.4,0 16.5,0 	"/>
	<polyline class="st1" points="692.3,652 708.5,652 708.5,635.8 	"/>
</g>
</svg>
