<?xml version="1.0" encoding="utf-8"?>
<!-- Generator: Adobe Illustrator 22.0.0, SVG Export Plug-In . SVG Version: 6.00 Build 0)  -->
<svg version="1.0" id="Layer_1" xmlns="http://www.w3.org/2000/svg" xmlns:xlink="http://www.w3.org/1999/xlink" x="0px" y="0px"
	 viewBox="0 0 708.7 652" style="enable-background:new 0 0 708.7 652;" xml:space="preserve">
<style type="text/css">
	.st0{fill:none;stroke:#CCCCCC;stroke-linecap:round;}
	.st1{fill:#FFFFFF;}
	.st2{fill:none;stroke:#EB3593;stroke-miterlimit:10;}
</style>
<g>
	<path class="st0" d="M340,235.8c0.9-1.1,1.9-2.1,2.8-3.1"/>
	<path class="st0" d="M345.2,230c1-1,1.9-2.1,2.9-3.1"/>
	<path class="st0" d="M352,222.9c0.5-0.5,1-1,1.5-1.5"/>
	<path class="st0" d="M334.2,246.6c0.9-1.1,1.8-2.1,2.7-3.2"/>
	<path class="st0" d="M339.7,240.2c5.7-6.5,11.6-12.8,17.7-18.9"/>
	<path class="st0" d="M334.1,251.1c1.8-2.1,3.6-4.3,5.4-6.4"/>
	<path class="st0" d="M339.9,244.2c2.3-2.6,4.6-5.2,6.9-7.8"/>
	<path class="st0" d="M349.2,233.8c0.9-1,1.9-2,2.9-3.1"/>
	<path class="st0" d="M354.5,228.2c1.1-1.2,2.3-2.3,3.4-3.5"/>
	<path class="st0" d="M363.3,219.3c1.2-1.1,2.3-2.3,3.5-3.4"/>
	<path class="st0" d="M334.5,255c3.5-4.3,7.1-8.5,10.7-12.6"/>
	<path class="st0" d="M348.9,238.2c0.6-0.7,1.2-1.4,1.9-2"/>
	<path class="st0" d="M354.1,232.6c0.8-0.8,1.6-1.7,2.4-2.5"/>
	<path class="st0" d="M359.4,227.1c0.8-0.8,1.6-1.6,2.4-2.4"/>
	<path class="st0" d="M365.2,221.3c1.8-1.8,3.7-3.5,5.5-5.3"/>
	<path class="st0" d="M334.5,259.4c2.1-2.7,4.3-5.3,6.5-8"/>
	<path class="st0" d="M369.1,221.3c1.7-1.6,3.3-3.2,5-4.7"/>
	<path class="st0" d="M334.5,263.7c1.7-2.1,3.4-4.3,5.1-6.4"/>
	<path class="st0" d="M340.9,255.8c0.1-0.2,0.3-0.4,0.4-0.5"/>
	<path class="st0" d="M342.2,254.2c1-1.2,2-2.4,3.1-3.6"/>
	<path class="st0" d="M373,221.4c2-1.9,4-3.7,6-5.6"/>
	<path class="st0" d="M334.2,268.6c1.8-2.3,3.6-4.6,5.4-6.9"/>
	<path class="st0" d="M378.3,220.2c1.5-1.4,3-2.7,4.5-4.1"/>
	<path class="st0" d="M334.7,272.4c1.6-2.1,3.3-4.3,4.9-6.4"/>
	<path class="st0" d="M381.2,221.3c2-1.8,4-3.6,6-5.4"/>
	<path class="st0" d="M338.1,272.5c0.9-1.2,1.9-2.5,2.9-3.7"/>
	<path class="st0" d="M339.9,274.7c1.7-2.3,3.5-4.5,5.3-6.8"/>
	<path class="st0" d="M389.3,221.3c0.5-0.4,1-0.9,1.5-1.3"/>
	<path class="st0" d="M339.7,279.5c1.8-2.5,3.7-4.9,5.6-7.3"/>
	<path class="st0" d="M340.4,283.3c1.5-2.1,3.1-4.2,4.7-6.3"/>
	<path class="st0" d="M343.7,283.3c0.9-1.2,1.8-2.4,2.7-3.6"/>
	<path class="st0" d="M345.2,286c1.8-2.4,3.6-4.8,5.4-7.2"/>
	<path class="st0" d="M399.5,227c0.6-0.6,1.3-1.1,1.9-1.7"/>
	<path class="st0" d="M346.6,288.6c1.4-1.9,2.8-3.8,4.2-5.6"/>
	<path class="st0" d="M350,288.7c0.8-1,1.5-2,2.3-3"/>
	<path class="st0" d="M352.2,290.4c0.4-0.5,0.7-1,1.1-1.5"/>
	<path class="st0" d="M352.9,294c1.1-1.5,2.2-3,3.3-4.5"/>
	<path class="st0" d="M363.2,298.5c0.7-1,1.4-1.9,2.2-2.9"/>
</g>
<circle class="st1" cx="38.6" cy="573.5" r="1.1"/>
<circle class="st1" cx="529" cy="356.8" r="1.4"/>
<circle class="st1" cx="286.7" cy="283" r="1.4"/>
<circle class="st1" cx="284.8" cy="334.6" r="1.1"/>
<circle class="st1" cx="400.9" cy="152.4" r="1.9"/>
<circle class="st1" cx="283.5" cy="305.7" r="1.1"/>
<circle class="st1" cx="234.8" cy="241.4" r="1.3"/>
<circle class="st1" cx="280.2" cy="223.8" r="2.2"/>
<circle class="st1" cx="291.4" cy="154.3" r="1.7"/>
<circle class="st1" cx="233.3" cy="92.1" r="1.7"/>
<circle class="st1" cx="189.2" cy="16.5" r="1.3"/>
<circle class="st1" cx="513.6" cy="181.1" r="3.1"/>
<circle class="st1" cx="488.9" cy="224.1" r="3.6"/>
<circle class="st1" cx="631.6" cy="359.7" r="1.7"/>
<circle class="st1" cx="595.3" cy="426.5" r="1.6"/>
<circle class="st1" cx="63.1" cy="168.3" r="1.5"/>
<circle class="st1" cx="397.5" cy="390.5" r="1.4"/>
<circle class="st1" cx="410.2" cy="414.4" r="1.3"/>
<circle class="st1" cx="382" cy="463.3" r="1.7"/>
<circle class="st1" cx="368.4" cy="411.3" r="1.5"/>
<circle class="st1" cx="364.5" cy="404" r="1.4"/>
<circle class="st1" cx="110.8" cy="417" r="1.1"/>
<circle class="st1" cx="21.2" cy="500.6" r="2"/>
<circle class="st1" cx="71.3" cy="524.7" r="2.3"/>
<circle class="st1" cx="26.2" cy="539.5" r="1.1"/>
<circle class="st1" cx="397.6" cy="525.5" r="2.1"/>
<circle class="st1" cx="304.2" cy="496.7" r="1.2"/>
<circle class="st1" cx="585.2" cy="137.8" r="1.1"/>
<g>
	<polyline class="st2" points="0.4,16.2 0.4,0 16.5,0 	"/>
	<polyline class="st2" points="692.3,652 708.5,652 708.5,635.8 	"/>
</g>
</svg>
