<?xml version="1.0" encoding="utf-8"?>
<!-- Generator: Adobe Illustrator 22.0.0, SVG Export Plug-In . SVG Version: 6.00 Build 0)  -->
<svg version="1.0" id="Layer_1" xmlns="http://www.w3.org/2000/svg" xmlns:xlink="http://www.w3.org/1999/xlink" x="0px" y="0px"
	 viewBox="0 0 708.7 652" style="enable-background:new 0 0 708.7 652;" xml:space="preserve">
<style type="text/css">
	.st0{fill:#181818;}
	.st1{fill:none;stroke:#181818;stroke-width:5;stroke-miterlimit:10;}
	.st2{fill:none;stroke:#EA3392;stroke-miterlimit:10;}
</style>
<g>
	<path class="st0" d="M180.5,31.4v105.7l-160.3,96l0-156L180.5,31.4 M185.5,24.8l-6.4,1.8L18.9,72.3l-3.6,1l0,3.8l0,156l0,8.8
		l7.6-4.5l160.3-96l2.4-1.5v-2.8V31.4V24.8L185.5,24.8z"/>
</g>
<g>
	<path class="st0" d="M702,390.4V482H552.5L702,390.4 M707,381.4l-7.6,4.7l-149.4,91.6l-15.1,9.3h17.7H702h5v-5v-91.6V381.4
		L707,381.4z"/>
</g>
<g>
	<path class="st0" d="M702,489.9v93.4l-160.3,46.5V489.9H702 M707,484.9h-5H541.7h-5v5v139.9v6.7l6.4-1.9l160.3-46.5l3.6-1v-3.8
		v-93.4V484.9L707,484.9z"/>
</g>
<g>
	<path class="st0" d="M533.8,489.9v139.9L21.9,489.9H533.8 M538.8,484.9h-5H21.9h-37.3l35.9,9.8l511.9,139.9l6.3,1.7v-6.5V489.9
		V484.9L538.8,484.9z"/>
</g>
<g>
	<path class="st0" d="M265,333.1l257.9,149H7.1L265,333.1 M265,327.3l-2.5,1.4L4.6,477.7l-16.2,9.3H7.1h515.8h18.7l-16.2-9.3
		l-257.9-149L265,327.3L265,327.3z"/>
</g>
<g>
	<path class="st0" d="M263.6,28.3v297.8L5.6,475L263.6,28.3 M268.6,9.6l-9.3,16.2L1.3,472.5L-8,488.7l16.2-9.3l257.9-148.9l2.5-1.4
		v-2.9V28.3V9.6L268.6,9.6z"/>
</g>
<polyline class="st1" points="521.1,639.8 9.2,639.8 9.2,499.9 521.1,639.8 "/>
<g>
	<g>
		<path class="st0" d="M268.9,28.1l258,446.9l-258-148.9V28.1 M263.9,9.4v18.7v298v2.9l2.5,1.4l258,148.9l16.2,9.3l-9.3-16.2
			l-258-446.9L263.9,9.4L263.9,9.4z"/>
	</g>
	<g>
		<path class="st0" d="M419.4,17l107.8,442.9L270.4,17H419.4 M423.4,12h-3.9H270.4h-8.7l4.4,7.5L523,462.4l17.4,30l-8.2-33.6
			L424.3,15.8L423.4,12L423.4,12z"/>
	</g>
	<g>
		<path class="st0" d="M533.8,17l0,435.8L427.1,17H533.8 M538.8,12h-5H427.1h-6.4l1.5,6.2L528.9,454l9.9,40.3l0-41.5l0-435.8
			L538.8,12L538.8,12z"/>
	</g>
	<g>
		<path class="st0" d="M648.5,17L541.7,452.8l0-435.8H648.5 M654.8,12h-6.4H541.7h-5l0,5l0,435.8l0,41.4l9.9-40.2L653.3,18.2
			L654.8,12L654.8,12z"/>
	</g>
	<g>
		<path class="st0" d="M702,17v167.7L548.1,459.9L657.3,17H702 M707,12h-5h-44.6h-3.9l-0.9,3.8L543.2,458.7l-8.9,36l18.1-32.4
			l153.9-275.2l0.6-1.1v-1.3V17V12L707,12z"/>
	</g>
	<g>
		<path class="st0" d="M702,192.7v188.6L548.5,475L702,192.7 M707,173l-9.4,17.3L544.1,472.6l-8.9,16.4l15.9-9.7l153.5-93.7l2.4-1.5
			v-2.8V192.7V173L707,173z"/>
	</g>
</g>
<g>
	<polyline class="st2" points="0.4,16.2 0.4,0 16.5,0 	"/>
	<polyline class="st2" points="692.3,652 708.5,652 708.5,635.8 	"/>
</g>
</svg>
