<?xml version="1.0" encoding="utf-8"?>
<!-- Generator: Adobe Illustrator 22.0.0, SVG Export Plug-In . SVG Version: 6.00 Build 0)  -->
<svg version="1.0" id="Layer_1" xmlns="http://www.w3.org/2000/svg" xmlns:xlink="http://www.w3.org/1999/xlink" x="0px" y="0px"
	 viewBox="0 0 708.7 652" style="enable-background:new 0 0 708.7 652;" xml:space="preserve">
<style type="text/css">
	.st0{fill:#FFFFFF;}
	.st1{fill:none;stroke:#EA3392;stroke-miterlimit:10;}
</style>
<circle class="st0" cx="464.2" cy="304.8" r="1.4"/>
<circle class="st0" cx="415" cy="279.3" r="1.2"/>
<circle class="st0" cx="56" cy="538.4" r="1"/>
<circle class="st0" cx="15" cy="526.2" r="1"/>
<circle class="st0" cx="116.9" cy="363.7" r="1.4"/>
<circle class="st0" cx="431.6" cy="407.5" r="1.1"/>
<circle class="st0" cx="398.3" cy="419.2" r="1"/>
<circle class="st0" cx="523.7" cy="151" r="1"/>
<circle class="st0" cx="320.4" cy="73.5" r="1.1"/>
<circle class="st0" cx="311.1" cy="100.2" r="1.2"/>
<circle class="st0" cx="273.6" cy="49.3" r="1.1"/>
<circle class="st0" cx="244.2" cy="617.4" r="1.2"/>
<circle class="st0" cx="274.7" cy="582.4" r="1.2"/>
<circle class="st0" cx="95.5" cy="315.4" r="1.7"/>
<path class="st0" d="M167.9,327c0,0.6,0.5,1.1,1.1,1.1c0.6,0,1.1-0.5,1.1-1.1c0-0.6-0.5-1.1-1.1-1.1
	C168.4,325.9,167.9,326.4,167.9,327z"/>
<circle class="st0" cx="141.8" cy="364.6" r="0.9"/>
<circle class="st0" cx="81.5" cy="529.5" r="1.4"/>
<circle class="st0" cx="135.7" cy="490.6" r="1.1"/>
<circle class="st0" cx="137.1" cy="511.5" r="1.1"/>
<circle class="st0" cx="233.7" cy="416.2" r="1.4"/>
<circle class="st0" cx="228.5" cy="444.1" r="1"/>
<circle class="st0" cx="229.8" cy="289.4" r="1"/>
<circle class="st0" cx="239" cy="292.5" r="1"/>
<circle class="st0" cx="296.7" cy="294.7" r="1.4"/>
<circle class="st0" cx="404.6" cy="160.3" r="1.1"/>
<circle class="st0" cx="450.6" cy="137.6" r="0.9"/>
<circle class="st0" cx="579.9" cy="242.5" r="1"/>
<circle class="st0" cx="682.8" cy="42.9" r="1.5"/>
<circle class="st0" cx="312.4" cy="401.2" r="1.4"/>
<circle class="st0" cx="345.3" cy="414.7" r="1.4"/>
<circle class="st0" cx="470.1" cy="309.3" r="1.1"/>
<circle class="st0" cx="528.6" cy="300.3" r="1.2"/>
<circle class="st0" cx="599" cy="427.8" r="1.1"/>
<circle class="st0" cx="641.5" cy="464" r="0.8"/>
<circle class="st0" cx="596.7" cy="488.7" r="1.1"/>
<circle class="st0" cx="123.5" cy="144.2" r="1.1"/>
<path class="st0" d="M113.2,160.2c0,0.5,0.4,0.9,0.9,0.9s0.9-0.4,0.9-0.9s-0.4-0.9-0.9-0.9S113.2,159.6,113.2,160.2z"/>
<circle class="st0" cx="480.2" cy="593.6" r="1.1"/>
<circle class="st0" cx="456.2" cy="602.8" r="1.1"/>
<circle class="st0" cx="454" cy="615.3" r="1"/>
<circle class="st0" cx="447.9" cy="622" r="1"/>
<g>
	<polyline class="st1" points="0.4,16.2 0.4,0 16.5,0 	"/>
	<polyline class="st1" points="692.3,652 708.5,652 708.5,635.8 	"/>
</g>
</svg>
