<?xml version="1.0" encoding="utf-8"?>
<!-- Generator: Adobe Illustrator 22.0.0, SVG Export Plug-In . SVG Version: 6.00 Build 0)  -->
<svg version="1.0" id="Layer_1" xmlns="http://www.w3.org/2000/svg" xmlns:xlink="http://www.w3.org/1999/xlink" x="0px" y="0px"
	 viewBox="0 0 708.7 652" style="enable-background:new 0 0 708.7 652;" xml:space="preserve">
<style type="text/css">
	.st0{fill:#15B2E7;}
	.st1{fill:none;stroke:#EA3392;stroke-miterlimit:10;}
</style>
<circle class="st0" cx="629" cy="559.6" r="1.5"/>
<circle class="st0" cx="310.9" cy="595.5" r="0.9"/>
<circle class="st0" cx="390.3" cy="185.3" r="0.9"/>
<circle class="st0" cx="156.4" cy="435.5" r="1"/>
<circle class="st0" cx="259.3" cy="424.3" r="0.8"/>
<path class="st0" d="M41.5,465.1c0.1-0.6-0.2-1.1-0.8-1.3c-0.6-0.1-1.1,0.2-1.3,0.8c-0.1,0.6,0.2,1.1,0.8,1.3
	C40.8,466.1,41.4,465.7,41.5,465.1z"/>
<circle class="st0" cx="337.5" cy="563.5" r="1.1"/>
<circle class="st0" cx="377" cy="490.1" r="1.3"/>
<circle class="st0" cx="27.2" cy="145.9" r="1"/>
<path class="st0" d="M313.9,308.9c0,0.5,0.4,0.9,0.9,0.9s0.9-0.4,0.9-0.9s-0.4-0.9-0.9-0.9S313.9,308.3,313.9,308.9z"/>
<circle class="st0" cx="438.2" cy="391" r="0.9"/>
<circle class="st0" cx="473.2" cy="351.1" r="0.7"/>
<circle class="st0" cx="551.8" cy="93.2" r="1.5"/>
<circle class="st0" cx="470.4" cy="108.2" r="1.1"/>
<circle class="st0" cx="523.4" cy="158.4" r="0.8"/>
<circle class="st0" cx="96.7" cy="611.6" r="1.2"/>
<circle class="st0" cx="155" cy="66" r="1"/>
<circle class="st0" cx="92" cy="588.2" r="1.2"/>
<path class="st0" d="M139.4,590.1c0-0.6-0.5-1.1-1.1-1.1c-0.6,0-1.1,0.5-1.1,1.1s0.5,1.1,1.1,1.1
	C138.9,591.3,139.4,590.8,139.4,590.1z"/>
<circle class="st0" cx="168.4" cy="132.9" r="1.2"/>
<circle class="st0" cx="115.2" cy="282.2" r="0.9"/>
<circle class="st0" cx="110.3" cy="296.5" r="1.1"/>
<circle class="st0" cx="141.1" cy="349.8" r="1.1"/>
<circle class="st0" cx="119.2" cy="352.3" r="1"/>
<circle class="st0" cx="109.2" cy="370.2" r="1"/>
<circle class="st0" cx="72.9" cy="356.4" r="0.8"/>
<circle class="st0" cx="142.2" cy="408.8" r="1.1"/>
<circle class="st0" cx="128.5" cy="430" r="0.9"/>
<circle class="st0" cx="163.9" cy="231.8" r="1.1"/>
<circle class="st0" cx="65.6" cy="455.3" r="1.2"/>
<circle class="st0" cx="321.5" cy="505" r="1.1"/>
<circle class="st0" cx="297" cy="560.4" r="1.1"/>
<g>
	<polyline class="st1" points="0.4,16.2 0.4,0 16.5,0 	"/>
	<polyline class="st1" points="692.3,652 708.5,652 708.5,635.8 	"/>
</g>
</svg>
