<?xml version="1.0" encoding="utf-8"?>
<!-- Generator: Adobe Illustrator 22.0.0, SVG Export Plug-In . SVG Version: 6.00 Build 0)  -->
<svg version="1.0" id="Layer_1" xmlns="http://www.w3.org/2000/svg" xmlns:xlink="http://www.w3.org/1999/xlink" x="0px" y="0px"
	 viewBox="0 0 708.7 652" style="enable-background:new 0 0 708.7 652;" xml:space="preserve">
<style type="text/css">
	.st0{fill:#FFFFFF;}
	.st1{fill:none;stroke:#EA3392;stroke-miterlimit:10;}
</style>
<circle class="st0" cx="603.6" cy="600.9" r="1.9"/>
<circle class="st0" cx="525.3" cy="230.4" r="1.2"/>
<circle class="st0" cx="533.5" cy="275.1" r="1.5"/>
<circle class="st0" cx="495.7" cy="307.6" r="2"/>
<circle class="st0" cx="52.6" cy="579.8" r="1.6"/>
<circle class="st0" cx="239.1" cy="598.5" r="1.1"/>
<circle class="st0" cx="308" cy="48.5" r="1.5"/>
<circle class="st0" cx="288.7" cy="166.3" r="1.7"/>
<circle class="st0" cx="225.8" cy="161.5" r="1.2"/>
<circle class="st0" cx="158" cy="233.6" r="1.3"/>
<circle class="st0" cx="281.4" cy="321.7" r="1.4"/>
<circle class="st0" cx="296.3" cy="362.7" r="1.4"/>
<circle class="st0" cx="142.2" cy="440.2" r="1.5"/>
<circle class="st0" cx="358.5" cy="442.2" r="1.4"/>
<circle class="st0" cx="390.4" cy="460.4" r="1.4"/>
<circle class="st0" cx="395.2" cy="543.3" r="1.4"/>
<circle class="st0" cx="337.8" cy="598.6" r="1.9"/>
<circle class="st0" cx="590" cy="68.5" r="1.3"/>
<circle class="st0" cx="427.1" cy="28.8" r="1.1"/>
<circle class="st0" cx="440.5" cy="48.5" r="1"/>
<circle class="st0" cx="405" cy="82.8" r="1"/>
<circle class="st0" cx="271" cy="81.9" r="1.7"/>
<circle class="st0" cx="284.4" cy="73" r="1.7"/>
<circle class="st0" cx="158.5" cy="602.6" r="1.6"/>
<circle class="st0" cx="182.1" cy="576.3" r="2.4"/>
<circle class="st0" cx="236.3" cy="141.8" r="3.1"/>
<circle class="st0" cx="231" cy="204.8" r="3.6"/>
<circle class="st0" cx="70.5" cy="378.8" r="1.7"/>
<circle class="st0" cx="78.2" cy="370.4" r="1.7"/>
<circle class="st0" cx="122.6" cy="393.7" r="1.1"/>
<circle class="st0" cx="114.6" cy="437.2" r="1.6"/>
<circle class="st0" cx="90.4" cy="422.7" r="1.4"/>
<circle class="st0" cx="59" cy="458.1" r="1.3"/>
<circle class="st0" cx="262.7" cy="217.1" r="1.5"/>
<circle class="st0" cx="316.2" cy="230.9" r="1.4"/>
<circle class="st0" cx="306.4" cy="260" r="1.1"/>
<circle class="st0" cx="374.9" cy="289.5" r="1.9"/>
<circle class="st0" cx="432.6" cy="206" r="1.1"/>
<circle class="st0" cx="426.6" cy="220.1" r="1"/>
<circle class="st0" cx="582.8" cy="191.4" r="1.3"/>
<circle class="st0" cx="646.8" cy="179" r="1.5"/>
<circle class="st0" cx="369.6" cy="381.3" r="1.3"/>
<circle class="st0" cx="318.5" cy="370.1" r="1.4"/>
<circle class="st0" cx="299.7" cy="425.1" r="1.3"/>
<circle class="st0" cx="327.8" cy="474" r="1.7"/>
<circle class="st0" cx="341.5" cy="422" r="1.5"/>
<circle class="st0" cx="614.4" cy="356.1" r="1"/>
<circle class="st0" cx="573.5" cy="359.5" r="1.3"/>
<circle class="st0" cx="539.4" cy="364.3" r="1.1"/>
<circle class="st0" cx="460" cy="396.8" r="1"/>
<circle class="st0" cx="427.7" cy="395.8" r="1"/>
<circle class="st0" cx="418.7" cy="371.3" r="0.7"/>
<circle class="st0" cx="400.6" cy="353.3" r="1.4"/>
<circle class="st0" cx="566.5" cy="449.2" r="2"/>
<circle class="st0" cx="684.9" cy="433" r="1"/>
<circle class="st0" cx="594.1" cy="530.8" r="1.4"/>
<circle class="st0" cx="671.4" cy="332.7" r="0.9"/>
<circle class="st0" cx="686.1" cy="377" r="1.4"/>
<circle class="st0" cx="219.5" cy="535.8" r="1.9"/>
<circle class="st0" cx="242.8" cy="511.3" r="1.4"/>
<circle class="st0" cx="273.9" cy="517.5" r="1.5"/>
<circle class="st0" cx="312.3" cy="536.2" r="2.1"/>
<circle class="st0" cx="320" cy="553.7" r="1.6"/>
<circle class="st0" cx="308.1" cy="560.4" r="2.1"/>
<circle class="st0" cx="405.7" cy="507.5" r="1.2"/>
<circle class="st0" cx="396.8" cy="534.1" r="1.3"/>
<circle class="st0" cx="481.5" cy="556.9" r="0.9"/>
<circle class="st0" cx="480.4" cy="559.9" r="1.2"/>
<circle class="st0" cx="541.1" cy="641" r="1"/>
<circle class="st0" cx="531.9" cy="583.7" r="1"/>
<circle class="st0" cx="211" cy="224.8" r="3.6"/>
<circle class="st0" cx="191" cy="244.8" r="3.6"/>
<g>
	<polyline class="st1" points="0.4,16.2 0.4,0 16.5,0 	"/>
	<polyline class="st1" points="692.3,652 708.5,652 708.5,635.8 	"/>
</g>
</svg>
