<?xml version="1.0" encoding="utf-8"?>
<!-- Generator: Adobe Illustrator 22.0.0, SVG Export Plug-In . SVG Version: 6.00 Build 0)  -->
<svg version="1.0" id="Layer_1" xmlns="http://www.w3.org/2000/svg" xmlns:xlink="http://www.w3.org/1999/xlink" x="0px" y="0px"
	 viewBox="0 0 595.3 652" style="enable-background:new 0 0 595.3 652;" xml:space="preserve">
<style type="text/css">
	.st0{fill:none;stroke:#CCCCCC;stroke-linecap:round;}
	.st1{fill:#19B3E8;}
	.st2{fill:#FFFFFF;}
	.st3{fill:none;stroke:#EB3593;stroke-miterlimit:10;}
</style>
<path class="st0" d="M567.5,300.5c0.8,3.3,1.5,6.6,2.2,10"/>
<path class="st0" d="M572.1,321.9c0.3,1.4,0.6,2.9,0.9,4.3"/>
<path class="st0" d="M562.4,326.8c0.9,4.7,1.8,9.4,2.7,14.2"/>
<path class="st0" d="M539.9,321.3c1.5,6.9,2.8,13.8,4.1,20.7"/>
<path class="st0" d="M552,394.8c0.8,7,1.5,14,2.2,21"/>
<path class="st0" d="M531.3,331.6c0.8,4.1,1.6,8.2,2.4,12.3"/>
<path class="st0" d="M542.6,405.7c0.5,5.1,1,10.1,1.5,15.2"/>
<path class="st0" d="M520.7,332.4c1.4,6.7,2.6,13.4,3.8,20.2"/>
<path class="st0" d="M528.8,379.6c0.7,5,1.3,9.9,2,14.9"/>
<path class="st0" d="M532.6,410.9c0.5,5,0.9,10,1.4,15"/>
<path class="st0" d="M512,342.4c0.3,1.3,0.5,2.6,0.8,4"/>
<path class="st0" d="M519,385.1c0.2,1.8,0.5,3.6,0.7,5.4"/>
<path class="st0" d="M494.4,310.5c0.9,3.9,1.8,7.8,2.7,11.7"/>
<path class="st0" d="M502.2,347c1.1,5.7,2.1,11.4,3,17.1"/>
<path class="st0" d="M507.7,379.9c1.2,8.4,2.3,16.7,3.2,25.1"/>
<path class="st0" d="M499.1,394.4c0.2,1.7,0.4,3.5,0.6,5.2"/>
<path class="st0" d="M475.5,321.7c0.8,3.4,1.5,6.7,2.3,10.1"/>
<path class="st0" d="M483.9,363.7c0.3,1.7,0.6,3.4,0.9,5.1"/>
<path class="st0" d="M487.8,389.3c1.2,9,2.3,18,3.2,27.1"/>
<path class="st0" d="M492.7,437c0.1,1.7,0.2,3.4,0.3,5.2"/>
<path class="st0" d="M465.5,325.4c0.1,0.4,0.2,0.8,0.3,1.3"/>
<path class="st0" d="M466.9,331.6c0.5,2.1,0.9,4.1,1.3,6.2"/>
<path class="st0" d="M455,326.5c1.2,5.3,2.4,10.6,3.5,16"/>
<path class="st0" d="M460.7,353.6c0.6,3.3,1.2,6.6,1.8,9.9"/>
<path class="st0" d="M470.8,425.9c0.2,2.1,0.4,4.2,0.5,6.3"/>
<path class="st0" d="M432.3,321.7c0.6,2.4,1.2,4.7,1.7,7.1"/>
<path class="st0" d="M434.8,332.4c0.7,3.2,1.4,6.4,2.1,9.6"/>
<path class="st0" d="M446.8,399.8c0.7,5.3,1.3,10.5,1.8,15.8"/>
<path class="st0" d="M415.9,300.9c0.4,1.5,0.9,3.1,1.3,4.6"/>
<path class="st0" d="M403.5,295.7c2.5,8.3,4.8,16.7,6.9,25.2"/>
<path class="st0" d="M417.9,353.3c0.7,3.5,1.4,7,2,10.5"/>
<path class="st0" d="M427.6,415.4c0.6,5.5,1.1,11,1.6,16.5"/>
<path class="st0" d="M397,311.1c1.9,6.8,3.6,13.5,5.3,20.3"/>
<path class="st0" d="M407.8,356.5c0.1,0.4,0.2,0.8,0.2,1.2"/>
<path class="st0" d="M417,415.4c0.6,5.4,1.1,10.8,1.6,16.3"/>
<path class="st0" d="M386.9,313.9c1.8,6.6,3.6,13.3,5.2,20"/>
<path class="st0" d="M395.2,347.4c2,9,3.8,18,5.4,27.1"/>
<path class="st0" d="M405.9,410.8c1.2,10.3,2.2,20.6,2.9,30.9"/>
<path class="st0" d="M384.4,347.4c1.2,5.2,2.2,10.3,3.3,15.5"/>
<path class="st0" d="M393.3,395.2c0.2,1.5,0.4,3,0.6,4.5"/>
<path class="st0" d="M397.1,426.7c0.5,5.3,0.9,10.5,1.3,15.8"/>
<path class="st0" d="M371.1,336.7c1.3,5.4,2.6,10.8,3.8,16.3"/>
<path class="st0" d="M376.1,358.4c1.1,5.1,2.1,10.2,3,15.3"/>
<path class="st0" d="M381,384.7c0.2,1.1,0.4,2.2,0.5,3.3"/>
<path class="st0" d="M382.5,394.5c0.5,3.7,1.1,7.4,1.6,11"/>
<path class="st0" d="M387,432.1c0.5,5.2,0.9,10.3,1.2,15.5"/>
<path class="st0" d="M370.3,384.2c0.2,1.4,0.5,2.9,0.7,4.3"/>
<path class="st0" d="M371.2,389.6c0.6,3.6,1.1,7.2,1.6,10.8"/>
<path class="st0" d="M376.9,437.4c0.1,1.5,0.2,2.9,0.3,4.4"/>
<path class="st0" d="M352.3,348c0.8,3.5,1.6,7,2.4,10.5"/>
<path class="st0" d="M355.3,361.6c0.1,0.7,0.3,1.4,0.4,2.1"/>
<path class="st0" d="M360.5,389.2c0.9,5.3,1.7,10.6,2.4,16"/>
<path class="st0" d="M366.8,442.6c0.2,3.2,0.5,6.4,0.7,9.7"/>
<path class="st0" d="M350.8,395c0.3,1.7,0.5,3.5,0.8,5.2"/>
<path class="st0" d="M356.7,447.6c0.1,1.8,0.2,3.5,0.3,5.3"/>
<path class="st0" d="M334.1,362.9c0.8,3.7,1.6,7.5,2.3,11.2"/>
<path class="st0" d="M340.9,399.7c1.3,8.9,2.5,17.8,3.4,26.8"/>
<path class="st0" d="M331.1,405.3c1.2,8.4,2.2,16.9,3.1,25.3"/>
<path class="st0" d="M315,374.2c0.7,3.3,1.3,6.6,1.9,9.8"/>
<path class="st0" d="M322.5,420.8c0.6,5.3,1.2,10.6,1.7,16"/>
<path class="st0" d="M299.6,353.3c0.4,1.6,0.8,3.2,1.2,4.8"/>
<path class="st0" d="M282.8,331.5c4.1,13.9,7.7,28,10.7,42.1"/>
<path class="st0" d="M295.6,384.1c2,10.4,3.7,20.9,5.1,31.5"/>
<path class="st0" d="M280.3,362.9c0.4,1.8,0.9,3.7,1.3,5.5"/>
<path class="st0" d="M286.8,394.5c0.9,5.3,1.8,10.6,2.6,15.9"/>
<path class="st0" d="M265.5,347.3c2.4,8.7,4.6,17.4,6.5,26.2"/>
<path class="st0" d="M276.5,396.3c1.1,6.4,2.1,12.8,3,19.3"/>
<path class="st0" d="M262.5,379.3c0.7,3.3,1.4,6.6,2,9.8"/>
<path class="st0" d="M249.3,368.5c1.7,6.9,3.2,13.9,4.6,20.9"/>
<path class="st0" d="M257.6,410.5c1.4,8.8,2.5,17.7,3.4,26.6"/>
<path class="st0" d="M234.4,353.2c0.1,0.3,0.2,0.6,0.2,0.8"/>
<path class="st0" d="M244.2,394.9c0.3,1.4,0.5,2.9,0.8,4.3"/>
<path class="st0" d="M249.2,426c0.2,1.7,0.4,3.5,0.6,5.2"/>
<path class="st0" d="M216.7,331.4c0.6,1.9,1.3,3.8,1.9,5.7"/>
<path class="st0" d="M224.1,355.2c0.8,2.7,1.5,5.5,2.3,8.3"/>
<path class="st0" d="M234.6,400.2c0.3,1.7,0.6,3.4,0.9,5.1"/>
<path class="st0" d="M193.6,300.4c2.2,5.1,4.3,10.3,6.3,15.5"/>
<path class="st0" d="M222.8,394.7c0.3,1.7,0.7,3.3,1,5"/>
<path class="st0" d="M182.3,300.7c3.7,8.5,7.2,17.2,10.4,25.9"/>
<path class="st0" d="M201.6,353c4.2,13.9,7.7,28,10.6,42.2"/>
<path class="st0" d="M213.2,400c0.4,1.9,0.7,3.8,1.1,5.6"/>
<path class="st0" d="M175.2,310.8c1.4,3.4,2.9,6.9,4.2,10.4"/>
<path class="st0" d="M193.6,363c0.5,1.8,1,3.6,1.5,5.4"/>
<path class="st0" d="M199,383.9c0.4,1.8,0.8,3.6,1.2,5.5"/>
<path class="st0" d="M168.2,321.4c4.2,10.4,8,21,11.4,31.7"/>
<path class="st0" d="M182.8,363.6c3.9,13.3,7.1,26.8,9.7,40.3"/>
<path class="st0" d="M194.6,415.5c0.6,3.6,1.1,7.2,1.7,10.8"/>
<path class="st0" d="M197.6,436.5c0.4,3.6,0.8,7.3,1.1,10.9"/>
<path class="st0" d="M157.5,353.1c1.1,3.3,2.2,6.6,3.2,9.9"/>
<path class="st0" d="M165.3,378.8c2.3,8.7,4.3,17.4,6.1,26.2"/>
<path class="st0" d="M173.4,416c0.9,5.1,1.7,10.3,2.4,15.5"/>
<path class="st0" d="M134.8,323c2.7,6.2,5.2,12.5,7.6,18.9"/>
<path class="st0" d="M155.9,384.3c0.4,1.7,0.8,3.3,1.3,5"/>
<path class="st0" d="M167.1,447.4c0.2,1.7,0.3,3.4,0.5,5.1"/>
<path class="st0" d="M127.1,331.8c4.3,10.3,8.2,20.7,11.6,31.3"/>
<path class="st0" d="M149.9,404.9c0.2,1.2,0.5,2.3,0.7,3.5"/>
<path class="st0" d="M153,421c0.9,5.1,1.6,10.3,2.3,15.4"/>
<path class="st0" d="M145.3,441.2c0,0.2,0.1,0.5,0.1,0.7"/>
<path class="st0" d="M101.8,326.3c0.6,1.2,1.1,2.4,1.7,3.7"/>
<path class="st0" d="M110.8,347.4c3.4,8.6,6.4,17.3,9.2,26"/>
<path class="st0" d="M121.8,379.2c2.6,8.6,4.8,17.3,6.7,26.1"/>
<path class="st0" d="M129.7,410.6c2.1,10.3,3.9,20.8,5.1,31.2"/>
<path class="st0" d="M82.3,310.8c0.1,0.2,0.2,0.4,0.3,0.6"/>
<path class="st0" d="M87.7,321.3c0.9,1.8,1.7,3.5,2.6,5.3"/>
<path class="st0" d="M67.2,305.3c5.6,9.5,10.7,19.3,15.3,29.3"/>
<path class="st0" d="M94.5,363.4c5.8,15.9,10.6,32.3,14.1,48.9"/>
<path class="st0" d="M74.5,342.4c0.8,1.7,1.5,3.4,2.3,5.1"/>
<path class="st0" d="M52,321c5.8,10.3,11,20.9,15.7,31.7"/>
<path class="st0" d="M79.4,384.2c0.5,1.7,1.1,3.4,1.6,5.2"/>
<path class="st0" d="M82.4,394c0.1,0.2,0.1,0.4,0.2,0.6"/>
<path class="st0" d="M90.9,431.5c0.9,5.1,1.6,10.3,2.3,15.5"/>
<path class="st0" d="M39.5,342.2c3.5,6.9,6.8,13.9,9.8,21"/>
<path class="st0" d="M59.1,389.6c1.7,5.2,3.2,10.4,4.6,15.7"/>
<path class="st0" d="M71.9,446.1c0.5,3.9,1,7.8,1.3,11.8"/>
<path class="st0" d="M33.1,352.8c0.7,1.5,1.4,3,2.1,4.4"/>
<path class="st0" d="M42.3,373.8c0.7,1.7,1.3,3.4,2,5.1"/>
<path class="st0" d="M50.9,398.5c0.2,0.5,0.3,1,0.5,1.5"/>
<path class="st0" d="M24.7,359.8c0.5,1.1,1,2.2,1.6,3.3"/>
<path class="st0" d="M30.9,373.8c1.4,3.4,2.7,6.8,4,10.3"/>
<path class="st0" d="M40.4,400c2.6,8.6,4.9,17.2,6.7,26"/>
<path class="st0" d="M10.4,379c1.3,3.2,2.6,6.3,3.8,9.5"/>
<path class="st0" d="M9,405.2c0.5,1.6,1.1,3.3,1.6,5"/>
<circle class="st1" cx="15" cy="165.6" r="1.3"/>
<circle class="st2" cx="536.8" cy="216.5" r="1.7"/>
<circle class="st2" cx="498.3" cy="319.4" r="1.3"/>
<circle class="st2" cx="467" cy="347.4" r="1.1"/>
<circle class="st2" cx="257.1" cy="329.2" r="1.9"/>
<circle class="st2" cx="402.8" cy="101.9" r="1.1"/>
<circle class="st2" cx="376.7" cy="111.7" r="1.1"/>
<circle class="st2" cx="355.7" cy="128.2" r="3.8"/>
<circle class="st2" cx="243.6" cy="108.2" r="1"/>
<circle class="st2" cx="150.4" cy="108.2" r="1.1"/>
<circle class="st2" cx="125" cy="103.7" r="1.3"/>
<g>
	<polyline class="st3" points="0.7,16.2 0.7,0 16.8,0 	"/>
	<polyline class="st3" points="569.1,642 585.3,642 585.3,625.8 	"/>
</g>
</svg>
