<?xml version="1.0" encoding="utf-8"?>
<!-- Generator: Adobe Illustrator 22.0.0, SVG Export Plug-In . SVG Version: 6.00 Build 0)  -->
<svg version="1.0" id="Layer_1" xmlns="http://www.w3.org/2000/svg" xmlns:xlink="http://www.w3.org/1999/xlink" x="0px" y="0px"
	 viewBox="0 0 595.3 652" style="enable-background:new 0 0 595.3 652;" xml:space="preserve">
<style type="text/css">
	.st0{fill:#181818;}
	.st1{fill:none;stroke:#EB3593;stroke-miterlimit:10;}
</style>
<g>
	<path class="st0" d="M537,178L152.2,545.8L26.1,473L537,178 M570.5,152.9l-36,20.8l-510.9,295l-7.5,4.3l7.5,4.3l126.1,72.8l3.2,1.9
		l2.7-2.6l384.8-367.8L570.5,152.9L570.5,152.9z"/>
</g>
<g>
	<path class="st0" d="M535,170L22.1,466.2l0-156L535,170 M571.1,155l-37.3,10.2L20.8,305.4l-3.7,1l0,3.8l0,156l0,8.7l7.5-4.3
		l512.9-296.1L571.1,155L571.1,155z"/>
</g>
<g>
	<path class="st0" d="M22.1,479.9l126.1,72.8l-18.4,69.2H22.1L22.1,479.9 M17.1,471.2l0,8.7l0,142l0,5h5h107.7h3.8l1-3.7l18.4-69.2
		l1-3.7l-3.3-1.9L24.6,475.5L17.1,471.2L17.1,471.2z"/>
</g>
<g>
	<path class="st0" d="M155.4,556.8l130.1,65.1H137L155.4,556.8 M152.2,549.6l-1.6,5.8l-18.4,65.1l-1.8,6.4h6.6h148.5h21.2l-18.9-9.5
		l-130.1-65.1L152.2,549.6L152.2,549.6z"/>
</g>
<g>
	<path class="st0" d="M546.3,180.1L294.4,617.9L159.3,550L546.3,180.1 M568,152.5l-25.1,24l-387,369.9l-5.1,4.9l6.3,3.2l135.1,67.9
		l4.2,2.1l2.4-4.1l251.9-437.8L568,152.5L568,152.5z"/>
</g>
<g>
	<path class="st0" d="M559.6,172.9v297.8L301.7,619.6L559.6,172.9 M564.6,154.2l-9.3,16.2L297.4,617.1l-9.3,16.2l16.2-9.3L562.1,475
		l2.5-1.4v-2.9V172.9V154.2L564.6,154.2z"/>
</g>
<g>
	<path class="st0" d="M290.9,5.2l257.9,149H33L290.9,5.2 M290.9-0.6l-2.5,1.4l-257.9,149l-16.2,9.3H33h515.8h18.7l-16.2-9.3
		L293.4,0.9L290.9-0.6L290.9-0.6z"/>
</g>
<g>
	<path class="st0" d="M534,162.1L22.1,302V162.1H534 M571.3,157.1H534H22.1h-5v5V302v6.5l6.3-1.7l511.9-139.9L571.3,157.1
		L571.3,157.1z"/>
</g>
<g>
	<polyline class="st1" points="0.7,16.2 0.7,0 16.8,0 	"/>
	<polyline class="st1" points="569.1,642 585.3,642 585.3,625.8 	"/>
</g>
</svg>
