<?xml version="1.0" encoding="utf-8"?>
<!-- Generator: Adobe Illustrator 22.0.0, SVG Export Plug-In . SVG Version: 6.00 Build 0)  -->
<svg version="1.0" id="Layer_1" xmlns="http://www.w3.org/2000/svg" xmlns:xlink="http://www.w3.org/1999/xlink" x="0px" y="0px"
	 viewBox="0 0 595.3 652" style="enable-background:new 0 0 595.3 652;" xml:space="preserve">
<style type="text/css">
	.st0{fill:none;stroke:#CCCCCC;stroke-linecap:round;}
	.st1{fill:none;stroke:#EB3593;stroke-miterlimit:10;}
</style>
<g>
<path class="st0" d="M88.1,584.4c-1.2-0.9-2.4-1.8-3.6-2.6"/>
<path class="st0" d="M36.1,545c-1.8-1.4-3.5-2.8-5.3-4.2"/>
<path class="st0" d="M29.1,539.4c-1.2-0.9-2.3-1.9-3.5-2.8"/>
<path class="st0" d="M127.5,586.3c-0.6-0.4-1.2-0.8-1.8-1.2"/>
<path class="st0" d="M84.3,555.6c-1.8-1.3-3.6-2.6-5.3-4"/>
<path class="st0" d="M57.9,535.5c-0.6-0.5-1.2-0.9-1.7-1.4"/>
<path class="st0" d="M30.3,513.2c-1.7-1.4-3.4-2.8-5.1-4.2"/>
<path class="st0" d="M209.2,613.2c-1.9-1.1-3.7-2.2-5.6-3.3"/>
<path class="st0" d="M37.1,491.5c-2.2-1.9-4.4-3.7-6.6-5.6"/>
<path class="st0" d="M10.8,468.7c-1.1-1-2.2-1.9-3.2-2.9"/>
<path class="st0" d="M207,587.4c-1.2-0.7-2.4-1.5-3.7-2.2"/>
<path class="st0" d="M133.6,539.4c-1.2-0.8-2.3-1.6-3.5-2.5"/>
<path class="st0" d="M58.8,482.3c-0.6-0.5-1.1-0.9-1.7-1.4"/>
<path class="st0" d="M189.3,551.6c-0.6-0.4-1.2-0.8-1.8-1.1"/>
<path class="st0" d="M133.7,513.7c-1.1-0.8-2.3-1.6-3.4-2.5"/>
<path class="st0" d="M88.5,479.4c-1.1-0.9-2.2-1.8-3.3-2.6"/>
<path class="st0" d="M78.7,471.5c-1.6-1.3-3.2-2.7-4.9-4"/>
<path class="st0" d="M41.8,440.2c-1.6-1.4-3.1-2.8-4.7-4.2"/>
<path class="st0" d="M288,585c-1.8-1-3.6-1.9-5.5-2.9"/>
<path class="st0" d="M157.8,505.1c-1.1-0.8-2.2-1.6-3.4-2.4"/>
<path class="st0" d="M114.6,473.2c-1.6-1.3-3.3-2.5-4.9-3.8"/>
<path class="st0" d="M84,448.6c-1.6-1.3-3.2-2.6-4.7-4"/>
<path class="st0" d="M72.9,439.3c-1.6-1.3-3.2-2.7-4.7-4"/>
<path class="st0" d="M41.9,412c-2-1.9-4.1-3.7-6.1-5.6"/>
<path class="st0" d="M25.3,396.5c-1.5-1.4-3-2.9-4.5-4.3"/>
<path class="st0" d="M339.5,587.3c-1.2-0.6-2.4-1.2-3.6-1.7"/>
<path class="st0" d="M287,560.6c-1.2-0.6-2.4-1.3-3.5-1.9"/>
<path class="st0" d="M258.7,544.8c-0.6-0.3-1.2-0.7-1.8-1"/>
<path class="st0" d="M193.3,504.1c-0.6-0.4-1.1-0.7-1.7-1.1"/>
<path class="st0" d="M156.7,478.6c-3.3-2.4-6.6-4.8-9.8-7.2"/>
<path class="st0" d="M114.7,446.6c-1.6-1.3-3.2-2.6-4.8-3.8"/>
<path class="st0" d="M75.8,414.1c-4.1-3.6-8.1-7.1-12.2-10.8"/>
<path class="st0" d="M57.6,397.9c-2-1.8-4-3.6-6-5.5"/>
<path class="st0" d="M41.2,382.7c-1.5-1.4-2.9-2.8-4.4-4.2"/>
<path class="st0" d="M26.6,368.6c-1-0.9-1.9-1.9-2.9-2.8"/>
<path class="st0" d="M15.1,357.2c-1.4-1.4-2.8-2.9-4.3-4.3"/>
<path class="st0" d="M291.8,539.3c-1.2-0.6-2.3-1.3-3.5-1.9"/>
<path class="st0" d="M240.2,509.3c-0.6-0.4-1.1-0.7-1.7-1.1"/>
<path class="st0" d="M235,506.1c-1.7-1.1-3.4-2.1-5-3.2"/>
<path class="st0" d="M193.4,478.8c-1.1-0.8-2.2-1.5-3.3-2.3"/>
<path class="st0" d="M188.5,475.4c-3.3-2.3-6.5-4.6-9.8-6.9"/>
<path class="st0" d="M154.6,450.9c-6.4-4.8-12.7-9.6-19-14.6"/>
<path class="st0" d="M107.8,413.8c-1-0.9-2.1-1.7-3.1-2.6"/>
<path class="st0" d="M101.7,408.7c-2-1.7-4-3.4-6.1-5.2"/>
<path class="st0" d="M71.7,382.4c-2-1.8-3.9-3.6-5.9-5.4"/>
<path class="st0" d="M57.1,368.8c-1-0.9-1.9-1.8-2.9-2.7"/>
<path class="st0" d="M48.4,360.6c-0.5-0.5-1-0.9-1.4-1.4"/>
<path class="st0" d="M41.3,353.6c-1.4-1.4-2.8-2.8-4.3-4.2"/>
<path class="st0" d="M23,335.3c-0.9-0.9-1.8-1.9-2.8-2.8"/>
<path class="st0" d="M17.4,329.6c-1.8-1.9-3.7-3.8-5.5-5.8"/>
<path class="st0" d="M440.3,584.9"/>
<path class="st0" d="M370,555.3c-1.2-0.6-2.4-1.1-3.6-1.7"/>
<path class="st0" d="M340,540.9c-0.6-0.3-1.2-0.6-1.8-0.9"/>
<path class="st0" d="M334.8,538.2c-1.7-0.9-3.5-1.8-5.2-2.7"/>
<path class="st0" d="M228,476.8c-4.4-2.8-8.7-5.7-13-8.6"/>
<path class="st0" d="M189.3,450.3c-5.3-3.8-10.6-7.6-15.8-11.5"/>
<path class="st0" d="M147,418.6c-2-1.6-4.1-3.2-6.1-4.9"/>
<path class="st0" d="M127.2,402.7c-0.5-0.4-1-0.8-1.5-1.2"/>
<path class="st0" d="M80.1,361.6c-2.4-2.2-4.8-4.4-7.2-6.7"/>
<path class="st0" d="M68.7,350.9c-7.1-6.7-14.1-13.6-21-20.5"/>
<path class="st0" d="M46.3,329c-3.2-3.2-6.4-6.5-9.6-9.8"/>
<path class="st0" d="M16.5,297.9c-0.4-0.5-0.9-0.9-1.3-1.4"/>
<path class="st0" d="M366.6,530.5c-0.6-0.3-1.1-0.5-1.7-0.8"/>
<path class="st0" d="M332.2,513.4c-0.6-0.3-1.1-0.6-1.7-0.9"/>
<path class="st0" d="M267.1,476.6c-3.3-2-6.5-4-9.8-6"/>
<path class="st0" d="M226.7,450.7c-4.2-2.9-8.5-5.7-12.7-8.7"/>
<path class="st0" d="M189,424.2c-2.1-1.5-4.1-3-6.2-4.6"/>
<path class="st0" d="M128.8,376.6c-1-0.8-1.9-1.6-2.9-2.5"/>
<path class="st0" d="M120.1,369.2c-1-0.8-1.9-1.7-2.9-2.5"/>
<path class="st0" d="M115.7,365.4c-1.4-1.3-2.9-2.5-4.3-3.8"/>
<path class="st0" d="M109.9,360.3c-1.4-1.3-2.9-2.5-4.3-3.8"/>
<path class="st0" d="M104.2,355.2c-1.4-1.3-2.8-2.6-4.3-3.9"/>
<path class="st0" d="M92.9,344.8c-1.4-1.3-2.8-2.6-4.2-3.9"/>
<path class="st0" d="M87.3,339.6c-6.5-6.1-13-12.4-19.4-18.7"/>
<path class="st0" d="M66.5,319.6c-1.4-1.3-2.7-2.7-4.1-4.1"/>
<path class="st0" d="M61.1,314.2c-3.6-3.6-7.2-7.3-10.8-11"/>
<path class="st0" d="M41.1,293.5c-1.3-1.4-2.6-2.8-3.9-4.2"/>
<path class="st0" d="M35.8,287.9c-1.3-1.4-2.6-2.8-3.9-4.2"/>
<path class="st0" d="M20.3,270.9c-1.3-1.4-2.5-2.9-3.8-4.3"/>
<path class="st0" d="M15.2,265.2c-1.3-1.4-2.5-2.9-3.8-4.3"/>
<path class="st0" d="M47.4,284.9c-0.9-0.9-1.7-1.9-2.6-2.8"/>
<path class="st0" d="M441.2,540.2c-1.7-0.7-3.5-1.4-5.2-2.1"/>
<path class="st0" d="M418.6,530.9c-1.2-0.5-2.3-1-3.5-1.5"/>
<path class="st0" d="M313.8,479.5c-1.6-0.9-3.3-1.8-4.9-2.8"/>
<path class="st0" d="M257.3,445.7c-3.2-2-6.3-4.1-9.5-6.1"/>
<path class="st0" d="M187.9,397.2c-2-1.5-4-3-6-4.6"/>
<path class="st0" d="M168.5,382.1c-0.5-0.4-1-0.8-1.5-1.2"/>
<path class="st0" d="M162.7,377.4c-7.3-5.9-14.6-11.9-21.7-18"/>
<path class="st0" d="M121.1,342.1c-0.5-0.4-0.9-0.8-1.4-1.3"/>
<path class="st0" d="M115.5,337.1c-6.5-5.9-13-11.9-19.3-18"/>
<path class="st0" d="M94.8,317.8c-1.4-1.3-2.7-2.6-4.1-3.9"/>
<path class="st0" d="M89.4,312.6c-5-4.8-9.9-9.7-14.8-14.6"/>
<path class="st0" d="M62.8,285.9c-6.1-6.3-12.1-12.7-18.1-19.2"/>
<path class="st0" d="M42.2,263.9c-0.9-0.9-1.7-1.9-2.5-2.8"/>
<path class="st0" d="M35.9,256.9c-0.4-0.5-0.8-0.9-1.3-1.4"/>
<path class="st0" d="M26,245.6c-1.6-1.9-3.3-3.8-4.9-5.7"/>
<path class="st0" d="M420,508.6c-1.7-0.7-3.4-1.5-5.1-2.2"/>
<path class="st0" d="M371.4,486.2c-1.7-0.8-3.3-1.6-4.9-2.5"/>
<path class="st0" d="M363.1,482c-0.6-0.3-1.1-0.6-1.7-0.8"/>
<path class="st0" d="M340.2,470.1c-1.6-0.9-3.3-1.8-4.9-2.6"/>
<path class="st0" d="M303.2,449.3c-3.2-1.9-6.4-3.8-9.5-5.7"/>
<path class="st0" d="M289,440.7c-2.1-1.3-4.2-2.6-6.3-3.9"/>
<path class="st0" d="M231.9,403.3c-2.5-1.8-5-3.5-7.5-5.3"/>
<path class="st0" d="M199.1,379.3c-1-0.8-2-1.5-3-2.3"/>
<path class="st0" d="M188.9,371.4c-4.4-3.4-8.7-6.9-13-10.3"/>
<path class="st0" d="M173,358.8c-1.9-1.5-3.8-3.1-5.7-4.6"/>
<path class="st0" d="M157.3,345.8c-6.1-5.2-12.1-10.4-18.1-15.7"/>
<path class="st0" d="M130.9,322.7c-1.8-1.7-3.6-3.3-5.5-5"/>
<path class="st0" d="M116,309c-5.8-5.5-11.6-11-17.3-16.6"/>
<path class="st0" d="M84.4,278c-5.6-5.7-11.1-11.5-16.6-17.3"/>
<path class="st0" d="M64,256.6c-0.4-0.5-0.8-0.9-1.3-1.4"/>
<path class="st0" d="M59,251.2c-4.1-4.5-8.2-9.1-12.3-13.7"/>
<path class="st0" d="M44.2,234.6c-2.4-2.8-4.8-5.6-7.2-8.4"/>
<path class="st0" d="M35.8,224.9c-1.6-1.9-3.2-3.7-4.8-5.6"/>
<path class="st0" d="M413.4,482.8c-0.5-0.2-1.1-0.5-1.6-0.7"/>
<path class="st0" d="M345.4,449c-6.9-3.7-13.7-7.6-20.6-11.5"/>
<path class="st0" d="M272.4,405.4c-1-0.7-2-1.3-3-2"/>
<path class="st0" d="M267.9,402.4c-3.5-2.3-7-4.7-10.5-7"/>
<path class="st0" d="M230.7,376.7c-4.4-3.2-8.7-6.4-13.1-9.7"/>
<path class="st0" d="M208.9,360.4c-1.4-1.1-2.9-2.2-4.3-3.3"/>
<path class="st0" d="M198.9,352.7c-1.9-1.5-3.8-3-5.7-4.5"/>
<path class="st0" d="M189,344.8c-3.8-3-7.5-6.1-11.2-9.2"/>
<path class="st0" d="M172.3,331c-1.4-1.2-2.8-2.3-4.1-3.5"/>
<path class="st0" d="M158.5,319.2c-1.8-1.6-3.6-3.2-5.4-4.8"/>
<path class="st0" d="M151.8,313.2c-9-8-17.9-16.2-26.6-24.5"/>
<path class="st0" d="M123.8,287.5c-1.3-1.2-2.6-2.5-3.9-3.8"/>
<path class="st0" d="M113.4,277.4c-4.7-4.6-9.4-9.3-14.1-14.1"/>
<path class="st0" d="M98.1,262c-1.3-1.3-2.5-2.6-3.8-3.9"/>
<path class="st0" d="M93.1,256.8c-1.3-1.3-2.5-2.6-3.7-3.9"/>
<path class="st0" d="M88.1,251.6c-19.9-21-39-42.8-57.1-65.4"/>
<path class="st0" d="M26.5,180.5c-4.9-6.1-9.6-12.3-14.3-18.6"/>
<path class="st0" d="M173.6,318.3c-1.8-1.6-3.6-3.1-5.4-4.7"/>
<path class="st0" d="M479.3,487.5c-0.6-0.2-1.1-0.4-1.7-0.6"/>
<path class="st0" d="M451.4,476.4c-3.8-1.6-7.7-3.2-11.5-4.8"/>
<path class="st0" d="M414,460c-1.6-0.7-3.2-1.5-4.8-2.2"/>
<path class="st0" d="M382.1,444.6c-1.6-0.8-3.2-1.6-4.8-2.4"/>
<path class="st0" d="M366.3,436.4c-1-0.5-2.1-1.1-3.1-1.6"/>
<path class="st0" d="M292.8,393.6c-0.5-0.3-1-0.6-1.5-0.9"/>
<path class="st0" d="M278,384c-2-1.3-3.9-2.6-5.9-3.9"/>
<path class="st0" d="M267.7,377c-5.4-3.7-10.7-7.4-16-11.1"/>
<path class="st0" d="M241.6,358.6c-0.9-0.7-1.9-1.4-2.8-2.1"/>
<path class="st0" d="M225.9,347c-7.1-5.4-14-10.8-21-16.3"/>
<path class="st0" d="M203.6,329.5c-1.8-1.5-3.7-3-5.5-4.5"/>
<path class="st0" d="M188.5,317.2c-1.8-1.5-3.6-3-5.4-4.6"/>
<path class="st0" d="M179.1,309.2c-0.5-0.4-0.9-0.8-1.4-1.2"/>
<path class="st0" d="M172.3,303.4c-5.8-5.1-11.5-10.2-17.2-15.4"/>
<path class="st0" d="M152.5,285.6c-1.3-1.2-2.6-2.4-3.9-3.6"/>
<path class="st0" d="M147.3,280.8c-1.3-1.2-2.6-2.4-3.9-3.6"/>
<path class="st0" d="M138.3,272.3c-5.6-5.3-11.1-10.7-16.5-16.1"/>
<path class="st0" d="M120.6,254.9c-8.3-8.4-16.5-16.9-24.6-25.5"/>
<path class="st0" d="M94.8,228.1c-19.7-21.3-38.4-43.3-56.2-66.2"/>
<path class="st0" d="M146.8,265.9c-1.7-1.6-3.4-3.2-5.1-4.9"/>
<path class="st0" d="M55.6,166.5c-1.1-1.4-2.2-2.8-3.3-4.1"/>
<path class="st0" d="M529.3,482.9c-0.5-0.2-1.1-0.4-1.6-0.5"/>
<path class="st0" d="M524.4,481.3c-1.6-0.5-3.3-1.1-4.9-1.7"/>
<path class="st0" d="M514.6,477.9c-1.1-0.4-2.2-0.8-3.3-1.1"/>
<path class="st0" d="M498.2,472.1c-1.6-0.6-3.3-1.2-4.9-1.8"/>
<path class="st0" d="M486.8,467.8c-1.1-0.4-2.2-0.8-3.3-1.2"/>
<path class="st0" d="M451.4,453.6c-3.7-1.6-7.5-3.2-11.2-4.8"/>
<path class="st0" d="M419.7,439.5c-1.6-0.7-3.2-1.5-4.7-2.2"/>
<path class="st0" d="M368.4,413.8c-2-1.1-4.1-2.2-6.1-3.3"/>
<path class="st0" d="M345.7,401.1c-3.5-2-7-4-10.5-6.1"/>
<path class="st0" d="M304.1,376c-4.9-3.1-9.7-6.3-14.5-9.5"/>
<path class="st0" d="M278.1,358.7c-1.9-1.3-3.8-2.6-5.7-3.9"/>
<path class="st0" d="M266.7,350.8c-3.3-2.3-6.6-4.7-9.9-7.1"/>
<path class="st0" d="M247,336.5c-0.5-0.3-0.9-0.7-1.4-1"/>
<path class="st0" d="M241.4,332.4c-0.9-0.7-1.8-1.4-2.8-2.1"/>
<path class="st0" d="M235.9,328.2c-5.1-3.9-10.1-7.8-15.1-11.7"/>
<path class="st0" d="M218.1,314.3c-6.3-5.1-12.6-10.2-18.8-15.4"/>
<path class="st0" d="M194,294.3c-0.4-0.4-0.9-0.7-1.3-1.1"/>
<path class="st0" d="M188.8,289.8c-3.5-3-7-6.1-10.4-9.2"/>
<path class="st0" d="M174.4,277.2c-1.7-1.5-3.4-3.1-5.1-4.7"/>
<path class="st0" d="M157.8,261.9c-2.1-2-4.2-4-6.3-6"/>
<path class="st0" d="M146.6,251.1c-7.1-6.9-14-13.8-20.9-20.9"/>
<path class="st0" d="M120.9,225.2c-19.6-20.5-38.3-41.8-56.1-63.9"/>
<path class="st0" d="M57.3,151.7c-1.4-1.8-2.9-3.6-4.3-5.5"/>
<path class="st0" d="M48.8,140.7c-0.7-0.9-1.4-1.8-2.1-2.7"/>
<path class="st0" d="M67.7,148c-0.3-0.4-0.7-0.9-1-1.3"/>
<path class="st0" d="M550.5,467.6c-1.1-0.3-2.2-0.7-3.3-1"/>
<path class="st0" d="M497.4,449.4c-1.6-0.6-3.2-1.2-4.8-1.8"/>
<path class="st0" d="M487.9,445.8c-1.6-0.6-3.2-1.2-4.8-1.9"/>
<path class="st0" d="M450.2,430.2c-0.5-0.2-1-0.5-1.6-0.7"/>
<path class="st0" d="M414.7,413.9c-5.6-2.7-11.2-5.5-16.8-8.3"/>
<path class="st0" d="M356.1,382.9c-1.5-0.9-3-1.7-4.4-2.6"/>
<path class="st0" d="M337.1,371.7c-2.9-1.8-5.8-3.5-8.7-5.3"/>
<path class="st0" d="M325.5,364.6c-4.3-2.7-8.6-5.4-12.9-8.2"/>
<path class="st0" d="M304,350.9c-2.8-1.9-5.7-3.8-8.5-5.7"/>
<path class="st0" d="M294.1,344.3c-1.9-1.3-3.7-2.5-5.6-3.8"/>
<path class="st0" d="M277.4,332.7c-1.4-1-2.8-2-4.2-3"/>
<path class="st0" d="M262.2,321.7c-1.8-1.3-3.6-2.7-5.5-4.1"/>
<path class="st0" d="M245.9,309.4c-0.5-0.3-0.9-0.7-1.4-1"/>
<path class="st0" d="M240.6,305.3c-6.7-5.2-13.3-10.6-19.9-16"/>
<path class="st0" d="M219.4,288.2c-1.3-1.1-2.6-2.2-3.9-3.3"/>
<path class="st0" d="M212.8,282.8c-6.5-5.5-12.9-11-19.3-16.7"/>
<path class="st0" d="M182.2,255.9c-1.3-1.1-2.5-2.3-3.7-3.4"/>
<path class="st0" d="M177.2,251.3c-3.7-3.5-7.4-7-11.1-10.5"/>
<path class="st0" d="M162.4,237.2c-24.8-24-48.3-49.4-70.5-75.9"/>
<path class="st0" d="M79.1,145.5c-2.5-3.1-4.9-6.2-7.4-9.3"/>
<path class="st0" d="M276.6,319.2c-1.4-1-2.7-2-4.1-3"/>
<path class="st0" d="M109.8,166.1c-1.1-1.3-2.2-2.5-3.3-3.8"/>
<path class="st0" d="M76.9,125.7c-1-1.3-2-2.7-3.1-4"/>
<path class="st0" d="M561.5,449.1c-5.3-1.6-10.6-3.3-15.9-5"/>
<path class="st0" d="M525.2,437.2c-2.1-0.7-4.2-1.5-6.3-2.2"/>
<path class="st0" d="M455.6,409.7c-5.1-2.2-10.1-4.5-15.1-6.8"/>
<path class="st0" d="M425.4,395.7c-2-1-4-1.9-6-2.9"/>
<path class="st0" d="M409,387.6c-2-1-4-2-5.9-3"/>
<path class="st0" d="M379.6,372c-3.4-1.9-6.8-3.8-10.1-5.7"/>
<path class="st0" d="M366.5,364.7c-1.4-0.8-2.9-1.7-4.3-2.5"/>
<path class="st0" d="M352.2,356.3c-0.5-0.3-1-0.6-1.4-0.9"/>
<path class="st0" d="M346.5,352.9c-1-0.6-1.9-1.2-2.9-1.7"/>
<path class="st0" d="M340.8,349.4c-4.7-2.9-9.4-5.8-14.1-8.8"/>
<path class="st0" d="M325.3,339.7c-1.9-1.2-3.7-2.4-5.6-3.6"/>
<path class="st0" d="M318.4,335.2c-6.5-4.2-12.9-8.6-19.3-13"/>
<path class="st0" d="M277.4,306.8c-6.7-4.9-13.3-9.9-19.9-15"/>
<path class="st0" d="M247,283.6c-0.4-0.3-0.9-0.7-1.3-1"/>
<path class="st0" d="M241.8,279.4c-9.1-7.3-18-14.8-26.8-22.4"/>
<path class="st0" d="M208.7,251.5c-5-4.4-9.9-8.9-14.8-13.4"/>
<path class="st0" d="M191.5,235.9c-25.2-23.4-49.1-48.1-71.6-74.1"/>
<path class="st0" d="M111.3,151.7c-7.5-8.9-14.8-18-22-27.1"/>
<path class="st0" d="M102.6,124.5c-1-1.3-2-2.6-3.1-3.9"/>
<path class="st0" d="M522.9,414.1c-3.1-1.1-6.1-2.2-9.2-3.4"/>
<path class="st0" d="M492.5,402.5c-3.5-1.4-7-2.8-10.5-4.3"/>
<path class="st0" d="M477.4,396.3c-2.5-1.1-5-2.1-7.4-3.2"/>
<path class="st0" d="M458.1,387.8c-0.5-0.2-1-0.4-1.5-0.7"/>
<path class="st0" d="M424.3,371.8c-6.8-3.4-13.6-6.9-20.3-10.4"/>
<path class="st0" d="M398.3,358.3c-1.9-1-3.8-2.1-5.7-3.1"/>
<path class="st0" d="M382.6,349.7c-1.9-1.1-3.8-2.1-5.7-3.2"/>
<path class="st0" d="M367.1,340.8c-1.9-1.1-3.7-2.2-5.6-3.3"/>
<path class="st0" d="M356,334.1c-1.4-0.8-2.8-1.7-4.2-2.5"/>
<path class="st0" d="M346.3,328.1c-4.6-2.9-9.2-5.8-13.7-8.8"/>
<path class="st0" d="M329.9,317.6c-3.2-2.1-6.3-4.2-9.5-6.3"/>
<path class="st0" d="M309.6,304c-9.8-6.8-19.5-13.8-29-20.9"/>
<path class="st0" d="M278,281.1c-9.1-6.9-18-13.9-26.9-21.1"/>
<path class="st0" d="M241.1,251.7c-0.4-0.4-0.8-0.7-1.3-1.1"/>
<path class="st0" d="M233.7,245.4c-2.1-1.8-4.1-3.5-6.2-5.3"/>
<path class="st0" d="M225.1,238c-27.3-24-53.2-49.5-77.5-76.5"/>
<path class="st0" d="M139,151.7c-10.7-12.2-21.1-24.8-31.2-37.6"/>
<path class="st0" d="M163,162.7c-0.4-0.4-0.7-0.8-1.1-1.2"/>
<path class="st0" d="M130.2,125.2c-1.4-1.7-2.7-3.3-4.1-5"/>
<path class="st0" d="M121.1,114c-1.3-1.7-2.7-3.4-4-5"/>
<path class="st0" d="M561.6,405.1c-3.5-1.1-7-2.3-10.6-3.5"/>
<path class="st0" d="M530,394.3c-1-0.4-2-0.7-3-1.1"/>
<path class="st0" d="M512.2,387.7c-1-0.4-2-0.8-3-1.2"/>
<path class="st0" d="M493,380c-8.8-3.6-17.6-7.4-26.3-11.3"/>
<path class="st0" d="M445.1,358.6c-1.4-0.7-2.9-1.4-4.3-2.1"/>
<path class="st0" d="M435.1,353.7c-1.9-0.9-3.8-1.9-5.7-2.8"/>
<path class="st0" d="M419.5,345.8c-8.9-4.6-17.8-9.4-26.5-14.4"/>
<path class="st0" d="M383.3,325.9c-0.5-0.3-0.9-0.5-1.4-0.8"/>
<path class="st0" d="M372.3,319.5c-2.7-1.6-5.5-3.3-8.2-5"/>
<path class="st0" d="M354.7,308.6c-1.3-0.8-2.7-1.7-4-2.5"/>
<path class="st0" d="M346.7,303.5c-2.7-1.7-5.3-3.5-8-5.2"/>
<path class="st0" d="M330.8,293c-1.8-1.2-3.5-2.4-5.3-3.6"/>
<path class="st0" d="M322.9,287.6c-0.9-0.6-1.7-1.2-2.6-1.8"/>
<path class="st0" d="M316.3,283.1c-2.2-1.5-4.3-3-6.5-4.6"/>
<path class="st0" d="M308.6,277.6c-9.5-6.8-18.8-13.8-28-20.9"/>
<path class="st0" d="M278.1,254.7c-3.8-2.9-7.5-5.9-11.2-8.9"/>
<path class="st0" d="M254.6,235.6c-2.8-2.4-5.7-4.8-8.5-7.2"/>
<path class="st0" d="M242.5,225.3c-4-3.5-8-7-11.9-10.5"/>
<path class="st0" d="M225.9,210.5c-7.8-7.1-15.5-14.4-23.1-21.8"/>
<path class="st0" d="M199.4,185.3c-7.9-7.8-15.7-15.8-23.3-23.9"/>
<path class="st0" d="M166.4,150.9c-13.9-15.3-27.3-31-40.1-47.2"/>
<path class="st0" d="M157.5,125c-1.4-1.6-2.7-3.2-4.1-4.8"/>
<path class="st0" d="M146.4,111.8c-0.7-0.8-1.3-1.6-2-2.4"/>
<path class="st0" d="M560.6,382.7c-1.5-0.5-2.9-1-4.4-1.5"/>
<path class="st0" d="M534.3,373.5c-6.8-2.5-13.6-5.1-20.3-7.7"/>
<path class="st0" d="M503.8,361.8c-4.3-1.8-8.6-3.6-12.9-5.4"/>
<path class="st0" d="M488.1,355.2c-1.9-0.8-3.8-1.6-5.7-2.5"/>
<path class="st0" d="M476.7,350.2c-1.4-0.6-2.8-1.3-4.2-1.9"/>
<path class="st0" d="M455.6,340.4c-8.4-4-16.8-8.2-25-12.5"/>
<path class="st0" d="M419.6,322.1c-1.8-1-3.6-1.9-5.4-2.9"/>
<path class="st0" d="M403.3,313.1c-1.4-0.8-2.7-1.5-4.1-2.3"/>
<path class="st0" d="M396.5,309.3c-2.7-1.6-5.4-3.1-8.1-4.7"/>
<path class="st0" d="M387.1,303.8c-10.2-6.1-20.4-12.3-30.4-18.8"/>
<path class="st0" d="M346.4,278.2c-7.3-4.9-14.6-9.9-21.8-15"/>
<path class="st0" d="M322.1,261.4c-4.2-3-8.4-6.1-12.5-9.1"/>
<path class="st0" d="M308.3,251.4c-4.6-3.4-9.1-6.8-13.6-10.3"/>
<path class="st0" d="M277.7,227.5c-6.8-5.6-13.6-11.2-20.2-17"/>
<path class="st0" d="M256.3,209.5c-3.1-2.7-6.2-5.5-9.3-8.2"/>
<path class="st0" d="M243.5,198.2c-4.2-3.8-8.4-7.7-12.6-11.6"/>
<path class="st0" d="M227.6,183.4c-7.5-7.1-14.9-14.4-22.2-21.8"/>
<path class="st0" d="M195.7,151.6c-17.8-18.7-34.9-38.3-51-58.5"/>
<path class="st0" d="M481,340.6c-1.4-0.6-2.8-1.3-4.2-1.9"/>
<path class="st0" d="M427.2,314.3c-0.9-0.5-1.8-1-2.7-1.4"/>
<path class="st0" d="M185.6,125.2c-1.7-1.9-3.4-3.8-5.1-5.7"/>
<path class="st0" d="M173.4,111.4c-5-5.8-9.9-11.7-14.8-17.6"/>
<path class="st0" d="M555.7,358.9c-1.9-0.7-3.8-1.3-5.7-2"/>
<path class="st0" d="M540,353.3c-1.9-0.7-3.8-1.4-5.7-2.1"/>
<path class="st0" d="M530.1,349.6c-7.1-2.7-14.2-5.5-21.2-8.4"/>
<path class="st0" d="M507.6,340.6c-1.4-0.6-2.8-1.2-4.2-1.8"/>
<path class="st0" d="M495,335.3c-4.2-1.8-8.3-3.6-12.5-5.5"/>
<path class="st0" d="M467.4,322.8c-1.8-0.9-3.6-1.7-5.5-2.6"/>
<path class="st0" d="M460.5,319.5c-1.4-0.7-2.7-1.3-4.1-2"/>
<path class="st0" d="M451,314.8c-0.5-0.2-0.9-0.5-1.4-0.7"/>
<path class="st0" d="M440.2,309.3c-5.4-2.8-10.7-5.6-16.1-8.5"/>
<path class="st0" d="M414.9,295.6c-3.5-2-7-4-10.5-6"/>
<path class="st0" d="M401.7,288.1c-4.4-2.6-8.7-5.1-13-7.8"/>
<path class="st0" d="M383.5,277.1c-2.2-1.3-4.3-2.7-6.4-4"/>
<path class="st0" d="M366.8,266.6c-1.7-1.1-3.4-2.2-5-3.3"/>
<path class="st0" d="M359.3,261.6c-0.8-0.6-1.7-1.1-2.5-1.7"/>
<path class="st0" d="M346.7,253.1c-7.1-4.9-14.1-9.9-21-15"/>
<path class="st0" d="M322.1,235.4c-2.4-1.8-4.9-3.6-7.3-5.5"/>
<path class="st0" d="M308.8,225.4c-25.6-19.8-50.1-41-73.3-63.5"/>
<path class="st0" d="M224.6,151.2c-21.4-21.5-41.7-44.1-60.7-67.7"/>
<path class="st0" d="M535.3,340.3c-1.9-0.7-3.7-1.4-5.6-2.1"/>
<path class="st0" d="M214.4,125.5c-1.7-1.8-3.4-3.7-5.1-5.5"/>
<path class="st0" d="M199.2,108.9c-1.3-1.5-2.7-3-4-4.5"/>
<path class="st0" d="M188.4,96.5c-1-1.1-1.9-2.3-2.9-3.4"/>
<path class="st0" d="M181.6,88.5c-1-1.2-1.9-2.3-2.9-3.5"/>
<path class="st0" d="M561.2,338.6c-1.9-0.6-3.7-1.3-5.6-2"/>
<path class="st0" d="M551.5,335.1c-5.6-2-11.1-4.1-16.6-6.2"/>
<path class="st0" d="M529.3,326.8c-5-2-10.1-4-15.1-6.1"/>
<path class="st0" d="M511.5,319.5c-0.9-0.4-1.8-0.8-2.7-1.1"/>
<path class="st0" d="M503.3,316c-1.4-0.6-2.7-1.2-4.1-1.8"/>
<path class="st0" d="M477.7,304.4c-5.4-2.5-10.7-5.1-16-7.8"/>
<path class="st0" d="M456.5,294c-0.4-0.2-0.9-0.4-1.3-0.7"/>
<path class="st0" d="M451.2,291.3c-3.5-1.8-7-3.6-10.5-5.5"/>
<path class="st0" d="M435.5,283c-1.7-0.9-3.5-1.9-5.2-2.8"/>
<path class="st0" d="M425.1,277.3c-7.3-4.1-14.6-8.3-21.8-12.6"/>
<path class="st0" d="M383.3,252.2c-7.1-4.5-14-9.1-21-13.8"/>
<path class="st0" d="M358.6,235.8c-2.8-2-5.7-3.9-8.5-5.9"/>
<path class="st0" d="M346.5,227.3c-1.2-0.9-2.4-1.7-3.6-2.6"/>
<path class="st0" d="M331,215.9c-22.5-16.9-44.1-34.9-64.8-53.9"/>
<path class="st0" d="M255.4,151.9c-26.1-24.8-50.5-51.3-73.3-79.2"/>
<path class="st0" d="M259.5,141.3c-0.7-0.7-1.4-1.3-2.1-2"/>
<path class="st0" d="M248,130c-0.3-0.3-0.7-0.7-1-1"/>
<path class="st0" d="M240.8,122.7c-1-1-2-2.1-3-3.1"/>
<path class="st0" d="M232.7,114.3c-0.7-0.7-1.3-1.4-2-2.1"/>
<path class="st0" d="M220.8,101.5c-0.7-0.7-1.3-1.4-1.9-2.2"/>
<path class="st0" d="M214.9,95c-0.3-0.4-0.7-0.7-1-1.1"/>
<path class="st0" d="M209.1,88.4c-1.6-1.8-3.2-3.7-4.8-5.5"/>
<path class="st0" d="M195.8,72.8c-0.6-0.8-1.3-1.5-1.9-2.3"/>
<path class="st0" d="M542.4,309.3c-2.7-1-5.4-2.1-8.1-3.2"/>
<path class="st0" d="M530.3,304.6c-10.7-4.3-21.3-8.9-31.8-13.6"/>
<path class="st0" d="M482.8,283.6c-0.4-0.2-0.9-0.4-1.3-0.6"/>
<path class="st0" d="M477.6,281.1c-6-2.9-12.1-6-18-9.1"/>
<path class="st0" d="M450.6,267.3c-5.1-2.7-10.2-5.5-15.2-8.3"/>
<path class="st0" d="M431.6,256.9c-0.4-0.2-0.8-0.5-1.2-0.7"/>
<path class="st0" d="M425.4,253.3c-2.1-1.2-4.2-2.4-6.2-3.7"/>
<path class="st0" d="M409.3,243.7c-1.6-1-3.3-2-4.9-3"/>
<path class="st0" d="M398.2,236.8c-3.3-2.1-6.5-4.1-9.7-6.2"/>
<path class="st0" d="M382.5,226.6c-5.2-3.5-10.4-7-15.5-10.5"/>
<path class="st0" d="M357.6,209.4c-2.3-1.7-4.7-3.4-7-5.1"/>
<path class="st0" d="M345.9,200.9c-16.6-12.4-32.7-25.3-48.3-38.9"/>
<path class="st0" d="M285.7,151.4c-11.4-10.3-22.6-21-33.4-31.9"/>
<path class="st0" d="M251.4,118.5c-17.9-18.2-35-37.1-51.1-56.9"/>
<path class="st0" d="M319.7,166.9c-1.8-1.5-3.7-3-5.5-4.6"/>
<path class="st0" d="M289.6,140.8c-1.7-1.6-3.5-3.2-5.2-4.8"/>
<path class="st0" d="M237.3,88.4c-1.6-1.8-3.2-3.5-4.8-5.3"/>
<path class="st0" d="M223,72.4c-0.9-1.1-1.9-2.2-2.8-3.2"/>
<path class="st0" d="M218.4,67c-2.8-3.3-5.5-6.5-8.2-9.8"/>
<path class="st0" d="M561.8,294.2c-0.9-0.3-1.8-0.7-2.7-1"/>
<path class="st0" d="M556.5,292.2c-5.3-2-10.5-4-15.7-6.1"/>
<path class="st0" d="M535.6,284c-0.9-0.4-1.7-0.7-2.6-1.1"/>
<path class="st0" d="M530.4,281.9c-7.4-3.1-14.7-6.2-21.9-9.5"/>
<path class="st0" d="M498.2,267.7c-4.2-2-8.5-4-12.7-6.1"/>
<path class="st0" d="M483,260.4c-3.8-1.9-7.6-3.8-11.3-5.7"/>
<path class="st0" d="M465.5,251.4c-8.3-4.4-16.5-8.9-24.7-13.5"/>
<path class="st0" d="M429.9,231.6c-0.8-0.5-1.6-1-2.4-1.4"/>
<path class="st0" d="M425,228.7c-10.5-6.3-20.8-12.8-30.9-19.5"/>
<path class="st0" d="M385.9,203.6c-8.1-5.6-16.2-11.2-24.1-17.1"/>
<path class="st0" d="M357.3,183.2c-9-6.7-17.9-13.7-26.6-20.8"/>
<path class="st0" d="M317.8,151.6c-11.8-10-23.3-20.4-34.5-31.1"/>
<path class="st0" d="M278.3,115.7c-1.7-1.6-3.3-3.3-5-4.9"/>
<path class="st0" d="M272.2,109.8c-18.6-18.5-36.4-37.9-53.1-58.1"/>
<path class="st0" d="M330.9,149c-1.1-0.9-2.1-1.8-3.2-2.7"/>
<path class="st0" d="M320.4,140c-1.8-1.5-3.5-3-5.2-4.6"/>
<path class="st0" d="M303.8,125.3c-1.7-1.6-3.4-3.1-5.1-4.7"/>
<path class="st0" d="M276.7,99.4c-1.3-1.3-2.6-2.6-3.9-3.9"/>
<path class="st0" d="M266,88.4c-1.6-1.7-3.2-3.4-4.8-5"/>
<path class="st0" d="M251.8,73.2c-8.1-8.9-16-18-23.7-27.3"/>
<path class="st0" d="M561.3,271.6c-8.1-3.1-16.2-6.3-24.2-9.6"/>
<path class="st0" d="M534.6,260.9c-5-2.1-10.1-4.3-15.1-6.6"/>
<path class="st0" d="M508.4,249.2c-5.8-2.7-11.5-5.5-17.3-8.3"/>
<path class="st0" d="M480.1,235.4c-6.5-3.4-12.9-6.8-19.3-10.3"/>
<path class="st0" d="M451.2,219.7c-3.6-2-7.1-4.1-10.7-6.2"/>
<path class="st0" d="M435.8,210.7c-3.5-2.1-7-4.3-10.5-6.4"/>
<path class="st0" d="M409.1,193.9c-15.3-10-30.2-20.6-44.7-31.7"/>
<path class="st0" d="M350.4,151.3C309.3,118.5,271.7,81.7,238,41.4"/>
<path class="st0" d="M331,121.5c-0.7-0.6-1.3-1.2-2-1.8"/>
<path class="st0" d="M319.9,111.6c-1.7-1.5-3.3-3-5-4.5"/>
<path class="st0" d="M304.1,96.8c-1-0.9-1.9-1.9-2.9-2.8"/>
<path class="st0" d="M293.5,86.4c-1.6-1.6-3.2-3.2-4.8-4.8"/>
<path class="st0" d="M278.4,71c-1.2-1.3-2.5-2.6-3.7-3.9"/>
<path class="st0" d="M272.8,65.1c-0.9-1-1.8-2-2.7-3"/>
<path class="st0" d="M267.3,59.1c-3.6-4-7.2-8-10.8-12.1"/>
<path class="st0" d="M252.1,41.9c-0.3-0.3-0.6-0.7-0.9-1"/>
<path class="st0" d="M561.3,249.1c-8.7-3.4-17.3-7-25.8-10.7"/>
<path class="st0" d="M519.6,231.3c-3.6-1.7-7.3-3.4-10.9-5.1"/>
<path class="st0" d="M495.6,219.7c-4.4-2.2-8.7-4.4-13-6.7"/>
<path class="st0" d="M472,207.3c-8.2-4.5-16.3-9.1-24.3-13.9"/>
<path class="st0" d="M439.8,188.5c-13.6-8.4-27-17.2-40.1-26.4"/>
<path class="st0" d="M384.6,151.2c-2.1-1.6-4.3-3.2-6.4-4.8"/>
<path class="st0" d="M372.9,142.3C330.4,109.4,291.4,72.1,256.6,31"/>
<path class="st0" d="M425.4,166.9c-2.6-1.7-5.1-3.4-7.7-5.1"/>
<path class="st0" d="M388.8,141.2c-0.4-0.3-0.7-0.5-1.1-0.8"/>
<path class="st0" d="M368,125.1c-2-1.6-4.1-3.3-6.1-5"/>
<path class="st0" d="M355.8,115c-1.3-1.1-2.7-2.3-4-3.4"/>
<path class="st0" d="M336.9,98.7c-0.3-0.3-0.6-0.6-1-0.9"/>
<path class="st0" d="M331.1,93.4c-0.3-0.3-0.7-0.6-1-0.9"/>
<path class="st0" d="M326.3,88.9c-0.3-0.3-0.6-0.6-1-0.9"/>
<path class="st0" d="M320.5,83.5c-1.9-1.8-3.8-3.6-5.7-5.5"/>
<path class="st0" d="M294.5,57.5c-1.8-1.9-3.6-3.8-5.4-5.8"/>
<path class="st0" d="M288.2,50.8c-1.5-1.6-3-3.2-4.5-4.8"/>
<path class="st0" d="M279.3,41.1c-2-2.3-4.1-4.6-6.1-6.9"/>
<path class="st0" d="M270.6,31.2c-1.7-2-3.4-4-5.1-6"/>
<path class="st0" d="M561.8,226.7c-7.2-2.9-14.4-5.9-21.5-9.1"/>
<path class="st0" d="M529.6,212.8c-1.6-0.7-3.1-1.5-4.7-2.2"/>
<path class="st0" d="M510.9,203.9c-0.8-0.4-1.6-0.8-2.3-1.2"/>
<path class="st0" d="M493.6,195.1c-4.2-2.2-8.4-4.5-12.6-6.8"/>
<path class="st0" d="M466.4,180c-9.7-5.7-19.3-11.5-28.8-17.6"/>
<path class="st0" d="M421.4,151.6c-54.3-37.1-103.5-81.2-146.2-131.2"/>
<path class="st0" d="M435.8,148.7c-1.1-0.7-2.1-1.4-3.2-2.1"/>
<path class="st0" d="M424.2,140.8c-2.5-1.7-4.9-3.4-7.3-5.1"/>
<path class="st0" d="M409.6,130.4c-1.7-1.3-3.4-2.5-5.2-3.8"/>
<path class="st0" d="M398.3,122.1c-1-0.8-2.1-1.6-3.1-2.3"/>
<path class="st0" d="M389.2,115.1c-0.3-0.3-0.7-0.5-1-0.8"/>
<path class="st0" d="M383.2,110.3c-0.3-0.3-0.7-0.5-1-0.8"/>
<path class="st0" d="M378.2,106.3c-2-1.6-4-3.2-5.9-4.9"/>
<path class="st0" d="M369.3,99c-2-1.6-3.9-3.3-5.8-4.9"/>
<path class="st0" d="M356.7,88.1c-1.6-1.4-3.2-2.8-4.8-4.2"/>
<path class="st0" d="M351,83.1c-3.5-3.1-6.9-6.3-10.4-9.5"/>
<path class="st0" d="M339.6,72.7c-1.2-1.2-2.5-2.3-3.7-3.5"/>
<path class="st0" d="M334.1,67.4c-1.2-1.2-2.5-2.4-3.7-3.5"/>
<path class="st0" d="M328.6,62.1c-1.2-1.2-2.4-2.4-3.6-3.6"/>
<path class="st0" d="M323.1,56.7c-4.5-4.5-9-9.1-13.4-13.7"/>
<path class="st0" d="M307.9,41.2c-1.2-1.2-2.3-2.5-3.5-3.7"/>
<path class="st0" d="M303.6,36.5c-1.4-1.6-2.9-3.1-4.3-4.7"/>
<path class="st0" d="M298.4,30.9c-4.9-5.4-9.7-10.8-14.4-16.3"/>
<path class="st0" d="M561.5,203.9c-3.5-1.5-6.9-2.9-10.4-4.4"/>
<path class="st0" d="M540.7,194.8c-0.8-0.4-1.5-0.7-2.3-1.1"/>
<path class="st0" d="M516.8,183.4c-3.8-1.9-7.5-3.8-11.2-5.7"/>
<path class="st0" d="M496.7,172.9c-6.7-3.6-13.3-7.3-19.8-11.1"/>
<path class="st0" d="M459.7,151.5C397.4,112.9,341.4,65.1,293.6,9.6"/>
<path class="st0" d="M439.2,125.6c-2.7-1.9-5.5-3.8-8.2-5.7"/>
<path class="st0" d="M423.9,114.9c-1.3-1-2.7-1.9-4-2.9"/>
<path class="st0" d="M399.2,96.2c-1-0.8-2-1.6-2.9-2.3"/>
<path class="st0" d="M393.3,91.6c-1.6-1.3-3.2-2.6-4.8-3.9"/>
<path class="st0" d="M382.8,82.9c-3.5-2.9-6.9-5.9-10.4-8.9"/>
<path class="st0" d="M371.5,73.2c-4.1-3.5-8.1-7.1-12-10.8"/>
<path class="st0" d="M356.7,59.9c-0.9-0.8-1.8-1.7-2.7-2.5"/>
<path class="st0" d="M351.3,54.8c-0.9-0.9-1.8-1.7-2.7-2.6"/>
<path class="st0" d="M341.4,45.3c-1.5-1.4-2.9-2.9-4.4-4.4"/>
<path class="st0" d="M336.2,40.1c-1.5-1.5-2.9-2.9-4.4-4.4"/>
<path class="st0" d="M330.9,34.8c-4.6-4.7-9.2-9.5-13.7-14.4"/>
<path class="st0" d="M314.7,17.6c-0.8-0.9-1.7-1.8-2.5-2.8"/>
<path class="st0" d="M309.8,12.1c-0.6-0.6-1.1-1.2-1.7-1.9"/>
<path class="st0" d="M529.5,166.3c-2.6-1.3-5.1-2.5-7.6-3.8"/>
<path class="st0" d="M501.3,151.5c-49.7-27.4-95.8-60.8-137.5-99.3"/>
<path class="st0" d="M357.6,46.4c-0.3-0.3-0.6-0.6-0.9-0.8"/>
<path class="st0" d="M351.4,40.4c-1.5-1.4-2.9-2.9-4.4-4.3"/>
<path class="st0" d="M346.2,35.3c-1.4-1.4-2.9-2.9-4.3-4.3"/>
<path class="st0" d="M326.6,15.1c-0.6-0.6-1.1-1.2-1.7-1.8"/>
<path class="st0" d="M503.2,140.6c-1.8-1-3.5-2-5.3-3"/>
<path class="st0" d="M486.5,131c-1.4-0.8-2.8-1.7-4.1-2.5"/>
<path class="st0" d="M477.3,125.3c-2.7-1.7-5.5-3.4-8.2-5.1"/>
<path class="st0" d="M461,115c-1.7-1.1-3.3-2.2-5-3.3"/>
<path class="st0" d="M438.1,99.3c-2.6-1.9-5.2-3.8-7.8-5.7"/>
<path class="st0" d="M423.6,88.6c-2.2-1.7-4.5-3.4-6.7-5.1"/>
<path class="st0" d="M399.1,69.1c-0.6-0.5-1.2-1-1.9-1.6"/>
<path class="st0" d="M393.5,64.5c-0.9-0.8-1.8-1.6-2.7-2.3"/>
<path class="st0" d="M545.2,150.6c-2.9-1.4-5.7-2.8-8.5-4.2"/>
<path class="st0" d="M535.6,145.9c-24.8-12.4-48.7-26.3-71.8-41.6"/>
<path class="st0" d="M461.8,102.9c-4.3-2.9-8.5-5.8-12.7-8.7"/>
<path class="st0" d="M446.2,92.1c-1.6-1.1-3.2-2.3-4.8-3.5"/>
<path class="st0" d="M435.6,84.5c-0.6-0.5-1.3-0.9-1.9-1.4"/>
<path class="st0" d="M429.9,80.2c-1-0.7-1.9-1.4-2.9-2.2"/>
<path class="st0" d="M459.9,89c-1.3-0.9-2.6-1.8-3.8-2.7"/>
<path class="st0" d="M452.3,83.6c-0.3-0.2-0.6-0.5-1-0.7"/>
</g>
<g>
<polyline class="st1" points="0.7,16.2 0.7,0 16.8,0 "/>
<polyline class="st1" points="569.1,642 585.3,642 585.3,625.8 "/>
</g>
</svg>
