<?xml version="1.0" encoding="utf-8"?>
<!-- Generator: Adobe Illustrator 22.0.0, SVG Export Plug-In . SVG Version: 6.00 Build 0)  -->
<svg version="1.0" id="Layer_1" xmlns="http://www.w3.org/2000/svg" xmlns:xlink="http://www.w3.org/1999/xlink" x="0px" y="0px"
	 viewBox="0 0 793.7 708.7" style="enable-background:new 0 0 793.7 708.7;" xml:space="preserve">
<style type="text/css">
	.st0{fill:#181818;}
	.st1{fill:none;stroke:#EB3593;stroke-miterlimit:10;}
</style>
<g>
	<path class="st0" d="M292.7,24.6l3.3,589.9L167,98.1L292.7,24.6 M297.6,15.9l-7.5,4.4L164.5,93.8l-3.2,1.9l0.9,3.6l129,516.4
		l10.1,40.4l-0.2-41.6l-3.3-589.9L297.6,15.9L297.6,15.9z"/>
</g>
<g>
	<path class="st0" d="M300.6,24.6l135.5,77.2l-132.2,515L300.6,24.6 M295.6,15.9l0,8.7l3.3,592.3l0.2,38.7l9.6-37.5l132.2-515
		l0.9-3.7l-3.3-1.9L303.1,20.2L295.6,15.9L295.6,15.9z"/>
</g>
<g>
	<path class="st0" d="M159.9,102.3l129.7,519.3L30.2,178.2L159.9,102.3 M163.1,94.6l-5.8,3.4L27.7,173.8l-4.3,2.5l2.5,4.3
		l259.4,443.5l17.6,30.1l-8.5-33.9L164.7,101.1L163.1,94.6L163.1,94.6z"/>
</g>
<g>
	<path class="st0" d="M28.8,191.5l260.4,445.3L30.5,489.3L28.8,191.5 M23.7,172.9l0.1,18.7l1.7,297.8l0,2.9l2.5,1.4l258.7,147.5
		l16.2,9.2l-9.4-16.1L33.2,189L23.7,172.9L23.7,172.9z"/>
</g>
<g>
	<path class="st0" d="M466,95.6l156,0L325.8,608.5L466,95.6 M462.1,90.6l-1,3.7L321,607.2l-10.2,37.3l19.4-33.5L626.3,98.1l4.3-7.5
		l-8.7,0l-156,0L462.1,90.6L462.1,90.6z"/>
</g>
<g>
	<path class="st0" d="M628.8,99.6l72.8,126.1L333.8,610.5L628.8,99.6 M628.8,89.6l-4.3,7.5L329.5,608l-20.8,36l28.8-30.1
		l367.8-384.8l2.6-2.7l-1.9-3.2L633.1,97.1L628.8,89.6L628.8,89.6z"/>
</g>
<g>
	<path class="st0" d="M775.4,375.2l-149,257.9H328.7L775.4,375.2 M789.1,361.6l-16.2,9.3L326.2,628.8l-16.2,9.3h18.7h297.8h2.9
		l1.4-2.5l149-257.9L789.1,361.6L789.1,361.6z"/>
</g>
<g>
	<path class="st0" d="M705.7,232.9L780.8,363L335.9,619.8L705.7,232.9 M706.7,224.6l-4.6,4.8L332.3,616.4l-24.1,25.2l30.2-17.5
		l444.9-256.8l4.3-2.5l-2.5-4.3L710,230.4L706.7,224.6L706.7,224.6z"/>
</g>
<g>
	<polyline class="st1" points="8.1,31.3 8.1,15.1 24.3,15.1 	"/>
	<polyline class="st1" points="772.3,649.1 788.5,649.1 788.5,632.9 	"/>
</g>
</svg>
