<?xml version="1.0" encoding="utf-8"?>
<!-- Generator: Adobe Illustrator 22.0.0, SVG Export Plug-In . SVG Version: 6.00 Build 0)  -->
<svg version="1.0" id="Layer_1" xmlns="http://www.w3.org/2000/svg" xmlns:xlink="http://www.w3.org/1999/xlink" x="0px" y="0px"
	 viewBox="0 0 793.7 708.7" style="enable-background:new 0 0 793.7 708.7;" xml:space="preserve">
<style type="text/css">
	.st0{fill:#FFFFFF;}
	.st1{fill:#19B3E8;}
	.st2{fill:none;stroke:#EB3593;stroke-miterlimit:10;}
</style>
<circle class="st0" cx="290.1" cy="230.5" r="1"/>
<circle class="st0" cx="230.2" cy="293.1" r="0.9"/>
<circle class="st0" cx="178.6" cy="253.3" r="1"/>
<circle class="st0" cx="93.6" cy="175.7" r="1.2"/>
<circle class="st0" cx="41.1" cy="308.5" r="1.3"/>
<circle class="st0" cx="94.6" cy="363.5" r="1"/>
<circle class="st0" cx="96.6" cy="365.1" r="1.2"/>
<circle class="st0" cx="131.6" cy="447.8" r="1.8"/>
<circle class="st0" cx="162.9" cy="481.4" r="1.2"/>
<circle class="st0" cx="182.5" cy="437.3" r="0.8"/>
<circle class="st0" cx="205.4" cy="393.9" r="1"/>
<circle class="st0" cx="213.2" cy="349" r="1"/>
<circle class="st0" cx="218.7" cy="342.8" r="1.1"/>
<circle class="st0" cx="263.1" cy="392.1" r="1"/>
<circle class="st0" cx="344" cy="344.6" r="1.3"/>
<circle class="st0" cx="365.1" cy="314.2" r="1.4"/>
<circle class="st0" cx="277.5" cy="600.2" r="1.1"/>
<circle class="st0" cx="272.6" cy="557.1" r="1"/>
<circle class="st0" cx="316.6" cy="550.7" r="1.4"/>
<circle class="st0" cx="261.3" cy="588" r="1.3"/>
<circle class="st0" cx="42.4" cy="241" r="1"/>
<circle class="st0" cx="81.7" cy="159.2" r="1.1"/>
<circle class="st0" cx="142" cy="453.9" r="1"/>
<circle class="st0" cx="159.9" cy="466.2" r="1"/>
<circle class="st0" cx="357.9" cy="354" r="2"/>
<circle class="st0" cx="288.8" cy="348.7" r="1"/>
<circle class="st0" cx="241.9" cy="350.9" r="1.4"/>
<circle class="st0" cx="188.1" cy="135.6" r="1.2"/>
<circle class="st0" cx="249.1" cy="83.6" r="0.9"/>
<circle class="st0" cx="264.1" cy="91.3" r="1.2"/>
<circle class="st0" cx="424.9" cy="192.6" r="1.1"/>
<circle class="st0" cx="412.9" cy="188.4" r="1"/>
<circle class="st0" cx="404.1" cy="190.3" r="1"/>
<circle class="st0" cx="329.3" cy="155.9" r="1.3"/>
<circle class="st0" cx="333.5" cy="92.6" r="1"/>
<circle class="st0" cx="433.7" cy="100" r="1"/>
<circle class="st1" cx="329.2" cy="455.7" r="1.1"/>
<circle class="st1" cx="323.6" cy="465.7" r="1.2"/>
<circle class="st0" cx="674" cy="217.8" r="1.1"/>
<circle class="st0" cx="579.3" cy="152.3" r="1.3"/>
<circle class="st0" cx="647.3" cy="428.4" r="1.1"/>
<circle class="st0" cx="418.4" cy="324.1" r="1.2"/>
<circle class="st0" cx="502.6" cy="540.4" r="1.8"/>
<circle class="st0" cx="567.8" cy="563.8" r="1.1"/>
<circle class="st0" cx="590.7" cy="566.7" r="1.1"/>
<circle class="st0" cx="364.6" cy="584.2" r="1.3"/>
<circle class="st0" cx="671.8" cy="356.5" r="1.6"/>
<circle class="st0" cx="547.1" cy="540.3" r="1"/>
<circle class="st0" cx="525.5" cy="542.1" r="1"/>
<circle class="st0" cx="394.6" cy="309.4" r="1.6"/>
<circle class="st0" cx="409" cy="346.5" r="2"/>
<circle class="st0" cx="471.6" cy="376.2" r="1"/>
<circle class="st0" cx="637.4" cy="165.4" r="0.9"/>
<circle class="st0" cx="620.5" cy="164.7" r="1.2"/>
<circle class="st0" cx="590.8" cy="187.9" r="1.4"/>
<circle class="st0" cx="583.7" cy="197.6" r="1.3"/>
<circle class="st0" cx="587.9" cy="212.6" r="1.3"/>
<circle class="st0" cx="533.1" cy="230.6" r="1.6"/>
<circle class="st0" cx="500" cy="273.9" r="1.4"/>
<circle class="st0" cx="438.1" cy="266.8" r="1.5"/>
<circle class="st0" cx="430.7" cy="173.2" r="1.1"/>
<circle class="st0" cx="443.2" cy="175.4" r="1"/>
<circle class="st0" cx="449.9" cy="181.5" r="1"/>
<circle class="st0" cx="468.9" cy="118.3" r="1"/>
<circle class="st1" cx="383.5" cy="449.1" r="1.1"/>
<circle class="st1" cx="383.5" cy="460.6" r="1.2"/>
<g>
	<polyline class="st2" points="8.1,31.3 8.1,15.1 24.3,15.1 	"/>
	<polyline class="st2" points="772.3,649.1 788.5,649.1 788.5,632.9 	"/>
</g>
</svg>
