<?xml version="1.0" encoding="utf-8"?>
<!-- Generator: Adobe Illustrator 22.0.0, SVG Export Plug-In . SVG Version: 6.00 Build 0)  -->
<svg version="1.0" id="Layer_1" xmlns="http://www.w3.org/2000/svg" xmlns:xlink="http://www.w3.org/1999/xlink" x="0px" y="0px"
	 viewBox="0 0 793.7 708.7" style="enable-background:new 0 0 793.7 708.7;" xml:space="preserve">
<style type="text/css">
	.st0{fill:#FFFFFF;}
	.st1{fill:none;stroke:#FFFFFF;stroke-width:2;stroke-linecap:round;stroke-miterlimit:10;}
	.st2{fill:none;stroke:#EB3593;stroke-miterlimit:10;}
</style>
<circle class="st0" cx="430.5" cy="90.7" r="1.8"/>
<circle class="st0" cx="281.4" cy="45.2" r="1.2"/>
<circle class="st0" cx="130.4" cy="138.2" r="1.9"/>
<circle class="st0" cx="26.8" cy="315.4" r="1.7"/>
<circle class="st0" cx="69.4" cy="333.5" r="2.2"/>
<circle class="st0" cx="52.8" cy="390.2" r="2.5"/>
<circle class="st0" cx="249.2" cy="346.9" r="2.6"/>
<circle class="st0" cx="313.1" cy="552.5" r="1.8"/>
<circle class="st0" cx="300.2" cy="564.6" r="1.4"/>
<circle class="st0" cx="235.7" cy="563.7" r="1.2"/>
<circle class="st0" cx="278.8" cy="582.5" r="1.3"/>
<circle class="st0" cx="236.7" cy="537.4" r="1.7"/>
<circle class="st0" cx="124.6" cy="232.5" r="1.6"/>
<circle class="st0" cx="161.3" cy="296.1" r="1.4"/>
<circle class="st0" cx="149" cy="358.5" r="2"/>
<circle class="st0" cx="81.7" cy="429.3" r="1.7"/>
<circle class="st0" cx="170" cy="520.7" r="1.5"/>
<circle class="st0" cx="199.8" cy="534.1" r="1.9"/>
<circle class="st0" cx="231.9" cy="485.2" r="1.6"/>
<circle class="st0" cx="241.3" cy="466.9" r="2.9"/>
<circle class="st0" cx="260.1" cy="453.6" r="1.8"/>
<circle class="st0" cx="321.3" cy="427.7" r="2.1"/>
<circle class="st0" cx="357.2" cy="426.6" r="1.9"/>
<circle class="st0" cx="388.8" cy="328.8" r="1.6"/>
<circle class="st0" cx="377.1" cy="335.9" r="2.1"/>
<circle class="st0" cx="357" cy="348.3" r="2.5"/>
<circle class="st0" cx="235" cy="234.9" r="1.2"/>
<circle class="st0" cx="141.7" cy="148.2" r="1.4"/>
<circle class="st0" cx="278.5" cy="126.1" r="1.4"/>
<circle class="st0" cx="279.9" cy="138.1" r="1.3"/>
<circle class="st0" cx="268.8" cy="149" r="1.3"/>
<circle class="st0" cx="309.2" cy="172" r="2.2"/>
<circle class="st0" cx="307.5" cy="191.8" r="1.6"/>
<circle class="st0" cx="282" cy="220" r="1.5"/>
<circle class="st0" cx="314.8" cy="245.8" r="1.4"/>
<circle class="st0" cx="311.2" cy="275.6" r="1.4"/>
<circle class="st0" cx="355.3" cy="252.7" r="2.1"/>
<circle class="st0" cx="372" cy="270.3" r="1.5"/>
<circle class="st0" cx="343.9" cy="171.1" r="1.9"/>
<g>
	<line class="st1" x1="435" y1="357.5" x2="430.9" y2="364.9"/>
	<line class="st1" x1="427.9" y1="370.1" x2="423.9" y2="377.3"/>
	<line class="st1" x1="436.8" y1="358.5" x2="432.6" y2="365.9"/>
	<line class="st1" x1="429.7" y1="371.1" x2="425.6" y2="378.3"/>
	<line class="st1" x1="433.3" y1="356.5" x2="429.1" y2="363.9"/>
	<line class="st1" x1="426.2" y1="369.1" x2="422.1" y2="376.3"/>
	<line class="st1" x1="419.6" y1="361.8" x2="427" y2="366"/>
	<line class="st1" x1="432.2" y1="368.9" x2="439.4" y2="373"/>
	<line class="st1" x1="420.5" y1="360.1" x2="427.9" y2="364.2"/>
	<line class="st1" x1="433.2" y1="367.2" x2="440.4" y2="371.2"/>
	<line class="st1" x1="418.6" y1="363.6" x2="426" y2="367.7"/>
	<line class="st1" x1="431.2" y1="370.7" x2="438.4" y2="374.7"/>
	<line class="st1" x1="570.8" y1="116.2" x2="568.5" y2="120.2"/>
	<line class="st1" x1="561.8" y1="132.1" x2="557.7" y2="139.4"/>
	<line class="st1" x1="547.9" y1="156.8" x2="541.3" y2="168.6"/>
	<line class="st1" x1="529.8" y1="189.1" x2="516" y2="213.5"/>
	<line class="st1" x1="509.7" y1="224.8" x2="437.8" y2="352.5"/>
	<line class="st1" x1="572.5" y1="117.2" x2="570.3" y2="121.2"/>
	<line class="st1" x1="563.6" y1="133.1" x2="559.5" y2="140.4"/>
	<line class="st1" x1="549.7" y1="157.8" x2="543.1" y2="169.5"/>
	<line class="st1" x1="531.5" y1="190.1" x2="517.8" y2="214.5"/>
	<line class="st1" x1="511.4" y1="225.8" x2="439.6" y2="353.5"/>
	<line class="st1" x1="569.1" y1="115.2" x2="566.8" y2="119.3"/>
	<line class="st1" x1="560.1" y1="131.2" x2="556" y2="138.4"/>
	<line class="st1" x1="546.2" y1="155.9" x2="539.6" y2="167.6"/>
	<line class="st1" x1="528" y1="188.1" x2="514.3" y2="212.5"/>
	<line class="st1" x1="507.9" y1="223.8" x2="436.1" y2="351.5"/>
</g>
<circle class="st0" cx="756.3" cy="341.8" r="1.6"/>
<circle class="st0" cx="633.4" cy="339.7" r="1.7"/>
<ellipse transform="matrix(5.294542e-02 -0.9986 0.9986 5.294542e-02 -86.9338 811.8885)" class="st0" cx="384.6" cy="451.8" rx="1.3" ry="1.3"/>
<circle class="st0" cx="425.5" cy="604.3" r="2.2"/>
<circle class="st0" cx="406.5" cy="291.6" r="1.9"/>
<circle class="st0" cx="473.3" cy="458.5" r="1.5"/>
<circle class="st0" cx="469.3" cy="442.1" r="1.7"/>
<circle class="st0" cx="637.5" cy="530.9" r="1.6"/>
<circle class="st0" cx="670.6" cy="541.4" r="2"/>
<circle class="st0" cx="347.4" cy="537.9" r="1.4"/>
<circle class="st0" cx="377.1" cy="597.7" r="1.3"/>
<circle class="st0" cx="423.5" cy="565.9" r="1.7"/>
<circle class="st0" cx="608.5" cy="393.6" r="1.4"/>
<circle class="st0" cx="588.2" cy="453.9" r="2"/>
<circle class="st0" cx="745.4" cy="314" r="1.1"/>
<circle class="st0" cx="611.7" cy="548.7" r="1.7"/>
<circle class="st0" cx="489.7" cy="584.4" r="1.5"/>
<circle class="st0" cx="457.2" cy="581.3" r="1.9"/>
<circle class="st0" cx="453.5" cy="522.9" r="1.6"/>
<circle class="st0" cx="454.4" cy="502.4" r="2.9"/>
<circle class="st0" cx="444.7" cy="481.5" r="1.8"/>
<circle class="st0" cx="404.3" cy="428.7" r="2.1"/>
<circle class="st0" cx="373.7" cy="409.9" r="1.9"/>
<circle class="st0" cx="401.3" cy="321.3" r="2.1"/>
<circle class="st0" cx="412.6" cy="342" r="2.5"/>
<circle class="st0" cx="511.3" cy="401.3" r="1.4"/>
<circle class="st0" cx="574.8" cy="303.9" r="1.2"/>
<circle class="st0" cx="698.8" cy="274.8" r="1.4"/>
<circle class="st0" cx="541.5" cy="212.5" r="2.2"/>
<circle class="st0" cx="541.3" cy="267.7" r="1.5"/>
<circle class="st0" cx="488.4" cy="301.5" r="1.4"/>
<circle class="st0" cx="461.4" cy="259.8" r="2.1"/>
<circle class="st0" cx="511.7" cy="194.6" r="1.9"/>
<circle class="st0" cx="531.9" cy="188.6" r="1.3"/>
<circle class="st0" cx="559.6" cy="131.5" r="1"/>
<g>
	<polyline class="st2" points="8.1,31.3 8.1,15.1 24.3,15.1 	"/>
	<polyline class="st2" points="772.3,649.1 788.5,649.1 788.5,632.9 	"/>
</g>
</svg>
