<?xml version="1.0" encoding="utf-8"?>
<!-- Generator: Adobe Illustrator 22.0.0, SVG Export Plug-In . SVG Version: 6.00 Build 0)  -->
<svg version="1.0" id="Layer_1" xmlns="http://www.w3.org/2000/svg" xmlns:xlink="http://www.w3.org/1999/xlink" x="0px" y="0px"
	 viewBox="0 0 793.7 708.7" style="enable-background:new 0 0 793.7 708.7;" xml:space="preserve">
<style type="text/css">
	.st0{fill:#19B3E8;}
	.st1{fill:none;stroke:#EB3593;stroke-miterlimit:10;}
</style>
<circle class="st0" cx="114.5" cy="140" r="1.4"/>
<circle class="st0" cx="408.1" cy="176.7" r="1.1"/>
<circle class="st0" cx="361.4" cy="304.9" r="1.1"/>
<circle class="st0" cx="94.6" cy="287.9" r="1.4"/>
<circle class="st0" cx="111.6" cy="296.9" r="1.1"/>
<circle class="st0" cx="380.3" cy="60.8" r="1"/>
<circle class="st0" cx="211" cy="108.6" r="1"/>
<circle class="st0" cx="25.2" cy="188.5" r="1"/>
<circle class="st0" cx="140.5" cy="280.9" r="1.3"/>
<circle class="st0" cx="127.1" cy="328" r="1"/>
<circle class="st0" cx="289.5" cy="631" r="1"/>
<circle class="st0" cx="269.5" cy="540.9" r="1.3"/>
<circle class="st0" cx="228.8" cy="550.4" r="1.2"/>
<circle class="st0" cx="191.8" cy="457" r="1"/>
<circle class="st0" cx="167.2" cy="504.2" r="1"/>
<circle class="st0" cx="135.5" cy="549.3" r="1.1"/>
<circle class="st0" cx="179.3" cy="517.6" r="1.1"/>
<circle class="st0" cx="181.6" cy="516.3" r="0.8"/>
<circle class="st0" cx="255.3" cy="506.2" r="1.1"/>
<circle class="st0" cx="371.6" cy="345.5" r="1.1"/>
<circle class="st0" cx="362.1" cy="319.2" r="1.2"/>
<circle class="st0" cx="254.5" cy="367.6" r="1.1"/>
<circle class="st0" cx="236.4" cy="340.2" r="1"/>
<circle class="st0" cx="205.3" cy="345.8" r="1.2"/>
<circle class="st0" cx="386.5" cy="612.9" r="1.1"/>
<circle class="st0" cx="391.4" cy="291.9" r="1.1"/>
<circle class="st0" cx="625.3" cy="243.1" r="1"/>
<path class="st0" d="M539,200c-0.6-0.1-1.1,0.2-1.3,0.8s0.2,1.1,0.8,1.3c0.6,0.1,1.1-0.2,1.3-0.8S539.5,200.1,539,200z"/>
<circle class="st0" cx="740" cy="422.3" r="1.1"/>
<path class="st0" d="M508.7,374.6c-0.7-0.2-1.4,0.3-1.5,1c-0.2,0.7,0.3,1.4,1,1.5c0.7,0.2,1.4-0.3,1.5-1S509.4,374.8,508.7,374.6z"
	/>
<circle class="st0" cx="609.4" cy="596.7" r="1"/>
<circle class="st0" cx="623.5" cy="542" r="1.1"/>
<circle class="st0" cx="630.4" cy="483.7" r="1.1"/>
<circle class="st0" cx="642.6" cy="539.9" r="1.1"/>
<circle class="st0" cx="643.5" cy="542.6" r="0.8"/>
<circle class="st0" cx="534.7" cy="110.7" r="1"/>
<path class="st0" d="M716,373.7c0.7,0,1.2-0.5,1.2-1.2c0-0.7-0.5-1.2-1.2-1.2c-0.7,0-1.2,0.5-1.2,1.2
	C714.8,373.2,715.3,373.7,716,373.7z"/>
<circle class="st0" cx="713.5" cy="359.9" r="1.1"/>
<circle class="st0" cx="780.1" cy="367.5" r="1"/>
<circle class="st0" cx="634" cy="390.6" r="1.3"/>
<circle class="st0" cx="622.4" cy="438.2" r="1"/>
<circle class="st0" cx="331.3" cy="621.1" r="1"/>
<circle class="st0" cx="393.3" cy="552.7" r="1.3"/>
<circle class="st0" cx="423.9" cy="581.1" r="1.2"/>
<circle class="st0" cx="502.3" cy="518.3" r="1"/>
<circle class="st0" cx="500.3" cy="571.4" r="1"/>
<circle class="st0" cx="505.6" cy="626.3" r="1.1"/>
<circle class="st0" cx="483.2" cy="577.1" r="1.1"/>
<circle class="st0" cx="481.8" cy="574.8" r="0.8"/>
<circle class="st0" cx="422.8" cy="529.5" r="1.1"/>
<circle class="st0" cx="401.3" cy="332.4" r="1.1"/>
<circle class="st0" cx="422.6" cy="314.2" r="1.2"/>
<circle class="st0" cx="492.1" cy="409.5" r="1.1"/>
<circle class="st0" cx="521.4" cy="394.7" r="1"/>
<circle class="st0" cx="545.6" cy="415" r="1.2"/>
<g>
	<polyline class="st1" points="8.1,31.3 8.1,15.1 24.3,15.1 	"/>
	<polyline class="st1" points="772.3,649.1 788.5,649.1 788.5,632.9 	"/>
</g>
</svg>
