<?xml version="1.0" encoding="utf-8"?>
<!-- Generator: Adobe Illustrator 22.0.0, SVG Export Plug-In . SVG Version: 6.00 Build 0)  -->
<svg version="1.0" id="Layer_1" xmlns="http://www.w3.org/2000/svg" xmlns:xlink="http://www.w3.org/1999/xlink" x="0px" y="0px"
	 viewBox="0 0 680.3 311.8" style="enable-background:new 0 0 680.3 311.8;" xml:space="preserve">
<style type="text/css">
	.st0{fill:none;stroke:#CCCCCC;stroke-linecap:round;}
	.st1{fill:none;stroke:#EB3593;stroke-miterlimit:10;}
</style>
<path class="st0" d="M20.7,185.3c-1.2-1.1-2.3-2.2-3.5-3.4"/>
<path class="st0" d="M97.5,226.1c-0.6-0.5-1.2-1-1.8-1.6"/>
<path class="st0" d="M16.3,151.7c-1.1-1.1-2.3-2.3-3.4-3.4"/>
<path class="st0" d="M127.4,223.7c-1.2-1-2.4-2-3.6-3"/>
<path class="st0" d="M100.3,200.9c-1.8-1.5-3.6-3.1-5.3-4.6"/>
<path class="st0" d="M70.4,174.2c-0.6-0.5-1.2-1.1-1.8-1.6"/>
<path class="st0" d="M107,178.9c-3.5-3.1-7-6.1-10.4-9.2"/>
<path class="st0" d="M72.6,147.7c-1.1-1.1-2.3-2.1-3.4-3.2"/>
<path class="st0" d="M45.9,121.9c-1.1-1.1-2.2-2.2-3.3-3.3"/>
<path class="st0" d="M37.7,113.7c-1.1-1.1-2.2-2.2-3.3-3.3"/>
<path class="st0" d="M32.8,108.7c-1.1-1.1-2.2-2.2-3.2-3.3"/>
<path class="st0" d="M24.7,100.4c-0.5-0.6-1.1-1.1-1.6-1.7"/>
<path class="st0" d="M15.1,90.3c-1.1-1.1-2.1-2.3-3.2-3.4"/>
<path class="st0" d="M75.4,121.4c-1.6-1.6-3.3-3.2-4.9-4.8"/>
<path class="st0" d="M68.8,115c-1.1-1.1-2.2-2.1-3.3-3.2"/>
<path class="st0" d="M63.9,110.2c-1.6-1.6-3.3-3.2-4.9-4.8"/>
<path class="st0" d="M33.5,79.2c-1.6-1.7-3.1-3.3-4.7-5"/>
<path class="st0" d="M27.2,72.6c-1-1.1-2.1-2.2-3.1-3.3"/>
<path class="st0" d="M111.2,126.3c-1.7-1.5-3.3-3.1-5-4.6"/>
<path class="st0" d="M101.4,117.1c-1.6-1.5-3.3-3.1-4.9-4.6"/>
<path class="st0" d="M73.9,90.5c-2.1-2.1-4.2-4.2-6.4-6.4"/>
<path class="st0" d="M64.4,81c-0.5-0.5-1.1-1.1-1.6-1.6"/>
<path class="st0" d="M59.6,76.1c-0.5-0.5-1-1.1-1.6-1.6"/>
<path class="st0" d="M33.4,48.3c-3.5-3.9-7.1-7.8-10.6-11.7"/>
<path class="st0" d="M102.9,89.6c-2.1-2-4.2-4.1-6.3-6.2"/>
<path class="st0" d="M154.2,108.5c-1.1-1-2.2-1.9-3.2-2.9"/>
<path class="st0" d="M152.2,289.5c-1.2-0.6-2.5-1.2-3.7-1.8"/>
<path class="st0" d="M205.6,290.1c-1.9-0.8-3.8-1.6-5.7-2.4"/>
<path class="st0" d="M258.2,288.2c-1.2-0.5-2.5-0.9-3.7-1.4"/>
<path class="st0" d="M202.7,266.1c-0.6-0.3-1.2-0.5-1.8-0.8"/>
<path class="st0" d="M336,291.8c-1.2-0.4-2.5-0.7-3.7-1.1"/>
<path class="st0" d="M258.1,265.8c-1.8-0.7-3.7-1.4-5.5-2.1"/>
<path class="st0" d="M414.4,290.4c-1.2-0.3-2.5-0.6-3.7-0.8"/>
<path class="st0" d="M323.6,266.1c-0.6-0.2-1.2-0.4-1.8-0.6"/>
<path class="st0" d="M310.8,262c-1.2-0.4-2.4-0.8-3.6-1.2"/>
<path class="st0" d="M521,287.4c-0.6-0.1-1.3-0.2-1.9-0.2"/>
<path class="st0" d="M402.4,266.1c-1.2-0.3-2.4-0.6-3.6-0.9"/>
<path class="st0" d="M389.6,262.9c-1.8-0.5-3.6-0.9-5.5-1.4"/>
<path class="st0" d="M310.1,239.7c-1.8-0.6-3.6-1.2-5.3-1.8"/>
<path class="st0" d="M519.8,266.1c-1.8-0.2-3.7-0.5-5.5-0.7"/>
<path class="st0" d="M510.7,264.9c-1.8-0.2-3.6-0.5-5.5-0.8"/>
<path class="st0" d="M494.3,262.6c-1.8-0.3-3.7-0.6-5.5-0.8"/>
<path class="st0" d="M378.7,238.4c-1.8-0.5-3.6-1-5.3-1.4"/>
<path class="st0" d="M304.6,215.6c-1.8-0.6-3.5-1.2-5.3-1.8"/>
<path class="st0" d="M483.1,239.5c-1.8-0.3-3.6-0.6-5.3-0.9"/>
<path class="st0" d="M458.2,235.1c-0.6-0.1-1.2-0.2-1.8-0.3"/>
<path class="st0" d="M384.1,218.1c-1.8-0.5-3.5-0.9-5.3-1.4"/>
<path class="st0" d="M486.5,218.8c-1.2-0.2-2.3-0.4-3.5-0.6"/>
<path class="st0" d="M357.1,188.6c-1.1-0.3-2.2-0.7-3.4-1"/>
<path class="st0" d="M670.6,182.8c-1.4,1.4-2.8,2.8-4.2,4.2"/>
<path class="st0" d="M532.4,217.2c-5.4-6.1-10.7-12.2-15.9-18.4"/>
<path class="st0" d="M512.2,193.8c-0.5-0.6-0.9-1.1-1.4-1.7"/>
<path class="st0" d="M653.9,309.7c-1.1-1-2.2-1.9-3.2-2.9"/>
<path class="st0" d="M601.7,260.5c-0.5-0.5-1-1-1.5-1.6"/>
<path class="st0" d="M565.6,222.8c-3.9-4.3-7.8-8.6-11.7-12.9"/>
<path class="st0" d="M546.7,201.7c-1-1.1-1.9-2.2-2.9-3.3"/>
<path class="st0" d="M538.1,191.9c-1.9-2.2-3.8-4.4-5.7-6.6"/>
<path class="st0" d="M528.2,180.3c-2.8-3.3-5.6-6.7-8.3-10"/>
<path class="st0" d="M511.7,160.1c-1.4-1.7-2.7-3.4-4.1-5.1"/>
<path class="st0" d="M653.6,281.1c-3.7-3.4-7.3-6.8-11-10.2"/>
<path class="st0" d="M615,244.1c-1-1-2-2-3-3"/>
<path class="st0" d="M600.1,228.8c-1.5-1.5-3-3.1-4.4-4.6"/>
<path class="st0" d="M589.8,218c-1.5-1.6-2.9-3.1-4.4-4.7"/>
<path class="st0" d="M575.3,202.2c-1.4-1.6-2.9-3.2-4.3-4.8"/>
<path class="st0" d="M565.3,191.1c-2.4-2.7-4.7-5.3-7-8"/>
<path class="st0" d="M556.8,181.4c-0.9-1.1-1.9-2.2-2.8-3.2"/>
<path class="st0" d="M552.6,176.6c-1.9-2.2-3.7-4.3-5.5-6.5"/>
<path class="st0" d="M537.5,158.6c-0.9-1.1-1.8-2.2-2.7-3.3"/>
<path class="st0" d="M532.1,152c-5-6.1-9.8-12.2-14.7-18.4"/>
<path class="st0" d="M513.5,128.5c-1.4-1.9-4.5-3.7-5.9-5.6"/>
<path class="st0" d="M650.9,249.9c-4.6-4.4-9.1-8.7-13.6-13.2"/>
<path class="st0" d="M628.4,227.8c-1.5-1.5-3-3-4.4-4.5"/>
<path class="st0" d="M616.7,215.8c-5.8-6.1-11.6-12.2-17.3-18.3"/>
<path class="st0" d="M589.4,186.6c-1.4-1.6-2.8-3.1-4.2-4.7"/>
<path class="st0" d="M579.6,175.6c-1.9-2.1-3.7-4.2-5.5-6.3"/>
<path class="st0" d="M564.5,158.1c-0.9-1.1-1.8-2.1-2.7-3.2"/>
<path class="st0" d="M553.7,145.2c-3.6-4.3-7.1-8.7-10.6-13.1"/>
<path class="st0" d="M540.4,128.9c-0.9-1.1-1.7-2.2-2.6-3.3"/>
<path class="st0" d="M536.5,123.9c-1.3-1.7-2.6-3.3-3.9-5"/>
<path class="st0" d="M531.4,117.3c-1.3-1.7-2.6-3.3-3.9-5"/>
<path class="st0" d="M342.3,102.1c-2.5-3.4-5-6.8-7.4-10.2"/>
<path class="st0" d="M658,227.5c-8.4-8.2-16.7-16.4-24.8-24.8"/>
<path class="st0" d="M631.7,201.2c-1.4-1.5-2.9-3-4.3-4.5"/>
<path class="st0" d="M617.5,186.2c-1.4-1.5-2.8-3-4.2-4.6"/>
<path class="st0" d="M611.9,180.2c-3.7-4.1-7.4-8.1-11.1-12.2"/>
<path class="st0" d="M580.5,144.5c-7.1-8.4-14.1-16.9-21-25.5"/>
<path class="st0" d="M380.5,117.7c-2.5-3.3-5.1-6.5-7.6-9.8"/>
<path class="st0" d="M367.9,101.3c-2.5-3.3-5-6.6-7.4-9.9"/>
<path class="st0" d="M358,88c-5.3-7.2-10.5-14.5-15.6-21.8"/>
<path class="st0" d="M658.2,198.2c-1.4-1.4-2.8-2.9-4.3-4.3"/>
<path class="st0" d="M648.3,188.1c-7.1-7.3-14-14.7-20.9-22.1"/>
<path class="st0" d="M617.8,155.4c-0.5-0.5-0.9-1-1.4-1.5"/>
<path class="st0" d="M612.4,149.4c-0.5-0.5-0.9-1-1.4-1.5"/>
<path class="st0" d="M608.4,144.8c-3.1-3.6-6.2-7.2-9.3-10.8"/>
<path class="st0" d="M595.2,129.4c-0.4-0.5-0.9-1-1.3-1.6"/>
<path class="st0" d="M416.1,128.5c-9.9-12-19.5-24.2-29-36.6"/>
<path class="st0" d="M383.5,87.1c-15.2-20.3-29.8-41.1-43.7-62.3"/>
<path class="st0" d="M666.1,176.3c-0.9-0.9-1.8-1.9-2.8-2.8"/>
<path class="st0" d="M660.5,170.6c-1.8-1.9-3.7-3.8-5.5-5.8"/>
<path class="st0" d="M650.9,160.5c-2.7-2.9-5.4-5.8-8.1-8.7"/>
<path class="st0" d="M641.5,150.3c-1.3-1.5-2.7-2.9-4-4.4"/>
<path class="st0" d="M636.1,144.4c-1.8-2-3.6-3.9-5.3-5.9"/>
<path class="st0" d="M451.6,138c-13.1-15-25.7-30.4-38-46.1"/>
<path class="st0" d="M409.9,87.1c-18.7-24.2-36.4-49.1-53.1-74.7"/>
<path class="st0" d="M659.6,139c-0.4-0.5-0.9-0.9-1.3-1.4"/>
<path class="st0" d="M485.6,144.6c-11.4-12.5-22.6-25.3-33.4-38.3"/>
<path class="st0" d="M448.4,101.8c-2.9-3.5-5.8-7.1-8.6-10.6"/>
<path class="st0" d="M436.1,86.6c-19.1-24-37.2-48.7-54.2-74.2"/>
<path class="st0" d="M493.4,121.9c-1.3-1.4-2.5-2.9-3.8-4.3"/>
<path class="st0" d="M488.3,116.2c-1.3-1.4-2.5-2.9-3.8-4.3"/>
<path class="st0" d="M483.2,110.4c-5.4-6.3-10.8-12.6-16.1-19"/>
<path class="st0" d="M462.2,85.5c-19-23.3-37.1-47.3-54.2-72.1"/>
<path class="st0" d="M424.3,18.4c-1.5-2.1-2.9-4.1-4.4-6.2"/>
<path class="st0" d="M499.1,96.7c-1.6-1.9-3.3-3.8-4.9-5.7"/>
<path class="st0" d="M490.5,86.7c-20.3-23.9-39.5-48.7-57.7-74.3"/>
<path class="st0" d="M499.4,64.6c-14.2-17-27.8-34.5-40.8-52.4"/>
<path class="st0" d="M475.8,17.8c-1.1-1.5-2.2-2.9-3.3-4.4"/>
<path class="st0" d="M499.6,31.5c-4.9-6.1-9.6-12.3-14.3-18.6"/>
<g>
	<polyline class="st1" points="0.7,16.2 0.7,0 16.9,0 	"/>
	<polyline class="st1" points="665.1,312 681.3,312 681.3,295.8 	"/>
</g>
</svg>
