<?xml version="1.0" encoding="utf-8"?>
<!-- Generator: Adobe Illustrator 22.0.0, SVG Export Plug-In . SVG Version: 6.00 Build 0)  -->
<svg version="1.0" id="Layer_1" xmlns="http://www.w3.org/2000/svg" xmlns:xlink="http://www.w3.org/1999/xlink" x="0px" y="0px"
	 viewBox="0 0 467.7 765.4" style="enable-background:new 0 0 467.7 765.4;" xml:space="preserve">
<style type="text/css">
	.st0{fill:#181818;}
	.st1{fill:none;stroke:#EB3593;stroke-miterlimit:10;}
</style>
<g>
	<path class="st0" d="M24.9,654.2l140.7,89.7l-140.7-1.5V654.2 M19.9,645.1v9.1v88.2v4.9l4.9,0.1l140.7,1.5l17.5,0.2l-14.7-9.4
		L27.6,650L19.9,645.1L19.9,645.1z"/>
</g>
<g>
	<path class="st0" d="M24.9,473.1l144.6,263.8L24.9,647.2V473.1 M19.9,453.6v19.5v174.1v2.8l2.4,1.5l144.6,89.7l16.2,10l-9.1-16.7
		L29.3,470.7L19.9,453.6L19.9,453.6z"/>
</g>
<g>
	<path class="st0" d="M43.2,201.6l126.8,520.2l-145-259.7V213.9L43.2,201.6 M46.3,193.5l-6,4l-18.2,12.3l-2.2,1.5v2.7v248.2v1.3
		l0.6,1.1l145,259.7l17.9,32.1l-8.7-35.7L48,200.5L46.3,193.5L46.3,193.5z"/>
</g>
<g>
	<path class="st0" d="M176.4,124.8l0,590l-126-517.2L176.4,124.8 M181.4,116.1l-7.5,4.3L47.8,193.2l-3.2,1.9l0.9,3.6l126,517.2
		l9.9,40.4l0-41.6l0-590L181.4,116.1L181.4,116.1z"/>
</g>
<g>
	<path class="st0" d="M24.9,37.2l147.5,80.6L46.4,190.7l-21.4-22.9V37.2 M19.9,28.8v8.4v130.6v2l1.4,1.4l21.4,22.9l2.7,2.9l3.4-2
		L175,122.2l7.7-4.4l-7.8-4.3L27.3,32.9L19.9,28.8L19.9,28.8z"/>
</g>
<g>
	<path class="st0" d="M184.3,124.7l126.1,72.8L184.3,714.8L184.3,124.7 M179.3,116.1l0,8.7l0,590l0,41.6l9.9-40.4l126.1-517.2
		l0.9-3.6l-3.2-1.9l-126.1-72.8L179.3,116.1L179.3,116.1z"/>
</g>
<g>
	<path class="st0" d="M317.6,201.7l130.1,75.1l-256.9,445L317.6,201.7 M314.3,194l-1.6,6.5L185.9,720.6l-8.3,33.9l17.5-30.2
		l256.9-445l2.5-4.3l-4.3-2.5l-130.1-75.1L314.3,194L314.3,194z"/>
</g>
<g>
	<path class="st0" d="M449.1,290.1V588l-258,148.9L449.1,290.1 M454.1,271.5l-9.3,16.2l-258,446.8l-9.3,16.2l16.2-9.3l258-148.9
		l2.5-1.4V588V290.1V271.5L454.1,271.5z"/>
</g>
<g>
	<polyline class="st1" points="0.1,16.3 0.1,0.1 16.3,0.1 	"/>
	<polyline class="st1" points="451.3,765.1 467.5,765.1 467.5,748.9 	"/>
</g>
</svg>
