<?xml version="1.0" encoding="utf-8"?>
<!-- Generator: Adobe Illustrator 22.0.0, SVG Export Plug-In . SVG Version: 6.00 Build 0)  -->
<svg version="1.0" id="Layer_1" xmlns="http://www.w3.org/2000/svg" xmlns:xlink="http://www.w3.org/1999/xlink" x="0px" y="0px"
	 viewBox="0 0 467.7 765.4" style="enable-background:new 0 0 467.7 765.4;" xml:space="preserve">
<style type="text/css">
	.st0{fill:#FFFFFF;}
	.st1{fill:#19B3E8;}
	.st2{fill:none;stroke:#EB3593;stroke-miterlimit:10;}
</style>
<circle class="st0" cx="271.4" cy="303.5" r="1.3"/>
<circle class="st0" cx="323.3" cy="355.7" r="1.2"/>
<circle class="st0" cx="409.3" cy="369.9" r="1.4"/>
<circle class="st0" cx="321.3" cy="415.6" r="1"/>
<circle class="st0" cx="120" cy="566.5" r="1.2"/>
<circle class="st0" cx="94.8" cy="722.7" r="0.9"/>
<circle class="st0" cx="107.7" cy="111.7" r="1.1"/>
<path class="st0" d="M89.1,107.7c-0.4-0.4-0.4-0.9,0-1.3c0.4-0.4,0.9-0.4,1.3,0c0.4,0.4,0.4,0.9,0,1.3
	C90,108.1,89.5,108.1,89.1,107.7z"/>
<circle class="st0" cx="62.1" cy="422.6" r="1"/>
<circle class="st0" cx="224.7" cy="457.4" r="0.9"/>
<circle class="st0" cx="222.1" cy="451.7" r="0.8"/>
<circle class="st0" cx="254.8" cy="531.6" r="1"/>
<circle class="st0" cx="358.2" cy="636.6" r="1.1"/>
<circle class="st0" cx="208.4" cy="379.6" r="1.7"/>
<circle class="st0" cx="186.2" cy="337" r="1.3"/>
<circle class="st0" cx="329.4" cy="278.9" r="1.4"/>
<circle class="st1" cx="84.7" cy="609.1" r="1"/>
<g>
	<polyline class="st2" points="0.1,16.3 0.1,0.1 16.3,0.1 	"/>
	<polyline class="st2" points="451.3,765.1 467.5,765.1 467.5,748.9 	"/>
</g>
</svg>
