<?xml version="1.0" encoding="utf-8"?>
<!-- Generator: Adobe Illustrator 22.0.0, SVG Export Plug-In . SVG Version: 6.00 Build 0)  -->
<svg version="1.0" id="Layer_1" xmlns="http://www.w3.org/2000/svg" xmlns:xlink="http://www.w3.org/1999/xlink" x="0px" y="0px"
	 viewBox="0 0 467.7 765.4" style="enable-background:new 0 0 467.7 765.4;" xml:space="preserve">
<style type="text/css">
	.st0{fill:#FFFFFF;}
	.st1{fill:#19B3E8;}
	.st2{fill:none;stroke:#EB3593;stroke-miterlimit:10;}
</style>
<circle class="st0" cx="200.8" cy="188.5" r="1.2"/>
<circle class="st0" cx="326.3" cy="293.6" r="1.9"/>
<circle class="st0" cx="377.2" cy="307" r="1.2"/>
<circle class="st0" cx="336.2" cy="297" r="1.4"/>
<circle class="st0" cx="399.8" cy="424.3" r="3.3"/>
<circle class="st0" cx="300.2" cy="452.1" r="1.3"/>
<circle class="st0" cx="243.2" cy="450.2" r="1.1"/>
<circle class="st0" cx="124.8" cy="431.3" r="1.1"/>
<circle class="st0" cx="109.2" cy="481.5" r="1.7"/>
<circle class="st0" cx="431.2" cy="479.2" r="1.6"/>
<path class="st1" d="M24.9,627.2c0.2-0.7,0.7-1.5,0-1.6c-0.7-0.2,0.2,0.3,0,1s-0.7,1.5,0,1.6C25.7,628.4,24.8,627.9,24.9,627.2z"/>
<circle class="st0" cx="69.6" cy="179.5" r="1.4"/>
<circle class="st0" cx="38.1" cy="103.8" r="1.1"/>
<circle class="st0" cx="126.5" cy="127.4" r="1.5"/>
<path class="st0" d="M139.8,157c0,0.7-0.6,1.3-1.3,1.3s-1.3-0.6-1.3-1.3c0-0.7,0.6-1.3,1.3-1.3S139.8,156.3,139.8,157z"/>
<circle class="st0" cx="90.2" cy="384" r="1.3"/>
<circle class="st0" cx="77.6" cy="418.2" r="1.2"/>
<circle class="st0" cx="71.5" cy="432.2" r="1.2"/>
<circle class="st0" cx="53.3" cy="433.6" r="1"/>
<circle class="st0" cx="176.4" cy="473.5" r="1.2"/>
<circle class="st0" cx="206" cy="463.2" r="0.9"/>
<circle class="st0" cx="189.9" cy="525" r="0.9"/>
<circle class="st0" cx="249.7" cy="570.4" r="1.5"/>
<circle class="st0" cx="182.3" cy="658.9" r="1.3"/>
<circle class="st0" cx="113.9" cy="728.1" r="1.9"/>
<circle class="st0" cx="49.4" cy="644.5" r="1.5"/>
<circle class="st0" cx="334.3" cy="627.9" r="1.5"/>
<circle class="st0" cx="388.5" cy="579.3" r="1.4"/>
<circle class="st0" cx="312.7" cy="411.5" r="1.5"/>
<circle class="st0" cx="197.2" cy="361.7" r="3"/>
<circle class="st0" cx="148.9" cy="266.1" r="1.3"/>
<circle class="st0" cx="193.6" cy="284.7" r="1.1"/>
<circle class="st0" cx="259" cy="304.2" r="1.4"/>
<circle class="st0" cx="301.6" cy="226" r="1.2"/>
<circle class="st0" cx="368.7" cy="325.6" r="1.1"/>
<circle class="st0" cx="346.5" cy="223.8" r="1.2"/>
<circle class="st0" cx="250.1" cy="197.5" r="0.9"/>
<circle class="st0" cx="249.4" cy="180.7" r="1.2"/>
<path class="st1" d="M24.9,742.5c0,0.5,0.5,1,0,1C24.4,743.5,24.9,743,24.9,742.5s-0.5-1,0-1C25.5,741.5,24.9,742,24.9,742.5z"/>
<circle class="st1" cx="109.5" cy="621.8" r="0.8"/>
<circle class="st1" cx="415.5" cy="610.6" r="1.1"/>
<circle class="st1" cx="311.7" cy="217.2" r="1"/>
<g>
	<polyline class="st2" points="0.1,16.3 0.1,0.1 16.3,0.1 	"/>
	<polyline class="st2" points="451.3,765.1 467.5,765.1 467.5,748.9 	"/>
</g>
</svg>
