<?xml version="1.0" encoding="utf-8"?>
<!-- Generator: Adobe Illustrator 22.0.0, SVG Export Plug-In . SVG Version: 6.00 Build 0)  -->
<svg version="1.0" id="Layer_1" xmlns="http://www.w3.org/2000/svg" xmlns:xlink="http://www.w3.org/1999/xlink" x="0px" y="0px"
	 viewBox="0 0 467.7 765.4" style="enable-background:new 0 0 467.7 765.4;" xml:space="preserve">
<style type="text/css">
	.st0{fill:#19B3E8;}
	.st1{fill:none;stroke:#EB3593;stroke-miterlimit:10;}
</style>
<circle class="st0" cx="335.8" cy="306.6" r="1.4"/>
<circle class="st0" cx="265.4" cy="373.7" r="1.1"/>
<circle class="st0" cx="437.8" cy="357" r="1.3"/>
<circle class="st0" cx="65.3" cy="221" r="0.9"/>
<circle class="st0" cx="84.6" cy="260.2" r="1.1"/>
<circle class="st0" cx="46.3" cy="677.5" r="0.7"/>
<circle class="st0" cx="51.1" cy="602.9" r="0.8"/>
<circle class="st0" cx="58.4" cy="158.6" r="1"/>
<circle class="st0" cx="287.9" cy="699.1" r="0.9"/>
<circle class="st0" cx="425.9" cy="493.7" r="1.3"/>
<circle class="st0" cx="366.8" cy="482.3" r="1.2"/>
<circle class="st0" cx="362.2" cy="456" r="1"/>
<circle class="st0" cx="328" cy="423.6" r="1.3"/>
<circle class="st0" cx="231.2" cy="262.5" r="1.1"/>
<circle class="st0" cx="409.3" cy="486" r="1"/>
<path class="st0" d="M419.4,415.1c0,0.7-0.5,1.2-1.2,1.2c-0.7,0-1.2-0.5-1.2-1.2s0.5-1.2,1.2-1.2
	C418.8,413.9,419.4,414.5,419.4,415.1z"/>
<circle class="st0" cx="425.6" cy="282.6" r="1.1"/>
<circle class="st0" cx="413.1" cy="399.2" r="1"/>
<g>
	<polyline class="st1" points="0.1,16.3 0.1,0.1 16.3,0.1 	"/>
	<polyline class="st1" points="451.3,765.1 467.5,765.1 467.5,748.9 	"/>
</g>
</svg>
