<?xml version="1.0" encoding="utf-8"?>
<!-- Generator: Adobe Illustrator 22.0.0, SVG Export Plug-In . SVG Version: 6.00 Build 0)  -->
<svg version="1.0" id="Layer_1" xmlns="http://www.w3.org/2000/svg" xmlns:xlink="http://www.w3.org/1999/xlink" x="0px" y="0px"
	 viewBox="0 0 595.3 652" style="enable-background:new 0 0 595.3 652;" xml:space="preserve">
<style type="text/css">
	.st0{fill:#181818;}
	.st1{fill:none;stroke:#EB3593;stroke-miterlimit:10;}
</style>
<g>
	<path class="st0" d="M524.7,180.8L139.9,548.5L13.8,475.7L524.7,180.8 M558.3,155.6l-36,20.8l-510.9,295l-7.5,4.3l7.5,4.3
		l126.1,72.8l3.2,1.9l2.7-2.6l384.8-367.8L558.3,155.6L558.3,155.6z"/>
</g>
<g>
	<path class="st0" d="M522.8,172.8L9.8,468.9l0-156L522.8,172.8 M558.8,157.7l-37.3,10.2L8.5,308.1l-3.7,1l0,3.8l0,156l0,8.7
		l7.5-4.3l512.9-296.1L558.8,157.7L558.8,157.7z"/>
</g>
<g>
	<path class="st0" d="M534,182.8L277.1,627.8L147,552.7L534,182.8 M555.8,155.1l-25.2,24.1l-387,369.9l-4.8,4.6l5.8,3.3l130.1,75.1
		l4.3,2.5l2.5-4.3l256.9-444.9L555.8,155.1L555.8,155.1z"/>
</g>
<g>
	<path class="st0" d="M547.3,175.6v297.8L289.4,622.4L547.3,175.6 M552.3,157l-9.3,16.2L285.1,619.9l-9.3,16.2l16.2-9.3l257.9-148.9
		l2.5-1.4v-2.9V175.6V157L552.3,157z"/>
</g>
<g>
	<path class="st0" d="M278.6,7.9l257.9,149H20.7L278.6,7.9 M278.6,2.1l-2.5,1.4l-257.9,149L2,161.9h18.7h515.8h18.7l-16.2-9.3
		L281.1,3.6L278.6,2.1L278.6,2.1z"/>
</g>
<g>
	<path class="st0" d="M521.8,164.8L9.9,304.7V164.8H521.8 M559,159.8h-37.3H9.9h-5v5v139.9v6.5l6.3-1.7l511.9-139.9L559,159.8
		L559,159.8z"/>
</g>
<g>
	<polyline class="st1" points="0.7,16.2 0.7,0 16.8,0 	"/>
	<polyline class="st1" points="569.1,642 585.3,642 585.3,625.8 	"/>
</g>
</svg>
