<?xml version="1.0" encoding="utf-8"?>
<!-- Generator: Adobe Illustrator 22.0.0, SVG Export Plug-In . SVG Version: 6.00 Build 0)  -->
<svg version="1.0" id="Layer_1" xmlns="http://www.w3.org/2000/svg" xmlns:xlink="http://www.w3.org/1999/xlink" x="0px" y="0px"
	 viewBox="0 0 595.3 652" style="enable-background:new 0 0 595.3 652;" xml:space="preserve">
<style type="text/css">
	.st0{fill:#19B3E8;}
	.st1{fill:none;stroke:#EB3593;stroke-miterlimit:10;}
</style>
<circle class="st0" cx="236.4" cy="81.8" r="1"/>
<circle class="st0" cx="530.4" cy="210.6" r="1.6"/>
<circle class="st0" cx="59.3" cy="289" r="1"/>
<circle class="st0" cx="168.1" cy="194.7" r="1"/>
<circle class="st0" cx="120.3" cy="125.9" r="0.9"/>
<circle class="st0" cx="113.4" cy="112" r="0.9"/>
<circle class="st0" cx="265.6" cy="85.1" r="0.8"/>
<path class="st0" d="M373.5,236.1c0,0.6-0.5,1.1-1.1,1.1s-1.1-0.5-1.1-1.1c0-0.6,0.5-1.1,1.1-1.1S373.5,235.5,373.5,236.1z"/>
<g>
	<polyline class="st1" points="0.7,16.2 0.7,0 16.8,0 	"/>
	<polyline class="st1" points="569.1,642 585.3,642 585.3,625.8 	"/>
</g>
<circle class="st0" cx="236.4" cy="81.8" r="1"/>
<circle class="st0" cx="530.4" cy="210.6" r="1.6"/>
<circle class="st0" cx="59.3" cy="289" r="1"/>
<circle class="st0" cx="168.1" cy="194.7" r="1"/>
<circle class="st0" cx="120.3" cy="125.9" r="0.9"/>
<circle class="st0" cx="113.4" cy="112" r="0.9"/>
<circle class="st0" cx="265.6" cy="85.1" r="0.8"/>
<path class="st0" d="M373.5,236.1c0,0.6-0.5,1.1-1.1,1.1s-1.1-0.5-1.1-1.1c0-0.6,0.5-1.1,1.1-1.1S373.5,235.5,373.5,236.1z"/>
</svg>
