<?xml version="1.0" encoding="utf-8"?>
<!-- Generator: Adobe Illustrator 22.0.0, SVG Export Plug-In . SVG Version: 6.00 Build 0)  -->
<svg version="1.0" id="Layer_1" xmlns="http://www.w3.org/2000/svg" xmlns:xlink="http://www.w3.org/1999/xlink" x="0px" y="0px"
	 viewBox="0 0 595.3 652" style="enable-background:new 0 0 595.3 652;" xml:space="preserve">
<style type="text/css">
	.st0{fill:none;stroke:#CCCCCC;stroke-linecap:round;}
	.st1{fill:#FFFFFF;}
	.st2{fill:none;stroke:#EB3593;stroke-miterlimit:10;}
</style>
<path class="st0" d="M5.8,393.6c1-9.1,2.1-18.2,3.4-27.2"/>
<path class="st0" d="M14.3,335c0.1-0.5,0.2-1,0.3-1.4"/>
<path class="st0" d="M26.4,398.6c0.6-5.6,1.2-11.2,1.9-16.8"/>
<path class="st0" d="M33.7,345.7c1.2-6.9,2.5-13.8,3.9-20.7"/>
<path class="st0" d="M45.6,418.5c0.3-3.2,0.5-6.4,0.8-9.5"/>
<path class="st0" d="M51.6,366.8c0.8-5.4,1.7-10.8,2.6-16.2"/>
<path class="st0" d="M56.6,337.1c2.1-11.2,4.5-22.4,7.1-33.5"/>
<path class="st0" d="M63,361.7c0.3-1.8,0.6-3.6,0.9-5.3"/>
<path class="st0" d="M66.7,340.4c0.1-0.4,0.2-0.9,0.3-1.3"/>
<path class="st0" d="M78.2,335.8c1.4-7,2.8-13.9,4.4-20.9"/>
<path class="st0" d="M105.5,362c0.4-2.1,0.7-4.2,1.1-6.3"/>
<path class="st0" d="M106.9,445.1c0.2-3.4,0.4-6.7,0.6-10.1"/>
<path class="st0" d="M110.9,398.6c0.8-7.1,1.8-14.2,2.8-21.2"/>
<path class="st0" d="M114.2,373.7c0.1-0.4,0.1-0.8,0.2-1.3"/>
<path class="st0" d="M117.1,356.3c1.8-10.3,3.9-20.6,6.2-30.9"/>
<path class="st0" d="M117.4,445.6c0.1-1.7,0.2-3.3,0.3-5"/>
<path class="st0" d="M122.2,392.4c0.4-3.3,0.9-6.6,1.3-9.8"/>
<path class="st0" d="M125.2,371.6c1.1-7,2.3-13.9,3.6-20.8"/>
<path class="st0" d="M130,344.7c0.2-1.2,0.5-2.4,0.7-3.6"/>
<path class="st0" d="M128.2,440.1c0.3-5.3,0.7-10.6,1.2-15.9"/>
<path class="st0" d="M132,398.7c0.6-5.3,1.3-10.5,2.1-15.8"/>
<path class="st0" d="M136.5,367.2c1.5-8.8,3.1-17.7,4.9-26.4"/>
<path class="st0" d="M144.9,325.2c2.8-12.3,6-24.6,9.5-36.7"/>
<path class="st0" d="M139.1,434.7c0.1-1.6,0.2-3.2,0.4-4.8"/>
<path class="st0" d="M143.3,392.7c0.2-1.6,0.4-3.2,0.6-4.8"/>
<path class="st0" d="M150.1,351.1c0.4-2,0.8-3.9,1.2-5.9"/>
<path class="st0" d="M159.7,308.8c1.3-5.1,2.7-10.1,4.1-15.1"/>
<path class="st0" d="M149.6,435.4c0.7-10.7,1.7-21.3,3-31.9"/>
<path class="st0" d="M157.8,367.1c1.2-7,2.5-14,4-21"/>
<path class="st0" d="M169,314.9c1-3.8,2-7.6,3-11.5"/>
<path class="st0" d="M160.1,435c0.6-8.9,1.5-17.9,2.5-26.7"/>
<path class="st0" d="M171.6,350.5c0.1-0.4,0.2-0.7,0.2-1.1"/>
<path class="st0" d="M178.6,319.8c0.5-1.9,1-3.8,1.4-5.7"/>
<path class="st0" d="M171,430c0.7-8.8,1.6-17.6,2.6-26.3"/>
<path class="st0" d="M185.5,335.8c0.9-3.7,1.7-7.5,2.7-11.2"/>
<path class="st0" d="M182.1,424.1c0.1-1.1,0.2-2.2,0.3-3.4"/>
<path class="st0" d="M184.2,403.8c0.2-1.9,0.5-3.7,0.7-5.6"/>
<path class="st0" d="M194.2,408.4c0.6-5.2,1.3-10.3,2-15.4"/>
<path class="st0" d="M203.4,352.4c0.5-2.2,0.9-4.3,1.4-6.5"/>
<path class="st0" d="M207.2,335c1.2-5.1,2.5-10.1,3.8-15.1"/>
<path class="st0" d="M214.3,351.3c0.4-1.8,0.8-3.6,1.2-5.4"/>
<path class="st0" d="M231.3,325.3c1.9-7.3,4-14.5,6.2-21.8"/>
<path class="st0" d="M224.4,422.6c0.1-1.1,0.2-2.1,0.3-3.2"/>
<path class="st0" d="M234.2,429.9c0.2-2.1,0.4-4.2,0.6-6.2"/>
<path class="st0" d="M236.4,409.2c1-8.3,2.2-16.5,3.6-24.7"/>
<path class="st0" d="M243.2,367.1c0.7-3.4,1.4-6.8,2.1-10.2"/>
<path class="st0" d="M245.5,355.9c0.7-3.4,1.5-6.8,2.3-10.1"/>
<path class="st0" d="M244.3,434.9c0.1-1.7,0.3-3.4,0.4-5.1"/>
<path class="st0" d="M249.2,393.3c0.3-1.7,0.5-3.4,0.8-5.1"/>
<path class="st0" d="M259,398.9c1.3-8.9,2.8-17.8,4.6-26.7"/>
<path class="st0" d="M269.4,345.7c0.9-3.6,1.8-7.1,2.7-10.7"/>
<path class="st0" d="M276.8,318.6c0.4-1.3,0.8-2.6,1.2-3.8"/>
<path class="st0" d="M272.3,382.9c0.3-1.9,0.7-3.9,1.1-5.8"/>
<path class="st0" d="M281.6,340.6c0.2-0.6,0.3-1.3,0.5-1.9"/>
<path class="st0" d="M277.5,419.2c0.6-5.1,1.3-10.2,2-15.3"/>
<path class="st0" d="M282.1,387.6c0.6-3.5,1.3-7,1.9-10.5"/>
<path class="st0" d="M293.7,335.8c1.5-5.3,3-10.5,4.6-15.8"/>
<path class="st0" d="M301.9,308.9c0.4-1.2,0.8-2.4,1.2-3.7"/>
<path class="st0" d="M303.4,304.3c1.2-3.7,2.5-7.3,3.9-10.9"/>
<path class="st0" d="M308.2,290.7c0.3-0.9,0.7-1.8,1-2.7"/>
<path class="st0" d="M288.7,413.8c0.6-5,1.4-10,2.1-15"/>
<path class="st0" d="M306.2,330.3c0.5-1.8,1.1-3.6,1.6-5.4"/>
<path class="st0" d="M308.4,323.1c0.4-1.2,0.7-2.4,1.1-3.6"/>
<path class="st0" d="M316.5,298.8c0.6-1.8,1.3-3.6,2-5.3"/>
<path class="st0" d="M300.7,404.1c1.1-7.1,2.2-14.1,3.6-21.1"/>
<path class="st0" d="M310,356.6c0.9-3.6,1.8-7.2,2.8-10.8"/>
<path class="st0" d="M315.7,335.1c2-6.9,4.1-13.7,6.3-20.4"/>
<path class="st0" d="M331.5,319.7c0.6-1.7,1.2-3.5,1.7-5.2"/>
<path class="st0" d="M321.2,408.9c0.5-3.5,1.1-7.1,1.7-10.6"/>
<path class="st0" d="M326.8,377.3c1.1-5.2,2.3-10.5,3.6-15.7"/>
<path class="st0" d="M339.8,328.1c0.4-1.1,0.7-2.3,1.1-3.4"/>
<path class="st0" d="M344.1,398.4c1.5-8.7,3.3-17.4,5.3-26"/>
<path class="st0" d="M357.8,340.9c0.6-1.9,1.2-3.8,1.8-5.7"/>
<path class="st0" d="M355.8,392.8c0.3-1.7,0.6-3.3,1-5"/>
<path class="st0" d="M372.1,330.4c0.6-1.9,1.3-3.7,1.9-5.6"/>
<path class="st0" d="M365.4,398.8c0.2-1.1,0.4-2.1,0.6-3.2"/>
<path class="st0" d="M366.4,393.2c0.3-1.6,0.6-3.2,1-4.8"/>
<path class="st0" d="M385,325.2c2.6-7.2,5.3-14.3,8.2-21.4"/>
<path class="st0" d="M373.5,414.1c0.3-1.8,0.6-3.7,0.9-5.5"/>
<path class="st0" d="M384.6,361.6c0.5-1.8,1-3.6,1.5-5.4"/>
<path class="st0" d="M392.3,336.3c0.7-2,1.4-4,2.1-6.1"/>
<path class="st0" d="M393.9,367.4c1.1-4.3,2.3-8.5,3.6-12.8"/>
<path class="st0" d="M401.7,341.1c0.3-1,0.7-2,1-3"/>
<path class="st0" d="M407.5,324.9c1.8-4.9,3.8-9.8,5.8-14.6"/>
<path class="st0" d="M416.8,330c0.6-1.7,1.3-3.3,1.9-5"/>
<path class="st0" d="M444.4,346.3c1.9-5.4,3.9-10.7,6.1-15.9"/>
<path class="st0" d="M463,356.5c1.2-3.6,2.6-7.2,3.9-10.8"/>
<path class="st0" d="M470.3,408.8c1.1-5.2,2.3-10.4,3.6-15.5"/>
<path class="st0" d="M481.6,367c1.8-5.2,3.6-10.4,5.6-15.6"/>
<path class="st0" d="M479.9,414.6c0.5-2.6,1.1-5.2,1.6-7.9"/>
<path class="st0" d="M489.6,419.6c0.7-3.7,1.5-7.5,2.3-11.2"/>
<path class="st0" d="M523.4,374.5c0.9-2.5,1.8-5,2.7-7.4"/>
<path class="st0" d="M531.7,382.7c0.7-2.1,1.4-4.1,2.2-6.2"/>
<path class="st0" d="M541,388c1.1-3.3,2.3-6.6,3.5-9.9"/>
<path class="st0" d="M550.7,435.5c0.3-1.8,0.6-3.5,1-5.3"/>
<circle class="st1" cx="78.8" cy="132.9" r="1"/>
<circle class="st1" cx="350.5" cy="213.2" r="1"/>
<circle class="st1" cx="485.1" cy="227.6" r="1.4"/>
<circle class="st1" cx="479.9" cy="266.4" r="1.2"/>
<circle class="st1" cx="244.8" cy="103.3" r="1.3"/>
<circle class="st1" cx="270.8" cy="51.6" r="1.2"/>
<circle class="st1" cx="395" cy="330.1" r="1.2"/>
<circle class="st1" cx="76.2" cy="313.4" r="1.3"/>
<circle class="st1" cx="107.4" cy="341.4" r="1.1"/>
<circle class="st1" cx="317.4" cy="323.2" r="1.9"/>
<circle class="st1" cx="171.7" cy="95.9" r="1.1"/>
<circle class="st1" cx="218.8" cy="122.2" r="3.8"/>
<circle class="st1" cx="424.1" cy="102.2" r="1.1"/>
<circle class="st1" cx="449.5" cy="97.7" r="1.3"/>
<circle class="st1" cx="546.1" cy="132.7" r="1.4"/>
<g>
	<polyline class="st2" points="0.7,16.2 0.7,0 16.8,0 	"/>
	<polyline class="st2" points="569.1,642 585.3,642 585.3,625.8 	"/>
</g>
</svg>
