<?xml version="1.0" encoding="utf-8"?>
<!-- Generator: Adobe Illustrator 22.0.0, SVG Export Plug-In . SVG Version: 6.00 Build 0)  -->
<svg version="1.0" id="Layer_1" xmlns="http://www.w3.org/2000/svg" xmlns:xlink="http://www.w3.org/1999/xlink" x="0px" y="0px"
	 viewBox="0 0 595.3 652" style="enable-background:new 0 0 595.3 652;" xml:space="preserve">
<style type="text/css">
	.st0{fill:#181818;}
	.st1{fill:none;stroke:#EB3593;stroke-miterlimit:10;}
</style>
<g>
	<path class="st0" d="M38.2,178.3l512.9,140.2l0,156L38.2,178.3 M2.1,163.3l33.5,19.4l512.9,296.1l7.5,4.3l0-8.7l0-156l0-3.8l-3.7-1
		L39.5,173.5L2.1,163.3L2.1,163.3z"/>
</g>
<g>
	<path class="st0" d="M36.2,186.3l510.9,295L421,554.1L36.2,186.3 M2.7,161.2l30.1,28.8l384.8,367.8l2.7,2.6l3.2-1.9l126.1-72.8
		l7.5-4.3l-7.5-4.3L38.7,182L2.7,161.2L2.7,161.2z"/>
</g>
<g>
	<path class="st0" d="M551.1,170.4v139.9L39.2,170.4H551.1 M556.1,165.4h-5H39.2H1.9l35.9,9.8l511.9,139.9l6.3,1.7v-6.5V170.4V165.4
		L556.1,165.4z"/>
</g>
<g>
	<path class="st0" d="M282.3,13.5l257.9,149H24.4L282.3,13.5 M282.3,7.7l-2.5,1.4l-257.9,149l-16.2,9.3h18.7h515.8h18.7l-16.2-9.3
		L284.8,9.1L282.3,7.7L282.3,7.7z"/>
</g>
<g>
	<path class="st0" d="M13.6,181.2L271.5,628L13.6,479V181.2 M8.6,162.5v18.7V479v2.9l2.5,1.4l257.9,149l16.2,9.3l-9.3-16.2
		L17.9,178.7L8.6,162.5L8.6,162.5z"/>
</g>
<g>
	<path class="st0" d="M26.9,188.4l386.9,369.8l-130.1,75.1L26.9,188.4 M5.1,160.7l17.5,30.2l256.8,444.9l2.5,4.3l4.3-2.5l130.1-75.1
		l5.8-3.3l-4.8-4.6L30.3,184.8L5.1,160.7L5.1,160.7z"/>
</g>
<g>
	<polyline class="st1" points="0.7,16.2 0.7,0 16.8,0 	"/>
	<polyline class="st1" points="569.1,642 585.3,642 585.3,625.8 	"/>
</g>
</svg>
