<?xml version="1.0" encoding="utf-8"?>
<!-- Generator: Adobe Illustrator 22.0.0, SVG Export Plug-In . SVG Version: 6.00 Build 0)  -->
<svg version="1.0" id="Layer_1" xmlns="http://www.w3.org/2000/svg" xmlns:xlink="http://www.w3.org/1999/xlink" x="0px" y="0px"
	 viewBox="0 0 595.3 652" style="enable-background:new 0 0 595.3 652;" xml:space="preserve">
<style type="text/css">
	.st0{fill:#FFFFFF;}
	.st1{fill:none;stroke:#EB3593;stroke-miterlimit:10;}
</style>
<circle class="st0" cx="381.8" cy="565.9" r="1.1"/>
<circle class="st0" cx="444.4" cy="457.8" r="1.2"/>
<circle class="st0" cx="425.6" cy="403.9" r="1.2"/>
<circle class="st0" cx="435" cy="390.7" r="1"/>
<circle class="st0" cx="53.2" cy="447.6" r="1.2"/>
<circle class="st0" cx="440.2" cy="199.4" r="1"/>
<circle class="st0" cx="473.6" cy="207.7" r="1.1"/>
<circle class="st0" cx="347.1" cy="284.2" r="1.3"/>
<circle class="st0" cx="266.7" cy="88.6" r="0.9"/>
<circle class="st0" cx="119.6" cy="275.3" r="1"/>
<circle class="st0" cx="120.4" cy="179.4" r="1"/>
<circle class="st0" cx="423.4" cy="420" r="1.1"/>
<circle class="st0" cx="157.1" cy="580.2" r="1.1"/>
<circle class="st0" cx="182.5" cy="575.7" r="1.3"/>
<circle class="st0" cx="133.7" cy="429.8" r="0.8"/>
<circle class="st0" cx="309.2" cy="354.4" r="1.3"/>
<circle class="st0" cx="331.1" cy="319.7" r="1.3"/>
<circle class="st0" cx="58.7" cy="169.2" r="1"/>
<g>
	<polyline class="st1" points="0.7,16.2 0.7,0 16.8,0 	"/>
	<polyline class="st1" points="569.1,642 585.3,642 585.3,625.8 	"/>
</g>
</svg>
