<?xml version="1.0" encoding="utf-8"?>
<!-- Generator: Adobe Illustrator 22.0.0, SVG Export Plug-In . SVG Version: 6.00 Build 0)  -->
<svg version="1.0" id="Layer_1" xmlns="http://www.w3.org/2000/svg" xmlns:xlink="http://www.w3.org/1999/xlink" x="0px" y="0px"
	 viewBox="0 0 595.3 652" style="enable-background:new 0 0 595.3 652;" xml:space="preserve">
<style type="text/css">
	.st0{fill:#19B3E8;}
	.st1{fill:none;stroke:#EB3593;stroke-miterlimit:10;}
</style>
<circle class="st0" cx="14.3" cy="247.9" r="1.3"/>
<circle class="st0" cx="461.6" cy="210.3" r="1"/>
<circle class="st0" cx="416.2" cy="243.9" r="0.8"/>
<circle class="st0" cx="307.6" cy="627.2" r="0.8"/>
<circle class="st0" cx="57" cy="485.1" r="1"/>
<circle class="st0" cx="44.4" cy="379.4" r="1"/>
<circle class="st0" cx="24" cy="371.6" r="1.1"/>
<circle class="st0" cx="17.8" cy="246.9" r="1"/>
<circle class="st0" cx="217.1" cy="224.9" r="1"/>
<circle class="st0" cx="309.4" cy="255.8" r="0.8"/>
<path class="st0" d="M117.5,174.8c0,0.5-0.4,1-1,1c-0.5,0-1-0.4-1-1s0.4-1,1-1C117,173.8,117.5,174.3,117.5,174.8z"/>
<path class="st0" d="M27.9,176.1c0,0.7-0.5,1.2-1.2,1.2c-0.7,0-1.2-0.5-1.2-1.2c0-0.7,0.5-1.2,1.2-1.2
	C27.3,174.9,27.9,175.4,27.9,176.1z"/>
<circle class="st0" cx="14.1" cy="173.6" r="1.1"/>
<circle class="st0" cx="21.6" cy="160.2" r="1"/>
<circle class="st0" cx="408.9" cy="143.5" r="1"/>
<circle class="st0" cx="440.5" cy="205.2" r="1.4"/>
<g>
	<polyline class="st1" points="0.7,16.2 0.7,0 16.8,0 	"/>
	<polyline class="st1" points="569.1,642 585.3,642 585.3,625.8 	"/>
</g>
</svg>
