<?xml version="1.0" encoding="utf-8"?>
<!-- Generator: Adobe Illustrator 22.0.0, SVG Export Plug-In . SVG Version: 6.00 Build 0)  -->
<svg version="1.0" id="Layer_1" xmlns="http://www.w3.org/2000/svg" xmlns:xlink="http://www.w3.org/1999/xlink" x="0px" y="0px"
	 viewBox="0 0 595.3 652" style="enable-background:new 0 0 595.3 652;" xml:space="preserve">
<style type="text/css">
	.st0{fill:#FFFFFF;}
	.st1{fill:none;stroke:#EB3593;stroke-miterlimit:10;}
</style>
<circle class="st0" cx="305.7" cy="634.8" r="1.1"/>
<circle class="st0" cx="426.5" cy="538.2" r="1.1"/>
<circle class="st0" cx="552.3" cy="404.3" r="1.5"/>
<circle class="st0" cx="504.4" cy="330.2" r="2"/>
<circle class="st0" cx="391.4" cy="471" r="0.9"/>
<circle class="st0" cx="280.7" cy="332.7" r="1.1"/>
<circle class="st0" cx="266.1" cy="385.2" r="1.4"/>
<circle class="st0" cx="196.8" cy="383.7" r="1.6"/>
<circle class="st0" cx="128.7" cy="517" r="1.6"/>
<circle class="st0" cx="62.8" cy="428.3" r="1.6"/>
<circle class="st0" cx="530.7" cy="235.9" r="1.4"/>
<circle class="st0" cx="270.5" cy="206.9" r="1.1"/>
<circle class="st0" cx="313.7" cy="212.6" r="1.4"/>
<circle class="st0" cx="350.3" cy="215.2" r="1.2"/>
<circle class="st0" cx="477.4" cy="235.2" r="0.8"/>
<circle class="st0" cx="492.1" cy="258" r="1.4"/>
<circle class="st0" cx="410" cy="288" r="1.1"/>
<circle class="st0" cx="341.3" cy="120.8" r="2.1"/>
<circle class="st0" cx="302.6" cy="135.8" r="1.2"/>
<circle class="st0" cx="214.6" cy="110.9" r="1"/>
<circle class="st0" cx="318.9" cy="73" r="1.2"/>
<circle class="st0" cx="71.3" cy="279.9" r="1.2"/>
<circle class="st0" cx="97" cy="285.5" r="1.2"/>
<circle class="st0" cx="205.9" cy="218.2" r="0.9"/>
<circle class="st0" cx="200.6" cy="168.9" r="1.5"/>
<circle class="st0" cx="118" cy="116.9" r="1.3"/>
<circle class="st0" cx="131.1" cy="95.9" r="1.7"/>
<circle class="st0" cx="515" cy="486.9" r="1.1"/>
<circle class="st0" cx="531.4" cy="447.5" r="1.4"/>
<circle class="st0" cx="503.2" cy="410.1" r="1.9"/>
<circle class="st0" cx="473.7" cy="406.4" r="1.3"/>
<circle class="st0" cx="279.1" cy="610.7" r="1.4"/>
<circle class="st0" cx="284.9" cy="498.6" r="1.6"/>
<circle class="st0" cx="226.1" cy="490.5" r="1.1"/>
<circle class="st0" cx="31.6" cy="467.5" r="1.4"/>
<circle class="st0" cx="59" cy="473" r="1.3"/>
<circle class="st0" cx="90" cy="452.5" r="1.4"/>
<circle class="st0" cx="178.3" cy="410.8" r="1.2"/>
<circle class="st0" cx="166.5" cy="283" r="1.4"/>
<circle class="st0" cx="107.7" cy="269.4" r="1.9"/>
<circle class="st0" cx="205" cy="217.8" r="1.4"/>
<ellipse transform="matrix(0.1602 -0.9871 0.9871 0.1602 102.6218 356.3628)" class="st0" cx="260.7" cy="117.9" rx="1.2" ry="1.2"/>
<circle class="st0" cx="73.1" cy="186.6" r="1.7"/>
<circle class="st0" cx="464.3" cy="305.6" r="1"/>
<circle class="st0" cx="436" cy="288.2" r="0.9"/>
<circle class="st0" cx="404" cy="259.1" r="1.3"/>
<circle class="st0" cx="437" cy="248.8" r="1.3"/>
<circle class="st0" cx="458" cy="173.6" r="1.3"/>
<circle class="st0" cx="412.2" cy="129.7" r="1.8"/>
<circle class="st0" cx="384.7" cy="112.3" r="1.1"/>
<circle class="st0" cx="272.3" cy="35.1" r="1.4"/>
<circle class="st0" cx="286.6" cy="42" r="1.6"/>
<circle class="st0" cx="455.6" cy="162.3" r="1.8"/>
<g>
	<polyline class="st1" points="0.7,16.2 0.7,0 16.8,0 	"/>
	<polyline class="st1" points="569.1,642 585.3,642 585.3,625.8 	"/>
</g>
</svg>
